%FSAX44Y44*%
%MOMM*%
G71*
G01*
G75*
%ADD10R,1.1000X1.7000*%
%ADD11R,1.7000X1.1000*%
%ADD12C,0.5080*%
%ADD13C,1.5000*%
%ADD14C,1.0000*%
%ADD15R,6.5000X6.0000*%
%ADD16R,3.0000X1.4000*%
%ADD17O,1.6500X0.5500*%
%ADD18O,0.5500X1.6500*%
%ADD19R,1.1000X1.4000*%
%ADD20O,0.6000X1.9000*%
%ADD21C,1.4000*%
%ADD22C,1.5240*%
%ADD23C,1.5000*%
%ADD24C,1.8500*%
%ADD25C,1.2700*%
%ADD26C,3.4500*%
%ADD27C,3.0000*%
%ADD28R,3.0000X3.0000*%
%ADD29C,2.0000*%
%ADD30R,2.0000X2.0000*%
%ADD31C,2.0000*%
%ADD32R,2.0000X2.0000*%
%ADD33R,2.0000X2.0000*%
%ADD34R,1.5000X1.5000*%
%ADD35R,2.0000X2.0000*%
%ADD36C,1.4000*%
%ADD37C,0.5000*%
%ADD38C,0.8000*%
%ADD39O,1.3000X0.5800*%
%ADD40R,1.3000X0.5800*%
%ADD41R,6.0000X6.5000*%
%ADD42R,1.4000X3.0000*%
%ADD43R,0.9960X2.2191*%
%ADD44C,0.2500*%
%ADD45C,0.2540*%
%ADD46C,0.2000*%
%ADD47C,0.6000*%
%ADD48C,0.5000*%
%ADD49R,2.8000X0.8000*%
%ADD50R,0.8000X2.8000*%
%ADD51R,1.3032X1.9032*%
%ADD52R,1.9032X1.3032*%
%ADD53R,6.7032X6.2032*%
%ADD54R,3.2032X1.6032*%
%ADD55O,1.8532X0.7532*%
%ADD56O,0.7532X1.8532*%
%ADD57R,1.3032X1.6032*%
%ADD58O,0.8032X2.1032*%
%ADD59C,1.7272*%
%ADD60C,1.7032*%
%ADD61C,2.0532*%
%ADD62C,3.2032*%
%ADD63R,3.2032X3.2032*%
%ADD64C,2.2032*%
%ADD65R,2.2032X2.2032*%
%ADD66C,2.2032*%
%ADD67R,2.2032X2.2032*%
%ADD68R,2.2032X2.2032*%
%ADD69R,1.7032X1.7032*%
%ADD70R,2.2032X2.2032*%
%ADD71C,1.6032*%
%ADD72C,3.6532*%
%ADD73O,1.5032X0.7832*%
%ADD74R,1.5032X0.7832*%
%ADD75R,6.2032X6.7032*%
%ADD76R,1.6032X3.2032*%
%ADD77C,0.0254*%
%ADD78C,0.1270*%
%ADD79C,0.1693*%
%ADD80C,0.1016*%
D78*
X00439270Y00721460D02*
X00479270D01*
X00459270Y00701460D02*
Y00741460D01*
X00439270Y00281460D02*
X00479270D01*
X00459270Y00261460D02*
Y00301460D01*
X00729270Y00281460D02*
X00769270D01*
X00749270Y00261460D02*
Y00301460D01*
X00729270Y00721460D02*
X00769270D01*
X00749270Y00701460D02*
Y00741460D01*
X00664510Y00510830D02*
X00674510D01*
X00669510Y00505830D02*
Y00515830D01*
X00664510Y00490430D02*
X00674510D01*
X00669510Y00485430D02*
Y00495430D01*
X00664510Y00470030D02*
X00674510D01*
X00669510Y00465030D02*
Y00475030D01*
X00644210Y00521030D02*
X00654210D01*
X00649210Y00516030D02*
Y00526030D01*
X00644210Y00500630D02*
X00654210D01*
X00649210Y00495630D02*
Y00505630D01*
X00644210Y00480230D02*
X00654210D01*
X00649210Y00475230D02*
Y00485230D01*
X00538870Y00380060D02*
X00548870D01*
X00543870Y00375060D02*
Y00385060D01*
X00559270Y00380060D02*
X00569270D01*
X00564270Y00375060D02*
Y00385060D01*
X00579670Y00380060D02*
X00589670D01*
X00584670Y00375060D02*
Y00385060D01*
X00528670Y00359760D02*
X00538670D01*
X00533670Y00354760D02*
Y00364760D01*
X00549070Y00359760D02*
X00559070D01*
X00554070Y00354760D02*
Y00364760D01*
X00569470Y00359760D02*
X00579470D01*
X00574470Y00354760D02*
Y00364760D01*
X00552770Y00511030D02*
X00562770D01*
X00557770Y00506030D02*
Y00516030D01*
X00552770Y00490630D02*
X00562770D01*
X00557770Y00485630D02*
Y00495630D01*
X00552770Y00470230D02*
X00562770D01*
X00557770Y00465230D02*
Y00475230D01*
X00532470Y00521230D02*
X00542470D01*
X00537470Y00516230D02*
Y00526230D01*
X00532470Y00500830D02*
X00542470D01*
X00537470Y00495830D02*
Y00505830D01*
X00532470Y00480430D02*
X00542470D01*
X00537470Y00475430D02*
Y00485430D01*
X00569670Y00622630D02*
X00579670D01*
X00574670Y00617630D02*
Y00627630D01*
X00549270Y00622630D02*
X00559270D01*
X00554270Y00617630D02*
Y00627630D01*
X00528870Y00622630D02*
X00538870D01*
X00533870Y00617630D02*
Y00627630D01*
X00579870Y00642930D02*
X00589870D01*
X00584870Y00637930D02*
Y00647930D01*
X00559470Y00642930D02*
X00569470D01*
X00564470Y00637930D02*
Y00647930D01*
X00539070Y00642930D02*
X00549070D01*
X00544070Y00637930D02*
Y00647930D01*
X00651730Y00701380D02*
X00662730D01*
X00657230Y00695880D02*
Y00706880D01*
X00676730Y00701380D02*
X00687730D01*
X00682230Y00695880D02*
Y00706880D01*
X00701730Y00701380D02*
X00712730D01*
X00707230Y00695880D02*
Y00706880D01*
X00651730Y00734380D02*
X00662730D01*
X00657230Y00728880D02*
Y00739880D01*
X00676730Y00734380D02*
X00687730D01*
X00682230Y00728880D02*
Y00739880D01*
X00701730Y00734380D02*
X00712730D01*
X00707230Y00728880D02*
Y00739880D01*
X00547864Y00561430D02*
X00554976D01*
X00551420Y00557874D02*
Y00564986D01*
X00457694Y00498170D02*
X00464806D01*
X00461250Y00494614D02*
Y00501726D01*
X00467854Y00406730D02*
X00474966D01*
X00471410Y00403174D02*
Y00410286D01*
X00748524Y00651840D02*
X00755636D01*
X00752080Y00648284D02*
Y00655396D01*
X00587234Y00462610D02*
X00594346D01*
X00590790Y00459054D02*
Y00466166D01*
X00702804Y00597230D02*
X00709916D01*
X00706360Y00593674D02*
Y00600786D01*
X00682760Y00543230D02*
X00717260D01*
X00700010Y00525980D02*
Y00560480D01*
X00682760Y00448030D02*
X00717260D01*
X00700010Y00430780D02*
Y00465280D01*
X00494420Y00329260D02*
X00528920D01*
X00511670Y00312010D02*
Y00346510D01*
X00589620Y00329260D02*
X00624120D01*
X00606870Y00312010D02*
Y00346510D01*
X00489720Y00543230D02*
X00524220D01*
X00506970Y00525980D02*
Y00560480D01*
X00489720Y00448030D02*
X00524220D01*
X00506970Y00430780D02*
Y00465280D01*
X00589620Y00673430D02*
X00624120D01*
X00606870Y00656180D02*
Y00690680D01*
X00494420Y00673430D02*
X00528920D01*
X00511670Y00656180D02*
Y00690680D01*
X00439270Y01221460D02*
X00479270D01*
X00459270Y01201460D02*
Y01241460D01*
X00439270Y00781460D02*
X00479270D01*
X00459270Y00761460D02*
Y00801460D01*
X00729270Y00781460D02*
X00769270D01*
X00749270Y00761460D02*
Y00801460D01*
X00729270Y01221460D02*
X00769270D01*
X00749270Y01201460D02*
Y01241460D01*
X00664510Y01010830D02*
X00674510D01*
X00669510Y01005830D02*
Y01015830D01*
X00664510Y00990430D02*
X00674510D01*
X00669510Y00985430D02*
Y00995430D01*
X00664510Y00970030D02*
X00674510D01*
X00669510Y00965030D02*
Y00975030D01*
X00644210Y01021030D02*
X00654210D01*
X00649210Y01016030D02*
Y01026030D01*
X00644210Y01000630D02*
X00654210D01*
X00649210Y00995630D02*
Y01005630D01*
X00644210Y00980230D02*
X00654210D01*
X00649210Y00975230D02*
Y00985230D01*
X00538870Y00880060D02*
X00548870D01*
X00543870Y00875060D02*
Y00885060D01*
X00559270Y00880060D02*
X00569270D01*
X00564270Y00875060D02*
Y00885060D01*
X00579670Y00880060D02*
X00589670D01*
X00584670Y00875060D02*
Y00885060D01*
X00528670Y00859760D02*
X00538670D01*
X00533670Y00854760D02*
Y00864760D01*
X00549070Y00859760D02*
X00559070D01*
X00554070Y00854760D02*
Y00864760D01*
X00569470Y00859760D02*
X00579470D01*
X00574470Y00854760D02*
Y00864760D01*
X00552770Y01011030D02*
X00562770D01*
X00557770Y01006030D02*
Y01016030D01*
X00552770Y00990630D02*
X00562770D01*
X00557770Y00985630D02*
Y00995630D01*
X00552770Y00970230D02*
X00562770D01*
X00557770Y00965230D02*
Y00975230D01*
X00532470Y01021230D02*
X00542470D01*
X00537470Y01016230D02*
Y01026230D01*
X00532470Y01000830D02*
X00542470D01*
X00537470Y00995830D02*
Y01005830D01*
X00532470Y00980430D02*
X00542470D01*
X00537470Y00975430D02*
Y00985430D01*
X00569670Y01122630D02*
X00579670D01*
X00574670Y01117630D02*
Y01127630D01*
X00549270Y01122630D02*
X00559270D01*
X00554270Y01117630D02*
Y01127630D01*
X00528870Y01122630D02*
X00538870D01*
X00533870Y01117630D02*
Y01127630D01*
X00579870Y01142930D02*
X00589870D01*
X00584870Y01137930D02*
Y01147930D01*
X00559470Y01142930D02*
X00569470D01*
X00564470Y01137930D02*
Y01147930D01*
X00539070Y01142930D02*
X00549070D01*
X00544070Y01137930D02*
Y01147930D01*
X00651730Y01201380D02*
X00662730D01*
X00657230Y01195880D02*
Y01206880D01*
X00676730Y01201380D02*
X00687730D01*
X00682230Y01195880D02*
Y01206880D01*
X00701730Y01201380D02*
X00712730D01*
X00707230Y01195880D02*
Y01206880D01*
X00651730Y01234380D02*
X00662730D01*
X00657230Y01228880D02*
Y01239880D01*
X00676730Y01234380D02*
X00687730D01*
X00682230Y01228880D02*
Y01239880D01*
X00701730Y01234380D02*
X00712730D01*
X00707230Y01228880D02*
Y01239880D01*
X00547864Y01061430D02*
X00554976D01*
X00551420Y01057874D02*
Y01064986D01*
X00457694Y00998170D02*
X00464806D01*
X00461250Y00994614D02*
Y01001726D01*
X00467854Y00906730D02*
X00474966D01*
X00471410Y00903174D02*
Y00910286D01*
X00748524Y01151840D02*
X00755636D01*
X00752080Y01148284D02*
Y01155396D01*
X00587234Y00962610D02*
X00594346D01*
X00590790Y00959054D02*
Y00966166D01*
X00702804Y01097230D02*
X00709916D01*
X00706360Y01093674D02*
Y01100786D01*
X00682760Y01043230D02*
X00717260D01*
X00700010Y01025980D02*
Y01060480D01*
X00682760Y00948030D02*
X00717260D01*
X00700010Y00930780D02*
Y00965280D01*
X00494420Y00829260D02*
X00528920D01*
X00511670Y00812010D02*
Y00846510D01*
X00589620Y00829260D02*
X00624120D01*
X00606870Y00812010D02*
Y00846510D01*
X00489720Y01043230D02*
X00524220D01*
X00506970Y01025980D02*
Y01060480D01*
X00489720Y00948030D02*
X00524220D01*
X00506970Y00930780D02*
Y00965280D01*
X00589620Y01173430D02*
X00624120D01*
X00606870Y01156180D02*
Y01190680D01*
X00494420Y01173430D02*
X00528920D01*
X00511670Y01156180D02*
Y01190680D01*
X01712570Y00376520D02*
X01720190D01*
X01716380Y00372710D02*
Y00380330D01*
X01712570Y00327720D02*
X01720190D01*
X01716380Y00323910D02*
Y00331530D01*
X01466035Y00436040D02*
X01516035D01*
X01491035Y00411040D02*
Y00461040D01*
X01654060Y00284040D02*
X01661680D01*
X01657870Y00280230D02*
Y00287850D01*
X01654060Y00666445D02*
X01661680D01*
X01657870Y00662635D02*
Y00670255D01*
X01495955Y00666445D02*
X01503575D01*
X01499765Y00662635D02*
Y00670255D01*
X01497225Y00284040D02*
X01504845D01*
X01501035Y00280230D02*
Y00287850D01*
X01718500Y00535000D02*
X01729500D01*
X01724000Y00529500D02*
Y00540500D01*
X01718500Y00509600D02*
X01729500D01*
X01724000Y00504100D02*
Y00515100D01*
X01743900Y00535000D02*
X01754900D01*
X01749400Y00529500D02*
Y00540500D01*
X01743900Y00509600D02*
X01754900D01*
X01749400Y00504100D02*
Y00515100D01*
X01439870Y00433630D02*
X01451870D01*
X01445870Y00427630D02*
Y00439630D01*
X01439870Y00329030D02*
X01451870D01*
X01445870Y00323030D02*
Y00335030D01*
X01430210Y00720420D02*
X01441210D01*
X01435710Y00714920D02*
Y00725920D01*
X01404810Y00720420D02*
X01415810D01*
X01410310Y00714920D02*
Y00725920D01*
X01379410Y00720420D02*
X01390410D01*
X01384910Y00714920D02*
Y00725920D01*
X01354010Y00720420D02*
X01365010D01*
X01359510Y00714920D02*
Y00725920D01*
X01354010Y00695020D02*
X01365010D01*
X01359510Y00689520D02*
Y00700520D01*
X01379410Y00695020D02*
X01390410D01*
X01384910Y00689520D02*
Y00700520D01*
X01430210Y00695020D02*
X01441210D01*
X01435710Y00689520D02*
Y00700520D01*
X01404810Y00695020D02*
X01415810D01*
X01410310Y00689520D02*
Y00700520D01*
X01372790Y00371170D02*
X01381790D01*
X01377290Y00366670D02*
Y00375670D01*
X01321990Y00371170D02*
X01330990D01*
X01326490Y00366670D02*
Y00375670D01*
X01321990Y00396570D02*
X01330990D01*
X01326490Y00392070D02*
Y00401070D01*
X01347390Y00371170D02*
X01356390D01*
X01351890Y00366670D02*
Y00375670D01*
X01347390Y00396570D02*
X01356390D01*
X01351890Y00392070D02*
Y00401070D01*
X01372790Y00396570D02*
X01381790D01*
X01377290Y00392070D02*
Y00401070D01*
X01325340Y00620090D02*
X01337340D01*
X01331340Y00614090D02*
Y00626090D01*
X01429940Y00620090D02*
X01441940D01*
X01435940Y00614090D02*
Y00626090D01*
X01736280Y00619220D02*
X01747280D01*
X01741780Y00613720D02*
Y00624720D01*
X01736280Y00644220D02*
X01747280D01*
X01741780Y00638720D02*
Y00649720D01*
X01429940Y00653110D02*
X01441940D01*
X01435940Y00647110D02*
Y00659110D01*
X01325340Y00653110D02*
X01337340D01*
X01331340Y00647110D02*
Y00659110D01*
X01693260Y00722860D02*
X01705260D01*
X01699260Y00716860D02*
Y00728860D01*
X01693260Y00618260D02*
X01705260D01*
X01699260Y00612260D02*
Y00624260D01*
X01325340Y00587070D02*
X01337340D01*
X01331340Y00581070D02*
Y00593070D01*
X01429940Y00587070D02*
X01441940D01*
X01435940Y00581070D02*
Y00593070D01*
X01289270Y00721460D02*
X01329270D01*
X01309270Y00701460D02*
Y00741460D01*
X01289270Y00281460D02*
X01329270D01*
X01309270Y00261460D02*
Y00301460D01*
X01729270Y00281460D02*
X01769270D01*
X01749270Y00261460D02*
Y00301460D01*
X01729270Y00721460D02*
X01769270D01*
X01749270Y00701460D02*
Y00741460D01*
X01755310Y00369900D02*
X01763810D01*
X01759560Y00365650D02*
Y00374150D01*
X01755310Y00471500D02*
X01763810D01*
X01759560Y00467250D02*
Y00475750D01*
X01755310Y00395300D02*
X01763810D01*
X01759560Y00391050D02*
Y00399550D01*
X01383720Y00511030D02*
X01393720D01*
X01388720Y00506030D02*
Y00516030D01*
X01383720Y00490630D02*
X01393720D01*
X01388720Y00485630D02*
Y00495630D01*
X01383720Y00470230D02*
X01393720D01*
X01388720Y00465230D02*
Y00475230D01*
X01363420Y00521230D02*
X01373420D01*
X01368420Y00516230D02*
Y00526230D01*
X01363420Y00500830D02*
X01373420D01*
X01368420Y00495830D02*
Y00505830D01*
X01363420Y00480430D02*
X01373420D01*
X01368420Y00475430D02*
Y00485430D01*
X01523110Y00476580D02*
X01526110D01*
X01524610Y00475080D02*
Y00478080D01*
X01388490Y00294970D02*
X01391490D01*
X01389990Y00293470D02*
Y00296470D01*
X01463420Y00467690D02*
X01466420D01*
X01464920Y00466190D02*
Y00469190D01*
X01520629Y00406730D02*
X01523629D01*
X01522129Y00405230D02*
Y00408230D01*
X01624710Y00598500D02*
X01627710D01*
X01626210Y00597000D02*
Y00600000D01*
X01633600Y00606120D02*
X01636600D01*
X01635100Y00604620D02*
Y00607620D01*
X01643760Y00613740D02*
X01646760D01*
X01645260Y00612240D02*
Y00615240D01*
X01617090Y00590880D02*
X01620090D01*
X01618590Y00589380D02*
Y00592380D01*
X01559940Y00514680D02*
X01562940D01*
X01561440Y00513180D02*
Y00516180D01*
X01411350Y00273380D02*
X01414350D01*
X01412850Y00271880D02*
Y00274880D01*
X01500250Y00329260D02*
X01503250D01*
X01501750Y00327760D02*
Y00330760D01*
X01634870Y00382600D02*
X01637870D01*
X01636370Y00381100D02*
Y00384100D01*
X01577990Y00387680D02*
X01582990D01*
X01580490Y00385180D02*
Y00390180D01*
X01604390Y00472770D02*
X01607390D01*
X01605890Y00471270D02*
Y00474270D01*
X01537080Y00457530D02*
X01540080D01*
X01538580Y00456030D02*
Y00459030D01*
X01566290Y00432130D02*
X01569290D01*
X01567790Y00430630D02*
Y00433630D01*
X01561210Y00334340D02*
X01564210D01*
X01562710Y00332840D02*
Y00335840D01*
X01534540Y00362280D02*
X01537540D01*
X01536040Y00360780D02*
Y00363780D01*
X01350390Y00296240D02*
X01353390D01*
X01351890Y00294740D02*
Y00297740D01*
X01417700Y00344500D02*
X01420700D01*
X01419200Y00343000D02*
Y00346000D01*
X01408810Y00349580D02*
X01411810D01*
X01410310Y00348080D02*
Y00351080D01*
X01586610Y00430860D02*
X01589610D01*
X01588110Y00429360D02*
Y00432360D01*
X01599310Y00400380D02*
X01602310D01*
X01600810Y00398880D02*
Y00401880D01*
X01595500Y00409270D02*
X01598500D01*
X01597000Y00407770D02*
Y00410770D01*
X01514220Y00341960D02*
X01517220D01*
X01515720Y00340460D02*
Y00343460D01*
X01655190Y00385140D02*
X01658190D01*
X01656690Y00383640D02*
Y00386640D01*
X01535810Y00508330D02*
X01538810D01*
X01537310Y00506830D02*
Y00509830D01*
X01612010Y00482912D02*
X01615010D01*
X01613510Y00481412D02*
Y00484412D01*
X01553590Y00428320D02*
X01556590D01*
X01555090Y00426820D02*
Y00429820D01*
X01552320Y00392760D02*
X01555320D01*
X01553820Y00391260D02*
Y00394260D01*
X01320670Y00543230D02*
X01355170D01*
X01337920Y00525980D02*
Y00560480D01*
X01320670Y00448030D02*
X01355170D01*
X01337920Y00430780D02*
Y00465280D01*
X01712570Y00876520D02*
X01720190D01*
X01716380Y00872710D02*
Y00880330D01*
X01712570Y00827720D02*
X01720190D01*
X01716380Y00823910D02*
Y00831530D01*
X01466035Y00936040D02*
X01516035D01*
X01491035Y00911040D02*
Y00961040D01*
X01654060Y00784040D02*
X01661680D01*
X01657870Y00780230D02*
Y00787850D01*
X01654060Y01166445D02*
X01661680D01*
X01657870Y01162635D02*
Y01170255D01*
X01495955Y01166445D02*
X01503575D01*
X01499765Y01162635D02*
Y01170255D01*
X01497225Y00784040D02*
X01504845D01*
X01501035Y00780230D02*
Y00787850D01*
X01718500Y01035000D02*
X01729500D01*
X01724000Y01029500D02*
Y01040500D01*
X01718500Y01009600D02*
X01729500D01*
X01724000Y01004100D02*
Y01015100D01*
X01743900Y01035000D02*
X01754900D01*
X01749400Y01029500D02*
Y01040500D01*
X01743900Y01009600D02*
X01754900D01*
X01749400Y01004100D02*
Y01015100D01*
X01439870Y00933630D02*
X01451870D01*
X01445870Y00927630D02*
Y00939630D01*
X01439870Y00829030D02*
X01451870D01*
X01445870Y00823030D02*
Y00835030D01*
X01430210Y01220420D02*
X01441210D01*
X01435710Y01214920D02*
Y01225920D01*
X01404810Y01220420D02*
X01415810D01*
X01410310Y01214920D02*
Y01225920D01*
X01379410Y01220420D02*
X01390410D01*
X01384910Y01214920D02*
Y01225920D01*
X01354010Y01220420D02*
X01365010D01*
X01359510Y01214920D02*
Y01225920D01*
X01354010Y01195020D02*
X01365010D01*
X01359510Y01189520D02*
Y01200520D01*
X01379410Y01195020D02*
X01390410D01*
X01384910Y01189520D02*
Y01200520D01*
X01430210Y01195020D02*
X01441210D01*
X01435710Y01189520D02*
Y01200520D01*
X01404810Y01195020D02*
X01415810D01*
X01410310Y01189520D02*
Y01200520D01*
X01372790Y00871170D02*
X01381790D01*
X01377290Y00866670D02*
Y00875670D01*
X01321990Y00871170D02*
X01330990D01*
X01326490Y00866670D02*
Y00875670D01*
X01321990Y00896570D02*
X01330990D01*
X01326490Y00892070D02*
Y00901070D01*
X01347390Y00871170D02*
X01356390D01*
X01351890Y00866670D02*
Y00875670D01*
X01347390Y00896570D02*
X01356390D01*
X01351890Y00892070D02*
Y00901070D01*
X01372790Y00896570D02*
X01381790D01*
X01377290Y00892070D02*
Y00901070D01*
X01325340Y01120090D02*
X01337340D01*
X01331340Y01114090D02*
Y01126090D01*
X01429940Y01120090D02*
X01441940D01*
X01435940Y01114090D02*
Y01126090D01*
X01736280Y01119220D02*
X01747280D01*
X01741780Y01113720D02*
Y01124720D01*
X01736280Y01144220D02*
X01747280D01*
X01741780Y01138720D02*
Y01149720D01*
X01429940Y01153110D02*
X01441940D01*
X01435940Y01147110D02*
Y01159110D01*
X01325340Y01153110D02*
X01337340D01*
X01331340Y01147110D02*
Y01159110D01*
X01693260Y01222860D02*
X01705260D01*
X01699260Y01216860D02*
Y01228860D01*
X01693260Y01118260D02*
X01705260D01*
X01699260Y01112260D02*
Y01124260D01*
X01325340Y01087070D02*
X01337340D01*
X01331340Y01081070D02*
Y01093070D01*
X01429940Y01087070D02*
X01441940D01*
X01435940Y01081070D02*
Y01093070D01*
X01289270Y01221460D02*
X01329270D01*
X01309270Y01201460D02*
Y01241460D01*
X01289270Y00781460D02*
X01329270D01*
X01309270Y00761460D02*
Y00801460D01*
X01729270Y00781460D02*
X01769270D01*
X01749270Y00761460D02*
Y00801460D01*
X01729270Y01221460D02*
X01769270D01*
X01749270Y01201460D02*
Y01241460D01*
X01755310Y00869900D02*
X01763810D01*
X01759560Y00865650D02*
Y00874150D01*
X01755310Y00971500D02*
X01763810D01*
X01759560Y00967250D02*
Y00975750D01*
X01755310Y00895300D02*
X01763810D01*
X01759560Y00891050D02*
Y00899550D01*
X01383720Y01011030D02*
X01393720D01*
X01388720Y01006030D02*
Y01016030D01*
X01383720Y00990630D02*
X01393720D01*
X01388720Y00985630D02*
Y00995630D01*
X01383720Y00970230D02*
X01393720D01*
X01388720Y00965230D02*
Y00975230D01*
X01363420Y01021230D02*
X01373420D01*
X01368420Y01016230D02*
Y01026230D01*
X01363420Y01000830D02*
X01373420D01*
X01368420Y00995830D02*
Y01005830D01*
X01363420Y00980430D02*
X01373420D01*
X01368420Y00975430D02*
Y00985430D01*
X01523110Y00976580D02*
X01526110D01*
X01524610Y00975080D02*
Y00978080D01*
X01388490Y00794970D02*
X01391490D01*
X01389990Y00793470D02*
Y00796470D01*
X01463420Y00967690D02*
X01466420D01*
X01464920Y00966190D02*
Y00969190D01*
X01520629Y00906730D02*
X01523629D01*
X01522129Y00905230D02*
Y00908230D01*
X01624710Y01098500D02*
X01627710D01*
X01626210Y01097000D02*
Y01100000D01*
X01633600Y01106120D02*
X01636600D01*
X01635100Y01104620D02*
Y01107620D01*
X01643760Y01113740D02*
X01646760D01*
X01645260Y01112240D02*
Y01115240D01*
X01617090Y01090880D02*
X01620090D01*
X01618590Y01089380D02*
Y01092380D01*
X01559940Y01014680D02*
X01562940D01*
X01561440Y01013180D02*
Y01016180D01*
X01411350Y00773380D02*
X01414350D01*
X01412850Y00771880D02*
Y00774880D01*
X01500250Y00829260D02*
X01503250D01*
X01501750Y00827760D02*
Y00830760D01*
X01634870Y00882600D02*
X01637870D01*
X01636370Y00881100D02*
Y00884100D01*
X01577990Y00887680D02*
X01582990D01*
X01580490Y00885180D02*
Y00890180D01*
X01604390Y00972770D02*
X01607390D01*
X01605890Y00971270D02*
Y00974270D01*
X01537080Y00957530D02*
X01540080D01*
X01538580Y00956030D02*
Y00959030D01*
X01566290Y00932130D02*
X01569290D01*
X01567790Y00930630D02*
Y00933630D01*
X01561210Y00834340D02*
X01564210D01*
X01562710Y00832840D02*
Y00835840D01*
X01534540Y00862280D02*
X01537540D01*
X01536040Y00860780D02*
Y00863780D01*
X01350390Y00796240D02*
X01353390D01*
X01351890Y00794740D02*
Y00797740D01*
X01417700Y00844500D02*
X01420700D01*
X01419200Y00843000D02*
Y00846000D01*
X01408810Y00849580D02*
X01411810D01*
X01410310Y00848080D02*
Y00851080D01*
X01586610Y00930860D02*
X01589610D01*
X01588110Y00929360D02*
Y00932360D01*
X01599310Y00900380D02*
X01602310D01*
X01600810Y00898880D02*
Y00901880D01*
X01595500Y00909270D02*
X01598500D01*
X01597000Y00907770D02*
Y00910770D01*
X01514220Y00841960D02*
X01517220D01*
X01515720Y00840460D02*
Y00843460D01*
X01655190Y00885140D02*
X01658190D01*
X01656690Y00883640D02*
Y00886640D01*
X01535810Y01008330D02*
X01538810D01*
X01537310Y01006830D02*
Y01009830D01*
X01612010Y00982912D02*
X01615010D01*
X01613510Y00981412D02*
Y00984412D01*
X01553590Y00928320D02*
X01556590D01*
X01555090Y00926820D02*
Y00929820D01*
X01552320Y00892760D02*
X01555320D01*
X01553820Y00891260D02*
Y00894260D01*
X01320670Y01043230D02*
X01355170D01*
X01337920Y01025980D02*
Y01060480D01*
X01320670Y00948030D02*
X01355170D01*
X01337920Y00930780D02*
Y00965280D01*
X01212570Y00376520D02*
X01220190D01*
X01216380Y00372710D02*
Y00380330D01*
X01212570Y00327720D02*
X01220190D01*
X01216380Y00323910D02*
Y00331530D01*
X00966035Y00436040D02*
X01016035D01*
X00991035Y00411040D02*
Y00461040D01*
X01154060Y00284040D02*
X01161680D01*
X01157870Y00280230D02*
Y00287850D01*
X01154060Y00666445D02*
X01161680D01*
X01157870Y00662635D02*
Y00670255D01*
X00995955Y00666445D02*
X01003575D01*
X00999765Y00662635D02*
Y00670255D01*
X00997225Y00284040D02*
X01004845D01*
X01001035Y00280230D02*
Y00287850D01*
X01218500Y00535000D02*
X01229500D01*
X01224000Y00529500D02*
Y00540500D01*
X01218500Y00509600D02*
X01229500D01*
X01224000Y00504100D02*
Y00515100D01*
X01243900Y00535000D02*
X01254900D01*
X01249400Y00529500D02*
Y00540500D01*
X01243900Y00509600D02*
X01254900D01*
X01249400Y00504100D02*
Y00515100D01*
X00939870Y00433630D02*
X00951870D01*
X00945870Y00427630D02*
Y00439630D01*
X00939870Y00329030D02*
X00951870D01*
X00945870Y00323030D02*
Y00335030D01*
X00930210Y00720420D02*
X00941210D01*
X00935710Y00714920D02*
Y00725920D01*
X00904810Y00720420D02*
X00915810D01*
X00910310Y00714920D02*
Y00725920D01*
X00879410Y00720420D02*
X00890410D01*
X00884910Y00714920D02*
Y00725920D01*
X00854010Y00720420D02*
X00865010D01*
X00859510Y00714920D02*
Y00725920D01*
X00854010Y00695020D02*
X00865010D01*
X00859510Y00689520D02*
Y00700520D01*
X00879410Y00695020D02*
X00890410D01*
X00884910Y00689520D02*
Y00700520D01*
X00930210Y00695020D02*
X00941210D01*
X00935710Y00689520D02*
Y00700520D01*
X00904810Y00695020D02*
X00915810D01*
X00910310Y00689520D02*
Y00700520D01*
X00872790Y00371170D02*
X00881790D01*
X00877290Y00366670D02*
Y00375670D01*
X00821990Y00371170D02*
X00830990D01*
X00826490Y00366670D02*
Y00375670D01*
X00821990Y00396570D02*
X00830990D01*
X00826490Y00392070D02*
Y00401070D01*
X00847390Y00371170D02*
X00856390D01*
X00851890Y00366670D02*
Y00375670D01*
X00847390Y00396570D02*
X00856390D01*
X00851890Y00392070D02*
Y00401070D01*
X00872790Y00396570D02*
X00881790D01*
X00877290Y00392070D02*
Y00401070D01*
X00825340Y00620090D02*
X00837340D01*
X00831340Y00614090D02*
Y00626090D01*
X00929940Y00620090D02*
X00941940D01*
X00935940Y00614090D02*
Y00626090D01*
X01236280Y00619220D02*
X01247280D01*
X01241780Y00613720D02*
Y00624720D01*
X01236280Y00644220D02*
X01247280D01*
X01241780Y00638720D02*
Y00649720D01*
X00929940Y00653110D02*
X00941940D01*
X00935940Y00647110D02*
Y00659110D01*
X00825340Y00653110D02*
X00837340D01*
X00831340Y00647110D02*
Y00659110D01*
X01193260Y00722860D02*
X01205260D01*
X01199260Y00716860D02*
Y00728860D01*
X01193260Y00618260D02*
X01205260D01*
X01199260Y00612260D02*
Y00624260D01*
X00825340Y00587070D02*
X00837340D01*
X00831340Y00581070D02*
Y00593070D01*
X00929940Y00587070D02*
X00941940D01*
X00935940Y00581070D02*
Y00593070D01*
X00789270Y00721460D02*
X00829270D01*
X00809270Y00701460D02*
Y00741460D01*
X00789270Y00281460D02*
X00829270D01*
X00809270Y00261460D02*
Y00301460D01*
X01229270Y00281460D02*
X01269270D01*
X01249270Y00261460D02*
Y00301460D01*
X01229270Y00721460D02*
X01269270D01*
X01249270Y00701460D02*
Y00741460D01*
X01255310Y00369900D02*
X01263810D01*
X01259560Y00365650D02*
Y00374150D01*
X01255310Y00471500D02*
X01263810D01*
X01259560Y00467250D02*
Y00475750D01*
X01255310Y00395300D02*
X01263810D01*
X01259560Y00391050D02*
Y00399550D01*
X00883720Y00511030D02*
X00893720D01*
X00888720Y00506030D02*
Y00516030D01*
X00883720Y00490630D02*
X00893720D01*
X00888720Y00485630D02*
Y00495630D01*
X00883720Y00470230D02*
X00893720D01*
X00888720Y00465230D02*
Y00475230D01*
X00863420Y00521230D02*
X00873420D01*
X00868420Y00516230D02*
Y00526230D01*
X00863420Y00500830D02*
X00873420D01*
X00868420Y00495830D02*
Y00505830D01*
X00863420Y00480430D02*
X00873420D01*
X00868420Y00475430D02*
Y00485430D01*
X01023110Y00476580D02*
X01026110D01*
X01024610Y00475080D02*
Y00478080D01*
X00888490Y00294970D02*
X00891490D01*
X00889990Y00293470D02*
Y00296470D01*
X00963420Y00467690D02*
X00966420D01*
X00964920Y00466190D02*
Y00469190D01*
X01020629Y00406730D02*
X01023629D01*
X01022129Y00405230D02*
Y00408230D01*
X01124710Y00598500D02*
X01127710D01*
X01126210Y00597000D02*
Y00600000D01*
X01133600Y00606120D02*
X01136600D01*
X01135100Y00604620D02*
Y00607620D01*
X01143760Y00613740D02*
X01146760D01*
X01145260Y00612240D02*
Y00615240D01*
X01117090Y00590880D02*
X01120090D01*
X01118590Y00589380D02*
Y00592380D01*
X01059940Y00514680D02*
X01062940D01*
X01061440Y00513180D02*
Y00516180D01*
X00911350Y00273380D02*
X00914350D01*
X00912850Y00271880D02*
Y00274880D01*
X01000250Y00329260D02*
X01003250D01*
X01001750Y00327760D02*
Y00330760D01*
X01134870Y00382600D02*
X01137870D01*
X01136370Y00381100D02*
Y00384100D01*
X01077990Y00387680D02*
X01082990D01*
X01080490Y00385180D02*
Y00390180D01*
X01104390Y00472770D02*
X01107390D01*
X01105890Y00471270D02*
Y00474270D01*
X01037080Y00457530D02*
X01040080D01*
X01038580Y00456030D02*
Y00459030D01*
X01066290Y00432130D02*
X01069290D01*
X01067790Y00430630D02*
Y00433630D01*
X01061210Y00334340D02*
X01064210D01*
X01062710Y00332840D02*
Y00335840D01*
X01034540Y00362280D02*
X01037540D01*
X01036040Y00360780D02*
Y00363780D01*
X00850390Y00296240D02*
X00853390D01*
X00851890Y00294740D02*
Y00297740D01*
X00917700Y00344500D02*
X00920700D01*
X00919200Y00343000D02*
Y00346000D01*
X00908810Y00349580D02*
X00911810D01*
X00910310Y00348080D02*
Y00351080D01*
X01086610Y00430860D02*
X01089610D01*
X01088110Y00429360D02*
Y00432360D01*
X01099310Y00400380D02*
X01102310D01*
X01100810Y00398880D02*
Y00401880D01*
X01095500Y00409270D02*
X01098500D01*
X01097000Y00407770D02*
Y00410770D01*
X01014220Y00341960D02*
X01017220D01*
X01015720Y00340460D02*
Y00343460D01*
X01155190Y00385140D02*
X01158190D01*
X01156690Y00383640D02*
Y00386640D01*
X01035810Y00508330D02*
X01038810D01*
X01037310Y00506830D02*
Y00509830D01*
X01112010Y00482912D02*
X01115010D01*
X01113510Y00481412D02*
Y00484412D01*
X01053590Y00428320D02*
X01056590D01*
X01055090Y00426820D02*
Y00429820D01*
X01052320Y00392760D02*
X01055320D01*
X01053820Y00391260D02*
Y00394260D01*
X00820670Y00543230D02*
X00855170D01*
X00837920Y00525980D02*
Y00560480D01*
X00820670Y00448030D02*
X00855170D01*
X00837920Y00430780D02*
Y00465280D01*
X01212570Y00876520D02*
X01220190D01*
X01216380Y00872710D02*
Y00880330D01*
X01212570Y00827720D02*
X01220190D01*
X01216380Y00823910D02*
Y00831530D01*
X00966035Y00936040D02*
X01016035D01*
X00991035Y00911040D02*
Y00961040D01*
X01154060Y00784040D02*
X01161680D01*
X01157870Y00780230D02*
Y00787850D01*
X01154060Y01166445D02*
X01161680D01*
X01157870Y01162635D02*
Y01170255D01*
X00995955Y01166445D02*
X01003575D01*
X00999765Y01162635D02*
Y01170255D01*
X00997225Y00784040D02*
X01004845D01*
X01001035Y00780230D02*
Y00787850D01*
X01218500Y01035000D02*
X01229500D01*
X01224000Y01029500D02*
Y01040500D01*
X01218500Y01009600D02*
X01229500D01*
X01224000Y01004100D02*
Y01015100D01*
X01243900Y01035000D02*
X01254900D01*
X01249400Y01029500D02*
Y01040500D01*
X01243900Y01009600D02*
X01254900D01*
X01249400Y01004100D02*
Y01015100D01*
X00939870Y00933630D02*
X00951870D01*
X00945870Y00927630D02*
Y00939630D01*
X00939870Y00829030D02*
X00951870D01*
X00945870Y00823030D02*
Y00835030D01*
X00930210Y01220420D02*
X00941210D01*
X00935710Y01214920D02*
Y01225920D01*
X00904810Y01220420D02*
X00915810D01*
X00910310Y01214920D02*
Y01225920D01*
X00879410Y01220420D02*
X00890410D01*
X00884910Y01214920D02*
Y01225920D01*
X00854010Y01220420D02*
X00865010D01*
X00859510Y01214920D02*
Y01225920D01*
X00854010Y01195020D02*
X00865010D01*
X00859510Y01189520D02*
Y01200520D01*
X00879410Y01195020D02*
X00890410D01*
X00884910Y01189520D02*
Y01200520D01*
X00930210Y01195020D02*
X00941210D01*
X00935710Y01189520D02*
Y01200520D01*
X00904810Y01195020D02*
X00915810D01*
X00910310Y01189520D02*
Y01200520D01*
X00872790Y00871170D02*
X00881790D01*
X00877290Y00866670D02*
Y00875670D01*
X00821990Y00871170D02*
X00830990D01*
X00826490Y00866670D02*
Y00875670D01*
X00821990Y00896570D02*
X00830990D01*
X00826490Y00892070D02*
Y00901070D01*
X00847390Y00871170D02*
X00856390D01*
X00851890Y00866670D02*
Y00875670D01*
X00847390Y00896570D02*
X00856390D01*
X00851890Y00892070D02*
Y00901070D01*
X00872790Y00896570D02*
X00881790D01*
X00877290Y00892070D02*
Y00901070D01*
X00825340Y01120090D02*
X00837340D01*
X00831340Y01114090D02*
Y01126090D01*
X00929940Y01120090D02*
X00941940D01*
X00935940Y01114090D02*
Y01126090D01*
X01236280Y01119220D02*
X01247280D01*
X01241780Y01113720D02*
Y01124720D01*
X01236280Y01144220D02*
X01247280D01*
X01241780Y01138720D02*
Y01149720D01*
X00929940Y01153110D02*
X00941940D01*
X00935940Y01147110D02*
Y01159110D01*
X00825340Y01153110D02*
X00837340D01*
X00831340Y01147110D02*
Y01159110D01*
X01193260Y01222860D02*
X01205260D01*
X01199260Y01216860D02*
Y01228860D01*
X01193260Y01118260D02*
X01205260D01*
X01199260Y01112260D02*
Y01124260D01*
X00825340Y01087070D02*
X00837340D01*
X00831340Y01081070D02*
Y01093070D01*
X00929940Y01087070D02*
X00941940D01*
X00935940Y01081070D02*
Y01093070D01*
X00789270Y01221460D02*
X00829270D01*
X00809270Y01201460D02*
Y01241460D01*
X00789270Y00781460D02*
X00829270D01*
X00809270Y00761460D02*
Y00801460D01*
X01229270Y00781460D02*
X01269270D01*
X01249270Y00761460D02*
Y00801460D01*
X01229270Y01221460D02*
X01269270D01*
X01249270Y01201460D02*
Y01241460D01*
X01255310Y00869900D02*
X01263810D01*
X01259560Y00865650D02*
Y00874150D01*
X01255310Y00971500D02*
X01263810D01*
X01259560Y00967250D02*
Y00975750D01*
X01255310Y00895300D02*
X01263810D01*
X01259560Y00891050D02*
Y00899550D01*
X00883720Y01011030D02*
X00893720D01*
X00888720Y01006030D02*
Y01016030D01*
X00883720Y00990630D02*
X00893720D01*
X00888720Y00985630D02*
Y00995630D01*
X00883720Y00970230D02*
X00893720D01*
X00888720Y00965230D02*
Y00975230D01*
X00863420Y01021230D02*
X00873420D01*
X00868420Y01016230D02*
Y01026230D01*
X00863420Y01000830D02*
X00873420D01*
X00868420Y00995830D02*
Y01005830D01*
X00863420Y00980430D02*
X00873420D01*
X00868420Y00975430D02*
Y00985430D01*
X01023110Y00976580D02*
X01026110D01*
X01024610Y00975080D02*
Y00978080D01*
X00888490Y00794970D02*
X00891490D01*
X00889990Y00793470D02*
Y00796470D01*
X00963420Y00967690D02*
X00966420D01*
X00964920Y00966190D02*
Y00969190D01*
X01020629Y00906730D02*
X01023629D01*
X01022129Y00905230D02*
Y00908230D01*
X01124710Y01098500D02*
X01127710D01*
X01126210Y01097000D02*
Y01100000D01*
X01133600Y01106120D02*
X01136600D01*
X01135100Y01104620D02*
Y01107620D01*
X01143760Y01113740D02*
X01146760D01*
X01145260Y01112240D02*
Y01115240D01*
X01117090Y01090880D02*
X01120090D01*
X01118590Y01089380D02*
Y01092380D01*
X01059940Y01014680D02*
X01062940D01*
X01061440Y01013180D02*
Y01016180D01*
X00911350Y00773380D02*
X00914350D01*
X00912850Y00771880D02*
Y00774880D01*
X01000250Y00829260D02*
X01003250D01*
X01001750Y00827760D02*
Y00830760D01*
X01134870Y00882600D02*
X01137870D01*
X01136370Y00881100D02*
Y00884100D01*
X01077990Y00887680D02*
X01082990D01*
X01080490Y00885180D02*
Y00890180D01*
X01104390Y00972770D02*
X01107390D01*
X01105890Y00971270D02*
Y00974270D01*
X01037080Y00957530D02*
X01040080D01*
X01038580Y00956030D02*
Y00959030D01*
X01066290Y00932130D02*
X01069290D01*
X01067790Y00930630D02*
Y00933630D01*
X01061210Y00834340D02*
X01064210D01*
X01062710Y00832840D02*
Y00835840D01*
X01034540Y00862280D02*
X01037540D01*
X01036040Y00860780D02*
Y00863780D01*
X00850390Y00796240D02*
X00853390D01*
X00851890Y00794740D02*
Y00797740D01*
X00917700Y00844500D02*
X00920700D01*
X00919200Y00843000D02*
Y00846000D01*
X00908810Y00849580D02*
X00911810D01*
X00910310Y00848080D02*
Y00851080D01*
X01086610Y00930860D02*
X01089610D01*
X01088110Y00929360D02*
Y00932360D01*
X01099310Y00900380D02*
X01102310D01*
X01100810Y00898880D02*
Y00901880D01*
X01095500Y00909270D02*
X01098500D01*
X01097000Y00907770D02*
Y00910770D01*
X01014220Y00841960D02*
X01017220D01*
X01015720Y00840460D02*
Y00843460D01*
X01155190Y00885140D02*
X01158190D01*
X01156690Y00883640D02*
Y00886640D01*
X01035810Y01008330D02*
X01038810D01*
X01037310Y01006830D02*
Y01009830D01*
X01112010Y00982912D02*
X01115010D01*
X01113510Y00981412D02*
Y00984412D01*
X01053590Y00928320D02*
X01056590D01*
X01055090Y00926820D02*
Y00929820D01*
X01052320Y00892760D02*
X01055320D01*
X01053820Y00891260D02*
Y00894260D01*
X00820670Y01043230D02*
X00855170D01*
X00837920Y01025980D02*
Y01060480D01*
X00820670Y00948030D02*
X00855170D01*
X00837920Y00930780D02*
Y00965280D01*
M02*
