M48
;Layer_Color=9474304
;FILE_FORMAT=4:4
METRIC
;TYPE=PLATED
T1F00S00C0.3000
T3F00S00C0.9000
T4F00S00C1.0000
;TYPE=NON_PLATED
T5F00S00C2.7500
T6F00S00C3.2500
%
T01
X00223190Y00283820
X00359080Y00288900
Y00300330
Y00276200
X00450520Y00422250
X00460680Y00497180
X00469570Y00534010
X00420040
X00517830Y00532740
X00533070Y00483210
Y00408280
X00369240Y00532740
X00295580Y00487020
Y00476860
Y00466700
X00249860Y00467970
X00257480Y00476860
X00265100Y00485750
X00244780Y00488290
X00256210Y00511150
X00230810
T03
X00122300Y00283700
X00147700
Y00309100
Y00334500
Y00359900
Y00385300
X00122300
Y00359900
Y00334500
Y00309100
Y00410700
X00147700
Y00436100
Y00461500
Y00486900
Y00512300
X00122300
Y00486900
Y00461500
Y00436100
Y00537700
Y00563100
Y00588500
Y00613900
Y00639300
Y00664700
Y00690100
Y00715500
Y00740900
X00147700
Y00715500
Y00690100
Y00664700
Y00639300
Y00613900
Y00588500
Y00563100
Y00537700
Y00766300
X00122300
T04
X00418780Y00347320
X00444180
X00469580
X00494980
X00482280Y00372720
X00456880
X00431480
X00406080
X00597500Y00350000
Y00400000
T05
X00135000Y00235000
X00625000
X00135000Y00815000
X00625000
T06
X00393360Y00283820
X00507680
M30
