G04 Layer_Color=2752767*
%FSAX44Y44*%
%MOMM*%
G71*
G01*
G75*
%ADD52C,0.0508*%
%ADD53C,0.0677*%
D52*
X00132968Y00812968D02*
Y00817032D01*
X00137032D01*
Y00812968D01*
X00132968D01*
X00622968D02*
Y00817032D01*
X00627032D01*
Y00812968D01*
X00622968D01*
X00132968Y00232968D02*
Y00237032D01*
X00137032D01*
Y00232968D01*
X00132968D01*
X00622968D02*
Y00237032D01*
X00627032D01*
Y00232968D01*
X00622968D01*
X00507680Y00281788D02*
X00505648Y00285852D01*
X00509712D01*
X00507680Y00281788D01*
X00393360D02*
X00391328Y00285852D01*
X00395392D01*
X00393360Y00281788D01*
X00494980Y00345288D02*
X00495996Y00346304D01*
X00497012D01*
X00495996Y00347320D01*
X00497012Y00348336D01*
X00495996D01*
X00494980Y00349352D01*
X00493964Y00348336D01*
X00492948D01*
X00493964Y00347320D01*
X00492948Y00346304D01*
X00493964D01*
X00494980Y00345288D01*
X00482280Y00370688D02*
X00483296Y00371704D01*
X00484312D01*
X00483296Y00372720D01*
X00484312Y00373736D01*
X00483296D01*
X00482280Y00374752D01*
X00481264Y00373736D01*
X00480248D01*
X00481264Y00372720D01*
X00480248Y00371704D01*
X00481264D01*
X00482280Y00370688D01*
X00469580Y00345288D02*
X00470596Y00346304D01*
X00471612D01*
X00470596Y00347320D01*
X00471612Y00348336D01*
X00470596D01*
X00469580Y00349352D01*
X00468564Y00348336D01*
X00467548D01*
X00468564Y00347320D01*
X00467548Y00346304D01*
X00468564D01*
X00469580Y00345288D01*
X00456880Y00370688D02*
X00457896Y00371704D01*
X00458912D01*
X00457896Y00372720D01*
X00458912Y00373736D01*
X00457896D01*
X00456880Y00374752D01*
X00455864Y00373736D01*
X00454848D01*
X00455864Y00372720D01*
X00454848Y00371704D01*
X00455864D01*
X00456880Y00370688D01*
X00444180Y00345288D02*
X00445196Y00346304D01*
X00446212D01*
X00445196Y00347320D01*
X00446212Y00348336D01*
X00445196D01*
X00444180Y00349352D01*
X00443164Y00348336D01*
X00442148D01*
X00443164Y00347320D01*
X00442148Y00346304D01*
X00443164D01*
X00444180Y00345288D01*
X00431480Y00370688D02*
X00432496Y00371704D01*
X00433512D01*
X00432496Y00372720D01*
X00433512Y00373736D01*
X00432496D01*
X00431480Y00374752D01*
X00430464Y00373736D01*
X00429448D01*
X00430464Y00372720D01*
X00429448Y00371704D01*
X00430464D01*
X00431480Y00370688D01*
X00418780Y00345288D02*
X00419796Y00346304D01*
X00420812D01*
X00419796Y00347320D01*
X00420812Y00348336D01*
X00419796D01*
X00418780Y00349352D01*
X00417764Y00348336D01*
X00416748D01*
X00417764Y00347320D01*
X00416748Y00346304D01*
X00417764D01*
X00418780Y00345288D01*
X00406080Y00370688D02*
X00407096Y00371704D01*
X00408112D01*
X00407096Y00372720D01*
X00408112Y00373736D01*
X00407096D01*
X00406080Y00374752D01*
X00405064Y00373736D01*
X00404048D01*
X00405064Y00372720D01*
X00404048Y00371704D01*
X00405064D01*
X00406080Y00370688D01*
X00317688Y00307978D02*
X00318704Y00310010D01*
X00317688Y00312042D01*
X00319720Y00311026D01*
X00321752Y00312042D01*
X00320736Y00310010D01*
X00321752Y00307978D01*
X00319720Y00308994D01*
X00317688Y00307978D01*
X00270688Y00277978D02*
X00271704Y00280010D01*
X00270688Y00282042D01*
X00272720Y00281026D01*
X00274752Y00282042D01*
X00273736Y00280010D01*
X00274752Y00277978D01*
X00272720Y00278994D01*
X00270688Y00277978D01*
X00271704Y00340994D02*
Y00339978D01*
X00273736D01*
Y00340994D01*
X00274752D01*
Y00343026D01*
X00273736D01*
Y00344042D01*
X00271704D01*
Y00343026D01*
X00270688D01*
Y00340994D01*
X00271704D01*
X00597500Y00347968D02*
X00598516Y00348984D01*
X00599532D01*
X00598516Y00350000D01*
X00599532Y00351016D01*
X00598516D01*
X00597500Y00352032D01*
X00596484Y00351016D01*
X00595468D01*
X00596484Y00350000D01*
X00595468Y00348984D01*
X00596484D01*
X00597500Y00347968D01*
Y00397968D02*
X00598516Y00398984D01*
X00599532D01*
X00598516Y00400000D01*
X00599532Y00401016D01*
X00598516D01*
X00597500Y00402032D01*
X00596484Y00401016D01*
X00595468D01*
X00596484Y00400000D01*
X00595468Y00398984D01*
X00596484D01*
X00597500Y00397968D01*
X00255448Y00474828D02*
X00256464D01*
X00257480Y00475844D01*
X00258496Y00474828D01*
X00259512D01*
Y00475844D01*
X00258496Y00476860D01*
X00259512Y00477876D01*
Y00478892D01*
X00258496D01*
X00257480Y00477876D01*
X00256464Y00478892D01*
X00255448D01*
Y00477876D01*
X00256464Y00476860D01*
X00255448Y00475844D01*
Y00474828D01*
X00263068Y00483718D02*
X00264084D01*
X00265100Y00484734D01*
X00266116Y00483718D01*
X00267132D01*
Y00484734D01*
X00266116Y00485750D01*
X00267132Y00486766D01*
Y00487782D01*
X00266116D01*
X00265100Y00486766D01*
X00264084Y00487782D01*
X00263068D01*
Y00486766D01*
X00264084Y00485750D01*
X00263068Y00484734D01*
Y00483718D01*
X00247828Y00465938D02*
X00248844D01*
X00249860Y00466954D01*
X00250876Y00465938D01*
X00251892D01*
Y00466954D01*
X00250876Y00467970D01*
X00251892Y00468986D01*
Y00470002D01*
X00250876D01*
X00249860Y00468986D01*
X00248844Y00470002D01*
X00247828D01*
Y00468986D01*
X00248844Y00467970D01*
X00247828Y00466954D01*
Y00465938D01*
X00357048Y00298298D02*
X00358064D01*
X00359080Y00299314D01*
X00360096Y00298298D01*
X00361112D01*
Y00299314D01*
X00360096Y00300330D01*
X00361112Y00301346D01*
Y00302362D01*
X00360096D01*
X00359080Y00301346D01*
X00358064Y00302362D01*
X00357048D01*
Y00301346D01*
X00358064Y00300330D01*
X00357048Y00299314D01*
Y00298298D01*
Y00286868D02*
X00358064D01*
X00359080Y00287884D01*
X00360096Y00286868D01*
X00361112D01*
Y00287884D01*
X00360096Y00288900D01*
X00361112Y00289916D01*
Y00290932D01*
X00360096D01*
X00359080Y00289916D01*
X00358064Y00290932D01*
X00357048D01*
Y00289916D01*
X00358064Y00288900D01*
X00357048Y00287884D01*
Y00286868D01*
Y00274168D02*
X00358064D01*
X00359080Y00275184D01*
X00360096Y00274168D01*
X00361112D01*
Y00275184D01*
X00360096Y00276200D01*
X00361112Y00277216D01*
Y00278232D01*
X00360096D01*
X00359080Y00277216D01*
X00358064Y00278232D01*
X00357048D01*
Y00277216D01*
X00358064Y00276200D01*
X00357048Y00275184D01*
Y00274168D01*
X00293548Y00484988D02*
X00294564D01*
X00295580Y00486004D01*
X00296596Y00484988D01*
X00297612D01*
Y00486004D01*
X00296596Y00487020D01*
X00297612Y00488036D01*
Y00489052D01*
X00296596D01*
X00295580Y00488036D01*
X00294564Y00489052D01*
X00293548D01*
Y00488036D01*
X00294564Y00487020D01*
X00293548Y00486004D01*
Y00484988D01*
Y00474828D02*
X00294564D01*
X00295580Y00475844D01*
X00296596Y00474828D01*
X00297612D01*
Y00475844D01*
X00296596Y00476860D01*
X00297612Y00477876D01*
Y00478892D01*
X00296596D01*
X00295580Y00477876D01*
X00294564Y00478892D01*
X00293548D01*
Y00477876D01*
X00294564Y00476860D01*
X00293548Y00475844D01*
Y00474828D01*
Y00464668D02*
X00294564D01*
X00295580Y00465684D01*
X00296596Y00464668D01*
X00297612D01*
Y00465684D01*
X00296596Y00466700D01*
X00297612Y00467716D01*
Y00468732D01*
X00296596D01*
X00295580Y00467716D01*
X00294564Y00468732D01*
X00293548D01*
Y00467716D01*
X00294564Y00466700D01*
X00293548Y00465684D01*
Y00464668D01*
X00221158Y00281788D02*
X00222174D01*
X00223190Y00282804D01*
X00224206Y00281788D01*
X00225222D01*
Y00282804D01*
X00224206Y00283820D01*
X00225222Y00284836D01*
Y00285852D01*
X00224206D01*
X00223190Y00284836D01*
X00222174Y00285852D01*
X00221158D01*
Y00284836D01*
X00222174Y00283820D01*
X00221158Y00282804D01*
Y00281788D01*
X00458648Y00495148D02*
X00459664D01*
X00460680Y00496164D01*
X00461696Y00495148D01*
X00462712D01*
Y00496164D01*
X00461696Y00497180D01*
X00462712Y00498196D01*
Y00499212D01*
X00461696D01*
X00460680Y00498196D01*
X00459664Y00499212D01*
X00458648D01*
Y00498196D01*
X00459664Y00497180D01*
X00458648Y00496164D01*
Y00495148D01*
X00448488Y00420218D02*
X00449504D01*
X00450520Y00421234D01*
X00451536Y00420218D01*
X00452552D01*
Y00421234D01*
X00451536Y00422250D01*
X00452552Y00423266D01*
Y00424282D01*
X00451536D01*
X00450520Y00423266D01*
X00449504Y00424282D01*
X00448488D01*
Y00423266D01*
X00449504Y00422250D01*
X00448488Y00421234D01*
Y00420218D01*
X00531038Y00406248D02*
X00532054D01*
X00533070Y00407264D01*
X00534086Y00406248D01*
X00535102D01*
Y00407264D01*
X00534086Y00408280D01*
X00535102Y00409296D01*
Y00410312D01*
X00534086D01*
X00533070Y00409296D01*
X00532054Y00410312D01*
X00531038D01*
Y00409296D01*
X00532054Y00408280D01*
X00531038Y00407264D01*
Y00406248D01*
Y00481178D02*
X00532054D01*
X00533070Y00482194D01*
X00534086Y00481178D01*
X00535102D01*
Y00482194D01*
X00534086Y00483210D01*
X00535102Y00484226D01*
Y00485242D01*
X00534086D01*
X00533070Y00484226D01*
X00532054Y00485242D01*
X00531038D01*
Y00484226D01*
X00532054Y00483210D01*
X00531038Y00482194D01*
Y00481178D01*
X00228778Y00509118D02*
X00229794D01*
X00230810Y00510134D01*
X00231826Y00509118D01*
X00232842D01*
Y00510134D01*
X00231826Y00511150D01*
X00232842Y00512166D01*
Y00513182D01*
X00231826D01*
X00230810Y00512166D01*
X00229794Y00513182D01*
X00228778D01*
Y00512166D01*
X00229794Y00511150D01*
X00228778Y00510134D01*
Y00509118D01*
X00254178D02*
X00255194D01*
X00256210Y00510134D01*
X00257226Y00509118D01*
X00258242D01*
Y00510134D01*
X00257226Y00511150D01*
X00258242Y00512166D01*
Y00513182D01*
X00257226D01*
X00256210Y00512166D01*
X00255194Y00513182D01*
X00254178D01*
Y00512166D01*
X00255194Y00511150D01*
X00254178Y00510134D01*
Y00509118D01*
X00242748Y00486258D02*
X00243764D01*
X00244780Y00487274D01*
X00245796Y00486258D01*
X00246812D01*
Y00487274D01*
X00245796Y00488290D01*
X00246812Y00489306D01*
Y00490322D01*
X00245796D01*
X00244780Y00489306D01*
X00243764Y00490322D01*
X00242748D01*
Y00489306D01*
X00243764Y00488290D01*
X00242748Y00487274D01*
Y00486258D01*
X00367208Y00530708D02*
X00368224D01*
X00369240Y00531724D01*
X00370256Y00530708D01*
X00371272D01*
Y00531724D01*
X00370256Y00532740D01*
X00371272Y00533756D01*
Y00534772D01*
X00370256D01*
X00369240Y00533756D01*
X00368224Y00534772D01*
X00367208D01*
Y00533756D01*
X00368224Y00532740D01*
X00367208Y00531724D01*
Y00530708D01*
X00418008Y00531978D02*
X00419024D01*
X00420040Y00532994D01*
X00421056Y00531978D01*
X00422072D01*
Y00532994D01*
X00421056Y00534010D01*
X00422072Y00535026D01*
Y00536042D01*
X00421056D01*
X00420040Y00535026D01*
X00419024Y00536042D01*
X00418008D01*
Y00535026D01*
X00419024Y00534010D01*
X00418008Y00532994D01*
Y00531978D01*
X00467538D02*
X00468554D01*
X00469570Y00532994D01*
X00470586Y00531978D01*
X00471602D01*
Y00532994D01*
X00470586Y00534010D01*
X00471602Y00535026D01*
Y00536042D01*
X00470586D01*
X00469570Y00535026D01*
X00468554Y00536042D01*
X00467538D01*
Y00535026D01*
X00468554Y00534010D01*
X00467538Y00532994D01*
Y00531978D01*
X00515798Y00530708D02*
X00516814D01*
X00517830Y00531724D01*
X00518846Y00530708D01*
X00519862D01*
Y00531724D01*
X00518846Y00532740D01*
X00519862Y00533756D01*
Y00534772D01*
X00518846D01*
X00517830Y00533756D01*
X00516814Y00534772D01*
X00515798D01*
Y00533756D01*
X00516814Y00532740D01*
X00515798Y00531724D01*
Y00530708D01*
D53*
X00149732Y00283700D02*
G03*
X00149732Y00283700I-00002032J00000000D01*
G01*
Y00309100D02*
G03*
X00149732Y00309100I-00002032J00000000D01*
G01*
Y00334500D02*
G03*
X00149732Y00334500I-00002032J00000000D01*
G01*
Y00359900D02*
G03*
X00149732Y00359900I-00002032J00000000D01*
G01*
Y00385300D02*
G03*
X00149732Y00385300I-00002032J00000000D01*
G01*
Y00410700D02*
G03*
X00149732Y00410700I-00002032J00000000D01*
G01*
Y00436100D02*
G03*
X00149732Y00436100I-00002032J00000000D01*
G01*
Y00461500D02*
G03*
X00149732Y00461500I-00002032J00000000D01*
G01*
Y00486900D02*
G03*
X00149732Y00486900I-00002032J00000000D01*
G01*
Y00512300D02*
G03*
X00149732Y00512300I-00002032J00000000D01*
G01*
X00124332Y00283700D02*
G03*
X00124332Y00283700I-00002032J00000000D01*
G01*
Y00309100D02*
G03*
X00124332Y00309100I-00002032J00000000D01*
G01*
Y00334500D02*
G03*
X00124332Y00334500I-00002032J00000000D01*
G01*
Y00359900D02*
G03*
X00124332Y00359900I-00002032J00000000D01*
G01*
Y00385300D02*
G03*
X00124332Y00385300I-00002032J00000000D01*
G01*
Y00410700D02*
G03*
X00124332Y00410700I-00002032J00000000D01*
G01*
Y00436100D02*
G03*
X00124332Y00436100I-00002032J00000000D01*
G01*
Y00461500D02*
G03*
X00124332Y00461500I-00002032J00000000D01*
G01*
Y00486900D02*
G03*
X00124332Y00486900I-00002032J00000000D01*
G01*
Y00512300D02*
G03*
X00124332Y00512300I-00002032J00000000D01*
G01*
Y00740900D02*
G03*
X00124332Y00740900I-00002032J00000000D01*
G01*
Y00715500D02*
G03*
X00124332Y00715500I-00002032J00000000D01*
G01*
Y00690100D02*
G03*
X00124332Y00690100I-00002032J00000000D01*
G01*
Y00664700D02*
G03*
X00124332Y00664700I-00002032J00000000D01*
G01*
Y00639300D02*
G03*
X00124332Y00639300I-00002032J00000000D01*
G01*
Y00613900D02*
G03*
X00124332Y00613900I-00002032J00000000D01*
G01*
Y00588500D02*
G03*
X00124332Y00588500I-00002032J00000000D01*
G01*
Y00563100D02*
G03*
X00124332Y00563100I-00002032J00000000D01*
G01*
Y00537700D02*
G03*
X00124332Y00537700I-00002032J00000000D01*
G01*
X00149732Y00740900D02*
G03*
X00149732Y00740900I-00002032J00000000D01*
G01*
Y00715500D02*
G03*
X00149732Y00715500I-00002032J00000000D01*
G01*
Y00690100D02*
G03*
X00149732Y00690100I-00002032J00000000D01*
G01*
Y00664700D02*
G03*
X00149732Y00664700I-00002032J00000000D01*
G01*
Y00639300D02*
G03*
X00149732Y00639300I-00002032J00000000D01*
G01*
Y00613900D02*
G03*
X00149732Y00613900I-00002032J00000000D01*
G01*
Y00588500D02*
G03*
X00149732Y00588500I-00002032J00000000D01*
G01*
Y00563100D02*
G03*
X00149732Y00563100I-00002032J00000000D01*
G01*
Y00537700D02*
G03*
X00149732Y00537700I-00002032J00000000D01*
G01*
Y00766300D02*
G03*
X00149732Y00766300I-00002032J00000000D01*
G01*
X00124332D02*
G03*
X00124332Y00766300I-00002032J00000000D01*
G01*
M02*
