G04 Layer_Color=128*
%FSAX44Y44*%
%MOMM*%
G71*
G01*
G75*
%ADD52C,0.0508*%
D52*
X00121250Y00815000D02*
X00148750D01*
X00135000Y00801250D02*
Y00828750D01*
X00611250Y00815000D02*
X00638750D01*
X00625000Y00801250D02*
Y00828750D01*
X00121250Y00235000D02*
X00148750D01*
X00135000Y00221250D02*
Y00248750D01*
X00611250Y00235000D02*
X00638750D01*
X00625000Y00221250D02*
Y00248750D01*
X00143200Y00283700D02*
X00152200D01*
X00147700Y00279200D02*
Y00288200D01*
X00143200Y00309100D02*
X00152200D01*
X00147700Y00304600D02*
Y00313600D01*
X00143200Y00334500D02*
X00152200D01*
X00147700Y00330000D02*
Y00339000D01*
X00143200Y00359900D02*
X00152200D01*
X00147700Y00355400D02*
Y00364400D01*
X00143200Y00385300D02*
X00152200D01*
X00147700Y00380800D02*
Y00389800D01*
X00143200Y00410700D02*
X00152200D01*
X00147700Y00406200D02*
Y00415200D01*
X00143200Y00436100D02*
X00152200D01*
X00147700Y00431600D02*
Y00440600D01*
X00143200Y00461500D02*
X00152200D01*
X00147700Y00457000D02*
Y00466000D01*
X00143200Y00486900D02*
X00152200D01*
X00147700Y00482400D02*
Y00491400D01*
X00143200Y00512300D02*
X00152200D01*
X00147700Y00507800D02*
Y00516800D01*
X00117800Y00283700D02*
X00126800D01*
X00122300Y00279200D02*
Y00288200D01*
X00117800Y00309100D02*
X00126800D01*
X00122300Y00304600D02*
Y00313600D01*
X00117800Y00334500D02*
X00126800D01*
X00122300Y00330000D02*
Y00339000D01*
X00117800Y00359900D02*
X00126800D01*
X00122300Y00355400D02*
Y00364400D01*
X00117800Y00385300D02*
X00126800D01*
X00122300Y00380800D02*
Y00389800D01*
X00117800Y00410700D02*
X00126800D01*
X00122300Y00406200D02*
Y00415200D01*
X00117800Y00436100D02*
X00126800D01*
X00122300Y00431600D02*
Y00440600D01*
X00117800Y00461500D02*
X00126800D01*
X00122300Y00457000D02*
Y00466000D01*
X00117800Y00486900D02*
X00126800D01*
X00122300Y00482400D02*
Y00491400D01*
X00117800Y00512300D02*
X00126800D01*
X00122300Y00507800D02*
Y00516800D01*
X00117800Y00740900D02*
X00126800D01*
X00122300Y00736400D02*
Y00745400D01*
X00117800Y00715500D02*
X00126800D01*
X00122300Y00711000D02*
Y00720000D01*
X00117800Y00690100D02*
X00126800D01*
X00122300Y00685600D02*
Y00694600D01*
X00117800Y00664700D02*
X00126800D01*
X00122300Y00660200D02*
Y00669200D01*
X00117800Y00639300D02*
X00126800D01*
X00122300Y00634800D02*
Y00643800D01*
X00117800Y00613900D02*
X00126800D01*
X00122300Y00609400D02*
Y00618400D01*
X00117800Y00588500D02*
X00126800D01*
X00122300Y00584000D02*
Y00593000D01*
X00117800Y00563100D02*
X00126800D01*
X00122300Y00558600D02*
Y00567600D01*
X00117800Y00537700D02*
X00126800D01*
X00122300Y00533200D02*
Y00542200D01*
X00143200Y00740900D02*
X00152200D01*
X00147700Y00736400D02*
Y00745400D01*
X00143200Y00715500D02*
X00152200D01*
X00147700Y00711000D02*
Y00720000D01*
X00143200Y00690100D02*
X00152200D01*
X00147700Y00685600D02*
Y00694600D01*
X00143200Y00664700D02*
X00152200D01*
X00147700Y00660200D02*
Y00669200D01*
X00143200Y00639300D02*
X00152200D01*
X00147700Y00634800D02*
Y00643800D01*
X00143200Y00613900D02*
X00152200D01*
X00147700Y00609400D02*
Y00618400D01*
X00143200Y00588500D02*
X00152200D01*
X00147700Y00584000D02*
Y00593000D01*
X00143200Y00563100D02*
X00152200D01*
X00147700Y00558600D02*
Y00567600D01*
X00143200Y00537700D02*
X00152200D01*
X00147700Y00533200D02*
Y00542200D01*
X00143200Y00766300D02*
X00152200D01*
X00147700Y00761800D02*
Y00770800D01*
X00117800Y00766300D02*
X00126800D01*
X00122300Y00761800D02*
Y00770800D01*
X00491430Y00283820D02*
X00523930D01*
X00507680Y00267570D02*
Y00300070D01*
X00377110Y00283820D02*
X00409610D01*
X00393360Y00267570D02*
Y00300070D01*
X00489980Y00347320D02*
X00499980D01*
X00494980Y00342320D02*
Y00352320D01*
X00477280Y00372720D02*
X00487280D01*
X00482280Y00367720D02*
Y00377720D01*
X00464580Y00347320D02*
X00474580D01*
X00469580Y00342320D02*
Y00352320D01*
X00451880Y00372720D02*
X00461880D01*
X00456880Y00367720D02*
Y00377720D01*
X00439180Y00347320D02*
X00449180D01*
X00444180Y00342320D02*
Y00352320D01*
X00426480Y00372720D02*
X00436480D01*
X00431480Y00367720D02*
Y00377720D01*
X00413780Y00347320D02*
X00423780D01*
X00418780Y00342320D02*
Y00352320D01*
X00401080Y00372720D02*
X00411080D01*
X00406080Y00367720D02*
Y00377720D01*
X00315720Y00310010D02*
X00323720D01*
X00319720Y00306010D02*
Y00314010D01*
X00268720Y00280010D02*
X00276720D01*
X00272720Y00276010D02*
Y00284010D01*
X00268720Y00342010D02*
X00276720D01*
X00272720Y00338010D02*
Y00346010D01*
X00592500Y00350000D02*
X00602500D01*
X00597500Y00345000D02*
Y00355000D01*
X00592500Y00400000D02*
X00602500D01*
X00597500Y00395000D02*
Y00405000D01*
X00255980Y00476860D02*
X00258980D01*
X00257480Y00475360D02*
Y00478360D01*
X00263600Y00485750D02*
X00266600D01*
X00265100Y00484250D02*
Y00487250D01*
X00248360Y00467970D02*
X00251360D01*
X00249860Y00466470D02*
Y00469470D01*
X00357580Y00300330D02*
X00360580D01*
X00359080Y00298830D02*
Y00301830D01*
X00357580Y00288900D02*
X00360580D01*
X00359080Y00287400D02*
Y00290400D01*
X00357580Y00276200D02*
X00360580D01*
X00359080Y00274700D02*
Y00277700D01*
X00294080Y00487020D02*
X00297080D01*
X00295580Y00485520D02*
Y00488520D01*
X00294080Y00476860D02*
X00297080D01*
X00295580Y00475360D02*
Y00478360D01*
X00294080Y00466700D02*
X00297080D01*
X00295580Y00465200D02*
Y00468200D01*
X00221690Y00283820D02*
X00224690D01*
X00223190Y00282320D02*
Y00285320D01*
X00459180Y00497180D02*
X00462180D01*
X00460680Y00495680D02*
Y00498680D01*
X00449020Y00422250D02*
X00452020D01*
X00450520Y00420750D02*
Y00423750D01*
X00531570Y00408280D02*
X00534570D01*
X00533070Y00406780D02*
Y00409780D01*
X00531570Y00483210D02*
X00534570D01*
X00533070Y00481710D02*
Y00484710D01*
X00229310Y00511150D02*
X00232310D01*
X00230810Y00509650D02*
Y00512650D01*
X00254710Y00511150D02*
X00257710D01*
X00256210Y00509650D02*
Y00512650D01*
X00243280Y00488290D02*
X00246280D01*
X00244780Y00486790D02*
Y00489790D01*
X00367740Y00532740D02*
X00370740D01*
X00369240Y00531240D02*
Y00534240D01*
X00418540Y00534010D02*
X00421540D01*
X00420040Y00532510D02*
Y00535510D01*
X00468070Y00534010D02*
X00471070D01*
X00469570Y00532510D02*
Y00535510D01*
X00516330Y00532740D02*
X00519330D01*
X00517830Y00531240D02*
Y00534240D01*
M02*
