G04 Layer_Physical_Order=1*
G04 Layer_Color=255*
%FSAX44Y44*%
%MOMM*%
G71*
G01*
G75*
%ADD10R,1.1000X1.7000*%
%ADD11R,1.7000X1.1000*%
%ADD12R,10.4500X8.1000*%
%ADD13R,1.0000X3.0000*%
%ADD14O,1.9000X0.6000*%
%ADD15R,0.9000X0.8000*%
%ADD16C,0.3810*%
%ADD17C,1.0000*%
%ADD18C,0.5080*%
%ADD19C,1.5000*%
%ADD20C,1.5240*%
%ADD21R,1.5000X1.5000*%
%ADD22C,1.5000*%
%ADD23C,3.2500*%
%ADD24P,1.8145X8X22.5*%
%ADD25C,1.6764*%
G04:AMPARAMS|DCode=26|XSize=3.5mm|YSize=1.3mm|CornerRadius=0.325mm|HoleSize=0mm|Usage=FLASHONLY|Rotation=270.000|XOffset=0mm|YOffset=0mm|HoleType=Round|Shape=RoundedRectangle|*
%AMROUNDEDRECTD26*
21,1,3.5000,0.6500,0,0,270.0*
21,1,2.8500,1.3000,0,0,270.0*
1,1,0.6500,-0.3250,-1.4250*
1,1,0.6500,-0.3250,1.4250*
1,1,0.6500,0.3250,1.4250*
1,1,0.6500,0.3250,-1.4250*
%
%ADD26ROUNDEDRECTD26*%
G04:AMPARAMS|DCode=27|XSize=3.5mm|YSize=1.3mm|CornerRadius=0.325mm|HoleSize=0mm|Usage=FLASHONLY|Rotation=180.000|XOffset=0mm|YOffset=0mm|HoleType=Round|Shape=RoundedRectangle|*
%AMROUNDEDRECTD27*
21,1,3.5000,0.6500,0,0,180.0*
21,1,2.8500,1.3000,0,0,180.0*
1,1,0.6500,-1.4250,0.3250*
1,1,0.6500,1.4250,0.3250*
1,1,0.6500,1.4250,-0.3250*
1,1,0.6500,-1.4250,-0.3250*
%
%ADD27ROUNDEDRECTD27*%
G04:AMPARAMS|DCode=28|XSize=4mm|YSize=1.3mm|CornerRadius=0.325mm|HoleSize=0mm|Usage=FLASHONLY|Rotation=180.000|XOffset=0mm|YOffset=0mm|HoleType=Round|Shape=RoundedRectangle|*
%AMROUNDEDRECTD28*
21,1,4.0000,0.6500,0,0,180.0*
21,1,3.3500,1.3000,0,0,180.0*
1,1,0.6500,-1.6750,0.3250*
1,1,0.6500,1.6750,0.3250*
1,1,0.6500,1.6750,-0.3250*
1,1,0.6500,-1.6750,-0.3250*
%
%ADD28ROUNDEDRECTD28*%
%ADD29C,0.6000*%
G36*
X00634174Y00846357D02*
X00638246Y00845379D01*
X00642115Y00843777D01*
X00645685Y00841589D01*
X00648869Y00838869D01*
X00651589Y00835685D01*
X00653777Y00832115D01*
X00655379Y00828246D01*
X00656357Y00824174D01*
X00656680Y00820070D01*
X00656666Y00820000D01*
Y00230000D01*
X00656680Y00229930D01*
X00656357Y00225826D01*
X00655379Y00221754D01*
X00653777Y00217885D01*
X00651589Y00214315D01*
X00648869Y00211131D01*
X00645685Y00208411D01*
X00642115Y00206223D01*
X00638246Y00204621D01*
X00634174Y00203643D01*
X00630070Y00203320D01*
X00630000Y00203334D01*
X00130000D01*
X00129930Y00203320D01*
X00125826Y00203643D01*
X00121754Y00204621D01*
X00117885Y00206223D01*
X00114315Y00208411D01*
X00111131Y00211131D01*
X00108411Y00214315D01*
X00106223Y00217885D01*
X00104621Y00221754D01*
X00103643Y00225826D01*
X00103320Y00229930D01*
X00103334Y00230000D01*
Y00820000D01*
X00103320Y00820070D01*
X00103643Y00824174D01*
X00104621Y00828246D01*
X00106223Y00832115D01*
X00108411Y00835685D01*
X00111131Y00838869D01*
X00114315Y00841589D01*
X00117885Y00843777D01*
X00121754Y00845379D01*
X00125826Y00846357D01*
X00129930Y00846680D01*
X00130000Y00846666D01*
X00630000D01*
X00630070Y00846680D01*
X00634174Y00846357D01*
D02*
G37*
%LPC*%
G36*
X00446160Y00427410D02*
X00442171D01*
X00442498Y00427191D01*
X00444660Y00426762D01*
X00446160D01*
Y00427410D01*
D02*
G37*
G36*
X00117300Y00431100D02*
X00113504D01*
X00113530Y00431037D01*
X00115139Y00428939D01*
X00117237Y00427330D01*
X00117300Y00427304D01*
Y00431100D01*
D02*
G37*
G36*
X00529210Y00419320D02*
X00526170D01*
Y00413280D01*
X00529210D01*
Y00419320D01*
D02*
G37*
G36*
X00147700Y00445682D02*
X00145220Y00445355D01*
X00142909Y00444398D01*
X00140925Y00442876D01*
X00139402Y00440891D01*
X00138445Y00438580D01*
X00138118Y00436100D01*
X00138445Y00433620D01*
X00139402Y00431309D01*
X00140925Y00429325D01*
X00142909Y00427802D01*
X00145220Y00426845D01*
X00147700Y00426518D01*
X00150180Y00426845D01*
X00152491Y00427802D01*
X00154475Y00429325D01*
X00155998Y00431309D01*
X00156955Y00433620D01*
X00157282Y00436100D01*
X00156955Y00438580D01*
X00155998Y00440891D01*
X00154475Y00442876D01*
X00152491Y00444398D01*
X00150180Y00445355D01*
X00147700Y00445682D01*
D02*
G37*
G36*
X00117300Y00444896D02*
X00117237Y00444870D01*
X00115139Y00443261D01*
X00113530Y00441163D01*
X00113504Y00441100D01*
X00117300D01*
Y00444896D01*
D02*
G37*
G36*
X00127300D02*
Y00441100D01*
X00131096D01*
X00131070Y00441163D01*
X00129461Y00443261D01*
X00127363Y00444870D01*
X00127300Y00444896D01*
D02*
G37*
G36*
X00131096Y00431100D02*
X00127300D01*
Y00427304D01*
X00127363Y00427330D01*
X00129461Y00428939D01*
X00131070Y00431037D01*
X00131096Y00431100D01*
D02*
G37*
G36*
X00446160Y00438059D02*
X00444660D01*
X00442498Y00437629D01*
X00442171Y00437410D01*
X00446160D01*
Y00438059D01*
D02*
G37*
G36*
X00516170Y00419320D02*
X00513130D01*
Y00413280D01*
X00516170D01*
Y00419320D01*
D02*
G37*
G36*
X00122300Y00420282D02*
X00119820Y00419955D01*
X00117509Y00418998D01*
X00115525Y00417476D01*
X00114002Y00415491D01*
X00113045Y00413180D01*
X00112718Y00410700D01*
X00113045Y00408220D01*
X00114002Y00405909D01*
X00115525Y00403925D01*
X00117509Y00402402D01*
X00119820Y00401445D01*
X00122300Y00401118D01*
X00124780Y00401445D01*
X00127091Y00402402D01*
X00129075Y00403925D01*
X00130598Y00405909D01*
X00131556Y00408220D01*
X00131882Y00410700D01*
X00131556Y00413180D01*
X00130598Y00415491D01*
X00129075Y00417476D01*
X00127091Y00418998D01*
X00124780Y00419955D01*
X00122300Y00420282D01*
D02*
G37*
G36*
X00147700D02*
X00145220Y00419955D01*
X00142909Y00418998D01*
X00140925Y00417476D01*
X00139402Y00415491D01*
X00138445Y00413180D01*
X00138118Y00410700D01*
X00138445Y00408220D01*
X00139402Y00405909D01*
X00140925Y00403925D01*
X00142909Y00402402D01*
X00145220Y00401445D01*
X00147700Y00401118D01*
X00150180Y00401445D01*
X00152491Y00402402D01*
X00154475Y00403925D01*
X00155998Y00405909D01*
X00156955Y00408220D01*
X00157282Y00410700D01*
X00156955Y00413180D01*
X00155998Y00415491D01*
X00154475Y00417476D01*
X00152491Y00418998D01*
X00150180Y00419955D01*
X00147700Y00420282D01*
D02*
G37*
G36*
X00516170Y00403280D02*
X00513130D01*
Y00397240D01*
X00516170D01*
Y00403280D01*
D02*
G37*
G36*
X00529210D02*
X00526170D01*
Y00397240D01*
X00529210D01*
Y00403280D01*
D02*
G37*
G36*
X00592500Y00408796D02*
X00592437Y00408770D01*
X00590339Y00407161D01*
X00588730Y00405063D01*
X00588704Y00405000D01*
X00592500D01*
Y00408796D01*
D02*
G37*
G36*
X00602500D02*
Y00405000D01*
X00606296D01*
X00606270Y00405063D01*
X00604661Y00407161D01*
X00602563Y00408770D01*
X00602500Y00408796D01*
D02*
G37*
G36*
X00324070Y00410430D02*
X00321030D01*
Y00404390D01*
X00324070D01*
Y00410430D01*
D02*
G37*
G36*
X00337110D02*
X00334070D01*
Y00404390D01*
X00337110D01*
Y00410430D01*
D02*
G37*
G36*
X00516170Y00494250D02*
X00513130D01*
Y00488210D01*
X00516170D01*
Y00494250D01*
D02*
G37*
G36*
X00529210D02*
X00526170D01*
Y00488210D01*
X00529210D01*
Y00494250D01*
D02*
G37*
G36*
X00147700Y00496482D02*
X00145220Y00496156D01*
X00142909Y00495198D01*
X00140925Y00493675D01*
X00139402Y00491691D01*
X00138445Y00489380D01*
X00138118Y00486900D01*
X00138445Y00484420D01*
X00139402Y00482109D01*
X00140925Y00480125D01*
X00142909Y00478602D01*
X00145220Y00477645D01*
X00147700Y00477318D01*
X00150180Y00477645D01*
X00152491Y00478602D01*
X00154475Y00480125D01*
X00155998Y00482109D01*
X00156955Y00484420D01*
X00157282Y00486900D01*
X00156955Y00489380D01*
X00155998Y00491691D01*
X00154475Y00493675D01*
X00152491Y00495198D01*
X00150180Y00496156D01*
X00147700Y00496482D01*
D02*
G37*
G36*
X00366940Y00484060D02*
X00364900D01*
Y00482520D01*
X00366940D01*
Y00484060D01*
D02*
G37*
G36*
X00252320Y00505840D02*
X00249780D01*
Y00493300D01*
X00252320D01*
Y00505840D01*
D02*
G37*
G36*
X00378440Y00502520D02*
X00365440D01*
Y00501149D01*
X00359690D01*
X00359690Y00501149D01*
X00357919Y00500797D01*
X00356417Y00499793D01*
X00356417Y00499793D01*
X00335487Y00478863D01*
X00334483Y00477361D01*
X00334131Y00475590D01*
X00334131Y00475590D01*
Y00462300D01*
X00328260D01*
Y00447300D01*
X00349260D01*
Y00462300D01*
X00343389D01*
Y00473673D01*
X00361607Y00491891D01*
X00365440D01*
Y00490520D01*
X00378440D01*
Y00502520D01*
D02*
G37*
G36*
X00419120Y00507680D02*
X00404120D01*
Y00491649D01*
X00398440D01*
Y00493020D01*
X00385440D01*
Y00481020D01*
X00398440D01*
Y00482391D01*
X00406070D01*
Y00476010D01*
X00405580Y00475608D01*
X00392580D01*
X00390629Y00475220D01*
X00390508Y00475139D01*
X00384480D01*
X00382709Y00474787D01*
X00381207Y00473783D01*
X00381207Y00473783D01*
X00380153Y00472730D01*
X00378980Y00473216D01*
Y00484060D01*
X00376940D01*
Y00477520D01*
Y00470508D01*
X00377230Y00469807D01*
X00352083Y00444659D01*
X00317170D01*
X00317170Y00444659D01*
X00315399Y00444307D01*
X00313897Y00443303D01*
X00313897Y00443303D01*
X00304553Y00433959D01*
X00205018D01*
X00205017Y00433959D01*
X00203246Y00433607D01*
X00201744Y00432603D01*
X00201744Y00432603D01*
X00189977Y00420836D01*
X00188973Y00419334D01*
X00188621Y00417563D01*
X00188621Y00417562D01*
Y00387217D01*
X00178753Y00377349D01*
X00155838D01*
X00155229Y00378619D01*
X00156470Y00380237D01*
X00156496Y00380300D01*
X00147700D01*
X00138904D01*
X00138930Y00380237D01*
X00140171Y00378619D01*
X00139562Y00377349D01*
X00136797D01*
X00131488Y00382658D01*
X00131556Y00382820D01*
X00131882Y00385300D01*
X00131556Y00387780D01*
X00130598Y00390091D01*
X00129075Y00392076D01*
X00127091Y00393598D01*
X00124780Y00394556D01*
X00122300Y00394882D01*
X00119820Y00394556D01*
X00117509Y00393598D01*
X00115525Y00392076D01*
X00114002Y00390091D01*
X00113045Y00387780D01*
X00112718Y00385300D01*
X00113045Y00382820D01*
X00114002Y00380509D01*
X00115525Y00378525D01*
X00117509Y00377002D01*
X00119820Y00376045D01*
X00122300Y00375718D01*
X00124780Y00376045D01*
X00124942Y00376112D01*
X00131607Y00369447D01*
X00133109Y00368443D01*
X00134880Y00368091D01*
X00134880Y00368091D01*
X00140794D01*
X00141202Y00366888D01*
X00140925Y00366675D01*
X00139402Y00364691D01*
X00138445Y00362380D01*
X00138118Y00359900D01*
X00138445Y00357420D01*
X00139402Y00355109D01*
X00140852Y00353219D01*
X00140723Y00352532D01*
X00140526Y00351949D01*
X00136797D01*
X00131488Y00357258D01*
X00131556Y00357420D01*
X00131882Y00359900D01*
X00131556Y00362380D01*
X00130598Y00364691D01*
X00129075Y00366675D01*
X00127091Y00368198D01*
X00124780Y00369156D01*
X00122300Y00369482D01*
X00119820Y00369156D01*
X00117509Y00368198D01*
X00115525Y00366675D01*
X00114002Y00364691D01*
X00113045Y00362380D01*
X00112718Y00359900D01*
X00113045Y00357420D01*
X00114002Y00355109D01*
X00115525Y00353125D01*
X00117509Y00351602D01*
X00119820Y00350645D01*
X00122300Y00350318D01*
X00124780Y00350645D01*
X00124942Y00350712D01*
X00131607Y00344047D01*
X00133109Y00343043D01*
X00134880Y00342691D01*
X00134880Y00342691D01*
X00140794D01*
X00141202Y00341488D01*
X00140925Y00341275D01*
X00139402Y00339291D01*
X00138445Y00336980D01*
X00138118Y00334500D01*
X00138445Y00332020D01*
X00139402Y00329709D01*
X00140925Y00327725D01*
X00142909Y00326202D01*
X00145220Y00325245D01*
X00147700Y00324918D01*
X00150180Y00325245D01*
X00152491Y00326202D01*
X00154475Y00327725D01*
X00155998Y00329709D01*
X00156955Y00332020D01*
X00157282Y00334500D01*
X00156955Y00336980D01*
X00155998Y00339291D01*
X00154475Y00341275D01*
X00154198Y00341488D01*
X00154606Y00342691D01*
X00168580D01*
X00168580Y00342691D01*
X00170351Y00343043D01*
X00171853Y00344047D01*
X00203603Y00375797D01*
X00204607Y00377299D01*
X00204959Y00379070D01*
X00204959Y00379070D01*
Y00412713D01*
X00209867Y00417621D01*
X00357810D01*
X00357810Y00417621D01*
X00359581Y00417973D01*
X00361083Y00418977D01*
X00369887Y00427781D01*
X00390508D01*
X00390629Y00427700D01*
X00392580Y00427312D01*
X00405580D01*
X00407531Y00427700D01*
X00409185Y00428805D01*
X00410290Y00430459D01*
X00410678Y00432410D01*
X00410290Y00434361D01*
X00409185Y00436015D01*
X00408290Y00436613D01*
Y00440907D01*
X00409185Y00441505D01*
X00410290Y00443159D01*
X00410678Y00445110D01*
X00410290Y00447061D01*
X00409185Y00448715D01*
X00408290Y00449313D01*
Y00453181D01*
X00417500D01*
X00417500Y00453181D01*
X00419271Y00453533D01*
X00420773Y00454537D01*
X00423313Y00457077D01*
X00423313Y00457077D01*
X00424317Y00458579D01*
X00424669Y00460350D01*
Y00474320D01*
X00424669Y00474320D01*
X00424317Y00476091D01*
X00423313Y00477593D01*
X00423313Y00477593D01*
X00416249Y00484657D01*
Y00486680D01*
X00419120D01*
Y00507680D01*
D02*
G37*
G36*
X00239780Y00505840D02*
X00237240D01*
Y00493300D01*
X00239780D01*
Y00505840D01*
D02*
G37*
G36*
X00122300Y00496482D02*
X00119820Y00496156D01*
X00117509Y00495198D01*
X00115525Y00493675D01*
X00114002Y00491691D01*
X00113045Y00489380D01*
X00112718Y00486900D01*
X00113045Y00484420D01*
X00114002Y00482109D01*
X00115525Y00480125D01*
X00117509Y00478602D01*
X00119820Y00477645D01*
X00122300Y00477318D01*
X00124780Y00477645D01*
X00127091Y00478602D01*
X00129075Y00480125D01*
X00130598Y00482109D01*
X00131556Y00484420D01*
X00131882Y00486900D01*
X00131556Y00489380D01*
X00130598Y00491691D01*
X00129075Y00493675D01*
X00127091Y00495198D01*
X00124780Y00496156D01*
X00122300Y00496482D01*
D02*
G37*
G36*
X00302580Y00527840D02*
X00288580D01*
Y00517323D01*
X00287282Y00515631D01*
X00286325Y00513320D01*
X00285998Y00510840D01*
Y00487020D01*
Y00476860D01*
Y00466700D01*
X00286325Y00464220D01*
X00287282Y00461909D01*
X00288805Y00459925D01*
X00290789Y00458402D01*
X00293100Y00457445D01*
X00295580Y00457118D01*
X00298060Y00457445D01*
X00300371Y00458402D01*
X00302355Y00459925D01*
X00303878Y00461909D01*
X00304835Y00464220D01*
X00305162Y00466700D01*
Y00476860D01*
Y00487020D01*
Y00510840D01*
X00304835Y00513320D01*
X00303878Y00515631D01*
X00302580Y00517323D01*
Y00527840D01*
D02*
G37*
G36*
X00501670Y00493710D02*
X00486670D01*
Y00472710D01*
X00490188D01*
Y00467675D01*
X00486670D01*
Y00461791D01*
X00460701D01*
X00459611Y00462520D01*
X00457660Y00462908D01*
X00444660D01*
X00442709Y00462520D01*
X00441619Y00461791D01*
X00432740D01*
X00431216Y00461488D01*
X00429925Y00460625D01*
X00427385Y00458085D01*
X00426522Y00456794D01*
X00426218Y00455270D01*
Y00424800D01*
X00426522Y00423276D01*
X00427385Y00421985D01*
X00472685Y00376685D01*
X00472165Y00375430D01*
X00471808Y00372720D01*
X00472165Y00370010D01*
X00473211Y00367484D01*
X00474875Y00365316D01*
X00477044Y00363651D01*
X00479570Y00362605D01*
X00482280Y00362248D01*
X00484990Y00362605D01*
X00487516Y00363651D01*
X00489684Y00365316D01*
X00491349Y00367484D01*
X00492395Y00370010D01*
X00492752Y00372720D01*
X00492395Y00375430D01*
X00491349Y00377956D01*
X00489684Y00380125D01*
X00487516Y00381789D01*
X00484990Y00382835D01*
X00482280Y00383192D01*
X00479570Y00382835D01*
X00478316Y00382315D01*
X00434182Y00426449D01*
Y00453621D01*
X00434389Y00453829D01*
X00441619D01*
X00442709Y00453100D01*
X00444660Y00452712D01*
X00457660D01*
X00459611Y00453100D01*
X00460701Y00453829D01*
X00486670D01*
Y00448751D01*
X00469879D01*
X00469824Y00448788D01*
X00468300Y00449091D01*
X00460701D01*
X00459611Y00449820D01*
X00457660Y00450208D01*
X00444660D01*
X00442709Y00449820D01*
X00441055Y00448715D01*
X00439950Y00447061D01*
X00439562Y00445110D01*
X00439950Y00443159D01*
X00441055Y00441505D01*
X00442709Y00440400D01*
X00444660Y00440012D01*
X00457660D01*
X00459611Y00440400D01*
X00460701Y00441129D01*
X00464319D01*
Y00433842D01*
X00463049Y00433717D01*
X00462879Y00434572D01*
X00461654Y00436404D01*
X00459822Y00437629D01*
X00457660Y00438059D01*
X00456160D01*
Y00432410D01*
Y00426762D01*
X00457660D01*
X00459822Y00427191D01*
X00461654Y00428416D01*
X00462879Y00430248D01*
X00463049Y00431103D01*
X00464319Y00430978D01*
Y00413360D01*
X00464622Y00411836D01*
X00465485Y00410545D01*
X00497338Y00378691D01*
Y00357702D01*
X00489789D01*
X00484598Y00352511D01*
Y00342129D01*
X00489789Y00336938D01*
X00500171D01*
X00505362Y00342129D01*
Y00352511D01*
X00505121Y00352752D01*
X00505302Y00353660D01*
Y00378548D01*
X00506572Y00379074D01*
X00526480Y00359165D01*
Y00330756D01*
X00525340Y00330079D01*
X00524180Y00330232D01*
X00456956D01*
X00456880Y00330242D01*
X00456804Y00330232D01*
X00451212D01*
Y00339630D01*
X00451585Y00339916D01*
X00453249Y00342084D01*
X00453782Y00343371D01*
X00457953Y00347542D01*
X00459157Y00346950D01*
X00459465Y00344610D01*
X00460511Y00342084D01*
X00462175Y00339916D01*
X00464344Y00338251D01*
X00466870Y00337205D01*
X00469580Y00336848D01*
X00472290Y00337205D01*
X00474816Y00338251D01*
X00476984Y00339916D01*
X00478649Y00342084D01*
X00479695Y00344610D01*
X00480052Y00347320D01*
X00479695Y00350030D01*
X00478649Y00352556D01*
X00476984Y00354725D01*
X00474816Y00356389D01*
X00472290Y00357435D01*
X00469580Y00357792D01*
X00467412Y00357506D01*
X00466401Y00358316D01*
X00466270Y00358561D01*
X00466462Y00360020D01*
Y00368723D01*
X00466995Y00370010D01*
X00467352Y00372720D01*
X00466995Y00375430D01*
X00465949Y00377956D01*
X00464285Y00380125D01*
X00462116Y00381789D01*
X00459590Y00382835D01*
X00456880Y00383192D01*
X00454170Y00382835D01*
X00451644Y00381789D01*
X00449476Y00380125D01*
X00447811Y00377956D01*
X00446765Y00375430D01*
X00446408Y00372720D01*
X00446765Y00370010D01*
X00447298Y00368723D01*
Y00363989D01*
X00440231Y00356922D01*
X00438944Y00356389D01*
X00436776Y00354725D01*
X00435111Y00352556D01*
X00434503Y00351087D01*
X00433332Y00349561D01*
X00432374Y00347250D01*
X00432048Y00344770D01*
Y00330232D01*
X00369240D01*
X00366760Y00329906D01*
X00364449Y00328948D01*
X00364269Y00328810D01*
X00363130Y00329372D01*
Y00363490D01*
X00363570D01*
Y00384490D01*
X00362780D01*
Y00388890D01*
X00363570D01*
Y00409890D01*
X00348570D01*
Y00388890D01*
X00348660D01*
Y00384490D01*
X00348570D01*
Y00363490D01*
X00348955D01*
X00349010Y00363358D01*
Y00319592D01*
X00328323D01*
Y00324260D01*
X00327915Y00326308D01*
X00326755Y00328045D01*
X00325019Y00329205D01*
X00322970Y00329613D01*
X00316470D01*
X00314422Y00329205D01*
X00312685Y00328045D01*
X00311525Y00326308D01*
X00311117Y00324260D01*
Y00314065D01*
X00310465Y00312490D01*
X00310138Y00310010D01*
X00310465Y00307530D01*
X00311117Y00305954D01*
Y00295760D01*
X00311525Y00293712D01*
X00312685Y00291975D01*
X00314422Y00290815D01*
X00316470Y00290407D01*
X00322970D01*
X00325019Y00290815D01*
X00326755Y00291975D01*
X00327915Y00293712D01*
X00328323Y00295760D01*
Y00300428D01*
X00349498D01*
Y00288900D01*
Y00280169D01*
X00343681Y00274352D01*
X00316059D01*
X00303626Y00286786D01*
X00301641Y00288308D01*
X00299330Y00289265D01*
X00296850Y00289592D01*
X00272720D01*
X00270240Y00289265D01*
X00268664Y00288613D01*
X00258470D01*
X00256422Y00288205D01*
X00254685Y00287045D01*
X00253525Y00285308D01*
X00253117Y00283260D01*
Y00276760D01*
X00253525Y00274712D01*
X00254685Y00272975D01*
X00256422Y00271815D01*
X00258470Y00271407D01*
X00268664D01*
X00270240Y00270755D01*
X00272720Y00270428D01*
X00292881D01*
X00305315Y00257995D01*
X00307299Y00256472D01*
X00309610Y00255515D01*
X00312090Y00255188D01*
X00347650D01*
X00350130Y00255515D01*
X00352441Y00256472D01*
X00354426Y00257995D01*
X00365855Y00269425D01*
X00367378Y00271409D01*
X00368335Y00273720D01*
X00368662Y00276200D01*
Y00288900D01*
Y00300330D01*
Y00306521D01*
X00373209Y00311068D01*
X00524180D01*
X00525450Y00311235D01*
X00526720Y00311068D01*
X00552120D01*
X00554600Y00311395D01*
X00556911Y00312352D01*
X00558895Y00313875D01*
X00585439Y00340418D01*
X00597500D01*
X00599980Y00340745D01*
X00602291Y00341702D01*
X00604275Y00343225D01*
X00605798Y00345209D01*
X00606755Y00347520D01*
X00607082Y00350000D01*
X00606755Y00352480D01*
X00605798Y00354791D01*
X00604275Y00356776D01*
X00602291Y00358298D01*
X00599980Y00359255D01*
X00597500Y00359582D01*
X00581470D01*
X00578990Y00359255D01*
X00576679Y00358298D01*
X00574695Y00356776D01*
X00548151Y00330232D01*
X00540600D01*
Y00362090D01*
X00540360Y00363917D01*
X00539655Y00365620D01*
X00538532Y00367082D01*
X00501670Y00403945D01*
Y00418780D01*
X00501230D01*
Y00420640D01*
X00501670D01*
Y00440788D01*
X00513670D01*
Y00420640D01*
X00528670D01*
Y00441640D01*
X00525621D01*
Y00446675D01*
X00528670D01*
Y00467675D01*
X00513670D01*
Y00448751D01*
X00501670D01*
Y00467675D01*
X00498152D01*
Y00472710D01*
X00501670D01*
Y00493710D01*
D02*
G37*
G36*
X00122300Y00471082D02*
X00119820Y00470756D01*
X00117509Y00469798D01*
X00115525Y00468275D01*
X00114002Y00466291D01*
X00113045Y00463980D01*
X00112718Y00461500D01*
X00113045Y00459020D01*
X00114002Y00456709D01*
X00115525Y00454725D01*
X00117509Y00453202D01*
X00119820Y00452245D01*
X00122300Y00451918D01*
X00124780Y00452245D01*
X00127091Y00453202D01*
X00129075Y00454725D01*
X00130598Y00456709D01*
X00131556Y00459020D01*
X00131882Y00461500D01*
X00131556Y00463980D01*
X00130598Y00466291D01*
X00129075Y00468275D01*
X00127091Y00469798D01*
X00124780Y00470756D01*
X00122300Y00471082D01*
D02*
G37*
G36*
X00147700D02*
X00145220Y00470756D01*
X00142909Y00469798D01*
X00140925Y00468275D01*
X00139402Y00466291D01*
X00138445Y00463980D01*
X00138118Y00461500D01*
X00138445Y00459020D01*
X00139402Y00456709D01*
X00140925Y00454725D01*
X00142909Y00453202D01*
X00145220Y00452245D01*
X00147700Y00451918D01*
X00150180Y00452245D01*
X00152491Y00453202D01*
X00154475Y00454725D01*
X00155998Y00456709D01*
X00156955Y00459020D01*
X00157282Y00461500D01*
X00156955Y00463980D01*
X00155998Y00466291D01*
X00154475Y00468275D01*
X00152491Y00469798D01*
X00150180Y00470756D01*
X00147700Y00471082D01*
D02*
G37*
G36*
X00529210Y00478210D02*
X00526170D01*
Y00472170D01*
X00529210D01*
Y00478210D01*
D02*
G37*
G36*
X00446120Y00507680D02*
X00431120D01*
Y00486680D01*
X00446120D01*
Y00492551D01*
X00458608D01*
X00458729Y00492470D01*
X00458872Y00492442D01*
X00468751Y00482563D01*
Y00476237D01*
X00467653Y00475139D01*
X00459732D01*
X00459611Y00475220D01*
X00457660Y00475608D01*
X00444660D01*
X00442709Y00475220D01*
X00441055Y00474115D01*
X00439950Y00472461D01*
X00439562Y00470510D01*
X00439950Y00468559D01*
X00441055Y00466905D01*
X00442709Y00465800D01*
X00444660Y00465412D01*
X00457660D01*
X00459611Y00465800D01*
X00459732Y00465881D01*
X00469570D01*
X00469570Y00465881D01*
X00471341Y00466233D01*
X00472843Y00467237D01*
X00476653Y00471047D01*
X00477657Y00472549D01*
X00478009Y00474320D01*
X00478009Y00474320D01*
Y00484480D01*
X00478009Y00484480D01*
X00477657Y00486251D01*
X00476653Y00487753D01*
X00476653Y00487753D01*
X00465418Y00498988D01*
X00465390Y00499131D01*
X00464285Y00500785D01*
X00462631Y00501890D01*
X00460680Y00502278D01*
X00458729Y00501890D01*
X00458608Y00501809D01*
X00446120D01*
Y00507680D01*
D02*
G37*
G36*
X00366940Y00472520D02*
X00364900D01*
Y00470980D01*
X00366940D01*
Y00472520D01*
D02*
G37*
G36*
X00516170Y00478210D02*
X00513130D01*
Y00472170D01*
X00516170D01*
Y00478210D01*
D02*
G37*
G36*
X00413780Y00342320D02*
X00409029D01*
X00409240Y00341812D01*
X00410990Y00339530D01*
X00413272Y00337780D01*
X00413780Y00337569D01*
Y00342320D01*
D02*
G37*
G36*
X00428531D02*
X00423780D01*
Y00337569D01*
X00424288Y00337780D01*
X00426570Y00339530D01*
X00428320Y00341812D01*
X00428531Y00342320D01*
D02*
G37*
G36*
X00267720Y00337010D02*
X00250415D01*
X00250516Y00336501D01*
X00251796Y00334586D01*
X00253711Y00333306D01*
X00255970Y00332857D01*
X00267720D01*
Y00337010D01*
D02*
G37*
G36*
X00295025D02*
X00277720D01*
Y00332857D01*
X00289470D01*
X00291729Y00333306D01*
X00293644Y00334586D01*
X00294924Y00336501D01*
X00295025Y00337010D01*
D02*
G37*
G36*
X00267720Y00351163D02*
X00255970D01*
X00253711Y00350714D01*
X00251796Y00349434D01*
X00250516Y00347519D01*
X00250415Y00347010D01*
X00267720D01*
Y00351163D01*
D02*
G37*
G36*
X00289470D02*
X00277720D01*
Y00347010D01*
X00295025D01*
X00294924Y00347519D01*
X00293644Y00349434D01*
X00291729Y00350714D01*
X00289470Y00351163D01*
D02*
G37*
G36*
X00117300Y00343296D02*
X00117237Y00343270D01*
X00115139Y00341661D01*
X00113530Y00339563D01*
X00113504Y00339500D01*
X00117300D01*
Y00343296D01*
D02*
G37*
G36*
X00127300D02*
Y00339500D01*
X00131096D01*
X00131070Y00339563D01*
X00129461Y00341661D01*
X00127363Y00343270D01*
X00127300Y00343296D01*
D02*
G37*
G36*
X00131096Y00329500D02*
X00127300D01*
Y00325704D01*
X00127363Y00325730D01*
X00129461Y00327339D01*
X00131070Y00329437D01*
X00131096Y00329500D01*
D02*
G37*
G36*
X00393360Y00302158D02*
X00389782Y00301806D01*
X00386342Y00300762D01*
X00383172Y00299068D01*
X00380393Y00296787D01*
X00378112Y00294008D01*
X00376418Y00290838D01*
X00375374Y00287398D01*
X00375022Y00283820D01*
X00375374Y00280242D01*
X00376418Y00276802D01*
X00378112Y00273632D01*
X00380393Y00270853D01*
X00383172Y00268572D01*
X00386342Y00266878D01*
X00389782Y00265834D01*
X00393360Y00265482D01*
X00396938Y00265834D01*
X00400378Y00266878D01*
X00403548Y00268572D01*
X00406327Y00270853D01*
X00408608Y00273632D01*
X00410302Y00276802D01*
X00411346Y00280242D01*
X00411698Y00283820D01*
X00411346Y00287398D01*
X00410302Y00290838D01*
X00408608Y00294008D01*
X00406327Y00296787D01*
X00403548Y00299068D01*
X00400378Y00300762D01*
X00396938Y00301806D01*
X00393360Y00302158D01*
D02*
G37*
G36*
X00507680D02*
X00504102Y00301806D01*
X00500662Y00300762D01*
X00497492Y00299068D01*
X00494713Y00296787D01*
X00492432Y00294008D01*
X00490738Y00290838D01*
X00489694Y00287398D01*
X00489342Y00283820D01*
X00489694Y00280242D01*
X00490738Y00276802D01*
X00492432Y00273632D01*
X00494713Y00270853D01*
X00497492Y00268572D01*
X00500662Y00266878D01*
X00504102Y00265834D01*
X00507680Y00265482D01*
X00511258Y00265834D01*
X00514698Y00266878D01*
X00517868Y00268572D01*
X00520647Y00270853D01*
X00522928Y00273632D01*
X00524622Y00276802D01*
X00525666Y00280242D01*
X00526018Y00283820D01*
X00525666Y00287398D01*
X00524622Y00290838D01*
X00522928Y00294008D01*
X00520647Y00296787D01*
X00517868Y00299068D01*
X00514698Y00300762D01*
X00511258Y00301806D01*
X00507680Y00302158D01*
D02*
G37*
G36*
X00135000Y00250826D02*
X00131912Y00250522D01*
X00128944Y00249622D01*
X00126207Y00248159D01*
X00123809Y00246191D01*
X00121841Y00243793D01*
X00120379Y00241056D01*
X00119478Y00238088D01*
X00119174Y00235000D01*
X00119478Y00231912D01*
X00120379Y00228944D01*
X00121841Y00226207D01*
X00123809Y00223809D01*
X00126207Y00221841D01*
X00128944Y00220378D01*
X00131912Y00219478D01*
X00135000Y00219174D01*
X00138088Y00219478D01*
X00141056Y00220378D01*
X00143793Y00221841D01*
X00146191Y00223809D01*
X00148159Y00226207D01*
X00149621Y00228944D01*
X00150522Y00231912D01*
X00150826Y00235000D01*
X00150522Y00238088D01*
X00149621Y00241056D01*
X00148159Y00243793D01*
X00146191Y00246191D01*
X00143793Y00248159D01*
X00141056Y00249622D01*
X00138088Y00250522D01*
X00135000Y00250826D01*
D02*
G37*
G36*
X00625000D02*
X00621912Y00250522D01*
X00618944Y00249622D01*
X00616207Y00248159D01*
X00613809Y00246191D01*
X00611841Y00243793D01*
X00610378Y00241056D01*
X00609478Y00238088D01*
X00609174Y00235000D01*
X00609478Y00231912D01*
X00610378Y00228944D01*
X00611841Y00226207D01*
X00613809Y00223809D01*
X00616207Y00221841D01*
X00618944Y00220378D01*
X00621912Y00219478D01*
X00625000Y00219174D01*
X00628088Y00219478D01*
X00631056Y00220378D01*
X00633793Y00221841D01*
X00636191Y00223809D01*
X00638159Y00226207D01*
X00639622Y00228944D01*
X00640522Y00231912D01*
X00640826Y00235000D01*
X00640522Y00238088D01*
X00639622Y00241056D01*
X00638159Y00243793D01*
X00636191Y00246191D01*
X00633793Y00248159D01*
X00631056Y00249622D01*
X00628088Y00250522D01*
X00625000Y00250826D01*
D02*
G37*
G36*
X00147700Y00318682D02*
X00145220Y00318356D01*
X00142909Y00317398D01*
X00140925Y00315875D01*
X00139402Y00313891D01*
X00138445Y00311580D01*
X00138118Y00309100D01*
X00138445Y00306620D01*
X00139402Y00304309D01*
X00140925Y00302325D01*
X00142909Y00300802D01*
X00145220Y00299845D01*
X00147700Y00299518D01*
X00150180Y00299845D01*
X00152491Y00300802D01*
X00154475Y00302325D01*
X00155998Y00304309D01*
X00156955Y00306620D01*
X00157282Y00309100D01*
X00156955Y00311580D01*
X00155998Y00313891D01*
X00154475Y00315875D01*
X00152491Y00317398D01*
X00150180Y00318356D01*
X00147700Y00318682D01*
D02*
G37*
G36*
X00117300Y00329500D02*
X00113504D01*
X00113530Y00329437D01*
X00115139Y00327339D01*
X00117237Y00325730D01*
X00117300Y00325704D01*
Y00329500D01*
D02*
G37*
G36*
X00122300Y00318682D02*
X00119820Y00318356D01*
X00117509Y00317398D01*
X00115525Y00315875D01*
X00114002Y00313891D01*
X00113045Y00311580D01*
X00112718Y00309100D01*
X00113045Y00306620D01*
X00114002Y00304309D01*
X00115240Y00302696D01*
Y00290104D01*
X00114002Y00288491D01*
X00113045Y00286180D01*
X00112718Y00283700D01*
X00113045Y00281220D01*
X00114002Y00278909D01*
X00115525Y00276925D01*
X00117509Y00275402D01*
X00119820Y00274445D01*
X00122300Y00274118D01*
X00124780Y00274445D01*
X00127091Y00275402D01*
X00129075Y00276925D01*
X00130598Y00278909D01*
X00131556Y00281220D01*
X00131882Y00283700D01*
X00131556Y00286180D01*
X00130598Y00288491D01*
X00129360Y00290104D01*
Y00302696D01*
X00130598Y00304309D01*
X00131556Y00306620D01*
X00131882Y00309100D01*
X00131556Y00311580D01*
X00130598Y00313891D01*
X00129075Y00315875D01*
X00127091Y00317398D01*
X00124780Y00318356D01*
X00122300Y00318682D01*
D02*
G37*
G36*
X00223190Y00293402D02*
X00222279Y00293282D01*
X00147700D01*
X00147077Y00293200D01*
X00138200D01*
Y00284323D01*
X00138118Y00283700D01*
X00138200Y00283077D01*
Y00274200D01*
X00147077D01*
X00147700Y00274118D01*
X00223070D01*
X00225550Y00274445D01*
X00227861Y00275402D01*
X00229846Y00276925D01*
X00229965Y00277045D01*
X00231488Y00279029D01*
X00232446Y00281340D01*
X00232772Y00283820D01*
X00232446Y00286300D01*
X00231488Y00288611D01*
X00229965Y00290595D01*
X00227981Y00292118D01*
X00225670Y00293076D01*
X00223190Y00293402D01*
D02*
G37*
G36*
X00324070Y00394390D02*
X00321030D01*
Y00388350D01*
X00324070D01*
Y00394390D01*
D02*
G37*
G36*
X00337110D02*
X00334070D01*
Y00388350D01*
X00337110D01*
Y00394390D01*
D02*
G37*
G36*
X00324070Y00385030D02*
X00321030D01*
Y00378990D01*
X00324070D01*
Y00385030D01*
D02*
G37*
G36*
X00337110D02*
X00334070D01*
Y00378990D01*
X00337110D01*
Y00385030D01*
D02*
G37*
G36*
X00592500Y00395000D02*
X00588704D01*
X00588730Y00394937D01*
X00590339Y00392839D01*
X00592437Y00391230D01*
X00592500Y00391204D01*
Y00395000D01*
D02*
G37*
G36*
X00606296D02*
X00602500D01*
Y00391204D01*
X00602563Y00391230D01*
X00604661Y00392839D01*
X00606270Y00394937D01*
X00606296Y00395000D01*
D02*
G37*
G36*
X00142700Y00394096D02*
X00142637Y00394070D01*
X00140539Y00392461D01*
X00138930Y00390363D01*
X00138904Y00390300D01*
X00142700D01*
Y00394096D01*
D02*
G37*
G36*
X00152700D02*
Y00390300D01*
X00156496D01*
X00156470Y00390363D01*
X00154861Y00392461D01*
X00152763Y00394070D01*
X00152700Y00394096D01*
D02*
G37*
G36*
X00411080Y00382471D02*
Y00377720D01*
X00415831D01*
X00415620Y00378228D01*
X00413870Y00380510D01*
X00411588Y00382260D01*
X00411080Y00382471D01*
D02*
G37*
G36*
X00431480Y00383192D02*
X00428770Y00382835D01*
X00426244Y00381789D01*
X00424076Y00380125D01*
X00422411Y00377956D01*
X00421365Y00375430D01*
X00421008Y00372720D01*
X00421365Y00370010D01*
X00422411Y00367484D01*
X00424076Y00365316D01*
X00426244Y00363651D01*
X00428770Y00362605D01*
X00431480Y00362248D01*
X00434190Y00362605D01*
X00436716Y00363651D01*
X00438885Y00365316D01*
X00440549Y00367484D01*
X00441595Y00370010D01*
X00441952Y00372720D01*
X00441595Y00375430D01*
X00440549Y00377956D01*
X00438885Y00380125D01*
X00436716Y00381789D01*
X00434190Y00382835D01*
X00431480Y00383192D01*
D02*
G37*
G36*
X00324070Y00368990D02*
X00321030D01*
Y00362950D01*
X00324070D01*
Y00368990D01*
D02*
G37*
G36*
X00413780Y00357071D02*
X00413272Y00356860D01*
X00410990Y00355110D01*
X00409240Y00352828D01*
X00409029Y00352320D01*
X00413780D01*
Y00357071D01*
D02*
G37*
G36*
X00423780D02*
Y00352320D01*
X00428531D01*
X00428320Y00352828D01*
X00426570Y00355110D01*
X00424288Y00356860D01*
X00423780Y00357071D01*
D02*
G37*
G36*
X00415831Y00367720D02*
X00411080D01*
Y00362969D01*
X00411588Y00363180D01*
X00413870Y00364930D01*
X00415620Y00367212D01*
X00415831Y00367720D01*
D02*
G37*
G36*
X00401080Y00382471D02*
X00400572Y00382260D01*
X00398290Y00380510D01*
X00396540Y00378228D01*
X00396329Y00377720D01*
X00401080D01*
Y00382471D01*
D02*
G37*
G36*
X00337110Y00368990D02*
X00334070D01*
Y00362950D01*
X00337110D01*
Y00368990D01*
D02*
G37*
G36*
X00401080Y00367720D02*
X00396329D01*
X00396540Y00367212D01*
X00398290Y00364930D01*
X00400572Y00363180D01*
X00401080Y00362969D01*
Y00367720D01*
D02*
G37*
G36*
X00147700Y00521882D02*
X00145220Y00521555D01*
X00142909Y00520598D01*
X00140925Y00519076D01*
X00139402Y00517091D01*
X00138445Y00514780D01*
X00138118Y00512300D01*
X00138445Y00509820D01*
X00139402Y00507509D01*
X00140925Y00505525D01*
X00142909Y00504002D01*
X00145220Y00503045D01*
X00147700Y00502718D01*
X00150180Y00503045D01*
X00152491Y00504002D01*
X00154475Y00505525D01*
X00155998Y00507509D01*
X00156955Y00509820D01*
X00157282Y00512300D01*
X00156955Y00514780D01*
X00155998Y00517091D01*
X00154475Y00519076D01*
X00152491Y00520598D01*
X00150180Y00521555D01*
X00147700Y00521882D01*
D02*
G37*
G36*
X00156496Y00583500D02*
X00152700D01*
Y00579704D01*
X00152763Y00579730D01*
X00154861Y00581339D01*
X00156470Y00583437D01*
X00156496Y00583500D01*
D02*
G37*
G36*
X00142700D02*
X00138904D01*
X00138930Y00583437D01*
X00140539Y00581339D01*
X00142637Y00579730D01*
X00142700Y00579704D01*
Y00583500D01*
D02*
G37*
G36*
X00122300Y00598082D02*
X00119820Y00597756D01*
X00117509Y00596798D01*
X00115525Y00595275D01*
X00114002Y00593291D01*
X00113045Y00590980D01*
X00112718Y00588500D01*
X00113045Y00586020D01*
X00114002Y00583709D01*
X00115525Y00581725D01*
X00117509Y00580202D01*
X00119820Y00579245D01*
X00122300Y00578918D01*
X00124780Y00579245D01*
X00127091Y00580202D01*
X00129075Y00581725D01*
X00130598Y00583709D01*
X00131556Y00586020D01*
X00131882Y00588500D01*
X00131556Y00590980D01*
X00130598Y00593291D01*
X00129075Y00595275D01*
X00127091Y00596798D01*
X00124780Y00597756D01*
X00122300Y00598082D01*
D02*
G37*
G36*
X00142700Y00597296D02*
X00142637Y00597270D01*
X00140539Y00595661D01*
X00138930Y00593563D01*
X00138904Y00593500D01*
X00142700D01*
Y00597296D01*
D02*
G37*
G36*
X00147700Y00623482D02*
X00145220Y00623156D01*
X00142909Y00622198D01*
X00140925Y00620676D01*
X00139402Y00618691D01*
X00138445Y00616380D01*
X00138118Y00613900D01*
X00138445Y00611420D01*
X00139402Y00609109D01*
X00140925Y00607125D01*
X00142909Y00605602D01*
X00145220Y00604645D01*
X00147700Y00604318D01*
X00150180Y00604645D01*
X00152491Y00605602D01*
X00154475Y00607125D01*
X00155998Y00609109D01*
X00156955Y00611420D01*
X00157282Y00613900D01*
X00156955Y00616380D01*
X00155998Y00618691D01*
X00154475Y00620676D01*
X00152491Y00622198D01*
X00150180Y00623156D01*
X00147700Y00623482D01*
D02*
G37*
G36*
X00122300D02*
X00119820Y00623156D01*
X00117509Y00622198D01*
X00115525Y00620676D01*
X00114002Y00618691D01*
X00113045Y00616380D01*
X00112718Y00613900D01*
X00113045Y00611420D01*
X00114002Y00609109D01*
X00115525Y00607125D01*
X00117509Y00605602D01*
X00119820Y00604645D01*
X00122300Y00604318D01*
X00124780Y00604645D01*
X00127091Y00605602D01*
X00129075Y00607125D01*
X00130598Y00609109D01*
X00131556Y00611420D01*
X00131882Y00613900D01*
X00131556Y00616380D01*
X00130598Y00618691D01*
X00129075Y00620676D01*
X00127091Y00622198D01*
X00124780Y00623156D01*
X00122300Y00623482D01*
D02*
G37*
G36*
X00152700Y00597296D02*
Y00593500D01*
X00156496D01*
X00156470Y00593563D01*
X00154861Y00595661D01*
X00152763Y00597270D01*
X00152700Y00597296D01*
D02*
G37*
G36*
X00142700Y00775096D02*
X00142637Y00775070D01*
X00140539Y00773461D01*
X00138930Y00771363D01*
X00138904Y00771300D01*
X00142700D01*
Y00775096D01*
D02*
G37*
G36*
X00152700D02*
Y00771300D01*
X00156496D01*
X00156470Y00771363D01*
X00154861Y00773461D01*
X00152763Y00775070D01*
X00152700Y00775096D01*
D02*
G37*
G36*
X00135000Y00830826D02*
X00131912Y00830522D01*
X00128944Y00829622D01*
X00126207Y00828159D01*
X00123809Y00826191D01*
X00121841Y00823793D01*
X00120379Y00821056D01*
X00119478Y00818087D01*
X00119174Y00815000D01*
X00119478Y00811913D01*
X00120379Y00808944D01*
X00121841Y00806207D01*
X00123809Y00803809D01*
X00126207Y00801841D01*
X00128944Y00800378D01*
X00131912Y00799478D01*
X00135000Y00799174D01*
X00138088Y00799478D01*
X00141056Y00800378D01*
X00143793Y00801841D01*
X00146191Y00803809D01*
X00148159Y00806207D01*
X00149621Y00808944D01*
X00150522Y00811913D01*
X00150826Y00815000D01*
X00150522Y00818087D01*
X00149621Y00821056D01*
X00148159Y00823793D01*
X00146191Y00826191D01*
X00143793Y00828159D01*
X00141056Y00829622D01*
X00138088Y00830522D01*
X00135000Y00830826D01*
D02*
G37*
G36*
X00156496Y00761300D02*
X00152700D01*
Y00757504D01*
X00152763Y00757530D01*
X00154861Y00759139D01*
X00156470Y00761237D01*
X00156496Y00761300D01*
D02*
G37*
G36*
X00147700Y00750482D02*
X00145220Y00750155D01*
X00142909Y00749198D01*
X00140925Y00747675D01*
X00139402Y00745691D01*
X00138445Y00743380D01*
X00138118Y00740900D01*
X00138445Y00738420D01*
X00139402Y00736109D01*
X00140925Y00734125D01*
X00142909Y00732602D01*
X00145220Y00731645D01*
X00147700Y00731318D01*
X00150180Y00731645D01*
X00152491Y00732602D01*
X00154475Y00734125D01*
X00155998Y00736109D01*
X00156955Y00738420D01*
X00157282Y00740900D01*
X00156955Y00743380D01*
X00155998Y00745691D01*
X00154475Y00747675D01*
X00152491Y00749198D01*
X00150180Y00750155D01*
X00147700Y00750482D01*
D02*
G37*
G36*
X00122300Y00775882D02*
X00119820Y00775555D01*
X00117509Y00774598D01*
X00115525Y00773075D01*
X00114002Y00771091D01*
X00113045Y00768780D01*
X00112718Y00766300D01*
X00113045Y00763820D01*
X00114002Y00761509D01*
X00115525Y00759525D01*
X00117509Y00758002D01*
X00119820Y00757045D01*
X00122300Y00756718D01*
X00124780Y00757045D01*
X00127091Y00758002D01*
X00129075Y00759525D01*
X00130598Y00761509D01*
X00131556Y00763820D01*
X00131882Y00766300D01*
X00131556Y00768780D01*
X00130598Y00771091D01*
X00129075Y00773075D01*
X00127091Y00774598D01*
X00124780Y00775555D01*
X00122300Y00775882D01*
D02*
G37*
G36*
X00142700Y00761300D02*
X00138904D01*
X00138930Y00761237D01*
X00140539Y00759139D01*
X00142637Y00757530D01*
X00142700Y00757504D01*
Y00761300D01*
D02*
G37*
G36*
X00122300Y00750482D02*
X00119820Y00750155D01*
X00117509Y00749198D01*
X00115525Y00747675D01*
X00114002Y00745691D01*
X00113045Y00743380D01*
X00112718Y00740900D01*
X00113045Y00738420D01*
X00114002Y00736109D01*
X00115525Y00734125D01*
X00117509Y00732602D01*
X00119820Y00731645D01*
X00122300Y00731318D01*
X00124780Y00731645D01*
X00127091Y00732602D01*
X00129075Y00734125D01*
X00130598Y00736109D01*
X00131556Y00738420D01*
X00131882Y00740900D01*
X00131556Y00743380D01*
X00130598Y00745691D01*
X00129075Y00747675D01*
X00127091Y00749198D01*
X00124780Y00750155D01*
X00122300Y00750482D01*
D02*
G37*
G36*
X00117300Y00685100D02*
X00113504D01*
X00113530Y00685037D01*
X00115139Y00682939D01*
X00117237Y00681330D01*
X00117300Y00681304D01*
Y00685100D01*
D02*
G37*
G36*
X00147700Y00699682D02*
X00145220Y00699355D01*
X00142909Y00698398D01*
X00140925Y00696876D01*
X00139402Y00694891D01*
X00138445Y00692580D01*
X00138118Y00690100D01*
X00138445Y00687620D01*
X00139402Y00685309D01*
X00140925Y00683325D01*
X00142909Y00681802D01*
X00145220Y00680845D01*
X00147700Y00680518D01*
X00150180Y00680845D01*
X00152491Y00681802D01*
X00154475Y00683325D01*
X00155998Y00685309D01*
X00156955Y00687620D01*
X00157282Y00690100D01*
X00156955Y00692580D01*
X00155998Y00694891D01*
X00154475Y00696876D01*
X00152491Y00698398D01*
X00150180Y00699355D01*
X00147700Y00699682D01*
D02*
G37*
G36*
Y00674282D02*
X00145220Y00673956D01*
X00142909Y00672998D01*
X00140925Y00671476D01*
X00139402Y00669491D01*
X00138445Y00667180D01*
X00138118Y00664700D01*
X00138445Y00662220D01*
X00139402Y00659909D01*
X00140925Y00657925D01*
X00142909Y00656402D01*
X00145220Y00655445D01*
X00147700Y00655118D01*
X00150180Y00655445D01*
X00152491Y00656402D01*
X00154475Y00657925D01*
X00155998Y00659909D01*
X00156955Y00662220D01*
X00157282Y00664700D01*
X00156955Y00667180D01*
X00155998Y00669491D01*
X00154475Y00671476D01*
X00152491Y00672998D01*
X00150180Y00673956D01*
X00147700Y00674282D01*
D02*
G37*
G36*
X00131096Y00685100D02*
X00127300D01*
Y00681304D01*
X00127363Y00681330D01*
X00129461Y00682939D01*
X00131070Y00685037D01*
X00131096Y00685100D01*
D02*
G37*
G36*
X00122300Y00725082D02*
X00119820Y00724755D01*
X00117509Y00723798D01*
X00115525Y00722275D01*
X00114002Y00720291D01*
X00113045Y00717980D01*
X00112718Y00715500D01*
X00113045Y00713020D01*
X00114002Y00710709D01*
X00115525Y00708725D01*
X00117509Y00707202D01*
X00119820Y00706245D01*
X00122300Y00705918D01*
X00124780Y00706245D01*
X00127091Y00707202D01*
X00129075Y00708725D01*
X00130598Y00710709D01*
X00131556Y00713020D01*
X00131882Y00715500D01*
X00131556Y00717980D01*
X00130598Y00720291D01*
X00129075Y00722275D01*
X00127091Y00723798D01*
X00124780Y00724755D01*
X00122300Y00725082D01*
D02*
G37*
G36*
X00127300Y00698896D02*
Y00695100D01*
X00131096D01*
X00131070Y00695163D01*
X00129461Y00697261D01*
X00127363Y00698870D01*
X00127300Y00698896D01*
D02*
G37*
G36*
X00117300D02*
X00117237Y00698870D01*
X00115139Y00697261D01*
X00113530Y00695163D01*
X00113504Y00695100D01*
X00117300D01*
Y00698896D01*
D02*
G37*
G36*
Y00634300D02*
X00113504D01*
X00113530Y00634237D01*
X00115139Y00632139D01*
X00117237Y00630530D01*
X00117300Y00630504D01*
Y00634300D01*
D02*
G37*
G36*
X00147700Y00648882D02*
X00145220Y00648556D01*
X00142909Y00647598D01*
X00140925Y00646076D01*
X00139402Y00644091D01*
X00138445Y00641780D01*
X00138118Y00639300D01*
X00138445Y00636820D01*
X00139402Y00634509D01*
X00140925Y00632525D01*
X00142909Y00631002D01*
X00145220Y00630045D01*
X00147700Y00629718D01*
X00150180Y00630045D01*
X00152491Y00631002D01*
X00154475Y00632525D01*
X00155998Y00634509D01*
X00156955Y00636820D01*
X00157282Y00639300D01*
X00156955Y00641780D01*
X00155998Y00644091D01*
X00154475Y00646076D01*
X00152491Y00647598D01*
X00150180Y00648556D01*
X00147700Y00648882D01*
D02*
G37*
G36*
Y00725082D02*
X00145220Y00724755D01*
X00142909Y00723798D01*
X00140925Y00722275D01*
X00139402Y00720291D01*
X00138445Y00717980D01*
X00138118Y00715500D01*
X00138445Y00713020D01*
X00139402Y00710709D01*
X00140925Y00708725D01*
X00142909Y00707202D01*
X00145220Y00706245D01*
X00147700Y00705918D01*
X00150180Y00706245D01*
X00152491Y00707202D01*
X00154475Y00708725D01*
X00155998Y00710709D01*
X00156955Y00713020D01*
X00157282Y00715500D01*
X00156955Y00717980D01*
X00155998Y00720291D01*
X00154475Y00722275D01*
X00152491Y00723798D01*
X00150180Y00724755D01*
X00147700Y00725082D01*
D02*
G37*
G36*
X00131096Y00634300D02*
X00127300D01*
Y00630504D01*
X00127363Y00630530D01*
X00129461Y00632139D01*
X00131070Y00634237D01*
X00131096Y00634300D01*
D02*
G37*
G36*
X00122300Y00674282D02*
X00119820Y00673956D01*
X00117509Y00672998D01*
X00115525Y00671476D01*
X00114002Y00669491D01*
X00113045Y00667180D01*
X00112718Y00664700D01*
X00113045Y00662220D01*
X00114002Y00659909D01*
X00115525Y00657925D01*
X00117509Y00656402D01*
X00119820Y00655445D01*
X00122300Y00655118D01*
X00124780Y00655445D01*
X00127091Y00656402D01*
X00129075Y00657925D01*
X00130598Y00659909D01*
X00131556Y00662220D01*
X00131882Y00664700D01*
X00131556Y00667180D01*
X00130598Y00669491D01*
X00129075Y00671476D01*
X00127091Y00672998D01*
X00124780Y00673956D01*
X00122300Y00674282D01*
D02*
G37*
G36*
X00127300Y00648096D02*
Y00644300D01*
X00131096D01*
X00131070Y00644363D01*
X00129461Y00646461D01*
X00127363Y00648070D01*
X00127300Y00648096D01*
D02*
G37*
G36*
X00117300D02*
X00117237Y00648070D01*
X00115139Y00646461D01*
X00113530Y00644363D01*
X00113504Y00644300D01*
X00117300D01*
Y00648096D01*
D02*
G37*
G36*
X00381550Y00540910D02*
X00375510D01*
Y00537870D01*
X00381550D01*
Y00540910D01*
D02*
G37*
G36*
X00365510D02*
X00359470D01*
Y00537870D01*
X00365510D01*
Y00540910D01*
D02*
G37*
G36*
X00147700Y00547282D02*
X00145220Y00546955D01*
X00142909Y00545998D01*
X00140925Y00544476D01*
X00139402Y00542491D01*
X00138445Y00540180D01*
X00138118Y00537700D01*
X00138445Y00535220D01*
X00139402Y00532909D01*
X00140925Y00530925D01*
X00142909Y00529402D01*
X00145220Y00528445D01*
X00147700Y00528118D01*
X00150180Y00528445D01*
X00152491Y00529402D01*
X00154475Y00530925D01*
X00155998Y00532909D01*
X00156955Y00535220D01*
X00157282Y00537700D01*
X00156955Y00540180D01*
X00155998Y00542491D01*
X00154475Y00544476D01*
X00152491Y00545998D01*
X00150180Y00546955D01*
X00147700Y00547282D01*
D02*
G37*
G36*
X00414617Y00540910D02*
X00408577D01*
Y00537870D01*
X00414617D01*
Y00540910D01*
D02*
G37*
G36*
X00479763D02*
X00473723D01*
Y00537870D01*
X00479763D01*
Y00540910D01*
D02*
G37*
G36*
X00463723D02*
X00457683D01*
Y00537870D01*
X00463723D01*
Y00540910D01*
D02*
G37*
G36*
X00430657D02*
X00424617D01*
Y00537870D01*
X00430657D01*
Y00540910D01*
D02*
G37*
G36*
X00239780Y00528380D02*
X00237240D01*
Y00515840D01*
X00239780D01*
Y00528380D01*
D02*
G37*
G36*
X00131096Y00507300D02*
X00127300D01*
Y00503504D01*
X00127363Y00503530D01*
X00129461Y00505139D01*
X00131070Y00507237D01*
X00131096Y00507300D01*
D02*
G37*
G36*
X00117300D02*
X00113504D01*
X00113530Y00507237D01*
X00115139Y00505139D01*
X00117237Y00503530D01*
X00117300Y00503504D01*
Y00507300D01*
D02*
G37*
G36*
X00252320Y00528380D02*
X00249780D01*
Y00515840D01*
X00252320D01*
Y00528380D01*
D02*
G37*
G36*
X00122300Y00547282D02*
X00119820Y00546955D01*
X00117509Y00545998D01*
X00115525Y00544476D01*
X00114002Y00542491D01*
X00113045Y00540180D01*
X00112718Y00537700D01*
X00113045Y00535220D01*
X00114002Y00532909D01*
X00115525Y00530925D01*
X00117509Y00529402D01*
X00119820Y00528445D01*
X00122300Y00528118D01*
X00124780Y00528445D01*
X00127091Y00529402D01*
X00129075Y00530925D01*
X00130598Y00532909D01*
X00131556Y00535220D01*
X00131882Y00537700D01*
X00131556Y00540180D01*
X00130598Y00542491D01*
X00129075Y00544476D01*
X00127091Y00545998D01*
X00124780Y00546955D01*
X00122300Y00547282D01*
D02*
G37*
G36*
X00127300Y00521096D02*
Y00517300D01*
X00131096D01*
X00131070Y00517363D01*
X00129461Y00519461D01*
X00127363Y00521070D01*
X00127300Y00521096D01*
D02*
G37*
G36*
X00117300D02*
X00117237Y00521070D01*
X00115139Y00519461D01*
X00113530Y00517363D01*
X00113504Y00517300D01*
X00117300D01*
Y00521096D01*
D02*
G37*
G36*
X00512830Y00540910D02*
X00506790D01*
Y00537870D01*
X00512830D01*
Y00540910D01*
D02*
G37*
G36*
X00122300Y00572682D02*
X00119820Y00572355D01*
X00117509Y00571398D01*
X00115525Y00569875D01*
X00114002Y00567891D01*
X00113045Y00565580D01*
X00112718Y00563100D01*
X00113045Y00560620D01*
X00114002Y00558309D01*
X00115525Y00556325D01*
X00117509Y00554802D01*
X00119820Y00553845D01*
X00122300Y00553518D01*
X00124780Y00553845D01*
X00127091Y00554802D01*
X00129075Y00556325D01*
X00130598Y00558309D01*
X00131556Y00560620D01*
X00131882Y00563100D01*
X00131556Y00565580D01*
X00130598Y00567891D01*
X00129075Y00569875D01*
X00127091Y00571398D01*
X00124780Y00572355D01*
X00122300Y00572682D01*
D02*
G37*
G36*
X00528870Y00553950D02*
X00522830D01*
Y00550910D01*
X00528870D01*
Y00553950D01*
D02*
G37*
G36*
X00430657D02*
X00424617D01*
Y00550910D01*
X00430657D01*
Y00553950D01*
D02*
G37*
G36*
X00625000Y00830826D02*
X00621912Y00830522D01*
X00618944Y00829622D01*
X00616207Y00828159D01*
X00613809Y00826191D01*
X00611841Y00823793D01*
X00610378Y00821056D01*
X00609478Y00818087D01*
X00609174Y00815000D01*
X00609478Y00811913D01*
X00610378Y00808944D01*
X00611841Y00806207D01*
X00613809Y00803809D01*
X00616207Y00801841D01*
X00618944Y00800378D01*
X00621912Y00799478D01*
X00625000Y00799174D01*
X00628088Y00799478D01*
X00631056Y00800378D01*
X00633793Y00801841D01*
X00636191Y00803809D01*
X00638159Y00806207D01*
X00639622Y00808944D01*
X00640522Y00811913D01*
X00640826Y00815000D01*
X00640522Y00818087D01*
X00639622Y00821056D01*
X00638159Y00823793D01*
X00636191Y00826191D01*
X00633793Y00828159D01*
X00631056Y00829622D01*
X00628088Y00830522D01*
X00625000Y00830826D01*
D02*
G37*
G36*
X00548310Y00783699D02*
X00166040D01*
X00165260Y00783544D01*
X00164598Y00783102D01*
X00164156Y00782440D01*
X00164001Y00781660D01*
Y00567419D01*
X00164156Y00566639D01*
X00164598Y00565977D01*
X00165260Y00565535D01*
X00165260Y00565535D01*
X00166433Y00565049D01*
X00166433Y00565049D01*
X00167213Y00564894D01*
X00167699Y00564991D01*
X00215390D01*
X00215930Y00564548D01*
Y00562840D01*
X00260598D01*
Y00510840D01*
Y00492259D01*
X00243085Y00474745D01*
X00241562Y00472761D01*
X00240604Y00470450D01*
X00240278Y00467970D01*
X00240604Y00465490D01*
X00241562Y00463179D01*
X00243085Y00461195D01*
X00245069Y00459672D01*
X00247380Y00458715D01*
X00249860Y00458388D01*
X00252340Y00458715D01*
X00254651Y00459672D01*
X00256635Y00461195D01*
X00276956Y00481515D01*
X00278478Y00483499D01*
X00279436Y00485810D01*
X00279762Y00488290D01*
Y00510840D01*
Y00562840D01*
X00324430D01*
Y00564548D01*
X00324970Y00564991D01*
X00359470D01*
X00360250Y00565146D01*
X00360645Y00565410D01*
X00380374D01*
X00380770Y00565146D01*
X00381550Y00564991D01*
X00408577D01*
X00409357Y00565146D01*
X00409752Y00565410D01*
X00429481D01*
X00429876Y00565146D01*
X00430657Y00564991D01*
X00457683D01*
X00458464Y00565146D01*
X00458859Y00565410D01*
X00478588D01*
X00478983Y00565146D01*
X00479763Y00564991D01*
X00506790D01*
X00507570Y00565146D01*
X00507966Y00565410D01*
X00527695D01*
X00528090Y00565146D01*
X00528870Y00564991D01*
X00630860D01*
X00631640Y00565146D01*
X00632302Y00565588D01*
X00632744Y00566250D01*
X00632899Y00567030D01*
Y00699110D01*
X00632744Y00699890D01*
X00632302Y00700552D01*
X00549752Y00783102D01*
X00549090Y00783544D01*
X00548310Y00783699D01*
D02*
G37*
G36*
X00147700Y00572682D02*
X00145220Y00572355D01*
X00142909Y00571398D01*
X00140925Y00569875D01*
X00139402Y00567891D01*
X00138445Y00565580D01*
X00138118Y00563100D01*
X00138445Y00560620D01*
X00139402Y00558309D01*
X00140925Y00556325D01*
X00142909Y00554802D01*
X00145220Y00553845D01*
X00147700Y00553518D01*
X00150180Y00553845D01*
X00152491Y00554802D01*
X00154475Y00556325D01*
X00155998Y00558309D01*
X00156955Y00560620D01*
X00157282Y00563100D01*
X00156955Y00565580D01*
X00155998Y00567891D01*
X00154475Y00569875D01*
X00152491Y00571398D01*
X00150180Y00572355D01*
X00147700Y00572682D01*
D02*
G37*
G36*
X00381550Y00553950D02*
X00375510D01*
Y00550910D01*
X00381550D01*
Y00553950D01*
D02*
G37*
G36*
X00463723D02*
X00457683D01*
Y00550910D01*
X00463723D01*
Y00553950D01*
D02*
G37*
G36*
X00512830D02*
X00506790D01*
Y00550910D01*
X00512830D01*
Y00553950D01*
D02*
G37*
G36*
X00528870Y00540910D02*
X00522830D01*
Y00537870D01*
X00528870D01*
Y00540910D01*
D02*
G37*
G36*
X00479763Y00553950D02*
X00473723D01*
Y00550910D01*
X00479763D01*
Y00553950D01*
D02*
G37*
G36*
X00414617D02*
X00408577D01*
Y00550910D01*
X00414617D01*
Y00553950D01*
D02*
G37*
G36*
X00365510D02*
X00359470D01*
Y00550910D01*
X00365510D01*
Y00553950D01*
D02*
G37*
%LPD*%
G36*
X00630860Y00699110D02*
Y00567030D01*
X00528870D01*
Y00567910D01*
X00517830D01*
X00506790D01*
Y00567030D01*
X00479763D01*
Y00567910D01*
X00468723D01*
X00457683D01*
Y00567030D01*
X00430657D01*
Y00567910D01*
X00419617D01*
X00408577D01*
Y00567030D01*
X00381550D01*
Y00567910D01*
X00370510D01*
X00359470D01*
Y00567030D01*
X00324970D01*
Y00600340D01*
X00270180D01*
X00215390D01*
Y00567030D01*
X00167310D01*
X00167213Y00566933D01*
X00166040Y00567419D01*
Y00781660D01*
X00548310D01*
X00630860Y00699110D01*
D02*
G37*
%LPC*%
G36*
X00414617Y00580950D02*
X00408577D01*
Y00577910D01*
X00414617D01*
Y00580950D01*
D02*
G37*
G36*
X00479763D02*
X00473723D01*
Y00577910D01*
X00479763D01*
Y00580950D01*
D02*
G37*
G36*
X00365510D02*
X00359470D01*
Y00577910D01*
X00365510D01*
Y00580950D01*
D02*
G37*
G36*
X00512830D02*
X00506790D01*
Y00577910D01*
X00512830D01*
Y00580950D01*
D02*
G37*
G36*
X00463723D02*
X00457683D01*
Y00577910D01*
X00463723D01*
Y00580950D01*
D02*
G37*
G36*
X00265180Y00648380D02*
X00215390D01*
Y00610340D01*
X00265180D01*
Y00648380D01*
D02*
G37*
G36*
X00324970D02*
X00275180D01*
Y00610340D01*
X00324970D01*
Y00648380D01*
D02*
G37*
G36*
X00528870Y00580950D02*
X00522830D01*
Y00577910D01*
X00528870D01*
Y00580950D01*
D02*
G37*
G36*
X00381550D02*
X00375510D01*
Y00577910D01*
X00381550D01*
Y00580950D01*
D02*
G37*
G36*
X00430657D02*
X00424617D01*
Y00577910D01*
X00430657D01*
Y00580950D01*
D02*
G37*
%LPD*%
D10*
X00356070Y00399390D02*
D03*
X00329070D02*
D03*
X00494170Y00408280D02*
D03*
X00521170D02*
D03*
X00356070Y00373990D02*
D03*
X00329070D02*
D03*
X00494170Y00431140D02*
D03*
X00521170D02*
D03*
X00438620Y00497180D02*
D03*
X00411620D02*
D03*
X00521170Y00457175D02*
D03*
X00494170D02*
D03*
Y00483210D02*
D03*
X00521170D02*
D03*
D11*
X00517830Y00572910D02*
D03*
Y00545910D02*
D03*
X00468723Y00572910D02*
D03*
Y00545910D02*
D03*
X00419617Y00572910D02*
D03*
Y00545910D02*
D03*
X00370510Y00572910D02*
D03*
Y00545910D02*
D03*
X00338760Y00427800D02*
D03*
Y00454800D02*
D03*
D12*
X00270180Y00605340D02*
D03*
D13*
X00295580Y00510840D02*
D03*
X00270180D02*
D03*
X00244780D02*
D03*
D14*
X00399080Y00470510D02*
D03*
Y00457810D02*
D03*
Y00445110D02*
D03*
Y00432410D02*
D03*
X00451160Y00470510D02*
D03*
Y00457810D02*
D03*
Y00445110D02*
D03*
Y00432410D02*
D03*
D15*
X00391940Y00487020D02*
D03*
X00371940Y00477520D02*
D03*
Y00496520D02*
D03*
D16*
X00430200Y00455270D02*
X00432740Y00457810D01*
X00451160D01*
Y00445110D02*
X00468300D01*
X00468640Y00444770D01*
X00520710D01*
X00521640Y00443840D01*
X00521170Y00431140D02*
X00521640Y00431610D01*
X00521170Y00457175D02*
X00521640Y00456705D01*
Y00431610D02*
Y00443840D01*
Y00456705D01*
X00451160Y00457810D02*
X00493535D01*
X00494170Y00457175D01*
Y00483210D01*
X00430200Y00424800D02*
X00482280Y00372720D01*
X00430200Y00424800D02*
Y00455270D01*
X00468300Y00413360D02*
Y00445110D01*
X00494980Y00347320D02*
X00501320Y00353660D01*
Y00380340D01*
X00468300Y00413360D02*
X00501320Y00380340D01*
D17*
X00122300Y00283700D02*
Y00309100D01*
X00494170Y00408280D02*
Y00431140D01*
X00355720Y00365450D02*
X00356070Y00365100D01*
Y00313500D02*
Y00365100D01*
Y00313500D02*
X00359080Y00310490D01*
X00355720Y00365450D02*
Y00391850D01*
X00526720Y00320650D02*
X00533540Y00327470D01*
Y00362090D01*
X00494170Y00401460D02*
Y00408280D01*
Y00401460D02*
X00533540Y00362090D01*
D18*
X00122300Y00359900D02*
X00134880Y00347320D01*
X00168580D01*
X00200330Y00379070D01*
Y00414630D01*
X00207950Y00422250D01*
X00122300Y00385300D02*
X00134880Y00372720D01*
X00180670D01*
X00193250Y00385300D01*
Y00417563D01*
X00205017Y00429330D01*
X00460680Y00497180D02*
X00473380Y00484480D01*
Y00474320D02*
Y00484480D01*
X00469570Y00470510D02*
X00473380Y00474320D01*
X00451160Y00470510D02*
X00469570D01*
X00399080Y00457810D02*
X00417500D01*
X00420040Y00460350D01*
Y00474320D01*
X00411620Y00482740D02*
X00420040Y00474320D01*
X00381940Y00445110D02*
X00399080D01*
X00379400Y00447650D02*
X00381940Y00445110D01*
X00379400Y00447650D02*
Y00455270D01*
X00381940Y00457810D01*
X00399080D01*
X00384480Y00470510D02*
X00399080D01*
X00354000Y00440030D02*
X00384480Y00470510D01*
X00205017Y00429330D02*
X00306470D01*
X00317170Y00440030D01*
X00338760Y00454800D02*
Y00475590D01*
X00359690Y00496520D01*
X00371940D01*
X00438620Y00497180D02*
X00460680D01*
X00317170Y00440030D02*
X00354000D01*
X00367970Y00432410D02*
X00399080D01*
X00357810Y00422250D02*
X00367970Y00432410D01*
X00207950Y00422250D02*
X00357810D01*
X00411620Y00482740D02*
Y00487020D01*
Y00497180D01*
X00391940Y00487020D02*
X00411620D01*
D19*
X00272720Y00280010D02*
X00296850D01*
X00312090Y00264770D01*
X00347650D01*
X00359080Y00276200D01*
Y00310490D02*
X00369240Y00320650D01*
X00319720Y00310010D02*
X00358600D01*
X00359080Y00310490D01*
X00270180Y00510840D02*
Y00605340D01*
Y00488290D02*
Y00510840D01*
X00249860Y00467970D02*
X00270180Y00488290D01*
X00359080Y00276200D02*
Y00288900D01*
Y00300330D01*
Y00310490D01*
X00295580Y00466700D02*
Y00476860D01*
Y00487020D01*
Y00510840D01*
X00581470Y00350000D02*
X00597500D01*
X00456870Y00320650D02*
X00456880Y00320660D01*
X00456870Y00320650D02*
X00524180D01*
X00526720D02*
X00552120D01*
X00581470Y00350000D01*
X00147700Y00283700D02*
X00223070D01*
X00223190Y00283820D01*
X00456880Y00360020D02*
Y00372720D01*
X00444180Y00347320D02*
X00456880Y00360020D01*
X00441630Y00344770D02*
X00444180Y00347320D01*
X00441630Y00320650D02*
Y00344770D01*
X00369240Y00320650D02*
X00441630D01*
X00456870D01*
D20*
X00135000Y00815000D02*
D03*
X00625000D02*
D03*
X00135000Y00235000D02*
D03*
X00625000D02*
D03*
D21*
X00147700Y00283700D02*
D03*
D22*
Y00309100D02*
D03*
Y00334500D02*
D03*
Y00359900D02*
D03*
Y00385300D02*
D03*
Y00410700D02*
D03*
Y00436100D02*
D03*
Y00461500D02*
D03*
Y00486900D02*
D03*
Y00512300D02*
D03*
X00122300Y00283700D02*
D03*
Y00309100D02*
D03*
Y00334500D02*
D03*
Y00359900D02*
D03*
Y00385300D02*
D03*
Y00410700D02*
D03*
Y00436100D02*
D03*
Y00461500D02*
D03*
Y00486900D02*
D03*
Y00512300D02*
D03*
Y00740900D02*
D03*
Y00715500D02*
D03*
Y00690100D02*
D03*
Y00664700D02*
D03*
Y00639300D02*
D03*
Y00613900D02*
D03*
Y00588500D02*
D03*
Y00563100D02*
D03*
Y00537700D02*
D03*
X00147700Y00740900D02*
D03*
Y00715500D02*
D03*
Y00690100D02*
D03*
Y00664700D02*
D03*
Y00639300D02*
D03*
Y00613900D02*
D03*
Y00588500D02*
D03*
Y00563100D02*
D03*
Y00537700D02*
D03*
Y00766300D02*
D03*
X00122300D02*
D03*
X00597500Y00350000D02*
D03*
Y00400000D02*
D03*
D23*
X00507680Y00283820D02*
D03*
X00393360D02*
D03*
D24*
X00494980Y00347320D02*
D03*
D25*
X00482280Y00372720D02*
D03*
X00469580Y00347320D02*
D03*
X00456880Y00372720D02*
D03*
X00444180Y00347320D02*
D03*
X00431480Y00372720D02*
D03*
X00418780Y00347320D02*
D03*
X00406080Y00372720D02*
D03*
D26*
X00319720Y00310010D02*
D03*
D27*
X00272720Y00280010D02*
D03*
D28*
Y00342010D02*
D03*
D29*
X00257480Y00476860D02*
D03*
X00265100Y00485750D02*
D03*
X00249860Y00467970D02*
D03*
X00359080Y00300330D02*
D03*
Y00288900D02*
D03*
Y00276200D02*
D03*
X00295580Y00487020D02*
D03*
Y00476860D02*
D03*
Y00466700D02*
D03*
X00223190Y00283820D02*
D03*
X00460680Y00497180D02*
D03*
X00450520Y00422250D02*
D03*
X00533070Y00408280D02*
D03*
Y00483210D02*
D03*
X00230810Y00511150D02*
D03*
X00256210D02*
D03*
X00244780Y00488290D02*
D03*
X00369240Y00532740D02*
D03*
X00420040Y00534010D02*
D03*
X00469570D02*
D03*
X00517830Y00532740D02*
D03*
M02*
