G04 Layer_Color=8388736*
%FSAX44Y44*%
%MOMM*%
G71*
G01*
G75*
%ADD37R,1.3032X1.9032*%
%ADD38R,1.9032X1.3032*%
%ADD39R,10.6532X8.3032*%
%ADD40R,1.2032X3.2032*%
%ADD41O,2.1032X0.8032*%
%ADD42R,1.1032X1.0032*%
%ADD43C,1.7272*%
%ADD44R,1.7032X1.7032*%
%ADD45C,1.7032*%
%ADD46C,3.4532*%
%ADD47P,2.0345X8X22.5*%
%ADD48C,1.8796*%
G04:AMPARAMS|DCode=49|XSize=3.7032mm|YSize=1.5032mm|CornerRadius=0.4266mm|HoleSize=0mm|Usage=FLASHONLY|Rotation=270.000|XOffset=0mm|YOffset=0mm|HoleType=Round|Shape=RoundedRectangle|*
%AMROUNDEDRECTD49*
21,1,3.7032,0.6500,0,0,270.0*
21,1,2.8500,1.5032,0,0,270.0*
1,1,0.8532,-0.3250,-1.4250*
1,1,0.8532,-0.3250,1.4250*
1,1,0.8532,0.3250,1.4250*
1,1,0.8532,0.3250,-1.4250*
%
%ADD49ROUNDEDRECTD49*%
G04:AMPARAMS|DCode=50|XSize=3.7032mm|YSize=1.5032mm|CornerRadius=0.4266mm|HoleSize=0mm|Usage=FLASHONLY|Rotation=180.000|XOffset=0mm|YOffset=0mm|HoleType=Round|Shape=RoundedRectangle|*
%AMROUNDEDRECTD50*
21,1,3.7032,0.6500,0,0,180.0*
21,1,2.8500,1.5032,0,0,180.0*
1,1,0.8532,-1.4250,0.3250*
1,1,0.8532,1.4250,0.3250*
1,1,0.8532,1.4250,-0.3250*
1,1,0.8532,-1.4250,-0.3250*
%
%ADD50ROUNDEDRECTD50*%
G04:AMPARAMS|DCode=51|XSize=4.2032mm|YSize=1.5032mm|CornerRadius=0.4266mm|HoleSize=0mm|Usage=FLASHONLY|Rotation=180.000|XOffset=0mm|YOffset=0mm|HoleType=Round|Shape=RoundedRectangle|*
%AMROUNDEDRECTD51*
21,1,4.2032,0.6500,0,0,180.0*
21,1,3.3500,1.5032,0,0,180.0*
1,1,0.8532,-1.6750,0.3250*
1,1,0.8532,1.6750,0.3250*
1,1,0.8532,1.6750,-0.3250*
1,1,0.8532,-1.6750,-0.3250*
%
%ADD51ROUNDEDRECTD51*%
D37*
X00356070Y00399390D02*
D03*
X00329070D02*
D03*
X00494170Y00408280D02*
D03*
X00521170D02*
D03*
X00356070Y00373990D02*
D03*
X00329070D02*
D03*
X00494170Y00431140D02*
D03*
X00521170D02*
D03*
X00438620Y00497180D02*
D03*
X00411620D02*
D03*
X00521170Y00457175D02*
D03*
X00494170D02*
D03*
Y00483210D02*
D03*
X00521170D02*
D03*
D38*
X00517830Y00572910D02*
D03*
Y00545910D02*
D03*
X00468723Y00572910D02*
D03*
Y00545910D02*
D03*
X00419617Y00572910D02*
D03*
Y00545910D02*
D03*
X00370510Y00572910D02*
D03*
Y00545910D02*
D03*
X00338760Y00427800D02*
D03*
Y00454800D02*
D03*
D39*
X00270180Y00605340D02*
D03*
D40*
X00295580Y00510840D02*
D03*
X00270180D02*
D03*
X00244780D02*
D03*
D41*
X00399080Y00470510D02*
D03*
Y00457810D02*
D03*
Y00445110D02*
D03*
Y00432410D02*
D03*
X00451160Y00470510D02*
D03*
Y00457810D02*
D03*
Y00445110D02*
D03*
Y00432410D02*
D03*
D42*
X00391940Y00487020D02*
D03*
X00371940Y00477520D02*
D03*
Y00496520D02*
D03*
D43*
X00135000Y00815000D02*
D03*
X00625000D02*
D03*
X00135000Y00235000D02*
D03*
X00625000D02*
D03*
D44*
X00147700Y00283700D02*
D03*
D45*
Y00309100D02*
D03*
Y00334500D02*
D03*
Y00359900D02*
D03*
Y00385300D02*
D03*
Y00410700D02*
D03*
Y00436100D02*
D03*
Y00461500D02*
D03*
Y00486900D02*
D03*
Y00512300D02*
D03*
X00122300Y00283700D02*
D03*
Y00309100D02*
D03*
Y00334500D02*
D03*
Y00359900D02*
D03*
Y00385300D02*
D03*
Y00410700D02*
D03*
Y00436100D02*
D03*
Y00461500D02*
D03*
Y00486900D02*
D03*
Y00512300D02*
D03*
Y00740900D02*
D03*
Y00715500D02*
D03*
Y00690100D02*
D03*
Y00664700D02*
D03*
Y00639300D02*
D03*
Y00613900D02*
D03*
Y00588500D02*
D03*
Y00563100D02*
D03*
Y00537700D02*
D03*
X00147700Y00740900D02*
D03*
Y00715500D02*
D03*
Y00690100D02*
D03*
Y00664700D02*
D03*
Y00639300D02*
D03*
Y00613900D02*
D03*
Y00588500D02*
D03*
Y00563100D02*
D03*
Y00537700D02*
D03*
Y00766300D02*
D03*
X00122300D02*
D03*
X00597500Y00350000D02*
D03*
Y00400000D02*
D03*
D46*
X00507680Y00283820D02*
D03*
X00393360D02*
D03*
D47*
X00494980Y00347320D02*
D03*
D48*
X00482280Y00372720D02*
D03*
X00469580Y00347320D02*
D03*
X00456880Y00372720D02*
D03*
X00444180Y00347320D02*
D03*
X00431480Y00372720D02*
D03*
X00418780Y00347320D02*
D03*
X00406080Y00372720D02*
D03*
D49*
X00319720Y00310010D02*
D03*
D50*
X00272720Y00280010D02*
D03*
D51*
Y00342010D02*
D03*
M02*
