M48
;Layer_Color=9474304
;FILE_FORMAT=4:4
METRIC
;TYPE=PLATED
T1F00S00C0.3000
T2F00S00C0.8500
T3F00S00C0.9000
T4F00S00C1.1000
;TYPE=NON_PLATED
T5F00S00C4.0000
%
T01
X00177470Y00219050
X00159690Y00283820
X00155880Y00358750
X00256210Y00389230
X00294310Y00386690
X00305740Y00347320
X00138100Y00405740
Y00431140
T02
X00329870Y00246990
Y00272390
Y00348590
T03
X00201600Y00230480
X00227000
X00252400
X00277800
X00228270Y00278740
Y00304140
Y00329540
Y00354940
Y00380340
X00202870
Y00354940
Y00329540
Y00304140
Y00278740
T04
X00214300Y00424790
X00239300
T05
X00140000Y00240000
X00310000Y00410000
M30
