G04 Layer_Color=2752767*
%FSAX44Y44*%
%MOMM*%
G71*
G01*
G75*
%ADD47C,0.0508*%
%ADD48C,0.0677*%
D47*
X00237268Y00422758D02*
Y00426822D01*
X00241332D01*
Y00422758D01*
X00237268D01*
X00212268D02*
Y00426822D01*
X00216332D01*
Y00422758D01*
X00212268D01*
X00329870Y00270358D02*
X00327838Y00274422D01*
X00331902D01*
X00329870Y00270358D01*
Y00346558D02*
X00327838Y00350622D01*
X00331902D01*
X00329870Y00346558D01*
Y00244958D02*
X00327838Y00249022D01*
X00331902D01*
X00329870Y00244958D01*
X00310000Y00407968D02*
X00311016Y00408984D01*
X00312032D01*
X00311016Y00410000D01*
X00312032Y00411016D01*
X00311016D01*
X00310000Y00412032D01*
X00308984Y00411016D01*
X00307968D01*
X00308984Y00410000D01*
X00307968Y00408984D01*
X00308984D01*
X00310000Y00407968D01*
X00140000Y00237968D02*
X00141016Y00238984D01*
X00142032D01*
X00141016Y00240000D01*
X00142032Y00241016D01*
X00141016D01*
X00140000Y00242032D01*
X00138984Y00241016D01*
X00137968D01*
X00138984Y00240000D01*
X00137968Y00238984D01*
X00138984D01*
X00140000Y00237968D01*
X00303708Y00345288D02*
X00304724Y00347320D01*
X00303708Y00349352D01*
X00305740Y00348336D01*
X00307772Y00349352D01*
X00306756Y00347320D01*
X00307772Y00345288D01*
X00305740Y00346304D01*
X00303708Y00345288D01*
X00136068Y00403708D02*
X00137084Y00405740D01*
X00136068Y00407772D01*
X00138100Y00406756D01*
X00140132Y00407772D01*
X00139116Y00405740D01*
X00140132Y00403708D01*
X00138100Y00404724D01*
X00136068Y00403708D01*
X00153848Y00356718D02*
X00154864Y00358750D01*
X00153848Y00360782D01*
X00155880Y00359766D01*
X00157912Y00360782D01*
X00156896Y00358750D01*
X00157912Y00356718D01*
X00155880Y00357734D01*
X00153848Y00356718D01*
X00136068Y00429108D02*
X00137084Y00431140D01*
X00136068Y00433172D01*
X00138100Y00432156D01*
X00140132Y00433172D01*
X00139116Y00431140D01*
X00140132Y00429108D01*
X00138100Y00430124D01*
X00136068Y00429108D01*
X00157658Y00281788D02*
X00158674Y00283820D01*
X00157658Y00285852D01*
X00159690Y00284836D01*
X00161722Y00285852D01*
X00160706Y00283820D01*
X00161722Y00281788D01*
X00159690Y00282804D01*
X00157658Y00281788D01*
X00175438Y00217018D02*
X00176454Y00219050D01*
X00175438Y00221082D01*
X00177470Y00220066D01*
X00179502Y00221082D01*
X00178486Y00219050D01*
X00179502Y00217018D01*
X00177470Y00218034D01*
X00175438Y00217018D01*
X00292278Y00384658D02*
X00293294Y00386690D01*
X00292278Y00388722D01*
X00294310Y00387706D01*
X00296342Y00388722D01*
X00295326Y00386690D01*
X00296342Y00384658D01*
X00294310Y00385674D01*
X00292278Y00384658D01*
X00254178Y00387198D02*
X00255194Y00389230D01*
X00254178Y00391262D01*
X00256210Y00390246D01*
X00258242Y00391262D01*
X00257226Y00389230D01*
X00258242Y00387198D01*
X00256210Y00388214D01*
X00254178Y00387198D01*
D48*
X00229032Y00230480D02*
G03*
X00229032Y00230480I-00002032J00000000D01*
G01*
X00203632D02*
G03*
X00203632Y00230480I-00002032J00000000D01*
G01*
X00254432D02*
G03*
X00254432Y00230480I-00002032J00000000D01*
G01*
X00279832D02*
G03*
X00279832Y00230480I-00002032J00000000D01*
G01*
X00230302Y00304140D02*
G03*
X00230302Y00304140I-00002032J00000000D01*
G01*
Y00329540D02*
G03*
X00230302Y00329540I-00002032J00000000D01*
G01*
Y00354940D02*
G03*
X00230302Y00354940I-00002032J00000000D01*
G01*
Y00380340D02*
G03*
X00230302Y00380340I-00002032J00000000D01*
G01*
X00204902Y00304140D02*
G03*
X00204902Y00304140I-00002032J00000000D01*
G01*
Y00329540D02*
G03*
X00204902Y00329540I-00002032J00000000D01*
G01*
Y00354940D02*
G03*
X00204902Y00354940I-00002032J00000000D01*
G01*
Y00380340D02*
G03*
X00204902Y00380340I-00002032J00000000D01*
G01*
Y00278740D02*
G03*
X00204902Y00278740I-00002032J00000000D01*
G01*
X00230302D02*
G03*
X00230302Y00278740I-00002032J00000000D01*
G01*
M02*
