G04 Layer_Color=65535*
%FSAX44Y44*%
%MOMM*%
G71*
G01*
G75*
%ADD28C,0.2500*%
%ADD29C,0.2540*%
%ADD30C,0.2000*%
%ADD31C,0.1250*%
%ADD32C,0.1270*%
G36*
X00201859Y00244346D02*
X00203537D01*
Y00243215D01*
X00201859D01*
Y00241557D01*
X00200738D01*
Y00243215D01*
X00199060D01*
Y00244346D01*
X00200738D01*
Y00246005D01*
X00201859D01*
Y00244346D01*
D02*
G37*
G36*
X00278929Y00243617D02*
X00276530D01*
Y00244846D01*
X00278929D01*
Y00243617D01*
D02*
G37*
G36*
X00312039Y00226738D02*
X00312117Y00226728D01*
X00312214Y00226718D01*
X00312312Y00226709D01*
X00312429Y00226679D01*
X00312663Y00226621D01*
X00312917Y00226533D01*
X00313034Y00226474D01*
X00313160Y00226406D01*
X00313268Y00226318D01*
X00313375Y00226231D01*
X00313385Y00226221D01*
X00313395Y00226211D01*
X00313424Y00226182D01*
X00313463Y00226143D01*
X00313502Y00226094D01*
X00313551Y00226026D01*
X00313648Y00225880D01*
X00313746Y00225694D01*
X00313834Y00225480D01*
X00313902Y00225236D01*
X00313911Y00225099D01*
X00313921Y00224963D01*
Y00224943D01*
Y00224894D01*
X00313911Y00224807D01*
X00313902Y00224699D01*
X00313882Y00224573D01*
X00313853Y00224436D01*
X00313814Y00224280D01*
X00313765Y00224134D01*
X00313755Y00224114D01*
X00313736Y00224065D01*
X00313697Y00223987D01*
X00313648Y00223890D01*
X00313580Y00223763D01*
X00313492Y00223626D01*
X00313385Y00223480D01*
X00313268Y00223324D01*
X00313258Y00223314D01*
X00313229Y00223275D01*
X00313170Y00223207D01*
X00313082Y00223119D01*
X00312975Y00223002D01*
X00312829Y00222856D01*
X00312663Y00222690D01*
X00312458Y00222505D01*
X00312448Y00222495D01*
X00312429Y00222485D01*
X00312400Y00222456D01*
X00312370Y00222417D01*
X00312273Y00222329D01*
X00312156Y00222212D01*
X00312029Y00222095D01*
X00311912Y00221978D01*
X00311805Y00221871D01*
X00311766Y00221832D01*
X00311727Y00221793D01*
X00311717Y00221783D01*
X00311697Y00221763D01*
X00311668Y00221734D01*
X00311639Y00221686D01*
X00311551Y00221588D01*
X00311473Y00221461D01*
X00313921D01*
Y00220320D01*
X00309620D01*
Y00220330D01*
Y00220349D01*
X00309630Y00220388D01*
X00309639Y00220427D01*
X00309649Y00220486D01*
X00309659Y00220554D01*
X00309698Y00220710D01*
X00309747Y00220905D01*
X00309825Y00221110D01*
X00309912Y00221325D01*
X00310030Y00221539D01*
Y00221549D01*
X00310049Y00221569D01*
X00310069Y00221598D01*
X00310098Y00221646D01*
X00310147Y00221705D01*
X00310195Y00221773D01*
X00310264Y00221861D01*
X00310332Y00221949D01*
X00310420Y00222056D01*
X00310527Y00222173D01*
X00310634Y00222300D01*
X00310761Y00222437D01*
X00310907Y00222583D01*
X00311054Y00222739D01*
X00311229Y00222905D01*
X00311415Y00223080D01*
X00311424Y00223090D01*
X00311454Y00223109D01*
X00311493Y00223158D01*
X00311551Y00223207D01*
X00311610Y00223266D01*
X00311688Y00223344D01*
X00311854Y00223500D01*
X00312029Y00223675D01*
X00312195Y00223851D01*
X00312273Y00223929D01*
X00312341Y00223997D01*
X00312400Y00224065D01*
X00312439Y00224124D01*
X00312448Y00224143D01*
X00312478Y00224192D01*
X00312517Y00224261D01*
X00312565Y00224358D01*
X00312614Y00224475D01*
X00312653Y00224602D01*
X00312682Y00224738D01*
X00312692Y00224875D01*
Y00224894D01*
Y00224943D01*
X00312682Y00225021D01*
X00312663Y00225109D01*
X00312634Y00225207D01*
X00312595Y00225314D01*
X00312546Y00225421D01*
X00312468Y00225509D01*
X00312458Y00225519D01*
X00312429Y00225548D01*
X00312380Y00225577D01*
X00312312Y00225626D01*
X00312224Y00225665D01*
X00312117Y00225694D01*
X00311990Y00225723D01*
X00311854Y00225733D01*
X00311795D01*
X00311717Y00225723D01*
X00311639Y00225704D01*
X00311541Y00225675D01*
X00311434Y00225636D01*
X00311336Y00225577D01*
X00311239Y00225499D01*
X00311229Y00225489D01*
X00311200Y00225450D01*
X00311171Y00225402D01*
X00311122Y00225314D01*
X00311083Y00225207D01*
X00311034Y00225080D01*
X00311005Y00224914D01*
X00310985Y00224729D01*
X00309766Y00224846D01*
Y00224855D01*
X00309776Y00224894D01*
Y00224943D01*
X00309795Y00225012D01*
X00309805Y00225099D01*
X00309834Y00225187D01*
X00309854Y00225294D01*
X00309893Y00225411D01*
X00309981Y00225646D01*
X00310098Y00225889D01*
X00310176Y00226006D01*
X00310254Y00226114D01*
X00310351Y00226211D01*
X00310449Y00226299D01*
X00310459Y00226309D01*
X00310478Y00226318D01*
X00310508Y00226338D01*
X00310556Y00226367D01*
X00310605Y00226406D01*
X00310673Y00226445D01*
X00310751Y00226484D01*
X00310849Y00226523D01*
X00310946Y00226562D01*
X00311054Y00226601D01*
X00311297Y00226679D01*
X00311571Y00226728D01*
X00311727Y00226748D01*
X00311971D01*
X00312039Y00226738D01*
D02*
G37*
G36*
X00319471D02*
X00319549Y00226728D01*
X00319637Y00226709D01*
X00319734Y00226689D01*
X00319842Y00226660D01*
X00319959Y00226631D01*
X00320076Y00226582D01*
X00320203Y00226533D01*
X00320320Y00226465D01*
X00320437Y00226387D01*
X00320554Y00226299D01*
X00320661Y00226192D01*
X00320768Y00226075D01*
X00320778Y00226065D01*
X00320798Y00226036D01*
X00320827Y00225987D01*
X00320866Y00225928D01*
X00320915Y00225840D01*
X00320963Y00225733D01*
X00321022Y00225606D01*
X00321080Y00225460D01*
X00321139Y00225285D01*
X00321197Y00225099D01*
X00321246Y00224885D01*
X00321295Y00224651D01*
X00321334Y00224387D01*
X00321363Y00224104D01*
X00321383Y00223802D01*
X00321393Y00223470D01*
Y00223461D01*
Y00223451D01*
Y00223392D01*
Y00223295D01*
X00321383Y00223178D01*
X00321373Y00223022D01*
X00321363Y00222856D01*
X00321344Y00222661D01*
X00321315Y00222456D01*
X00321236Y00222027D01*
X00321188Y00221812D01*
X00321129Y00221598D01*
X00321051Y00221393D01*
X00320963Y00221198D01*
X00320866Y00221012D01*
X00320759Y00220856D01*
X00320749Y00220847D01*
X00320739Y00220827D01*
X00320710Y00220798D01*
X00320661Y00220759D01*
X00320612Y00220700D01*
X00320544Y00220652D01*
X00320476Y00220593D01*
X00320388Y00220535D01*
X00320290Y00220466D01*
X00320183Y00220408D01*
X00320056Y00220359D01*
X00319930Y00220310D01*
X00319793Y00220261D01*
X00319647Y00220232D01*
X00319481Y00220213D01*
X00319315Y00220203D01*
X00319276D01*
X00319227Y00220213D01*
X00319159D01*
X00319081Y00220222D01*
X00318993Y00220242D01*
X00318886Y00220261D01*
X00318778Y00220291D01*
X00318661Y00220330D01*
X00318535Y00220378D01*
X00318408Y00220437D01*
X00318281Y00220505D01*
X00318154Y00220583D01*
X00318037Y00220681D01*
X00317910Y00220788D01*
X00317803Y00220915D01*
X00317793Y00220925D01*
X00317784Y00220954D01*
X00317754Y00220993D01*
X00317715Y00221061D01*
X00317676Y00221139D01*
X00317628Y00221237D01*
X00317569Y00221364D01*
X00317520Y00221510D01*
X00317472Y00221676D01*
X00317413Y00221861D01*
X00317364Y00222066D01*
X00317325Y00222300D01*
X00317286Y00222563D01*
X00317267Y00222836D01*
X00317247Y00223149D01*
X00317237Y00223480D01*
Y00223490D01*
Y00223500D01*
Y00223558D01*
Y00223656D01*
X00317247Y00223773D01*
X00317257Y00223929D01*
X00317267Y00224095D01*
X00317286Y00224280D01*
X00317316Y00224485D01*
X00317393Y00224914D01*
X00317442Y00225128D01*
X00317501Y00225343D01*
X00317569Y00225548D01*
X00317657Y00225743D01*
X00317754Y00225928D01*
X00317862Y00226084D01*
X00317871Y00226094D01*
X00317881Y00226114D01*
X00317920Y00226143D01*
X00317959Y00226192D01*
X00318008Y00226240D01*
X00318076Y00226299D01*
X00318154Y00226357D01*
X00318242Y00226416D01*
X00318340Y00226474D01*
X00318447Y00226543D01*
X00318564Y00226592D01*
X00318691Y00226640D01*
X00318837Y00226689D01*
X00318983Y00226718D01*
X00319149Y00226738D01*
X00319315Y00226748D01*
X00319403D01*
X00319471Y00226738D01*
D02*
G37*
G36*
X00332410Y00320488D02*
Y00319308D01*
X00329425Y00318508D01*
X00332410Y00317718D01*
Y00316528D01*
X00327767Y00315065D01*
Y00316255D01*
X00330810Y00317123D01*
X00327767Y00317923D01*
Y00319113D01*
X00330810Y00319883D01*
X00327767Y00320771D01*
Y00321980D01*
X00332410Y00320488D01*
D02*
G37*
G36*
X00330752Y00314558D02*
X00330888Y00314538D01*
X00331045Y00314499D01*
X00331220Y00314450D01*
X00331405Y00314372D01*
X00331591Y00314265D01*
X00331600D01*
X00331610Y00314255D01*
X00331669Y00314207D01*
X00331757Y00314138D01*
X00331854Y00314041D01*
X00331971Y00313924D01*
X00332088Y00313768D01*
X00332205Y00313602D01*
X00332303Y00313397D01*
Y00313387D01*
X00332313Y00313368D01*
X00332322Y00313339D01*
X00332342Y00313299D01*
X00332351Y00313241D01*
X00332371Y00313182D01*
X00332391Y00313104D01*
X00332410Y00313017D01*
X00332459Y00312812D01*
X00332488Y00312578D01*
X00332517Y00312314D01*
X00332527Y00312012D01*
Y00312002D01*
Y00311963D01*
Y00311895D01*
X00332517Y00311807D01*
X00332508Y00311710D01*
X00332498Y00311593D01*
X00332478Y00311466D01*
X00332459Y00311320D01*
X00332391Y00311017D01*
X00332342Y00310861D01*
X00332293Y00310705D01*
X00332225Y00310559D01*
X00332156Y00310412D01*
X00332069Y00310266D01*
X00331971Y00310139D01*
X00331961Y00310130D01*
X00331942Y00310110D01*
X00331913Y00310081D01*
X00331864Y00310032D01*
X00331805Y00309983D01*
X00331737Y00309925D01*
X00331649Y00309866D01*
X00331561Y00309798D01*
X00331444Y00309730D01*
X00331327Y00309661D01*
X00331191Y00309603D01*
X00331045Y00309535D01*
X00330888Y00309486D01*
X00330713Y00309437D01*
X00330528Y00309398D01*
X00330332Y00309369D01*
X00330206Y00310627D01*
X00330215D01*
X00330235Y00310637D01*
X00330264D01*
X00330313Y00310646D01*
X00330420Y00310676D01*
X00330567Y00310725D01*
X00330713Y00310783D01*
X00330869Y00310861D01*
X00331015Y00310959D01*
X00331142Y00311076D01*
X00331152Y00311095D01*
X00331191Y00311144D01*
X00331230Y00311222D01*
X00331288Y00311329D01*
X00331337Y00311466D01*
X00331386Y00311622D01*
X00331425Y00311807D01*
X00331435Y00312022D01*
Y00312031D01*
Y00312051D01*
Y00312080D01*
Y00312129D01*
X00331425Y00312236D01*
X00331405Y00312373D01*
X00331366Y00312529D01*
X00331327Y00312685D01*
X00331259Y00312831D01*
X00331171Y00312958D01*
X00331161Y00312968D01*
X00331123Y00313007D01*
X00331074Y00313056D01*
X00330996Y00313124D01*
X00330908Y00313182D01*
X00330801Y00313231D01*
X00330684Y00313270D01*
X00330557Y00313280D01*
X00330518D01*
X00330479Y00313270D01*
X00330420Y00313260D01*
X00330303Y00313221D01*
X00330235Y00313192D01*
X00330176Y00313143D01*
X00330167Y00313134D01*
X00330147Y00313114D01*
X00330118Y00313085D01*
X00330079Y00313036D01*
X00330030Y00312968D01*
X00329991Y00312890D01*
X00329942Y00312792D01*
X00329894Y00312675D01*
Y00312666D01*
X00329874Y00312626D01*
X00329855Y00312558D01*
X00329825Y00312461D01*
X00329806Y00312402D01*
X00329786Y00312324D01*
X00329767Y00312246D01*
X00329738Y00312148D01*
X00329708Y00312041D01*
X00329679Y00311924D01*
X00329650Y00311797D01*
X00329611Y00311651D01*
Y00311641D01*
X00329601Y00311602D01*
X00329581Y00311554D01*
X00329562Y00311485D01*
X00329542Y00311397D01*
X00329513Y00311300D01*
X00329435Y00311085D01*
X00329347Y00310842D01*
X00329240Y00310598D01*
X00329113Y00310383D01*
X00329045Y00310286D01*
X00328977Y00310198D01*
X00328967Y00310188D01*
X00328947Y00310168D01*
X00328918Y00310139D01*
X00328879Y00310110D01*
X00328830Y00310061D01*
X00328772Y00310012D01*
X00328694Y00309964D01*
X00328616Y00309905D01*
X00328430Y00309798D01*
X00328206Y00309700D01*
X00328089Y00309671D01*
X00327962Y00309642D01*
X00327826Y00309622D01*
X00327689Y00309613D01*
X00327602D01*
X00327514Y00309632D01*
X00327387Y00309652D01*
X00327250Y00309681D01*
X00327094Y00309730D01*
X00326938Y00309798D01*
X00326772Y00309886D01*
X00326763D01*
X00326753Y00309895D01*
X00326704Y00309935D01*
X00326626Y00310003D01*
X00326529Y00310091D01*
X00326421Y00310198D01*
X00326314Y00310334D01*
X00326207Y00310490D01*
X00326119Y00310676D01*
Y00310686D01*
X00326109Y00310695D01*
X00326099Y00310734D01*
X00326080Y00310773D01*
X00326070Y00310822D01*
X00326051Y00310881D01*
X00326002Y00311027D01*
X00325963Y00311212D01*
X00325934Y00311427D01*
X00325904Y00311671D01*
X00325895Y00311934D01*
Y00311944D01*
Y00311983D01*
Y00312051D01*
X00325904Y00312129D01*
X00325914Y00312236D01*
X00325924Y00312353D01*
X00325943Y00312480D01*
X00325963Y00312617D01*
X00326021Y00312909D01*
X00326119Y00313212D01*
X00326177Y00313358D01*
X00326255Y00313494D01*
X00326334Y00313631D01*
X00326431Y00313748D01*
X00326441Y00313758D01*
X00326460Y00313777D01*
X00326490Y00313807D01*
X00326529Y00313846D01*
X00326577Y00313894D01*
X00326646Y00313943D01*
X00326724Y00314002D01*
X00326811Y00314060D01*
X00326909Y00314119D01*
X00327016Y00314167D01*
X00327250Y00314275D01*
X00327387Y00314314D01*
X00327533Y00314353D01*
X00327689Y00314382D01*
X00327845Y00314392D01*
X00327894Y00313095D01*
X00327875D01*
X00327816Y00313075D01*
X00327728Y00313056D01*
X00327621Y00313017D01*
X00327504Y00312968D01*
X00327387Y00312909D01*
X00327280Y00312831D01*
X00327192Y00312734D01*
X00327182Y00312724D01*
X00327153Y00312685D01*
X00327124Y00312626D01*
X00327075Y00312539D01*
X00327036Y00312422D01*
X00327006Y00312285D01*
X00326977Y00312119D01*
X00326968Y00311924D01*
Y00311914D01*
Y00311905D01*
Y00311875D01*
Y00311836D01*
X00326977Y00311729D01*
X00326997Y00311602D01*
X00327026Y00311466D01*
X00327065Y00311320D01*
X00327124Y00311173D01*
X00327202Y00311046D01*
X00327211Y00311037D01*
X00327231Y00311017D01*
X00327260Y00310988D01*
X00327309Y00310949D01*
X00327367Y00310910D01*
X00327436Y00310881D01*
X00327514Y00310861D01*
X00327602Y00310851D01*
X00327640D01*
X00327679Y00310861D01*
X00327738Y00310871D01*
X00327797Y00310900D01*
X00327865Y00310929D01*
X00327923Y00310978D01*
X00327992Y00311037D01*
X00328001Y00311046D01*
X00328031Y00311085D01*
X00328070Y00311163D01*
X00328089Y00311212D01*
X00328118Y00311280D01*
X00328157Y00311349D01*
X00328187Y00311437D01*
X00328226Y00311524D01*
X00328255Y00311641D01*
X00328294Y00311758D01*
X00328333Y00311895D01*
X00328382Y00312051D01*
X00328421Y00312217D01*
Y00312227D01*
X00328430Y00312256D01*
X00328440Y00312305D01*
X00328460Y00312373D01*
X00328479Y00312451D01*
X00328509Y00312539D01*
X00328557Y00312743D01*
X00328635Y00312978D01*
X00328704Y00313202D01*
X00328791Y00313426D01*
X00328830Y00313524D01*
X00328879Y00313612D01*
Y00313621D01*
X00328889Y00313631D01*
X00328918Y00313690D01*
X00328977Y00313768D01*
X00329045Y00313865D01*
X00329142Y00313982D01*
X00329250Y00314099D01*
X00329386Y00314207D01*
X00329533Y00314314D01*
X00329552Y00314324D01*
X00329601Y00314353D01*
X00329698Y00314402D01*
X00329815Y00314450D01*
X00329962Y00314489D01*
X00330137Y00314538D01*
X00330332Y00314567D01*
X00330547Y00314577D01*
X00330645D01*
X00330752Y00314558D01*
D02*
G37*
G36*
X00227084Y00247038D02*
X00227259Y00247029D01*
X00227464Y00247019D01*
X00227659Y00246999D01*
X00227854Y00246960D01*
X00228030Y00246921D01*
X00228040D01*
X00228059Y00246912D01*
X00228088Y00246902D01*
X00228127Y00246892D01*
X00228225Y00246843D01*
X00228361Y00246785D01*
X00228508Y00246707D01*
X00228664Y00246600D01*
X00228830Y00246473D01*
X00228986Y00246326D01*
X00228995D01*
X00229005Y00246307D01*
X00229054Y00246248D01*
X00229122Y00246161D01*
X00229220Y00246043D01*
X00229317Y00245887D01*
X00229415Y00245712D01*
X00229512Y00245517D01*
X00229600Y00245292D01*
Y00245283D01*
X00229610Y00245263D01*
X00229620Y00245234D01*
X00229629Y00245185D01*
X00229649Y00245127D01*
X00229668Y00245049D01*
X00229688Y00244971D01*
X00229707Y00244873D01*
X00229727Y00244766D01*
X00229746Y00244659D01*
X00229785Y00244395D01*
X00229805Y00244102D01*
X00229815Y00243781D01*
Y00243771D01*
Y00243742D01*
Y00243703D01*
Y00243644D01*
X00229805Y00243576D01*
Y00243498D01*
X00229785Y00243312D01*
X00229766Y00243098D01*
X00229727Y00242874D01*
X00229678Y00242640D01*
X00229610Y00242415D01*
Y00242405D01*
X00229600Y00242386D01*
X00229590Y00242347D01*
X00229571Y00242298D01*
X00229542Y00242240D01*
X00229512Y00242171D01*
X00229434Y00242015D01*
X00229337Y00241830D01*
X00229220Y00241645D01*
X00229083Y00241459D01*
X00228927Y00241284D01*
X00228908Y00241274D01*
X00228869Y00241225D01*
X00228791Y00241167D01*
X00228693Y00241098D01*
X00228556Y00241011D01*
X00228400Y00240923D01*
X00228225Y00240845D01*
X00228020Y00240767D01*
X00228001Y00240757D01*
X00227942Y00240747D01*
X00227854Y00240728D01*
X00227718Y00240708D01*
X00227562Y00240679D01*
X00227367Y00240660D01*
X00227132Y00240650D01*
X00226879Y00240640D01*
X00224460D01*
Y00247048D01*
X00227006D01*
X00227084Y00247038D01*
D02*
G37*
G36*
X00253049Y00247146D02*
X00253147Y00247136D01*
X00253264Y00247116D01*
X00253391Y00247097D01*
X00253527Y00247068D01*
X00253683Y00247029D01*
X00253830Y00246980D01*
X00253995Y00246931D01*
X00254152Y00246863D01*
X00254308Y00246775D01*
X00254464Y00246687D01*
X00254610Y00246580D01*
X00254756Y00246453D01*
X00254766D01*
X00254776Y00246434D01*
X00254825Y00246375D01*
X00254903Y00246287D01*
X00255000Y00246151D01*
X00255107Y00245985D01*
X00255224Y00245790D01*
X00255332Y00245556D01*
X00255420Y00245283D01*
X00254142Y00244980D01*
Y00244990D01*
X00254132Y00245000D01*
X00254122Y00245058D01*
X00254083Y00245146D01*
X00254035Y00245263D01*
X00253976Y00245390D01*
X00253888Y00245517D01*
X00253791Y00245644D01*
X00253664Y00245761D01*
X00253644Y00245770D01*
X00253596Y00245809D01*
X00253527Y00245858D01*
X00253420Y00245907D01*
X00253293Y00245965D01*
X00253137Y00246005D01*
X00252971Y00246043D01*
X00252786Y00246053D01*
X00252718D01*
X00252669Y00246043D01*
X00252610Y00246034D01*
X00252542Y00246024D01*
X00252376Y00245985D01*
X00252191Y00245926D01*
X00251996Y00245839D01*
X00251908Y00245780D01*
X00251811Y00245712D01*
X00251723Y00245624D01*
X00251635Y00245536D01*
Y00245527D01*
X00251616Y00245517D01*
X00251596Y00245478D01*
X00251567Y00245439D01*
X00251538Y00245380D01*
X00251499Y00245312D01*
X00251460Y00245234D01*
X00251421Y00245136D01*
X00251372Y00245029D01*
X00251333Y00244912D01*
X00251294Y00244776D01*
X00251264Y00244620D01*
X00251235Y00244463D01*
X00251216Y00244278D01*
X00251206Y00244083D01*
X00251196Y00243878D01*
Y00243868D01*
Y00243829D01*
Y00243761D01*
X00251206Y00243683D01*
Y00243576D01*
X00251216Y00243469D01*
X00251235Y00243342D01*
X00251255Y00243205D01*
X00251304Y00242922D01*
X00251382Y00242630D01*
X00251430Y00242493D01*
X00251489Y00242366D01*
X00251547Y00242249D01*
X00251625Y00242142D01*
X00251635Y00242132D01*
X00251645Y00242123D01*
X00251703Y00242064D01*
X00251801Y00241986D01*
X00251928Y00241889D01*
X00252094Y00241791D01*
X00252289Y00241713D01*
X00252513Y00241654D01*
X00252630Y00241645D01*
X00252757Y00241635D01*
X00252806D01*
X00252845Y00241645D01*
X00252942Y00241654D01*
X00253059Y00241674D01*
X00253206Y00241713D01*
X00253352Y00241771D01*
X00253498Y00241849D01*
X00253644Y00241957D01*
X00253664Y00241976D01*
X00253703Y00242015D01*
X00253771Y00242103D01*
X00253849Y00242210D01*
X00253937Y00242357D01*
X00254025Y00242542D01*
X00254113Y00242747D01*
X00254181Y00243000D01*
X00255439Y00242610D01*
Y00242600D01*
X00255429Y00242561D01*
X00255410Y00242513D01*
X00255380Y00242435D01*
X00255351Y00242347D01*
X00255312Y00242249D01*
X00255264Y00242132D01*
X00255205Y00242015D01*
X00255078Y00241762D01*
X00254912Y00241498D01*
X00254708Y00241255D01*
X00254600Y00241137D01*
X00254473Y00241040D01*
X00254464Y00241030D01*
X00254444Y00241020D01*
X00254405Y00240991D01*
X00254356Y00240962D01*
X00254288Y00240923D01*
X00254210Y00240884D01*
X00254113Y00240835D01*
X00254005Y00240786D01*
X00253888Y00240737D01*
X00253761Y00240689D01*
X00253625Y00240650D01*
X00253479Y00240611D01*
X00253313Y00240581D01*
X00253147Y00240552D01*
X00252962Y00240543D01*
X00252776Y00240533D01*
X00252718D01*
X00252649Y00240543D01*
X00252562D01*
X00252454Y00240562D01*
X00252328Y00240581D01*
X00252191Y00240601D01*
X00252035Y00240640D01*
X00251869Y00240689D01*
X00251703Y00240747D01*
X00251528Y00240816D01*
X00251352Y00240903D01*
X00251177Y00241001D01*
X00251001Y00241118D01*
X00250835Y00241245D01*
X00250679Y00241401D01*
X00250670Y00241411D01*
X00250640Y00241440D01*
X00250601Y00241489D01*
X00250553Y00241557D01*
X00250494Y00241645D01*
X00250416Y00241752D01*
X00250348Y00241879D01*
X00250270Y00242025D01*
X00250192Y00242181D01*
X00250123Y00242366D01*
X00250055Y00242561D01*
X00249987Y00242776D01*
X00249938Y00243000D01*
X00249899Y00243244D01*
X00249870Y00243508D01*
X00249860Y00243781D01*
Y00243800D01*
Y00243849D01*
X00249870Y00243937D01*
Y00244044D01*
X00249889Y00244181D01*
X00249899Y00244337D01*
X00249928Y00244502D01*
X00249967Y00244688D01*
X00250006Y00244893D01*
X00250065Y00245088D01*
X00250123Y00245302D01*
X00250201Y00245507D01*
X00250299Y00245712D01*
X00250406Y00245907D01*
X00250533Y00246092D01*
X00250679Y00246268D01*
X00250689Y00246278D01*
X00250718Y00246307D01*
X00250767Y00246346D01*
X00250826Y00246404D01*
X00250913Y00246473D01*
X00251011Y00246551D01*
X00251128Y00246629D01*
X00251264Y00246716D01*
X00251411Y00246794D01*
X00251577Y00246873D01*
X00251752Y00246951D01*
X00251947Y00247019D01*
X00252152Y00247077D01*
X00252376Y00247116D01*
X00252610Y00247146D01*
X00252854Y00247155D01*
X00252971D01*
X00253049Y00247146D01*
D02*
G37*
G36*
X00211787Y00212513D02*
X00214996D01*
Y00211430D01*
X00210490D01*
Y00217780D01*
X00211787D01*
Y00212513D01*
D02*
G37*
G36*
X00267900Y00216073D02*
X00268738D01*
Y00215097D01*
X00267900D01*
Y00213205D01*
Y00213195D01*
Y00213186D01*
Y00213156D01*
Y00213117D01*
Y00213020D01*
Y00212913D01*
X00267909Y00212796D01*
Y00212688D01*
Y00212600D01*
X00267919Y00212561D01*
Y00212542D01*
Y00212522D01*
X00267939Y00212483D01*
X00267978Y00212435D01*
X00268027Y00212386D01*
X00268046Y00212376D01*
X00268085Y00212357D01*
X00268153Y00212337D01*
X00268231Y00212327D01*
X00268261D01*
X00268300Y00212337D01*
X00268358Y00212347D01*
X00268426Y00212357D01*
X00268514Y00212376D01*
X00268612Y00212405D01*
X00268729Y00212444D01*
X00268836Y00211488D01*
X00268817Y00211479D01*
X00268758Y00211459D01*
X00268670Y00211430D01*
X00268553Y00211401D01*
X00268407Y00211371D01*
X00268241Y00211342D01*
X00268056Y00211323D01*
X00267861Y00211313D01*
X00267802D01*
X00267744Y00211323D01*
X00267666D01*
X00267568Y00211342D01*
X00267470Y00211362D01*
X00267363Y00211381D01*
X00267266Y00211420D01*
X00267256Y00211430D01*
X00267227Y00211440D01*
X00267178Y00211459D01*
X00267119Y00211498D01*
X00266993Y00211586D01*
X00266924Y00211645D01*
X00266876Y00211703D01*
X00266866Y00211713D01*
X00266856Y00211732D01*
X00266837Y00211781D01*
X00266807Y00211830D01*
X00266778Y00211908D01*
X00266749Y00211986D01*
X00266729Y00212083D01*
X00266710Y00212191D01*
Y00212201D01*
X00266700Y00212240D01*
Y00212298D01*
X00266690Y00212376D01*
X00266681Y00212493D01*
Y00212649D01*
X00266671Y00212834D01*
Y00212942D01*
Y00213059D01*
Y00215097D01*
X00266105D01*
Y00216073D01*
X00266671D01*
Y00216990D01*
X00267900Y00217711D01*
Y00216073D01*
D02*
G37*
G36*
X00224516Y00217828D02*
X00224691Y00217819D01*
X00224896Y00217809D01*
X00225091Y00217789D01*
X00225286Y00217750D01*
X00225462Y00217711D01*
X00225471D01*
X00225491Y00217702D01*
X00225520Y00217692D01*
X00225559Y00217682D01*
X00225657Y00217633D01*
X00225793Y00217575D01*
X00225940Y00217497D01*
X00226096Y00217390D01*
X00226262Y00217263D01*
X00226418Y00217116D01*
X00226427D01*
X00226437Y00217097D01*
X00226486Y00217038D01*
X00226554Y00216950D01*
X00226652Y00216833D01*
X00226749Y00216677D01*
X00226847Y00216502D01*
X00226944Y00216307D01*
X00227032Y00216082D01*
Y00216073D01*
X00227042Y00216053D01*
X00227052Y00216024D01*
X00227061Y00215975D01*
X00227081Y00215917D01*
X00227100Y00215839D01*
X00227120Y00215761D01*
X00227139Y00215663D01*
X00227159Y00215556D01*
X00227178Y00215448D01*
X00227217Y00215185D01*
X00227237Y00214893D01*
X00227247Y00214571D01*
Y00214561D01*
Y00214532D01*
Y00214493D01*
Y00214434D01*
X00227237Y00214366D01*
Y00214288D01*
X00227217Y00214102D01*
X00227198Y00213888D01*
X00227159Y00213664D01*
X00227110Y00213430D01*
X00227042Y00213205D01*
Y00213195D01*
X00227032Y00213176D01*
X00227022Y00213137D01*
X00227003Y00213088D01*
X00226974Y00213030D01*
X00226944Y00212961D01*
X00226866Y00212805D01*
X00226769Y00212620D01*
X00226652Y00212435D01*
X00226515Y00212249D01*
X00226359Y00212074D01*
X00226340Y00212064D01*
X00226301Y00212015D01*
X00226223Y00211957D01*
X00226125Y00211888D01*
X00225989Y00211801D01*
X00225832Y00211713D01*
X00225657Y00211635D01*
X00225452Y00211557D01*
X00225432Y00211547D01*
X00225374Y00211537D01*
X00225286Y00211518D01*
X00225150Y00211498D01*
X00224994Y00211469D01*
X00224799Y00211450D01*
X00224564Y00211440D01*
X00224311Y00211430D01*
X00221892D01*
Y00217838D01*
X00224438D01*
X00224516Y00217828D01*
D02*
G37*
G36*
X00220663Y00216756D02*
X00217220D01*
Y00215331D01*
X00220419D01*
Y00214249D01*
X00217220D01*
Y00212513D01*
X00220790D01*
Y00211430D01*
X00215923D01*
Y00217838D01*
X00220663D01*
Y00216756D01*
D02*
G37*
G36*
X00307445Y00220320D02*
X00306343D01*
X00304470Y00224963D01*
X00305758D01*
X00306635Y00222593D01*
X00306889Y00221793D01*
Y00221803D01*
X00306908Y00221842D01*
X00306918Y00221890D01*
X00306938Y00221959D01*
X00306986Y00222085D01*
X00307006Y00222144D01*
X00307016Y00222193D01*
Y00222202D01*
X00307025Y00222222D01*
X00307035Y00222261D01*
X00307055Y00222320D01*
X00307094Y00222446D01*
X00307143Y00222593D01*
X00308030Y00224963D01*
X00309288D01*
X00307445Y00220320D01*
D02*
G37*
G36*
X00316233D02*
X00315004D01*
Y00221549D01*
X00316233D01*
Y00220320D01*
D02*
G37*
G36*
X00257961Y00216161D02*
X00258049Y00216151D01*
X00258156Y00216131D01*
X00258263Y00216112D01*
X00258390Y00216082D01*
X00258526Y00216043D01*
X00258663Y00216004D01*
X00258809Y00215946D01*
X00258946Y00215878D01*
X00259092Y00215800D01*
X00259238Y00215702D01*
X00259375Y00215604D01*
X00259502Y00215478D01*
X00259512Y00215468D01*
X00259531Y00215448D01*
X00259560Y00215410D01*
X00259609Y00215351D01*
X00259658Y00215292D01*
X00259716Y00215205D01*
X00259775Y00215117D01*
X00259843Y00215010D01*
X00259902Y00214883D01*
X00259960Y00214756D01*
X00260019Y00214610D01*
X00260068Y00214463D01*
X00260116Y00214298D01*
X00260146Y00214122D01*
X00260165Y00213946D01*
X00260175Y00213751D01*
Y00213742D01*
Y00213703D01*
Y00213654D01*
X00260165Y00213576D01*
X00260155Y00213488D01*
X00260136Y00213381D01*
X00260116Y00213264D01*
X00260087Y00213137D01*
X00260058Y00213000D01*
X00260009Y00212864D01*
X00259951Y00212717D01*
X00259892Y00212571D01*
X00259804Y00212425D01*
X00259716Y00212279D01*
X00259609Y00212142D01*
X00259492Y00212006D01*
X00259482Y00211996D01*
X00259463Y00211976D01*
X00259424Y00211937D01*
X00259375Y00211898D01*
X00259307Y00211849D01*
X00259229Y00211791D01*
X00259131Y00211723D01*
X00259024Y00211664D01*
X00258907Y00211596D01*
X00258780Y00211528D01*
X00258643Y00211469D01*
X00258487Y00211420D01*
X00258331Y00211381D01*
X00258156Y00211342D01*
X00257971Y00211323D01*
X00257785Y00211313D01*
X00257678D01*
X00257619Y00211323D01*
X00257551Y00211332D01*
X00257395Y00211352D01*
X00257210Y00211381D01*
X00257005Y00211430D01*
X00256790Y00211498D01*
X00256576Y00211596D01*
X00256566D01*
X00256546Y00211606D01*
X00256517Y00211625D01*
X00256478Y00211654D01*
X00256381Y00211723D01*
X00256254Y00211810D01*
X00256108Y00211927D01*
X00255961Y00212074D01*
X00255825Y00212249D01*
X00255698Y00212444D01*
Y00212454D01*
X00255688Y00212474D01*
X00255669Y00212503D01*
X00255649Y00212542D01*
X00255630Y00212600D01*
X00255610Y00212659D01*
X00255581Y00212737D01*
X00255552Y00212825D01*
X00255503Y00213020D01*
X00255454Y00213254D01*
X00255415Y00213517D01*
X00255405Y00213800D01*
Y00213810D01*
Y00213829D01*
Y00213859D01*
X00255415Y00213907D01*
Y00213956D01*
X00255425Y00214025D01*
X00255444Y00214181D01*
X00255474Y00214366D01*
X00255532Y00214561D01*
X00255600Y00214776D01*
X00255698Y00214990D01*
Y00215000D01*
X00255708Y00215019D01*
X00255727Y00215049D01*
X00255756Y00215088D01*
X00255825Y00215185D01*
X00255922Y00215312D01*
X00256039Y00215458D01*
X00256186Y00215604D01*
X00256351Y00215741D01*
X00256546Y00215868D01*
X00256556D01*
X00256576Y00215878D01*
X00256605Y00215897D01*
X00256644Y00215917D01*
X00256693Y00215936D01*
X00256761Y00215965D01*
X00256907Y00216024D01*
X00257093Y00216073D01*
X00257307Y00216122D01*
X00257532Y00216161D01*
X00257785Y00216170D01*
X00257883D01*
X00257961Y00216161D01*
D02*
G37*
G36*
X00242696D02*
X00242784Y00216151D01*
X00242882Y00216131D01*
X00242999Y00216112D01*
X00243116Y00216082D01*
X00243243Y00216043D01*
X00243379Y00216004D01*
X00243516Y00215946D01*
X00243652Y00215878D01*
X00243789Y00215800D01*
X00243916Y00215702D01*
X00244042Y00215604D01*
X00244159Y00215478D01*
X00244169Y00215468D01*
X00244189Y00215448D01*
X00244218Y00215410D01*
X00244257Y00215351D01*
X00244296Y00215273D01*
X00244345Y00215185D01*
X00244403Y00215088D01*
X00244452Y00214961D01*
X00244511Y00214824D01*
X00244559Y00214668D01*
X00244608Y00214493D01*
X00244657Y00214307D01*
X00244686Y00214102D01*
X00244715Y00213888D01*
X00244735Y00213644D01*
Y00213391D01*
X00241663D01*
Y00213381D01*
Y00213371D01*
Y00213342D01*
X00241672Y00213303D01*
X00241682Y00213195D01*
X00241702Y00213078D01*
X00241740Y00212932D01*
X00241789Y00212796D01*
X00241858Y00212659D01*
X00241955Y00212532D01*
X00241965Y00212522D01*
X00242004Y00212483D01*
X00242062Y00212435D01*
X00242150Y00212386D01*
X00242248Y00212327D01*
X00242374Y00212279D01*
X00242511Y00212240D01*
X00242657Y00212230D01*
X00242706D01*
X00242765Y00212240D01*
X00242833Y00212249D01*
X00242901Y00212269D01*
X00242989Y00212298D01*
X00243067Y00212337D01*
X00243145Y00212386D01*
X00243155Y00212396D01*
X00243174Y00212415D01*
X00243213Y00212454D01*
X00243252Y00212513D01*
X00243301Y00212581D01*
X00243360Y00212669D01*
X00243408Y00212766D01*
X00243447Y00212893D01*
X00244667Y00212688D01*
Y00212679D01*
X00244657Y00212659D01*
X00244637Y00212620D01*
X00244618Y00212581D01*
X00244598Y00212522D01*
X00244559Y00212454D01*
X00244481Y00212308D01*
X00244374Y00212142D01*
X00244247Y00211976D01*
X00244091Y00211810D01*
X00243916Y00211664D01*
X00243906D01*
X00243896Y00211645D01*
X00243867Y00211635D01*
X00243828Y00211606D01*
X00243779Y00211586D01*
X00243711Y00211557D01*
X00243564Y00211488D01*
X00243379Y00211420D01*
X00243165Y00211371D01*
X00242921Y00211332D01*
X00242648Y00211313D01*
X00242599D01*
X00242531Y00211323D01*
X00242453D01*
X00242345Y00211342D01*
X00242238Y00211352D01*
X00242111Y00211381D01*
X00241975Y00211411D01*
X00241828Y00211450D01*
X00241682Y00211508D01*
X00241526Y00211567D01*
X00241380Y00211645D01*
X00241233Y00211732D01*
X00241097Y00211840D01*
X00240970Y00211966D01*
X00240853Y00212103D01*
Y00212113D01*
X00240833Y00212132D01*
X00240814Y00212171D01*
X00240785Y00212220D01*
X00240746Y00212279D01*
X00240707Y00212357D01*
X00240668Y00212444D01*
X00240629Y00212542D01*
X00240590Y00212649D01*
X00240551Y00212776D01*
X00240512Y00212903D01*
X00240473Y00213049D01*
X00240424Y00213361D01*
X00240414Y00213527D01*
X00240404Y00213703D01*
Y00213712D01*
Y00213751D01*
Y00213810D01*
X00240414Y00213898D01*
X00240424Y00213985D01*
X00240434Y00214102D01*
X00240453Y00214229D01*
X00240482Y00214356D01*
X00240551Y00214649D01*
X00240599Y00214795D01*
X00240658Y00214951D01*
X00240726Y00215097D01*
X00240804Y00215244D01*
X00240892Y00215380D01*
X00240999Y00215507D01*
X00241009Y00215517D01*
X00241028Y00215536D01*
X00241058Y00215565D01*
X00241107Y00215614D01*
X00241165Y00215663D01*
X00241243Y00215722D01*
X00241321Y00215780D01*
X00241419Y00215839D01*
X00241526Y00215897D01*
X00241633Y00215965D01*
X00241760Y00216014D01*
X00241897Y00216063D01*
X00242043Y00216112D01*
X00242189Y00216141D01*
X00242355Y00216161D01*
X00242521Y00216170D01*
X00242618D01*
X00242696Y00216161D01*
D02*
G37*
G36*
X00229062Y00396850D02*
X00227833D01*
Y00403258D01*
X00229062D01*
Y00396850D01*
D02*
G37*
G36*
X00205966Y00403268D02*
X00206044Y00403258D01*
X00206141Y00403248D01*
X00206239Y00403239D01*
X00206356Y00403209D01*
X00206590Y00403151D01*
X00206843Y00403063D01*
X00206960Y00403004D01*
X00207087Y00402936D01*
X00207194Y00402849D01*
X00207302Y00402761D01*
X00207311Y00402751D01*
X00207321Y00402741D01*
X00207351Y00402712D01*
X00207390Y00402673D01*
X00207429Y00402624D01*
X00207477Y00402556D01*
X00207575Y00402410D01*
X00207672Y00402224D01*
X00207760Y00402010D01*
X00207829Y00401766D01*
X00207838Y00401629D01*
X00207848Y00401493D01*
Y00401473D01*
Y00401424D01*
X00207838Y00401337D01*
X00207829Y00401229D01*
X00207809Y00401103D01*
X00207780Y00400966D01*
X00207741Y00400810D01*
X00207692Y00400664D01*
X00207682Y00400644D01*
X00207663Y00400595D01*
X00207624Y00400517D01*
X00207575Y00400420D01*
X00207507Y00400293D01*
X00207419Y00400157D01*
X00207311Y00400010D01*
X00207194Y00399854D01*
X00207185Y00399844D01*
X00207155Y00399805D01*
X00207097Y00399737D01*
X00207009Y00399649D01*
X00206902Y00399532D01*
X00206756Y00399386D01*
X00206590Y00399220D01*
X00206385Y00399035D01*
X00206375Y00399025D01*
X00206356Y00399015D01*
X00206326Y00398986D01*
X00206297Y00398947D01*
X00206200Y00398859D01*
X00206083Y00398742D01*
X00205956Y00398625D01*
X00205839Y00398508D01*
X00205732Y00398401D01*
X00205693Y00398362D01*
X00205653Y00398323D01*
X00205644Y00398313D01*
X00205624Y00398293D01*
X00205595Y00398264D01*
X00205566Y00398215D01*
X00205478Y00398118D01*
X00205400Y00397991D01*
X00207848D01*
Y00396850D01*
X00203547D01*
Y00396860D01*
Y00396879D01*
X00203556Y00396918D01*
X00203566Y00396957D01*
X00203576Y00397016D01*
X00203586Y00397084D01*
X00203625Y00397240D01*
X00203673Y00397435D01*
X00203752Y00397640D01*
X00203839Y00397855D01*
X00203956Y00398069D01*
Y00398079D01*
X00203976Y00398098D01*
X00203995Y00398128D01*
X00204025Y00398176D01*
X00204073Y00398235D01*
X00204122Y00398303D01*
X00204190Y00398391D01*
X00204259Y00398479D01*
X00204347Y00398586D01*
X00204454Y00398703D01*
X00204561Y00398830D01*
X00204688Y00398966D01*
X00204834Y00399113D01*
X00204980Y00399269D01*
X00205156Y00399435D01*
X00205341Y00399610D01*
X00205351Y00399620D01*
X00205380Y00399640D01*
X00205419Y00399688D01*
X00205478Y00399737D01*
X00205536Y00399796D01*
X00205614Y00399874D01*
X00205780Y00400030D01*
X00205956Y00400205D01*
X00206122Y00400381D01*
X00206200Y00400459D01*
X00206268Y00400527D01*
X00206326Y00400595D01*
X00206365Y00400654D01*
X00206375Y00400673D01*
X00206404Y00400722D01*
X00206444Y00400790D01*
X00206492Y00400888D01*
X00206541Y00401005D01*
X00206580Y00401132D01*
X00206609Y00401268D01*
X00206619Y00401405D01*
Y00401424D01*
Y00401473D01*
X00206609Y00401551D01*
X00206590Y00401639D01*
X00206560Y00401737D01*
X00206521Y00401844D01*
X00206473Y00401951D01*
X00206395Y00402039D01*
X00206385Y00402049D01*
X00206356Y00402078D01*
X00206307Y00402107D01*
X00206239Y00402156D01*
X00206151Y00402195D01*
X00206044Y00402224D01*
X00205917Y00402253D01*
X00205780Y00402263D01*
X00205722D01*
X00205644Y00402253D01*
X00205566Y00402234D01*
X00205468Y00402205D01*
X00205361Y00402166D01*
X00205263Y00402107D01*
X00205166Y00402029D01*
X00205156Y00402019D01*
X00205127Y00401980D01*
X00205098Y00401932D01*
X00205049Y00401844D01*
X00205010Y00401737D01*
X00204961Y00401610D01*
X00204932Y00401444D01*
X00204912Y00401259D01*
X00203693Y00401376D01*
Y00401385D01*
X00203703Y00401424D01*
Y00401473D01*
X00203722Y00401541D01*
X00203732Y00401629D01*
X00203761Y00401717D01*
X00203781Y00401824D01*
X00203820Y00401941D01*
X00203908Y00402175D01*
X00204025Y00402419D01*
X00204103Y00402536D01*
X00204181Y00402644D01*
X00204278Y00402741D01*
X00204376Y00402829D01*
X00204386Y00402839D01*
X00204405Y00402849D01*
X00204434Y00402868D01*
X00204483Y00402897D01*
X00204532Y00402936D01*
X00204600Y00402975D01*
X00204678Y00403014D01*
X00204776Y00403053D01*
X00204873Y00403092D01*
X00204980Y00403131D01*
X00205224Y00403209D01*
X00205497Y00403258D01*
X00205653Y00403278D01*
X00205897D01*
X00205966Y00403268D01*
D02*
G37*
G36*
X00211320Y00396850D02*
X00210218D01*
X00208345Y00401493D01*
X00209633D01*
X00210511Y00399123D01*
X00210764Y00398323D01*
Y00398333D01*
X00210784Y00398372D01*
X00210794Y00398420D01*
X00210813Y00398489D01*
X00210862Y00398615D01*
X00210881Y00398674D01*
X00210891Y00398723D01*
Y00398732D01*
X00210901Y00398752D01*
X00210911Y00398791D01*
X00210930Y00398849D01*
X00210969Y00398976D01*
X00211018Y00399123D01*
X00211905Y00401493D01*
X00213164D01*
X00211320Y00396850D01*
D02*
G37*
G36*
X00247448D02*
X00246219D01*
Y00401493D01*
X00247448D01*
Y00396850D01*
D02*
G37*
G36*
X00232251Y00401581D02*
X00232339Y00401571D01*
X00232437Y00401551D01*
X00232554Y00401532D01*
X00232671Y00401502D01*
X00232798Y00401464D01*
X00232934Y00401424D01*
X00233071Y00401366D01*
X00233207Y00401298D01*
X00233344Y00401220D01*
X00233471Y00401122D01*
X00233598Y00401025D01*
X00233715Y00400898D01*
X00233724Y00400888D01*
X00233744Y00400868D01*
X00233773Y00400830D01*
X00233812Y00400771D01*
X00233851Y00400693D01*
X00233900Y00400605D01*
X00233958Y00400508D01*
X00234007Y00400381D01*
X00234066Y00400244D01*
X00234114Y00400088D01*
X00234163Y00399913D01*
X00234212Y00399727D01*
X00234241Y00399523D01*
X00234270Y00399308D01*
X00234290Y00399064D01*
Y00398811D01*
X00231218D01*
Y00398801D01*
Y00398791D01*
Y00398762D01*
X00231227Y00398723D01*
X00231237Y00398615D01*
X00231257Y00398498D01*
X00231296Y00398352D01*
X00231344Y00398215D01*
X00231413Y00398079D01*
X00231510Y00397952D01*
X00231520Y00397942D01*
X00231559Y00397903D01*
X00231618Y00397855D01*
X00231705Y00397806D01*
X00231803Y00397747D01*
X00231930Y00397699D01*
X00232066Y00397660D01*
X00232213Y00397650D01*
X00232261D01*
X00232320Y00397660D01*
X00232388Y00397669D01*
X00232456Y00397689D01*
X00232544Y00397718D01*
X00232622Y00397757D01*
X00232700Y00397806D01*
X00232710Y00397816D01*
X00232729Y00397835D01*
X00232768Y00397874D01*
X00232808Y00397933D01*
X00232856Y00398001D01*
X00232915Y00398089D01*
X00232964Y00398186D01*
X00233002Y00398313D01*
X00234222Y00398108D01*
Y00398098D01*
X00234212Y00398079D01*
X00234193Y00398040D01*
X00234173Y00398001D01*
X00234153Y00397942D01*
X00234114Y00397874D01*
X00234036Y00397728D01*
X00233929Y00397562D01*
X00233802Y00397396D01*
X00233646Y00397230D01*
X00233471Y00397084D01*
X00233461D01*
X00233451Y00397065D01*
X00233422Y00397055D01*
X00233383Y00397026D01*
X00233334Y00397006D01*
X00233266Y00396977D01*
X00233120Y00396908D01*
X00232934Y00396840D01*
X00232720Y00396791D01*
X00232476Y00396753D01*
X00232203Y00396733D01*
X00232154D01*
X00232086Y00396743D01*
X00232008D01*
X00231900Y00396762D01*
X00231793Y00396772D01*
X00231666Y00396801D01*
X00231530Y00396830D01*
X00231383Y00396870D01*
X00231237Y00396928D01*
X00231081Y00396987D01*
X00230935Y00397065D01*
X00230788Y00397152D01*
X00230652Y00397260D01*
X00230525Y00397387D01*
X00230408Y00397523D01*
Y00397533D01*
X00230389Y00397552D01*
X00230369Y00397591D01*
X00230340Y00397640D01*
X00230301Y00397699D01*
X00230262Y00397777D01*
X00230223Y00397864D01*
X00230184Y00397962D01*
X00230145Y00398069D01*
X00230106Y00398196D01*
X00230067Y00398323D01*
X00230028Y00398469D01*
X00229979Y00398781D01*
X00229969Y00398947D01*
X00229959Y00399123D01*
Y00399132D01*
Y00399171D01*
Y00399230D01*
X00229969Y00399318D01*
X00229979Y00399405D01*
X00229989Y00399523D01*
X00230008Y00399649D01*
X00230037Y00399776D01*
X00230106Y00400069D01*
X00230154Y00400215D01*
X00230213Y00400371D01*
X00230281Y00400517D01*
X00230359Y00400664D01*
X00230447Y00400800D01*
X00230554Y00400927D01*
X00230564Y00400937D01*
X00230584Y00400956D01*
X00230613Y00400985D01*
X00230662Y00401034D01*
X00230720Y00401083D01*
X00230798Y00401142D01*
X00230876Y00401200D01*
X00230974Y00401259D01*
X00231081Y00401317D01*
X00231188Y00401385D01*
X00231315Y00401434D01*
X00231452Y00401483D01*
X00231598Y00401532D01*
X00231744Y00401561D01*
X00231910Y00401581D01*
X00232076Y00401590D01*
X00232174D01*
X00232251Y00401581D01*
D02*
G37*
G36*
X00224644D02*
X00224732Y00401571D01*
X00224839Y00401551D01*
X00224946Y00401532D01*
X00225073Y00401502D01*
X00225209Y00401464D01*
X00225346Y00401424D01*
X00225492Y00401366D01*
X00225629Y00401298D01*
X00225775Y00401220D01*
X00225921Y00401122D01*
X00226058Y00401025D01*
X00226185Y00400898D01*
X00226194Y00400888D01*
X00226214Y00400868D01*
X00226243Y00400830D01*
X00226292Y00400771D01*
X00226341Y00400712D01*
X00226399Y00400625D01*
X00226458Y00400537D01*
X00226526Y00400430D01*
X00226585Y00400303D01*
X00226643Y00400176D01*
X00226702Y00400030D01*
X00226751Y00399883D01*
X00226799Y00399718D01*
X00226828Y00399542D01*
X00226848Y00399366D01*
X00226858Y00399171D01*
Y00399162D01*
Y00399123D01*
Y00399074D01*
X00226848Y00398996D01*
X00226838Y00398908D01*
X00226819Y00398801D01*
X00226799Y00398684D01*
X00226770Y00398557D01*
X00226741Y00398420D01*
X00226692Y00398284D01*
X00226633Y00398138D01*
X00226575Y00397991D01*
X00226487Y00397845D01*
X00226399Y00397699D01*
X00226292Y00397562D01*
X00226175Y00397425D01*
X00226165Y00397416D01*
X00226146Y00397396D01*
X00226107Y00397357D01*
X00226058Y00397318D01*
X00225990Y00397269D01*
X00225912Y00397211D01*
X00225814Y00397143D01*
X00225707Y00397084D01*
X00225590Y00397016D01*
X00225463Y00396948D01*
X00225326Y00396889D01*
X00225170Y00396840D01*
X00225014Y00396801D01*
X00224839Y00396762D01*
X00224653Y00396743D01*
X00224468Y00396733D01*
X00224361D01*
X00224302Y00396743D01*
X00224234Y00396753D01*
X00224078Y00396772D01*
X00223893Y00396801D01*
X00223688Y00396850D01*
X00223473Y00396918D01*
X00223259Y00397016D01*
X00223249D01*
X00223229Y00397026D01*
X00223200Y00397045D01*
X00223161Y00397074D01*
X00223064Y00397143D01*
X00222937Y00397230D01*
X00222791Y00397347D01*
X00222644Y00397494D01*
X00222508Y00397669D01*
X00222381Y00397864D01*
Y00397874D01*
X00222371Y00397894D01*
X00222352Y00397923D01*
X00222332Y00397962D01*
X00222313Y00398020D01*
X00222293Y00398079D01*
X00222264Y00398157D01*
X00222235Y00398245D01*
X00222186Y00398440D01*
X00222137Y00398674D01*
X00222098Y00398937D01*
X00222088Y00399220D01*
Y00399230D01*
Y00399249D01*
Y00399279D01*
X00222098Y00399327D01*
Y00399376D01*
X00222108Y00399445D01*
X00222127Y00399600D01*
X00222157Y00399786D01*
X00222215Y00399981D01*
X00222283Y00400196D01*
X00222381Y00400410D01*
Y00400420D01*
X00222391Y00400439D01*
X00222410Y00400469D01*
X00222439Y00400508D01*
X00222508Y00400605D01*
X00222605Y00400732D01*
X00222722Y00400878D01*
X00222868Y00401025D01*
X00223034Y00401161D01*
X00223229Y00401288D01*
X00223239D01*
X00223259Y00401298D01*
X00223288Y00401317D01*
X00223327Y00401337D01*
X00223376Y00401356D01*
X00223444Y00401385D01*
X00223590Y00401444D01*
X00223776Y00401493D01*
X00223990Y00401541D01*
X00224214Y00401581D01*
X00224468Y00401590D01*
X00224566D01*
X00224644Y00401581D01*
D02*
G37*
G36*
X00201879Y00396850D02*
X00200650D01*
Y00401473D01*
X00200640Y00401464D01*
X00200621Y00401444D01*
X00200582Y00401415D01*
X00200533Y00401366D01*
X00200464Y00401317D01*
X00200387Y00401259D01*
X00200299Y00401190D01*
X00200191Y00401122D01*
X00200084Y00401044D01*
X00199957Y00400966D01*
X00199694Y00400820D01*
X00199392Y00400673D01*
X00199060Y00400547D01*
Y00401659D01*
X00199070D01*
X00199079Y00401668D01*
X00199109Y00401678D01*
X00199148Y00401688D01*
X00199245Y00401727D01*
X00199372Y00401795D01*
X00199528Y00401873D01*
X00199704Y00401980D01*
X00199899Y00402097D01*
X00200104Y00402253D01*
X00200113Y00402263D01*
X00200133Y00402273D01*
X00200162Y00402302D01*
X00200191Y00402332D01*
X00200289Y00402419D01*
X00200416Y00402546D01*
X00200543Y00402692D01*
X00200669Y00402868D01*
X00200786Y00403063D01*
X00200874Y00403278D01*
X00201879D01*
Y00396850D01*
D02*
G37*
G36*
X00243029Y00401581D02*
X00243117Y00401571D01*
X00243224Y00401551D01*
X00243332Y00401532D01*
X00243458Y00401502D01*
X00243595Y00401464D01*
X00243731Y00401424D01*
X00243878Y00401366D01*
X00244014Y00401298D01*
X00244161Y00401220D01*
X00244307Y00401122D01*
X00244443Y00401025D01*
X00244570Y00400898D01*
X00244580Y00400888D01*
X00244600Y00400868D01*
X00244629Y00400830D01*
X00244678Y00400771D01*
X00244726Y00400712D01*
X00244785Y00400625D01*
X00244843Y00400537D01*
X00244912Y00400430D01*
X00244970Y00400303D01*
X00245029Y00400176D01*
X00245087Y00400030D01*
X00245136Y00399883D01*
X00245185Y00399718D01*
X00245214Y00399542D01*
X00245233Y00399366D01*
X00245243Y00399171D01*
Y00399162D01*
Y00399123D01*
Y00399074D01*
X00245233Y00398996D01*
X00245224Y00398908D01*
X00245204Y00398801D01*
X00245185Y00398684D01*
X00245156Y00398557D01*
X00245126Y00398420D01*
X00245077Y00398284D01*
X00245019Y00398138D01*
X00244960Y00397991D01*
X00244873Y00397845D01*
X00244785Y00397699D01*
X00244678Y00397562D01*
X00244561Y00397425D01*
X00244551Y00397416D01*
X00244531Y00397396D01*
X00244492Y00397357D01*
X00244443Y00397318D01*
X00244375Y00397269D01*
X00244297Y00397211D01*
X00244200Y00397143D01*
X00244092Y00397084D01*
X00243975Y00397016D01*
X00243848Y00396948D01*
X00243712Y00396889D01*
X00243556Y00396840D01*
X00243400Y00396801D01*
X00243224Y00396762D01*
X00243039Y00396743D01*
X00242854Y00396733D01*
X00242746D01*
X00242688Y00396743D01*
X00242620Y00396753D01*
X00242463Y00396772D01*
X00242278Y00396801D01*
X00242073Y00396850D01*
X00241859Y00396918D01*
X00241644Y00397016D01*
X00241635D01*
X00241615Y00397026D01*
X00241586Y00397045D01*
X00241547Y00397074D01*
X00241449Y00397143D01*
X00241322Y00397230D01*
X00241176Y00397347D01*
X00241030Y00397494D01*
X00240893Y00397669D01*
X00240766Y00397864D01*
Y00397874D01*
X00240757Y00397894D01*
X00240737Y00397923D01*
X00240718Y00397962D01*
X00240698Y00398020D01*
X00240679Y00398079D01*
X00240649Y00398157D01*
X00240620Y00398245D01*
X00240571Y00398440D01*
X00240523Y00398674D01*
X00240483Y00398937D01*
X00240474Y00399220D01*
Y00399230D01*
Y00399249D01*
Y00399279D01*
X00240483Y00399327D01*
Y00399376D01*
X00240493Y00399445D01*
X00240513Y00399600D01*
X00240542Y00399786D01*
X00240601Y00399981D01*
X00240669Y00400196D01*
X00240766Y00400410D01*
Y00400420D01*
X00240776Y00400439D01*
X00240796Y00400469D01*
X00240825Y00400508D01*
X00240893Y00400605D01*
X00240991Y00400732D01*
X00241108Y00400878D01*
X00241254Y00401025D01*
X00241420Y00401161D01*
X00241615Y00401288D01*
X00241625D01*
X00241644Y00401298D01*
X00241674Y00401317D01*
X00241712Y00401337D01*
X00241761Y00401356D01*
X00241829Y00401385D01*
X00241976Y00401444D01*
X00242161Y00401493D01*
X00242376Y00401541D01*
X00242600Y00401581D01*
X00242854Y00401590D01*
X00242951D01*
X00243029Y00401581D01*
D02*
G37*
G36*
X00330264Y00297284D02*
X00330352Y00297274D01*
X00330459Y00297255D01*
X00330576Y00297235D01*
X00330703Y00297206D01*
X00330840Y00297177D01*
X00330976Y00297128D01*
X00331123Y00297069D01*
X00331269Y00297011D01*
X00331415Y00296923D01*
X00331561Y00296835D01*
X00331698Y00296728D01*
X00331834Y00296611D01*
X00331844Y00296601D01*
X00331864Y00296582D01*
X00331903Y00296543D01*
X00331942Y00296494D01*
X00331991Y00296426D01*
X00332049Y00296348D01*
X00332117Y00296250D01*
X00332176Y00296143D01*
X00332244Y00296026D01*
X00332313Y00295899D01*
X00332371Y00295763D01*
X00332420Y00295606D01*
X00332459Y00295450D01*
X00332498Y00295275D01*
X00332517Y00295089D01*
X00332527Y00294904D01*
Y00294894D01*
Y00294875D01*
Y00294846D01*
Y00294797D01*
X00332517Y00294738D01*
X00332508Y00294670D01*
X00332488Y00294514D01*
X00332459Y00294329D01*
X00332410Y00294124D01*
X00332342Y00293909D01*
X00332244Y00293695D01*
Y00293685D01*
X00332234Y00293666D01*
X00332215Y00293636D01*
X00332186Y00293597D01*
X00332117Y00293500D01*
X00332030Y00293373D01*
X00331913Y00293227D01*
X00331766Y00293080D01*
X00331591Y00292944D01*
X00331396Y00292817D01*
X00331386D01*
X00331366Y00292807D01*
X00331337Y00292788D01*
X00331298Y00292768D01*
X00331240Y00292749D01*
X00331181Y00292729D01*
X00331103Y00292700D01*
X00331015Y00292671D01*
X00330820Y00292622D01*
X00330586Y00292573D01*
X00330323Y00292534D01*
X00330040Y00292524D01*
X00329981D01*
X00329933Y00292534D01*
X00329884D01*
X00329815Y00292544D01*
X00329660Y00292563D01*
X00329474Y00292593D01*
X00329279Y00292651D01*
X00329064Y00292719D01*
X00328850Y00292817D01*
X00328840D01*
X00328821Y00292827D01*
X00328791Y00292846D01*
X00328752Y00292875D01*
X00328655Y00292944D01*
X00328528Y00293041D01*
X00328382Y00293158D01*
X00328236Y00293305D01*
X00328099Y00293470D01*
X00327972Y00293666D01*
Y00293675D01*
X00327962Y00293695D01*
X00327943Y00293724D01*
X00327923Y00293763D01*
X00327904Y00293812D01*
X00327875Y00293880D01*
X00327816Y00294026D01*
X00327767Y00294212D01*
X00327719Y00294426D01*
X00327679Y00294651D01*
X00327670Y00294904D01*
Y00294914D01*
Y00294953D01*
Y00295002D01*
X00327679Y00295080D01*
X00327689Y00295168D01*
X00327709Y00295275D01*
X00327728Y00295382D01*
X00327757Y00295509D01*
X00327797Y00295645D01*
X00327836Y00295782D01*
X00327894Y00295928D01*
X00327962Y00296065D01*
X00328040Y00296211D01*
X00328138Y00296357D01*
X00328236Y00296494D01*
X00328362Y00296621D01*
X00328372Y00296630D01*
X00328391Y00296650D01*
X00328430Y00296679D01*
X00328489Y00296728D01*
X00328548Y00296777D01*
X00328635Y00296835D01*
X00328723Y00296894D01*
X00328830Y00296962D01*
X00328957Y00297021D01*
X00329084Y00297079D01*
X00329230Y00297138D01*
X00329377Y00297187D01*
X00329542Y00297235D01*
X00329718Y00297264D01*
X00329894Y00297284D01*
X00330089Y00297294D01*
X00330186D01*
X00330264Y00297284D01*
D02*
G37*
G36*
X00329474Y00291705D02*
X00329552D01*
X00329738Y00291686D01*
X00329952Y00291666D01*
X00330176Y00291627D01*
X00330410Y00291578D01*
X00330635Y00291510D01*
X00330645D01*
X00330664Y00291500D01*
X00330703Y00291490D01*
X00330752Y00291471D01*
X00330810Y00291442D01*
X00330879Y00291412D01*
X00331035Y00291334D01*
X00331220Y00291237D01*
X00331405Y00291120D01*
X00331591Y00290983D01*
X00331766Y00290827D01*
X00331776Y00290808D01*
X00331825Y00290769D01*
X00331883Y00290691D01*
X00331952Y00290593D01*
X00332039Y00290457D01*
X00332127Y00290301D01*
X00332205Y00290125D01*
X00332283Y00289920D01*
X00332293Y00289901D01*
X00332303Y00289842D01*
X00332322Y00289754D01*
X00332342Y00289618D01*
X00332371Y00289462D01*
X00332391Y00289267D01*
X00332400Y00289032D01*
X00332410Y00288779D01*
Y00286360D01*
X00326002D01*
Y00288711D01*
Y00288720D01*
Y00288750D01*
Y00288789D01*
Y00288847D01*
Y00288906D01*
X00326012Y00288984D01*
X00326021Y00289159D01*
X00326031Y00289364D01*
X00326051Y00289559D01*
X00326090Y00289754D01*
X00326129Y00289930D01*
Y00289940D01*
X00326138Y00289959D01*
X00326148Y00289988D01*
X00326158Y00290027D01*
X00326207Y00290125D01*
X00326265Y00290261D01*
X00326343Y00290408D01*
X00326451Y00290564D01*
X00326577Y00290730D01*
X00326724Y00290886D01*
Y00290895D01*
X00326743Y00290905D01*
X00326802Y00290954D01*
X00326889Y00291022D01*
X00327006Y00291120D01*
X00327163Y00291217D01*
X00327338Y00291315D01*
X00327533Y00291412D01*
X00327757Y00291500D01*
X00327767D01*
X00327787Y00291510D01*
X00327816Y00291520D01*
X00327865Y00291529D01*
X00327923Y00291549D01*
X00328001Y00291568D01*
X00328079Y00291588D01*
X00328177Y00291607D01*
X00328284Y00291627D01*
X00328391Y00291646D01*
X00328655Y00291686D01*
X00328947Y00291705D01*
X00329269Y00291715D01*
X00329406D01*
X00329474Y00291705D01*
D02*
G37*
G36*
X00328977Y00306306D02*
X00328967Y00306296D01*
X00328947Y00306257D01*
X00328909Y00306189D01*
X00328869Y00306121D01*
X00328840Y00306023D01*
X00328801Y00305926D01*
X00328782Y00305828D01*
X00328772Y00305721D01*
Y00305711D01*
Y00305682D01*
X00328782Y00305633D01*
X00328791Y00305575D01*
X00328811Y00305506D01*
X00328830Y00305428D01*
X00328869Y00305350D01*
X00328918Y00305282D01*
X00328928Y00305272D01*
X00328947Y00305253D01*
X00328987Y00305224D01*
X00329035Y00305184D01*
X00329104Y00305136D01*
X00329201Y00305087D01*
X00329308Y00305038D01*
X00329435Y00304999D01*
X00329455D01*
X00329474Y00304989D01*
X00329513Y00304980D01*
X00329552D01*
X00329611Y00304970D01*
X00329689Y00304960D01*
X00329767Y00304950D01*
X00329864Y00304941D01*
X00329972Y00304931D01*
X00330098Y00304921D01*
X00330245D01*
X00330401Y00304911D01*
X00330576Y00304902D01*
X00332410D01*
Y00303673D01*
X00327767D01*
Y00304814D01*
X00328421D01*
X00328411Y00304824D01*
X00328353Y00304863D01*
X00328274Y00304921D01*
X00328177Y00304989D01*
X00328070Y00305067D01*
X00327972Y00305155D01*
X00327884Y00305253D01*
X00327816Y00305340D01*
X00327806Y00305350D01*
X00327797Y00305380D01*
X00327767Y00305428D01*
X00327738Y00305497D01*
X00327719Y00305575D01*
X00327689Y00305662D01*
X00327679Y00305760D01*
X00327670Y00305867D01*
Y00305877D01*
Y00305887D01*
Y00305935D01*
X00327679Y00306023D01*
X00327699Y00306131D01*
X00327728Y00306248D01*
X00327767Y00306394D01*
X00327826Y00306540D01*
X00327904Y00306686D01*
X00328977Y00306306D01*
D02*
G37*
G36*
X00330264Y00302746D02*
X00330352Y00302736D01*
X00330459Y00302717D01*
X00330576Y00302697D01*
X00330703Y00302668D01*
X00330840Y00302639D01*
X00330976Y00302590D01*
X00331123Y00302532D01*
X00331269Y00302473D01*
X00331415Y00302385D01*
X00331561Y00302297D01*
X00331698Y00302190D01*
X00331834Y00302073D01*
X00331844Y00302063D01*
X00331864Y00302044D01*
X00331903Y00302005D01*
X00331942Y00301956D01*
X00331991Y00301888D01*
X00332049Y00301810D01*
X00332117Y00301712D01*
X00332176Y00301605D01*
X00332244Y00301488D01*
X00332313Y00301361D01*
X00332371Y00301224D01*
X00332420Y00301068D01*
X00332459Y00300912D01*
X00332498Y00300737D01*
X00332517Y00300551D01*
X00332527Y00300366D01*
Y00300356D01*
Y00300337D01*
Y00300308D01*
Y00300259D01*
X00332517Y00300200D01*
X00332508Y00300132D01*
X00332488Y00299976D01*
X00332459Y00299791D01*
X00332410Y00299586D01*
X00332342Y00299371D01*
X00332244Y00299157D01*
Y00299147D01*
X00332234Y00299128D01*
X00332215Y00299098D01*
X00332186Y00299059D01*
X00332117Y00298962D01*
X00332030Y00298835D01*
X00331913Y00298689D01*
X00331766Y00298542D01*
X00331591Y00298406D01*
X00331396Y00298279D01*
X00331386D01*
X00331366Y00298269D01*
X00331337Y00298250D01*
X00331298Y00298230D01*
X00331240Y00298211D01*
X00331181Y00298191D01*
X00331103Y00298162D01*
X00331015Y00298133D01*
X00330820Y00298084D01*
X00330586Y00298035D01*
X00330323Y00297996D01*
X00330040Y00297986D01*
X00329981D01*
X00329933Y00297996D01*
X00329884D01*
X00329815Y00298006D01*
X00329660Y00298025D01*
X00329474Y00298055D01*
X00329279Y00298113D01*
X00329064Y00298181D01*
X00328850Y00298279D01*
X00328840D01*
X00328821Y00298289D01*
X00328791Y00298308D01*
X00328752Y00298337D01*
X00328655Y00298406D01*
X00328528Y00298503D01*
X00328382Y00298620D01*
X00328236Y00298767D01*
X00328099Y00298932D01*
X00327972Y00299128D01*
Y00299137D01*
X00327962Y00299157D01*
X00327943Y00299186D01*
X00327923Y00299225D01*
X00327904Y00299274D01*
X00327875Y00299342D01*
X00327816Y00299488D01*
X00327767Y00299674D01*
X00327719Y00299888D01*
X00327679Y00300113D01*
X00327670Y00300366D01*
Y00300376D01*
Y00300415D01*
Y00300464D01*
X00327679Y00300542D01*
X00327689Y00300630D01*
X00327709Y00300737D01*
X00327728Y00300844D01*
X00327757Y00300971D01*
X00327797Y00301107D01*
X00327836Y00301244D01*
X00327894Y00301390D01*
X00327962Y00301527D01*
X00328040Y00301673D01*
X00328138Y00301819D01*
X00328236Y00301956D01*
X00328362Y00302083D01*
X00328372Y00302093D01*
X00328391Y00302112D01*
X00328430Y00302141D01*
X00328489Y00302190D01*
X00328548Y00302239D01*
X00328635Y00302297D01*
X00328723Y00302356D01*
X00328830Y00302424D01*
X00328957Y00302483D01*
X00329084Y00302541D01*
X00329230Y00302600D01*
X00329377Y00302649D01*
X00329542Y00302697D01*
X00329718Y00302726D01*
X00329894Y00302746D01*
X00330089Y00302756D01*
X00330186D01*
X00330264Y00302746D01*
D02*
G37*
G36*
X00252958Y00396850D02*
X00251817D01*
Y00397523D01*
X00251807Y00397504D01*
X00251768Y00397455D01*
X00251700Y00397387D01*
X00251622Y00397299D01*
X00251525Y00397211D01*
X00251408Y00397104D01*
X00251281Y00397016D01*
X00251134Y00396928D01*
X00251115Y00396918D01*
X00251066Y00396899D01*
X00250998Y00396870D01*
X00250900Y00396830D01*
X00250783Y00396791D01*
X00250647Y00396762D01*
X00250510Y00396743D01*
X00250364Y00396733D01*
X00250286D01*
X00250227Y00396743D01*
X00250159Y00396753D01*
X00250081Y00396772D01*
X00249896Y00396811D01*
X00249681Y00396889D01*
X00249564Y00396938D01*
X00249447Y00397006D01*
X00249330Y00397074D01*
X00249223Y00397162D01*
X00249106Y00397260D01*
X00248998Y00397377D01*
X00248989Y00397387D01*
X00248979Y00397406D01*
X00248950Y00397445D01*
X00248911Y00397494D01*
X00248872Y00397562D01*
X00248823Y00397640D01*
X00248764Y00397738D01*
X00248716Y00397845D01*
X00248667Y00397962D01*
X00248608Y00398098D01*
X00248559Y00398245D01*
X00248521Y00398411D01*
X00248482Y00398576D01*
X00248462Y00398762D01*
X00248442Y00398966D01*
X00248433Y00399171D01*
Y00399181D01*
Y00399220D01*
Y00399288D01*
X00248442Y00399366D01*
X00248452Y00399464D01*
X00248462Y00399581D01*
X00248482Y00399708D01*
X00248501Y00399835D01*
X00248569Y00400127D01*
X00248667Y00400430D01*
X00248725Y00400576D01*
X00248803Y00400712D01*
X00248881Y00400849D01*
X00248979Y00400966D01*
X00248989Y00400976D01*
X00249008Y00400995D01*
X00249037Y00401025D01*
X00249076Y00401064D01*
X00249135Y00401112D01*
X00249203Y00401161D01*
X00249281Y00401220D01*
X00249359Y00401278D01*
X00249457Y00401337D01*
X00249564Y00401395D01*
X00249808Y00401493D01*
X00249935Y00401532D01*
X00250081Y00401561D01*
X00250227Y00401581D01*
X00250383Y00401590D01*
X00250462D01*
X00250510Y00401581D01*
X00250578Y00401571D01*
X00250657Y00401551D01*
X00250842Y00401512D01*
X00251047Y00401434D01*
X00251164Y00401376D01*
X00251281Y00401317D01*
X00251388Y00401239D01*
X00251505Y00401151D01*
X00251622Y00401054D01*
X00251729Y00400937D01*
Y00403258D01*
X00252958D01*
Y00396850D01*
D02*
G37*
G36*
X00238084Y00401581D02*
X00238182Y00401571D01*
X00238299Y00401551D01*
X00238426Y00401532D01*
X00238552Y00401493D01*
X00238679Y00401444D01*
X00238699Y00401434D01*
X00238738Y00401415D01*
X00238796Y00401385D01*
X00238864Y00401346D01*
X00238952Y00401288D01*
X00239030Y00401220D01*
X00239118Y00401151D01*
X00239186Y00401064D01*
X00239196Y00401054D01*
X00239216Y00401025D01*
X00239245Y00400976D01*
X00239284Y00400917D01*
X00239323Y00400839D01*
X00239362Y00400751D01*
X00239401Y00400654D01*
X00239430Y00400547D01*
Y00400537D01*
X00239440Y00400498D01*
X00239450Y00400430D01*
X00239469Y00400342D01*
X00239479Y00400225D01*
X00239489Y00400078D01*
X00239498Y00399913D01*
Y00399727D01*
Y00396850D01*
X00238270D01*
Y00399210D01*
Y00399220D01*
Y00399240D01*
Y00399279D01*
Y00399327D01*
Y00399396D01*
Y00399464D01*
X00238260Y00399610D01*
X00238250Y00399776D01*
X00238230Y00399932D01*
X00238211Y00400069D01*
X00238201Y00400127D01*
X00238182Y00400176D01*
Y00400186D01*
X00238172Y00400215D01*
X00238152Y00400254D01*
X00238123Y00400303D01*
X00238045Y00400420D01*
X00237928Y00400527D01*
X00237918Y00400537D01*
X00237899Y00400547D01*
X00237860Y00400566D01*
X00237811Y00400595D01*
X00237752Y00400615D01*
X00237675Y00400634D01*
X00237596Y00400644D01*
X00237509Y00400654D01*
X00237450D01*
X00237392Y00400644D01*
X00237314Y00400634D01*
X00237226Y00400615D01*
X00237128Y00400576D01*
X00237031Y00400537D01*
X00236933Y00400478D01*
X00236924Y00400469D01*
X00236894Y00400449D01*
X00236855Y00400410D01*
X00236797Y00400351D01*
X00236748Y00400283D01*
X00236689Y00400205D01*
X00236631Y00400117D01*
X00236592Y00400010D01*
Y00400000D01*
X00236582Y00399952D01*
X00236563Y00399883D01*
X00236553Y00399776D01*
X00236543Y00399708D01*
X00236533Y00399630D01*
X00236524Y00399542D01*
X00236514Y00399445D01*
Y00399337D01*
X00236504Y00399220D01*
Y00399084D01*
Y00398947D01*
Y00396850D01*
X00235275D01*
Y00401493D01*
X00236416D01*
Y00400810D01*
X00236426Y00400820D01*
X00236446Y00400839D01*
X00236475Y00400878D01*
X00236524Y00400937D01*
X00236582Y00400995D01*
X00236660Y00401054D01*
X00236738Y00401132D01*
X00236836Y00401200D01*
X00236943Y00401268D01*
X00237050Y00401346D01*
X00237177Y00401405D01*
X00237314Y00401473D01*
X00237460Y00401522D01*
X00237606Y00401561D01*
X00237772Y00401581D01*
X00237938Y00401590D01*
X00238006D01*
X00238084Y00401581D01*
D02*
G37*
G36*
X00247448Y00402127D02*
X00246219D01*
Y00403258D01*
X00247448D01*
Y00402127D01*
D02*
G37*
G36*
X00218831Y00403356D02*
X00218938Y00403346D01*
X00219055Y00403336D01*
X00219182Y00403317D01*
X00219318Y00403297D01*
X00219611Y00403239D01*
X00219913Y00403141D01*
X00220060Y00403083D01*
X00220196Y00403004D01*
X00220333Y00402926D01*
X00220450Y00402829D01*
X00220459Y00402819D01*
X00220479Y00402800D01*
X00220508Y00402770D01*
X00220547Y00402731D01*
X00220596Y00402683D01*
X00220645Y00402614D01*
X00220703Y00402536D01*
X00220762Y00402449D01*
X00220820Y00402351D01*
X00220869Y00402244D01*
X00220976Y00402010D01*
X00221015Y00401873D01*
X00221054Y00401727D01*
X00221084Y00401571D01*
X00221093Y00401415D01*
X00219796Y00401366D01*
Y00401376D01*
Y00401385D01*
X00219777Y00401444D01*
X00219757Y00401532D01*
X00219718Y00401639D01*
X00219669Y00401756D01*
X00219611Y00401873D01*
X00219533Y00401980D01*
X00219435Y00402068D01*
X00219426Y00402078D01*
X00219387Y00402107D01*
X00219328Y00402136D01*
X00219240Y00402185D01*
X00219123Y00402224D01*
X00218987Y00402253D01*
X00218821Y00402283D01*
X00218626Y00402293D01*
X00218538D01*
X00218431Y00402283D01*
X00218304Y00402263D01*
X00218167Y00402234D01*
X00218021Y00402195D01*
X00217875Y00402136D01*
X00217748Y00402058D01*
X00217738Y00402049D01*
X00217719Y00402029D01*
X00217689Y00402000D01*
X00217650Y00401951D01*
X00217611Y00401893D01*
X00217582Y00401824D01*
X00217563Y00401746D01*
X00217553Y00401659D01*
Y00401649D01*
Y00401619D01*
X00217563Y00401581D01*
X00217572Y00401522D01*
X00217602Y00401464D01*
X00217631Y00401395D01*
X00217680Y00401337D01*
X00217738Y00401268D01*
X00217748Y00401259D01*
X00217787Y00401229D01*
X00217865Y00401190D01*
X00217914Y00401171D01*
X00217982Y00401142D01*
X00218050Y00401103D01*
X00218138Y00401073D01*
X00218226Y00401034D01*
X00218343Y00401005D01*
X00218460Y00400966D01*
X00218596Y00400927D01*
X00218752Y00400878D01*
X00218918Y00400839D01*
X00218928D01*
X00218957Y00400830D01*
X00219006Y00400820D01*
X00219074Y00400800D01*
X00219152Y00400781D01*
X00219240Y00400751D01*
X00219445Y00400703D01*
X00219679Y00400625D01*
X00219903Y00400556D01*
X00220128Y00400469D01*
X00220225Y00400430D01*
X00220313Y00400381D01*
X00220323D01*
X00220333Y00400371D01*
X00220391Y00400342D01*
X00220469Y00400283D01*
X00220567Y00400215D01*
X00220684Y00400117D01*
X00220801Y00400010D01*
X00220908Y00399874D01*
X00221015Y00399727D01*
X00221025Y00399708D01*
X00221054Y00399659D01*
X00221103Y00399562D01*
X00221152Y00399445D01*
X00221191Y00399298D01*
X00221240Y00399123D01*
X00221269Y00398927D01*
X00221279Y00398713D01*
Y00398703D01*
Y00398684D01*
Y00398654D01*
Y00398615D01*
X00221259Y00398508D01*
X00221240Y00398372D01*
X00221201Y00398215D01*
X00221152Y00398040D01*
X00221074Y00397855D01*
X00220967Y00397669D01*
Y00397660D01*
X00220957Y00397650D01*
X00220908Y00397591D01*
X00220840Y00397504D01*
X00220742Y00397406D01*
X00220625Y00397289D01*
X00220469Y00397172D01*
X00220303Y00397055D01*
X00220098Y00396957D01*
X00220089D01*
X00220069Y00396948D01*
X00220040Y00396938D01*
X00220001Y00396918D01*
X00219942Y00396908D01*
X00219884Y00396889D01*
X00219806Y00396870D01*
X00219718Y00396850D01*
X00219513Y00396801D01*
X00219279Y00396772D01*
X00219016Y00396743D01*
X00218713Y00396733D01*
X00218596D01*
X00218509Y00396743D01*
X00218411Y00396753D01*
X00218294Y00396762D01*
X00218167Y00396782D01*
X00218021Y00396801D01*
X00217719Y00396870D01*
X00217563Y00396918D01*
X00217407Y00396967D01*
X00217260Y00397035D01*
X00217114Y00397104D01*
X00216968Y00397191D01*
X00216841Y00397289D01*
X00216831Y00397299D01*
X00216812Y00397318D01*
X00216782Y00397347D01*
X00216733Y00397396D01*
X00216685Y00397455D01*
X00216626Y00397523D01*
X00216568Y00397611D01*
X00216499Y00397699D01*
X00216431Y00397816D01*
X00216363Y00397933D01*
X00216304Y00398069D01*
X00216236Y00398215D01*
X00216187Y00398372D01*
X00216139Y00398547D01*
X00216099Y00398732D01*
X00216070Y00398927D01*
X00217328Y00399054D01*
Y00399045D01*
X00217338Y00399025D01*
Y00398996D01*
X00217348Y00398947D01*
X00217377Y00398840D01*
X00217426Y00398693D01*
X00217485Y00398547D01*
X00217563Y00398391D01*
X00217660Y00398245D01*
X00217777Y00398118D01*
X00217797Y00398108D01*
X00217845Y00398069D01*
X00217924Y00398030D01*
X00218031Y00397972D01*
X00218167Y00397923D01*
X00218323Y00397874D01*
X00218509Y00397835D01*
X00218723Y00397825D01*
X00218831D01*
X00218938Y00397835D01*
X00219074Y00397855D01*
X00219230Y00397894D01*
X00219387Y00397933D01*
X00219533Y00398001D01*
X00219660Y00398089D01*
X00219669Y00398098D01*
X00219708Y00398138D01*
X00219757Y00398186D01*
X00219825Y00398264D01*
X00219884Y00398352D01*
X00219933Y00398459D01*
X00219972Y00398576D01*
X00219981Y00398703D01*
Y00398713D01*
Y00398742D01*
X00219972Y00398781D01*
X00219962Y00398840D01*
X00219923Y00398957D01*
X00219894Y00399025D01*
X00219845Y00399084D01*
X00219835Y00399093D01*
X00219816Y00399113D01*
X00219786Y00399142D01*
X00219738Y00399181D01*
X00219669Y00399230D01*
X00219591Y00399269D01*
X00219494Y00399318D01*
X00219377Y00399366D01*
X00219367D01*
X00219328Y00399386D01*
X00219260Y00399405D01*
X00219162Y00399435D01*
X00219104Y00399454D01*
X00219026Y00399474D01*
X00218948Y00399493D01*
X00218850Y00399523D01*
X00218743Y00399552D01*
X00218626Y00399581D01*
X00218499Y00399610D01*
X00218353Y00399649D01*
X00218343D01*
X00218304Y00399659D01*
X00218255Y00399679D01*
X00218187Y00399698D01*
X00218099Y00399718D01*
X00218001Y00399747D01*
X00217787Y00399825D01*
X00217543Y00399913D01*
X00217299Y00400020D01*
X00217085Y00400147D01*
X00216987Y00400215D01*
X00216899Y00400283D01*
X00216890Y00400293D01*
X00216870Y00400312D01*
X00216841Y00400342D01*
X00216812Y00400381D01*
X00216763Y00400430D01*
X00216714Y00400488D01*
X00216665Y00400566D01*
X00216607Y00400644D01*
X00216499Y00400830D01*
X00216402Y00401054D01*
X00216373Y00401171D01*
X00216343Y00401298D01*
X00216324Y00401434D01*
X00216314Y00401571D01*
Y00401581D01*
Y00401590D01*
Y00401619D01*
Y00401659D01*
X00216334Y00401746D01*
X00216353Y00401873D01*
X00216382Y00402010D01*
X00216431Y00402166D01*
X00216499Y00402322D01*
X00216587Y00402488D01*
Y00402497D01*
X00216597Y00402507D01*
X00216636Y00402556D01*
X00216704Y00402634D01*
X00216792Y00402731D01*
X00216899Y00402839D01*
X00217036Y00402946D01*
X00217192Y00403053D01*
X00217377Y00403141D01*
X00217387D01*
X00217397Y00403151D01*
X00217436Y00403161D01*
X00217475Y00403180D01*
X00217524Y00403190D01*
X00217582Y00403209D01*
X00217728Y00403258D01*
X00217914Y00403297D01*
X00218128Y00403326D01*
X00218372Y00403356D01*
X00218636Y00403365D01*
X00218752D01*
X00218831Y00403356D01*
D02*
G37*
G36*
X00287945Y00262194D02*
X00288033Y00262184D01*
X00288140Y00262164D01*
X00288248Y00262145D01*
X00288374Y00262116D01*
X00288511Y00262077D01*
X00288647Y00262038D01*
X00288794Y00261979D01*
X00288930Y00261911D01*
X00289077Y00261833D01*
X00289223Y00261735D01*
X00289359Y00261638D01*
X00289486Y00261511D01*
X00289496Y00261501D01*
X00289516Y00261482D01*
X00289545Y00261443D01*
X00289594Y00261384D01*
X00289642Y00261326D01*
X00289701Y00261238D01*
X00289759Y00261150D01*
X00289828Y00261043D01*
X00289886Y00260916D01*
X00289945Y00260789D01*
X00290003Y00260643D01*
X00290052Y00260497D01*
X00290101Y00260331D01*
X00290130Y00260155D01*
X00290150Y00259980D01*
X00290159Y00259785D01*
Y00259775D01*
Y00259736D01*
Y00259687D01*
X00290150Y00259609D01*
X00290140Y00259521D01*
X00290120Y00259414D01*
X00290101Y00259297D01*
X00290072Y00259170D01*
X00290042Y00259034D01*
X00289993Y00258897D01*
X00289935Y00258751D01*
X00289876Y00258604D01*
X00289789Y00258458D01*
X00289701Y00258312D01*
X00289594Y00258175D01*
X00289477Y00258039D01*
X00289467Y00258029D01*
X00289447Y00258009D01*
X00289408Y00257970D01*
X00289359Y00257931D01*
X00289291Y00257883D01*
X00289213Y00257824D01*
X00289116Y00257756D01*
X00289008Y00257697D01*
X00288891Y00257629D01*
X00288764Y00257561D01*
X00288628Y00257502D01*
X00288472Y00257453D01*
X00288316Y00257414D01*
X00288140Y00257375D01*
X00287955Y00257356D01*
X00287770Y00257346D01*
X00287662D01*
X00287604Y00257356D01*
X00287536Y00257366D01*
X00287379Y00257385D01*
X00287194Y00257414D01*
X00286989Y00257463D01*
X00286775Y00257531D01*
X00286560Y00257629D01*
X00286551D01*
X00286531Y00257639D01*
X00286502Y00257658D01*
X00286463Y00257687D01*
X00286365Y00257756D01*
X00286238Y00257844D01*
X00286092Y00257961D01*
X00285946Y00258107D01*
X00285809Y00258283D01*
X00285682Y00258477D01*
Y00258487D01*
X00285673Y00258507D01*
X00285653Y00258536D01*
X00285634Y00258575D01*
X00285614Y00258634D01*
X00285595Y00258692D01*
X00285565Y00258770D01*
X00285536Y00258858D01*
X00285487Y00259053D01*
X00285439Y00259287D01*
X00285400Y00259550D01*
X00285390Y00259833D01*
Y00259843D01*
Y00259862D01*
Y00259892D01*
X00285400Y00259941D01*
Y00259989D01*
X00285409Y00260058D01*
X00285429Y00260214D01*
X00285458Y00260399D01*
X00285517Y00260594D01*
X00285585Y00260809D01*
X00285682Y00261023D01*
Y00261033D01*
X00285692Y00261052D01*
X00285712Y00261082D01*
X00285741Y00261121D01*
X00285809Y00261218D01*
X00285907Y00261345D01*
X00286024Y00261491D01*
X00286170Y00261638D01*
X00286336Y00261774D01*
X00286531Y00261901D01*
X00286541D01*
X00286560Y00261911D01*
X00286590Y00261930D01*
X00286628Y00261950D01*
X00286677Y00261969D01*
X00286746Y00261999D01*
X00286892Y00262057D01*
X00287077Y00262106D01*
X00287292Y00262155D01*
X00287516Y00262194D01*
X00287770Y00262203D01*
X00287867D01*
X00287945Y00262194D01*
D02*
G37*
G36*
X00273568Y00257463D02*
X00272164D01*
X00271618Y00258916D01*
X00269033D01*
X00268506Y00257463D01*
X00267141D01*
X00269628Y00263871D01*
X00270993D01*
X00273568Y00257463D01*
D02*
G37*
G36*
X00295329D02*
X00294188D01*
Y00258156D01*
X00294178Y00258136D01*
X00294139Y00258097D01*
X00294090Y00258029D01*
X00294012Y00257941D01*
X00293914Y00257844D01*
X00293797Y00257746D01*
X00293661Y00257649D01*
X00293515Y00257561D01*
X00293495Y00257551D01*
X00293446Y00257531D01*
X00293358Y00257492D01*
X00293251Y00257453D01*
X00293124Y00257414D01*
X00292978Y00257375D01*
X00292812Y00257356D01*
X00292647Y00257346D01*
X00292568D01*
X00292481Y00257356D01*
X00292364Y00257375D01*
X00292237Y00257395D01*
X00292100Y00257434D01*
X00291954Y00257483D01*
X00291808Y00257551D01*
X00291788Y00257561D01*
X00291749Y00257590D01*
X00291681Y00257639D01*
X00291603Y00257697D01*
X00291515Y00257785D01*
X00291427Y00257883D01*
X00291339Y00258000D01*
X00291271Y00258126D01*
X00291262Y00258146D01*
X00291252Y00258195D01*
X00291222Y00258283D01*
X00291193Y00258400D01*
X00291164Y00258546D01*
X00291144Y00258721D01*
X00291125Y00258926D01*
X00291115Y00259160D01*
Y00262106D01*
X00292344D01*
Y00259960D01*
Y00259950D01*
Y00259921D01*
Y00259872D01*
Y00259804D01*
Y00259726D01*
Y00259638D01*
X00292354Y00259443D01*
Y00259229D01*
X00292373Y00259034D01*
Y00258946D01*
X00292383Y00258868D01*
X00292393Y00258799D01*
X00292403Y00258751D01*
Y00258741D01*
X00292412Y00258712D01*
X00292432Y00258673D01*
X00292461Y00258624D01*
X00292539Y00258517D01*
X00292588Y00258458D01*
X00292647Y00258409D01*
X00292656Y00258400D01*
X00292676Y00258390D01*
X00292724Y00258370D01*
X00292773Y00258351D01*
X00292842Y00258321D01*
X00292920Y00258302D01*
X00293007Y00258292D01*
X00293105Y00258283D01*
X00293154D01*
X00293212Y00258292D01*
X00293290Y00258302D01*
X00293378Y00258321D01*
X00293475Y00258351D01*
X00293563Y00258390D01*
X00293661Y00258448D01*
X00293671Y00258458D01*
X00293700Y00258477D01*
X00293749Y00258517D01*
X00293797Y00258565D01*
X00293856Y00258634D01*
X00293914Y00258702D01*
X00293963Y00258790D01*
X00294002Y00258877D01*
Y00258887D01*
X00294022Y00258936D01*
Y00258965D01*
X00294032Y00259014D01*
X00294041Y00259072D01*
X00294051Y00259131D01*
X00294061Y00259209D01*
X00294070Y00259297D01*
X00294080Y00259404D01*
Y00259521D01*
X00294090Y00259648D01*
X00294100Y00259794D01*
Y00259960D01*
Y00260136D01*
Y00262106D01*
X00295329D01*
Y00257463D01*
D02*
G37*
G36*
X00289715Y00252612D02*
X00289803Y00252602D01*
X00289911Y00252582D01*
X00290018Y00252563D01*
X00290145Y00252534D01*
X00290281Y00252495D01*
X00290418Y00252456D01*
X00290564Y00252397D01*
X00290701Y00252329D01*
X00290847Y00252251D01*
X00290993Y00252153D01*
X00291130Y00252056D01*
X00291257Y00251929D01*
X00291266Y00251919D01*
X00291286Y00251900D01*
X00291315Y00251861D01*
X00291364Y00251802D01*
X00291413Y00251744D01*
X00291471Y00251656D01*
X00291530Y00251568D01*
X00291598Y00251461D01*
X00291656Y00251334D01*
X00291715Y00251207D01*
X00291773Y00251061D01*
X00291822Y00250915D01*
X00291871Y00250749D01*
X00291900Y00250573D01*
X00291920Y00250398D01*
X00291930Y00250203D01*
Y00250193D01*
Y00250154D01*
Y00250105D01*
X00291920Y00250027D01*
X00291910Y00249939D01*
X00291891Y00249832D01*
X00291871Y00249715D01*
X00291842Y00249588D01*
X00291812Y00249452D01*
X00291764Y00249315D01*
X00291705Y00249169D01*
X00291647Y00249022D01*
X00291559Y00248876D01*
X00291471Y00248730D01*
X00291364Y00248593D01*
X00291247Y00248457D01*
X00291237Y00248447D01*
X00291218Y00248427D01*
X00291179Y00248388D01*
X00291130Y00248349D01*
X00291061Y00248301D01*
X00290984Y00248242D01*
X00290886Y00248174D01*
X00290779Y00248115D01*
X00290662Y00248047D01*
X00290535Y00247979D01*
X00290398Y00247920D01*
X00290242Y00247871D01*
X00290086Y00247832D01*
X00289911Y00247793D01*
X00289725Y00247774D01*
X00289540Y00247764D01*
X00289433D01*
X00289374Y00247774D01*
X00289306Y00247784D01*
X00289150Y00247803D01*
X00288965Y00247832D01*
X00288760Y00247881D01*
X00288545Y00247950D01*
X00288330Y00248047D01*
X00288321D01*
X00288301Y00248057D01*
X00288272Y00248076D01*
X00288233Y00248106D01*
X00288135Y00248174D01*
X00288009Y00248262D01*
X00287862Y00248379D01*
X00287716Y00248525D01*
X00287579Y00248701D01*
X00287453Y00248896D01*
Y00248905D01*
X00287443Y00248925D01*
X00287423Y00248954D01*
X00287404Y00248993D01*
X00287384Y00249052D01*
X00287365Y00249110D01*
X00287336Y00249188D01*
X00287306Y00249276D01*
X00287258Y00249471D01*
X00287209Y00249705D01*
X00287170Y00249968D01*
X00287160Y00250251D01*
Y00250261D01*
Y00250281D01*
Y00250310D01*
X00287170Y00250359D01*
Y00250407D01*
X00287180Y00250476D01*
X00287199Y00250632D01*
X00287228Y00250817D01*
X00287287Y00251012D01*
X00287355Y00251227D01*
X00287453Y00251441D01*
Y00251451D01*
X00287462Y00251471D01*
X00287482Y00251500D01*
X00287511Y00251539D01*
X00287579Y00251636D01*
X00287677Y00251763D01*
X00287794Y00251910D01*
X00287940Y00252056D01*
X00288106Y00252192D01*
X00288301Y00252319D01*
X00288311D01*
X00288330Y00252329D01*
X00288360Y00252348D01*
X00288399Y00252368D01*
X00288448Y00252387D01*
X00288516Y00252417D01*
X00288662Y00252475D01*
X00288848Y00252524D01*
X00289062Y00252573D01*
X00289286Y00252612D01*
X00289540Y00252621D01*
X00289638D01*
X00289715Y00252612D01*
D02*
G37*
G36*
X00278158Y00254280D02*
X00278333Y00254270D01*
X00278538Y00254260D01*
X00278733Y00254241D01*
X00278928Y00254202D01*
X00279104Y00254163D01*
X00279113D01*
X00279133Y00254153D01*
X00279162Y00254143D01*
X00279201Y00254133D01*
X00279299Y00254084D01*
X00279435Y00254026D01*
X00279582Y00253948D01*
X00279738Y00253841D01*
X00279903Y00253714D01*
X00280060Y00253568D01*
X00280069D01*
X00280079Y00253548D01*
X00280128Y00253489D01*
X00280196Y00253402D01*
X00280294Y00253285D01*
X00280391Y00253129D01*
X00280489Y00252953D01*
X00280586Y00252758D01*
X00280674Y00252534D01*
Y00252524D01*
X00280684Y00252504D01*
X00280693Y00252475D01*
X00280703Y00252426D01*
X00280723Y00252368D01*
X00280742Y00252290D01*
X00280762Y00252212D01*
X00280781Y00252114D01*
X00280801Y00252007D01*
X00280820Y00251900D01*
X00280859Y00251636D01*
X00280879Y00251344D01*
X00280889Y00251022D01*
Y00251012D01*
Y00250983D01*
Y00250944D01*
Y00250885D01*
X00280879Y00250817D01*
Y00250739D01*
X00280859Y00250554D01*
X00280840Y00250339D01*
X00280801Y00250115D01*
X00280752Y00249881D01*
X00280684Y00249656D01*
Y00249647D01*
X00280674Y00249627D01*
X00280664Y00249588D01*
X00280645Y00249539D01*
X00280615Y00249481D01*
X00280586Y00249412D01*
X00280508Y00249256D01*
X00280411Y00249071D01*
X00280294Y00248886D01*
X00280157Y00248701D01*
X00280001Y00248525D01*
X00279981Y00248515D01*
X00279942Y00248466D01*
X00279864Y00248408D01*
X00279767Y00248340D01*
X00279630Y00248252D01*
X00279474Y00248164D01*
X00279299Y00248086D01*
X00279094Y00248008D01*
X00279074Y00247998D01*
X00279016Y00247988D01*
X00278928Y00247969D01*
X00278792Y00247950D01*
X00278635Y00247920D01*
X00278440Y00247901D01*
X00278206Y00247891D01*
X00277953Y00247881D01*
X00275534D01*
Y00254289D01*
X00278079D01*
X00278158Y00254280D01*
D02*
G37*
G36*
X00295197Y00252612D02*
X00295304Y00252592D01*
X00295421Y00252563D01*
X00295568Y00252524D01*
X00295714Y00252465D01*
X00295860Y00252387D01*
X00295480Y00251315D01*
X00295470Y00251324D01*
X00295431Y00251344D01*
X00295363Y00251383D01*
X00295295Y00251422D01*
X00295197Y00251451D01*
X00295100Y00251490D01*
X00295002Y00251510D01*
X00294895Y00251519D01*
X00294856D01*
X00294807Y00251510D01*
X00294748Y00251500D01*
X00294680Y00251480D01*
X00294602Y00251461D01*
X00294524Y00251422D01*
X00294456Y00251373D01*
X00294446Y00251363D01*
X00294426Y00251344D01*
X00294397Y00251305D01*
X00294358Y00251256D01*
X00294310Y00251188D01*
X00294261Y00251090D01*
X00294212Y00250983D01*
X00294173Y00250856D01*
Y00250837D01*
X00294163Y00250817D01*
X00294153Y00250778D01*
Y00250739D01*
X00294144Y00250681D01*
X00294134Y00250602D01*
X00294124Y00250524D01*
X00294114Y00250427D01*
X00294105Y00250320D01*
X00294095Y00250193D01*
Y00250047D01*
X00294085Y00249890D01*
X00294075Y00249715D01*
Y00249520D01*
Y00249305D01*
Y00247881D01*
X00292846D01*
Y00252524D01*
X00293988D01*
Y00251870D01*
X00293997Y00251880D01*
X00294036Y00251939D01*
X00294095Y00252017D01*
X00294163Y00252114D01*
X00294241Y00252222D01*
X00294329Y00252319D01*
X00294426Y00252407D01*
X00294514Y00252475D01*
X00294524Y00252485D01*
X00294553Y00252495D01*
X00294602Y00252524D01*
X00294670Y00252553D01*
X00294748Y00252573D01*
X00294836Y00252602D01*
X00294934Y00252612D01*
X00295041Y00252621D01*
X00295109D01*
X00295197Y00252612D01*
D02*
G37*
G36*
X00276534Y00262194D02*
X00276641Y00262174D01*
X00276758Y00262145D01*
X00276904Y00262106D01*
X00277050Y00262047D01*
X00277197Y00261969D01*
X00276816Y00260896D01*
X00276807Y00260906D01*
X00276768Y00260926D01*
X00276699Y00260965D01*
X00276631Y00261004D01*
X00276534Y00261033D01*
X00276436Y00261072D01*
X00276339Y00261091D01*
X00276231Y00261101D01*
X00276192D01*
X00276143Y00261091D01*
X00276085Y00261082D01*
X00276017Y00261062D01*
X00275939Y00261043D01*
X00275861Y00261004D01*
X00275792Y00260955D01*
X00275783Y00260945D01*
X00275763Y00260926D01*
X00275734Y00260887D01*
X00275695Y00260838D01*
X00275646Y00260770D01*
X00275597Y00260672D01*
X00275548Y00260565D01*
X00275509Y00260438D01*
Y00260418D01*
X00275500Y00260399D01*
X00275490Y00260360D01*
Y00260321D01*
X00275480Y00260262D01*
X00275470Y00260184D01*
X00275461Y00260106D01*
X00275451Y00260009D01*
X00275441Y00259902D01*
X00275431Y00259775D01*
Y00259629D01*
X00275422Y00259472D01*
X00275412Y00259297D01*
Y00259102D01*
Y00258887D01*
Y00257463D01*
X00274183D01*
Y00262106D01*
X00275324D01*
Y00261452D01*
X00275334Y00261462D01*
X00275373Y00261521D01*
X00275431Y00261599D01*
X00275500Y00261696D01*
X00275578Y00261803D01*
X00275665Y00261901D01*
X00275763Y00261989D01*
X00275851Y00262057D01*
X00275861Y00262067D01*
X00275890Y00262077D01*
X00275939Y00262106D01*
X00276007Y00262135D01*
X00276085Y00262155D01*
X00276173Y00262184D01*
X00276270Y00262194D01*
X00276378Y00262203D01*
X00276446D01*
X00276534Y00262194D01*
D02*
G37*
G36*
X00287750Y00271776D02*
X00287838Y00271766D01*
X00287945Y00271746D01*
X00288053Y00271727D01*
X00288179Y00271698D01*
X00288316Y00271659D01*
X00288452Y00271619D01*
X00288599Y00271561D01*
X00288735Y00271493D01*
X00288882Y00271415D01*
X00289028Y00271317D01*
X00289164Y00271220D01*
X00289291Y00271093D01*
X00289301Y00271083D01*
X00289321Y00271064D01*
X00289350Y00271025D01*
X00289398Y00270966D01*
X00289447Y00270907D01*
X00289506Y00270820D01*
X00289564Y00270732D01*
X00289633Y00270625D01*
X00289691Y00270498D01*
X00289750Y00270371D01*
X00289808Y00270225D01*
X00289857Y00270079D01*
X00289906Y00269913D01*
X00289935Y00269737D01*
X00289954Y00269562D01*
X00289964Y00269366D01*
Y00269357D01*
Y00269318D01*
Y00269269D01*
X00289954Y00269191D01*
X00289945Y00269103D01*
X00289925Y00268996D01*
X00289906Y00268879D01*
X00289876Y00268752D01*
X00289847Y00268615D01*
X00289798Y00268479D01*
X00289740Y00268333D01*
X00289681Y00268186D01*
X00289594Y00268040D01*
X00289506Y00267894D01*
X00289398Y00267757D01*
X00289282Y00267621D01*
X00289272Y00267611D01*
X00289252Y00267591D01*
X00289213Y00267552D01*
X00289164Y00267513D01*
X00289096Y00267465D01*
X00289018Y00267406D01*
X00288921Y00267338D01*
X00288813Y00267279D01*
X00288696Y00267211D01*
X00288570Y00267143D01*
X00288433Y00267084D01*
X00288277Y00267035D01*
X00288121Y00266996D01*
X00287945Y00266957D01*
X00287760Y00266938D01*
X00287575Y00266928D01*
X00287467D01*
X00287409Y00266938D01*
X00287341Y00266948D01*
X00287185Y00266967D01*
X00286999Y00266996D01*
X00286794Y00267045D01*
X00286580Y00267113D01*
X00286365Y00267211D01*
X00286355D01*
X00286336Y00267221D01*
X00286307Y00267240D01*
X00286268Y00267269D01*
X00286170Y00267338D01*
X00286043Y00267425D01*
X00285897Y00267542D01*
X00285751Y00267689D01*
X00285614Y00267864D01*
X00285487Y00268060D01*
Y00268069D01*
X00285478Y00268089D01*
X00285458Y00268118D01*
X00285439Y00268157D01*
X00285419Y00268216D01*
X00285400Y00268274D01*
X00285370Y00268352D01*
X00285341Y00268440D01*
X00285292Y00268635D01*
X00285243Y00268869D01*
X00285205Y00269132D01*
X00285195Y00269415D01*
Y00269425D01*
Y00269445D01*
Y00269474D01*
X00285205Y00269522D01*
Y00269571D01*
X00285214Y00269640D01*
X00285234Y00269796D01*
X00285263Y00269981D01*
X00285322Y00270176D01*
X00285390Y00270391D01*
X00285487Y00270605D01*
Y00270615D01*
X00285497Y00270634D01*
X00285517Y00270664D01*
X00285546Y00270703D01*
X00285614Y00270800D01*
X00285712Y00270927D01*
X00285829Y00271073D01*
X00285975Y00271220D01*
X00286141Y00271356D01*
X00286336Y00271483D01*
X00286346D01*
X00286365Y00271493D01*
X00286394Y00271512D01*
X00286433Y00271532D01*
X00286482Y00271551D01*
X00286551Y00271581D01*
X00286697Y00271639D01*
X00286882Y00271688D01*
X00287097Y00271737D01*
X00287321Y00271776D01*
X00287575Y00271785D01*
X00287672D01*
X00287750Y00271776D01*
D02*
G37*
G36*
X00278796Y00267045D02*
X00277499D01*
Y00273453D01*
X00278796D01*
Y00267045D01*
D02*
G37*
G36*
X00293232Y00271776D02*
X00293339Y00271756D01*
X00293456Y00271727D01*
X00293602Y00271688D01*
X00293749Y00271629D01*
X00293895Y00271551D01*
X00293515Y00270478D01*
X00293505Y00270488D01*
X00293466Y00270508D01*
X00293398Y00270547D01*
X00293329Y00270586D01*
X00293232Y00270615D01*
X00293134Y00270654D01*
X00293037Y00270673D01*
X00292929Y00270683D01*
X00292890D01*
X00292842Y00270673D01*
X00292783Y00270664D01*
X00292715Y00270644D01*
X00292637Y00270625D01*
X00292559Y00270586D01*
X00292490Y00270537D01*
X00292481Y00270527D01*
X00292461Y00270508D01*
X00292432Y00270469D01*
X00292393Y00270420D01*
X00292344Y00270352D01*
X00292295Y00270254D01*
X00292247Y00270147D01*
X00292208Y00270020D01*
Y00270000D01*
X00292198Y00269981D01*
X00292188Y00269942D01*
Y00269903D01*
X00292178Y00269844D01*
X00292169Y00269766D01*
X00292159Y00269688D01*
X00292149Y00269591D01*
X00292139Y00269484D01*
X00292129Y00269357D01*
Y00269210D01*
X00292120Y00269054D01*
X00292110Y00268879D01*
Y00268684D01*
Y00268469D01*
Y00267045D01*
X00290881D01*
Y00271688D01*
X00292022D01*
Y00271034D01*
X00292032Y00271044D01*
X00292071Y00271103D01*
X00292129Y00271181D01*
X00292198Y00271278D01*
X00292276Y00271385D01*
X00292364Y00271483D01*
X00292461Y00271571D01*
X00292549Y00271639D01*
X00292559Y00271649D01*
X00292588Y00271659D01*
X00292637Y00271688D01*
X00292705Y00271717D01*
X00292783Y00271737D01*
X00292871Y00271766D01*
X00292968Y00271776D01*
X00293076Y00271785D01*
X00293144D01*
X00293232Y00271776D01*
D02*
G37*
G36*
X00298889Y00262194D02*
X00298996Y00262174D01*
X00299113Y00262145D01*
X00299259Y00262106D01*
X00299406Y00262047D01*
X00299531Y00261980D01*
X00299484Y00262106D01*
X00300791D01*
X00301893Y00258809D01*
X00302985Y00262106D01*
X00304253D01*
X00302615Y00257639D01*
X00302312Y00256829D01*
X00302302Y00256810D01*
X00302283Y00256761D01*
X00302254Y00256693D01*
X00302215Y00256595D01*
X00302166Y00256498D01*
X00302117Y00256390D01*
X00302069Y00256293D01*
X00302010Y00256205D01*
X00302000Y00256195D01*
X00301981Y00256166D01*
X00301951Y00256127D01*
X00301912Y00256078D01*
X00301805Y00255971D01*
X00301669Y00255864D01*
X00301659Y00255854D01*
X00301639Y00255844D01*
X00301590Y00255815D01*
X00301542Y00255786D01*
X00301474Y00255756D01*
X00301395Y00255717D01*
X00301298Y00255678D01*
X00301200Y00255649D01*
X00301191D01*
X00301152Y00255639D01*
X00301093Y00255630D01*
X00301025Y00255610D01*
X00300927Y00255600D01*
X00300820Y00255581D01*
X00300703Y00255571D01*
X00300449D01*
X00300362Y00255581D01*
X00300254Y00255590D01*
X00300137Y00255600D01*
X00299884Y00255649D01*
X00299776Y00256605D01*
X00299786D01*
X00299825Y00256595D01*
X00299874Y00256585D01*
X00299952Y00256576D01*
X00300030Y00256566D01*
X00300118Y00256556D01*
X00300293Y00256546D01*
X00300362D01*
X00300440Y00256556D01*
X00300537Y00256576D01*
X00300635Y00256615D01*
X00300742Y00256654D01*
X00300840Y00256722D01*
X00300927Y00256810D01*
X00300937Y00256819D01*
X00300956Y00256858D01*
X00300996Y00256907D01*
X00301044Y00256985D01*
X00301093Y00257083D01*
X00301142Y00257190D01*
X00301191Y00257317D01*
X00301239Y00257453D01*
X00299544Y00261946D01*
X00299172Y00260896D01*
X00299162Y00260906D01*
X00299123Y00260926D01*
X00299055Y00260965D01*
X00298986Y00261004D01*
X00298889Y00261033D01*
X00298791Y00261072D01*
X00298694Y00261091D01*
X00298586Y00261101D01*
X00298547D01*
X00298499Y00261091D01*
X00298440Y00261082D01*
X00298372Y00261062D01*
X00298294Y00261043D01*
X00298216Y00261004D01*
X00298148Y00260955D01*
X00298138Y00260945D01*
X00298118Y00260926D01*
X00298089Y00260887D01*
X00298050Y00260838D01*
X00298001Y00260770D01*
X00297952Y00260672D01*
X00297904Y00260565D01*
X00297865Y00260438D01*
Y00260418D01*
X00297855Y00260399D01*
X00297845Y00260360D01*
Y00260321D01*
X00297835Y00260262D01*
X00297826Y00260184D01*
X00297816Y00260106D01*
X00297806Y00260009D01*
X00297796Y00259902D01*
X00297787Y00259775D01*
Y00259629D01*
X00297777Y00259472D01*
X00297767Y00259297D01*
Y00259102D01*
Y00258887D01*
Y00257463D01*
X00296538D01*
Y00262106D01*
X00297679D01*
Y00261452D01*
X00297689Y00261462D01*
X00297728Y00261521D01*
X00297787Y00261599D01*
X00297855Y00261696D01*
X00297933Y00261803D01*
X00298021Y00261901D01*
X00298118Y00261989D01*
X00298206Y00262057D01*
X00298216Y00262067D01*
X00298245Y00262077D01*
X00298294Y00262106D01*
X00298362Y00262135D01*
X00298440Y00262155D01*
X00298528Y00262184D01*
X00298625Y00262194D01*
X00298733Y00262203D01*
X00298801D01*
X00298889Y00262194D01*
D02*
G37*
G36*
X00283107D02*
X00283234Y00262174D01*
X00283361Y00262155D01*
X00283507Y00262116D01*
X00283654Y00262057D01*
X00283790Y00261989D01*
X00283810Y00261979D01*
X00283849Y00261950D01*
X00283917Y00261901D01*
X00283995Y00261833D01*
X00284083Y00261755D01*
X00284171Y00261647D01*
X00284258Y00261521D01*
X00284327Y00261384D01*
X00284336Y00261374D01*
X00284346Y00261326D01*
X00284366Y00261257D01*
X00284395Y00261150D01*
X00284414Y00261014D01*
X00284434Y00260848D01*
X00284444Y00260653D01*
X00284454Y00260418D01*
Y00257463D01*
X00283225D01*
Y00260106D01*
Y00260116D01*
Y00260136D01*
Y00260175D01*
Y00260214D01*
X00283215Y00260340D01*
X00283205Y00260477D01*
X00283195Y00260633D01*
X00283176Y00260779D01*
X00283137Y00260906D01*
X00283117Y00260965D01*
X00283098Y00261004D01*
X00283088Y00261014D01*
X00283068Y00261043D01*
X00283020Y00261091D01*
X00282971Y00261140D01*
X00282893Y00261179D01*
X00282805Y00261228D01*
X00282698Y00261257D01*
X00282571Y00261267D01*
X00282532D01*
X00282483Y00261257D01*
X00282415Y00261248D01*
X00282337Y00261228D01*
X00282259Y00261199D01*
X00282171Y00261160D01*
X00282083Y00261101D01*
X00282074Y00261091D01*
X00282044Y00261072D01*
X00282005Y00261033D01*
X00281957Y00260984D01*
X00281908Y00260926D01*
X00281849Y00260838D01*
X00281800Y00260750D01*
X00281761Y00260643D01*
Y00260633D01*
X00281742Y00260584D01*
X00281732Y00260516D01*
X00281713Y00260409D01*
X00281693Y00260272D01*
X00281683Y00260116D01*
X00281664Y00259911D01*
Y00259687D01*
Y00257463D01*
X00280435D01*
Y00259999D01*
Y00260009D01*
Y00260028D01*
Y00260067D01*
Y00260106D01*
Y00260223D01*
X00280425Y00260370D01*
X00280415Y00260516D01*
X00280406Y00260662D01*
X00280386Y00260779D01*
X00280376Y00260838D01*
X00280367Y00260877D01*
Y00260887D01*
X00280357Y00260906D01*
X00280337Y00260945D01*
X00280318Y00260984D01*
X00280250Y00261082D01*
X00280162Y00261169D01*
X00280152D01*
X00280133Y00261189D01*
X00280103Y00261199D01*
X00280064Y00261218D01*
X00280016Y00261238D01*
X00279947Y00261248D01*
X00279879Y00261267D01*
X00279743D01*
X00279684Y00261257D01*
X00279616Y00261248D01*
X00279538Y00261228D01*
X00279450Y00261199D01*
X00279362Y00261160D01*
X00279274Y00261111D01*
X00279265Y00261101D01*
X00279235Y00261082D01*
X00279196Y00261043D01*
X00279147Y00260994D01*
X00279099Y00260935D01*
X00279040Y00260857D01*
X00278991Y00260770D01*
X00278952Y00260662D01*
Y00260653D01*
X00278933Y00260604D01*
X00278923Y00260536D01*
X00278904Y00260438D01*
X00278884Y00260311D01*
X00278874Y00260145D01*
X00278855Y00259950D01*
Y00259716D01*
Y00257463D01*
X00277626D01*
Y00262106D01*
X00278757D01*
Y00261472D01*
X00278767Y00261482D01*
X00278787Y00261501D01*
X00278816Y00261540D01*
X00278865Y00261589D01*
X00278923Y00261638D01*
X00278991Y00261706D01*
X00279069Y00261774D01*
X00279167Y00261842D01*
X00279265Y00261911D01*
X00279372Y00261969D01*
X00279625Y00262086D01*
X00279752Y00262135D01*
X00279898Y00262174D01*
X00280045Y00262194D01*
X00280201Y00262203D01*
X00280279D01*
X00280357Y00262194D01*
X00280464Y00262184D01*
X00280591Y00262155D01*
X00280718Y00262125D01*
X00280845Y00262077D01*
X00280971Y00262018D01*
X00280991Y00262008D01*
X00281030Y00261979D01*
X00281089Y00261940D01*
X00281166Y00261882D01*
X00281254Y00261803D01*
X00281342Y00261706D01*
X00281430Y00261589D01*
X00281518Y00261462D01*
X00281527Y00261482D01*
X00281566Y00261521D01*
X00281635Y00261589D01*
X00281713Y00261667D01*
X00281810Y00261765D01*
X00281917Y00261852D01*
X00282044Y00261940D01*
X00282171Y00262018D01*
X00282191Y00262028D01*
X00282230Y00262047D01*
X00282308Y00262077D01*
X00282405Y00262116D01*
X00282512Y00262145D01*
X00282649Y00262174D01*
X00282786Y00262194D01*
X00282932Y00262203D01*
X00283020D01*
X00283107Y00262194D01*
D02*
G37*
G36*
X00281840Y00271776D02*
X00281908Y00271766D01*
X00281996Y00271746D01*
X00282093Y00271717D01*
X00282191Y00271688D01*
X00282298Y00271649D01*
X00282415Y00271600D01*
X00282532Y00271542D01*
X00282649Y00271464D01*
X00282766Y00271376D01*
X00282883Y00271278D01*
X00283000Y00271161D01*
X00283107Y00271025D01*
Y00271688D01*
X00284258D01*
Y00267513D01*
Y00267504D01*
Y00267474D01*
Y00267435D01*
Y00267377D01*
Y00267309D01*
X00284249Y00267230D01*
X00284239Y00267055D01*
X00284229Y00266860D01*
X00284200Y00266655D01*
X00284171Y00266460D01*
X00284141Y00266372D01*
X00284122Y00266294D01*
X00284112Y00266275D01*
X00284093Y00266226D01*
X00284063Y00266148D01*
X00284024Y00266060D01*
X00283966Y00265953D01*
X00283907Y00265845D01*
X00283829Y00265748D01*
X00283741Y00265650D01*
X00283732Y00265641D01*
X00283693Y00265611D01*
X00283644Y00265572D01*
X00283566Y00265514D01*
X00283478Y00265455D01*
X00283361Y00265397D01*
X00283234Y00265338D01*
X00283088Y00265289D01*
X00283068Y00265280D01*
X00283010Y00265270D01*
X00282922Y00265250D01*
X00282805Y00265221D01*
X00282659Y00265192D01*
X00282483Y00265172D01*
X00282278Y00265163D01*
X00282054Y00265153D01*
X00281947D01*
X00281859Y00265163D01*
X00281761D01*
X00281654Y00265172D01*
X00281537Y00265192D01*
X00281401Y00265202D01*
X00281127Y00265250D01*
X00280845Y00265329D01*
X00280718Y00265377D01*
X00280591Y00265426D01*
X00280474Y00265494D01*
X00280376Y00265563D01*
X00280367Y00265572D01*
X00280357Y00265582D01*
X00280298Y00265641D01*
X00280220Y00265728D01*
X00280133Y00265845D01*
X00280045Y00265992D01*
X00279967Y00266167D01*
X00279908Y00266362D01*
X00279898Y00266470D01*
X00279889Y00266587D01*
Y00266596D01*
Y00266635D01*
Y00266674D01*
X00279898Y00266733D01*
X00281303Y00266567D01*
Y00266557D01*
X00281313Y00266528D01*
X00281323Y00266489D01*
X00281332Y00266431D01*
X00281381Y00266323D01*
X00281420Y00266265D01*
X00281459Y00266226D01*
X00281469Y00266216D01*
X00281488Y00266206D01*
X00281537Y00266187D01*
X00281596Y00266157D01*
X00281674Y00266128D01*
X00281761Y00266109D01*
X00281879Y00266099D01*
X00282005Y00266089D01*
X00282083D01*
X00282171Y00266099D01*
X00282278Y00266109D01*
X00282395Y00266128D01*
X00282512Y00266148D01*
X00282630Y00266187D01*
X00282727Y00266236D01*
X00282737Y00266245D01*
X00282756Y00266255D01*
X00282786Y00266275D01*
X00282815Y00266314D01*
X00282854Y00266353D01*
X00282893Y00266411D01*
X00282932Y00266479D01*
X00282971Y00266557D01*
Y00266567D01*
X00282981Y00266587D01*
X00282990Y00266626D01*
X00283000Y00266684D01*
X00283010Y00266762D01*
X00283020Y00266860D01*
X00283029Y00266977D01*
Y00267113D01*
Y00267806D01*
X00283020Y00267796D01*
X00283000Y00267777D01*
X00282971Y00267738D01*
X00282932Y00267689D01*
X00282873Y00267630D01*
X00282815Y00267562D01*
X00282737Y00267494D01*
X00282649Y00267425D01*
X00282444Y00267289D01*
X00282210Y00267162D01*
X00282083Y00267113D01*
X00281947Y00267074D01*
X00281800Y00267055D01*
X00281644Y00267045D01*
X00281605D01*
X00281557Y00267055D01*
X00281488D01*
X00281410Y00267074D01*
X00281323Y00267084D01*
X00281215Y00267113D01*
X00281108Y00267143D01*
X00280991Y00267182D01*
X00280874Y00267240D01*
X00280747Y00267299D01*
X00280620Y00267377D01*
X00280503Y00267465D01*
X00280386Y00267572D01*
X00280269Y00267699D01*
X00280162Y00267835D01*
Y00267845D01*
X00280142Y00267864D01*
X00280123Y00267903D01*
X00280094Y00267952D01*
X00280064Y00268011D01*
X00280025Y00268079D01*
X00279996Y00268167D01*
X00279957Y00268264D01*
X00279918Y00268372D01*
X00279879Y00268489D01*
X00279840Y00268615D01*
X00279811Y00268752D01*
X00279762Y00269054D01*
X00279752Y00269220D01*
X00279743Y00269386D01*
Y00269396D01*
Y00269435D01*
Y00269493D01*
X00279752Y00269581D01*
X00279762Y00269679D01*
X00279772Y00269786D01*
X00279791Y00269913D01*
X00279811Y00270040D01*
X00279879Y00270332D01*
X00279928Y00270478D01*
X00279977Y00270625D01*
X00280045Y00270771D01*
X00280113Y00270907D01*
X00280201Y00271044D01*
X00280298Y00271161D01*
X00280308Y00271171D01*
X00280328Y00271190D01*
X00280357Y00271220D01*
X00280396Y00271259D01*
X00280455Y00271307D01*
X00280523Y00271356D01*
X00280591Y00271415D01*
X00280679Y00271473D01*
X00280776Y00271532D01*
X00280884Y00271590D01*
X00281118Y00271688D01*
X00281254Y00271727D01*
X00281391Y00271756D01*
X00281537Y00271776D01*
X00281693Y00271785D01*
X00281781D01*
X00281840Y00271776D01*
D02*
G37*
G36*
X00251894Y00214434D02*
X00253328Y00216073D01*
X00254840D01*
X00253250Y00214376D01*
X00254957Y00211430D01*
X00253630D01*
X00252460Y00213517D01*
X00251894Y00212913D01*
Y00211430D01*
X00250665D01*
Y00217838D01*
X00251894D01*
Y00214434D01*
D02*
G37*
G36*
X00265344Y00211430D02*
X00264203D01*
Y00212122D01*
X00264193Y00212103D01*
X00264154Y00212064D01*
X00264105Y00211996D01*
X00264028Y00211908D01*
X00263930Y00211810D01*
X00263813Y00211713D01*
X00263676Y00211615D01*
X00263530Y00211528D01*
X00263511Y00211518D01*
X00263462Y00211498D01*
X00263374Y00211459D01*
X00263267Y00211420D01*
X00263140Y00211381D01*
X00262994Y00211342D01*
X00262828Y00211323D01*
X00262662Y00211313D01*
X00262584D01*
X00262496Y00211323D01*
X00262379Y00211342D01*
X00262252Y00211362D01*
X00262116Y00211401D01*
X00261970Y00211450D01*
X00261823Y00211518D01*
X00261804Y00211528D01*
X00261765Y00211557D01*
X00261696Y00211606D01*
X00261618Y00211664D01*
X00261531Y00211752D01*
X00261443Y00211849D01*
X00261355Y00211966D01*
X00261287Y00212093D01*
X00261277Y00212113D01*
X00261267Y00212162D01*
X00261238Y00212249D01*
X00261209Y00212366D01*
X00261180Y00212513D01*
X00261160Y00212688D01*
X00261140Y00212893D01*
X00261131Y00213127D01*
Y00216073D01*
X00262360D01*
Y00213927D01*
Y00213917D01*
Y00213888D01*
Y00213839D01*
Y00213771D01*
Y00213693D01*
Y00213605D01*
X00262369Y00213410D01*
Y00213195D01*
X00262389Y00213000D01*
Y00212913D01*
X00262399Y00212834D01*
X00262408Y00212766D01*
X00262418Y00212717D01*
Y00212708D01*
X00262428Y00212679D01*
X00262447Y00212640D01*
X00262477Y00212591D01*
X00262555Y00212483D01*
X00262603Y00212425D01*
X00262662Y00212376D01*
X00262672Y00212366D01*
X00262691Y00212357D01*
X00262740Y00212337D01*
X00262789Y00212318D01*
X00262857Y00212288D01*
X00262935Y00212269D01*
X00263023Y00212259D01*
X00263120Y00212249D01*
X00263169D01*
X00263228Y00212259D01*
X00263306Y00212269D01*
X00263393Y00212288D01*
X00263491Y00212318D01*
X00263579Y00212357D01*
X00263676Y00212415D01*
X00263686Y00212425D01*
X00263715Y00212444D01*
X00263764Y00212483D01*
X00263813Y00212532D01*
X00263871Y00212600D01*
X00263930Y00212669D01*
X00263979Y00212757D01*
X00264018Y00212844D01*
Y00212854D01*
X00264037Y00212903D01*
Y00212932D01*
X00264047Y00212981D01*
X00264057Y00213039D01*
X00264067Y00213098D01*
X00264076Y00213176D01*
X00264086Y00213264D01*
X00264096Y00213371D01*
Y00213488D01*
X00264105Y00213615D01*
X00264115Y00213761D01*
Y00213927D01*
Y00214102D01*
Y00216073D01*
X00265344D01*
Y00211430D01*
D02*
G37*
G36*
X00247749Y00216161D02*
X00247827D01*
X00248012Y00216151D01*
X00248207Y00216122D01*
X00248412Y00216092D01*
X00248607Y00216043D01*
X00248695Y00216014D01*
X00248773Y00215975D01*
X00248792Y00215965D01*
X00248841Y00215936D01*
X00248909Y00215897D01*
X00248997Y00215839D01*
X00249085Y00215770D01*
X00249182Y00215683D01*
X00249270Y00215585D01*
X00249339Y00215478D01*
X00249348Y00215468D01*
X00249368Y00215419D01*
X00249387Y00215341D01*
X00249426Y00215224D01*
X00249436Y00215156D01*
X00249456Y00215078D01*
X00249465Y00214990D01*
X00249475Y00214883D01*
X00249485Y00214776D01*
X00249495Y00214649D01*
X00249504Y00214522D01*
Y00214376D01*
X00249485Y00212952D01*
Y00212942D01*
Y00212922D01*
Y00212893D01*
Y00212854D01*
Y00212747D01*
X00249495Y00212610D01*
Y00212464D01*
X00249514Y00212308D01*
X00249524Y00212171D01*
X00249543Y00212045D01*
Y00212035D01*
X00249553Y00211996D01*
X00249573Y00211937D01*
X00249592Y00211859D01*
X00249621Y00211771D01*
X00249660Y00211664D01*
X00249709Y00211557D01*
X00249768Y00211430D01*
X00248558D01*
Y00211440D01*
X00248549Y00211450D01*
X00248539Y00211479D01*
X00248529Y00211518D01*
X00248510Y00211567D01*
X00248480Y00211625D01*
X00248461Y00211703D01*
X00248431Y00211781D01*
Y00211791D01*
Y00211801D01*
X00248412Y00211840D01*
X00248402Y00211888D01*
X00248393Y00211927D01*
X00248383Y00211918D01*
X00248334Y00211879D01*
X00248275Y00211820D01*
X00248188Y00211752D01*
X00248090Y00211674D01*
X00247973Y00211596D01*
X00247856Y00211528D01*
X00247719Y00211459D01*
X00247700Y00211450D01*
X00247661Y00211440D01*
X00247583Y00211411D01*
X00247485Y00211391D01*
X00247378Y00211362D01*
X00247251Y00211332D01*
X00247105Y00211323D01*
X00246959Y00211313D01*
X00246890D01*
X00246842Y00211323D01*
X00246783D01*
X00246705Y00211332D01*
X00246549Y00211362D01*
X00246364Y00211411D01*
X00246178Y00211469D01*
X00245993Y00211567D01*
X00245827Y00211693D01*
X00245808Y00211713D01*
X00245759Y00211762D01*
X00245700Y00211849D01*
X00245623Y00211966D01*
X00245544Y00212113D01*
X00245486Y00212279D01*
X00245437Y00212474D01*
X00245418Y00212688D01*
Y00212708D01*
Y00212757D01*
X00245427Y00212825D01*
X00245437Y00212922D01*
X00245466Y00213030D01*
X00245496Y00213147D01*
X00245544Y00213264D01*
X00245603Y00213381D01*
X00245613Y00213391D01*
X00245642Y00213430D01*
X00245681Y00213488D01*
X00245739Y00213556D01*
X00245808Y00213634D01*
X00245896Y00213712D01*
X00246003Y00213790D01*
X00246120Y00213859D01*
X00246139Y00213868D01*
X00246188Y00213888D01*
X00246266Y00213917D01*
X00246374Y00213956D01*
X00246510Y00214005D01*
X00246676Y00214054D01*
X00246871Y00214102D01*
X00247095Y00214151D01*
X00247105D01*
X00247134Y00214161D01*
X00247173Y00214171D01*
X00247232Y00214181D01*
X00247310Y00214190D01*
X00247388Y00214210D01*
X00247573Y00214249D01*
X00247768Y00214298D01*
X00247963Y00214346D01*
X00248149Y00214395D01*
X00248227Y00214424D01*
X00248295Y00214454D01*
Y00214571D01*
Y00214590D01*
Y00214629D01*
X00248285Y00214688D01*
X00248275Y00214766D01*
X00248256Y00214853D01*
X00248217Y00214932D01*
X00248178Y00215010D01*
X00248119Y00215078D01*
X00248110Y00215088D01*
X00248080Y00215107D01*
X00248041Y00215127D01*
X00247973Y00215156D01*
X00247885Y00215185D01*
X00247768Y00215214D01*
X00247622Y00215224D01*
X00247456Y00215234D01*
X00247398D01*
X00247339Y00215224D01*
X00247271Y00215214D01*
X00247095Y00215175D01*
X00247017Y00215146D01*
X00246939Y00215097D01*
X00246929Y00215088D01*
X00246910Y00215068D01*
X00246871Y00215039D01*
X00246832Y00214990D01*
X00246783Y00214932D01*
X00246734Y00214853D01*
X00246686Y00214756D01*
X00246647Y00214649D01*
X00245544Y00214853D01*
Y00214863D01*
X00245554Y00214883D01*
X00245564Y00214922D01*
X00245583Y00214961D01*
X00245632Y00215078D01*
X00245691Y00215224D01*
X00245779Y00215390D01*
X00245896Y00215546D01*
X00246032Y00215702D01*
X00246188Y00215839D01*
X00246198D01*
X00246208Y00215848D01*
X00246237Y00215868D01*
X00246276Y00215887D01*
X00246325Y00215917D01*
X00246383Y00215946D01*
X00246451Y00215975D01*
X00246530Y00216004D01*
X00246617Y00216034D01*
X00246725Y00216063D01*
X00246832Y00216092D01*
X00246959Y00216122D01*
X00247085Y00216141D01*
X00247232Y00216161D01*
X00247378Y00216170D01*
X00247680D01*
X00247749Y00216161D01*
D02*
G37*
G36*
X00233821Y00217828D02*
X00234006Y00217819D01*
X00234191Y00217809D01*
X00234367Y00217789D01*
X00234523Y00217770D01*
X00234542D01*
X00234591Y00217760D01*
X00234659Y00217741D01*
X00234747Y00217711D01*
X00234855Y00217682D01*
X00234972Y00217633D01*
X00235079Y00217575D01*
X00235196Y00217507D01*
X00235206Y00217497D01*
X00235245Y00217467D01*
X00235303Y00217428D01*
X00235371Y00217360D01*
X00235440Y00217282D01*
X00235527Y00217194D01*
X00235606Y00217087D01*
X00235684Y00216970D01*
X00235693Y00216950D01*
X00235713Y00216912D01*
X00235752Y00216843D01*
X00235791Y00216756D01*
X00235820Y00216638D01*
X00235859Y00216512D01*
X00235879Y00216375D01*
X00235888Y00216219D01*
Y00216199D01*
Y00216141D01*
X00235879Y00216053D01*
X00235859Y00215946D01*
X00235830Y00215819D01*
X00235781Y00215683D01*
X00235723Y00215536D01*
X00235644Y00215390D01*
X00235635Y00215371D01*
X00235596Y00215331D01*
X00235547Y00215263D01*
X00235469Y00215185D01*
X00235371Y00215088D01*
X00235264Y00215000D01*
X00235128Y00214912D01*
X00234981Y00214834D01*
X00234991D01*
X00235011Y00214824D01*
X00235040Y00214814D01*
X00235079Y00214805D01*
X00235186Y00214756D01*
X00235313Y00214697D01*
X00235459Y00214619D01*
X00235606Y00214522D01*
X00235752Y00214395D01*
X00235879Y00214249D01*
X00235888Y00214229D01*
X00235927Y00214181D01*
X00235976Y00214093D01*
X00236044Y00213976D01*
X00236103Y00213829D01*
X00236152Y00213673D01*
X00236191Y00213488D01*
X00236201Y00213283D01*
Y00213264D01*
Y00213205D01*
X00236191Y00213127D01*
X00236171Y00213010D01*
X00236152Y00212883D01*
X00236113Y00212737D01*
X00236064Y00212591D01*
X00235996Y00212435D01*
X00235986Y00212415D01*
X00235957Y00212366D01*
X00235908Y00212288D01*
X00235849Y00212201D01*
X00235771Y00212093D01*
X00235674Y00211986D01*
X00235567Y00211869D01*
X00235440Y00211771D01*
X00235420Y00211762D01*
X00235381Y00211732D01*
X00235303Y00211693D01*
X00235196Y00211645D01*
X00235069Y00211586D01*
X00234923Y00211537D01*
X00234757Y00211498D01*
X00234572Y00211469D01*
X00234533D01*
X00234503Y00211459D01*
X00234406D01*
X00234338Y00211450D01*
X00234162D01*
X00234045Y00211440D01*
X00233782D01*
X00233616Y00211430D01*
X00230836D01*
Y00217838D01*
X00233655D01*
X00233821Y00217828D01*
D02*
G37*
G36*
X00284254Y00252612D02*
X00284341Y00252602D01*
X00284449Y00252582D01*
X00284556Y00252563D01*
X00284683Y00252534D01*
X00284819Y00252495D01*
X00284956Y00252456D01*
X00285102Y00252397D01*
X00285239Y00252329D01*
X00285385Y00252251D01*
X00285531Y00252153D01*
X00285668Y00252056D01*
X00285795Y00251929D01*
X00285804Y00251919D01*
X00285824Y00251900D01*
X00285853Y00251861D01*
X00285902Y00251802D01*
X00285951Y00251744D01*
X00286009Y00251656D01*
X00286068Y00251568D01*
X00286136Y00251461D01*
X00286194Y00251334D01*
X00286253Y00251207D01*
X00286311Y00251061D01*
X00286360Y00250915D01*
X00286409Y00250749D01*
X00286438Y00250573D01*
X00286458Y00250398D01*
X00286468Y00250203D01*
Y00250193D01*
Y00250154D01*
Y00250105D01*
X00286458Y00250027D01*
X00286448Y00249939D01*
X00286429Y00249832D01*
X00286409Y00249715D01*
X00286380Y00249588D01*
X00286350Y00249452D01*
X00286302Y00249315D01*
X00286243Y00249169D01*
X00286185Y00249022D01*
X00286097Y00248876D01*
X00286009Y00248730D01*
X00285902Y00248593D01*
X00285785Y00248457D01*
X00285775Y00248447D01*
X00285756Y00248427D01*
X00285716Y00248388D01*
X00285668Y00248349D01*
X00285599Y00248301D01*
X00285522Y00248242D01*
X00285424Y00248174D01*
X00285317Y00248115D01*
X00285200Y00248047D01*
X00285073Y00247979D01*
X00284936Y00247920D01*
X00284780Y00247871D01*
X00284624Y00247832D01*
X00284449Y00247793D01*
X00284263Y00247774D01*
X00284078Y00247764D01*
X00283971D01*
X00283912Y00247774D01*
X00283844Y00247784D01*
X00283688Y00247803D01*
X00283503Y00247832D01*
X00283298Y00247881D01*
X00283083Y00247950D01*
X00282868Y00248047D01*
X00282859D01*
X00282839Y00248057D01*
X00282810Y00248076D01*
X00282771Y00248106D01*
X00282673Y00248174D01*
X00282547Y00248262D01*
X00282400Y00248379D01*
X00282254Y00248525D01*
X00282118Y00248701D01*
X00281991Y00248896D01*
Y00248905D01*
X00281981Y00248925D01*
X00281961Y00248954D01*
X00281942Y00248993D01*
X00281922Y00249052D01*
X00281903Y00249110D01*
X00281874Y00249188D01*
X00281844Y00249276D01*
X00281796Y00249471D01*
X00281747Y00249705D01*
X00281708Y00249968D01*
X00281698Y00250251D01*
Y00250261D01*
Y00250281D01*
Y00250310D01*
X00281708Y00250359D01*
Y00250407D01*
X00281718Y00250476D01*
X00281737Y00250632D01*
X00281766Y00250817D01*
X00281825Y00251012D01*
X00281893Y00251227D01*
X00281991Y00251441D01*
Y00251451D01*
X00282000Y00251471D01*
X00282020Y00251500D01*
X00282049Y00251539D01*
X00282118Y00251636D01*
X00282215Y00251763D01*
X00282332Y00251910D01*
X00282478Y00252056D01*
X00282644Y00252192D01*
X00282839Y00252319D01*
X00282849D01*
X00282868Y00252329D01*
X00282898Y00252348D01*
X00282937Y00252368D01*
X00282985Y00252387D01*
X00283054Y00252417D01*
X00283200Y00252475D01*
X00283385Y00252524D01*
X00283600Y00252573D01*
X00283824Y00252612D01*
X00284078Y00252621D01*
X00284175D01*
X00284254Y00252612D01*
D02*
G37*
G36*
X00239575Y00216161D02*
X00239683Y00216141D01*
X00239800Y00216112D01*
X00239946Y00216073D01*
X00240092Y00216014D01*
X00240238Y00215936D01*
X00239858Y00214863D01*
X00239848Y00214873D01*
X00239809Y00214893D01*
X00239741Y00214932D01*
X00239673Y00214971D01*
X00239575Y00215000D01*
X00239478Y00215039D01*
X00239380Y00215058D01*
X00239273Y00215068D01*
X00239234D01*
X00239185Y00215058D01*
X00239127Y00215049D01*
X00239058Y00215029D01*
X00238980Y00215010D01*
X00238902Y00214971D01*
X00238834Y00214922D01*
X00238824Y00214912D01*
X00238805Y00214893D01*
X00238775Y00214853D01*
X00238736Y00214805D01*
X00238688Y00214736D01*
X00238639Y00214639D01*
X00238590Y00214532D01*
X00238551Y00214405D01*
Y00214385D01*
X00238541Y00214366D01*
X00238532Y00214327D01*
Y00214288D01*
X00238522Y00214229D01*
X00238512Y00214151D01*
X00238502Y00214073D01*
X00238493Y00213976D01*
X00238483Y00213868D01*
X00238473Y00213742D01*
Y00213595D01*
X00238463Y00213439D01*
X00238454Y00213264D01*
Y00213069D01*
Y00212854D01*
Y00211430D01*
X00237225D01*
Y00216073D01*
X00238366D01*
Y00215419D01*
X00238375Y00215429D01*
X00238415Y00215487D01*
X00238473Y00215565D01*
X00238541Y00215663D01*
X00238619Y00215770D01*
X00238707Y00215868D01*
X00238805Y00215956D01*
X00238892Y00216024D01*
X00238902Y00216034D01*
X00238932Y00216043D01*
X00238980Y00216073D01*
X00239049Y00216102D01*
X00239127Y00216122D01*
X00239214Y00216151D01*
X00239312Y00216161D01*
X00239419Y00216170D01*
X00239487D01*
X00239575Y00216161D01*
D02*
G37*
%LPC*%
G36*
X00319315Y00225733D02*
X00319276D01*
X00319237Y00225723D01*
X00319178Y00225714D01*
X00319120Y00225694D01*
X00319052Y00225675D01*
X00318983Y00225636D01*
X00318915Y00225587D01*
X00318905Y00225577D01*
X00318886Y00225558D01*
X00318857Y00225519D01*
X00318818Y00225470D01*
X00318778Y00225402D01*
X00318730Y00225314D01*
X00318691Y00225207D01*
X00318652Y00225080D01*
Y00225070D01*
Y00225060D01*
X00318642Y00225031D01*
X00318632Y00224992D01*
X00318622Y00224933D01*
X00318613Y00224865D01*
X00318603Y00224787D01*
X00318593Y00224699D01*
X00318584Y00224592D01*
X00318574Y00224475D01*
X00318564Y00224348D01*
X00318554Y00224202D01*
X00318544Y00224036D01*
Y00223861D01*
X00318535Y00223675D01*
Y00223470D01*
Y00223461D01*
Y00223422D01*
Y00223363D01*
Y00223285D01*
Y00223197D01*
X00318544Y00223090D01*
Y00222973D01*
Y00222856D01*
X00318564Y00222593D01*
X00318584Y00222339D01*
X00318593Y00222212D01*
X00318603Y00222105D01*
X00318622Y00221998D01*
X00318642Y00221910D01*
X00318652Y00221890D01*
X00318661Y00221842D01*
X00318681Y00221773D01*
X00318720Y00221686D01*
X00318759Y00221588D01*
X00318798Y00221500D01*
X00318857Y00221422D01*
X00318915Y00221354D01*
X00318925Y00221344D01*
X00318944Y00221334D01*
X00318983Y00221315D01*
X00319032Y00221286D01*
X00319091Y00221256D01*
X00319159Y00221237D01*
X00319237Y00221227D01*
X00319315Y00221217D01*
X00319354D01*
X00319393Y00221227D01*
X00319442Y00221237D01*
X00319569Y00221276D01*
X00319627Y00221305D01*
X00319695Y00221354D01*
X00319705Y00221364D01*
X00319725Y00221383D01*
X00319754Y00221422D01*
X00319793Y00221471D01*
X00319842Y00221539D01*
X00319881Y00221627D01*
X00319930Y00221734D01*
X00319968Y00221861D01*
Y00221871D01*
X00319978Y00221881D01*
Y00221910D01*
X00319988Y00221959D01*
X00319998Y00222007D01*
X00320008Y00222076D01*
X00320017Y00222154D01*
X00320037Y00222241D01*
X00320047Y00222349D01*
X00320056Y00222466D01*
X00320066Y00222593D01*
X00320076Y00222739D01*
X00320085Y00222905D01*
Y00223080D01*
X00320095Y00223266D01*
Y00223470D01*
Y00223480D01*
Y00223519D01*
Y00223578D01*
Y00223656D01*
Y00223743D01*
X00320085Y00223851D01*
Y00223968D01*
Y00224085D01*
X00320066Y00224348D01*
X00320047Y00224602D01*
X00320037Y00224719D01*
X00320017Y00224836D01*
X00319998Y00224933D01*
X00319978Y00225021D01*
Y00225031D01*
Y00225041D01*
X00319959Y00225089D01*
X00319939Y00225158D01*
X00319900Y00225246D01*
X00319812Y00225441D01*
X00319754Y00225519D01*
X00319695Y00225587D01*
X00319686Y00225597D01*
X00319666Y00225606D01*
X00319627Y00225636D01*
X00319588Y00225665D01*
X00319530Y00225685D01*
X00319461Y00225714D01*
X00319393Y00225723D01*
X00319315Y00225733D01*
D02*
G37*
G36*
X00226606Y00245965D02*
X00225757D01*
Y00241723D01*
X00226898D01*
X00227015Y00241732D01*
X00227132D01*
X00227269Y00241752D01*
X00227386Y00241762D01*
X00227484Y00241781D01*
X00227493D01*
X00227542Y00241801D01*
X00227601Y00241820D01*
X00227669Y00241840D01*
X00227845Y00241928D01*
X00227932Y00241976D01*
X00228010Y00242045D01*
X00228020Y00242054D01*
X00228049Y00242083D01*
X00228079Y00242123D01*
X00228127Y00242191D01*
X00228186Y00242279D01*
X00228235Y00242386D01*
X00228293Y00242513D01*
X00228342Y00242659D01*
Y00242669D01*
X00228352Y00242679D01*
Y00242708D01*
X00228361Y00242737D01*
X00228381Y00242835D01*
X00228410Y00242971D01*
X00228440Y00243137D01*
X00228459Y00243342D01*
X00228469Y00243576D01*
X00228479Y00243839D01*
Y00243849D01*
Y00243868D01*
Y00243908D01*
Y00243966D01*
Y00244025D01*
X00228469Y00244093D01*
X00228459Y00244259D01*
X00228449Y00244444D01*
X00228420Y00244629D01*
X00228391Y00244814D01*
X00228342Y00244971D01*
X00228332Y00244990D01*
X00228322Y00245039D01*
X00228293Y00245107D01*
X00228254Y00245195D01*
X00228196Y00245302D01*
X00228137Y00245400D01*
X00228069Y00245507D01*
X00227981Y00245595D01*
X00227971Y00245605D01*
X00227942Y00245634D01*
X00227883Y00245673D01*
X00227815Y00245722D01*
X00227737Y00245770D01*
X00227630Y00245819D01*
X00227513Y00245858D01*
X00227386Y00245897D01*
X00227376D01*
X00227328Y00245907D01*
X00227259Y00245917D01*
X00227152Y00245936D01*
X00227084D01*
X00227006Y00245946D01*
X00226928D01*
X00226830Y00245956D01*
X00226723D01*
X00226606Y00245965D01*
D02*
G37*
G36*
X00224038Y00216756D02*
X00223189D01*
Y00212513D01*
X00224330D01*
X00224447Y00212522D01*
X00224564D01*
X00224701Y00212542D01*
X00224818Y00212552D01*
X00224916Y00212571D01*
X00224925D01*
X00224974Y00212591D01*
X00225033Y00212610D01*
X00225101Y00212630D01*
X00225277Y00212717D01*
X00225364Y00212766D01*
X00225442Y00212834D01*
X00225452Y00212844D01*
X00225481Y00212873D01*
X00225511Y00212913D01*
X00225559Y00212981D01*
X00225618Y00213069D01*
X00225667Y00213176D01*
X00225725Y00213303D01*
X00225774Y00213449D01*
Y00213459D01*
X00225784Y00213468D01*
Y00213498D01*
X00225793Y00213527D01*
X00225813Y00213625D01*
X00225842Y00213761D01*
X00225871Y00213927D01*
X00225891Y00214132D01*
X00225901Y00214366D01*
X00225910Y00214629D01*
Y00214639D01*
Y00214658D01*
Y00214697D01*
Y00214756D01*
Y00214814D01*
X00225901Y00214883D01*
X00225891Y00215049D01*
X00225881Y00215234D01*
X00225852Y00215419D01*
X00225823Y00215604D01*
X00225774Y00215761D01*
X00225764Y00215780D01*
X00225754Y00215829D01*
X00225725Y00215897D01*
X00225686Y00215985D01*
X00225628Y00216092D01*
X00225569Y00216190D01*
X00225501Y00216297D01*
X00225413Y00216385D01*
X00225403Y00216395D01*
X00225374Y00216424D01*
X00225315Y00216463D01*
X00225247Y00216512D01*
X00225169Y00216560D01*
X00225062Y00216609D01*
X00224945Y00216648D01*
X00224818Y00216687D01*
X00224808D01*
X00224760Y00216697D01*
X00224691Y00216707D01*
X00224584Y00216726D01*
X00224516D01*
X00224438Y00216736D01*
X00224360D01*
X00224262Y00216746D01*
X00224155D01*
X00224038Y00216756D01*
D02*
G37*
G36*
X00257785Y00215166D02*
X00257766D01*
X00257707Y00215156D01*
X00257619Y00215146D01*
X00257502Y00215117D01*
X00257376Y00215078D01*
X00257249Y00215010D01*
X00257112Y00214922D01*
X00256985Y00214795D01*
X00256976Y00214776D01*
X00256937Y00214727D01*
X00256888Y00214639D01*
X00256829Y00214522D01*
X00256761Y00214376D01*
X00256712Y00214190D01*
X00256673Y00213985D01*
X00256663Y00213742D01*
Y00213732D01*
Y00213712D01*
Y00213673D01*
X00256673Y00213625D01*
Y00213566D01*
X00256683Y00213507D01*
X00256703Y00213351D01*
X00256742Y00213176D01*
X00256800Y00213000D01*
X00256878Y00212834D01*
X00256985Y00212679D01*
X00257005Y00212659D01*
X00257044Y00212620D01*
X00257112Y00212561D01*
X00257210Y00212503D01*
X00257327Y00212435D01*
X00257463Y00212376D01*
X00257610Y00212337D01*
X00257785Y00212318D01*
X00257805D01*
X00257863Y00212327D01*
X00257951Y00212337D01*
X00258068Y00212366D01*
X00258195Y00212405D01*
X00258322Y00212474D01*
X00258458Y00212561D01*
X00258585Y00212679D01*
X00258595Y00212698D01*
X00258634Y00212747D01*
X00258692Y00212834D01*
X00258751Y00212952D01*
X00258809Y00213098D01*
X00258868Y00213283D01*
X00258907Y00213498D01*
X00258917Y00213742D01*
Y00213751D01*
Y00213771D01*
Y00213810D01*
Y00213859D01*
X00258907Y00213907D01*
X00258897Y00213976D01*
X00258878Y00214132D01*
X00258839Y00214298D01*
X00258780Y00214473D01*
X00258692Y00214639D01*
X00258585Y00214795D01*
X00258575Y00214814D01*
X00258526Y00214853D01*
X00258458Y00214912D01*
X00258361Y00214980D01*
X00258253Y00215049D01*
X00258117Y00215107D01*
X00257961Y00215146D01*
X00257785Y00215166D01*
D02*
G37*
G36*
X00242599Y00215234D02*
X00242531D01*
X00242462Y00215214D01*
X00242365Y00215195D01*
X00242257Y00215156D01*
X00242150Y00215107D01*
X00242043Y00215029D01*
X00241936Y00214932D01*
X00241926Y00214922D01*
X00241897Y00214883D01*
X00241858Y00214814D01*
X00241809Y00214727D01*
X00241760Y00214610D01*
X00241721Y00214473D01*
X00241692Y00214317D01*
X00241682Y00214142D01*
X00243516D01*
Y00214151D01*
Y00214161D01*
Y00214190D01*
X00243506Y00214229D01*
X00243496Y00214327D01*
X00243477Y00214444D01*
X00243438Y00214571D01*
X00243389Y00214707D01*
X00243321Y00214834D01*
X00243233Y00214951D01*
X00243223Y00214961D01*
X00243184Y00215000D01*
X00243135Y00215039D01*
X00243057Y00215097D01*
X00242969Y00215146D01*
X00242862Y00215195D01*
X00242735Y00215224D01*
X00242599Y00215234D01*
D02*
G37*
G36*
X00232154Y00400654D02*
X00232086D01*
X00232017Y00400634D01*
X00231920Y00400615D01*
X00231813Y00400576D01*
X00231705Y00400527D01*
X00231598Y00400449D01*
X00231491Y00400351D01*
X00231481Y00400342D01*
X00231452Y00400303D01*
X00231413Y00400234D01*
X00231364Y00400147D01*
X00231315Y00400030D01*
X00231276Y00399893D01*
X00231247Y00399737D01*
X00231237Y00399562D01*
X00233071D01*
Y00399571D01*
Y00399581D01*
Y00399610D01*
X00233061Y00399649D01*
X00233051Y00399747D01*
X00233032Y00399864D01*
X00232993Y00399991D01*
X00232944Y00400127D01*
X00232876Y00400254D01*
X00232788Y00400371D01*
X00232778Y00400381D01*
X00232739Y00400420D01*
X00232690Y00400459D01*
X00232612Y00400517D01*
X00232525Y00400566D01*
X00232417Y00400615D01*
X00232290Y00400644D01*
X00232154Y00400654D01*
D02*
G37*
G36*
X00224468Y00400586D02*
X00224449D01*
X00224390Y00400576D01*
X00224302Y00400566D01*
X00224185Y00400537D01*
X00224058Y00400498D01*
X00223932Y00400430D01*
X00223795Y00400342D01*
X00223668Y00400215D01*
X00223659Y00400196D01*
X00223620Y00400147D01*
X00223571Y00400059D01*
X00223512Y00399942D01*
X00223444Y00399796D01*
X00223395Y00399610D01*
X00223356Y00399405D01*
X00223347Y00399162D01*
Y00399152D01*
Y00399132D01*
Y00399093D01*
X00223356Y00399045D01*
Y00398986D01*
X00223366Y00398927D01*
X00223386Y00398772D01*
X00223424Y00398596D01*
X00223483Y00398420D01*
X00223561Y00398255D01*
X00223668Y00398098D01*
X00223688Y00398079D01*
X00223727Y00398040D01*
X00223795Y00397981D01*
X00223893Y00397923D01*
X00224010Y00397855D01*
X00224146Y00397796D01*
X00224293Y00397757D01*
X00224468Y00397738D01*
X00224488D01*
X00224546Y00397747D01*
X00224634Y00397757D01*
X00224751Y00397786D01*
X00224878Y00397825D01*
X00225005Y00397894D01*
X00225141Y00397981D01*
X00225268Y00398098D01*
X00225278Y00398118D01*
X00225317Y00398167D01*
X00225375Y00398255D01*
X00225434Y00398372D01*
X00225492Y00398518D01*
X00225551Y00398703D01*
X00225590Y00398918D01*
X00225599Y00399162D01*
Y00399171D01*
Y00399191D01*
Y00399230D01*
Y00399279D01*
X00225590Y00399327D01*
X00225580Y00399396D01*
X00225560Y00399552D01*
X00225522Y00399718D01*
X00225463Y00399893D01*
X00225375Y00400059D01*
X00225268Y00400215D01*
X00225258Y00400234D01*
X00225209Y00400274D01*
X00225141Y00400332D01*
X00225044Y00400400D01*
X00224936Y00400469D01*
X00224800Y00400527D01*
X00224644Y00400566D01*
X00224468Y00400586D01*
D02*
G37*
G36*
X00242854D02*
X00242834D01*
X00242776Y00400576D01*
X00242688Y00400566D01*
X00242571Y00400537D01*
X00242444Y00400498D01*
X00242317Y00400430D01*
X00242181Y00400342D01*
X00242054Y00400215D01*
X00242044Y00400196D01*
X00242005Y00400147D01*
X00241956Y00400059D01*
X00241898Y00399942D01*
X00241829Y00399796D01*
X00241781Y00399610D01*
X00241742Y00399405D01*
X00241732Y00399162D01*
Y00399152D01*
Y00399132D01*
Y00399093D01*
X00241742Y00399045D01*
Y00398986D01*
X00241751Y00398927D01*
X00241771Y00398772D01*
X00241810Y00398596D01*
X00241869Y00398420D01*
X00241947Y00398255D01*
X00242054Y00398098D01*
X00242073Y00398079D01*
X00242112Y00398040D01*
X00242181Y00397981D01*
X00242278Y00397923D01*
X00242395Y00397855D01*
X00242532Y00397796D01*
X00242678Y00397757D01*
X00242854Y00397738D01*
X00242873D01*
X00242932Y00397747D01*
X00243020Y00397757D01*
X00243137Y00397786D01*
X00243263Y00397825D01*
X00243390Y00397894D01*
X00243527Y00397981D01*
X00243654Y00398098D01*
X00243663Y00398118D01*
X00243702Y00398167D01*
X00243761Y00398255D01*
X00243819Y00398372D01*
X00243878Y00398518D01*
X00243936Y00398703D01*
X00243975Y00398918D01*
X00243985Y00399162D01*
Y00399171D01*
Y00399191D01*
Y00399230D01*
Y00399279D01*
X00243975Y00399327D01*
X00243966Y00399396D01*
X00243946Y00399552D01*
X00243907Y00399718D01*
X00243848Y00399893D01*
X00243761Y00400059D01*
X00243654Y00400215D01*
X00243644Y00400234D01*
X00243595Y00400274D01*
X00243527Y00400332D01*
X00243429Y00400400D01*
X00243322Y00400469D01*
X00243185Y00400527D01*
X00243029Y00400566D01*
X00242854Y00400586D01*
D02*
G37*
G36*
X00330098Y00296036D02*
X00329981D01*
X00329933Y00296026D01*
X00329864Y00296016D01*
X00329708Y00295997D01*
X00329542Y00295958D01*
X00329367Y00295899D01*
X00329201Y00295811D01*
X00329045Y00295704D01*
X00329025Y00295694D01*
X00328987Y00295645D01*
X00328928Y00295577D01*
X00328860Y00295480D01*
X00328791Y00295372D01*
X00328733Y00295236D01*
X00328694Y00295080D01*
X00328674Y00294904D01*
Y00294894D01*
Y00294885D01*
X00328684Y00294826D01*
X00328694Y00294738D01*
X00328723Y00294621D01*
X00328762Y00294494D01*
X00328830Y00294368D01*
X00328918Y00294231D01*
X00329045Y00294104D01*
X00329064Y00294095D01*
X00329113Y00294056D01*
X00329201Y00294007D01*
X00329318Y00293948D01*
X00329464Y00293880D01*
X00329650Y00293831D01*
X00329855Y00293792D01*
X00330098Y00293783D01*
X00330167D01*
X00330215Y00293792D01*
X00330274D01*
X00330332Y00293802D01*
X00330489Y00293822D01*
X00330664Y00293860D01*
X00330840Y00293919D01*
X00331006Y00293997D01*
X00331161Y00294104D01*
X00331181Y00294124D01*
X00331220Y00294163D01*
X00331279Y00294231D01*
X00331337Y00294329D01*
X00331405Y00294446D01*
X00331464Y00294582D01*
X00331503Y00294729D01*
X00331522Y00294904D01*
Y00294914D01*
Y00294924D01*
X00331513Y00294982D01*
X00331503Y00295070D01*
X00331474Y00295187D01*
X00331435Y00295314D01*
X00331366Y00295441D01*
X00331279Y00295577D01*
X00331161Y00295704D01*
X00331142Y00295714D01*
X00331093Y00295753D01*
X00331006Y00295811D01*
X00330888Y00295870D01*
X00330742Y00295928D01*
X00330557Y00295987D01*
X00330342Y00296026D01*
X00330098Y00296036D01*
D02*
G37*
G36*
X00329211Y00290378D02*
X00329025D01*
X00328957Y00290369D01*
X00328791Y00290359D01*
X00328606Y00290349D01*
X00328421Y00290320D01*
X00328236Y00290291D01*
X00328079Y00290242D01*
X00328060Y00290232D01*
X00328011Y00290222D01*
X00327943Y00290193D01*
X00327855Y00290154D01*
X00327748Y00290096D01*
X00327650Y00290037D01*
X00327543Y00289969D01*
X00327455Y00289881D01*
X00327445Y00289871D01*
X00327416Y00289842D01*
X00327377Y00289783D01*
X00327328Y00289715D01*
X00327280Y00289637D01*
X00327231Y00289530D01*
X00327192Y00289413D01*
X00327153Y00289286D01*
Y00289276D01*
X00327143Y00289228D01*
X00327133Y00289159D01*
X00327114Y00289052D01*
Y00288984D01*
X00327104Y00288906D01*
Y00288828D01*
X00327094Y00288730D01*
Y00288623D01*
X00327085Y00288506D01*
Y00288369D01*
Y00288233D01*
Y00287657D01*
X00331327D01*
Y00288613D01*
Y00288623D01*
Y00288633D01*
Y00288662D01*
Y00288701D01*
Y00288798D01*
X00331318Y00288915D01*
Y00289032D01*
X00331298Y00289169D01*
X00331288Y00289286D01*
X00331269Y00289384D01*
Y00289393D01*
X00331249Y00289442D01*
X00331230Y00289501D01*
X00331210Y00289569D01*
X00331123Y00289744D01*
X00331074Y00289832D01*
X00331006Y00289910D01*
X00330996Y00289920D01*
X00330966Y00289949D01*
X00330928Y00289979D01*
X00330859Y00290027D01*
X00330771Y00290086D01*
X00330664Y00290135D01*
X00330537Y00290193D01*
X00330391Y00290242D01*
X00330381D01*
X00330372Y00290252D01*
X00330342D01*
X00330313Y00290261D01*
X00330215Y00290281D01*
X00330079Y00290310D01*
X00329913Y00290340D01*
X00329708Y00290359D01*
X00329474Y00290369D01*
X00329211Y00290378D01*
D02*
G37*
G36*
X00330098Y00301498D02*
X00329981D01*
X00329933Y00301488D01*
X00329864Y00301478D01*
X00329708Y00301459D01*
X00329542Y00301420D01*
X00329367Y00301361D01*
X00329201Y00301273D01*
X00329045Y00301166D01*
X00329025Y00301156D01*
X00328987Y00301107D01*
X00328928Y00301039D01*
X00328860Y00300942D01*
X00328791Y00300834D01*
X00328733Y00300698D01*
X00328694Y00300542D01*
X00328674Y00300366D01*
Y00300356D01*
Y00300347D01*
X00328684Y00300288D01*
X00328694Y00300200D01*
X00328723Y00300083D01*
X00328762Y00299956D01*
X00328830Y00299830D01*
X00328918Y00299693D01*
X00329045Y00299566D01*
X00329064Y00299557D01*
X00329113Y00299518D01*
X00329201Y00299469D01*
X00329318Y00299410D01*
X00329464Y00299342D01*
X00329650Y00299293D01*
X00329855Y00299254D01*
X00330098Y00299244D01*
X00330167D01*
X00330215Y00299254D01*
X00330274D01*
X00330332Y00299264D01*
X00330489Y00299284D01*
X00330664Y00299322D01*
X00330840Y00299381D01*
X00331006Y00299459D01*
X00331161Y00299566D01*
X00331181Y00299586D01*
X00331220Y00299625D01*
X00331279Y00299693D01*
X00331337Y00299791D01*
X00331405Y00299908D01*
X00331464Y00300044D01*
X00331503Y00300191D01*
X00331522Y00300366D01*
Y00300376D01*
Y00300386D01*
X00331513Y00300444D01*
X00331503Y00300532D01*
X00331474Y00300649D01*
X00331435Y00300776D01*
X00331366Y00300903D01*
X00331279Y00301039D01*
X00331161Y00301166D01*
X00331142Y00301176D01*
X00331093Y00301215D01*
X00331006Y00301273D01*
X00330888Y00301332D01*
X00330742Y00301390D01*
X00330557Y00301449D01*
X00330342Y00301488D01*
X00330098Y00301498D01*
D02*
G37*
G36*
X00250705Y00400654D02*
X00250686D01*
X00250637Y00400644D01*
X00250559Y00400634D01*
X00250452Y00400615D01*
X00250344Y00400566D01*
X00250218Y00400508D01*
X00250101Y00400420D01*
X00249984Y00400303D01*
X00249974Y00400283D01*
X00249935Y00400234D01*
X00249896Y00400157D01*
X00249837Y00400039D01*
X00249788Y00399893D01*
X00249740Y00399718D01*
X00249701Y00399503D01*
X00249691Y00399259D01*
Y00399249D01*
Y00399230D01*
Y00399191D01*
Y00399132D01*
X00249701Y00399074D01*
Y00399006D01*
X00249720Y00398840D01*
X00249740Y00398664D01*
X00249769Y00398489D01*
X00249818Y00398323D01*
X00249857Y00398245D01*
X00249886Y00398176D01*
Y00398167D01*
X00249896Y00398157D01*
X00249944Y00398098D01*
X00250013Y00398030D01*
X00250101Y00397942D01*
X00250218Y00397855D01*
X00250364Y00397777D01*
X00250530Y00397718D01*
X00250618Y00397708D01*
X00250715Y00397699D01*
X00250735D01*
X00250783Y00397708D01*
X00250861Y00397718D01*
X00250959Y00397747D01*
X00251076Y00397786D01*
X00251193Y00397855D01*
X00251310Y00397942D01*
X00251427Y00398060D01*
X00251437Y00398079D01*
X00251476Y00398128D01*
X00251525Y00398215D01*
X00251583Y00398333D01*
X00251632Y00398479D01*
X00251681Y00398664D01*
X00251720Y00398889D01*
X00251729Y00399142D01*
Y00399152D01*
Y00399181D01*
Y00399220D01*
Y00399269D01*
X00251720Y00399337D01*
X00251710Y00399415D01*
X00251690Y00399591D01*
X00251661Y00399776D01*
X00251603Y00399961D01*
X00251534Y00400147D01*
X00251486Y00400225D01*
X00251437Y00400293D01*
X00251427Y00400312D01*
X00251388Y00400351D01*
X00251320Y00400410D01*
X00251242Y00400478D01*
X00251134Y00400537D01*
X00251008Y00400595D01*
X00250861Y00400634D01*
X00250705Y00400654D01*
D02*
G37*
G36*
X00287770Y00261199D02*
X00287750D01*
X00287692Y00261189D01*
X00287604Y00261179D01*
X00287487Y00261150D01*
X00287360Y00261111D01*
X00287233Y00261043D01*
X00287097Y00260955D01*
X00286970Y00260828D01*
X00286960Y00260809D01*
X00286921Y00260760D01*
X00286872Y00260672D01*
X00286814Y00260555D01*
X00286746Y00260409D01*
X00286697Y00260223D01*
X00286658Y00260019D01*
X00286648Y00259775D01*
Y00259765D01*
Y00259746D01*
Y00259706D01*
X00286658Y00259658D01*
Y00259599D01*
X00286667Y00259541D01*
X00286687Y00259385D01*
X00286726Y00259209D01*
X00286785Y00259034D01*
X00286863Y00258868D01*
X00286970Y00258712D01*
X00286989Y00258692D01*
X00287028Y00258653D01*
X00287097Y00258595D01*
X00287194Y00258536D01*
X00287311Y00258468D01*
X00287448Y00258409D01*
X00287594Y00258370D01*
X00287770Y00258351D01*
X00287789D01*
X00287848Y00258361D01*
X00287936Y00258370D01*
X00288053Y00258400D01*
X00288179Y00258438D01*
X00288306Y00258507D01*
X00288443Y00258595D01*
X00288570Y00258712D01*
X00288579Y00258731D01*
X00288618Y00258780D01*
X00288677Y00258868D01*
X00288735Y00258985D01*
X00288794Y00259131D01*
X00288852Y00259316D01*
X00288891Y00259531D01*
X00288901Y00259775D01*
Y00259785D01*
Y00259804D01*
Y00259843D01*
Y00259892D01*
X00288891Y00259941D01*
X00288882Y00260009D01*
X00288862Y00260165D01*
X00288823Y00260331D01*
X00288764Y00260506D01*
X00288677Y00260672D01*
X00288570Y00260828D01*
X00288560Y00260848D01*
X00288511Y00260887D01*
X00288443Y00260945D01*
X00288345Y00261014D01*
X00288238Y00261082D01*
X00288101Y00261140D01*
X00287945Y00261179D01*
X00287770Y00261199D01*
D02*
G37*
G36*
X00270301Y00262379D02*
X00269433Y00259999D01*
X00271198D01*
X00270301Y00262379D01*
D02*
G37*
G36*
X00289540Y00251617D02*
X00289520D01*
X00289462Y00251607D01*
X00289374Y00251597D01*
X00289257Y00251568D01*
X00289130Y00251529D01*
X00289004Y00251461D01*
X00288867Y00251373D01*
X00288740Y00251246D01*
X00288730Y00251227D01*
X00288691Y00251178D01*
X00288643Y00251090D01*
X00288584Y00250973D01*
X00288516Y00250827D01*
X00288467Y00250641D01*
X00288428Y00250437D01*
X00288418Y00250193D01*
Y00250183D01*
Y00250164D01*
Y00250124D01*
X00288428Y00250076D01*
Y00250017D01*
X00288438Y00249959D01*
X00288457Y00249803D01*
X00288496Y00249627D01*
X00288555Y00249452D01*
X00288633Y00249286D01*
X00288740Y00249130D01*
X00288760Y00249110D01*
X00288799Y00249071D01*
X00288867Y00249013D01*
X00288965Y00248954D01*
X00289081Y00248886D01*
X00289218Y00248827D01*
X00289364Y00248788D01*
X00289540Y00248769D01*
X00289559D01*
X00289618Y00248778D01*
X00289706Y00248788D01*
X00289823Y00248818D01*
X00289950Y00248857D01*
X00290076Y00248925D01*
X00290213Y00249013D01*
X00290340Y00249130D01*
X00290350Y00249149D01*
X00290389Y00249198D01*
X00290447Y00249286D01*
X00290506Y00249403D01*
X00290564Y00249549D01*
X00290623Y00249734D01*
X00290662Y00249949D01*
X00290671Y00250193D01*
Y00250203D01*
Y00250222D01*
Y00250261D01*
Y00250310D01*
X00290662Y00250359D01*
X00290652Y00250427D01*
X00290632Y00250583D01*
X00290593Y00250749D01*
X00290535Y00250924D01*
X00290447Y00251090D01*
X00290340Y00251246D01*
X00290330Y00251266D01*
X00290281Y00251305D01*
X00290213Y00251363D01*
X00290115Y00251432D01*
X00290008Y00251500D01*
X00289872Y00251558D01*
X00289715Y00251597D01*
X00289540Y00251617D01*
D02*
G37*
G36*
X00277680Y00253207D02*
X00276831D01*
Y00248964D01*
X00277972D01*
X00278089Y00248974D01*
X00278206D01*
X00278343Y00248993D01*
X00278460Y00249003D01*
X00278557Y00249022D01*
X00278567D01*
X00278616Y00249042D01*
X00278674Y00249061D01*
X00278743Y00249081D01*
X00278918Y00249169D01*
X00279006Y00249217D01*
X00279084Y00249286D01*
X00279094Y00249296D01*
X00279123Y00249325D01*
X00279152Y00249364D01*
X00279201Y00249432D01*
X00279260Y00249520D01*
X00279308Y00249627D01*
X00279367Y00249754D01*
X00279416Y00249900D01*
Y00249910D01*
X00279426Y00249920D01*
Y00249949D01*
X00279435Y00249978D01*
X00279455Y00250076D01*
X00279484Y00250212D01*
X00279513Y00250378D01*
X00279533Y00250583D01*
X00279543Y00250817D01*
X00279552Y00251080D01*
Y00251090D01*
Y00251110D01*
Y00251149D01*
Y00251207D01*
Y00251266D01*
X00279543Y00251334D01*
X00279533Y00251500D01*
X00279523Y00251685D01*
X00279494Y00251870D01*
X00279464Y00252056D01*
X00279416Y00252212D01*
X00279406Y00252231D01*
X00279396Y00252280D01*
X00279367Y00252348D01*
X00279328Y00252436D01*
X00279269Y00252543D01*
X00279211Y00252641D01*
X00279143Y00252748D01*
X00279055Y00252836D01*
X00279045Y00252846D01*
X00279016Y00252875D01*
X00278957Y00252914D01*
X00278889Y00252963D01*
X00278811Y00253012D01*
X00278704Y00253060D01*
X00278587Y00253099D01*
X00278460Y00253138D01*
X00278450D01*
X00278401Y00253148D01*
X00278333Y00253158D01*
X00278226Y00253177D01*
X00278158D01*
X00278079Y00253187D01*
X00278001D01*
X00277904Y00253197D01*
X00277797D01*
X00277680Y00253207D01*
D02*
G37*
G36*
X00287575Y00270781D02*
X00287555D01*
X00287497Y00270771D01*
X00287409Y00270761D01*
X00287292Y00270732D01*
X00287165Y00270693D01*
X00287038Y00270625D01*
X00286902Y00270537D01*
X00286775Y00270410D01*
X00286765Y00270391D01*
X00286726Y00270342D01*
X00286677Y00270254D01*
X00286619Y00270137D01*
X00286551Y00269991D01*
X00286502Y00269805D01*
X00286463Y00269601D01*
X00286453Y00269357D01*
Y00269347D01*
Y00269328D01*
Y00269288D01*
X00286463Y00269240D01*
Y00269181D01*
X00286472Y00269123D01*
X00286492Y00268967D01*
X00286531Y00268791D01*
X00286590Y00268615D01*
X00286667Y00268450D01*
X00286775Y00268294D01*
X00286794Y00268274D01*
X00286833Y00268235D01*
X00286902Y00268176D01*
X00286999Y00268118D01*
X00287116Y00268050D01*
X00287253Y00267991D01*
X00287399Y00267952D01*
X00287575Y00267933D01*
X00287594D01*
X00287653Y00267942D01*
X00287740Y00267952D01*
X00287857Y00267981D01*
X00287984Y00268020D01*
X00288111Y00268089D01*
X00288248Y00268176D01*
X00288374Y00268294D01*
X00288384Y00268313D01*
X00288423Y00268362D01*
X00288482Y00268450D01*
X00288540Y00268567D01*
X00288599Y00268713D01*
X00288657Y00268898D01*
X00288696Y00269113D01*
X00288706Y00269357D01*
Y00269366D01*
Y00269386D01*
Y00269425D01*
Y00269474D01*
X00288696Y00269522D01*
X00288687Y00269591D01*
X00288667Y00269747D01*
X00288628Y00269913D01*
X00288570Y00270088D01*
X00288482Y00270254D01*
X00288374Y00270410D01*
X00288365Y00270430D01*
X00288316Y00270469D01*
X00288248Y00270527D01*
X00288150Y00270595D01*
X00288043Y00270664D01*
X00287906Y00270722D01*
X00287750Y00270761D01*
X00287575Y00270781D01*
D02*
G37*
G36*
X00282005Y00270849D02*
X00281986D01*
X00281937Y00270839D01*
X00281849Y00270830D01*
X00281752Y00270810D01*
X00281635Y00270761D01*
X00281518Y00270703D01*
X00281401Y00270615D01*
X00281283Y00270498D01*
X00281274Y00270478D01*
X00281245Y00270430D01*
X00281196Y00270352D01*
X00281147Y00270244D01*
X00281089Y00270098D01*
X00281049Y00269913D01*
X00281010Y00269698D01*
X00281001Y00269454D01*
Y00269445D01*
Y00269425D01*
Y00269386D01*
Y00269337D01*
X00281010Y00269279D01*
X00281020Y00269201D01*
X00281040Y00269045D01*
X00281069Y00268869D01*
X00281118Y00268694D01*
X00281186Y00268528D01*
X00281283Y00268381D01*
X00281293Y00268372D01*
X00281332Y00268333D01*
X00281391Y00268274D01*
X00281479Y00268216D01*
X00281576Y00268147D01*
X00281703Y00268099D01*
X00281840Y00268060D01*
X00281986Y00268040D01*
X00282005D01*
X00282064Y00268050D01*
X00282142Y00268060D01*
X00282249Y00268089D01*
X00282366Y00268128D01*
X00282493Y00268186D01*
X00282620Y00268274D01*
X00282737Y00268391D01*
X00282747Y00268411D01*
X00282786Y00268459D01*
X00282834Y00268537D01*
X00282893Y00268654D01*
X00282951Y00268801D01*
X00283000Y00268976D01*
X00283039Y00269181D01*
X00283049Y00269425D01*
Y00269435D01*
Y00269454D01*
Y00269493D01*
Y00269542D01*
X00283039Y00269601D01*
X00283029Y00269669D01*
X00283010Y00269835D01*
X00282971Y00270000D01*
X00282922Y00270186D01*
X00282844Y00270352D01*
X00282747Y00270498D01*
X00282737Y00270517D01*
X00282698Y00270556D01*
X00282630Y00270605D01*
X00282542Y00270673D01*
X00282435Y00270742D01*
X00282308Y00270791D01*
X00282171Y00270830D01*
X00282005Y00270849D01*
D02*
G37*
G36*
X00248295Y00213654D02*
X00248285D01*
X00248246Y00213634D01*
X00248188Y00213625D01*
X00248110Y00213595D01*
X00248002Y00213566D01*
X00247876Y00213537D01*
X00247719Y00213498D01*
X00247544Y00213459D01*
X00247524D01*
X00247466Y00213439D01*
X00247378Y00213420D01*
X00247271Y00213391D01*
X00247164Y00213361D01*
X00247047Y00213322D01*
X00246959Y00213283D01*
X00246881Y00213244D01*
X00246871Y00213234D01*
X00246842Y00213215D01*
X00246803Y00213176D01*
X00246764Y00213127D01*
X00246725Y00213069D01*
X00246686Y00212991D01*
X00246656Y00212913D01*
X00246647Y00212815D01*
Y00212805D01*
Y00212776D01*
X00246656Y00212717D01*
X00246666Y00212659D01*
X00246695Y00212591D01*
X00246725Y00212513D01*
X00246773Y00212435D01*
X00246832Y00212366D01*
X00246842Y00212357D01*
X00246871Y00212337D01*
X00246910Y00212308D01*
X00246968Y00212279D01*
X00247037Y00212240D01*
X00247125Y00212210D01*
X00247212Y00212191D01*
X00247320Y00212181D01*
X00247378D01*
X00247437Y00212191D01*
X00247524Y00212210D01*
X00247622Y00212230D01*
X00247729Y00212269D01*
X00247836Y00212327D01*
X00247954Y00212396D01*
X00247963Y00212405D01*
X00247993Y00212425D01*
X00248022Y00212464D01*
X00248071Y00212513D01*
X00248119Y00212571D01*
X00248168Y00212640D01*
X00248207Y00212717D01*
X00248246Y00212805D01*
Y00212815D01*
X00248256Y00212834D01*
X00248266Y00212873D01*
X00248275Y00212942D01*
Y00213020D01*
X00248285Y00213127D01*
X00248295Y00213244D01*
Y00213400D01*
Y00213654D01*
D02*
G37*
G36*
X00233431Y00216775D02*
X00232133D01*
Y00215292D01*
X00233372D01*
X00233538Y00215302D01*
X00233821D01*
X00233879Y00215312D01*
X00233938D01*
X00233977Y00215322D01*
X00234035Y00215331D01*
X00234104Y00215351D01*
X00234191Y00215380D01*
X00234279Y00215419D01*
X00234357Y00215478D01*
X00234435Y00215536D01*
X00234445Y00215546D01*
X00234464Y00215575D01*
X00234494Y00215614D01*
X00234533Y00215673D01*
X00234572Y00215751D01*
X00234601Y00215829D01*
X00234620Y00215936D01*
X00234630Y00216043D01*
Y00216053D01*
Y00216092D01*
X00234620Y00216151D01*
X00234611Y00216209D01*
X00234591Y00216287D01*
X00234562Y00216365D01*
X00234523Y00216443D01*
X00234464Y00216521D01*
X00234455Y00216531D01*
X00234435Y00216551D01*
X00234396Y00216580D01*
X00234338Y00216619D01*
X00234269Y00216658D01*
X00234191Y00216697D01*
X00234094Y00216726D01*
X00233977Y00216746D01*
X00233967D01*
X00233928Y00216756D01*
X00233821D01*
X00233762Y00216765D01*
X00233528D01*
X00233431Y00216775D01*
D02*
G37*
G36*
X00233470Y00214229D02*
X00232133D01*
Y00212513D01*
X00233557D01*
X00233694Y00212522D01*
X00233850D01*
X00233996Y00212532D01*
X00234123Y00212542D01*
X00234172D01*
X00234211Y00212552D01*
X00234221D01*
X00234259Y00212561D01*
X00234308Y00212581D01*
X00234377Y00212600D01*
X00234445Y00212640D01*
X00234533Y00212679D01*
X00234611Y00212737D01*
X00234679Y00212805D01*
X00234689Y00212815D01*
X00234708Y00212844D01*
X00234737Y00212893D01*
X00234776Y00212952D01*
X00234806Y00213030D01*
X00234835Y00213127D01*
X00234855Y00213234D01*
X00234864Y00213351D01*
Y00213361D01*
Y00213400D01*
X00234855Y00213449D01*
X00234845Y00213517D01*
X00234825Y00213595D01*
X00234806Y00213673D01*
X00234767Y00213761D01*
X00234718Y00213839D01*
X00234708Y00213849D01*
X00234689Y00213868D01*
X00234659Y00213907D01*
X00234620Y00213956D01*
X00234562Y00214005D01*
X00234494Y00214054D01*
X00234416Y00214093D01*
X00234318Y00214132D01*
X00234308D01*
X00234259Y00214151D01*
X00234191Y00214161D01*
X00234133Y00214171D01*
X00234074Y00214181D01*
X00234006Y00214190D01*
X00233918Y00214200D01*
X00233830Y00214210D01*
X00233723D01*
X00233606Y00214219D01*
X00233470Y00214229D01*
D02*
G37*
G36*
X00284078Y00251617D02*
X00284058D01*
X00284000Y00251607D01*
X00283912Y00251597D01*
X00283795Y00251568D01*
X00283668Y00251529D01*
X00283542Y00251461D01*
X00283405Y00251373D01*
X00283278Y00251246D01*
X00283268Y00251227D01*
X00283229Y00251178D01*
X00283181Y00251090D01*
X00283122Y00250973D01*
X00283054Y00250827D01*
X00283005Y00250641D01*
X00282966Y00250437D01*
X00282956Y00250193D01*
Y00250183D01*
Y00250164D01*
Y00250124D01*
X00282966Y00250076D01*
Y00250017D01*
X00282976Y00249959D01*
X00282995Y00249803D01*
X00283034Y00249627D01*
X00283093Y00249452D01*
X00283171Y00249286D01*
X00283278Y00249130D01*
X00283298Y00249110D01*
X00283337Y00249071D01*
X00283405Y00249013D01*
X00283503Y00248954D01*
X00283619Y00248886D01*
X00283756Y00248827D01*
X00283902Y00248788D01*
X00284078Y00248769D01*
X00284097D01*
X00284156Y00248778D01*
X00284244Y00248788D01*
X00284361Y00248818D01*
X00284488Y00248857D01*
X00284614Y00248925D01*
X00284751Y00249013D01*
X00284878Y00249130D01*
X00284888Y00249149D01*
X00284926Y00249198D01*
X00284985Y00249286D01*
X00285044Y00249403D01*
X00285102Y00249549D01*
X00285161Y00249734D01*
X00285200Y00249949D01*
X00285209Y00250193D01*
Y00250203D01*
Y00250222D01*
Y00250261D01*
Y00250310D01*
X00285200Y00250359D01*
X00285190Y00250427D01*
X00285170Y00250583D01*
X00285131Y00250749D01*
X00285073Y00250924D01*
X00284985Y00251090D01*
X00284878Y00251246D01*
X00284868Y00251266D01*
X00284819Y00251305D01*
X00284751Y00251363D01*
X00284653Y00251432D01*
X00284546Y00251500D01*
X00284410Y00251558D01*
X00284254Y00251597D01*
X00284078Y00251617D01*
D02*
G37*
%LPD*%
D28*
X00248620Y00376690D02*
G03*
X00248620Y00376690I-00001250J00000000D01*
G01*
D29*
X00195250Y00405740D02*
Y00443840D01*
Y00405740D02*
X00258750D01*
Y00443840D01*
X00195250D02*
X00258750D01*
D30*
X00263640Y00349980D02*
X00271640D01*
X00263640Y00364980D02*
X00271640D01*
X00251770Y00385040D02*
Y00393190D01*
X00258370D01*
X00280970Y00385040D02*
Y00393190D01*
X00274370D02*
X00280970D01*
X00195060Y00263380D02*
X00203060D01*
X00195060Y00248380D02*
X00203060D01*
X00162040Y00422370D02*
X00170040D01*
X00162040Y00437370D02*
X00170040D01*
X00162040Y00399510D02*
X00170040D01*
X00162040Y00414510D02*
X00170040D01*
X00329870Y00328270D02*
Y00338430D01*
Y00257150D02*
Y00260960D01*
X00340030Y00267310D02*
Y00328270D01*
X00319710D02*
X00340030D01*
X00319710Y00267310D02*
Y00328270D01*
X00276340Y00326880D02*
X00284340D01*
X00276340Y00311880D02*
X00284340D01*
D31*
X00256880Y00276440D02*
X00308880D01*
X00256880Y00306440D02*
X00308880D01*
D32*
X00264922Y00355346D02*
Y00359425D01*
X00266961D01*
X00267641Y00358745D01*
Y00357385D01*
X00266961Y00356706D01*
X00264922D01*
X00266282D02*
X00267641Y00355346D01*
X00269001D02*
X00270360D01*
X00269681D01*
Y00359425D01*
X00269001Y00358745D01*
X00199061Y00257145D02*
X00198381Y00257825D01*
X00197022D01*
X00196342Y00257145D01*
Y00254426D01*
X00197022Y00253746D01*
X00198381D01*
X00199061Y00254426D01*
X00200421Y00253746D02*
X00201780D01*
X00201101D01*
Y00257825D01*
X00200421Y00257145D01*
X00165279Y00431135D02*
X00164599Y00431815D01*
X00163240D01*
X00162560Y00431135D01*
Y00428416D01*
X00163240Y00427736D01*
X00164599D01*
X00165279Y00428416D01*
X00169358Y00427736D02*
X00166639D01*
X00169358Y00430455D01*
Y00431135D01*
X00168678Y00431815D01*
X00167318D01*
X00166639Y00431135D01*
X00165279Y00408275D02*
X00164599Y00408955D01*
X00163240D01*
X00162560Y00408275D01*
Y00405556D01*
X00163240Y00404876D01*
X00164599D01*
X00165279Y00405556D01*
X00166639Y00408275D02*
X00167318Y00408955D01*
X00168678D01*
X00169358Y00408275D01*
Y00407595D01*
X00168678Y00406915D01*
X00167998D01*
X00168678D01*
X00169358Y00406236D01*
Y00405556D01*
X00168678Y00404876D01*
X00167318D01*
X00166639Y00405556D01*
M02*
