G04 Layer_Physical_Order=1*
G04 Layer_Color=255*
%FSAX44Y44*%
%MOMM*%
G71*
G01*
G75*
%ADD10R,1.1000X1.7000*%
%ADD11R,0.8000X0.9000*%
%ADD12R,1.6000X1.0000*%
%ADD13R,0.6500X0.9000*%
%ADD14C,0.5080*%
%ADD15C,1.5000*%
%ADD16C,1.0000*%
%ADD17R,0.5080X0.6976*%
%ADD18C,2.0000*%
%ADD19R,2.0000X2.0000*%
%ADD20C,1.5000*%
%ADD21R,1.5000X1.5000*%
%ADD22C,1.4000*%
%ADD23C,1.5240*%
%ADD24R,1.5000X1.5000*%
%ADD25C,0.6000*%
G36*
X00325117Y00445725D02*
X00330037Y00444233D01*
X00334572Y00441809D01*
X00338547Y00438547D01*
X00341809Y00434572D01*
X00344233Y00430037D01*
X00345725Y00425117D01*
X00346205Y00420246D01*
X00346156Y00420000D01*
Y00231262D01*
X00346156Y00231252D01*
X00346156Y00230000D01*
X00346106Y00228751D01*
X00345725Y00224883D01*
X00344233Y00219963D01*
X00341809Y00215428D01*
X00338547Y00211453D01*
X00334572Y00208191D01*
X00330037Y00205767D01*
X00325117Y00204275D01*
X00320246Y00203795D01*
X00320000Y00203844D01*
X00130000D01*
X00129754Y00203795D01*
X00124883Y00204275D01*
X00119963Y00205767D01*
X00115428Y00208191D01*
X00111453Y00211453D01*
X00108191Y00215428D01*
X00105767Y00219963D01*
X00104275Y00224883D01*
X00103795Y00229754D01*
X00103844Y00230000D01*
Y00420000D01*
X00103795Y00420246D01*
X00104275Y00425117D01*
X00105767Y00430037D01*
X00108191Y00434572D01*
X00111453Y00438547D01*
X00115428Y00441809D01*
X00119963Y00444233D01*
X00124883Y00445725D01*
X00129754Y00446205D01*
X00130000Y00446156D01*
X00320000D01*
X00320246Y00446205D01*
X00325117Y00445725D01*
D02*
G37*
%LPC*%
G36*
X00324870Y00255178D02*
X00323066Y00253794D01*
X00321682Y00251990D01*
X00324870D01*
Y00255178D01*
D02*
G37*
G36*
X00334870D02*
Y00251990D01*
X00338058D01*
X00336674Y00253794D01*
X00334870Y00255178D01*
D02*
G37*
G36*
X00207560Y00250880D02*
X00204520D01*
Y00244840D01*
X00207560D01*
Y00250880D01*
D02*
G37*
G36*
X00220600D02*
X00217560D01*
Y00244840D01*
X00220600D01*
Y00250880D01*
D02*
G37*
G36*
X00293380Y00298940D02*
X00272380D01*
Y00283940D01*
X00293380D01*
Y00298940D01*
D02*
G37*
G36*
X00197870Y00299140D02*
X00194074D01*
X00194100Y00299077D01*
X00195709Y00296979D01*
X00197807Y00295370D01*
X00197870Y00295344D01*
Y00299140D01*
D02*
G37*
G36*
X00207560Y00266920D02*
X00204520D01*
Y00260880D01*
X00207560D01*
Y00266920D01*
D02*
G37*
G36*
X00220600D02*
X00217560D01*
Y00260880D01*
X00220600D01*
Y00266920D01*
D02*
G37*
G36*
X00272800Y00225480D02*
X00269004D01*
X00269030Y00225417D01*
X00270639Y00223319D01*
X00272737Y00221710D01*
X00272800Y00221684D01*
Y00225480D01*
D02*
G37*
G36*
X00286596D02*
X00282800D01*
Y00221684D01*
X00282863Y00221710D01*
X00284961Y00223319D01*
X00286570Y00225417D01*
X00286596Y00225480D01*
D02*
G37*
G36*
X00140000Y00262609D02*
X00135589Y00262174D01*
X00131348Y00260888D01*
X00127439Y00258799D01*
X00124013Y00255987D01*
X00121201Y00252561D01*
X00119112Y00248652D01*
X00117826Y00244411D01*
X00117391Y00240000D01*
X00117826Y00235589D01*
X00119112Y00231348D01*
X00121201Y00227439D01*
X00124013Y00224013D01*
X00127439Y00221201D01*
X00131348Y00219112D01*
X00135589Y00217826D01*
X00140000Y00217391D01*
X00144411Y00217826D01*
X00148652Y00219112D01*
X00152561Y00221201D01*
X00155987Y00224013D01*
X00158799Y00227439D01*
X00160888Y00231348D01*
X00162174Y00235589D01*
X00162609Y00240000D01*
X00162174Y00244411D01*
X00160888Y00248652D01*
X00158799Y00252561D01*
X00155987Y00255987D01*
X00152561Y00258799D01*
X00148652Y00260888D01*
X00144411Y00262174D01*
X00140000Y00262609D01*
D02*
G37*
G36*
X00202870Y00288826D02*
X00192784D01*
X00190173Y00288483D01*
X00187741Y00287475D01*
X00185652Y00285872D01*
X00178428Y00278648D01*
X00176825Y00276559D01*
X00175817Y00274127D01*
X00175474Y00271516D01*
Y00255880D01*
Y00237630D01*
X00175817Y00235019D01*
X00176825Y00232587D01*
X00178428Y00230498D01*
X00185578Y00223348D01*
X00187667Y00221745D01*
X00190100Y00220737D01*
X00191600Y00220540D01*
Y00220480D01*
X00192055D01*
X00192710Y00220394D01*
X00201600D01*
X00202255Y00220480D01*
X00211600D01*
Y00229825D01*
X00211686Y00230480D01*
X00211600Y00231135D01*
Y00240480D01*
X00202255D01*
X00201600Y00240566D01*
X00196888D01*
X00195646Y00241808D01*
Y00255880D01*
Y00267338D01*
X00196962Y00268654D01*
X00202870D01*
X00205480Y00268997D01*
X00207913Y00270005D01*
X00210002Y00271608D01*
X00211605Y00273697D01*
X00212613Y00276129D01*
X00212956Y00278740D01*
X00212613Y00281350D01*
X00211605Y00283783D01*
X00210002Y00285872D01*
X00207913Y00287475D01*
X00205480Y00288483D01*
X00202870Y00288826D01*
D02*
G37*
G36*
X00324870Y00241990D02*
X00321682D01*
X00323066Y00240186D01*
X00324870Y00238802D01*
Y00241990D01*
D02*
G37*
G36*
X00338058D02*
X00334870D01*
Y00238802D01*
X00336674Y00240186D01*
X00338058Y00241990D01*
D02*
G37*
G36*
X00272800Y00239276D02*
X00272737Y00239250D01*
X00270639Y00237641D01*
X00269030Y00235543D01*
X00269004Y00235480D01*
X00272800D01*
Y00239276D01*
D02*
G37*
G36*
X00282800D02*
Y00235480D01*
X00286596D01*
X00286570Y00235543D01*
X00284961Y00237641D01*
X00282863Y00239250D01*
X00282800Y00239276D01*
D02*
G37*
G36*
X00211666Y00299140D02*
X00207870D01*
Y00295344D01*
X00207933Y00295370D01*
X00210031Y00296979D01*
X00211640Y00299077D01*
X00211666Y00299140D01*
D02*
G37*
G36*
X00187540Y00440870D02*
X00171540D01*
Y00418870D01*
X00171540D01*
Y00418010D01*
X00171540D01*
Y00396010D01*
X00172166D01*
X00172337Y00394710D01*
X00173345Y00392277D01*
X00174948Y00390188D01*
X00191928Y00373208D01*
X00192870Y00372485D01*
Y00370340D01*
X00198405D01*
X00199060Y00370254D01*
X00202870D01*
X00203525Y00370340D01*
X00212870D01*
Y00379685D01*
X00212956Y00380340D01*
X00212870Y00380995D01*
Y00390340D01*
X00203525D01*
X00203294Y00390370D01*
X00192166Y00401498D01*
Y00414704D01*
X00201800D01*
Y00412290D01*
X00226800D01*
Y00418985D01*
X00228070Y00419238D01*
X00228381Y00418486D01*
X00230385Y00415875D01*
X00232996Y00413871D01*
X00236037Y00412612D01*
X00239300Y00412182D01*
X00242563Y00412612D01*
X00245604Y00413871D01*
X00248215Y00415875D01*
X00249251Y00417225D01*
X00254347D01*
X00258805Y00412767D01*
Y00396690D01*
X00259063Y00394732D01*
X00259819Y00392908D01*
X00259870Y00392841D01*
Y00389690D01*
X00263671D01*
X00264412Y00389383D01*
X00266370Y00389125D01*
X00268328Y00389383D01*
X00269069Y00389690D01*
X00272870D01*
Y00392841D01*
X00272921Y00392908D01*
X00273677Y00394732D01*
X00273935Y00396690D01*
Y00415900D01*
X00273935Y00415900D01*
X00273677Y00417858D01*
X00272921Y00419682D01*
X00271719Y00421249D01*
X00271719Y00421249D01*
X00262829Y00430139D01*
X00261262Y00431341D01*
X00259438Y00432097D01*
X00257480Y00432355D01*
X00249251D01*
X00248215Y00433705D01*
X00245604Y00435709D01*
X00242563Y00436968D01*
X00239300Y00437398D01*
X00236037Y00436968D01*
X00232996Y00435709D01*
X00230385Y00433705D01*
X00228381Y00431094D01*
X00228070Y00430342D01*
X00226800Y00430595D01*
Y00437290D01*
X00201800D01*
Y00434876D01*
X00187630D01*
X00187540Y00434955D01*
Y00440870D01*
D02*
G37*
G36*
X00147540Y00402010D02*
X00144500D01*
Y00395970D01*
X00147540D01*
Y00402010D01*
D02*
G37*
G36*
X00282410Y00383730D02*
X00280870D01*
Y00381690D01*
X00282410D01*
Y00383730D01*
D02*
G37*
G36*
X00310000Y00432609D02*
X00305589Y00432174D01*
X00301348Y00430888D01*
X00297439Y00428799D01*
X00294013Y00425987D01*
X00291201Y00422561D01*
X00289112Y00418652D01*
X00287826Y00414411D01*
X00287391Y00410000D01*
X00287826Y00405589D01*
X00289112Y00401348D01*
X00291201Y00397439D01*
X00294013Y00394013D01*
X00297439Y00391202D01*
X00301348Y00389112D01*
X00305589Y00387826D01*
X00310000Y00387391D01*
X00314411Y00387826D01*
X00318652Y00389112D01*
X00322561Y00391202D01*
X00325987Y00394013D01*
X00328799Y00397439D01*
X00330888Y00401348D01*
X00332174Y00405589D01*
X00332609Y00410000D01*
X00332174Y00414411D01*
X00330888Y00418652D01*
X00328799Y00422561D01*
X00325987Y00425987D01*
X00322561Y00428799D01*
X00318652Y00430888D01*
X00314411Y00432174D01*
X00310000Y00432609D01*
D02*
G37*
G36*
X00147540Y00440910D02*
X00144500D01*
Y00434870D01*
X00147540D01*
Y00440910D01*
D02*
G37*
G36*
X00160580D02*
X00157540D01*
Y00434870D01*
X00160580D01*
Y00440910D01*
D02*
G37*
G36*
Y00402010D02*
X00157540D01*
Y00395970D01*
X00160580D01*
Y00402010D01*
D02*
G37*
G36*
Y00424870D02*
X00152540D01*
X00144500D01*
Y00419320D01*
X00144500Y00418050D01*
X00144500Y00417560D01*
Y00412010D01*
X00152540D01*
X00160580D01*
Y00417560D01*
X00160580Y00418830D01*
X00160580Y00419320D01*
Y00424870D01*
D02*
G37*
G36*
X00228270Y00365026D02*
X00225660Y00364683D01*
X00223227Y00363675D01*
X00221138Y00362072D01*
X00219535Y00359983D01*
X00218527Y00357551D01*
X00218184Y00354940D01*
X00218527Y00352329D01*
X00219535Y00349897D01*
X00221138Y00347808D01*
X00223227Y00346205D01*
X00225660Y00345197D01*
X00228270Y00344854D01*
X00229639Y00345034D01*
X00238821Y00335852D01*
X00238335Y00334679D01*
X00236932D01*
X00235402Y00336672D01*
X00233313Y00338275D01*
X00230881Y00339283D01*
X00228270Y00339626D01*
X00225660Y00339283D01*
X00223227Y00338275D01*
X00221138Y00336672D01*
X00219535Y00334583D01*
X00218527Y00332150D01*
X00218184Y00329540D01*
X00218527Y00326930D01*
X00219535Y00324497D01*
X00219597Y00324417D01*
X00218640Y00323578D01*
X00212924Y00329293D01*
X00212956Y00329540D01*
X00212613Y00332150D01*
X00211605Y00334583D01*
X00210002Y00336672D01*
X00207913Y00338275D01*
X00205480Y00339283D01*
X00202870Y00339626D01*
X00200259Y00339283D01*
X00197827Y00338275D01*
X00195738Y00336672D01*
X00194135Y00334583D01*
X00193127Y00332150D01*
X00192784Y00329540D01*
X00193127Y00326930D01*
X00194135Y00324497D01*
X00195738Y00322408D01*
X00197827Y00320805D01*
X00200259Y00319797D01*
X00202870Y00319454D01*
X00205480Y00319797D01*
X00207181Y00320502D01*
X00214316Y00313366D01*
X00215984Y00312252D01*
X00217950Y00311861D01*
X00219989D01*
X00220616Y00310591D01*
X00219535Y00309183D01*
X00218527Y00306751D01*
X00218184Y00304140D01*
X00218527Y00301530D01*
X00219535Y00299097D01*
X00221138Y00297008D01*
X00223227Y00295405D01*
X00225660Y00294397D01*
X00228270Y00294054D01*
X00230881Y00294397D01*
X00233313Y00295405D01*
X00234561Y00296363D01*
X00235831Y00295737D01*
Y00287143D01*
X00234561Y00286517D01*
X00233313Y00287475D01*
X00230881Y00288483D01*
X00228270Y00288826D01*
X00225660Y00288483D01*
X00223227Y00287475D01*
X00221138Y00285872D01*
X00219535Y00283783D01*
X00218527Y00281350D01*
X00218184Y00278740D01*
X00218527Y00276129D01*
X00219535Y00273697D01*
X00221138Y00271608D01*
X00223131Y00270078D01*
Y00239701D01*
X00221957Y00239215D01*
X00219868Y00237612D01*
X00218265Y00235523D01*
X00217257Y00233090D01*
X00216914Y00230480D01*
X00217257Y00227869D01*
X00218265Y00225437D01*
X00219868Y00223348D01*
X00221957Y00221745D01*
X00224389Y00220737D01*
X00227000Y00220394D01*
X00229611Y00220737D01*
X00232043Y00221745D01*
X00234132Y00223348D01*
X00235735Y00225437D01*
X00236743Y00227869D01*
X00237086Y00230480D01*
X00236743Y00233090D01*
X00235735Y00235523D01*
X00234132Y00237612D01*
X00233409Y00238167D01*
Y00270078D01*
X00234561Y00270963D01*
X00235831Y00270336D01*
Y00241910D01*
X00236222Y00239944D01*
X00237336Y00238276D01*
X00242642Y00232971D01*
X00242314Y00230480D01*
X00242657Y00227869D01*
X00243665Y00225437D01*
X00245268Y00223348D01*
X00247357Y00221745D01*
X00249790Y00220737D01*
X00252400Y00220394D01*
X00255011Y00220737D01*
X00257443Y00221745D01*
X00259532Y00223348D01*
X00261135Y00225437D01*
X00262143Y00227869D01*
X00262486Y00230480D01*
X00262143Y00233090D01*
X00261135Y00235523D01*
X00259532Y00237612D01*
X00257443Y00239215D01*
X00255011Y00240223D01*
X00252400Y00240566D01*
X00249909Y00240238D01*
X00246109Y00244039D01*
Y00278738D01*
X00247379Y00279416D01*
X00247894Y00279072D01*
X00249860Y00278681D01*
X00252380D01*
Y00276940D01*
X00263880D01*
Y00290940D01*
X00263880D01*
Y00291940D01*
X00263880D01*
Y00305940D01*
X00254625D01*
X00254588Y00306126D01*
X00253474Y00307794D01*
X00240634Y00320634D01*
X00238967Y00321748D01*
X00237000Y00322139D01*
X00236796D01*
X00236170Y00323409D01*
X00236932Y00324401D01*
X00239552D01*
X00248207Y00315746D01*
X00249874Y00314632D01*
X00251840Y00314241D01*
X00258840D01*
Y00308380D01*
X00274840D01*
Y00328211D01*
X00285840D01*
Y00308380D01*
X00301840D01*
Y00311453D01*
X00303110Y00312132D01*
X00303141Y00312111D01*
Y00305940D01*
X00301880D01*
Y00292210D01*
X00301880Y00291940D01*
Y00290940D01*
X00301880Y00290670D01*
Y00276940D01*
X00313380D01*
Y00290670D01*
X00313380Y00290940D01*
Y00291940D01*
X00313380Y00292210D01*
Y00299395D01*
X00313419Y00299590D01*
Y00315570D01*
X00313028Y00317537D01*
X00311914Y00319204D01*
X00308104Y00323014D01*
X00306437Y00324128D01*
X00304470Y00324519D01*
X00301840D01*
Y00328211D01*
X00324731D01*
Y00280421D01*
X00323095Y00279165D01*
X00321572Y00277181D01*
X00320615Y00274870D01*
X00320288Y00272390D01*
X00320615Y00269910D01*
X00321572Y00267599D01*
X00323095Y00265615D01*
X00325079Y00264092D01*
X00327390Y00263135D01*
X00329870Y00262808D01*
X00332350Y00263135D01*
X00334661Y00264092D01*
X00336646Y00265615D01*
X00338168Y00267599D01*
X00339126Y00269910D01*
X00339452Y00272390D01*
X00339126Y00274870D01*
X00338168Y00277181D01*
X00336646Y00279165D01*
X00335009Y00280421D01*
Y00333350D01*
Y00340559D01*
X00336646Y00341815D01*
X00338168Y00343799D01*
X00339126Y00346110D01*
X00339452Y00348590D01*
X00339126Y00351070D01*
X00338168Y00353381D01*
X00336646Y00355365D01*
X00334661Y00356888D01*
X00332350Y00357845D01*
X00329870Y00358172D01*
X00327390Y00357845D01*
X00325079Y00356888D01*
X00323095Y00355365D01*
X00321572Y00353381D01*
X00320615Y00351070D01*
X00320288Y00348590D01*
X00320615Y00346110D01*
X00321572Y00343799D01*
X00323095Y00341815D01*
X00324731Y00340559D01*
Y00338489D01*
X00250718D01*
X00237680Y00351527D01*
X00238013Y00352329D01*
X00238356Y00354940D01*
X00238013Y00357551D01*
X00237005Y00359983D01*
X00235402Y00362072D01*
X00233313Y00363675D01*
X00230881Y00364683D01*
X00228270Y00365026D01*
D02*
G37*
G36*
Y00390426D02*
X00225660Y00390083D01*
X00223227Y00389075D01*
X00221138Y00387472D01*
X00219535Y00385383D01*
X00218527Y00382951D01*
X00218184Y00380340D01*
X00218527Y00377729D01*
X00219535Y00375297D01*
X00221138Y00373208D01*
X00223227Y00371605D01*
X00225660Y00370597D01*
X00228270Y00370254D01*
X00230881Y00370597D01*
X00232797Y00371391D01*
X00232962D01*
X00246140Y00358213D01*
Y00346480D01*
X00262140D01*
Y00359133D01*
X00263313Y00359619D01*
X00269086Y00353846D01*
X00270753Y00352732D01*
X00272720Y00352341D01*
X00273140D01*
Y00346480D01*
X00289140D01*
Y00352341D01*
X00293451D01*
X00300544Y00345248D01*
X00300559Y00345174D01*
X00301775Y00343355D01*
X00303594Y00342139D01*
X00305740Y00341712D01*
X00307886Y00342139D01*
X00309705Y00343355D01*
X00310921Y00345174D01*
X00311348Y00347320D01*
X00310921Y00349466D01*
X00309705Y00351285D01*
X00307886Y00352501D01*
X00307812Y00352516D01*
X00299214Y00361114D01*
X00297547Y00362228D01*
X00295580Y00362619D01*
X00289140D01*
Y00368480D01*
X00282651D01*
X00282410Y00369650D01*
X00282410D01*
Y00371690D01*
X00275870D01*
Y00376690D01*
X00270870D01*
Y00383730D01*
X00269330D01*
Y00373126D01*
X00268060Y00372767D01*
X00263370Y00377457D01*
Y00383690D01*
X00250370D01*
Y00370313D01*
X00249100Y00369787D01*
X00238724Y00380164D01*
X00238346Y00380416D01*
X00238013Y00382951D01*
X00237005Y00385383D01*
X00235402Y00387472D01*
X00233313Y00389075D01*
X00230881Y00390083D01*
X00228270Y00390426D01*
D02*
G37*
G36*
X00197870Y00312936D02*
X00197807Y00312910D01*
X00195709Y00311301D01*
X00194100Y00309203D01*
X00194074Y00309140D01*
X00197870D01*
Y00312936D01*
D02*
G37*
G36*
X00207870D02*
Y00309140D01*
X00211666D01*
X00211640Y00309203D01*
X00210031Y00311301D01*
X00207933Y00312910D01*
X00207870Y00312936D01*
D02*
G37*
G36*
X00197870Y00363736D02*
X00197807Y00363710D01*
X00195709Y00362101D01*
X00194100Y00360003D01*
X00194074Y00359940D01*
X00197870D01*
Y00363736D01*
D02*
G37*
G36*
X00207870D02*
Y00359940D01*
X00211666D01*
X00211640Y00360003D01*
X00210031Y00362101D01*
X00207933Y00363710D01*
X00207870Y00363736D01*
D02*
G37*
G36*
X00197870Y00349940D02*
X00194074D01*
X00194100Y00349877D01*
X00195709Y00347779D01*
X00197807Y00346170D01*
X00197870Y00346144D01*
Y00349940D01*
D02*
G37*
G36*
X00211666D02*
X00207870D01*
Y00346144D01*
X00207933Y00346170D01*
X00210031Y00347779D01*
X00211640Y00349877D01*
X00211666Y00349940D01*
D02*
G37*
%LPD*%
D10*
X00281140Y00357480D02*
D03*
X00254140D02*
D03*
X00185560Y00255880D02*
D03*
X00212560D02*
D03*
X00179540Y00429870D02*
D03*
X00152540D02*
D03*
X00179540Y00407010D02*
D03*
X00152540D02*
D03*
X00266840Y00319380D02*
D03*
X00293840D02*
D03*
D11*
X00256870Y00376690D02*
D03*
X00275870D02*
D03*
X00266370Y00396690D02*
D03*
D12*
X00282880Y00291440D02*
D03*
D13*
X00258130Y00298940D02*
D03*
Y00283940D02*
D03*
X00307630Y00298940D02*
D03*
Y00283940D02*
D03*
D14*
X00235090Y00376530D02*
X00254140Y00357480D01*
X00228270Y00376530D02*
X00235090D01*
X00264680Y00365520D02*
Y00368880D01*
Y00365520D02*
X00272720Y00357480D01*
X00281140D01*
X00248590Y00333350D02*
X00329870D01*
X00230810Y00351130D02*
X00248590Y00333350D01*
X00228270Y00351130D02*
X00230810D01*
X00329870Y00333350D02*
Y00348590D01*
Y00272390D02*
Y00333350D01*
X00256870Y00376690D02*
X00264680Y00368880D01*
X00228270Y00231750D02*
Y00274930D01*
X00227000Y00230480D02*
X00228270Y00231750D01*
X00281140Y00357480D02*
X00295580D01*
X00305740Y00347320D01*
X00228270Y00304140D02*
X00237160D01*
X00228270Y00329540D02*
X00241680D01*
X00202870D02*
X00205410D01*
X00217950Y00317000D01*
X00237000D01*
X00241680Y00329540D02*
X00251840Y00319380D01*
X00266840D01*
X00293840D02*
X00304470D01*
X00308280Y00315570D01*
Y00299590D02*
Y00315570D01*
X00307630Y00298940D02*
X00308280Y00299590D01*
X00240970Y00241910D02*
X00252400Y00230480D01*
X00240970Y00241910D02*
Y00300330D01*
X00237160Y00304140D02*
X00240970Y00300330D01*
X00237000Y00317000D02*
X00249840Y00304160D01*
Y00292332D02*
Y00304160D01*
Y00292332D02*
X00249860Y00292312D01*
Y00283820D02*
Y00292312D01*
Y00283820D02*
X00258010D01*
X00258130Y00283940D01*
D15*
X00182080Y00419240D02*
X00187630Y00424790D01*
X00214300D01*
X00185560Y00237630D02*
Y00255880D01*
Y00237630D02*
X00192710Y00230480D01*
X00201600D01*
X00199060Y00380340D02*
X00202870D01*
X00182080Y00397320D02*
X00199060Y00380340D01*
X00182080Y00397320D02*
Y00419240D01*
X00185560Y00255880D02*
Y00271516D01*
X00192784Y00278740D01*
X00202870D01*
D16*
X00239300Y00424790D02*
X00257480D01*
X00266370Y00415900D01*
Y00396690D02*
Y00415900D01*
D17*
X00270180Y00376852D02*
D03*
D18*
X00239300Y00424790D02*
D03*
D19*
X00214300D02*
D03*
D20*
X00227000Y00230480D02*
D03*
X00252400D02*
D03*
X00277800D02*
D03*
X00228270Y00304140D02*
D03*
Y00329540D02*
D03*
Y00354940D02*
D03*
Y00380340D02*
D03*
X00202870Y00304140D02*
D03*
Y00329540D02*
D03*
Y00354940D02*
D03*
Y00278740D02*
D03*
X00228270D02*
D03*
D21*
X00201600Y00230480D02*
D03*
D22*
X00329870Y00272390D02*
D03*
Y00348590D02*
D03*
Y00246990D02*
D03*
D23*
X00310000Y00410000D02*
D03*
X00140000Y00240000D02*
D03*
D24*
X00202870Y00380340D02*
D03*
D25*
X00305740Y00347320D02*
D03*
X00138100Y00405740D02*
D03*
X00155880Y00358750D02*
D03*
X00138100Y00431140D02*
D03*
X00159690Y00283820D02*
D03*
X00177470Y00219050D02*
D03*
X00294310Y00386690D02*
D03*
X00256210Y00389230D02*
D03*
M02*
