G04 Layer_Color=8388736*
%FSAX44Y44*%
%MOMM*%
G71*
G01*
G75*
%ADD33R,1.3032X1.9032*%
%ADD34R,1.0032X1.1032*%
%ADD35R,1.8032X1.2032*%
%ADD36R,0.8532X1.1032*%
%ADD37C,2.2032*%
%ADD38R,2.2032X2.2032*%
%ADD39C,1.7032*%
%ADD40R,1.7032X1.7032*%
%ADD41C,1.6032*%
%ADD42C,1.7272*%
%ADD43R,1.7032X1.7032*%
D33*
X00281140Y00357480D02*
D03*
X00254140D02*
D03*
X00185560Y00255880D02*
D03*
X00212560D02*
D03*
X00179540Y00429870D02*
D03*
X00152540D02*
D03*
X00179540Y00407010D02*
D03*
X00152540D02*
D03*
X00266840Y00319380D02*
D03*
X00293840D02*
D03*
D34*
X00256870Y00376690D02*
D03*
X00275870D02*
D03*
X00266370Y00396690D02*
D03*
D35*
X00282880Y00291440D02*
D03*
D36*
X00258130Y00298940D02*
D03*
Y00283940D02*
D03*
X00307630Y00298940D02*
D03*
Y00283940D02*
D03*
D37*
X00239300Y00424790D02*
D03*
D38*
X00214300D02*
D03*
D39*
X00227000Y00230480D02*
D03*
X00252400D02*
D03*
X00277800D02*
D03*
X00228270Y00304140D02*
D03*
Y00329540D02*
D03*
Y00354940D02*
D03*
Y00380340D02*
D03*
X00202870Y00304140D02*
D03*
Y00329540D02*
D03*
Y00354940D02*
D03*
Y00278740D02*
D03*
X00228270D02*
D03*
D40*
X00201600Y00230480D02*
D03*
D41*
X00329870Y00272390D02*
D03*
Y00348590D02*
D03*
Y00246990D02*
D03*
D42*
X00310000Y00410000D02*
D03*
X00140000Y00240000D02*
D03*
D43*
X00202870Y00380340D02*
D03*
M02*
