M48
;Layer_Color=9474304
;FILE_FORMAT=4:4
METRIC
;TYPE=PLATED
T1F00S00C0.7112
T2F00S00C1.0000
T3F00S00C1.1000
T4F00S00C3.4500
;TYPE=NON_PLATED
T5F00S00C4.0000
%
T01
X00500380Y00377190
X00445770Y00422910
X00409970Y00577850
X00311150Y00538480
X00346710Y00668020
X00255270Y00657860
T02
X00471170Y00554600
Y00575000
Y00595400
X00491470Y00585200
Y00564800
Y00544400
X00359570Y00571500
X00339170
X00318770
X00328970Y00591800
X00349370
X00369770
X00369570Y00480060
X00349170
X00328770
X00318570Y00459760
X00338970
X00359370
X00228600Y00544600
Y00565000
Y00585400
X00208300Y00575200
Y00554800
Y00595600
T03
X00549920Y00422040
Y00447040
Y00472040
X00582920
Y00447040
Y00422040
T04
X00521970Y00522400
Y00617600
X00391770Y00622300
X00296570
X00177800Y00617600
Y00522400
X00296570Y00429260
X00391770
T05
X00130000Y00380000
X00570000
Y00670000
X00130000
M30
