%FSAX44Y44*%
%MOMM*%
G71*
G01*
G75*
G04 Layer_Color=65535*
%ADD10R,1.1000X1.7000*%
%ADD11R,1.7000X1.1000*%
%ADD12C,0.5080*%
%ADD13C,1.5000*%
%ADD14C,1.0000*%
%ADD15C,1.8500*%
%ADD16C,1.5000*%
%ADD17C,1.5240*%
%ADD18C,3.4500*%
%ADD19C,1.2700*%
%ADD20C,0.2500*%
%ADD21C,0.2000*%
%ADD22C,0.2540*%
D20*
X00593050Y00407670D02*
G03*
X00593050Y00407670I-00001250J00000000D01*
G01*
D21*
X00457010Y00449460D02*
X00465010D01*
X00457010Y00434460D02*
X00465010D01*
X00485020Y00387160D02*
Y00395160D01*
X00470020Y00387160D02*
Y00395160D01*
X00536420Y00402040D02*
X00596420D01*
X00536420D02*
Y00492040D01*
X00596420D01*
Y00402040D02*
Y00492040D01*
X00220790Y00665360D02*
X00228790D01*
X00220790Y00650360D02*
X00228790D01*
X00438270Y00387160D02*
Y00395160D01*
X00453270Y00387160D02*
Y00395160D01*
D22*
X00433070Y00498880D02*
X00598170D01*
Y00641120D01*
X00433070D02*
X00598170D01*
X00433070Y00498880D02*
Y00641120D01*
X00415290Y00533400D02*
Y00698500D01*
X00273050D02*
X00415290D01*
X00273050Y00533400D02*
Y00698500D01*
Y00533400D02*
X00415290D01*
X00101600Y00641120D02*
X00266700D01*
X00101600Y00498880D02*
Y00641120D01*
Y00498880D02*
X00266700D01*
Y00641120D01*
X00273050Y00518160D02*
X00415290D01*
Y00353060D02*
Y00518160D01*
X00273050Y00353060D02*
X00415290D01*
X00273050D02*
Y00518160D01*
X00514350Y00414020D02*
Y00431800D01*
Y00414020D02*
X00535940D01*
X00514350Y00431800D02*
X00535940D01*
X00279400Y00494030D02*
Y00504027D01*
X00284398D01*
X00286064Y00502361D01*
Y00499028D01*
X00284398Y00497362D01*
X00279400D01*
X00294395Y00494030D02*
Y00504027D01*
X00289397Y00499028D01*
X00296061D01*
X00109220Y00618260D02*
Y00628257D01*
X00114218D01*
X00115885Y00626591D01*
Y00623258D01*
X00114218Y00621592D01*
X00109220D01*
X00119217Y00618260D02*
X00122549D01*
X00120883D01*
Y00628257D01*
X00119217Y00626591D01*
X00287020Y00666750D02*
Y00676747D01*
X00292018D01*
X00293685Y00675081D01*
Y00671748D01*
X00292018Y00670082D01*
X00287020D01*
X00303681Y00666750D02*
X00297017D01*
X00303681Y00673415D01*
Y00675081D01*
X00302015Y00676747D01*
X00298683D01*
X00297017Y00675081D01*
X00554990Y00562380D02*
Y00572377D01*
X00559988D01*
X00561655Y00570711D01*
Y00567378D01*
X00559988Y00565712D01*
X00554990D01*
X00564987Y00570711D02*
X00566653Y00572377D01*
X00569985D01*
X00571651Y00570711D01*
Y00569044D01*
X00569985Y00567378D01*
X00568319D01*
X00569985D01*
X00571651Y00565712D01*
Y00564046D01*
X00569985Y00562380D01*
X00566653D01*
X00564987Y00564046D01*
X00213421Y00683717D02*
X00211754Y00685383D01*
X00208422D01*
X00206756Y00683717D01*
Y00677052D01*
X00208422Y00675386D01*
X00211754D01*
X00213421Y00677052D01*
X00216753Y00675386D02*
X00220085D01*
X00218419D01*
Y00685383D01*
X00216753Y00683717D01*
X00504190Y00392430D02*
X00494193D01*
Y00397428D01*
X00495859Y00399095D01*
X00499192D01*
X00500858Y00397428D01*
Y00392430D01*
Y00395762D02*
X00504190Y00399095D01*
Y00402427D02*
Y00405759D01*
Y00404093D01*
X00494193D01*
X00495859Y00402427D01*
X00433070Y00434340D02*
X00423073D01*
Y00439338D01*
X00424739Y00441004D01*
X00428072D01*
X00429738Y00439338D01*
Y00434340D01*
Y00437672D02*
X00433070Y00441004D01*
Y00451001D02*
Y00444337D01*
X00426405Y00451001D01*
X00424739D01*
X00423073Y00449335D01*
Y00446003D01*
X00424739Y00444337D01*
X00431800Y00386080D02*
X00421803D01*
Y00391078D01*
X00423469Y00392744D01*
X00426802D01*
X00428468Y00391078D01*
Y00386080D01*
Y00389412D02*
X00431800Y00392744D01*
X00423469Y00396077D02*
X00421803Y00397743D01*
Y00401075D01*
X00423469Y00402741D01*
X00425135D01*
X00426802Y00401075D01*
Y00399409D01*
Y00401075D01*
X00428468Y00402741D01*
X00430134D01*
X00431800Y00401075D01*
Y00397743D01*
X00430134Y00396077D01*
X00530149Y00388935D02*
X00528483Y00387268D01*
Y00383936D01*
X00530149Y00382270D01*
X00531815D01*
X00533482Y00383936D01*
Y00387268D01*
X00535148Y00388935D01*
X00536814D01*
X00538480Y00387268D01*
Y00383936D01*
X00536814Y00382270D01*
X00538480Y00392267D02*
Y00395599D01*
Y00393933D01*
X00528483D01*
X00530149Y00392267D01*
X00484184Y00491327D02*
X00477520D01*
Y00481330D01*
X00484184D01*
X00477520Y00486328D02*
X00480852D01*
X00487517Y00481330D02*
Y00487994D01*
X00492515D01*
X00494181Y00486328D01*
Y00481330D01*
X00504178Y00491327D02*
Y00481330D01*
X00499180D01*
X00497514Y00482996D01*
Y00486328D01*
X00499180Y00487994D01*
X00504178D01*
X00429260Y00474817D02*
X00435924D01*
X00432592D01*
Y00464820D01*
X00444255D02*
X00440923D01*
X00439257Y00466486D01*
Y00469818D01*
X00440923Y00471484D01*
X00444255D01*
X00445921Y00469818D01*
Y00468152D01*
X00439257D01*
X00449254Y00471484D02*
Y00464820D01*
Y00468152D01*
X00450920Y00469818D01*
X00452586Y00471484D01*
X00454252D01*
X00459250Y00464820D02*
Y00471484D01*
X00460916D01*
X00462583Y00469818D01*
Y00464820D01*
Y00469818D01*
X00464249Y00471484D01*
X00465915Y00469818D01*
Y00464820D01*
X00469247D02*
X00472579D01*
X00470913D01*
Y00471484D01*
X00469247D01*
X00477578Y00464820D02*
Y00471484D01*
X00482576D01*
X00484242Y00469818D01*
Y00464820D01*
X00489241Y00471484D02*
X00492573D01*
X00494239Y00469818D01*
Y00464820D01*
X00489241D01*
X00487575Y00466486D01*
X00489241Y00468152D01*
X00494239D01*
X00499238Y00473151D02*
Y00471484D01*
X00497571D01*
X00500904D01*
X00499238D01*
Y00466486D01*
X00500904Y00464820D01*
X00505902D02*
X00509234D01*
X00507568D01*
Y00471484D01*
X00505902D01*
X00515899Y00464820D02*
X00519231D01*
X00520897Y00466486D01*
Y00469818D01*
X00519231Y00471484D01*
X00515899D01*
X00514233Y00469818D01*
Y00466486D01*
X00515899Y00464820D01*
X00524229D02*
Y00471484D01*
X00529228D01*
X00530894Y00469818D01*
Y00464820D01*
X00518078Y00448147D02*
X00514746D01*
X00513080Y00446481D01*
Y00439816D01*
X00514746Y00438150D01*
X00518078D01*
X00519744Y00439816D01*
Y00446481D01*
X00518078Y00448147D01*
X00523077Y00438150D02*
Y00448147D01*
X00529741Y00438150D01*
Y00448147D01*
M02*
