%FSTAX23Y23*%
%MOMM*%
%SFA1B1*%

%IPPOS*%
%AMD83*
4,1,8,0.939800,0.388620,0.388620,0.939800,-0.388620,0.939800,-0.939800,0.388620,-0.939800,-0.388620,-0.388620,-0.939800,0.388620,-0.939800,0.939800,-0.388620,0.939800,0.388620,0.0*
%
%AMD150*
4,1,8,0.431800,-1.041400,1.041400,-0.431800,1.041400,0.431800,0.431800,1.041400,-0.431800,1.041400,-1.041400,0.431800,-1.041400,-0.431800,-0.431800,-1.041400,0.431800,-1.041400,0.0*
%
%AMD153*
4,1,8,0.762000,-1.041400,0.762000,1.041400,0.381000,1.422400,-0.381000,1.422400,-0.762000,1.041400,-0.762000,-1.041400,-0.381000,-1.422400,0.381000,-1.422400,0.762000,-1.041400,0.0*
%
%AMD154*
4,1,8,1.041400,0.431800,0.431800,1.041400,-0.431800,1.041400,-1.041400,0.431800,-1.041400,-0.431800,-0.431800,-1.041400,0.431800,-1.041400,1.041400,-0.431800,1.041400,0.431800,0.0*
%
G04~CAMADD=83~4~0.0~0.0~739.8~739.8~0.0~216.7~0~0.0~0.0~0.0~0.0~0~0.0~0.0~0.0~0.0~0~0.0~0.0~0.0~315.0~739.8~739.8*
%ADD83D83*%
%ADD90C,1.879996*%
%ADD149C,1.726997*%
G04~CAMADD=150~4~0.0~0.0~819.9~819.9~0.0~240.1~0~0.0~0.0~0.0~0.0~0~0.0~0.0~0.0~0.0~0~0.0~0.0~0.0~225.0~819.9~819.9*
%ADD150D150*%
%ADD151R,2.615995X2.615995*%
%ADD152C,2.615995*%
G04~CAMADD=153~4~0.0~0.0~1120.1~600.0~0.0~150.0~0~0.0~0.0~0.0~0.0~0~0.0~0.0~0.0~0.0~0~0.0~0.0~0.0~270.0~600.0~1120.0*
%ADD153D153*%
G04~CAMADD=154~4~0.0~0.0~819.9~819.9~0.0~240.1~0~0.0~0.0~0.0~0.0~0~0.0~0.0~0.0~0.0~0~0.0~0.0~0.0~315.0~819.9~819.9*
%ADD154D154*%
%ADD155C,2.557995*%
%ADD156C,3.452993*%
%ADD157R,2.234996X2.234996*%
%ADD158C,2.234996*%
%ADD159C,2.082996*%
%ADD160R,0.837998X1.472997*%
%ADD161C,1.472997*%
%LNsnarc_panel-1*%
%LPD*%
G54D83*
X10564Y11619D03*
X70564D03*
X10564Y71619D03*
X70564D03*
G54D90*
X17164Y08314D03*
Y10604D03*
Y19744D03*
Y22034D03*
X12344Y18729D03*
X10564Y17739D03*
X12344Y16689D03*
X10564Y15699D03*
X12344Y14649D03*
X10564Y13659D03*
X12344Y12609D03*
X77164Y08314D03*
Y10604D03*
Y19744D03*
Y22034D03*
X72344Y18729D03*
X70564Y17739D03*
X72344Y16689D03*
X70564Y15699D03*
X72344Y14649D03*
X70564Y13659D03*
X72344Y12609D03*
X17164Y68314D03*
Y70604D03*
Y79744D03*
Y82034D03*
X12344Y78729D03*
X10564Y77739D03*
X12344Y76689D03*
X10564Y75699D03*
X12344Y74649D03*
X10564Y73659D03*
X12344Y72609D03*
X77164Y68314D03*
Y70604D03*
Y79744D03*
Y82034D03*
X72344Y78729D03*
X70564Y77739D03*
X72344Y76689D03*
X70564Y75699D03*
X72344Y74649D03*
X70564Y73659D03*
X72344Y72609D03*
G54D149*
X127499Y127499D03*
X02499D03*
Y02499D03*
X127499D03*
G54D150*
X22619Y62951D03*
X20079D03*
X17539D03*
X25159D03*
X32819Y57869D03*
X25199Y55329D03*
Y57869D03*
X27739Y55329D03*
Y57869D03*
X30279Y55329D03*
Y57869D03*
X32819Y55329D03*
X22659Y57869D03*
Y55329D03*
X20119D03*
Y57869D03*
X17579D03*
Y55329D03*
X55284Y37694D03*
X52744D03*
X50204D03*
X82619Y62951D03*
X80079D03*
X77539D03*
X85159D03*
X92819Y57869D03*
X85199Y55329D03*
Y57869D03*
X87739Y55329D03*
Y57869D03*
X90279Y55329D03*
Y57869D03*
X92819Y55329D03*
X82659Y57869D03*
Y55329D03*
X80119D03*
Y57869D03*
X77579D03*
Y55329D03*
X115284Y37694D03*
X112744D03*
X110204D03*
X22619Y122951D03*
X20079D03*
X17539D03*
X25159D03*
X32819Y117869D03*
X25199Y115329D03*
Y117869D03*
X27739Y115329D03*
Y117869D03*
X30279Y115329D03*
Y117869D03*
X32819Y115329D03*
X22659Y117869D03*
Y115329D03*
X20119D03*
Y117869D03*
X17579D03*
Y115329D03*
X55284Y97694D03*
X52744D03*
X50204D03*
X82619Y122951D03*
X80079D03*
X77539D03*
X85159D03*
X92819Y117869D03*
X85199Y115329D03*
Y117869D03*
X87739Y115329D03*
Y117869D03*
X90279Y115329D03*
Y117869D03*
X92819Y115329D03*
X82659Y117869D03*
Y115329D03*
X80119D03*
Y117869D03*
X77579D03*
Y115329D03*
X115284Y97694D03*
X112744D03*
X110204D03*
G54D151*
X61249Y16499D03*
X121249D03*
X61249Y76499D03*
X121249D03*
G54D152*
X61249Y19999D03*
Y23499D03*
X121249Y19999D03*
Y23499D03*
X61249Y79999D03*
Y83499D03*
X121249Y79999D03*
Y83499D03*
G54D153*
X59325Y28688D03*
X56785D03*
X49165D03*
Y33768D03*
X56785D03*
X59325D03*
X119325Y28688D03*
X116785D03*
X109165D03*
Y33768D03*
X116785D03*
X119325D03*
X59325Y88688D03*
X56785D03*
X49165D03*
Y93768D03*
X56785D03*
X59325D03*
X119325Y88688D03*
X116785D03*
X109165D03*
Y93768D03*
X116785D03*
X119325D03*
G54D154*
X09719Y57209D03*
X07179Y54669D03*
X09719D03*
X07179Y52129D03*
X09719D03*
X07179Y49589D03*
X09719D03*
X07179Y57209D03*
X4725Y19663D03*
Y06963D03*
Y17123D03*
Y09503D03*
Y14583D03*
Y12043D03*
X69719Y57209D03*
X67179Y54669D03*
X69719D03*
X67179Y52129D03*
X69719D03*
X67179Y49589D03*
X69719D03*
X67179Y57209D03*
X10725Y19663D03*
Y06963D03*
Y17123D03*
Y09503D03*
Y14583D03*
Y12043D03*
X09719Y117209D03*
X07179Y114669D03*
X09719D03*
X07179Y112129D03*
X09719D03*
X07179Y109589D03*
X09719D03*
X07179Y117209D03*
X4725Y79663D03*
Y66963D03*
Y77123D03*
Y69503D03*
Y74583D03*
Y72043D03*
X69719Y117209D03*
X67179Y114669D03*
X69719D03*
X67179Y112129D03*
X69719D03*
X67179Y109589D03*
X69719D03*
X67179Y117209D03*
X10725Y79663D03*
Y66963D03*
Y77123D03*
Y69503D03*
Y74583D03*
Y72043D03*
G54D155*
X11454Y07044D03*
Y23304D03*
X71454Y07044D03*
Y23304D03*
X11454Y67044D03*
Y83304D03*
X71454Y67044D03*
Y83304D03*
G54D156*
X08024Y21524D03*
Y08824D03*
X68024Y21524D03*
Y08824D03*
X08024Y81524D03*
Y68824D03*
X68024Y81524D03*
Y68824D03*
G54D157*
X61324Y53449D03*
Y39449D03*
Y46449D03*
X121324Y53449D03*
Y39449D03*
Y46449D03*
X61324Y113449D03*
Y99449D03*
Y106449D03*
X121324Y113449D03*
Y99449D03*
Y106449D03*
G54D158*
X61324Y56949D03*
Y42949D03*
Y49949D03*
X121324Y56949D03*
Y42949D03*
Y49949D03*
X61324Y116949D03*
Y102949D03*
Y109949D03*
X121324Y116949D03*
Y102949D03*
Y109949D03*
G54D159*
X58974Y56614D03*
Y54074D03*
Y46924D03*
Y49464D03*
X58949Y42489D03*
Y39949D03*
X118974Y56614D03*
Y54074D03*
Y46924D03*
Y49464D03*
X118949Y42489D03*
Y39949D03*
X58974Y116614D03*
Y114074D03*
Y106924D03*
Y109464D03*
X58949Y102489D03*
Y99949D03*
X118974Y116614D03*
Y114074D03*
Y106924D03*
Y109464D03*
X118949Y102489D03*
Y99949D03*
G54D160*
X27764Y35349D03*
X28449D03*
X29134D03*
X87764D03*
X88449D03*
X89134D03*
X27764Y95349D03*
X28449D03*
X29134D03*
X87764D03*
X88449D03*
X89134D03*
G54D161*
X32795Y41778D03*
X32745Y43528D03*
X92795Y41778D03*
X92745Y43528D03*
X32795Y101778D03*
X32745Y103528D03*
X92795Y101778D03*
X92745Y103528D03*
M02*