%FSTAX23Y23*%
%MOMM*%
%SFA1B1*%

%IPPOS*%
%ADD9500C,0.299999*%
%ADD9501C,0.599999*%
%ADD9502C,0.812998*%
%ADD9503C,0.999998*%
%ADD9504C,1.015998*%
%ADD9505C,1.199998*%
%ADD9506C,1.569997*%
%ADD9507C,3.249994*%
%ADD9508C,3.999992*%
%LNsnarc_panel-1*%
%LPD*%
G54D9500*
X14213Y11809D03*
X21848Y1163D03*
X22545Y12303D03*
X23398Y12069D03*
X2357Y12903D03*
X23022Y06665D03*
X28317Y09003D03*
X28646Y09508D03*
X31318Y08844D03*
X32629Y1039D03*
X41349Y10649D03*
X41199Y09674D03*
X44099Y08124D03*
X74213Y11809D03*
X81848Y1163D03*
X82545Y12303D03*
X83398Y12069D03*
X8357Y12903D03*
X83022Y06665D03*
X88317Y09003D03*
X88646Y09508D03*
X91318Y08844D03*
X92629Y1039D03*
X101349Y10649D03*
X101199Y09674D03*
X104099Y08124D03*
X113999Y35949D03*
X109149Y36174D03*
X107645Y36653D03*
X106324Y36624D03*
X105404Y37763D03*
X105391Y38867D03*
X105399Y39949D03*
X106145Y41353D03*
X107474Y41399D03*
X108755Y3999D03*
X108762Y38867D03*
X108749Y37814D03*
X110299Y41099D03*
X109949Y42049D03*
X110674Y43544D03*
X107924Y44449D03*
X107149Y45174D03*
X10547Y46178D03*
X10365Y48718D03*
X102424Y50274D03*
X100474D03*
Y52224D03*
X102399Y52199D03*
X101449Y51249D03*
X104599Y51099D03*
X10922Y48478D03*
X9917Y48078D03*
X95524Y47974D03*
X94399Y48274D03*
X93649Y48399D03*
X92774Y47474D03*
X9272Y46228D03*
X92049Y46874D03*
X9127Y45528D03*
X89872Y45905D03*
X8877Y45103D03*
X8767Y45178D03*
X87099Y44688D03*
X8632Y44878D03*
X84499Y44549D03*
Y43624D03*
X84495Y42278D03*
X87524Y42474D03*
X89149Y42499D03*
Y40024D03*
X86649D03*
X86349Y36424D03*
X86746Y34255D03*
X86053Y33855D03*
X85471Y33255D03*
X84871Y3373D03*
X83499Y33924D03*
X83675Y34676D03*
X83424Y35449D03*
X82299Y35399D03*
X8142Y35053D03*
X81474Y37924D03*
X81299Y42374D03*
X82024Y43849D03*
X83299Y47399D03*
X85849Y49374D03*
X88674D03*
X89074Y48524D03*
X89349Y51749D03*
X87624Y50999D03*
X86551Y51977D03*
X86374Y52749D03*
X84074Y52024D03*
X81724Y52099D03*
X80924Y50199D03*
X79249Y49049D03*
X78174Y49024D03*
X77149Y49149D03*
X7482Y49162D03*
X73874Y49899D03*
X75999Y51299D03*
X79149Y52749D03*
X91299Y49899D03*
X96524Y50124D03*
X98666Y52724D03*
X94595Y46078D03*
X95649Y43249D03*
X9367Y42903D03*
X93945Y42178D03*
X9277Y40128D03*
X92295Y38853D03*
X9302Y38578D03*
X94795Y39328D03*
X9567Y38528D03*
X9652Y38053D03*
X96224Y40124D03*
X99024Y40299D03*
X98924Y38774D03*
X99224Y37824D03*
X101574Y37799D03*
X101874Y35449D03*
X100324Y33129D03*
X100312Y31678D03*
X99124Y30599D03*
X9957Y29828D03*
X9892Y28603D03*
Y27453D03*
Y26403D03*
X10022Y25003D03*
X10157Y24953D03*
X101545Y26053D03*
X102795Y24928D03*
X10352Y27328D03*
X103495Y28603D03*
X10272Y29303D03*
X10162Y29453D03*
X102499Y30627D03*
X97749Y29974D03*
X96424Y30849D03*
X96549Y28199D03*
X96524Y27224D03*
X96774Y25299D03*
X95374Y25974D03*
X95499Y23549D03*
X94824Y22474D03*
X99255Y22725D03*
X99074Y19649D03*
X102615Y18957D03*
X103439Y17345D03*
X101762Y17321D03*
X102399Y15124D03*
X105449D03*
X112099Y16474D03*
X11167Y18378D03*
X111149Y19674D03*
X112649Y22949D03*
X108749Y22574D03*
X109549Y25999D03*
X106851Y27215D03*
X106845Y29176D03*
X91723Y29175D03*
X89742Y29182D03*
X87382Y291D03*
X87379Y26828D03*
X87367Y24433D03*
X8973Y24421D03*
X92048D03*
X92075Y26592D03*
X92301Y31501D03*
X93074Y31527D03*
X91524Y31574D03*
X88624Y33874D03*
X87045Y32753D03*
X8637Y31278D03*
X83349Y31299D03*
X81095Y31203D03*
X81724Y30199D03*
X79945Y29328D03*
X78645Y29178D03*
X7737Y29453D03*
X76145Y29203D03*
X74895Y29453D03*
X73845Y29878D03*
X73645Y28678D03*
X73545Y26478D03*
X7612Y27303D03*
X78695Y27278D03*
X78645Y25678D03*
X79845Y25328D03*
X80445Y24328D03*
X81849Y23949D03*
X82298Y22925D03*
X8367Y23465D03*
X86659Y22292D03*
X87174Y21174D03*
X84776Y19981D03*
X82895Y18569D03*
X8207Y18278D03*
X82939Y17371D03*
X82545Y16478D03*
X83795Y15778D03*
X84224Y15349D03*
X89524Y18124D03*
X90052Y19302D03*
X91099Y21424D03*
X93274Y15627D03*
X74756Y14422D03*
X74706Y18155D03*
X73921Y21498D03*
X73599Y32199D03*
X76099Y35624D03*
X78774Y35924D03*
X84799Y35399D03*
X89299Y37549D03*
X90245Y37553D03*
X94649Y37349D03*
X9327Y35703D03*
X100924Y40174D03*
X82649Y27674D03*
X81749Y25999D03*
X80495Y27228D03*
X72999Y32199D03*
X71095Y31978D03*
Y31385D03*
X72465Y2147D03*
X68166Y16943D03*
X68128Y15585D03*
X52099Y16474D03*
X5167Y18378D03*
X51149Y19674D03*
X52649Y22949D03*
X48749Y22574D03*
X49549Y25999D03*
X46851Y27215D03*
X46845Y29176D03*
X43495Y28603D03*
X4352Y27328D03*
X4272Y29303D03*
X4162Y29453D03*
X42499Y30627D03*
X40312Y31678D03*
X40324Y33129D03*
X39124Y30599D03*
X3957Y29828D03*
X3892Y28603D03*
Y27453D03*
Y26403D03*
X4022Y25003D03*
X4157Y24953D03*
X41545Y26053D03*
X42795Y24928D03*
X39255Y22725D03*
X39074Y19649D03*
X42615Y18957D03*
X43439Y17345D03*
X41762Y17321D03*
X42399Y15124D03*
X45449D03*
X34824Y22474D03*
X35499Y23549D03*
X35374Y25974D03*
X36774Y25299D03*
X36524Y27224D03*
X36549Y28199D03*
X36424Y30849D03*
X37749Y29974D03*
X3652Y38053D03*
X3567Y38528D03*
X34795Y39328D03*
X34649Y37349D03*
X36224Y40124D03*
X39024Y40299D03*
X38924Y38774D03*
X39224Y37824D03*
X41574Y37799D03*
X41874Y35449D03*
X46324Y36624D03*
X47645Y36653D03*
X49149Y36174D03*
X48749Y37814D03*
X48762Y38867D03*
X48755Y3999D03*
X50299Y41099D03*
X49949Y42049D03*
X50674Y43544D03*
X47924Y44449D03*
X47149Y45174D03*
X4547Y46178D03*
X4365Y48718D03*
X42424Y50274D03*
X40474D03*
Y52224D03*
X42399Y52199D03*
X41449Y51249D03*
X44599Y51099D03*
X4922Y48478D03*
X47474Y41399D03*
X46145Y41353D03*
X45399Y39949D03*
X45391Y38867D03*
X45404Y37763D03*
X40924Y40174D03*
X35649Y43249D03*
X3367Y42903D03*
X33945Y42178D03*
X34595Y46078D03*
X34399Y48274D03*
X33649Y48399D03*
X35524Y47974D03*
X36524Y50124D03*
X3917Y48078D03*
X38666Y52724D03*
X53999Y35949D03*
X3327Y35703D03*
X3302Y38578D03*
X32295Y38853D03*
X3277Y40128D03*
X29149Y40024D03*
Y42499D03*
X27524Y42474D03*
X27099Y44688D03*
X2632Y44878D03*
X2767Y45178D03*
X2877Y45103D03*
X29872Y45905D03*
X3127Y45528D03*
X32049Y46874D03*
X3272Y46228D03*
X32774Y47474D03*
X31299Y49899D03*
X28674Y49374D03*
X29074Y48524D03*
X29349Y51749D03*
X27624Y50999D03*
X26551Y51977D03*
X26374Y52749D03*
X24074Y52024D03*
X21724Y52099D03*
X20924Y50199D03*
X19249Y49049D03*
X18174Y49024D03*
X17149Y49149D03*
X1482Y49162D03*
X13874Y49899D03*
X15999Y51299D03*
X19149Y52749D03*
X23299Y47399D03*
X24499Y44549D03*
Y43624D03*
X24495Y42278D03*
X21299Y42374D03*
X22024Y43849D03*
X21474Y37924D03*
X2142Y35053D03*
X22299Y35399D03*
X23424Y35449D03*
X23675Y34676D03*
X23499Y33924D03*
X24871Y3373D03*
X25471Y33255D03*
X26053Y33855D03*
X26746Y34255D03*
X27045Y32753D03*
X2637Y31278D03*
X23349Y31299D03*
X21095Y31203D03*
X21724Y30199D03*
X19945Y29328D03*
X18645Y29178D03*
X1737Y29453D03*
X16145Y29203D03*
X14895Y29453D03*
X13845Y29878D03*
X13645Y28678D03*
X13545Y26478D03*
X1612Y27303D03*
X18695Y27278D03*
X18645Y25678D03*
X19845Y25328D03*
X20445Y24328D03*
X21849Y23949D03*
X22298Y22925D03*
X2367Y23465D03*
X26659Y22292D03*
X27174Y21174D03*
X27367Y24433D03*
X2973Y24421D03*
X32048D03*
X32075Y26592D03*
X31723Y29175D03*
X29742Y29182D03*
X27382Y291D03*
X27379Y26828D03*
X22649Y27674D03*
X21749Y25999D03*
X20495Y27228D03*
X18774Y35924D03*
X16099Y35624D03*
X13599Y32199D03*
X12999D03*
X11095Y31978D03*
Y31385D03*
X12465Y2147D03*
X13921Y21498D03*
X14706Y18155D03*
X14756Y14422D03*
X08128Y15585D03*
X08166Y16943D03*
X22545Y16478D03*
X22939Y17371D03*
X22895Y18569D03*
X2207Y18278D03*
X23795Y15778D03*
X24224Y15349D03*
X24776Y19981D03*
X30052Y19302D03*
X29524Y18124D03*
X31099Y21424D03*
X33274Y15627D03*
X33074Y31527D03*
X32301Y31501D03*
X31524Y31574D03*
X28624Y33874D03*
X29299Y37549D03*
X30245Y37553D03*
X26349Y36424D03*
X24799Y35399D03*
X26649Y40024D03*
X25849Y49374D03*
X24149Y53249D03*
X30199Y53299D03*
X31274Y52899D03*
X31549Y53749D03*
X23574Y60224D03*
X23022Y66665D03*
X23398Y72069D03*
X2357Y72903D03*
X22545Y72303D03*
X21848Y7163D03*
X22545Y76478D03*
X22939Y77371D03*
X22895Y78569D03*
X2207Y78278D03*
X23795Y75778D03*
X24224Y75349D03*
X24776Y79981D03*
X27174Y81174D03*
X26659Y82292D03*
X27367Y84433D03*
X2973Y84421D03*
X32048D03*
X32075Y86592D03*
X31723Y89175D03*
X29742Y89182D03*
X27382Y891D03*
X27379Y86828D03*
X2637Y91278D03*
X23349Y91299D03*
X21095Y91203D03*
X21724Y90199D03*
X19945Y89328D03*
X18645Y89178D03*
X1737Y89453D03*
X16145Y89203D03*
X14895Y89453D03*
X13845Y89878D03*
X13645Y88678D03*
X13545Y86478D03*
X1612Y87303D03*
X18695Y87278D03*
X18645Y85678D03*
X19845Y85328D03*
X20445Y84328D03*
X21849Y83949D03*
X22298Y82925D03*
X2367Y83465D03*
X21749Y85999D03*
X20495Y87228D03*
X22649Y87674D03*
X31524Y91574D03*
X32301Y91501D03*
X33074Y91527D03*
X31099Y81424D03*
X30052Y79302D03*
X29524Y78124D03*
X33274Y75627D03*
X32629Y7039D03*
X31318Y68844D03*
X28317Y69003D03*
X28646Y69508D03*
X14213Y71809D03*
X14756Y74422D03*
X14706Y78155D03*
X13921Y81498D03*
X12465Y8147D03*
X08166Y76943D03*
X08128Y75585D03*
X11095Y91385D03*
Y91978D03*
X12999Y92199D03*
X13599D03*
X11649Y55724D03*
X34474Y53349D03*
X33849Y59499D03*
X37649Y59474D03*
X37499Y58449D03*
X39699Y63024D03*
X41349D03*
X41199Y69674D03*
X41349Y70649D03*
X44099Y68124D03*
X45449Y75124D03*
X42399D03*
X41762Y77321D03*
X43439Y77345D03*
X42615Y78957D03*
X39074Y79649D03*
X39255Y82725D03*
X4022Y85003D03*
X4157Y84953D03*
X41545Y86053D03*
X42795Y84928D03*
X4352Y87328D03*
X43495Y88603D03*
X4272Y89303D03*
X4162Y89453D03*
X42499Y90627D03*
X40312Y91678D03*
X39124Y90599D03*
X3957Y89828D03*
X3892Y88603D03*
Y87453D03*
Y86403D03*
X36524Y87224D03*
X36549Y88199D03*
X36424Y90849D03*
X37749Y89974D03*
X36774Y85299D03*
X35374Y85974D03*
X35499Y83549D03*
X34824Y82474D03*
X48749Y82574D03*
X49549Y85999D03*
X46851Y87215D03*
X46845Y89176D03*
X52649Y82949D03*
X51149Y79674D03*
X5167Y78378D03*
X52099Y76474D03*
X52249Y62349D03*
Y61574D03*
X49499D03*
Y62349D03*
X50849Y58949D03*
X46045Y54203D03*
X43295Y53878D03*
X43974Y55924D03*
X71649Y55724D03*
X68128Y75585D03*
X68166Y76943D03*
X72465Y8147D03*
X72999Y92199D03*
X71095Y91978D03*
Y91385D03*
X73599Y92199D03*
X73845Y89878D03*
X73645Y88678D03*
X74895Y89453D03*
X76145Y89203D03*
X7737Y89453D03*
X78645Y89178D03*
X79945Y89328D03*
X80495Y87228D03*
X78695Y87278D03*
X78645Y85678D03*
X79845Y85328D03*
X80445Y84328D03*
X81849Y83949D03*
X82298Y82925D03*
X8367Y83465D03*
X86659Y82292D03*
X87174Y81174D03*
X87367Y84433D03*
X8973Y84421D03*
X92048D03*
X92075Y86592D03*
X91723Y89175D03*
X89742Y89182D03*
X87382Y891D03*
X87379Y86828D03*
X8637Y91278D03*
X83349Y91299D03*
X81095Y91203D03*
X81724Y90199D03*
X82649Y87674D03*
X81749Y85999D03*
X7612Y87303D03*
X73545Y86478D03*
X73921Y81498D03*
X74706Y78155D03*
X74756Y74422D03*
X74213Y71809D03*
X81848Y7163D03*
X82545Y72303D03*
X83398Y72069D03*
X8357Y72903D03*
X83795Y75778D03*
X84224Y75349D03*
X82545Y76478D03*
X82939Y77371D03*
X82895Y78569D03*
X8207Y78278D03*
X84776Y79981D03*
X90052Y79302D03*
X89524Y78124D03*
X91099Y81424D03*
X94824Y82474D03*
X95499Y83549D03*
X95374Y85974D03*
X96774Y85299D03*
X96524Y87224D03*
X96549Y88199D03*
X9892Y88603D03*
Y87453D03*
Y86403D03*
X10022Y85003D03*
X10157Y84953D03*
X101545Y86053D03*
X102795Y84928D03*
X10352Y87328D03*
X103495Y88603D03*
X10272Y89303D03*
X10162Y89453D03*
X102499Y90627D03*
X100312Y91678D03*
X99124Y90599D03*
X9957Y89828D03*
X97749Y89974D03*
X96424Y90849D03*
X93074Y91527D03*
X92301Y91501D03*
X91524Y91574D03*
X99255Y82725D03*
X99074Y79649D03*
X102615Y78957D03*
X103439Y77345D03*
X101762Y77321D03*
X102399Y75124D03*
X105449D03*
X112099Y76474D03*
X11167Y78378D03*
X111149Y79674D03*
X112649Y82949D03*
X108749Y82574D03*
X109549Y85999D03*
X106851Y87215D03*
X106845Y89176D03*
X104099Y68124D03*
X101199Y69674D03*
X101349Y70649D03*
Y63024D03*
X99699D03*
X97649Y59474D03*
X97499Y58449D03*
X93849Y59499D03*
X94474Y53349D03*
X91549Y53749D03*
X91274Y52899D03*
X90199Y53299D03*
X84149Y53249D03*
X83574Y60224D03*
X83022Y66665D03*
X88317Y69003D03*
X88646Y69508D03*
X91318Y68844D03*
X92629Y7039D03*
X93274Y75627D03*
X109499Y62349D03*
Y61574D03*
X112249D03*
Y62349D03*
X110849Y58949D03*
X106045Y54203D03*
X103295Y53878D03*
X103974Y55924D03*
X113999Y95949D03*
X109149Y96174D03*
X107645Y96653D03*
X106324Y96624D03*
X105404Y97763D03*
X105391Y98867D03*
X105399Y99949D03*
X106145Y101353D03*
X107474Y101399D03*
X108755Y9999D03*
X108762Y98867D03*
X108749Y97814D03*
X110299Y101099D03*
X109949Y102049D03*
X110674Y103544D03*
X107924Y104449D03*
X107149Y105174D03*
X10547Y106178D03*
X10365Y108718D03*
X102424Y110274D03*
X100474D03*
Y112224D03*
X102399Y112199D03*
X101449Y111249D03*
X104599Y111099D03*
X103295Y113878D03*
X103974Y115924D03*
X106045Y114203D03*
X98666Y112724D03*
X96524Y110124D03*
X95524Y107974D03*
X94399Y108274D03*
X93649Y108399D03*
X92774Y107474D03*
X9272Y106228D03*
X92049Y106874D03*
X9127Y105528D03*
X89872Y105905D03*
X8877Y105103D03*
X8767Y105178D03*
X87099Y104688D03*
X8632Y104878D03*
X84499Y104549D03*
Y103624D03*
X84495Y102278D03*
X87524Y102474D03*
X89149Y102499D03*
Y100024D03*
X86649D03*
X86349Y96424D03*
X86746Y94255D03*
X86053Y93855D03*
X85471Y93255D03*
X84871Y9373D03*
X83499Y93924D03*
X83675Y94676D03*
X83424Y95449D03*
X82299Y95399D03*
X8142Y95053D03*
X81474Y97924D03*
X81299Y102374D03*
X82024Y103849D03*
X83299Y107399D03*
X85849Y109374D03*
X88674D03*
X89074Y108524D03*
X89349Y111749D03*
X90199Y113299D03*
X91274Y112899D03*
X91549Y113749D03*
X94474Y113349D03*
X91299Y109899D03*
X87624Y110999D03*
X86551Y111977D03*
X86374Y112749D03*
X84149Y113249D03*
X84074Y112024D03*
X81724Y112099D03*
X80924Y110199D03*
X79249Y109049D03*
X78174Y109024D03*
X77149Y109149D03*
X7482Y109162D03*
X73874Y109899D03*
X75999Y111299D03*
X79149Y112749D03*
X83574Y120224D03*
X93849Y119499D03*
X97649Y119474D03*
X97499Y118449D03*
X99699Y123024D03*
X101349D03*
X109499Y122349D03*
Y121574D03*
X112249D03*
Y122349D03*
X110849Y118949D03*
X10922Y108478D03*
X9917Y108078D03*
X94595Y106078D03*
X95649Y103249D03*
X9367Y102903D03*
X93945Y102178D03*
X9277Y100128D03*
X92295Y98853D03*
X9302Y98578D03*
X94795Y99328D03*
X9567Y98528D03*
X9652Y98053D03*
X96224Y100124D03*
X99024Y100299D03*
X98924Y98774D03*
X99224Y97824D03*
X101574Y97799D03*
X101874Y95449D03*
X100324Y93129D03*
X100924Y100174D03*
X94649Y97349D03*
X9327Y95703D03*
X90245Y97553D03*
X89299Y97549D03*
X88624Y93874D03*
X87045Y92753D03*
X84799Y95399D03*
X78774Y95924D03*
X76099Y95624D03*
X53999Y95949D03*
X49149Y96174D03*
X47645Y96653D03*
X46324Y96624D03*
X45404Y97763D03*
X45391Y98867D03*
X45399Y99949D03*
X46145Y101353D03*
X47474Y101399D03*
X48755Y9999D03*
X48762Y98867D03*
X48749Y97814D03*
X50299Y101099D03*
X49949Y102049D03*
X50674Y103544D03*
X47924Y104449D03*
X47149Y105174D03*
X4547Y106178D03*
X4365Y108718D03*
X42424Y110274D03*
X40474D03*
Y112224D03*
X42399Y112199D03*
X41449Y111249D03*
X44599Y111099D03*
X43295Y113878D03*
X43974Y115924D03*
X46045Y114203D03*
X38666Y112724D03*
X36524Y110124D03*
X35524Y107974D03*
X34399Y108274D03*
X33649Y108399D03*
X34595Y106078D03*
X35649Y103249D03*
X3367Y102903D03*
X33945Y102178D03*
X34795Y99328D03*
X3567Y98528D03*
X3652Y98053D03*
X36224Y100124D03*
X39024Y100299D03*
X38924Y98774D03*
X39224Y97824D03*
X41574Y97799D03*
X41874Y95449D03*
X40324Y93129D03*
X40924Y100174D03*
X34649Y97349D03*
X3917Y108078D03*
X34474Y113349D03*
X33849Y119499D03*
X37649Y119474D03*
X37499Y118449D03*
X39699Y123024D03*
X41349D03*
X49499Y122349D03*
Y121574D03*
X52249D03*
Y122349D03*
X50849Y118949D03*
X4922Y108478D03*
X71649Y115724D03*
X31549Y113749D03*
X31274Y112899D03*
X30199Y113299D03*
X29349Y111749D03*
X27624Y110999D03*
X26551Y111977D03*
X26374Y112749D03*
X24149Y113249D03*
X24074Y112024D03*
X21724Y112099D03*
X20924Y110199D03*
X19249Y109049D03*
X18174Y109024D03*
X17149Y109149D03*
X1482Y109162D03*
X13874Y109899D03*
X15999Y111299D03*
X19149Y112749D03*
X23299Y107399D03*
X24499Y104549D03*
Y103624D03*
X24495Y102278D03*
X27524Y102474D03*
X29149Y102499D03*
Y100024D03*
X26649D03*
X26349Y96424D03*
X26746Y94255D03*
X26053Y93855D03*
X25471Y93255D03*
X24871Y9373D03*
X23499Y93924D03*
X23675Y94676D03*
X23424Y95449D03*
X22299Y95399D03*
X2142Y95053D03*
X21474Y97924D03*
X21299Y102374D03*
X22024Y103849D03*
X2632Y104878D03*
X27099Y104688D03*
X2767Y105178D03*
X2877Y105103D03*
X29872Y105905D03*
X3127Y105528D03*
X32049Y106874D03*
X3272Y106228D03*
X32774Y107474D03*
X31299Y109899D03*
X28674Y109374D03*
X29074Y108524D03*
X25849Y109374D03*
X23574Y120224D03*
X11649Y115724D03*
X16099Y95624D03*
X18774Y95924D03*
X24799Y95399D03*
X27045Y92753D03*
X28624Y93874D03*
X29299Y97549D03*
X30245Y97553D03*
X32295Y98853D03*
X3302Y98578D03*
X3277Y100128D03*
X3327Y95703D03*
G54D9501*
X95474Y34049D03*
X99324Y36599D03*
X9202Y44503D03*
X82974Y49774D03*
X39324Y36599D03*
X35474Y34049D03*
X3202Y44503D03*
X22974Y49774D03*
X13124Y57949D03*
X73124D03*
X95474Y94049D03*
X99324Y96599D03*
X9202Y104503D03*
X82974Y109774D03*
X73124Y117949D03*
X39324Y96599D03*
X35474Y94049D03*
X3202Y104503D03*
X22974Y109774D03*
X13124Y117949D03*
G54D9502*
X116785Y28688D03*
X119325D03*
Y33768D03*
X116785D03*
X109165D03*
Y28688D03*
X59325D03*
X56785D03*
Y33768D03*
X59325D03*
X49165D03*
Y28688D03*
Y88688D03*
X56785D03*
X59325D03*
X109165D03*
X116785D03*
X119325D03*
Y93768D03*
X116785D03*
X109165D03*
X59325D03*
X56785D03*
X49165D03*
G54D9503*
X10564Y11619D03*
X12344Y12609D03*
X17164Y10604D03*
Y08314D03*
X70564Y11619D03*
X72344Y12609D03*
X77164Y10604D03*
Y08314D03*
Y19744D03*
Y22034D03*
X72344Y18729D03*
Y16689D03*
Y14649D03*
X70564Y13659D03*
Y15699D03*
Y17739D03*
X17164Y19744D03*
Y22034D03*
X12344Y18729D03*
Y16689D03*
Y14649D03*
X10564Y13659D03*
Y15699D03*
Y17739D03*
Y71619D03*
Y73659D03*
Y75699D03*
Y77739D03*
X12344Y78729D03*
Y76689D03*
Y74649D03*
Y72609D03*
X17164Y70604D03*
Y68314D03*
Y79744D03*
Y82034D03*
X70564Y77739D03*
Y75699D03*
Y73659D03*
Y71619D03*
X72344Y72609D03*
Y74649D03*
Y76689D03*
Y78729D03*
X77164Y79744D03*
Y82034D03*
Y70604D03*
Y68314D03*
G54D9504*
X4725Y06963D03*
Y09503D03*
Y12043D03*
X10725D03*
Y09503D03*
Y06963D03*
X115284Y37694D03*
X118949Y39949D03*
Y42489D03*
X118974Y46924D03*
Y49464D03*
X112744Y37694D03*
X110204D03*
X10725Y19663D03*
Y17123D03*
Y14583D03*
X4725D03*
Y17123D03*
Y19663D03*
X50204Y37694D03*
X52744D03*
X55284D03*
X58949Y39949D03*
Y42489D03*
X58974Y46924D03*
Y49464D03*
X67179Y49589D03*
Y52129D03*
X69719D03*
Y49589D03*
X09719D03*
Y52129D03*
X07179D03*
Y49589D03*
Y54669D03*
X09719D03*
Y57209D03*
X07179D03*
X17579Y57869D03*
X20119D03*
X22659D03*
X25199D03*
Y55329D03*
X27739D03*
Y57869D03*
X30279D03*
Y55329D03*
X32819D03*
Y57869D03*
X22659Y55329D03*
X20119D03*
X17579D03*
X17539Y62951D03*
X20079D03*
X22619D03*
X25159D03*
X4725Y66963D03*
Y69503D03*
Y72043D03*
Y74583D03*
Y77123D03*
Y79663D03*
X58974Y56614D03*
Y54074D03*
X67179Y54669D03*
X69719D03*
Y57209D03*
X67179D03*
X77579Y57869D03*
X80119D03*
X82659D03*
X85199D03*
Y55329D03*
X87739D03*
Y57869D03*
X90279D03*
Y55329D03*
X92819D03*
Y57869D03*
X82659Y55329D03*
X80119D03*
X77579D03*
X77539Y62951D03*
X80079D03*
X82619D03*
X85159D03*
X10725Y66963D03*
Y69503D03*
Y72043D03*
Y74583D03*
Y77123D03*
Y79663D03*
X118974Y56614D03*
Y54074D03*
X118949Y99949D03*
Y102489D03*
X118974Y106924D03*
Y109464D03*
Y114074D03*
Y116614D03*
X115284Y97694D03*
X112744D03*
X110204D03*
X92819Y115329D03*
Y117869D03*
X90279D03*
X87739D03*
X85199D03*
Y115329D03*
X87739D03*
X90279D03*
X82659D03*
Y117869D03*
X80119D03*
Y115329D03*
X77579D03*
Y117869D03*
X77539Y122951D03*
X80079D03*
X82619D03*
X85159D03*
X69719Y117209D03*
X67179D03*
Y114669D03*
X69719D03*
Y112129D03*
X67179D03*
Y109589D03*
X69719D03*
X58974Y109464D03*
Y106924D03*
X58949Y102489D03*
Y99949D03*
X55284Y97694D03*
X52744D03*
X50204D03*
X58974Y114074D03*
Y116614D03*
X32819Y117869D03*
Y115329D03*
X30279D03*
X27739D03*
X25199D03*
Y117869D03*
X27739D03*
X30279D03*
X22659D03*
Y115329D03*
X20119D03*
Y117869D03*
X17579D03*
Y115329D03*
X17539Y122951D03*
X20079D03*
X22619D03*
X25159D03*
X09719Y117209D03*
X07179D03*
Y114669D03*
X09719D03*
Y112129D03*
X07179D03*
Y109589D03*
X09719D03*
G54D9505*
X121249Y16499D03*
Y19999D03*
Y23499D03*
X121324Y39449D03*
Y42949D03*
Y46449D03*
Y49949D03*
X61324D03*
Y46449D03*
Y42949D03*
Y39449D03*
X61249Y23499D03*
Y19999D03*
Y16499D03*
X61324Y53449D03*
Y56949D03*
X61249Y76499D03*
Y79999D03*
Y83499D03*
X121249D03*
Y79999D03*
Y76499D03*
X121324Y56949D03*
Y53449D03*
Y99449D03*
Y102949D03*
Y106449D03*
Y109949D03*
Y113449D03*
Y116949D03*
X61324D03*
Y113449D03*
Y109949D03*
Y106449D03*
Y102949D03*
Y99449D03*
G54D9506*
X11454Y07044D03*
X71454D03*
Y23304D03*
X11454D03*
Y67044D03*
Y83304D03*
X71454D03*
Y67044D03*
G54D9507*
X08024Y08824D03*
X68024D03*
Y21524D03*
X08024D03*
Y68824D03*
Y81524D03*
X68024D03*
Y68824D03*
G54D9508*
X02499Y02499D03*
X61999Y07999D03*
X121999D03*
X127499Y02499D03*
X67999Y27999D03*
X07999D03*
Y61999D03*
Y87999D03*
X67999D03*
Y61999D03*
X61999D03*
Y67999D03*
X121999D03*
Y61999D03*
Y121999D03*
X127499Y127499D03*
X67999Y121999D03*
X61999D03*
X07999D03*
X02499Y127499D03*
M02*