%FSTAX23Y23*%
%MOMM*%
%SFA1B1*%

%IPPOS*%
%ADD41C,0.200000*%
%ADD42C,0.250000*%
%ADD45C,0.253999*%
%ADD98C,0.203000*%
%ADD99C,0.008000*%
%ADD100C,0.102000*%
%ADD101C,0.127000*%
%ADD102C,0.152000*%
%ADD103C,0.100000*%
%ADD104C,0.030000*%
%ADD105R,0.761998X0.380999*%
%ADD106R,1.099998X0.489999*%
%ADD107R,1.099998X0.489999*%
%ADD108R,0.374999X0.374999*%
%ADD109R,0.499999X0.499999*%
%ADD110R,2.199996X0.549999*%
%ADD111R,2.199996X0.549999*%
%ADD112R,0.507999X0.507999*%
%ADD113R,0.380999X0.761998*%
%LNsnarc_panel-1*%
%LPD*%
G54D41*
X12624Y52399D02*
D01*
X12652Y524*
X1268Y52403*
X12708Y52408*
X12735Y52415*
X12761Y52424*
X12787Y52434*
X12812Y52446*
X12836Y5246*
X1286Y52476*
X12882Y52493*
X12902Y52512*
X12922Y52532*
X1294Y52553*
X12956Y52576*
X12971Y52599*
X12984Y52624*
X12995Y5265*
X13005Y52676*
X13013Y52703*
X13018Y5273*
X13022Y52758*
X13024Y52786*
Y52813*
X13022Y52841*
X13018Y52869*
X13013Y52896*
X13005Y52923*
X12995Y52949*
X12984Y52975*
X12971Y52999*
X12956Y53023*
X1294Y53046*
X12922Y53067*
X12902Y53087*
X12882Y53106*
X1286Y53123*
X12836Y53139*
X12812Y53153*
X12787Y53165*
X12761Y53175*
X12735Y53184*
X12708Y53191*
X1268Y53196*
X12652Y53199*
X12624Y53199*
X25195Y43553D02*
Y43978D01*
X2562*
X25195Y38528D02*
Y38953D01*
Y38528D02*
X2562D01*
X3022D02*
X30645D01*
Y38953*
Y43553D02*
Y43978D01*
X3022D02*
X30645D01*
X12624Y52834D02*
X15824D01*
Y52764D02*
Y52834D01*
X12624Y52764D02*
X15824D01*
X12624D02*
Y53199D01*
Y52399D02*
Y52834D01*
X26679Y46517D02*
X29473D01*
X34924Y52449D02*
Y54049D01*
X38024Y52449D02*
Y54049D01*
X2336Y28158D02*
Y30952D01*
X23385Y24358D02*
Y27152D01*
X16629Y50767D02*
X19423D01*
X72624Y52399D02*
D01*
X72652Y524*
X7268Y52403*
X72708Y52408*
X72735Y52415*
X72761Y52424*
X72787Y52434*
X72812Y52446*
X72836Y5246*
X7286Y52476*
X72882Y52493*
X72902Y52512*
X72922Y52532*
X7294Y52553*
X72956Y52576*
X72971Y52599*
X72984Y52624*
X72995Y5265*
X73005Y52676*
X73013Y52703*
X73018Y5273*
X73022Y52758*
X73024Y52786*
Y52813*
X73022Y52841*
X73018Y52869*
X73013Y52896*
X73005Y52923*
X72995Y52949*
X72984Y52975*
X72971Y52999*
X72956Y53023*
X7294Y53046*
X72922Y53067*
X72902Y53087*
X72882Y53106*
X7286Y53123*
X72836Y53139*
X72812Y53153*
X72787Y53165*
X72761Y53175*
X72735Y53184*
X72708Y53191*
X7268Y53196*
X72652Y53199*
X72624Y53199*
X85195Y43553D02*
Y43978D01*
X8562*
X85195Y38528D02*
Y38953D01*
Y38528D02*
X8562D01*
X9022D02*
X90645D01*
Y38953*
Y43553D02*
Y43978D01*
X9022D02*
X90645D01*
X72624Y52834D02*
X75824D01*
Y52764D02*
Y52834D01*
X72624Y52764D02*
X75824D01*
X72624D02*
Y53199D01*
Y52399D02*
Y52834D01*
X86679Y46517D02*
X89473D01*
X94924Y52449D02*
Y54049D01*
X98024Y52449D02*
Y54049D01*
X8336Y28158D02*
Y30952D01*
X83385Y24358D02*
Y27152D01*
X76629Y50767D02*
X79423D01*
X12624Y112399D02*
D01*
X12652Y1124*
X1268Y112403*
X12708Y112408*
X12735Y112415*
X12761Y112424*
X12787Y112434*
X12812Y112446*
X12836Y11246*
X1286Y112476*
X12882Y112493*
X12902Y112512*
X12922Y112532*
X1294Y112553*
X12956Y112576*
X12971Y112599*
X12984Y112624*
X12995Y11265*
X13005Y112676*
X13013Y112703*
X13018Y11273*
X13022Y112758*
X13024Y112786*
Y112813*
X13022Y112841*
X13018Y112869*
X13013Y112896*
X13005Y112923*
X12995Y112949*
X12984Y112975*
X12971Y112999*
X12956Y113023*
X1294Y113046*
X12922Y113067*
X12902Y113087*
X12882Y113106*
X1286Y113123*
X12836Y113139*
X12812Y113153*
X12787Y113165*
X12761Y113175*
X12735Y113184*
X12708Y113191*
X1268Y113196*
X12652Y113199*
X12624Y113199*
X25195Y103553D02*
Y103978D01*
X2562*
X25195Y98528D02*
Y98953D01*
Y98528D02*
X2562D01*
X3022D02*
X30645D01*
Y98953*
Y103553D02*
Y103978D01*
X3022D02*
X30645D01*
X12624Y112834D02*
X15824D01*
Y112764D02*
Y112834D01*
X12624Y112764D02*
X15824D01*
X12624D02*
Y113199D01*
Y112399D02*
Y112834D01*
X26679Y106517D02*
X29473D01*
X34924Y112449D02*
Y114049D01*
X38024Y112449D02*
Y114049D01*
X2336Y88158D02*
Y90952D01*
X23385Y84358D02*
Y87152D01*
X16629Y110767D02*
X19423D01*
X72624Y112399D02*
D01*
X72652Y1124*
X7268Y112403*
X72708Y112408*
X72735Y112415*
X72761Y112424*
X72787Y112434*
X72812Y112446*
X72836Y11246*
X7286Y112476*
X72882Y112493*
X72902Y112512*
X72922Y112532*
X7294Y112553*
X72956Y112576*
X72971Y112599*
X72984Y112624*
X72995Y11265*
X73005Y112676*
X73013Y112703*
X73018Y11273*
X73022Y112758*
X73024Y112786*
Y112813*
X73022Y112841*
X73018Y112869*
X73013Y112896*
X73005Y112923*
X72995Y112949*
X72984Y112975*
X72971Y112999*
X72956Y113023*
X7294Y113046*
X72922Y113067*
X72902Y113087*
X72882Y113106*
X7286Y113123*
X72836Y113139*
X72812Y113153*
X72787Y113165*
X72761Y113175*
X72735Y113184*
X72708Y113191*
X7268Y113196*
X72652Y113199*
X72624Y113199*
X85195Y103553D02*
Y103978D01*
X8562*
X85195Y98528D02*
Y98953D01*
Y98528D02*
X8562D01*
X9022D02*
X90645D01*
Y98953*
Y103553D02*
Y103978D01*
X9022D02*
X90645D01*
X72624Y112834D02*
X75824D01*
Y112764D02*
Y112834D01*
X72624Y112764D02*
X75824D01*
X72624D02*
Y113199D01*
Y112399D02*
Y112834D01*
X86679Y106517D02*
X89473D01*
X94924Y112449D02*
Y114049D01*
X98024Y112449D02*
Y114049D01*
X8336Y88158D02*
Y90952D01*
X83385Y84358D02*
Y87152D01*
X76629Y110767D02*
X79423D01*
G54D42*
X2467Y43828D02*
D01*
X2467Y43837*
X24669Y43846*
X24668Y43854*
X24666Y43863*
X24663Y43871*
X2466Y43879*
X24656Y43887*
X24651Y43895*
X24647Y43902*
X24641Y43909*
X24635Y43915*
X24629Y43921*
X24622Y43927*
X24615Y43932*
X24608Y43937*
X246Y43941*
X24592Y43944*
X24584Y43947*
X24576Y4395*
X24567Y43952*
X24559Y43953*
X2455Y43953*
X24541*
X24532Y43953*
X24524Y43952*
X24515Y4395*
X24507Y43947*
X24499Y43944*
X24491Y43941*
X24483Y43937*
X24476Y43932*
X24469Y43927*
X24462Y43921*
X24456Y43915*
X2445Y43909*
X24444Y43902*
X24439Y43895*
X24435Y43887*
X24431Y43879*
X24428Y43871*
X24425Y43863*
X24423Y43854*
X24422Y43846*
X24421Y43837*
X2442Y43828*
X24421Y4382*
X24422Y43811*
X24423Y43802*
X24425Y43794*
X24428Y43786*
X24431Y43778*
X24435Y4377*
X24439Y43762*
X24444Y43755*
X2445Y43748*
X24456Y43742*
X24462Y43736*
X24469Y4373*
X24476Y43725*
X24483Y4372*
X24491Y43716*
X24499Y43713*
X24507Y4371*
X24515Y43707*
X24524Y43705*
X24532Y43704*
X24541Y43704*
X2455*
X24559Y43704*
X24567Y43705*
X24576Y43707*
X24584Y4371*
X24592Y43713*
X246Y43716*
X24608Y4372*
X24615Y43725*
X24622Y4373*
X24629Y43736*
X24635Y43742*
X24641Y43748*
X24647Y43755*
X24651Y43762*
X24656Y4377*
X2466Y43778*
X24663Y43786*
X24666Y43794*
X24668Y43802*
X24669Y43811*
X2467Y4382*
X2467Y43828*
X30055Y47251D02*
D01*
X30055Y4726*
X30054Y47269*
X30053Y47277*
X30051Y47286*
X30048Y47294*
X30045Y47302*
X30041Y4731*
X30036Y47318*
X30032Y47325*
X30026Y47332*
X3002Y47338*
X30014Y47344*
X30007Y4735*
X3Y47355*
X29993Y4736*
X29985Y47364*
X29977Y47367*
X29969Y4737*
X29961Y47373*
X29952Y47375*
X29944Y47376*
X29935Y47376*
X29926*
X29917Y47376*
X29909Y47375*
X299Y47373*
X29892Y4737*
X29884Y47367*
X29876Y47364*
X29868Y4736*
X29861Y47355*
X29854Y4735*
X29847Y47344*
X29841Y47338*
X29835Y47332*
X29829Y47325*
X29824Y47318*
X2982Y4731*
X29816Y47302*
X29813Y47294*
X2981Y47286*
X29808Y47277*
X29807Y47269*
X29806Y4726*
X29805Y47251*
X29806Y47243*
X29807Y47234*
X29808Y47225*
X2981Y47217*
X29813Y47209*
X29816Y47201*
X2982Y47193*
X29824Y47185*
X29829Y47178*
X29835Y47171*
X29841Y47165*
X29847Y47159*
X29854Y47153*
X29861Y47148*
X29868Y47143*
X29876Y47139*
X29884Y47136*
X29892Y47133*
X299Y4713*
X29909Y47128*
X29917Y47127*
X29926Y47127*
X29935*
X29944Y47127*
X29952Y47128*
X29961Y4713*
X29969Y47133*
X29977Y47136*
X29985Y47139*
X29993Y47143*
X3Y47148*
X30007Y47153*
X30014Y47159*
X3002Y47165*
X30026Y47171*
X30032Y47178*
X30036Y47185*
X30041Y47193*
X30045Y47201*
X30048Y47209*
X30051Y47217*
X30053Y47225*
X30054Y47234*
X30055Y47243*
X30055Y47251*
X22751Y31409D02*
D01*
X22751Y31418*
X2275Y31427*
X22749Y31435*
X22747Y31444*
X22744Y31452*
X22741Y3146*
X22737Y31468*
X22732Y31476*
X22728Y31483*
X22722Y3149*
X22716Y31496*
X2271Y31502*
X22703Y31508*
X22696Y31513*
X22689Y31518*
X22681Y31522*
X22673Y31525*
X22665Y31528*
X22657Y31531*
X22648Y31533*
X2264Y31534*
X22631Y31534*
X22622*
X22613Y31534*
X22605Y31533*
X22596Y31531*
X22588Y31528*
X2258Y31525*
X22572Y31522*
X22564Y31518*
X22557Y31513*
X2255Y31508*
X22543Y31502*
X22537Y31496*
X22531Y3149*
X22525Y31483*
X2252Y31476*
X22516Y31468*
X22512Y3146*
X22509Y31452*
X22506Y31444*
X22504Y31435*
X22503Y31427*
X22502Y31418*
X22501Y31409*
X22502Y31401*
X22503Y31392*
X22504Y31383*
X22506Y31375*
X22509Y31367*
X22512Y31359*
X22516Y31351*
X2252Y31343*
X22525Y31336*
X22531Y31329*
X22537Y31323*
X22543Y31317*
X2255Y31311*
X22557Y31306*
X22564Y31301*
X22572Y31297*
X2258Y31294*
X22588Y31291*
X22596Y31288*
X22605Y31286*
X22613Y31285*
X22622Y31285*
X22631*
X2264Y31285*
X22648Y31286*
X22657Y31288*
X22665Y31291*
X22673Y31294*
X22681Y31297*
X22689Y31301*
X22696Y31306*
X22703Y31311*
X2271Y31317*
X22716Y31323*
X22722Y31329*
X22728Y31336*
X22732Y31343*
X22737Y31351*
X22741Y31359*
X22744Y31367*
X22747Y31375*
X22749Y31383*
X2275Y31392*
X22751Y31401*
X22751Y31409*
X22776Y27609D02*
D01*
X22776Y27618*
X22775Y27627*
X22774Y27635*
X22772Y27644*
X22769Y27652*
X22766Y2766*
X22762Y27668*
X22757Y27676*
X22753Y27683*
X22747Y2769*
X22741Y27696*
X22735Y27702*
X22728Y27708*
X22721Y27713*
X22714Y27718*
X22706Y27722*
X22698Y27725*
X2269Y27728*
X22682Y27731*
X22673Y27733*
X22665Y27734*
X22656Y27734*
X22647*
X22638Y27734*
X2263Y27733*
X22621Y27731*
X22613Y27728*
X22605Y27725*
X22597Y27722*
X22589Y27718*
X22582Y27713*
X22575Y27708*
X22568Y27702*
X22562Y27696*
X22556Y2769*
X2255Y27683*
X22545Y27676*
X22541Y27668*
X22537Y2766*
X22534Y27652*
X22531Y27644*
X22529Y27635*
X22528Y27627*
X22527Y27618*
X22526Y27609*
X22527Y27601*
X22528Y27592*
X22529Y27583*
X22531Y27575*
X22534Y27567*
X22537Y27559*
X22541Y27551*
X22545Y27543*
X2255Y27536*
X22556Y27529*
X22562Y27523*
X22568Y27517*
X22575Y27511*
X22582Y27506*
X22589Y27501*
X22597Y27497*
X22605Y27494*
X22613Y27491*
X22621Y27488*
X2263Y27486*
X22638Y27485*
X22647Y27485*
X22656*
X22665Y27485*
X22673Y27486*
X22682Y27488*
X2269Y27491*
X22698Y27494*
X22706Y27497*
X22714Y27501*
X22721Y27506*
X22728Y27511*
X22735Y27517*
X22741Y27523*
X22747Y27529*
X22753Y27536*
X22757Y27543*
X22762Y27551*
X22766Y27559*
X22769Y27567*
X22772Y27575*
X22774Y27583*
X22775Y27592*
X22776Y27601*
X22776Y27609*
X20005Y51501D02*
D01*
X20005Y5151*
X20004Y51519*
X20003Y51527*
X20001Y51536*
X19998Y51544*
X19995Y51552*
X19991Y5156*
X19987Y51568*
X19982Y51575*
X19976Y51582*
X1997Y51588*
X19964Y51594*
X19957Y516*
X1995Y51605*
X19943Y5161*
X19935Y51614*
X19927Y51617*
X19919Y5162*
X19911Y51623*
X19902Y51625*
X19894Y51626*
X19885Y51626*
X19876*
X19867Y51626*
X19859Y51625*
X1985Y51623*
X19842Y5162*
X19834Y51617*
X19826Y51614*
X19818Y5161*
X19811Y51605*
X19804Y516*
X19797Y51594*
X19791Y51588*
X19785Y51582*
X19779Y51575*
X19774Y51568*
X1977Y5156*
X19766Y51552*
X19763Y51544*
X1976Y51536*
X19758Y51527*
X19757Y51519*
X19756Y5151*
X19755Y51501*
X19756Y51493*
X19757Y51484*
X19758Y51475*
X1976Y51467*
X19763Y51459*
X19766Y51451*
X1977Y51443*
X19774Y51435*
X19779Y51428*
X19785Y51421*
X19791Y51415*
X19797Y51409*
X19804Y51403*
X19811Y51398*
X19818Y51393*
X19826Y51389*
X19834Y51386*
X19842Y51383*
X1985Y5138*
X19859Y51378*
X19867Y51377*
X19876Y51377*
X19885*
X19894Y51377*
X19902Y51378*
X19911Y5138*
X19919Y51383*
X19927Y51386*
X19935Y51389*
X19943Y51393*
X1995Y51398*
X19957Y51403*
X19964Y51409*
X1997Y51415*
X19976Y51421*
X19982Y51428*
X19987Y51435*
X19991Y51443*
X19995Y51451*
X19998Y51459*
X20001Y51467*
X20003Y51475*
X20004Y51484*
X20005Y51493*
X20005Y51501*
X8467Y43828D02*
D01*
X8467Y43837*
X84669Y43846*
X84668Y43854*
X84666Y43863*
X84663Y43871*
X8466Y43879*
X84656Y43887*
X84652Y43895*
X84647Y43902*
X84641Y43909*
X84635Y43915*
X84629Y43921*
X84622Y43927*
X84615Y43932*
X84608Y43937*
X846Y43941*
X84592Y43944*
X84584Y43947*
X84576Y4395*
X84567Y43952*
X84559Y43953*
X8455Y43953*
X84541*
X84532Y43953*
X84524Y43952*
X84515Y4395*
X84507Y43947*
X84499Y43944*
X84491Y43941*
X84483Y43937*
X84476Y43932*
X84469Y43927*
X84462Y43921*
X84456Y43915*
X8445Y43909*
X84444Y43902*
X84439Y43895*
X84435Y43887*
X84431Y43879*
X84428Y43871*
X84425Y43863*
X84423Y43854*
X84422Y43846*
X84421Y43837*
X8442Y43828*
X84421Y4382*
X84422Y43811*
X84423Y43802*
X84425Y43794*
X84428Y43786*
X84431Y43778*
X84435Y4377*
X84439Y43762*
X84444Y43755*
X8445Y43748*
X84456Y43742*
X84462Y43736*
X84469Y4373*
X84476Y43725*
X84483Y4372*
X84491Y43716*
X84499Y43713*
X84507Y4371*
X84515Y43707*
X84524Y43705*
X84532Y43704*
X84541Y43704*
X8455*
X84559Y43704*
X84567Y43705*
X84576Y43707*
X84584Y4371*
X84592Y43713*
X846Y43716*
X84608Y4372*
X84615Y43725*
X84622Y4373*
X84629Y43736*
X84635Y43742*
X84641Y43748*
X84647Y43755*
X84652Y43762*
X84656Y4377*
X8466Y43778*
X84663Y43786*
X84666Y43794*
X84668Y43802*
X84669Y43811*
X8467Y4382*
X8467Y43828*
X90055Y47251D02*
D01*
X90055Y4726*
X90054Y47269*
X90053Y47277*
X90051Y47286*
X90048Y47294*
X90045Y47302*
X90041Y4731*
X90037Y47318*
X90032Y47325*
X90026Y47332*
X9002Y47338*
X90014Y47344*
X90007Y4735*
X9Y47355*
X89993Y4736*
X89985Y47364*
X89977Y47367*
X89969Y4737*
X89961Y47373*
X89952Y47375*
X89944Y47376*
X89935Y47376*
X89926*
X89917Y47376*
X89909Y47375*
X899Y47373*
X89892Y4737*
X89884Y47367*
X89876Y47364*
X89868Y4736*
X89861Y47355*
X89854Y4735*
X89847Y47344*
X89841Y47338*
X89835Y47332*
X89829Y47325*
X89824Y47318*
X8982Y4731*
X89816Y47302*
X89813Y47294*
X8981Y47286*
X89808Y47277*
X89807Y47269*
X89806Y4726*
X89805Y47251*
X89806Y47243*
X89807Y47234*
X89808Y47225*
X8981Y47217*
X89813Y47209*
X89816Y47201*
X8982Y47193*
X89824Y47185*
X89829Y47178*
X89835Y47171*
X89841Y47165*
X89847Y47159*
X89854Y47153*
X89861Y47148*
X89868Y47143*
X89876Y47139*
X89884Y47136*
X89892Y47133*
X899Y4713*
X89909Y47128*
X89917Y47127*
X89926Y47127*
X89935*
X89944Y47127*
X89952Y47128*
X89961Y4713*
X89969Y47133*
X89977Y47136*
X89985Y47139*
X89993Y47143*
X9Y47148*
X90007Y47153*
X90014Y47159*
X9002Y47165*
X90026Y47171*
X90032Y47178*
X90037Y47185*
X90041Y47193*
X90045Y47201*
X90048Y47209*
X90051Y47217*
X90053Y47225*
X90054Y47234*
X90055Y47243*
X90055Y47251*
X82751Y31409D02*
D01*
X82751Y31418*
X8275Y31427*
X82749Y31435*
X82747Y31444*
X82744Y31452*
X82741Y3146*
X82737Y31468*
X82732Y31476*
X82728Y31483*
X82722Y3149*
X82716Y31496*
X8271Y31502*
X82703Y31508*
X82696Y31513*
X82689Y31518*
X82681Y31522*
X82673Y31525*
X82665Y31528*
X82657Y31531*
X82648Y31533*
X8264Y31534*
X82631Y31534*
X82622*
X82613Y31534*
X82605Y31533*
X82596Y31531*
X82588Y31528*
X8258Y31525*
X82572Y31522*
X82564Y31518*
X82557Y31513*
X8255Y31508*
X82543Y31502*
X82537Y31496*
X82531Y3149*
X82525Y31483*
X8252Y31476*
X82516Y31468*
X82512Y3146*
X82509Y31452*
X82506Y31444*
X82504Y31435*
X82503Y31427*
X82502Y31418*
X82501Y31409*
X82502Y31401*
X82503Y31392*
X82504Y31383*
X82506Y31375*
X82509Y31367*
X82512Y31359*
X82516Y31351*
X8252Y31343*
X82525Y31336*
X82531Y31329*
X82537Y31323*
X82543Y31317*
X8255Y31311*
X82557Y31306*
X82564Y31301*
X82572Y31297*
X8258Y31294*
X82588Y31291*
X82596Y31288*
X82605Y31286*
X82613Y31285*
X82622Y31285*
X82631*
X8264Y31285*
X82648Y31286*
X82657Y31288*
X82665Y31291*
X82673Y31294*
X82681Y31297*
X82689Y31301*
X82696Y31306*
X82703Y31311*
X8271Y31317*
X82716Y31323*
X82722Y31329*
X82728Y31336*
X82732Y31343*
X82737Y31351*
X82741Y31359*
X82744Y31367*
X82747Y31375*
X82749Y31383*
X8275Y31392*
X82751Y31401*
X82751Y31409*
X82776Y27609D02*
D01*
X82776Y27618*
X82775Y27627*
X82774Y27635*
X82772Y27644*
X82769Y27652*
X82766Y2766*
X82762Y27668*
X82758Y27676*
X82753Y27683*
X82747Y2769*
X82741Y27696*
X82735Y27702*
X82728Y27708*
X82721Y27713*
X82714Y27718*
X82706Y27722*
X82698Y27725*
X8269Y27728*
X82682Y27731*
X82673Y27733*
X82665Y27734*
X82656Y27734*
X82647*
X82638Y27734*
X8263Y27733*
X82621Y27731*
X82613Y27728*
X82605Y27725*
X82597Y27722*
X82589Y27718*
X82582Y27713*
X82575Y27708*
X82568Y27702*
X82562Y27696*
X82556Y2769*
X8255Y27683*
X82545Y27676*
X82541Y27668*
X82537Y2766*
X82534Y27652*
X82531Y27644*
X82529Y27635*
X82528Y27627*
X82527Y27618*
X82526Y27609*
X82527Y27601*
X82528Y27592*
X82529Y27583*
X82531Y27575*
X82534Y27567*
X82537Y27559*
X82541Y27551*
X82545Y27543*
X8255Y27536*
X82556Y27529*
X82562Y27523*
X82568Y27517*
X82575Y27511*
X82582Y27506*
X82589Y27501*
X82597Y27497*
X82605Y27494*
X82613Y27491*
X82621Y27488*
X8263Y27486*
X82638Y27485*
X82647Y27485*
X82656*
X82665Y27485*
X82673Y27486*
X82682Y27488*
X8269Y27491*
X82698Y27494*
X82706Y27497*
X82714Y27501*
X82721Y27506*
X82728Y27511*
X82735Y27517*
X82741Y27523*
X82747Y27529*
X82753Y27536*
X82758Y27543*
X82762Y27551*
X82766Y27559*
X82769Y27567*
X82772Y27575*
X82774Y27583*
X82775Y27592*
X82776Y27601*
X82776Y27609*
X80005Y51501D02*
D01*
X80005Y5151*
X80004Y51519*
X80003Y51527*
X80001Y51536*
X79998Y51544*
X79995Y51552*
X79991Y5156*
X79986Y51568*
X79982Y51575*
X79976Y51582*
X7997Y51588*
X79964Y51594*
X79957Y516*
X7995Y51605*
X79943Y5161*
X79935Y51614*
X79927Y51617*
X79919Y5162*
X79911Y51623*
X79902Y51625*
X79894Y51626*
X79885Y51626*
X79876*
X79867Y51626*
X79859Y51625*
X7985Y51623*
X79842Y5162*
X79834Y51617*
X79826Y51614*
X79818Y5161*
X79811Y51605*
X79804Y516*
X79797Y51594*
X79791Y51588*
X79785Y51582*
X79779Y51575*
X79774Y51568*
X7977Y5156*
X79766Y51552*
X79763Y51544*
X7976Y51536*
X79758Y51527*
X79757Y51519*
X79756Y5151*
X79755Y51501*
X79756Y51493*
X79757Y51484*
X79758Y51475*
X7976Y51467*
X79763Y51459*
X79766Y51451*
X7977Y51443*
X79774Y51435*
X79779Y51428*
X79785Y51421*
X79791Y51415*
X79797Y51409*
X79804Y51403*
X79811Y51398*
X79818Y51393*
X79826Y51389*
X79834Y51386*
X79842Y51383*
X7985Y5138*
X79859Y51378*
X79867Y51377*
X79876Y51377*
X79885*
X79894Y51377*
X79902Y51378*
X79911Y5138*
X79919Y51383*
X79927Y51386*
X79935Y51389*
X79943Y51393*
X7995Y51398*
X79957Y51403*
X79964Y51409*
X7997Y51415*
X79976Y51421*
X79982Y51428*
X79986Y51435*
X79991Y51443*
X79995Y51451*
X79998Y51459*
X80001Y51467*
X80003Y51475*
X80004Y51484*
X80005Y51493*
X80005Y51501*
X2467Y103828D02*
D01*
X2467Y103837*
X24669Y103846*
X24668Y103854*
X24666Y103863*
X24663Y103871*
X2466Y103879*
X24656Y103887*
X24651Y103895*
X24647Y103902*
X24641Y103909*
X24635Y103915*
X24629Y103921*
X24622Y103927*
X24615Y103932*
X24608Y103937*
X246Y103941*
X24592Y103944*
X24584Y103947*
X24576Y10395*
X24567Y103952*
X24559Y103953*
X2455Y103953*
X24541*
X24532Y103953*
X24524Y103952*
X24515Y10395*
X24507Y103947*
X24499Y103944*
X24491Y103941*
X24483Y103937*
X24476Y103932*
X24469Y103927*
X24462Y103921*
X24456Y103915*
X2445Y103909*
X24444Y103902*
X24439Y103895*
X24435Y103887*
X24431Y103879*
X24428Y103871*
X24425Y103863*
X24423Y103854*
X24422Y103846*
X24421Y103837*
X2442Y103828*
X24421Y10382*
X24422Y103811*
X24423Y103802*
X24425Y103794*
X24428Y103786*
X24431Y103778*
X24435Y10377*
X24439Y103762*
X24444Y103755*
X2445Y103748*
X24456Y103742*
X24462Y103736*
X24469Y10373*
X24476Y103725*
X24483Y10372*
X24491Y103716*
X24499Y103713*
X24507Y10371*
X24515Y103707*
X24524Y103705*
X24532Y103704*
X24541Y103704*
X2455*
X24559Y103704*
X24567Y103705*
X24576Y103707*
X24584Y10371*
X24592Y103713*
X246Y103716*
X24608Y10372*
X24615Y103725*
X24622Y10373*
X24629Y103736*
X24635Y103742*
X24641Y103748*
X24647Y103755*
X24651Y103762*
X24656Y10377*
X2466Y103778*
X24663Y103786*
X24666Y103794*
X24668Y103802*
X24669Y103811*
X2467Y10382*
X2467Y103828*
X30055Y107251D02*
D01*
X30055Y10726*
X30054Y107269*
X30053Y107277*
X30051Y107286*
X30048Y107294*
X30045Y107302*
X30041Y10731*
X30036Y107318*
X30032Y107325*
X30026Y107332*
X3002Y107338*
X30014Y107344*
X30007Y10735*
X3Y107355*
X29993Y10736*
X29985Y107364*
X29977Y107367*
X29969Y10737*
X29961Y107373*
X29952Y107375*
X29944Y107376*
X29935Y107376*
X29926*
X29917Y107376*
X29909Y107375*
X299Y107373*
X29892Y10737*
X29884Y107367*
X29876Y107364*
X29868Y10736*
X29861Y107355*
X29854Y10735*
X29847Y107344*
X29841Y107338*
X29835Y107332*
X29829Y107325*
X29824Y107318*
X2982Y10731*
X29816Y107302*
X29813Y107294*
X2981Y107286*
X29808Y107277*
X29807Y107269*
X29806Y10726*
X29805Y107251*
X29806Y107243*
X29807Y107234*
X29808Y107225*
X2981Y107217*
X29813Y107209*
X29816Y107201*
X2982Y107193*
X29824Y107185*
X29829Y107178*
X29835Y107171*
X29841Y107165*
X29847Y107159*
X29854Y107153*
X29861Y107148*
X29868Y107143*
X29876Y107139*
X29884Y107136*
X29892Y107133*
X299Y10713*
X29909Y107128*
X29917Y107127*
X29926Y107127*
X29935*
X29944Y107127*
X29952Y107128*
X29961Y10713*
X29969Y107133*
X29977Y107136*
X29985Y107139*
X29993Y107143*
X3Y107148*
X30007Y107153*
X30014Y107159*
X3002Y107165*
X30026Y107171*
X30032Y107178*
X30036Y107185*
X30041Y107193*
X30045Y107201*
X30048Y107209*
X30051Y107217*
X30053Y107225*
X30054Y107234*
X30055Y107243*
X30055Y107251*
X22751Y91409D02*
D01*
X22751Y91418*
X2275Y91427*
X22749Y91435*
X22747Y91444*
X22744Y91452*
X22741Y9146*
X22737Y91468*
X22732Y91476*
X22728Y91483*
X22722Y9149*
X22716Y91496*
X2271Y91502*
X22703Y91508*
X22696Y91513*
X22689Y91518*
X22681Y91522*
X22673Y91525*
X22665Y91528*
X22657Y91531*
X22648Y91533*
X2264Y91534*
X22631Y91534*
X22622*
X22613Y91534*
X22605Y91533*
X22596Y91531*
X22588Y91528*
X2258Y91525*
X22572Y91522*
X22564Y91518*
X22557Y91513*
X2255Y91508*
X22543Y91502*
X22537Y91496*
X22531Y9149*
X22525Y91483*
X2252Y91476*
X22516Y91468*
X22512Y9146*
X22509Y91452*
X22506Y91444*
X22504Y91435*
X22503Y91427*
X22502Y91418*
X22501Y91409*
X22502Y91401*
X22503Y91392*
X22504Y91383*
X22506Y91375*
X22509Y91367*
X22512Y91359*
X22516Y91351*
X2252Y91343*
X22525Y91336*
X22531Y91329*
X22537Y91323*
X22543Y91317*
X2255Y91311*
X22557Y91306*
X22564Y91301*
X22572Y91297*
X2258Y91294*
X22588Y91291*
X22596Y91288*
X22605Y91286*
X22613Y91285*
X22622Y91285*
X22631*
X2264Y91285*
X22648Y91286*
X22657Y91288*
X22665Y91291*
X22673Y91294*
X22681Y91297*
X22689Y91301*
X22696Y91306*
X22703Y91311*
X2271Y91317*
X22716Y91323*
X22722Y91329*
X22728Y91336*
X22732Y91343*
X22737Y91351*
X22741Y91359*
X22744Y91367*
X22747Y91375*
X22749Y91383*
X2275Y91392*
X22751Y91401*
X22751Y91409*
X22776Y87609D02*
D01*
X22776Y87618*
X22775Y87627*
X22774Y87635*
X22772Y87644*
X22769Y87652*
X22766Y8766*
X22762Y87668*
X22757Y87676*
X22753Y87683*
X22747Y8769*
X22741Y87696*
X22735Y87702*
X22728Y87708*
X22721Y87713*
X22714Y87718*
X22706Y87722*
X22698Y87725*
X2269Y87728*
X22682Y87731*
X22673Y87733*
X22665Y87734*
X22656Y87734*
X22647*
X22638Y87734*
X2263Y87733*
X22621Y87731*
X22613Y87728*
X22605Y87725*
X22597Y87722*
X22589Y87718*
X22582Y87713*
X22575Y87708*
X22568Y87702*
X22562Y87696*
X22556Y8769*
X2255Y87683*
X22545Y87676*
X22541Y87668*
X22537Y8766*
X22534Y87652*
X22531Y87644*
X22529Y87635*
X22528Y87627*
X22527Y87618*
X22526Y87609*
X22527Y87601*
X22528Y87592*
X22529Y87584*
X22531Y87575*
X22534Y87567*
X22537Y87559*
X22541Y87551*
X22545Y87543*
X2255Y87536*
X22556Y87529*
X22562Y87523*
X22568Y87517*
X22575Y87511*
X22582Y87506*
X22589Y87501*
X22597Y87497*
X22605Y87494*
X22613Y87491*
X22621Y87488*
X2263Y87486*
X22638Y87485*
X22647Y87485*
X22656*
X22665Y87485*
X22673Y87486*
X22682Y87488*
X2269Y87491*
X22698Y87494*
X22706Y87497*
X22714Y87501*
X22721Y87506*
X22728Y87511*
X22735Y87517*
X22741Y87523*
X22747Y87529*
X22753Y87536*
X22757Y87543*
X22762Y87551*
X22766Y87559*
X22769Y87567*
X22772Y87575*
X22774Y87584*
X22775Y87592*
X22776Y87601*
X22776Y87609*
X20005Y111501D02*
D01*
X20005Y11151*
X20004Y111519*
X20003Y111527*
X20001Y111536*
X19998Y111544*
X19995Y111552*
X19991Y11156*
X19987Y111568*
X19982Y111575*
X19976Y111582*
X1997Y111588*
X19964Y111594*
X19957Y1116*
X1995Y111605*
X19943Y11161*
X19935Y111614*
X19927Y111617*
X19919Y11162*
X19911Y111623*
X19902Y111625*
X19894Y111626*
X19885Y111626*
X19876*
X19867Y111626*
X19859Y111625*
X1985Y111623*
X19842Y11162*
X19834Y111617*
X19826Y111614*
X19818Y11161*
X19811Y111605*
X19804Y1116*
X19797Y111594*
X19791Y111588*
X19785Y111582*
X19779Y111575*
X19774Y111568*
X1977Y11156*
X19766Y111552*
X19763Y111544*
X1976Y111536*
X19758Y111527*
X19757Y111519*
X19756Y11151*
X19755Y111501*
X19756Y111493*
X19757Y111484*
X19758Y111476*
X1976Y111467*
X19763Y111459*
X19766Y111451*
X1977Y111443*
X19774Y111435*
X19779Y111428*
X19785Y111421*
X19791Y111415*
X19797Y111409*
X19804Y111403*
X19811Y111398*
X19818Y111393*
X19826Y111389*
X19834Y111386*
X19842Y111383*
X1985Y11138*
X19859Y111378*
X19867Y111377*
X19876Y111377*
X19885*
X19894Y111377*
X19902Y111378*
X19911Y11138*
X19919Y111383*
X19927Y111386*
X19935Y111389*
X19943Y111393*
X1995Y111398*
X19957Y111403*
X19964Y111409*
X1997Y111415*
X19976Y111421*
X19982Y111428*
X19987Y111435*
X19991Y111443*
X19995Y111451*
X19998Y111459*
X20001Y111467*
X20003Y111476*
X20004Y111484*
X20005Y111493*
X20005Y111501*
X8467Y103828D02*
D01*
X8467Y103837*
X84669Y103846*
X84668Y103854*
X84666Y103863*
X84663Y103871*
X8466Y103879*
X84656Y103887*
X84652Y103895*
X84647Y103902*
X84641Y103909*
X84635Y103915*
X84629Y103921*
X84622Y103927*
X84615Y103932*
X84608Y103937*
X846Y103941*
X84592Y103944*
X84584Y103947*
X84576Y10395*
X84567Y103952*
X84559Y103953*
X8455Y103953*
X84541*
X84532Y103953*
X84524Y103952*
X84515Y10395*
X84507Y103947*
X84499Y103944*
X84491Y103941*
X84483Y103937*
X84476Y103932*
X84469Y103927*
X84462Y103921*
X84456Y103915*
X8445Y103909*
X84444Y103902*
X84439Y103895*
X84435Y103887*
X84431Y103879*
X84428Y103871*
X84425Y103863*
X84423Y103854*
X84422Y103846*
X84421Y103837*
X8442Y103828*
X84421Y10382*
X84422Y103811*
X84423Y103802*
X84425Y103794*
X84428Y103786*
X84431Y103778*
X84435Y10377*
X84439Y103762*
X84444Y103755*
X8445Y103748*
X84456Y103742*
X84462Y103736*
X84469Y10373*
X84476Y103725*
X84483Y10372*
X84491Y103716*
X84499Y103713*
X84507Y10371*
X84515Y103707*
X84524Y103705*
X84532Y103704*
X84541Y103704*
X8455*
X84559Y103704*
X84567Y103705*
X84576Y103707*
X84584Y10371*
X84592Y103713*
X846Y103716*
X84608Y10372*
X84615Y103725*
X84622Y10373*
X84629Y103736*
X84635Y103742*
X84641Y103748*
X84647Y103755*
X84652Y103762*
X84656Y10377*
X8466Y103778*
X84663Y103786*
X84666Y103794*
X84668Y103802*
X84669Y103811*
X8467Y10382*
X8467Y103828*
X90055Y107251D02*
D01*
X90055Y10726*
X90054Y107269*
X90053Y107277*
X90051Y107286*
X90048Y107294*
X90045Y107302*
X90041Y10731*
X90037Y107318*
X90032Y107325*
X90026Y107332*
X9002Y107338*
X90014Y107344*
X90007Y10735*
X9Y107355*
X89993Y10736*
X89985Y107364*
X89977Y107367*
X89969Y10737*
X89961Y107373*
X89952Y107375*
X89944Y107376*
X89935Y107376*
X89926*
X89917Y107376*
X89909Y107375*
X899Y107373*
X89892Y10737*
X89884Y107367*
X89876Y107364*
X89868Y10736*
X89861Y107355*
X89854Y10735*
X89847Y107344*
X89841Y107338*
X89835Y107332*
X89829Y107325*
X89824Y107318*
X8982Y10731*
X89816Y107302*
X89813Y107294*
X8981Y107286*
X89808Y107277*
X89807Y107269*
X89806Y10726*
X89805Y107251*
X89806Y107243*
X89807Y107234*
X89808Y107225*
X8981Y107217*
X89813Y107209*
X89816Y107201*
X8982Y107193*
X89824Y107185*
X89829Y107178*
X89835Y107171*
X89841Y107165*
X89847Y107159*
X89854Y107153*
X89861Y107148*
X89868Y107143*
X89876Y107139*
X89884Y107136*
X89892Y107133*
X899Y10713*
X89909Y107128*
X89917Y107127*
X89926Y107127*
X89935*
X89944Y107127*
X89952Y107128*
X89961Y10713*
X89969Y107133*
X89977Y107136*
X89985Y107139*
X89993Y107143*
X9Y107148*
X90007Y107153*
X90014Y107159*
X9002Y107165*
X90026Y107171*
X90032Y107178*
X90037Y107185*
X90041Y107193*
X90045Y107201*
X90048Y107209*
X90051Y107217*
X90053Y107225*
X90054Y107234*
X90055Y107243*
X90055Y107251*
X82751Y91409D02*
D01*
X82751Y91418*
X8275Y91427*
X82749Y91435*
X82747Y91444*
X82744Y91452*
X82741Y9146*
X82737Y91468*
X82732Y91476*
X82728Y91483*
X82722Y9149*
X82716Y91496*
X8271Y91502*
X82703Y91508*
X82696Y91513*
X82689Y91518*
X82681Y91522*
X82673Y91525*
X82665Y91528*
X82657Y91531*
X82648Y91533*
X8264Y91534*
X82631Y91534*
X82622*
X82613Y91534*
X82605Y91533*
X82596Y91531*
X82588Y91528*
X8258Y91525*
X82572Y91522*
X82564Y91518*
X82557Y91513*
X8255Y91508*
X82543Y91502*
X82537Y91496*
X82531Y9149*
X82525Y91483*
X8252Y91476*
X82516Y91468*
X82512Y9146*
X82509Y91452*
X82506Y91444*
X82504Y91435*
X82503Y91427*
X82502Y91418*
X82501Y91409*
X82502Y91401*
X82503Y91392*
X82504Y91383*
X82506Y91375*
X82509Y91367*
X82512Y91359*
X82516Y91351*
X8252Y91343*
X82525Y91336*
X82531Y91329*
X82537Y91323*
X82543Y91317*
X8255Y91311*
X82557Y91306*
X82564Y91301*
X82572Y91297*
X8258Y91294*
X82588Y91291*
X82596Y91288*
X82605Y91286*
X82613Y91285*
X82622Y91285*
X82631*
X8264Y91285*
X82648Y91286*
X82657Y91288*
X82665Y91291*
X82673Y91294*
X82681Y91297*
X82689Y91301*
X82696Y91306*
X82703Y91311*
X8271Y91317*
X82716Y91323*
X82722Y91329*
X82728Y91336*
X82732Y91343*
X82737Y91351*
X82741Y91359*
X82744Y91367*
X82747Y91375*
X82749Y91383*
X8275Y91392*
X82751Y91401*
X82751Y91409*
X82776Y87609D02*
D01*
X82776Y87618*
X82775Y87627*
X82774Y87635*
X82772Y87644*
X82769Y87652*
X82766Y8766*
X82762Y87668*
X82758Y87676*
X82753Y87683*
X82747Y8769*
X82741Y87696*
X82735Y87702*
X82728Y87708*
X82721Y87713*
X82714Y87718*
X82706Y87722*
X82698Y87725*
X8269Y87728*
X82682Y87731*
X82673Y87733*
X82665Y87734*
X82656Y87734*
X82647*
X82638Y87734*
X8263Y87733*
X82621Y87731*
X82613Y87728*
X82605Y87725*
X82597Y87722*
X82589Y87718*
X82582Y87713*
X82575Y87708*
X82568Y87702*
X82562Y87696*
X82556Y8769*
X8255Y87683*
X82545Y87676*
X82541Y87668*
X82537Y8766*
X82534Y87652*
X82531Y87644*
X82529Y87635*
X82528Y87627*
X82527Y87618*
X82526Y87609*
X82527Y87601*
X82528Y87592*
X82529Y87584*
X82531Y87575*
X82534Y87567*
X82537Y87559*
X82541Y87551*
X82545Y87543*
X8255Y87536*
X82556Y87529*
X82562Y87523*
X82568Y87517*
X82575Y87511*
X82582Y87506*
X82589Y87501*
X82597Y87497*
X82605Y87494*
X82613Y87491*
X82621Y87488*
X8263Y87486*
X82638Y87485*
X82647Y87485*
X82656*
X82665Y87485*
X82673Y87486*
X82682Y87488*
X8269Y87491*
X82698Y87494*
X82706Y87497*
X82714Y87501*
X82721Y87506*
X82728Y87511*
X82735Y87517*
X82741Y87523*
X82747Y87529*
X82753Y87536*
X82758Y87543*
X82762Y87551*
X82766Y87559*
X82769Y87567*
X82772Y87575*
X82774Y87584*
X82775Y87592*
X82776Y87601*
X82776Y87609*
X80005Y111501D02*
D01*
X80005Y11151*
X80004Y111519*
X80003Y111527*
X80001Y111536*
X79998Y111544*
X79995Y111552*
X79991Y11156*
X79986Y111568*
X79982Y111575*
X79976Y111582*
X7997Y111588*
X79964Y111594*
X79957Y1116*
X7995Y111605*
X79943Y11161*
X79935Y111614*
X79927Y111617*
X79919Y11162*
X79911Y111623*
X79902Y111625*
X79894Y111626*
X79885Y111626*
X79876*
X79867Y111626*
X79859Y111625*
X7985Y111623*
X79842Y11162*
X79834Y111617*
X79826Y111614*
X79818Y11161*
X79811Y111605*
X79804Y1116*
X79797Y111594*
X79791Y111588*
X79785Y111582*
X79779Y111575*
X79774Y111568*
X7977Y11156*
X79766Y111552*
X79763Y111544*
X7976Y111536*
X79758Y111527*
X79757Y111519*
X79756Y11151*
X79755Y111501*
X79756Y111493*
X79757Y111484*
X79758Y111476*
X7976Y111467*
X79763Y111459*
X79766Y111451*
X7977Y111443*
X79774Y111435*
X79779Y111428*
X79785Y111421*
X79791Y111415*
X79797Y111409*
X79804Y111403*
X79811Y111398*
X79818Y111393*
X79826Y111389*
X79834Y111386*
X79842Y111383*
X7985Y11138*
X79859Y111378*
X79867Y111377*
X79876Y111377*
X79885*
X79894Y111377*
X79902Y111378*
X79911Y11138*
X79919Y111383*
X79927Y111386*
X79935Y111389*
X79943Y111393*
X7995Y111398*
X79957Y111403*
X79964Y111409*
X7997Y111415*
X79976Y111421*
X79982Y111428*
X79986Y111435*
X79991Y111443*
X79995Y111451*
X79998Y111459*
X80001Y111467*
X80003Y111476*
X80004Y111484*
X80005Y111493*
X80005Y111501*
G54D45*
X2037Y34478D02*
Y38428D01*
X1572D02*
X2037D01*
X1572Y34478D02*
Y38428D01*
Y34478D02*
X2037D01*
X1002Y34503D02*
X1467D01*
X1002D02*
Y38453D01*
X1467*
Y34503D02*
Y38453D01*
X63849Y52249D02*
Y52549D01*
Y52399*
X62949*
X63099Y52249*
X63849Y53599D02*
Y52999D01*
X63249Y53599*
X63099*
X62949Y53449*
Y53149*
X63099Y52999*
X62949Y53898D02*
X63549D01*
X63849Y54198*
X63549Y54498*
X62949*
X63849Y55698D02*
X63249D01*
X62949Y55998*
X63249Y56298*
X63849*
X63399*
Y55698*
X62949Y56598D02*
X63699D01*
X63849Y56748*
Y57047*
X63699Y57197*
X62949*
Y57497D02*
X63849Y58097D01*
X62949D02*
X63849Y57497D01*
X56491Y41474D02*
X56324Y41641D01*
Y41974*
X56491Y4214*
X57157*
X57324Y41974*
Y41641*
X57157Y41474*
X56491*
X56324Y43473D02*
Y43807D01*
Y4364*
X57324*
Y43473*
Y43807*
Y44306D02*
X56324D01*
X57324Y44973*
X56324*
Y45306D02*
Y45973D01*
Y45639*
X57324*
Y47305D02*
Y47639D01*
Y47472*
X56324*
X56491Y47305*
X48899Y42224D02*
Y41557D01*
X49232Y41224*
X49565Y41557*
Y42224*
X50399D02*
X50065D01*
X49899Y42057*
Y41391*
X50065Y41224*
X50399*
X50565Y41391*
Y42057*
X50399Y42224*
X50898D02*
Y41224D01*
X51565*
X51898Y42224D02*
X52564D01*
X52231*
Y41224*
X52898D02*
Y4189D01*
X53231Y42224*
X53564Y4189*
Y41224*
Y41724*
X52898*
X54564Y42057D02*
X54397Y42224D01*
X54064*
X53897Y42057*
Y41391*
X54064Y41224*
X54397*
X54564Y41391*
Y41724*
X54231*
X55564Y42224D02*
X54897D01*
Y41224*
X55564*
X54897Y41724D02*
X5523D01*
X50215Y40482D02*
X50049Y40649D01*
X49716*
X49549Y40482*
Y40315*
X49716Y40149*
X50049*
X50215Y39982*
Y39816*
X50049Y39649*
X49716*
X49549Y39816*
X51215Y40649D02*
X50549D01*
Y39649*
X51215*
X50549Y40149D02*
X50882D01*
X51548Y40649D02*
Y39649D01*
X52215*
X53214Y40649D02*
X52548D01*
Y39649*
X53214*
X52548Y40149D02*
X52881D01*
X54214Y40482D02*
X54048Y40649D01*
X53714*
X53548Y40482*
Y39816*
X53714Y39649*
X54048*
X54214Y39816*
X54547Y40649D02*
X55214D01*
X54881*
Y39649*
X56874Y35774D02*
X57207D01*
X57041*
Y36774*
X56874Y36607*
X58374Y35774D02*
X57707D01*
X58374Y3644*
Y36607*
X58207Y36774*
X57874*
X57707Y36607*
X58707Y36774D02*
Y36107D01*
X5904Y35774*
X59373Y36107*
Y36774*
X47615Y36524D02*
X46949D01*
Y36024*
X47282Y3619*
X47449*
X47615Y36024*
Y35691*
X47449Y35524*
X47116*
X46949Y35691*
X47949Y36524D02*
Y35857D01*
X48282Y35524*
X48615Y35857*
Y36524*
X26924Y62449D02*
Y63449D01*
X27424*
X2759Y63282*
Y62949*
X27424Y62782*
X26924*
X27257D02*
X2759Y62449D01*
X2859Y63449D02*
X27924D01*
Y62449*
X2859*
X27924Y62949D02*
X28257D01*
X28923Y62449D02*
Y63115D01*
X29257Y63449*
X2959Y63115*
Y62449*
Y62949*
X28923*
X29923Y63449D02*
Y62449D01*
X30423*
X30589Y62616*
Y63282*
X30423Y63449*
X29923*
X31589D02*
X30923D01*
Y62449*
X31589*
X30923Y62949D02*
X31256D01*
X31922Y62449D02*
Y63449D01*
X32422*
X32589Y63282*
Y62949*
X32422Y62782*
X31922*
X32256D02*
X32589Y62449D01*
X23665Y53057D02*
X23499Y53224D01*
X23166*
X22999Y53057*
Y52391*
X23166Y52224*
X23499*
X23665Y52391*
Y52724*
X23332*
X23999Y52224D02*
Y53224D01*
X24499*
X24665Y53057*
Y52724*
X24499Y52557*
X23999*
X24998Y53224D02*
X25332D01*
X25165*
Y52224*
X24998*
X25332*
X26331Y53224D02*
X25998D01*
X25831Y53057*
Y52391*
X25998Y52224*
X26331*
X26498Y52391*
Y53057*
X26331Y53224*
X06374Y39899D02*
X07374D01*
Y40565*
X06374Y41565D02*
Y40899D01*
X07374*
Y41565*
X06874Y40899D02*
Y41232D01*
X06374Y41898D02*
X07374D01*
Y42398*
X07207Y42565*
X06541*
X06374Y42398*
Y41898*
X06541Y43564D02*
X06374Y43398D01*
Y43065*
X06541Y42898*
X06708*
X06874Y43065*
Y43398*
X07041Y43564*
X07207*
X07374Y43398*
Y43065*
X07207Y42898*
X07374Y43898D02*
X06708Y44564D01*
X07374Y44897D02*
X06374D01*
Y45397*
X06541Y45564*
X06874*
X07041Y45397*
Y44897*
X06374Y45897D02*
X07374D01*
X07041Y4623*
X07374Y46564*
X06374*
X07374Y46897D02*
X06374D01*
X06708Y4723*
X06374Y47563*
X07374*
X20099Y10174D02*
X19099D01*
Y10674*
X19266Y1084*
X19599*
X19766Y10674*
Y10174*
X19099Y11674D02*
Y1134D01*
X19266Y11174*
X19932*
X20099Y1134*
Y11674*
X19932Y1184*
X19266*
X19099Y11674*
Y1284D02*
Y12173D01*
X20099*
Y1284*
X19599Y12173D02*
Y12507D01*
X20099Y14339D02*
Y14673D01*
X19932Y14839*
X19599*
X19433Y14673*
Y14339*
X19599Y14173*
X19932*
X20099Y14339*
X19433Y15172D02*
X20099D01*
X19766*
X19599Y15339*
X19433Y15506*
Y15672*
X20099Y17672D02*
X19099D01*
X19599Y17172*
Y17838*
X19266Y18171D02*
X19099Y18338D01*
Y18671*
X19266Y18838*
X19433*
X19599Y18671*
X19766Y18838*
X19932*
X20099Y18671*
Y18338*
X19932Y18171*
X19766*
X19599Y18338*
X19433Y18171*
X19266*
X19599Y18338D02*
Y18671D01*
X19099Y19171D02*
X19766D01*
X20099Y19504*
X19766Y19838*
X19099*
X20649Y10749D02*
Y11082D01*
Y10916*
X21649*
Y10749*
Y11082*
Y11582D02*
X20649D01*
X21649Y12249*
X20649*
Y13248D02*
Y12915D01*
Y13082*
X21482*
X21649Y12915*
Y12748*
X21482Y12582*
X20649Y14248D02*
Y13581D01*
X21649*
Y14248*
X21149Y13581D02*
Y13915D01*
X20816Y15248D02*
X20649Y15081D01*
Y14748*
X20816Y14581*
X21482*
X21649Y14748*
Y15081*
X21482Y15248*
X20649Y15581D02*
Y16247D01*
Y15914*
X21649*
X20649Y1658D02*
Y16914D01*
Y16747*
X21649*
Y1658*
Y16914*
X20649Y17913D02*
Y1758D01*
X20816Y17414*
X21482*
X21649Y1758*
Y17913*
X21482Y1808*
X20816*
X20649Y17913*
X21649Y18413D02*
X20649D01*
X21649Y1908*
X20649*
X57224Y22849D02*
X56224D01*
X57224Y23515*
X56224*
X56391Y24515D02*
X56224Y24349D01*
Y24015*
X56391Y23849*
X57057*
X57224Y24015*
Y24349*
X57057Y24515*
X57274Y15749D02*
X56274D01*
X57274Y16415*
X56274*
Y17249D02*
Y16915D01*
X56441Y16749*
X57107*
X57274Y16915*
Y17249*
X57107Y17415*
X56441*
X56274Y17249*
X55574Y15674D02*
X54574D01*
Y16174*
X54741Y1634*
X55074*
X55241Y16174*
Y15674*
X54574Y17174D02*
Y1684D01*
X54741Y16674*
X55407*
X55574Y1684*
Y17174*
X55407Y1734*
X54741*
X54574Y17174*
Y17673D02*
X55574D01*
X55241Y18007*
X55574Y1834*
X54574*
Y19339D02*
Y18673D01*
X55574*
Y19339*
X55074Y18673D02*
Y19006D01*
X55574Y19673D02*
X54574D01*
Y20173*
X54741Y20339*
X55074*
X55241Y20173*
Y19673*
Y20006D02*
X55574Y20339D01*
X54574Y22172D02*
Y21839D01*
X54741Y21672*
X55407*
X55574Y21839*
Y22172*
X55407Y22339*
X54741*
X54574Y22172*
Y22672D02*
X55407D01*
X55574Y22838*
Y23172*
X55407Y23338*
X54574*
Y23671D02*
Y24338D01*
Y24005*
X55574*
X8037Y34478D02*
Y38428D01*
X7572D02*
X8037D01*
X7572Y34478D02*
Y38428D01*
Y34478D02*
X8037D01*
X7002Y34503D02*
X7467D01*
X7002D02*
Y38453D01*
X7467*
Y34503D02*
Y38453D01*
X123849Y52249D02*
Y52549D01*
Y52399*
X122949*
X123099Y52249*
X123849Y53599D02*
Y52999D01*
X123249Y53599*
X123099*
X122949Y53449*
Y53149*
X123099Y52999*
X122949Y53898D02*
X123549D01*
X123849Y54198*
X123549Y54498*
X122949*
X123849Y55698D02*
X123249D01*
X122949Y55998*
X123249Y56298*
X123849*
X123399*
Y55698*
X122949Y56598D02*
X123699D01*
X123849Y56748*
Y57047*
X123699Y57197*
X122949*
Y57497D02*
X123849Y58097D01*
X122949D02*
X123849Y57497D01*
X116491Y41474D02*
X116324Y41641D01*
Y41974*
X116491Y4214*
X117157*
X117324Y41974*
Y41641*
X117157Y41474*
X116491*
X116324Y43473D02*
Y43807D01*
Y4364*
X117324*
Y43473*
Y43807*
Y44306D02*
X116324D01*
X117324Y44973*
X116324*
Y45306D02*
Y45973D01*
Y45639*
X117324*
Y47305D02*
Y47639D01*
Y47472*
X116324*
X116491Y47305*
X108899Y42224D02*
Y41557D01*
X109232Y41224*
X109565Y41557*
Y42224*
X110399D02*
X110065D01*
X109899Y42057*
Y41391*
X110065Y41224*
X110399*
X110565Y41391*
Y42057*
X110399Y42224*
X110898D02*
Y41224D01*
X111565*
X111898Y42224D02*
X112564D01*
X112231*
Y41224*
X112898D02*
Y4189D01*
X113231Y42224*
X113564Y4189*
Y41224*
Y41724*
X112898*
X114564Y42057D02*
X114397Y42224D01*
X114064*
X113897Y42057*
Y41391*
X114064Y41224*
X114397*
X114564Y41391*
Y41724*
X114231*
X115564Y42224D02*
X114897D01*
Y41224*
X115564*
X114897Y41724D02*
X11523D01*
X110215Y40482D02*
X110049Y40649D01*
X109716*
X109549Y40482*
Y40315*
X109716Y40149*
X110049*
X110215Y39982*
Y39816*
X110049Y39649*
X109716*
X109549Y39816*
X111215Y40649D02*
X110549D01*
Y39649*
X111215*
X110549Y40149D02*
X110882D01*
X111548Y40649D02*
Y39649D01*
X112215*
X113214Y40649D02*
X112548D01*
Y39649*
X113214*
X112548Y40149D02*
X112881D01*
X114214Y40482D02*
X114048Y40649D01*
X113714*
X113548Y40482*
Y39816*
X113714Y39649*
X114048*
X114214Y39816*
X114547Y40649D02*
X115214D01*
X114881*
Y39649*
X116874Y35774D02*
X117207D01*
X117041*
Y36774*
X116874Y36607*
X118374Y35774D02*
X117707D01*
X118374Y3644*
Y36607*
X118207Y36774*
X117874*
X117707Y36607*
X118707Y36774D02*
Y36107D01*
X11904Y35774*
X119373Y36107*
Y36774*
X107615Y36524D02*
X106949D01*
Y36024*
X107282Y3619*
X107449*
X107615Y36024*
Y35691*
X107449Y35524*
X107116*
X106949Y35691*
X107949Y36524D02*
Y35857D01*
X108282Y35524*
X108615Y35857*
Y36524*
X86924Y62449D02*
Y63449D01*
X87424*
X8759Y63282*
Y62949*
X87424Y62782*
X86924*
X87257D02*
X8759Y62449D01*
X8859Y63449D02*
X87924D01*
Y62449*
X8859*
X87924Y62949D02*
X88257D01*
X88923Y62449D02*
Y63115D01*
X89257Y63449*
X8959Y63115*
Y62449*
Y62949*
X88923*
X89923Y63449D02*
Y62449D01*
X90423*
X90589Y62616*
Y63282*
X90423Y63449*
X89923*
X91589D02*
X90923D01*
Y62449*
X91589*
X90923Y62949D02*
X91256D01*
X91922Y62449D02*
Y63449D01*
X92422*
X92589Y63282*
Y62949*
X92422Y62782*
X91922*
X92256D02*
X92589Y62449D01*
X83665Y53057D02*
X83499Y53224D01*
X83166*
X82999Y53057*
Y52391*
X83166Y52224*
X83499*
X83665Y52391*
Y52724*
X83332*
X83999Y52224D02*
Y53224D01*
X84499*
X84665Y53057*
Y52724*
X84499Y52557*
X83999*
X84998Y53224D02*
X85332D01*
X85165*
Y52224*
X84998*
X85332*
X86331Y53224D02*
X85998D01*
X85831Y53057*
Y52391*
X85998Y52224*
X86331*
X86498Y52391*
Y53057*
X86331Y53224*
X66374Y39899D02*
X67374D01*
Y40565*
X66374Y41565D02*
Y40899D01*
X67374*
Y41565*
X66874Y40899D02*
Y41232D01*
X66374Y41898D02*
X67374D01*
Y42398*
X67207Y42565*
X66541*
X66374Y42398*
Y41898*
X66541Y43564D02*
X66374Y43398D01*
Y43065*
X66541Y42898*
X66708*
X66874Y43065*
Y43398*
X67041Y43564*
X67207*
X67374Y43398*
Y43065*
X67207Y42898*
X67374Y43898D02*
X66708Y44564D01*
X67374Y44897D02*
X66374D01*
Y45397*
X66541Y45564*
X66874*
X67041Y45397*
Y44897*
X66374Y45897D02*
X67374D01*
X67041Y4623*
X67374Y46564*
X66374*
X67374Y46897D02*
X66374D01*
X66708Y4723*
X66374Y47563*
X67374*
X80099Y10174D02*
X79099D01*
Y10674*
X79266Y1084*
X79599*
X79766Y10674*
Y10174*
X79099Y11674D02*
Y1134D01*
X79266Y11174*
X79932*
X80099Y1134*
Y11674*
X79932Y1184*
X79266*
X79099Y11674*
Y1284D02*
Y12173D01*
X80099*
Y1284*
X79599Y12173D02*
Y12507D01*
X80099Y14339D02*
Y14673D01*
X79932Y14839*
X79599*
X79433Y14673*
Y14339*
X79599Y14173*
X79932*
X80099Y14339*
X79433Y15172D02*
X80099D01*
X79766*
X79599Y15339*
X79433Y15506*
Y15672*
X80099Y17672D02*
X79099D01*
X79599Y17172*
Y17838*
X79266Y18171D02*
X79099Y18338D01*
Y18671*
X79266Y18838*
X79433*
X79599Y18671*
X79766Y18838*
X79932*
X80099Y18671*
Y18338*
X79932Y18171*
X79766*
X79599Y18338*
X79433Y18171*
X79266*
X79599Y18338D02*
Y18671D01*
X79099Y19171D02*
X79766D01*
X80099Y19504*
X79766Y19838*
X79099*
X80649Y10749D02*
Y11082D01*
Y10916*
X81649*
Y10749*
Y11082*
Y11582D02*
X80649D01*
X81649Y12249*
X80649*
Y13248D02*
Y12915D01*
Y13082*
X81482*
X81649Y12915*
Y12748*
X81482Y12582*
X80649Y14248D02*
Y13581D01*
X81649*
Y14248*
X81149Y13581D02*
Y13915D01*
X80816Y15248D02*
X80649Y15081D01*
Y14748*
X80816Y14581*
X81482*
X81649Y14748*
Y15081*
X81482Y15248*
X80649Y15581D02*
Y16247D01*
Y15914*
X81649*
X80649Y1658D02*
Y16914D01*
Y16747*
X81649*
Y1658*
Y16914*
X80649Y17913D02*
Y1758D01*
X80816Y17414*
X81482*
X81649Y1758*
Y17913*
X81482Y1808*
X80816*
X80649Y17913*
X81649Y18413D02*
X80649D01*
X81649Y1908*
X80649*
X117224Y22849D02*
X116224D01*
X117224Y23515*
X116224*
X116391Y24515D02*
X116224Y24349D01*
Y24015*
X116391Y23849*
X117057*
X117224Y24015*
Y24349*
X117057Y24515*
X117274Y15749D02*
X116274D01*
X117274Y16415*
X116274*
Y17249D02*
Y16915D01*
X116441Y16749*
X117107*
X117274Y16915*
Y17249*
X117107Y17415*
X116441*
X116274Y17249*
X115574Y15674D02*
X114574D01*
Y16174*
X114741Y1634*
X115074*
X115241Y16174*
Y15674*
X114574Y17174D02*
Y1684D01*
X114741Y16674*
X115407*
X115574Y1684*
Y17174*
X115407Y1734*
X114741*
X114574Y17174*
Y17673D02*
X115574D01*
X115241Y18007*
X115574Y1834*
X114574*
Y19339D02*
Y18673D01*
X115574*
Y19339*
X115074Y18673D02*
Y19006D01*
X115574Y19673D02*
X114574D01*
Y20173*
X114741Y20339*
X115074*
X115241Y20173*
Y19673*
Y20006D02*
X115574Y20339D01*
X114574Y22172D02*
Y21839D01*
X114741Y21672*
X115407*
X115574Y21839*
Y22172*
X115407Y22339*
X114741*
X114574Y22172*
Y22672D02*
X115407D01*
X115574Y22838*
Y23172*
X115407Y23338*
X114574*
Y23671D02*
Y24338D01*
Y24005*
X115574*
X2037Y94478D02*
Y98428D01*
X1572D02*
X2037D01*
X1572Y94478D02*
Y98428D01*
Y94478D02*
X2037D01*
X1002Y94503D02*
X1467D01*
X1002D02*
Y98453D01*
X1467*
Y94503D02*
Y98453D01*
X63849Y112249D02*
Y112549D01*
Y112399*
X62949*
X63099Y112249*
X63849Y113599D02*
Y112999D01*
X63249Y113599*
X63099*
X62949Y113449*
Y113149*
X63099Y112999*
X62949Y113898D02*
X63549D01*
X63849Y114198*
X63549Y114498*
X62949*
X63849Y115698D02*
X63249D01*
X62949Y115998*
X63249Y116298*
X63849*
X63399*
Y115698*
X62949Y116598D02*
X63699D01*
X63849Y116748*
Y117047*
X63699Y117197*
X62949*
Y117497D02*
X63849Y118097D01*
X62949D02*
X63849Y117497D01*
X56491Y101474D02*
X56324Y101641D01*
Y101974*
X56491Y10214*
X57157*
X57324Y101974*
Y101641*
X57157Y101474*
X56491*
X56324Y103473D02*
Y103807D01*
Y10364*
X57324*
Y103473*
Y103807*
Y104306D02*
X56324D01*
X57324Y104973*
X56324*
Y105306D02*
Y105973D01*
Y105639*
X57324*
Y107305D02*
Y107639D01*
Y107472*
X56324*
X56491Y107305*
X48899Y102224D02*
Y101557D01*
X49232Y101224*
X49565Y101557*
Y102224*
X50399D02*
X50065D01*
X49899Y102057*
Y101391*
X50065Y101224*
X50399*
X50565Y101391*
Y102057*
X50399Y102224*
X50898D02*
Y101224D01*
X51565*
X51898Y102224D02*
X52564D01*
X52231*
Y101224*
X52898D02*
Y10189D01*
X53231Y102224*
X53564Y10189*
Y101224*
Y101724*
X52898*
X54564Y102057D02*
X54397Y102224D01*
X54064*
X53897Y102057*
Y101391*
X54064Y101224*
X54397*
X54564Y101391*
Y101724*
X54231*
X55564Y102224D02*
X54897D01*
Y101224*
X55564*
X54897Y101724D02*
X5523D01*
X50215Y100482D02*
X50049Y100649D01*
X49716*
X49549Y100482*
Y100315*
X49716Y100149*
X50049*
X50215Y99982*
Y99816*
X50049Y99649*
X49716*
X49549Y99816*
X51215Y100649D02*
X50549D01*
Y99649*
X51215*
X50549Y100149D02*
X50882D01*
X51548Y100649D02*
Y99649D01*
X52215*
X53214Y100649D02*
X52548D01*
Y99649*
X53214*
X52548Y100149D02*
X52881D01*
X54214Y100482D02*
X54048Y100649D01*
X53714*
X53548Y100482*
Y99816*
X53714Y99649*
X54048*
X54214Y99816*
X54547Y100649D02*
X55214D01*
X54881*
Y99649*
X56874Y95774D02*
X57207D01*
X57041*
Y96774*
X56874Y96607*
X58374Y95774D02*
X57707D01*
X58374Y9644*
Y96607*
X58207Y96774*
X57874*
X57707Y96607*
X58707Y96774D02*
Y96107D01*
X5904Y95774*
X59373Y96107*
Y96774*
X47615Y96524D02*
X46949D01*
Y96024*
X47282Y9619*
X47449*
X47615Y96024*
Y95691*
X47449Y95524*
X47116*
X46949Y95691*
X47949Y96524D02*
Y95857D01*
X48282Y95524*
X48615Y95857*
Y96524*
X26924Y122449D02*
Y123449D01*
X27424*
X2759Y123282*
Y122949*
X27424Y122782*
X26924*
X27257D02*
X2759Y122449D01*
X2859Y123449D02*
X27924D01*
Y122449*
X2859*
X27924Y122949D02*
X28257D01*
X28923Y122449D02*
Y123115D01*
X29257Y123449*
X2959Y123115*
Y122449*
Y122949*
X28923*
X29923Y123449D02*
Y122449D01*
X30423*
X30589Y122616*
Y123282*
X30423Y123449*
X29923*
X31589D02*
X30923D01*
Y122449*
X31589*
X30923Y122949D02*
X31256D01*
X31922Y122449D02*
Y123449D01*
X32422*
X32589Y123282*
Y122949*
X32422Y122782*
X31922*
X32256D02*
X32589Y122449D01*
X23665Y113057D02*
X23499Y113224D01*
X23166*
X22999Y113057*
Y112391*
X23166Y112224*
X23499*
X23665Y112391*
Y112724*
X23332*
X23999Y112224D02*
Y113224D01*
X24499*
X24665Y113057*
Y112724*
X24499Y112557*
X23999*
X24998Y113224D02*
X25332D01*
X25165*
Y112224*
X24998*
X25332*
X26331Y113224D02*
X25998D01*
X25831Y113057*
Y112391*
X25998Y112224*
X26331*
X26498Y112391*
Y113057*
X26331Y113224*
X06374Y99899D02*
X07374D01*
Y100565*
X06374Y101565D02*
Y100899D01*
X07374*
Y101565*
X06874Y100899D02*
Y101232D01*
X06374Y101898D02*
X07374D01*
Y102398*
X07207Y102565*
X06541*
X06374Y102398*
Y101898*
X06541Y103564D02*
X06374Y103398D01*
Y103065*
X06541Y102898*
X06708*
X06874Y103065*
Y103398*
X07041Y103564*
X07207*
X07374Y103398*
Y103065*
X07207Y102898*
X07374Y103898D02*
X06708Y104564D01*
X07374Y104897D02*
X06374D01*
Y105397*
X06541Y105564*
X06874*
X07041Y105397*
Y104897*
X06374Y105897D02*
X07374D01*
X07041Y10623*
X07374Y106564*
X06374*
X07374Y106897D02*
X06374D01*
X06708Y10723*
X06374Y107563*
X07374*
X20099Y70174D02*
X19099D01*
Y70674*
X19266Y7084*
X19599*
X19766Y70674*
Y70174*
X19099Y71674D02*
Y7134D01*
X19266Y71174*
X19932*
X20099Y7134*
Y71674*
X19932Y7184*
X19266*
X19099Y71674*
Y7284D02*
Y72173D01*
X20099*
Y7284*
X19599Y72173D02*
Y72507D01*
X20099Y74339D02*
Y74673D01*
X19932Y74839*
X19599*
X19433Y74673*
Y74339*
X19599Y74173*
X19932*
X20099Y74339*
X19433Y75172D02*
X20099D01*
X19766*
X19599Y75339*
X19433Y75506*
Y75672*
X20099Y77672D02*
X19099D01*
X19599Y77172*
Y77838*
X19266Y78171D02*
X19099Y78338D01*
Y78671*
X19266Y78838*
X19433*
X19599Y78671*
X19766Y78838*
X19932*
X20099Y78671*
Y78338*
X19932Y78171*
X19766*
X19599Y78338*
X19433Y78171*
X19266*
X19599Y78338D02*
Y78671D01*
X19099Y79171D02*
X19766D01*
X20099Y79504*
X19766Y79838*
X19099*
X20649Y70749D02*
Y71082D01*
Y70916*
X21649*
Y70749*
Y71082*
Y71582D02*
X20649D01*
X21649Y72249*
X20649*
Y73248D02*
Y72915D01*
Y73082*
X21482*
X21649Y72915*
Y72748*
X21482Y72582*
X20649Y74248D02*
Y73581D01*
X21649*
Y74248*
X21149Y73581D02*
Y73915D01*
X20816Y75248D02*
X20649Y75081D01*
Y74748*
X20816Y74581*
X21482*
X21649Y74748*
Y75081*
X21482Y75248*
X20649Y75581D02*
Y76247D01*
Y75914*
X21649*
X20649Y7658D02*
Y76914D01*
Y76747*
X21649*
Y7658*
Y76914*
X20649Y77913D02*
Y7758D01*
X20816Y77414*
X21482*
X21649Y7758*
Y77913*
X21482Y7808*
X20816*
X20649Y77913*
X21649Y78413D02*
X20649D01*
X21649Y7908*
X20649*
X57224Y82849D02*
X56224D01*
X57224Y83515*
X56224*
X56391Y84515D02*
X56224Y84349D01*
Y84015*
X56391Y83849*
X57057*
X57224Y84015*
Y84349*
X57057Y84515*
X57274Y75749D02*
X56274D01*
X57274Y76415*
X56274*
Y77249D02*
Y76915D01*
X56441Y76749*
X57107*
X57274Y76915*
Y77249*
X57107Y77415*
X56441*
X56274Y77249*
X55574Y75674D02*
X54574D01*
Y76174*
X54741Y7634*
X55074*
X55241Y76174*
Y75674*
X54574Y77174D02*
Y7684D01*
X54741Y76674*
X55407*
X55574Y7684*
Y77174*
X55407Y7734*
X54741*
X54574Y77174*
Y77673D02*
X55574D01*
X55241Y78007*
X55574Y7834*
X54574*
Y79339D02*
Y78673D01*
X55574*
Y79339*
X55074Y78673D02*
Y79006D01*
X55574Y79673D02*
X54574D01*
Y80173*
X54741Y80339*
X55074*
X55241Y80173*
Y79673*
Y80006D02*
X55574Y80339D01*
X54574Y82172D02*
Y81839D01*
X54741Y81672*
X55407*
X55574Y81839*
Y82172*
X55407Y82339*
X54741*
X54574Y82172*
Y82672D02*
X55407D01*
X55574Y82838*
Y83172*
X55407Y83338*
X54574*
Y83671D02*
Y84338D01*
Y84005*
X55574*
X8037Y94478D02*
Y98428D01*
X7572D02*
X8037D01*
X7572Y94478D02*
Y98428D01*
Y94478D02*
X8037D01*
X7002Y94503D02*
X7467D01*
X7002D02*
Y98453D01*
X7467*
Y94503D02*
Y98453D01*
X123849Y112249D02*
Y112549D01*
Y112399*
X122949*
X123099Y112249*
X123849Y113599D02*
Y112999D01*
X123249Y113599*
X123099*
X122949Y113449*
Y113149*
X123099Y112999*
X122949Y113898D02*
X123549D01*
X123849Y114198*
X123549Y114498*
X122949*
X123849Y115698D02*
X123249D01*
X122949Y115998*
X123249Y116298*
X123849*
X123399*
Y115698*
X122949Y116598D02*
X123699D01*
X123849Y116748*
Y117047*
X123699Y117197*
X122949*
Y117497D02*
X123849Y118097D01*
X122949D02*
X123849Y117497D01*
X116491Y101474D02*
X116324Y101641D01*
Y101974*
X116491Y10214*
X117157*
X117324Y101974*
Y101641*
X117157Y101474*
X116491*
X116324Y103473D02*
Y103807D01*
Y10364*
X117324*
Y103473*
Y103807*
Y104306D02*
X116324D01*
X117324Y104973*
X116324*
Y105306D02*
Y105973D01*
Y105639*
X117324*
Y107305D02*
Y107639D01*
Y107472*
X116324*
X116491Y107305*
X108899Y102224D02*
Y101557D01*
X109232Y101224*
X109565Y101557*
Y102224*
X110399D02*
X110065D01*
X109899Y102057*
Y101391*
X110065Y101224*
X110399*
X110565Y101391*
Y102057*
X110399Y102224*
X110898D02*
Y101224D01*
X111565*
X111898Y102224D02*
X112564D01*
X112231*
Y101224*
X112898D02*
Y10189D01*
X113231Y102224*
X113564Y10189*
Y101224*
Y101724*
X112898*
X114564Y102057D02*
X114397Y102224D01*
X114064*
X113897Y102057*
Y101391*
X114064Y101224*
X114397*
X114564Y101391*
Y101724*
X114231*
X115564Y102224D02*
X114897D01*
Y101224*
X115564*
X114897Y101724D02*
X11523D01*
X110215Y100482D02*
X110049Y100649D01*
X109716*
X109549Y100482*
Y100315*
X109716Y100149*
X110049*
X110215Y99982*
Y99816*
X110049Y99649*
X109716*
X109549Y99816*
X111215Y100649D02*
X110549D01*
Y99649*
X111215*
X110549Y100149D02*
X110882D01*
X111548Y100649D02*
Y99649D01*
X112215*
X113214Y100649D02*
X112548D01*
Y99649*
X113214*
X112548Y100149D02*
X112881D01*
X114214Y100482D02*
X114048Y100649D01*
X113714*
X113548Y100482*
Y99816*
X113714Y99649*
X114048*
X114214Y99816*
X114547Y100649D02*
X115214D01*
X114881*
Y99649*
X116874Y95774D02*
X117207D01*
X117041*
Y96774*
X116874Y96607*
X118374Y95774D02*
X117707D01*
X118374Y9644*
Y96607*
X118207Y96774*
X117874*
X117707Y96607*
X118707Y96774D02*
Y96107D01*
X11904Y95774*
X119373Y96107*
Y96774*
X107615Y96524D02*
X106949D01*
Y96024*
X107282Y9619*
X107449*
X107615Y96024*
Y95691*
X107449Y95524*
X107116*
X106949Y95691*
X107949Y96524D02*
Y95857D01*
X108282Y95524*
X108615Y95857*
Y96524*
X86924Y122449D02*
Y123449D01*
X87424*
X8759Y123282*
Y122949*
X87424Y122782*
X86924*
X87257D02*
X8759Y122449D01*
X8859Y123449D02*
X87924D01*
Y122449*
X8859*
X87924Y122949D02*
X88257D01*
X88923Y122449D02*
Y123115D01*
X89257Y123449*
X8959Y123115*
Y122449*
Y122949*
X88923*
X89923Y123449D02*
Y122449D01*
X90423*
X90589Y122616*
Y123282*
X90423Y123449*
X89923*
X91589D02*
X90923D01*
Y122449*
X91589*
X90923Y122949D02*
X91256D01*
X91922Y122449D02*
Y123449D01*
X92422*
X92589Y123282*
Y122949*
X92422Y122782*
X91922*
X92256D02*
X92589Y122449D01*
X83665Y113057D02*
X83499Y113224D01*
X83166*
X82999Y113057*
Y112391*
X83166Y112224*
X83499*
X83665Y112391*
Y112724*
X83332*
X83999Y112224D02*
Y113224D01*
X84499*
X84665Y113057*
Y112724*
X84499Y112557*
X83999*
X84998Y113224D02*
X85332D01*
X85165*
Y112224*
X84998*
X85332*
X86331Y113224D02*
X85998D01*
X85831Y113057*
Y112391*
X85998Y112224*
X86331*
X86498Y112391*
Y113057*
X86331Y113224*
X66374Y99899D02*
X67374D01*
Y100565*
X66374Y101565D02*
Y100899D01*
X67374*
Y101565*
X66874Y100899D02*
Y101232D01*
X66374Y101898D02*
X67374D01*
Y102398*
X67207Y102565*
X66541*
X66374Y102398*
Y101898*
X66541Y103564D02*
X66374Y103398D01*
Y103065*
X66541Y102898*
X66708*
X66874Y103065*
Y103398*
X67041Y103564*
X67207*
X67374Y103398*
Y103065*
X67207Y102898*
X67374Y103898D02*
X66708Y104564D01*
X67374Y104897D02*
X66374D01*
Y105397*
X66541Y105564*
X66874*
X67041Y105397*
Y104897*
X66374Y105897D02*
X67374D01*
X67041Y10623*
X67374Y106564*
X66374*
X67374Y106897D02*
X66374D01*
X66708Y10723*
X66374Y107563*
X67374*
X80099Y70174D02*
X79099D01*
Y70674*
X79266Y7084*
X79599*
X79766Y70674*
Y70174*
X79099Y71674D02*
Y7134D01*
X79266Y71174*
X79932*
X80099Y7134*
Y71674*
X79932Y7184*
X79266*
X79099Y71674*
Y7284D02*
Y72173D01*
X80099*
Y7284*
X79599Y72173D02*
Y72507D01*
X80099Y74339D02*
Y74673D01*
X79932Y74839*
X79599*
X79433Y74673*
Y74339*
X79599Y74173*
X79932*
X80099Y74339*
X79433Y75172D02*
X80099D01*
X79766*
X79599Y75339*
X79433Y75506*
Y75672*
X80099Y77672D02*
X79099D01*
X79599Y77172*
Y77838*
X79266Y78171D02*
X79099Y78338D01*
Y78671*
X79266Y78838*
X79433*
X79599Y78671*
X79766Y78838*
X79932*
X80099Y78671*
Y78338*
X79932Y78171*
X79766*
X79599Y78338*
X79433Y78171*
X79266*
X79599Y78338D02*
Y78671D01*
X79099Y79171D02*
X79766D01*
X80099Y79504*
X79766Y79838*
X79099*
X80649Y70749D02*
Y71082D01*
Y70916*
X81649*
Y70749*
Y71082*
Y71582D02*
X80649D01*
X81649Y72249*
X80649*
Y73248D02*
Y72915D01*
Y73082*
X81482*
X81649Y72915*
Y72748*
X81482Y72582*
X80649Y74248D02*
Y73581D01*
X81649*
Y74248*
X81149Y73581D02*
Y73915D01*
X80816Y75248D02*
X80649Y75081D01*
Y74748*
X80816Y74581*
X81482*
X81649Y74748*
Y75081*
X81482Y75248*
X80649Y75581D02*
Y76247D01*
Y75914*
X81649*
X80649Y7658D02*
Y76914D01*
Y76747*
X81649*
Y7658*
Y76914*
X80649Y77913D02*
Y7758D01*
X80816Y77414*
X81482*
X81649Y7758*
Y77913*
X81482Y7808*
X80816*
X80649Y77913*
X81649Y78413D02*
X80649D01*
X81649Y7908*
X80649*
X117224Y82849D02*
X116224D01*
X117224Y83515*
X116224*
X116391Y84515D02*
X116224Y84349D01*
Y84015*
X116391Y83849*
X117057*
X117224Y84015*
Y84349*
X117057Y84515*
X117274Y75749D02*
X116274D01*
X117274Y76415*
X116274*
Y77249D02*
Y76915D01*
X116441Y76749*
X117107*
X117274Y76915*
Y77249*
X117107Y77415*
X116441*
X116274Y77249*
X115574Y75674D02*
X114574D01*
Y76174*
X114741Y7634*
X115074*
X115241Y76174*
Y75674*
X114574Y77174D02*
Y7684D01*
X114741Y76674*
X115407*
X115574Y7684*
Y77174*
X115407Y7734*
X114741*
X114574Y77174*
Y77673D02*
X115574D01*
X115241Y78007*
X115574Y7834*
X114574*
Y79339D02*
Y78673D01*
X115574*
Y79339*
X115074Y78673D02*
Y79006D01*
X115574Y79673D02*
X114574D01*
Y80173*
X114741Y80339*
X115074*
X115241Y80173*
Y79673*
Y80006D02*
X115574Y80339D01*
X114574Y82172D02*
Y81839D01*
X114741Y81672*
X115407*
X115574Y81839*
Y82172*
X115407Y82339*
X114741*
X114574Y82172*
Y82672D02*
X115407D01*
X115574Y82838*
Y83172*
X115407Y83338*
X114574*
Y83671D02*
Y84338D01*
Y84005*
X115574*
G54D98*
X49674Y63774D02*
D01*
X49224Y63665*
X48783Y63525*
X48352Y63354*
X47935Y63153*
X47532Y62924*
X47147Y62667*
X4678Y62384*
X46434Y62076*
X4611Y61745*
X4581Y61392*
X45536Y61019*
X45288Y60627*
X45068Y6022*
X44877Y59798*
X44716Y59363*
X44585Y58919*
X44486Y58466*
X44419Y58008*
X44384Y57546*
X44381Y57083*
X44411Y5662*
X44473Y56161*
X44566Y55707*
X44691Y55261*
X44847Y54825*
X45033Y54401*
X45248Y53991*
X45491Y53596*
X45761Y5322*
X46057Y52863*
X46377Y52528*
X46719Y52216*
X47082Y51929*
X47465Y51667*
X47865Y51433*
X4828Y51228*
X48708Y51052*
X49148Y50906*
X49597Y50791*
X49674Y50774*
X52074Y50674D02*
D01*
X52528Y50785*
X52973Y50926*
X53407Y51099*
X53828Y51301*
X54233Y51532*
X54622Y5179*
X54991Y52075*
X5534Y52386*
X55666Y5272*
X55969Y53075*
X56245Y53451*
X56495Y53846*
X56717Y54257*
X56909Y54682*
X57071Y55119*
X57203Y55567*
X57303Y56023*
X5737Y56485*
X57406Y56951*
X57409Y57418*
X57379Y57883*
X57317Y58346*
X57222Y58803*
X57096Y59253*
X56939Y59692*
X56752Y6012*
X56535Y60533*
X5629Y60931*
X56018Y6131*
X5572Y61669*
X55398Y62007*
X55053Y62322*
X54687Y62611*
X54302Y62875*
X53899Y6311*
X5348Y63318*
X53049Y63495*
X52606Y63642*
X52153Y63758*
X52074Y63774*
X52794Y45449D02*
D01*
X52791Y45538*
X52782Y45626*
X52767Y45714*
X52745Y458*
X52718Y45884*
X52685Y45966*
X52646Y46046*
X52602Y46122*
X52552Y46196*
X52497Y46266*
X52438Y46332*
X52374Y46393*
X52306Y4645*
X52235Y46502*
X52159Y46549*
X52081Y46591*
X52Y46627*
X51917Y46657*
X51832Y46682*
X51745Y467*
X51657Y46713*
X51569Y46719*
X5148*
X51392Y46713*
X51304Y467*
X51217Y46682*
X51132Y46657*
X51049Y46627*
X50968Y46591*
X50889Y46549*
X50814Y46502*
X50743Y4645*
X50675Y46393*
X50611Y46332*
X50552Y46266*
X50497Y46196*
X50447Y46122*
X50403Y46046*
X50364Y45966*
X50331Y45884*
X50304Y458*
X50282Y45714*
X50267Y45626*
X50258Y45538*
X50254Y45449*
X50258Y45361*
X50267Y45273*
X50282Y45185*
X50304Y45099*
X50331Y45015*
X50364Y44933*
X50403Y44853*
X50447Y44776*
X50497Y44703*
X50552Y44633*
X50611Y44567*
X50675Y44506*
X50743Y44449*
X50814Y44397*
X50889Y4435*
X50968Y44308*
X51049Y44272*
X51132Y44242*
X51217Y44217*
X51304Y44199*
X51392Y44186*
X5148Y4418*
X51569*
X51657Y44186*
X51745Y44199*
X51832Y44217*
X51917Y44242*
X52Y44272*
X52081Y44308*
X52159Y4435*
X52235Y44397*
X52306Y44449*
X52374Y44506*
X52438Y44567*
X52497Y44633*
X52552Y44703*
X52602Y44776*
X52646Y44853*
X52685Y44933*
X52718Y45015*
X52745Y45099*
X52767Y45185*
X52782Y45273*
X52791Y45361*
X52794Y45449*
X43174Y16749D02*
D01*
X43344Y16796*
X43509Y16853*
X4367Y16922*
X43826Y17003*
X43976Y17094*
X44119Y17195*
X44255Y17306*
X44382Y17426*
X44501Y17554*
X44611Y17691*
X44711Y17835*
X448Y17985*
X44879Y18142*
X44947Y18304*
X45004Y18469*
X45048Y18639*
X45081Y18811*
X45102Y18985*
X4511Y1916*
X45106Y19335*
X4509Y1951*
X45062Y19683*
X45022Y19853*
X4497Y20021*
X44907Y20184*
X44832Y20343*
X44746Y20496*
X4465Y20642*
X44544Y20782*
X44429Y20913*
X44304Y21037*
X44171Y21151*
X44031Y21256*
X43884Y21351*
X4373Y21435*
X43571Y21509*
X43407Y21571*
X43239Y21621*
X43124Y21649*
X42124Y21599D02*
D01*
X41956Y2156*
X41791Y2151*
X4163Y21448*
X41473Y21374*
X41322Y2129*
X41177Y21196*
X41039Y21092*
X40909Y20979*
X40787Y20856*
X40674Y20726*
X4057Y20588*
X40476Y20442*
X40392Y20291*
X40319Y20135*
X40258Y19973*
X40207Y19808*
X40168Y19639*
X40142Y19469*
X40127Y19296*
X40124Y19124*
X40133Y18951*
X40154Y1878*
X40188Y1861*
X40232Y18443*
X40289Y1828*
X40357Y18121*
X40435Y17967*
X40524Y17819*
X40624Y17677*
X40733Y17543*
X40851Y17417*
X40977Y17299*
X41111Y1719*
X41253Y17092*
X41401Y17003*
X41555Y16924*
X41715Y16857*
X41878Y16801*
X42045Y16756*
X42074Y16749*
X41024Y58774D02*
D01*
X41193Y58814*
X41358Y58864*
X41519Y58926*
X41676Y59*
X41827Y59083*
X41972Y59178*
X4211Y59282*
X4224Y59395*
X42362Y59518*
X42475Y59648*
X42579Y59786*
X42673Y59931*
X42757Y60083*
X4283Y60239*
X42891Y60401*
X42942Y60566*
X4298Y60735*
X43007Y60905*
X43022Y61078*
X43025Y6125*
X43016Y61423*
X42995Y61594*
X42961Y61764*
X42917Y61931*
X4286Y62094*
X42792Y62253*
X42714Y62407*
X42625Y62555*
X42525Y62697*
X42416Y62831*
X42298Y62957*
X42172Y63075*
X42037Y63183*
X41896Y63282*
X41748Y63371*
X41594Y6345*
X41434Y63517*
X41271Y63573*
X41104Y63618*
X41074Y63624*
X39974D02*
D01*
X39805Y63578*
X3964Y63521*
X39479Y63452*
X39323Y63371*
X39173Y6328*
X3903Y63179*
X38894Y63068*
X38767Y62948*
X38648Y6282*
X38538Y62683*
X38438Y62539*
X38348Y62389*
X3827Y62232*
X38202Y6207*
X38145Y61905*
X38101Y61735*
X38068Y61563*
X38047Y61389*
X38039Y61214*
X38043Y61039*
X38059Y60864*
X38087Y60691*
X38127Y60521*
X38179Y60353*
X38242Y6019*
X38317Y60031*
X38403Y59878*
X38499Y59732*
X38605Y59592*
X3872Y59461*
X38845Y59337*
X38978Y59223*
X39118Y59118*
X39265Y59023*
X39419Y58939*
X39578Y58865*
X39742Y58803*
X3991Y58753*
X40024Y58724*
X51874Y63974D02*
X57624D01*
Y53224D02*
Y63974D01*
X54874Y50474D02*
X57624Y53224D01*
X51874Y50474D02*
X54874D01*
X46874D02*
X49874D01*
X44124Y53224D02*
X46874Y50474D01*
X44124Y53224D02*
Y63974D01*
X49874*
X457Y35722D02*
Y42276D01*
X42398D02*
X457D01*
X42398Y35722D02*
Y42276D01*
Y35722D02*
X457D01*
X49984Y42909D02*
X53064D01*
X54064Y43909*
Y44209D02*
Y46689D01*
X53064Y47989D02*
X54064Y46989D01*
X49984Y47989D02*
X53064D01*
X48984Y46989D02*
X49984Y47989D01*
X48984Y44209D02*
Y46719D01*
Y43909D02*
X49984Y42909D01*
X52499Y22499D02*
X53299D01*
Y23099*
X52499Y25299D02*
X53299D01*
Y24699D02*
Y25299D01*
X57849Y14199D02*
Y25799D01*
X64049*
X64849*
Y14199D02*
Y25799D01*
X64049Y14199D02*
X64849D01*
X57849D02*
X64049D01*
Y25799*
X62599Y13799D02*
Y14199D01*
Y13799D02*
X63599D01*
Y14199*
X58099Y25799D02*
Y26199D01*
X59099*
Y25799D02*
Y26199D01*
X48195Y27718D02*
Y34778D01*
X60295Y27718D02*
Y34778D01*
X48195Y27718D02*
X60295D01*
X48195Y34778D02*
X60295D01*
X62968Y29752D02*
X6373D01*
X05024Y23304D02*
X18184D01*
X05024Y06974D02*
X18184D01*
Y23304*
X34574Y17274D02*
Y18574D01*
X27374D02*
X34574D01*
X27374Y17274D02*
Y18574D01*
Y07074D02*
Y17274D01*
Y05774D02*
Y07074D01*
Y05774D02*
X34574D01*
Y07074*
Y17274*
X43124Y21849D02*
X44174D01*
X41074D02*
X42074D01*
X43174Y16549D02*
X45274D01*
X39974D02*
X42074D01*
X45274D02*
Y20749D01*
X44174Y21849D02*
X45274Y20749D01*
X39974D02*
X41074Y21849D01*
X39974Y16549D02*
Y20749D01*
X60999Y30474D02*
Y30874D01*
Y32274*
X62399Y30474D02*
Y30874D01*
Y32274*
X60999Y30874D02*
X62399D01*
X57924Y51699D02*
Y58699D01*
X64124*
X64924*
Y51699D02*
Y58699D01*
X64124Y51699D02*
X64924D01*
X57924D02*
X64124D01*
Y58699*
X62674Y51299D02*
Y51699D01*
Y51299D02*
X63674D01*
Y51699*
X58174Y58699D02*
Y59099D01*
X59174*
Y58699D02*
Y59099D01*
X43174Y59624D02*
Y63824D01*
X42074Y58524D02*
X43174Y59624D01*
X37874D02*
X38974Y58524D01*
X37874Y59624D02*
Y63824D01*
X41074D02*
X43174D01*
X37874D02*
X39974D01*
X41074Y58524D02*
X42074D01*
X38974D02*
X40024D01*
X49574Y12899D02*
Y13299D01*
Y14699*
X50974Y12899D02*
Y13299D01*
Y14699*
X49574Y13299D02*
X50974D01*
X15496Y56593D02*
Y57355D01*
X59174Y44699D02*
Y45099D01*
X58174D02*
X59174D01*
X58174Y44699D02*
Y45099D01*
X63674Y37299D02*
Y37699D01*
X62674Y37299D02*
X63674D01*
X62674D02*
Y37699D01*
X64124D02*
Y44699D01*
X57924Y37699D02*
X64124D01*
X64924*
Y44699*
X64124D02*
X64924D01*
X57924D02*
X64124D01*
X57924Y37699D02*
Y44699D01*
Y51699D01*
X64124*
X64924*
Y44699D02*
Y51699D01*
X64124Y44699D02*
X64924D01*
X57924D02*
X64124D01*
Y51699*
X62674Y44299D02*
Y44699D01*
Y44299D02*
X63674D01*
Y44699*
X58174Y51699D02*
Y52099D01*
X59174*
Y51699D02*
Y52099D01*
X109674Y63774D02*
D01*
X109224Y63665*
X108783Y63525*
X108352Y63354*
X107935Y63153*
X107532Y62924*
X107147Y62667*
X10678Y62384*
X106434Y62076*
X10611Y61745*
X10581Y61392*
X105536Y61019*
X105288Y60627*
X105068Y6022*
X104877Y59798*
X104716Y59363*
X104585Y58919*
X104486Y58466*
X104419Y58008*
X104384Y57546*
X104381Y57083*
X104411Y5662*
X104473Y56161*
X104566Y55707*
X104691Y55261*
X104847Y54825*
X105033Y54401*
X105248Y53991*
X105491Y53596*
X105761Y5322*
X106057Y52863*
X106377Y52528*
X106719Y52216*
X107082Y51929*
X107465Y51667*
X107865Y51433*
X10828Y51228*
X108708Y51052*
X109148Y50906*
X109597Y50791*
X109674Y50774*
X112074Y50674D02*
D01*
X112528Y50785*
X112973Y50926*
X113407Y51099*
X113828Y51301*
X114233Y51532*
X114622Y5179*
X114991Y52075*
X11534Y52386*
X115666Y5272*
X115969Y53075*
X116245Y53451*
X116495Y53846*
X116717Y54257*
X116909Y54682*
X117071Y55119*
X117203Y55567*
X117303Y56023*
X11737Y56485*
X117406Y56951*
X117409Y57418*
X117379Y57883*
X117317Y58346*
X117222Y58803*
X117096Y59253*
X116939Y59692*
X116752Y6012*
X116535Y60533*
X11629Y60931*
X116018Y6131*
X11572Y61669*
X115398Y62007*
X115053Y62322*
X114687Y62611*
X114302Y62875*
X113899Y6311*
X113481Y63318*
X113049Y63495*
X112606Y63642*
X112153Y63758*
X112074Y63774*
X112794Y45449D02*
D01*
X112791Y45538*
X112782Y45626*
X112767Y45714*
X112745Y458*
X112718Y45884*
X112685Y45966*
X112646Y46046*
X112602Y46122*
X112552Y46196*
X112497Y46266*
X112438Y46332*
X112374Y46393*
X112306Y4645*
X112235Y46502*
X112159Y46549*
X112081Y46591*
X112Y46627*
X111917Y46657*
X111832Y46682*
X111745Y467*
X111657Y46713*
X111569Y46719*
X11148*
X111392Y46713*
X111304Y467*
X111217Y46682*
X111132Y46657*
X111049Y46627*
X110968Y46591*
X110889Y46549*
X110814Y46502*
X110743Y4645*
X110675Y46393*
X110611Y46332*
X110552Y46266*
X110497Y46196*
X110447Y46122*
X110403Y46046*
X110364Y45966*
X110331Y45884*
X110304Y458*
X110282Y45714*
X110267Y45626*
X110258Y45538*
X110254Y45449*
X110258Y45361*
X110267Y45273*
X110282Y45185*
X110304Y45099*
X110331Y45015*
X110364Y44933*
X110403Y44853*
X110447Y44776*
X110497Y44703*
X110552Y44633*
X110611Y44567*
X110675Y44506*
X110743Y44449*
X110814Y44397*
X110889Y4435*
X110968Y44308*
X111049Y44272*
X111132Y44242*
X111217Y44217*
X111304Y44199*
X111392Y44186*
X11148Y4418*
X111569*
X111657Y44186*
X111745Y44199*
X111832Y44217*
X111917Y44242*
X112Y44272*
X112081Y44308*
X112159Y4435*
X112235Y44397*
X112306Y44449*
X112374Y44506*
X112438Y44567*
X112497Y44633*
X112552Y44703*
X112602Y44776*
X112646Y44853*
X112685Y44933*
X112718Y45015*
X112745Y45099*
X112767Y45185*
X112782Y45273*
X112791Y45361*
X112794Y45449*
X103174Y16749D02*
D01*
X103344Y16796*
X103509Y16853*
X10367Y16922*
X103826Y17003*
X103976Y17094*
X104119Y17195*
X104255Y17306*
X104382Y17426*
X104501Y17554*
X104611Y17691*
X104711Y17835*
X1048Y17985*
X104879Y18142*
X104947Y18304*
X105004Y18469*
X105048Y18639*
X105081Y18811*
X105102Y18985*
X10511Y1916*
X105106Y19335*
X10509Y1951*
X105062Y19683*
X105022Y19853*
X10497Y20021*
X104907Y20184*
X104832Y20343*
X104746Y20496*
X10465Y20642*
X104544Y20782*
X104429Y20913*
X104304Y21037*
X104171Y21151*
X104031Y21256*
X103884Y21351*
X10373Y21435*
X103571Y21509*
X103407Y21571*
X103239Y21621*
X103124Y21649*
X102124Y21599D02*
D01*
X101956Y2156*
X101791Y2151*
X10163Y21448*
X101473Y21374*
X101322Y2129*
X101177Y21196*
X101039Y21092*
X100909Y20979*
X100787Y20856*
X100674Y20726*
X10057Y20588*
X100476Y20442*
X100392Y20291*
X100319Y20135*
X100258Y19973*
X100207Y19808*
X100168Y19639*
X100142Y19469*
X100127Y19296*
X100124Y19124*
X100133Y18951*
X100154Y1878*
X100188Y1861*
X100232Y18443*
X100289Y1828*
X100357Y18121*
X100435Y17967*
X100524Y17819*
X100624Y17677*
X100733Y17543*
X100851Y17417*
X100977Y17299*
X101111Y1719*
X101253Y17092*
X101401Y17003*
X101555Y16924*
X101715Y16857*
X101878Y16801*
X102045Y16756*
X102074Y16749*
X101024Y58774D02*
D01*
X101193Y58814*
X101358Y58864*
X101519Y58926*
X101676Y59*
X101827Y59083*
X101972Y59178*
X10211Y59282*
X10224Y59395*
X102362Y59518*
X102475Y59648*
X102579Y59786*
X102673Y59931*
X102757Y60083*
X10283Y60239*
X102891Y60401*
X102942Y60566*
X10298Y60735*
X103007Y60905*
X103022Y61078*
X103025Y6125*
X103016Y61423*
X102995Y61594*
X102961Y61764*
X102917Y61931*
X10286Y62094*
X102792Y62253*
X102714Y62407*
X102625Y62555*
X102525Y62697*
X102416Y62831*
X102298Y62957*
X102172Y63075*
X102037Y63183*
X101896Y63282*
X101748Y63371*
X101594Y6345*
X101434Y63517*
X101271Y63573*
X101104Y63618*
X101074Y63624*
X99974D02*
D01*
X99805Y63578*
X9964Y63521*
X99479Y63452*
X99323Y63371*
X99173Y6328*
X9903Y63179*
X98894Y63068*
X98767Y62948*
X98648Y6282*
X98538Y62683*
X98438Y62539*
X98349Y62389*
X9827Y62232*
X98202Y6207*
X98145Y61905*
X98101Y61735*
X98068Y61563*
X98047Y61389*
X98039Y61214*
X98043Y61039*
X98059Y60864*
X98087Y60691*
X98127Y60521*
X98179Y60353*
X98242Y6019*
X98317Y60031*
X98403Y59878*
X98499Y59732*
X98605Y59592*
X9872Y59461*
X98845Y59337*
X98978Y59223*
X99118Y59118*
X99265Y59023*
X99419Y58939*
X99578Y58865*
X99742Y58803*
X9991Y58753*
X100024Y58724*
X111874Y63974D02*
X117624D01*
Y53224D02*
Y63974D01*
X114874Y50474D02*
X117624Y53224D01*
X111874Y50474D02*
X114874D01*
X106874D02*
X109874D01*
X104124Y53224D02*
X106874Y50474D01*
X104124Y53224D02*
Y63974D01*
X109874*
X1057Y35722D02*
Y42276D01*
X102398D02*
X1057D01*
X102398Y35722D02*
Y42276D01*
Y35722D02*
X1057D01*
X109984Y42909D02*
X113064D01*
X114064Y43909*
Y44209D02*
Y46689D01*
X113064Y47989D02*
X114064Y46989D01*
X109984Y47989D02*
X113064D01*
X108984Y46989D02*
X109984Y47989D01*
X108984Y44209D02*
Y46719D01*
Y43909D02*
X109984Y42909D01*
X112499Y22499D02*
X113299D01*
Y23099*
X112499Y25299D02*
X113299D01*
Y24699D02*
Y25299D01*
X117849Y14199D02*
Y25799D01*
X124049*
X124849*
Y14199D02*
Y25799D01*
X124049Y14199D02*
X124849D01*
X117849D02*
X124049D01*
Y25799*
X122599Y13799D02*
Y14199D01*
Y13799D02*
X123599D01*
Y14199*
X118099Y25799D02*
Y26199D01*
X119099*
Y25799D02*
Y26199D01*
X108195Y27718D02*
Y34778D01*
X120295Y27718D02*
Y34778D01*
X108195Y27718D02*
X120295D01*
X108195Y34778D02*
X120295D01*
X122968Y29752D02*
X12373D01*
X65024Y23304D02*
X78184D01*
X65024Y06974D02*
X78184D01*
Y23304*
X94574Y17274D02*
Y18574D01*
X87374D02*
X94574D01*
X87374Y17274D02*
Y18574D01*
Y07074D02*
Y17274D01*
Y05774D02*
Y07074D01*
Y05774D02*
X94574D01*
Y07074*
Y17274*
X103124Y21849D02*
X104174D01*
X101074D02*
X102074D01*
X103174Y16549D02*
X105274D01*
X99974D02*
X102074D01*
X105274D02*
Y20749D01*
X104174Y21849D02*
X105274Y20749D01*
X99974D02*
X101074Y21849D01*
X99974Y16549D02*
Y20749D01*
X120999Y30474D02*
Y30874D01*
Y32274*
X122399Y30474D02*
Y30874D01*
Y32274*
X120999Y30874D02*
X122399D01*
X117924Y51699D02*
Y58699D01*
X124124*
X124924*
Y51699D02*
Y58699D01*
X124124Y51699D02*
X124924D01*
X117924D02*
X124124D01*
Y58699*
X122674Y51299D02*
Y51699D01*
Y51299D02*
X123674D01*
Y51699*
X118174Y58699D02*
Y59099D01*
X119174*
Y58699D02*
Y59099D01*
X103174Y59624D02*
Y63824D01*
X102074Y58524D02*
X103174Y59624D01*
X97874D02*
X98974Y58524D01*
X97874Y59624D02*
Y63824D01*
X101074D02*
X103174D01*
X97874D02*
X99974D01*
X101074Y58524D02*
X102074D01*
X98974D02*
X100024D01*
X109574Y12899D02*
Y13299D01*
Y14699*
X110974Y12899D02*
Y13299D01*
Y14699*
X109574Y13299D02*
X110974D01*
X75496Y56593D02*
Y57355D01*
X119174Y44699D02*
Y45099D01*
X118174D02*
X119174D01*
X118174Y44699D02*
Y45099D01*
X123674Y37299D02*
Y37699D01*
X122674Y37299D02*
X123674D01*
X122674D02*
Y37699D01*
X124124D02*
Y44699D01*
X117924Y37699D02*
X124124D01*
X124924*
Y44699*
X124124D02*
X124924D01*
X117924D02*
X124124D01*
X117924Y37699D02*
Y44699D01*
Y51699D01*
X124124*
X124924*
Y44699D02*
Y51699D01*
X124124Y44699D02*
X124924D01*
X117924D02*
X124124D01*
Y51699*
X122674Y44299D02*
Y44699D01*
Y44299D02*
X123674D01*
Y44699*
X118174Y51699D02*
Y52099D01*
X119174*
Y51699D02*
Y52099D01*
X49674Y123774D02*
D01*
X49224Y123665*
X48783Y123525*
X48352Y123354*
X47935Y123153*
X47532Y122924*
X47147Y122667*
X4678Y122384*
X46434Y122076*
X4611Y121745*
X4581Y121392*
X45536Y121019*
X45288Y120627*
X45068Y12022*
X44877Y119798*
X44716Y119363*
X44585Y118919*
X44486Y118466*
X44419Y118008*
X44384Y117546*
X44381Y117083*
X44411Y11662*
X44473Y116161*
X44566Y115707*
X44691Y115261*
X44847Y114825*
X45033Y114401*
X45248Y113991*
X45491Y113596*
X45761Y11322*
X46057Y112863*
X46377Y112528*
X46719Y112216*
X47082Y111929*
X47465Y111667*
X47865Y111433*
X4828Y111228*
X48708Y111052*
X49148Y110906*
X49597Y110791*
X49674Y110774*
X52074Y110674D02*
D01*
X52528Y110785*
X52973Y110926*
X53407Y111099*
X53828Y111301*
X54233Y111532*
X54622Y11179*
X54991Y112075*
X5534Y112386*
X55666Y11272*
X55969Y113075*
X56245Y113451*
X56495Y113846*
X56717Y114256*
X56909Y114682*
X57071Y115119*
X57203Y115567*
X57303Y116023*
X5737Y116485*
X57406Y116951*
X57409Y117418*
X57379Y117883*
X57317Y118346*
X57222Y118803*
X57096Y119253*
X56939Y119692*
X56752Y12012*
X56535Y120533*
X5629Y120931*
X56018Y12131*
X5572Y121669*
X55398Y122007*
X55053Y122322*
X54687Y122611*
X54302Y122875*
X53899Y12311*
X5348Y123318*
X53049Y123495*
X52606Y123642*
X52153Y123758*
X52074Y123774*
X52794Y105449D02*
D01*
X52791Y105538*
X52782Y105626*
X52767Y105714*
X52745Y1058*
X52718Y105884*
X52685Y105966*
X52646Y106046*
X52602Y106122*
X52552Y106196*
X52497Y106266*
X52438Y106332*
X52374Y106393*
X52306Y10645*
X52235Y106502*
X52159Y106549*
X52081Y106591*
X52Y106627*
X51917Y106657*
X51832Y106682*
X51745Y1067*
X51657Y106713*
X51569Y106719*
X5148*
X51392Y106713*
X51304Y1067*
X51217Y106682*
X51132Y106657*
X51049Y106627*
X50968Y106591*
X50889Y106549*
X50814Y106502*
X50743Y10645*
X50675Y106393*
X50611Y106332*
X50552Y106266*
X50497Y106196*
X50447Y106122*
X50403Y106046*
X50364Y105966*
X50331Y105884*
X50304Y1058*
X50282Y105714*
X50267Y105626*
X50258Y105538*
X50254Y105449*
X50258Y105361*
X50267Y105273*
X50282Y105185*
X50304Y105099*
X50331Y105015*
X50364Y104933*
X50403Y104853*
X50447Y104776*
X50497Y104703*
X50552Y104633*
X50611Y104567*
X50675Y104506*
X50743Y104449*
X50814Y104397*
X50889Y10435*
X50968Y104308*
X51049Y104272*
X51132Y104242*
X51217Y104217*
X51304Y104199*
X51392Y104186*
X5148Y10418*
X51569*
X51657Y104186*
X51745Y104199*
X51832Y104217*
X51917Y104242*
X52Y104272*
X52081Y104308*
X52159Y10435*
X52235Y104397*
X52306Y104449*
X52374Y104506*
X52438Y104567*
X52497Y104633*
X52552Y104703*
X52602Y104776*
X52646Y104853*
X52685Y104933*
X52718Y105015*
X52745Y105099*
X52767Y105185*
X52782Y105273*
X52791Y105361*
X52794Y105449*
X43174Y76749D02*
D01*
X43344Y76796*
X43509Y76853*
X4367Y76922*
X43826Y77003*
X43976Y77094*
X44119Y77195*
X44255Y77306*
X44382Y77426*
X44501Y77554*
X44611Y77691*
X44711Y77835*
X448Y77985*
X44879Y78142*
X44947Y78304*
X45004Y78469*
X45048Y78639*
X45081Y78811*
X45102Y78985*
X4511Y7916*
X45106Y79335*
X4509Y7951*
X45062Y79683*
X45022Y79853*
X4497Y80021*
X44907Y80184*
X44832Y80343*
X44746Y80496*
X4465Y80642*
X44544Y80782*
X44429Y80913*
X44304Y81037*
X44171Y81151*
X44031Y81256*
X43884Y81351*
X4373Y81435*
X43571Y81509*
X43407Y81571*
X43239Y81621*
X43124Y81649*
X42124Y81599D02*
D01*
X41956Y8156*
X41791Y8151*
X4163Y81448*
X41473Y81374*
X41322Y8129*
X41177Y81196*
X41039Y81092*
X40909Y80979*
X40787Y80856*
X40674Y80726*
X4057Y80588*
X40476Y80442*
X40392Y80291*
X40319Y80135*
X40258Y79973*
X40207Y79808*
X40168Y79639*
X40142Y79469*
X40127Y79296*
X40124Y79124*
X40133Y78951*
X40154Y7878*
X40188Y7861*
X40232Y78443*
X40289Y7828*
X40357Y78121*
X40435Y77967*
X40524Y77819*
X40624Y77677*
X40733Y77543*
X40851Y77417*
X40977Y77299*
X41111Y77191*
X41253Y77092*
X41401Y77003*
X41555Y76924*
X41715Y76857*
X41878Y76801*
X42045Y76756*
X42074Y76749*
X41024Y118774D02*
D01*
X41193Y118814*
X41358Y118864*
X41519Y118926*
X41676Y119*
X41827Y119083*
X41972Y119178*
X4211Y119282*
X4224Y119395*
X42362Y119518*
X42475Y119648*
X42579Y119786*
X42673Y119931*
X42757Y120083*
X4283Y120239*
X42891Y120401*
X42942Y120566*
X4298Y120735*
X43007Y120905*
X43022Y121078*
X43025Y12125*
X43016Y121423*
X42995Y121594*
X42961Y121764*
X42917Y121931*
X4286Y122094*
X42792Y122253*
X42714Y122407*
X42625Y122555*
X42525Y122697*
X42416Y122831*
X42298Y122957*
X42172Y123075*
X42037Y123183*
X41896Y123282*
X41748Y123371*
X41594Y12345*
X41434Y123517*
X41271Y123573*
X41104Y123618*
X41074Y123624*
X39974D02*
D01*
X39805Y123578*
X3964Y123521*
X39479Y123452*
X39323Y123371*
X39173Y12328*
X3903Y123179*
X38894Y123068*
X38767Y122948*
X38648Y12282*
X38538Y122683*
X38438Y122539*
X38348Y122389*
X3827Y122232*
X38202Y12207*
X38145Y121905*
X38101Y121735*
X38068Y121563*
X38047Y121389*
X38039Y121214*
X38043Y121039*
X38059Y120864*
X38087Y120691*
X38127Y120521*
X38179Y120353*
X38242Y12019*
X38317Y120031*
X38403Y119878*
X38499Y119732*
X38605Y119592*
X3872Y119461*
X38845Y119337*
X38978Y119223*
X39118Y119118*
X39265Y119023*
X39419Y118939*
X39578Y118865*
X39742Y118803*
X3991Y118753*
X40024Y118724*
X51874Y123974D02*
X57624D01*
Y113224D02*
Y123974D01*
X54874Y110474D02*
X57624Y113224D01*
X51874Y110474D02*
X54874D01*
X46874D02*
X49874D01*
X44124Y113224D02*
X46874Y110474D01*
X44124Y113224D02*
Y123974D01*
X49874*
X457Y95722D02*
Y102276D01*
X42398D02*
X457D01*
X42398Y95722D02*
Y102276D01*
Y95722D02*
X457D01*
X49984Y102909D02*
X53064D01*
X54064Y103909*
Y104209D02*
Y106689D01*
X53064Y107989D02*
X54064Y106989D01*
X49984Y107989D02*
X53064D01*
X48984Y106989D02*
X49984Y107989D01*
X48984Y104209D02*
Y106719D01*
Y103909D02*
X49984Y102909D01*
X52499Y82499D02*
X53299D01*
Y83099*
X52499Y85299D02*
X53299D01*
Y84699D02*
Y85299D01*
X57849Y74199D02*
Y85799D01*
X64049*
X64849*
Y74199D02*
Y85799D01*
X64049Y74199D02*
X64849D01*
X57849D02*
X64049D01*
Y85799*
X62599Y73799D02*
Y74199D01*
Y73799D02*
X63599D01*
Y74199*
X58099Y85799D02*
Y86199D01*
X59099*
Y85799D02*
Y86199D01*
X48195Y87718D02*
Y94778D01*
X60295Y87718D02*
Y94778D01*
X48195Y87718D02*
X60295D01*
X48195Y94778D02*
X60295D01*
X62968Y89752D02*
X6373D01*
X05024Y83304D02*
X18184D01*
X05024Y66974D02*
X18184D01*
Y83304*
X34574Y77274D02*
Y78574D01*
X27374D02*
X34574D01*
X27374Y77274D02*
Y78574D01*
Y67074D02*
Y77274D01*
Y65774D02*
Y67074D01*
Y65774D02*
X34574D01*
Y67074*
Y77274*
X43124Y81849D02*
X44174D01*
X41074D02*
X42074D01*
X43174Y76549D02*
X45274D01*
X39974D02*
X42074D01*
X45274D02*
Y80749D01*
X44174Y81849D02*
X45274Y80749D01*
X39974D02*
X41074Y81849D01*
X39974Y76549D02*
Y80749D01*
X60999Y90474D02*
Y90874D01*
Y92274*
X62399Y90474D02*
Y90874D01*
Y92274*
X60999Y90874D02*
X62399D01*
X57924Y111699D02*
Y118699D01*
X64124*
X64924*
Y111699D02*
Y118699D01*
X64124Y111699D02*
X64924D01*
X57924D02*
X64124D01*
Y118699*
X62674Y111299D02*
Y111699D01*
Y111299D02*
X63674D01*
Y111699*
X58174Y118699D02*
Y119099D01*
X59174*
Y118699D02*
Y119099D01*
X43174Y119624D02*
Y123824D01*
X42074Y118524D02*
X43174Y119624D01*
X37874D02*
X38974Y118524D01*
X37874Y119624D02*
Y123824D01*
X41074D02*
X43174D01*
X37874D02*
X39974D01*
X41074Y118524D02*
X42074D01*
X38974D02*
X40024D01*
X49574Y72899D02*
Y73299D01*
Y74699*
X50974Y72899D02*
Y73299D01*
Y74699*
X49574Y73299D02*
X50974D01*
X15496Y116593D02*
Y117355D01*
X59174Y104699D02*
Y105099D01*
X58174D02*
X59174D01*
X58174Y104699D02*
Y105099D01*
X63674Y97299D02*
Y97699D01*
X62674Y97299D02*
X63674D01*
X62674D02*
Y97699D01*
X64124D02*
Y104699D01*
X57924Y97699D02*
X64124D01*
X64924*
Y104699*
X64124D02*
X64924D01*
X57924D02*
X64124D01*
X57924Y97699D02*
Y104699D01*
Y111699D01*
X64124*
X64924*
Y104699D02*
Y111699D01*
X64124Y104699D02*
X64924D01*
X57924D02*
X64124D01*
Y111699*
X62674Y104299D02*
Y104699D01*
Y104299D02*
X63674D01*
Y104699*
X58174Y111699D02*
Y112099D01*
X59174*
Y111699D02*
Y112099D01*
X109674Y123774D02*
D01*
X109224Y123665*
X108783Y123525*
X108352Y123354*
X107935Y123153*
X107532Y122924*
X107147Y122667*
X10678Y122384*
X106434Y122076*
X10611Y121745*
X10581Y121392*
X105536Y121019*
X105288Y120627*
X105068Y12022*
X104877Y119798*
X104716Y119363*
X104585Y118919*
X104486Y118466*
X104419Y118008*
X104384Y117546*
X104381Y117083*
X104411Y11662*
X104473Y116161*
X104566Y115707*
X104691Y115261*
X104847Y114825*
X105033Y114401*
X105248Y113991*
X105491Y113596*
X105761Y11322*
X106057Y112863*
X106377Y112528*
X106719Y112216*
X107082Y111929*
X107465Y111667*
X107865Y111433*
X10828Y111228*
X108708Y111052*
X109148Y110906*
X109597Y110791*
X109674Y110774*
X112074Y110674D02*
D01*
X112528Y110785*
X112973Y110926*
X113407Y111099*
X113828Y111301*
X114233Y111532*
X114622Y11179*
X114991Y112075*
X11534Y112386*
X115666Y11272*
X115969Y113075*
X116245Y113451*
X116495Y113846*
X116717Y114256*
X116909Y114682*
X117071Y115119*
X117203Y115567*
X117303Y116023*
X11737Y116485*
X117406Y116951*
X117409Y117418*
X117379Y117883*
X117317Y118346*
X117222Y118803*
X117096Y119253*
X116939Y119692*
X116752Y12012*
X116535Y120533*
X11629Y120931*
X116018Y12131*
X11572Y121669*
X115398Y122007*
X115053Y122322*
X114687Y122611*
X114302Y122875*
X113899Y12311*
X113481Y123318*
X113049Y123495*
X112606Y123642*
X112153Y123758*
X112074Y123774*
X112794Y105449D02*
D01*
X112791Y105538*
X112782Y105626*
X112767Y105714*
X112745Y1058*
X112718Y105884*
X112685Y105966*
X112646Y106046*
X112602Y106122*
X112552Y106196*
X112497Y106266*
X112438Y106332*
X112374Y106393*
X112306Y10645*
X112235Y106502*
X112159Y106549*
X112081Y106591*
X112Y106627*
X111917Y106657*
X111832Y106682*
X111745Y1067*
X111657Y106713*
X111569Y106719*
X11148*
X111392Y106713*
X111304Y1067*
X111217Y106682*
X111132Y106657*
X111049Y106627*
X110968Y106591*
X110889Y106549*
X110814Y106502*
X110743Y10645*
X110675Y106393*
X110611Y106332*
X110552Y106266*
X110497Y106196*
X110447Y106122*
X110403Y106046*
X110364Y105966*
X110331Y105884*
X110304Y1058*
X110282Y105714*
X110267Y105626*
X110258Y105538*
X110254Y105449*
X110258Y105361*
X110267Y105273*
X110282Y105185*
X110304Y105099*
X110331Y105015*
X110364Y104933*
X110403Y104853*
X110447Y104776*
X110497Y104703*
X110552Y104633*
X110611Y104567*
X110675Y104506*
X110743Y104449*
X110814Y104397*
X110889Y10435*
X110968Y104308*
X111049Y104272*
X111132Y104242*
X111217Y104217*
X111304Y104199*
X111392Y104186*
X11148Y10418*
X111569*
X111657Y104186*
X111745Y104199*
X111832Y104217*
X111917Y104242*
X112Y104272*
X112081Y104308*
X112159Y10435*
X112235Y104397*
X112306Y104449*
X112374Y104506*
X112438Y104567*
X112497Y104633*
X112552Y104703*
X112602Y104776*
X112646Y104853*
X112685Y104933*
X112718Y105015*
X112745Y105099*
X112767Y105185*
X112782Y105273*
X112791Y105361*
X112794Y105449*
X103174Y76749D02*
D01*
X103344Y76796*
X103509Y76853*
X10367Y76922*
X103826Y77003*
X103976Y77094*
X104119Y77195*
X104255Y77306*
X104382Y77426*
X104501Y77554*
X104611Y77691*
X104711Y77835*
X1048Y77985*
X104879Y78142*
X104947Y78304*
X105004Y78469*
X105048Y78639*
X105081Y78811*
X105102Y78985*
X10511Y7916*
X105106Y79335*
X10509Y7951*
X105062Y79683*
X105022Y79853*
X10497Y80021*
X104907Y80184*
X104832Y80343*
X104746Y80496*
X10465Y80642*
X104544Y80782*
X104429Y80913*
X104304Y81037*
X104171Y81151*
X104031Y81256*
X103884Y81351*
X10373Y81435*
X103571Y81509*
X103407Y81571*
X103239Y81621*
X103124Y81649*
X102124Y81599D02*
D01*
X101956Y8156*
X101791Y8151*
X10163Y81448*
X101473Y81374*
X101322Y8129*
X101177Y81196*
X101039Y81092*
X100909Y80979*
X100787Y80856*
X100674Y80726*
X10057Y80588*
X100476Y80442*
X100392Y80291*
X100319Y80135*
X100258Y79973*
X100207Y79808*
X100168Y79639*
X100142Y79469*
X100127Y79296*
X100124Y79124*
X100133Y78951*
X100154Y7878*
X100188Y7861*
X100232Y78443*
X100289Y7828*
X100357Y78121*
X100435Y77967*
X100524Y77819*
X100624Y77677*
X100733Y77543*
X100851Y77417*
X100977Y77299*
X101111Y77191*
X101253Y77092*
X101401Y77003*
X101555Y76924*
X101715Y76857*
X101878Y76801*
X102045Y76756*
X102074Y76749*
X101024Y118774D02*
D01*
X101193Y118814*
X101358Y118864*
X101519Y118926*
X101676Y119*
X101827Y119083*
X101972Y119178*
X10211Y119282*
X10224Y119395*
X102362Y119518*
X102475Y119648*
X102579Y119786*
X102673Y119931*
X102757Y120083*
X10283Y120239*
X102891Y120401*
X102942Y120566*
X10298Y120735*
X103007Y120905*
X103022Y121078*
X103025Y12125*
X103016Y121423*
X102995Y121594*
X102961Y121764*
X102917Y121931*
X10286Y122094*
X102792Y122253*
X102714Y122407*
X102625Y122555*
X102525Y122697*
X102416Y122831*
X102298Y122957*
X102172Y123075*
X102037Y123183*
X101896Y123282*
X101748Y123371*
X101594Y12345*
X101434Y123517*
X101271Y123573*
X101104Y123618*
X101074Y123624*
X99974D02*
D01*
X99805Y123578*
X9964Y123521*
X99479Y123452*
X99323Y123371*
X99173Y12328*
X9903Y123179*
X98894Y123068*
X98767Y122948*
X98648Y12282*
X98538Y122683*
X98438Y122539*
X98349Y122389*
X9827Y122232*
X98202Y12207*
X98145Y121905*
X98101Y121735*
X98068Y121563*
X98047Y121389*
X98039Y121214*
X98043Y121039*
X98059Y120864*
X98087Y120691*
X98127Y120521*
X98179Y120353*
X98242Y12019*
X98317Y120031*
X98403Y119878*
X98499Y119732*
X98605Y119592*
X9872Y119461*
X98845Y119337*
X98978Y119223*
X99118Y119118*
X99265Y119023*
X99419Y118939*
X99578Y118865*
X99742Y118803*
X9991Y118753*
X100024Y118724*
X111874Y123974D02*
X117624D01*
Y113224D02*
Y123974D01*
X114874Y110474D02*
X117624Y113224D01*
X111874Y110474D02*
X114874D01*
X106874D02*
X109874D01*
X104124Y113224D02*
X106874Y110474D01*
X104124Y113224D02*
Y123974D01*
X109874*
X1057Y95722D02*
Y102276D01*
X102398D02*
X1057D01*
X102398Y95722D02*
Y102276D01*
Y95722D02*
X1057D01*
X109984Y102909D02*
X113064D01*
X114064Y103909*
Y104209D02*
Y106689D01*
X113064Y107989D02*
X114064Y106989D01*
X109984Y107989D02*
X113064D01*
X108984Y106989D02*
X109984Y107989D01*
X108984Y104209D02*
Y106719D01*
Y103909D02*
X109984Y102909D01*
X112499Y82499D02*
X113299D01*
Y83099*
X112499Y85299D02*
X113299D01*
Y84699D02*
Y85299D01*
X117849Y74199D02*
Y85799D01*
X124049*
X124849*
Y74199D02*
Y85799D01*
X124049Y74199D02*
X124849D01*
X117849D02*
X124049D01*
Y85799*
X122599Y73799D02*
Y74199D01*
Y73799D02*
X123599D01*
Y74199*
X118099Y85799D02*
Y86199D01*
X119099*
Y85799D02*
Y86199D01*
X108195Y87718D02*
Y94778D01*
X120295Y87718D02*
Y94778D01*
X108195Y87718D02*
X120295D01*
X108195Y94778D02*
X120295D01*
X122968Y89752D02*
X12373D01*
X65024Y83304D02*
X78184D01*
X65024Y66974D02*
X78184D01*
Y83304*
X94574Y77274D02*
Y78574D01*
X87374D02*
X94574D01*
X87374Y77274D02*
Y78574D01*
Y67074D02*
Y77274D01*
Y65774D02*
Y67074D01*
Y65774D02*
X94574D01*
Y67074*
Y77274*
X103124Y81849D02*
X104174D01*
X101074D02*
X102074D01*
X103174Y76549D02*
X105274D01*
X99974D02*
X102074D01*
X105274D02*
Y80749D01*
X104174Y81849D02*
X105274Y80749D01*
X99974D02*
X101074Y81849D01*
X99974Y76549D02*
Y80749D01*
X120999Y90474D02*
Y90874D01*
Y92274*
X122399Y90474D02*
Y90874D01*
Y92274*
X120999Y90874D02*
X122399D01*
X117924Y111699D02*
Y118699D01*
X124124*
X124924*
Y111699D02*
Y118699D01*
X124124Y111699D02*
X124924D01*
X117924D02*
X124124D01*
Y118699*
X122674Y111299D02*
Y111699D01*
Y111299D02*
X123674D01*
Y111699*
X118174Y118699D02*
Y119099D01*
X119174*
Y118699D02*
Y119099D01*
X103174Y119624D02*
Y123824D01*
X102074Y118524D02*
X103174Y119624D01*
X97874D02*
X98974Y118524D01*
X97874Y119624D02*
Y123824D01*
X101074D02*
X103174D01*
X97874D02*
X99974D01*
X101074Y118524D02*
X102074D01*
X98974D02*
X100024D01*
X109574Y72899D02*
Y73299D01*
Y74699*
X110974Y72899D02*
Y73299D01*
Y74699*
X109574Y73299D02*
X110974D01*
X75496Y116593D02*
Y117355D01*
X119174Y104699D02*
Y105099D01*
X118174D02*
X119174D01*
X118174Y104699D02*
Y105099D01*
X123674Y97299D02*
Y97699D01*
X122674Y97299D02*
X123674D01*
X122674D02*
Y97699D01*
X124124D02*
Y104699D01*
X117924Y97699D02*
X124124D01*
X124924*
Y104699*
X124124D02*
X124924D01*
X117924D02*
X124124D01*
X117924Y97699D02*
Y104699D01*
Y111699D01*
X124124*
X124924*
Y104699D02*
Y111699D01*
X124124Y104699D02*
X124924D01*
X117924D02*
X124124D01*
Y111699*
X122674Y104299D02*
Y104699D01*
Y104299D02*
X123674D01*
Y104699*
X118174Y111699D02*
Y112099D01*
X119174*
Y111699D02*
Y112099D01*
G54D99*
X33832Y06777D02*
D01*
X33832Y068*
X33829Y06822*
X33826Y06843*
X3382Y06865*
X33813Y06886*
X33805Y06906*
X33795Y06926*
X33784Y06945*
X33772Y06964*
X33758Y06981*
X33744Y06998*
X33728Y07013*
X33711Y07027*
X33693Y0704*
X33674Y07052*
X33654Y07062*
X33634Y07071*
X33613Y07079*
X33592Y07085*
X33571Y0709*
X33549Y07093*
X33527Y07094*
X33504*
X33482Y07093*
X3346Y0709*
X33439Y07085*
X33418Y07079*
X33397Y07071*
X33377Y07062*
X33357Y07052*
X33338Y0704*
X3332Y07027*
X33303Y07013*
X33287Y06998*
X33273Y06981*
X33259Y06964*
X33247Y06945*
X33236Y06926*
X33226Y06906*
X33218Y06886*
X33211Y06865*
X33205Y06843*
X33202Y06822*
X33199Y068*
X33198Y06777*
X33199Y06755*
X33202Y06733*
X33205Y06712*
X33211Y0669*
X33218Y06669*
X33226Y06649*
X33236Y06629*
X33247Y06609*
X33259Y06591*
X33273Y06574*
X33287Y06557*
X33303Y06542*
X3332Y06528*
X33338Y06515*
X33357Y06503*
X33377Y06493*
X33397Y06484*
X33418Y06476*
X33439Y0647*
X3346Y06465*
X33482Y06462*
X33504Y06461*
X33527*
X33549Y06462*
X33571Y06465*
X33592Y0647*
X33613Y06476*
X33634Y06484*
X33654Y06493*
X33674Y06503*
X33693Y06515*
X33711Y06528*
X33728Y06542*
X33744Y06557*
X33758Y06574*
X33772Y06591*
X33784Y06609*
X33795Y06629*
X33805Y06649*
X33813Y06669*
X3382Y0669*
X33826Y06712*
X33829Y06733*
X33832Y06755*
X33832Y06777*
X93832D02*
D01*
X93832Y068*
X93829Y06822*
X93826Y06843*
X9382Y06865*
X93813Y06886*
X93805Y06906*
X93795Y06926*
X93784Y06945*
X93772Y06964*
X93758Y06981*
X93744Y06998*
X93728Y07013*
X93711Y07027*
X93693Y0704*
X93674Y07052*
X93654Y07062*
X93634Y07071*
X93613Y07079*
X93592Y07085*
X93571Y0709*
X93549Y07093*
X93527Y07094*
X93504*
X93482Y07093*
X9346Y0709*
X93439Y07085*
X93418Y07079*
X93397Y07071*
X93377Y07062*
X93357Y07052*
X93338Y0704*
X9332Y07027*
X93303Y07013*
X93287Y06998*
X93273Y06981*
X93259Y06964*
X93247Y06945*
X93236Y06926*
X93226Y06906*
X93218Y06886*
X93211Y06865*
X93205Y06843*
X93202Y06822*
X93199Y068*
X93198Y06777*
X93199Y06755*
X93202Y06733*
X93205Y06712*
X93211Y0669*
X93218Y06669*
X93226Y06649*
X93236Y06629*
X93247Y06609*
X93259Y06591*
X93273Y06574*
X93287Y06557*
X93303Y06542*
X9332Y06528*
X93338Y06515*
X93357Y06503*
X93377Y06493*
X93397Y06484*
X93418Y06476*
X93439Y0647*
X9346Y06465*
X93482Y06462*
X93504Y06461*
X93527*
X93549Y06462*
X93571Y06465*
X93592Y0647*
X93613Y06476*
X93634Y06484*
X93654Y06493*
X93674Y06503*
X93693Y06515*
X93711Y06528*
X93728Y06542*
X93744Y06557*
X93758Y06574*
X93772Y06591*
X93784Y06609*
X93795Y06629*
X93805Y06649*
X93813Y06669*
X9382Y0669*
X93826Y06712*
X93829Y06733*
X93832Y06755*
X93832Y06777*
X33832Y66776D02*
D01*
X33832Y66799*
X33829Y66821*
X33826Y66842*
X3382Y66864*
X33813Y66885*
X33805Y66905*
X33795Y66925*
X33784Y66944*
X33772Y66963*
X33758Y6698*
X33744Y66997*
X33728Y67012*
X33711Y67026*
X33693Y67039*
X33674Y67051*
X33654Y67061*
X33634Y6707*
X33613Y67078*
X33592Y67084*
X33571Y67089*
X33549Y67092*
X33527Y67093*
X33504*
X33482Y67092*
X3346Y67089*
X33439Y67084*
X33418Y67078*
X33397Y6707*
X33377Y67061*
X33357Y67051*
X33338Y67039*
X3332Y67026*
X33303Y67012*
X33287Y66997*
X33273Y6698*
X33259Y66963*
X33247Y66944*
X33236Y66925*
X33226Y66905*
X33218Y66885*
X33211Y66864*
X33205Y66842*
X33202Y66821*
X33199Y66799*
X33198Y66776*
X33199Y66754*
X33202Y66732*
X33205Y66711*
X33211Y66689*
X33218Y66668*
X33226Y66648*
X33236Y66628*
X33247Y66609*
X33259Y6659*
X33273Y66573*
X33287Y66556*
X33303Y66541*
X3332Y66527*
X33338Y66514*
X33357Y66502*
X33377Y66492*
X33397Y66483*
X33418Y66475*
X33439Y66469*
X3346Y66464*
X33482Y66461*
X33504Y6646*
X33527*
X33549Y66461*
X33571Y66464*
X33592Y66469*
X33613Y66475*
X33634Y66483*
X33654Y66492*
X33674Y66502*
X33693Y66514*
X33711Y66527*
X33728Y66541*
X33744Y66556*
X33758Y66573*
X33772Y6659*
X33784Y66609*
X33795Y66628*
X33805Y66648*
X33813Y66668*
X3382Y66689*
X33826Y66711*
X33829Y66732*
X33832Y66754*
X33832Y66776*
X93832D02*
D01*
X93832Y66799*
X93829Y66821*
X93826Y66842*
X9382Y66864*
X93813Y66885*
X93805Y66905*
X93795Y66925*
X93784Y66944*
X93772Y66963*
X93758Y6698*
X93744Y66997*
X93728Y67012*
X93711Y67026*
X93693Y67039*
X93674Y67051*
X93654Y67061*
X93634Y6707*
X93613Y67078*
X93592Y67084*
X93571Y67089*
X93549Y67092*
X93527Y67093*
X93504*
X93482Y67092*
X9346Y67089*
X93439Y67084*
X93418Y67078*
X93397Y6707*
X93377Y67061*
X93357Y67051*
X93338Y67039*
X9332Y67026*
X93303Y67012*
X93287Y66997*
X93273Y6698*
X93259Y66963*
X93247Y66944*
X93236Y66925*
X93226Y66905*
X93218Y66885*
X93211Y66864*
X93205Y66842*
X93202Y66821*
X93199Y66799*
X93198Y66776*
X93199Y66754*
X93202Y66732*
X93205Y66711*
X93211Y66689*
X93218Y66668*
X93226Y66648*
X93236Y66628*
X93247Y66609*
X93259Y6659*
X93273Y66573*
X93287Y66556*
X93303Y66541*
X9332Y66527*
X93338Y66514*
X93357Y66502*
X93377Y66492*
X93397Y66483*
X93418Y66475*
X93439Y66469*
X9346Y66464*
X93482Y66461*
X93504Y6646*
X93527*
X93549Y66461*
X93571Y66464*
X93592Y66469*
X93613Y66475*
X93634Y66483*
X93654Y66492*
X93674Y66502*
X93693Y66514*
X93711Y66527*
X93728Y66541*
X93744Y66556*
X93758Y66573*
X93772Y6659*
X93784Y66609*
X93795Y66628*
X93805Y66648*
X93813Y66668*
X9382Y66689*
X93826Y66711*
X93829Y66732*
X93832Y66754*
X93832Y66776*
G54D100*
X16795Y35203D02*
D01*
X16797Y3519*
X16799Y35177*
X16802Y35165*
X16806Y35152*
X16811Y3514*
X16817Y35128*
X16824Y35117*
X16831Y35106*
X16839Y35095*
X16848Y35086*
X16857Y35077*
X16867Y35068*
X16878Y3506*
X16889Y35053*
X16901Y35047*
X16913Y35042*
X16925Y35037*
X16938Y35034*
X16951Y35031*
X16964Y35029*
X16977Y35028*
X1699*
X17003Y35029*
X17016Y35031*
X17029Y35034*
X17042Y35037*
X17054Y35042*
X17066Y35047*
X17078Y35053*
X17089Y3506*
X17099Y35068*
X17109Y35076*
X17119Y35085*
X17128Y35095*
X17136Y35106*
X17143Y35116*
X1715Y35128*
X17156Y3514*
X17161Y35152*
X17165Y35164*
X17168Y35177*
X1717Y3519*
X17171Y35203*
X1717Y35203*
X16795D02*
D01*
X16794Y35217*
X16792Y3523*
X16789Y35242*
X16785Y35255*
X1678Y35267*
X16774Y35279*
X16767Y3529*
X1676Y35301*
X16752Y35312*
X16743Y35321*
X16734Y3533*
X16724Y35339*
X16713Y35347*
X16702Y35354*
X1669Y3536*
X16678Y35365*
X16666Y3537*
X16653Y35373*
X1664Y35376*
X16627Y35378*
X16614Y35379*
X16601Y35379*
X16588Y35378*
X16575Y35376*
X16562Y35373*
X16549Y3537*
X16537Y35365*
X16525Y3536*
X16513Y35354*
X16502Y35347*
X16492Y35339*
X16482Y35331*
X16472Y35322*
X16463Y35312*
X16455Y35301*
X16448Y3529*
X16441Y35279*
X16435Y35267*
X1643Y35255*
X16426Y35243*
X16423Y3523*
X16421Y35217*
X1642Y35204*
X1642Y35203*
X19295D02*
D01*
X19294Y35217*
X19292Y3523*
X19289Y35242*
X19285Y35255*
X1928Y35267*
X19274Y35279*
X19267Y3529*
X1926Y35301*
X19252Y35312*
X19243Y35321*
X19234Y3533*
X19224Y35339*
X19213Y35347*
X19202Y35354*
X1919Y3536*
X19178Y35365*
X19166Y3537*
X19153Y35373*
X1914Y35376*
X19127Y35378*
X19114Y35379*
X19101Y35379*
X19088Y35378*
X19075Y35376*
X19062Y35373*
X19049Y3537*
X19037Y35365*
X19025Y3536*
X19013Y35354*
X19002Y35347*
X18992Y35339*
X18982Y35331*
X18972Y35322*
X18963Y35312*
X18955Y35301*
X18948Y3529*
X18941Y35279*
X18935Y35267*
X1893Y35255*
X18926Y35243*
X18923Y3523*
X18921Y35217*
X1892Y35204*
X1892Y35203*
X19295D02*
D01*
X19297Y3519*
X19299Y35177*
X19302Y35165*
X19306Y35152*
X19311Y3514*
X19317Y35128*
X19324Y35117*
X19331Y35106*
X19339Y35095*
X19348Y35086*
X19357Y35077*
X19367Y35068*
X19378Y3506*
X19389Y35053*
X19401Y35047*
X19413Y35042*
X19425Y35037*
X19438Y35034*
X19451Y35031*
X19464Y35029*
X19477Y35028*
X1949*
X19503Y35029*
X19516Y35031*
X19529Y35034*
X19542Y35037*
X19554Y35042*
X19566Y35047*
X19578Y35053*
X19589Y3506*
X19599Y35068*
X19609Y35076*
X19619Y35085*
X19628Y35095*
X19636Y35106*
X19643Y35116*
X1965Y35128*
X19656Y3514*
X19661Y35152*
X19665Y35164*
X19668Y35177*
X1967Y3519*
X19671Y35203*
X1967Y35203*
X13595Y35228D02*
D01*
X13597Y35215*
X13599Y35202*
X13602Y3519*
X13606Y35177*
X13611Y35165*
X13617Y35153*
X13624Y35142*
X13631Y35131*
X13639Y3512*
X13648Y35111*
X13657Y35102*
X13667Y35093*
X13678Y35085*
X13689Y35078*
X13701Y35072*
X13713Y35067*
X13725Y35062*
X13738Y35059*
X13751Y35056*
X13764Y35054*
X13777Y35053*
X1379*
X13803Y35054*
X13816Y35056*
X13829Y35059*
X13842Y35062*
X13854Y35067*
X13866Y35072*
X13878Y35078*
X13889Y35085*
X13899Y35093*
X13909Y35101*
X13919Y3511*
X13928Y3512*
X13936Y35131*
X13943Y35141*
X1395Y35153*
X13956Y35165*
X13961Y35177*
X13965Y35189*
X13968Y35202*
X1397Y35215*
X13971Y35228*
X1397Y35228*
X13595D02*
D01*
X13594Y35242*
X13592Y35255*
X13589Y35267*
X13585Y3528*
X1358Y35292*
X13574Y35304*
X13567Y35315*
X1356Y35326*
X13552Y35337*
X13543Y35346*
X13534Y35355*
X13524Y35364*
X13513Y35372*
X13502Y35379*
X1349Y35385*
X13478Y3539*
X13466Y35395*
X13453Y35398*
X1344Y35401*
X13427Y35403*
X13414Y35404*
X13401*
X13388Y35403*
X13375Y35401*
X13362Y35398*
X13349Y35395*
X13337Y3539*
X13325Y35385*
X13313Y35379*
X13302Y35372*
X13292Y35364*
X13281Y35356*
X13272Y35346*
X13263Y35337*
X13255Y35326*
X13248Y35315*
X13241Y35304*
X13235Y35292*
X1323Y3528*
X13226Y35268*
X13223Y35255*
X13221Y35242*
X1322Y35229*
X1322Y35228*
X11095D02*
D01*
X11094Y35242*
X11092Y35255*
X11089Y35267*
X11085Y3528*
X1108Y35292*
X11074Y35304*
X11067Y35315*
X1106Y35326*
X11052Y35337*
X11043Y35346*
X11034Y35355*
X11024Y35364*
X11013Y35372*
X11002Y35379*
X1099Y35385*
X10978Y3539*
X10966Y35395*
X10953Y35398*
X1094Y35401*
X10927Y35403*
X10914Y35404*
X10901*
X10888Y35403*
X10875Y35401*
X10862Y35398*
X10849Y35395*
X10837Y3539*
X10825Y35385*
X10813Y35379*
X10802Y35372*
X10792Y35364*
X10781Y35356*
X10772Y35346*
X10763Y35337*
X10755Y35326*
X10748Y35315*
X10741Y35304*
X10735Y35292*
X1073Y3528*
X10726Y35268*
X10723Y35255*
X10721Y35242*
X1072Y35229*
X1072Y35228*
X11095D02*
D01*
X11097Y35215*
X11099Y35202*
X11102Y3519*
X11106Y35177*
X11111Y35165*
X11117Y35153*
X11124Y35142*
X11131Y35131*
X11139Y3512*
X11148Y35111*
X11157Y35102*
X11167Y35093*
X11178Y35085*
X11189Y35078*
X11201Y35072*
X11213Y35067*
X11225Y35062*
X11238Y35059*
X11251Y35056*
X11264Y35054*
X11277Y35053*
X1129*
X11303Y35054*
X11316Y35056*
X11329Y35059*
X11342Y35062*
X11354Y35067*
X11366Y35072*
X11378Y35078*
X11389Y35085*
X11399Y35093*
X11409Y35101*
X11419Y3511*
X11428Y3512*
X11436Y35131*
X11443Y35141*
X1145Y35153*
X11456Y35165*
X11461Y35177*
X11465Y35189*
X11468Y35202*
X1147Y35215*
X11471Y35228*
X1147Y35228*
X57624Y53224D02*
Y63974D01*
X54874Y50474D02*
X57624Y53224D01*
X44124D02*
X46874Y50474D01*
X44124Y53224D02*
Y63974D01*
X63044Y30666D02*
Y31682D01*
X63704Y30666D02*
Y31682D01*
X16505Y37628D02*
X17055D01*
X1932Y37353D02*
Y37878D01*
X19045Y37628D02*
X19595D01*
X45274Y16549D02*
Y20749D01*
X44174Y21849D02*
X45274Y20749D01*
X39974D02*
X41074Y21849D01*
X39974Y16549D02*
Y20749D01*
X33349Y29924D02*
X33649D01*
X26599Y29624D02*
Y29924D01*
X33349Y22874D02*
X33655D01*
X33649Y29624D02*
Y29924D01*
X33655Y22874D02*
Y23174D01*
X26599Y29924D02*
X26899D01*
X09175Y41738D02*
X13015D01*
X09175D02*
Y46218D01*
X13015*
Y41738D02*
Y46218D01*
X43174Y59624D02*
Y63824D01*
X42074Y58524D02*
X43174Y59624D01*
X37874D02*
X38974Y58524D01*
X37874Y59624D02*
Y63824D01*
X13345Y37653D02*
X13895D01*
X1362Y37378D02*
Y37903D01*
X10805Y37653D02*
X11355D01*
X13566Y57329D02*
X14582D01*
X13566Y56669D02*
X14582D01*
X76795Y35203D02*
D01*
X76797Y3519*
X76799Y35177*
X76802Y35165*
X76806Y35152*
X76811Y3514*
X76817Y35128*
X76824Y35117*
X76831Y35106*
X76839Y35095*
X76848Y35086*
X76857Y35077*
X76867Y35068*
X76878Y3506*
X76889Y35053*
X76901Y35047*
X76913Y35042*
X76925Y35037*
X76938Y35034*
X76951Y35031*
X76964Y35029*
X76977Y35028*
X7699*
X77003Y35029*
X77016Y35031*
X77029Y35034*
X77042Y35037*
X77054Y35042*
X77066Y35047*
X77078Y35053*
X77089Y3506*
X77099Y35068*
X77109Y35076*
X77119Y35085*
X77128Y35095*
X77136Y35106*
X77143Y35116*
X7715Y35128*
X77156Y3514*
X77161Y35152*
X77165Y35164*
X77168Y35177*
X7717Y3519*
X77171Y35203*
X7717Y35203*
X76795D02*
D01*
X76794Y35217*
X76792Y3523*
X76789Y35242*
X76785Y35255*
X7678Y35267*
X76774Y35279*
X76767Y3529*
X7676Y35301*
X76752Y35312*
X76743Y35321*
X76734Y3533*
X76724Y35339*
X76713Y35347*
X76702Y35354*
X7669Y3536*
X76678Y35365*
X76666Y3537*
X76653Y35373*
X7664Y35376*
X76627Y35378*
X76614Y35379*
X76601Y35379*
X76588Y35378*
X76575Y35376*
X76562Y35373*
X76549Y3537*
X76537Y35365*
X76525Y3536*
X76513Y35354*
X76502Y35347*
X76492Y35339*
X76481Y35331*
X76472Y35322*
X76463Y35312*
X76455Y35301*
X76448Y3529*
X76441Y35279*
X76435Y35267*
X7643Y35255*
X76426Y35243*
X76423Y3523*
X76421Y35217*
X7642Y35204*
X7642Y35203*
X79295D02*
D01*
X79294Y35217*
X79292Y3523*
X79289Y35242*
X79285Y35255*
X7928Y35267*
X79274Y35279*
X79267Y3529*
X7926Y35301*
X79252Y35312*
X79243Y35321*
X79234Y3533*
X79224Y35339*
X79213Y35347*
X79202Y35354*
X7919Y3536*
X79178Y35365*
X79166Y3537*
X79153Y35373*
X7914Y35376*
X79127Y35378*
X79114Y35379*
X79101Y35379*
X79088Y35378*
X79075Y35376*
X79062Y35373*
X79049Y3537*
X79037Y35365*
X79025Y3536*
X79013Y35354*
X79002Y35347*
X78992Y35339*
X78982Y35331*
X78972Y35322*
X78963Y35312*
X78955Y35301*
X78948Y3529*
X78941Y35279*
X78935Y35267*
X7893Y35255*
X78926Y35243*
X78923Y3523*
X78921Y35217*
X7892Y35204*
X7892Y35203*
X79295D02*
D01*
X79297Y3519*
X79299Y35177*
X79302Y35165*
X79306Y35152*
X79311Y3514*
X79317Y35128*
X79324Y35117*
X79331Y35106*
X79339Y35095*
X79348Y35086*
X79357Y35077*
X79367Y35068*
X79378Y3506*
X79389Y35053*
X79401Y35047*
X79413Y35042*
X79425Y35037*
X79438Y35034*
X79451Y35031*
X79464Y35029*
X79477Y35028*
X7949*
X79503Y35029*
X79516Y35031*
X79529Y35034*
X79542Y35037*
X79554Y35042*
X79566Y35047*
X79578Y35053*
X79589Y3506*
X79599Y35068*
X79609Y35076*
X79619Y35085*
X79628Y35095*
X79636Y35106*
X79643Y35116*
X7965Y35128*
X79656Y3514*
X79661Y35152*
X79665Y35164*
X79668Y35177*
X7967Y3519*
X79671Y35203*
X7967Y35203*
X73595Y35228D02*
D01*
X73597Y35215*
X73599Y35202*
X73602Y3519*
X73606Y35177*
X73611Y35165*
X73617Y35153*
X73624Y35142*
X73631Y35131*
X73639Y3512*
X73648Y35111*
X73657Y35102*
X73667Y35093*
X73678Y35085*
X73689Y35078*
X73701Y35072*
X73713Y35067*
X73725Y35062*
X73738Y35059*
X73751Y35056*
X73764Y35054*
X73777Y35053*
X7379*
X73803Y35054*
X73816Y35056*
X73829Y35059*
X73842Y35062*
X73854Y35067*
X73866Y35072*
X73878Y35078*
X73889Y35085*
X73899Y35093*
X73909Y35101*
X73919Y3511*
X73928Y3512*
X73936Y35131*
X73943Y35141*
X7395Y35153*
X73956Y35165*
X73961Y35177*
X73965Y35189*
X73968Y35202*
X7397Y35215*
X73971Y35228*
X7397Y35228*
X73595D02*
D01*
X73594Y35242*
X73592Y35255*
X73589Y35267*
X73585Y3528*
X7358Y35292*
X73574Y35304*
X73567Y35315*
X7356Y35326*
X73552Y35337*
X73543Y35346*
X73534Y35355*
X73524Y35364*
X73513Y35372*
X73502Y35379*
X7349Y35385*
X73478Y3539*
X73466Y35395*
X73453Y35398*
X7344Y35401*
X73427Y35403*
X73414Y35404*
X73401*
X73388Y35403*
X73375Y35401*
X73362Y35398*
X73349Y35395*
X73337Y3539*
X73325Y35385*
X73313Y35379*
X73302Y35372*
X73292Y35364*
X73281Y35356*
X73272Y35346*
X73263Y35337*
X73255Y35326*
X73248Y35315*
X73241Y35304*
X73235Y35292*
X7323Y3528*
X73226Y35268*
X73223Y35255*
X73221Y35242*
X73219Y35229*
X7322Y35228*
X71095D02*
D01*
X71094Y35242*
X71092Y35255*
X71089Y35267*
X71085Y3528*
X7108Y35292*
X71074Y35304*
X71067Y35315*
X7106Y35326*
X71052Y35337*
X71043Y35346*
X71034Y35355*
X71024Y35364*
X71013Y35372*
X71002Y35379*
X7099Y35385*
X70978Y3539*
X70966Y35395*
X70953Y35398*
X7094Y35401*
X70927Y35403*
X70914Y35404*
X70901*
X70888Y35403*
X70875Y35401*
X70862Y35398*
X70849Y35395*
X70837Y3539*
X70825Y35385*
X70813Y35379*
X70802Y35372*
X70792Y35364*
X70782Y35356*
X70772Y35346*
X70763Y35337*
X70755Y35326*
X70748Y35315*
X70741Y35304*
X70735Y35292*
X7073Y3528*
X70726Y35268*
X70723Y35255*
X70721Y35242*
X7072Y35229*
X7072Y35228*
X71095D02*
D01*
X71097Y35215*
X71099Y35202*
X71102Y3519*
X71106Y35177*
X71111Y35165*
X71117Y35153*
X71124Y35142*
X71131Y35131*
X71139Y3512*
X71148Y35111*
X71157Y35102*
X71167Y35093*
X71178Y35085*
X71189Y35078*
X71201Y35072*
X71213Y35067*
X71225Y35062*
X71238Y35059*
X71251Y35056*
X71264Y35054*
X71277Y35053*
X7129*
X71303Y35054*
X71316Y35056*
X71329Y35059*
X71342Y35062*
X71354Y35067*
X71366Y35072*
X71378Y35078*
X71389Y35085*
X71399Y35093*
X71409Y35101*
X71419Y3511*
X71428Y3512*
X71436Y35131*
X71443Y35141*
X7145Y35153*
X71456Y35165*
X71461Y35177*
X71465Y35189*
X71468Y35202*
X7147Y35215*
X71471Y35228*
X7147Y35228*
X117624Y53224D02*
Y63974D01*
X114874Y50474D02*
X117624Y53224D01*
X104124D02*
X106874Y50474D01*
X104124Y53224D02*
Y63974D01*
X123044Y30666D02*
Y31682D01*
X123704Y30666D02*
Y31682D01*
X76505Y37628D02*
X77055D01*
X7932Y37353D02*
Y37878D01*
X79045Y37628D02*
X79595D01*
X105274Y16549D02*
Y20749D01*
X104174Y21849D02*
X105274Y20749D01*
X99974D02*
X101074Y21849D01*
X99974Y16549D02*
Y20749D01*
X93349Y29924D02*
X93649D01*
X86599Y29624D02*
Y29924D01*
X93349Y22874D02*
X93655D01*
X93649Y29624D02*
Y29924D01*
X93655Y22874D02*
Y23174D01*
X86599Y29924D02*
X86899D01*
X69175Y41738D02*
X73015D01*
X69175D02*
Y46218D01*
X73015*
Y41738D02*
Y46218D01*
X103174Y59624D02*
Y63824D01*
X102074Y58524D02*
X103174Y59624D01*
X97874D02*
X98974Y58524D01*
X97874Y59624D02*
Y63824D01*
X73345Y37653D02*
X73895D01*
X7362Y37378D02*
Y37903D01*
X70805Y37653D02*
X71355D01*
X73566Y57329D02*
X74582D01*
X73566Y56669D02*
X74582D01*
X16795Y95203D02*
D01*
X16797Y9519*
X16799Y95177*
X16802Y95165*
X16806Y95152*
X16811Y9514*
X16817Y95128*
X16824Y95117*
X16831Y95106*
X16839Y95095*
X16848Y95086*
X16857Y95077*
X16867Y95068*
X16878Y9506*
X16889Y95053*
X16901Y95047*
X16913Y95042*
X16925Y95037*
X16938Y95034*
X16951Y95031*
X16964Y95029*
X16977Y95028*
X1699Y95028*
X17003Y95029*
X17016Y95031*
X17029Y95034*
X17042Y95037*
X17054Y95042*
X17066Y95047*
X17078Y95053*
X17089Y9506*
X17099Y95068*
X17109Y95076*
X17119Y95085*
X17128Y95095*
X17136Y95106*
X17143Y95117*
X1715Y95128*
X17156Y9514*
X17161Y95152*
X17165Y95164*
X17168Y95177*
X1717Y9519*
X17171Y95203*
X1717Y95203*
X16795D02*
D01*
X16794Y95217*
X16792Y9523*
X16789Y95242*
X16785Y95255*
X1678Y95267*
X16774Y95279*
X16767Y9529*
X1676Y95301*
X16752Y95312*
X16743Y95321*
X16734Y9533*
X16724Y95339*
X16713Y95347*
X16702Y95354*
X1669Y9536*
X16678Y95365*
X16666Y9537*
X16653Y95373*
X1664Y95376*
X16627Y95378*
X16614Y95379*
X16601Y95379*
X16588Y95378*
X16575Y95376*
X16562Y95373*
X16549Y9537*
X16537Y95365*
X16525Y9536*
X16513Y95354*
X16502Y95347*
X16492Y95339*
X16482Y95331*
X16472Y95322*
X16463Y95312*
X16455Y95301*
X16448Y9529*
X16441Y95279*
X16435Y95267*
X1643Y95255*
X16426Y95243*
X16423Y9523*
X16421Y95217*
X1642Y95204*
X1642Y95203*
X19295D02*
D01*
X19294Y95217*
X19292Y9523*
X19289Y95242*
X19285Y95255*
X1928Y95267*
X19274Y95279*
X19267Y9529*
X1926Y95301*
X19252Y95312*
X19243Y95321*
X19234Y9533*
X19224Y95339*
X19213Y95347*
X19202Y95354*
X1919Y9536*
X19178Y95365*
X19166Y9537*
X19153Y95373*
X1914Y95376*
X19127Y95378*
X19114Y95379*
X19101Y95379*
X19088Y95378*
X19075Y95376*
X19062Y95373*
X19049Y9537*
X19037Y95365*
X19025Y9536*
X19013Y95354*
X19002Y95347*
X18992Y95339*
X18982Y95331*
X18972Y95322*
X18963Y95312*
X18955Y95301*
X18948Y9529*
X18941Y95279*
X18935Y95267*
X1893Y95255*
X18926Y95243*
X18923Y9523*
X18921Y95217*
X1892Y95204*
X1892Y95203*
X19295D02*
D01*
X19297Y9519*
X19299Y95177*
X19302Y95165*
X19306Y95152*
X19311Y9514*
X19317Y95128*
X19324Y95117*
X19331Y95106*
X19339Y95095*
X19348Y95086*
X19357Y95077*
X19367Y95068*
X19378Y9506*
X19389Y95053*
X19401Y95047*
X19413Y95042*
X19425Y95037*
X19438Y95034*
X19451Y95031*
X19464Y95029*
X19477Y95028*
X1949Y95028*
X19503Y95029*
X19516Y95031*
X19529Y95034*
X19542Y95037*
X19554Y95042*
X19566Y95047*
X19578Y95053*
X19589Y9506*
X19599Y95068*
X19609Y95076*
X19619Y95085*
X19628Y95095*
X19636Y95106*
X19643Y95117*
X1965Y95128*
X19656Y9514*
X19661Y95152*
X19665Y95164*
X19668Y95177*
X1967Y9519*
X19671Y95203*
X1967Y95203*
X13595Y95228D02*
D01*
X13597Y95215*
X13599Y95202*
X13602Y9519*
X13606Y95177*
X13611Y95165*
X13617Y95153*
X13624Y95142*
X13631Y95131*
X13639Y9512*
X13648Y95111*
X13657Y95102*
X13667Y95093*
X13678Y95085*
X13689Y95078*
X13701Y95072*
X13713Y95067*
X13725Y95062*
X13738Y95059*
X13751Y95056*
X13764Y95054*
X13777Y95053*
X1379*
X13803Y95054*
X13816Y95056*
X13829Y95059*
X13842Y95062*
X13854Y95067*
X13866Y95072*
X13878Y95078*
X13889Y95085*
X13899Y95093*
X13909Y95101*
X13919Y9511*
X13928Y9512*
X13936Y95131*
X13943Y95141*
X1395Y95153*
X13956Y95165*
X13961Y95177*
X13965Y95189*
X13968Y95202*
X1397Y95215*
X13971Y95228*
X1397Y95228*
X13595D02*
D01*
X13594Y95242*
X13592Y95255*
X13589Y95267*
X13585Y9528*
X1358Y95292*
X13574Y95304*
X13567Y95315*
X1356Y95326*
X13552Y95337*
X13543Y95346*
X13534Y95355*
X13524Y95364*
X13513Y95372*
X13502Y95379*
X1349Y95385*
X13478Y9539*
X13466Y95395*
X13453Y95398*
X1344Y95401*
X13427Y95403*
X13414Y95404*
X13401Y95404*
X13388Y95403*
X13375Y95401*
X13362Y95398*
X13349Y95395*
X13337Y9539*
X13325Y95385*
X13313Y95379*
X13302Y95372*
X13292Y95364*
X13281Y95356*
X13272Y95347*
X13263Y95337*
X13255Y95326*
X13248Y95315*
X13241Y95304*
X13235Y95292*
X1323Y9528*
X13226Y95268*
X13223Y95255*
X13221Y95242*
X1322Y95229*
X1322Y95228*
X11095D02*
D01*
X11094Y95242*
X11092Y95255*
X11089Y95267*
X11085Y9528*
X1108Y95292*
X11074Y95304*
X11067Y95315*
X1106Y95326*
X11052Y95337*
X11043Y95346*
X11034Y95355*
X11024Y95364*
X11013Y95372*
X11002Y95379*
X1099Y95385*
X10978Y9539*
X10966Y95395*
X10953Y95398*
X1094Y95401*
X10927Y95403*
X10914Y95404*
X10901Y95404*
X10888Y95403*
X10875Y95401*
X10862Y95398*
X10849Y95395*
X10837Y9539*
X10825Y95385*
X10813Y95379*
X10802Y95372*
X10792Y95364*
X10781Y95356*
X10772Y95347*
X10763Y95337*
X10755Y95326*
X10748Y95315*
X10741Y95304*
X10735Y95292*
X1073Y9528*
X10726Y95268*
X10723Y95255*
X10721Y95242*
X1072Y95229*
X1072Y95228*
X11095D02*
D01*
X11097Y95215*
X11099Y95202*
X11102Y9519*
X11106Y95177*
X11111Y95165*
X11117Y95153*
X11124Y95142*
X11131Y95131*
X11139Y9512*
X11148Y95111*
X11157Y95102*
X11167Y95093*
X11178Y95085*
X11189Y95078*
X11201Y95072*
X11213Y95067*
X11225Y95062*
X11238Y95059*
X11251Y95056*
X11264Y95054*
X11277Y95053*
X1129*
X11303Y95054*
X11316Y95056*
X11329Y95059*
X11342Y95062*
X11354Y95067*
X11366Y95072*
X11378Y95078*
X11389Y95085*
X11399Y95093*
X11409Y95101*
X11419Y9511*
X11428Y9512*
X11436Y95131*
X11443Y95141*
X1145Y95153*
X11456Y95165*
X11461Y95177*
X11465Y95189*
X11468Y95202*
X1147Y95215*
X11471Y95228*
X1147Y95228*
X57624Y113224D02*
Y123974D01*
X54874Y110474D02*
X57624Y113224D01*
X44124D02*
X46874Y110474D01*
X44124Y113224D02*
Y123974D01*
X63044Y90666D02*
Y91682D01*
X63704Y90666D02*
Y91682D01*
X16505Y97628D02*
X17055D01*
X1932Y97353D02*
Y97878D01*
X19045Y97628D02*
X19595D01*
X45274Y76549D02*
Y80749D01*
X44174Y81849D02*
X45274Y80749D01*
X39974D02*
X41074Y81849D01*
X39974Y76549D02*
Y80749D01*
X33349Y89924D02*
X33649D01*
X26599Y89624D02*
Y89924D01*
X33349Y82874D02*
X33655D01*
X33649Y89624D02*
Y89924D01*
X33655Y82874D02*
Y83174D01*
X26599Y89924D02*
X26899D01*
X09175Y101738D02*
X13015D01*
X09175D02*
Y106218D01*
X13015*
Y101738D02*
Y106218D01*
X43174Y119624D02*
Y123824D01*
X42074Y118524D02*
X43174Y119624D01*
X37874D02*
X38974Y118524D01*
X37874Y119624D02*
Y123824D01*
X13345Y97653D02*
X13895D01*
X1362Y97378D02*
Y97903D01*
X10805Y97653D02*
X11355D01*
X13566Y117329D02*
X14582D01*
X13566Y116669D02*
X14582D01*
X76795Y95203D02*
D01*
X76797Y9519*
X76799Y95177*
X76802Y95165*
X76806Y95152*
X76811Y9514*
X76817Y95128*
X76824Y95117*
X76831Y95106*
X76839Y95095*
X76848Y95086*
X76857Y95077*
X76867Y95068*
X76878Y9506*
X76889Y95053*
X76901Y95047*
X76913Y95042*
X76925Y95037*
X76938Y95034*
X76951Y95031*
X76964Y95029*
X76977Y95028*
X7699Y95028*
X77003Y95029*
X77016Y95031*
X77029Y95034*
X77042Y95037*
X77054Y95042*
X77066Y95047*
X77078Y95053*
X77089Y9506*
X77099Y95068*
X77109Y95076*
X77119Y95085*
X77128Y95095*
X77136Y95106*
X77143Y95117*
X7715Y95128*
X77156Y9514*
X77161Y95152*
X77165Y95164*
X77168Y95177*
X7717Y9519*
X77171Y95203*
X7717Y95203*
X76795D02*
D01*
X76794Y95217*
X76792Y9523*
X76789Y95242*
X76785Y95255*
X7678Y95267*
X76774Y95279*
X76767Y9529*
X7676Y95301*
X76752Y95312*
X76743Y95321*
X76734Y9533*
X76724Y95339*
X76713Y95347*
X76702Y95354*
X7669Y9536*
X76678Y95365*
X76666Y9537*
X76653Y95373*
X7664Y95376*
X76627Y95378*
X76614Y95379*
X76601Y95379*
X76588Y95378*
X76575Y95376*
X76562Y95373*
X76549Y9537*
X76537Y95365*
X76525Y9536*
X76513Y95354*
X76502Y95347*
X76492Y95339*
X76481Y95331*
X76472Y95322*
X76463Y95312*
X76455Y95301*
X76448Y9529*
X76441Y95279*
X76435Y95267*
X7643Y95255*
X76426Y95243*
X76423Y9523*
X76421Y95217*
X7642Y95204*
X7642Y95203*
X79295D02*
D01*
X79294Y95217*
X79292Y9523*
X79289Y95242*
X79285Y95255*
X7928Y95267*
X79274Y95279*
X79267Y9529*
X7926Y95301*
X79252Y95312*
X79243Y95321*
X79234Y9533*
X79224Y95339*
X79213Y95347*
X79202Y95354*
X7919Y9536*
X79178Y95365*
X79166Y9537*
X79153Y95373*
X7914Y95376*
X79127Y95378*
X79114Y95379*
X79101Y95379*
X79088Y95378*
X79075Y95376*
X79062Y95373*
X79049Y9537*
X79037Y95365*
X79025Y9536*
X79013Y95354*
X79002Y95347*
X78992Y95339*
X78982Y95331*
X78972Y95322*
X78963Y95312*
X78955Y95301*
X78948Y9529*
X78941Y95279*
X78935Y95267*
X7893Y95255*
X78926Y95243*
X78923Y9523*
X78921Y95217*
X7892Y95204*
X7892Y95203*
X79295D02*
D01*
X79297Y9519*
X79299Y95177*
X79302Y95165*
X79306Y95152*
X79311Y9514*
X79317Y95128*
X79324Y95117*
X79331Y95106*
X79339Y95095*
X79348Y95086*
X79357Y95077*
X79367Y95068*
X79378Y9506*
X79389Y95053*
X79401Y95047*
X79413Y95042*
X79425Y95037*
X79438Y95034*
X79451Y95031*
X79464Y95029*
X79477Y95028*
X7949Y95028*
X79503Y95029*
X79516Y95031*
X79529Y95034*
X79542Y95037*
X79554Y95042*
X79566Y95047*
X79578Y95053*
X79589Y9506*
X79599Y95068*
X79609Y95076*
X79619Y95085*
X79628Y95095*
X79636Y95106*
X79643Y95117*
X7965Y95128*
X79656Y9514*
X79661Y95152*
X79665Y95164*
X79668Y95177*
X7967Y9519*
X79671Y95203*
X7967Y95203*
X73595Y95228D02*
D01*
X73597Y95215*
X73599Y95202*
X73602Y9519*
X73606Y95177*
X73611Y95165*
X73617Y95153*
X73624Y95142*
X73631Y95131*
X73639Y9512*
X73648Y95111*
X73657Y95102*
X73667Y95093*
X73678Y95085*
X73689Y95078*
X73701Y95072*
X73713Y95067*
X73725Y95062*
X73738Y95059*
X73751Y95056*
X73764Y95054*
X73777Y95053*
X7379*
X73803Y95054*
X73816Y95056*
X73829Y95059*
X73842Y95062*
X73854Y95067*
X73866Y95072*
X73878Y95078*
X73889Y95085*
X73899Y95093*
X73909Y95101*
X73919Y9511*
X73928Y9512*
X73936Y95131*
X73943Y95141*
X7395Y95153*
X73956Y95165*
X73961Y95177*
X73965Y95189*
X73968Y95202*
X7397Y95215*
X73971Y95228*
X7397Y95228*
X73595D02*
D01*
X73594Y95242*
X73592Y95255*
X73589Y95267*
X73585Y9528*
X7358Y95292*
X73574Y95304*
X73567Y95315*
X7356Y95326*
X73552Y95337*
X73543Y95346*
X73534Y95355*
X73524Y95364*
X73513Y95372*
X73502Y95379*
X7349Y95385*
X73478Y9539*
X73466Y95395*
X73453Y95398*
X7344Y95401*
X73427Y95403*
X73414Y95404*
X73401Y95404*
X73388Y95403*
X73375Y95401*
X73362Y95398*
X73349Y95395*
X73337Y9539*
X73325Y95385*
X73313Y95379*
X73302Y95372*
X73292Y95364*
X73281Y95356*
X73272Y95347*
X73263Y95337*
X73255Y95326*
X73248Y95315*
X73241Y95304*
X73235Y95292*
X7323Y9528*
X73226Y95268*
X73223Y95255*
X73221Y95242*
X73219Y95229*
X7322Y95228*
X71095D02*
D01*
X71094Y95242*
X71092Y95255*
X71089Y95267*
X71085Y9528*
X7108Y95292*
X71074Y95304*
X71067Y95315*
X7106Y95326*
X71052Y95337*
X71043Y95346*
X71034Y95355*
X71024Y95364*
X71013Y95372*
X71002Y95379*
X7099Y95385*
X70978Y9539*
X70966Y95395*
X70953Y95398*
X7094Y95401*
X70927Y95403*
X70914Y95404*
X70901Y95404*
X70888Y95403*
X70875Y95401*
X70862Y95398*
X70849Y95395*
X70837Y9539*
X70825Y95385*
X70813Y95379*
X70802Y95372*
X70792Y95364*
X70782Y95356*
X70772Y95347*
X70763Y95337*
X70755Y95326*
X70748Y95315*
X70741Y95304*
X70735Y95292*
X7073Y9528*
X70726Y95268*
X70723Y95255*
X70721Y95242*
X7072Y95229*
X7072Y95228*
X71095D02*
D01*
X71097Y95215*
X71099Y95202*
X71102Y9519*
X71106Y95177*
X71111Y95165*
X71117Y95153*
X71124Y95142*
X71131Y95131*
X71139Y9512*
X71148Y95111*
X71157Y95102*
X71167Y95093*
X71178Y95085*
X71189Y95078*
X71201Y95072*
X71213Y95067*
X71225Y95062*
X71238Y95059*
X71251Y95056*
X71264Y95054*
X71277Y95053*
X7129*
X71303Y95054*
X71316Y95056*
X71329Y95059*
X71342Y95062*
X71354Y95067*
X71366Y95072*
X71378Y95078*
X71389Y95085*
X71399Y95093*
X71409Y95101*
X71419Y9511*
X71428Y9512*
X71436Y95131*
X71443Y95141*
X7145Y95153*
X71456Y95165*
X71461Y95177*
X71465Y95189*
X71468Y95202*
X7147Y95215*
X71471Y95228*
X7147Y95228*
X117624Y113224D02*
Y123974D01*
X114874Y110474D02*
X117624Y113224D01*
X104124D02*
X106874Y110474D01*
X104124Y113224D02*
Y123974D01*
X123044Y90666D02*
Y91682D01*
X123704Y90666D02*
Y91682D01*
X76505Y97628D02*
X77055D01*
X7932Y97353D02*
Y97878D01*
X79045Y97628D02*
X79595D01*
X105274Y76549D02*
Y80749D01*
X104174Y81849D02*
X105274Y80749D01*
X99974D02*
X101074Y81849D01*
X99974Y76549D02*
Y80749D01*
X93349Y89924D02*
X93649D01*
X86599Y89624D02*
Y89924D01*
X93349Y82874D02*
X93655D01*
X93649Y89624D02*
Y89924D01*
X93655Y82874D02*
Y83174D01*
X86599Y89924D02*
X86899D01*
X69175Y101738D02*
X73015D01*
X69175D02*
Y106218D01*
X73015*
Y101738D02*
Y106218D01*
X103174Y119624D02*
Y123824D01*
X102074Y118524D02*
X103174Y119624D01*
X97874D02*
X98974Y118524D01*
X97874Y119624D02*
Y123824D01*
X73345Y97653D02*
X73895D01*
X7362Y97378D02*
Y97903D01*
X70805Y97653D02*
X71355D01*
X73566Y117329D02*
X74582D01*
X73566Y116669D02*
X74582D01*
G54D101*
X58607Y55449D02*
D01*
X58607Y55469*
X58605Y55489*
X58601Y55508*
X58597Y55527*
X5859Y55546*
X58583Y55565*
X58574Y55582*
X58564Y55599*
X58553Y55616*
X58541Y55631*
X58528Y55646*
X58514Y5566*
X58499Y55672*
X58483Y55684*
X58466Y55695*
X58449Y55704*
X5843Y55712*
X58412Y55719*
X58393Y55724*
X58374Y55728*
X58354Y55731*
X58334Y55732*
X58315*
X58295Y55731*
X58275Y55728*
X58256Y55724*
X58237Y55719*
X58218Y55712*
X582Y55704*
X58183Y55695*
X58166Y55684*
X5815Y55672*
X58135Y5566*
X58121Y55646*
X58108Y55631*
X58096Y55616*
X58084Y55599*
X58075Y55582*
X58066Y55565*
X58059Y55546*
X58052Y55527*
X58048Y55508*
X58044Y55489*
X58042Y55469*
X58041Y55449*
X58042Y5543*
X58044Y5541*
X58048Y55391*
X58052Y55371*
X58059Y55353*
X58066Y55334*
X58075Y55317*
X58084Y553*
X58096Y55283*
X58108Y55268*
X58121Y55253*
X58135Y55239*
X5815Y55226*
X58166Y55215*
X58183Y55204*
X582Y55195*
X58218Y55187*
X58237Y5518*
X58256Y55175*
X58275Y55171*
X58295Y55168*
X58315Y55167*
X58334*
X58354Y55168*
X58374Y55171*
X58393Y55175*
X58412Y5518*
X5843Y55187*
X58449Y55195*
X58466Y55204*
X58483Y55215*
X58499Y55226*
X58514Y55239*
X58528Y55253*
X58541Y55268*
X58553Y55283*
X58564Y553*
X58574Y55317*
X58583Y55334*
X5859Y55353*
X58597Y55371*
X58601Y55391*
X58605Y5541*
X58607Y5543*
X58607Y55449*
Y41449D02*
D01*
X58607Y41469*
X58605Y41489*
X58601Y41508*
X58597Y41527*
X5859Y41546*
X58583Y41565*
X58574Y41582*
X58564Y41599*
X58553Y41616*
X58541Y41631*
X58528Y41646*
X58514Y4166*
X58499Y41672*
X58483Y41684*
X58466Y41695*
X58449Y41704*
X5843Y41712*
X58412Y41719*
X58393Y41724*
X58374Y41728*
X58354Y41731*
X58334Y41732*
X58315*
X58295Y41731*
X58275Y41728*
X58256Y41724*
X58237Y41719*
X58218Y41712*
X582Y41704*
X58183Y41695*
X58166Y41684*
X5815Y41672*
X58135Y4166*
X58121Y41646*
X58108Y41631*
X58096Y41616*
X58084Y41599*
X58075Y41582*
X58066Y41565*
X58059Y41546*
X58052Y41527*
X58048Y41508*
X58044Y41489*
X58042Y41469*
X58041Y41449*
X58042Y4143*
X58044Y4141*
X58048Y41391*
X58052Y41371*
X58059Y41353*
X58066Y41334*
X58075Y41317*
X58084Y413*
X58096Y41283*
X58108Y41268*
X58121Y41253*
X58135Y41239*
X5815Y41226*
X58166Y41215*
X58183Y41204*
X582Y41195*
X58218Y41187*
X58237Y4118*
X58256Y41175*
X58275Y41171*
X58295Y41168*
X58315Y41167*
X58334*
X58354Y41168*
X58374Y41171*
X58393Y41175*
X58412Y4118*
X5843Y41187*
X58449Y41195*
X58466Y41204*
X58483Y41215*
X58499Y41226*
X58514Y41239*
X58528Y41253*
X58541Y41268*
X58553Y41283*
X58564Y413*
X58574Y41317*
X58583Y41334*
X5859Y41353*
X58597Y41371*
X58601Y41391*
X58605Y4141*
X58607Y4143*
X58607Y41449*
Y48449D02*
D01*
X58607Y48469*
X58605Y48489*
X58601Y48508*
X58597Y48527*
X5859Y48546*
X58583Y48565*
X58574Y48582*
X58564Y48599*
X58553Y48616*
X58541Y48631*
X58528Y48646*
X58514Y4866*
X58499Y48673*
X58483Y48684*
X58466Y48695*
X58449Y48704*
X5843Y48712*
X58412Y48719*
X58393Y48724*
X58374Y48728*
X58354Y48731*
X58334Y48732*
X58315*
X58295Y48731*
X58275Y48728*
X58256Y48724*
X58237Y48719*
X58218Y48712*
X582Y48704*
X58183Y48695*
X58166Y48684*
X5815Y48673*
X58135Y4866*
X58121Y48646*
X58108Y48631*
X58096Y48616*
X58084Y48599*
X58075Y48582*
X58066Y48565*
X58059Y48546*
X58052Y48527*
X58048Y48508*
X58044Y48489*
X58042Y48469*
X58041Y48449*
X58042Y4843*
X58044Y4841*
X58048Y48391*
X58052Y48371*
X58059Y48353*
X58066Y48334*
X58075Y48317*
X58084Y483*
X58096Y48283*
X58108Y48268*
X58121Y48253*
X58135Y48239*
X5815Y48226*
X58166Y48215*
X58183Y48204*
X582Y48195*
X58218Y48187*
X58237Y4818*
X58256Y48175*
X58275Y48171*
X58295Y48168*
X58315Y48167*
X58334*
X58354Y48168*
X58374Y48171*
X58393Y48175*
X58412Y4818*
X5843Y48187*
X58449Y48195*
X58466Y48204*
X58483Y48215*
X58499Y48226*
X58514Y48239*
X58528Y48253*
X58541Y48268*
X58553Y48283*
X58564Y483*
X58574Y48317*
X58583Y48334*
X5859Y48353*
X58597Y48371*
X58601Y48391*
X58605Y4841*
X58607Y4843*
X58607Y48449*
X53429Y44334D02*
Y45219D01*
Y45894D02*
X53684Y45439D01*
X53429Y45894D02*
Y46719D01*
X2202Y37978D02*
Y39978D01*
Y37978D02*
X2452D01*
Y39978*
X2202D02*
X2452D01*
X2202Y37978D02*
Y39978D01*
Y37978D02*
X2452D01*
Y39978*
X2202D02*
X2452D01*
X2982Y33378D02*
Y35378D01*
Y33378D02*
X3232D01*
Y35378*
X2982D02*
X3232D01*
X2982Y33378D02*
Y35378D01*
Y33378D02*
X3232D01*
Y35378*
X2982D02*
X3232D01*
X118607Y55449D02*
D01*
X118607Y55469*
X118605Y55489*
X118601Y55508*
X118597Y55527*
X11859Y55546*
X118583Y55565*
X118574Y55582*
X118564Y55599*
X118553Y55616*
X118541Y55631*
X118528Y55646*
X118514Y5566*
X118499Y55672*
X118483Y55684*
X118466Y55695*
X118449Y55704*
X118431Y55712*
X118412Y55719*
X118393Y55724*
X118374Y55728*
X118354Y55731*
X118334Y55732*
X118315*
X118295Y55731*
X118275Y55728*
X118256Y55724*
X118237Y55719*
X118218Y55712*
X1182Y55704*
X118183Y55695*
X118166Y55684*
X11815Y55672*
X118135Y5566*
X118121Y55646*
X118108Y55631*
X118096Y55616*
X118084Y55599*
X118075Y55582*
X118066Y55565*
X118059Y55546*
X118052Y55527*
X118048Y55508*
X118044Y55489*
X118042Y55469*
X118041Y55449*
X118042Y5543*
X118044Y5541*
X118048Y55391*
X118052Y55371*
X118059Y55353*
X118066Y55334*
X118075Y55317*
X118084Y553*
X118096Y55283*
X118108Y55268*
X118121Y55253*
X118135Y55239*
X11815Y55226*
X118166Y55215*
X118183Y55204*
X1182Y55195*
X118218Y55187*
X118237Y5518*
X118256Y55175*
X118275Y55171*
X118295Y55168*
X118315Y55167*
X118334*
X118354Y55168*
X118374Y55171*
X118393Y55175*
X118412Y5518*
X118431Y55187*
X118449Y55195*
X118466Y55204*
X118483Y55215*
X118499Y55226*
X118514Y55239*
X118528Y55253*
X118541Y55268*
X118553Y55283*
X118564Y553*
X118574Y55317*
X118583Y55334*
X11859Y55353*
X118597Y55371*
X118601Y55391*
X118605Y5541*
X118607Y5543*
X118607Y55449*
Y41449D02*
D01*
X118607Y41469*
X118605Y41489*
X118601Y41508*
X118597Y41527*
X11859Y41546*
X118583Y41565*
X118574Y41582*
X118564Y41599*
X118553Y41616*
X118541Y41631*
X118528Y41646*
X118514Y4166*
X118499Y41672*
X118483Y41684*
X118466Y41695*
X118449Y41704*
X118431Y41712*
X118412Y41719*
X118393Y41724*
X118374Y41728*
X118354Y41731*
X118334Y41732*
X118315*
X118295Y41731*
X118275Y41728*
X118256Y41724*
X118237Y41719*
X118218Y41712*
X1182Y41704*
X118183Y41695*
X118166Y41684*
X11815Y41672*
X118135Y4166*
X118121Y41646*
X118108Y41631*
X118096Y41616*
X118084Y41599*
X118075Y41582*
X118066Y41565*
X118059Y41546*
X118052Y41527*
X118048Y41508*
X118044Y41489*
X118042Y41469*
X118041Y41449*
X118042Y4143*
X118044Y4141*
X118048Y41391*
X118052Y41371*
X118059Y41353*
X118066Y41334*
X118075Y41317*
X118084Y413*
X118096Y41283*
X118108Y41268*
X118121Y41253*
X118135Y41239*
X11815Y41226*
X118166Y41215*
X118183Y41204*
X1182Y41195*
X118218Y41187*
X118237Y4118*
X118256Y41175*
X118275Y41171*
X118295Y41168*
X118315Y41167*
X118334*
X118354Y41168*
X118374Y41171*
X118393Y41175*
X118412Y4118*
X118431Y41187*
X118449Y41195*
X118466Y41204*
X118483Y41215*
X118499Y41226*
X118514Y41239*
X118528Y41253*
X118541Y41268*
X118553Y41283*
X118564Y413*
X118574Y41317*
X118583Y41334*
X11859Y41353*
X118597Y41371*
X118601Y41391*
X118605Y4141*
X118607Y4143*
X118607Y41449*
Y48449D02*
D01*
X118607Y48469*
X118605Y48489*
X118601Y48508*
X118597Y48527*
X11859Y48546*
X118583Y48565*
X118574Y48582*
X118564Y48599*
X118553Y48616*
X118541Y48631*
X118528Y48646*
X118514Y4866*
X118499Y48673*
X118483Y48684*
X118466Y48695*
X118449Y48704*
X118431Y48712*
X118412Y48719*
X118393Y48724*
X118374Y48728*
X118354Y48731*
X118334Y48732*
X118315*
X118295Y48731*
X118275Y48728*
X118256Y48724*
X118237Y48719*
X118218Y48712*
X1182Y48704*
X118183Y48695*
X118166Y48684*
X11815Y48673*
X118135Y4866*
X118121Y48646*
X118108Y48631*
X118096Y48616*
X118084Y48599*
X118075Y48582*
X118066Y48565*
X118059Y48546*
X118052Y48527*
X118048Y48508*
X118044Y48489*
X118042Y48469*
X118041Y48449*
X118042Y4843*
X118044Y4841*
X118048Y48391*
X118052Y48371*
X118059Y48353*
X118066Y48334*
X118075Y48317*
X118084Y483*
X118096Y48283*
X118108Y48268*
X118121Y48253*
X118135Y48239*
X11815Y48226*
X118166Y48215*
X118183Y48204*
X1182Y48195*
X118218Y48187*
X118237Y4818*
X118256Y48175*
X118275Y48171*
X118295Y48168*
X118315Y48167*
X118334*
X118354Y48168*
X118374Y48171*
X118393Y48175*
X118412Y4818*
X118431Y48187*
X118449Y48195*
X118466Y48204*
X118483Y48215*
X118499Y48226*
X118514Y48239*
X118528Y48253*
X118541Y48268*
X118553Y48283*
X118564Y483*
X118574Y48317*
X118583Y48334*
X11859Y48353*
X118597Y48371*
X118601Y48391*
X118605Y4841*
X118607Y4843*
X118607Y48449*
X113429Y44334D02*
Y45219D01*
Y45894D02*
X113684Y45439D01*
X113429Y45894D02*
Y46719D01*
X8202Y37978D02*
Y39978D01*
Y37978D02*
X8452D01*
Y39978*
X8202D02*
X8452D01*
X8202Y37978D02*
Y39978D01*
Y37978D02*
X8452D01*
Y39978*
X8202D02*
X8452D01*
X8982Y33378D02*
Y35378D01*
Y33378D02*
X9232D01*
Y35378*
X8982D02*
X9232D01*
X8982Y33378D02*
Y35378D01*
Y33378D02*
X9232D01*
Y35378*
X8982D02*
X9232D01*
X58607Y115449D02*
D01*
X58607Y115469*
X58605Y115489*
X58601Y115508*
X58597Y115527*
X5859Y115546*
X58583Y115565*
X58574Y115582*
X58564Y115599*
X58553Y115616*
X58541Y115631*
X58528Y115646*
X58514Y11566*
X58499Y115672*
X58483Y115684*
X58466Y115695*
X58449Y115704*
X5843Y115712*
X58412Y115719*
X58393Y115724*
X58374Y115728*
X58354Y115731*
X58334Y115732*
X58315*
X58295Y115731*
X58275Y115728*
X58256Y115724*
X58237Y115719*
X58218Y115712*
X582Y115704*
X58183Y115695*
X58166Y115684*
X5815Y115672*
X58135Y11566*
X58121Y115646*
X58108Y115631*
X58096Y115616*
X58084Y115599*
X58075Y115582*
X58066Y115565*
X58059Y115546*
X58052Y115527*
X58048Y115508*
X58044Y115489*
X58042Y115469*
X58041Y115449*
X58042Y11543*
X58044Y11541*
X58048Y115391*
X58052Y115371*
X58059Y115353*
X58066Y115334*
X58075Y115317*
X58084Y1153*
X58096Y115283*
X58108Y115268*
X58121Y115253*
X58135Y115239*
X5815Y115226*
X58166Y115215*
X58183Y115204*
X582Y115195*
X58218Y115187*
X58237Y11518*
X58256Y115175*
X58275Y115171*
X58295Y115168*
X58315Y115167*
X58334*
X58354Y115168*
X58374Y115171*
X58393Y115175*
X58412Y11518*
X5843Y115187*
X58449Y115195*
X58466Y115204*
X58483Y115215*
X58499Y115226*
X58514Y115239*
X58528Y115253*
X58541Y115268*
X58553Y115283*
X58564Y1153*
X58574Y115317*
X58583Y115334*
X5859Y115353*
X58597Y115371*
X58601Y115391*
X58605Y11541*
X58607Y11543*
X58607Y115449*
Y101449D02*
D01*
X58607Y101469*
X58605Y101489*
X58601Y101508*
X58597Y101527*
X5859Y101546*
X58583Y101565*
X58574Y101582*
X58564Y101599*
X58553Y101616*
X58541Y101631*
X58528Y101646*
X58514Y10166*
X58499Y101672*
X58483Y101684*
X58466Y101695*
X58449Y101704*
X5843Y101712*
X58412Y101719*
X58393Y101724*
X58374Y101728*
X58354Y101731*
X58334Y101732*
X58315*
X58295Y101731*
X58275Y101728*
X58256Y101724*
X58237Y101719*
X58218Y101712*
X582Y101704*
X58183Y101695*
X58166Y101684*
X5815Y101672*
X58135Y10166*
X58121Y101646*
X58108Y101631*
X58096Y101616*
X58084Y101599*
X58075Y101582*
X58066Y101565*
X58059Y101546*
X58052Y101527*
X58048Y101508*
X58044Y101489*
X58042Y101469*
X58041Y101449*
X58042Y10143*
X58044Y10141*
X58048Y101391*
X58052Y101371*
X58059Y101353*
X58066Y101334*
X58075Y101317*
X58084Y1013*
X58096Y101283*
X58108Y101268*
X58121Y101253*
X58135Y101239*
X5815Y101226*
X58166Y101215*
X58183Y101204*
X582Y101195*
X58218Y101187*
X58237Y10118*
X58256Y101175*
X58275Y101171*
X58295Y101168*
X58315Y101167*
X58334*
X58354Y101168*
X58374Y101171*
X58393Y101175*
X58412Y10118*
X5843Y101187*
X58449Y101195*
X58466Y101204*
X58483Y101215*
X58499Y101226*
X58514Y101239*
X58528Y101253*
X58541Y101268*
X58553Y101283*
X58564Y1013*
X58574Y101317*
X58583Y101334*
X5859Y101353*
X58597Y101371*
X58601Y101391*
X58605Y10141*
X58607Y10143*
X58607Y101449*
Y108449D02*
D01*
X58607Y108469*
X58605Y108489*
X58601Y108508*
X58597Y108528*
X5859Y108546*
X58583Y108565*
X58574Y108582*
X58564Y108599*
X58553Y108616*
X58541Y108631*
X58528Y108646*
X58514Y10866*
X58499Y108672*
X58483Y108684*
X58466Y108695*
X58449Y108704*
X5843Y108712*
X58412Y108719*
X58393Y108724*
X58374Y108728*
X58354Y108731*
X58334Y108732*
X58315*
X58295Y108731*
X58275Y108728*
X58256Y108724*
X58237Y108719*
X58218Y108712*
X582Y108704*
X58183Y108695*
X58166Y108684*
X5815Y108672*
X58135Y10866*
X58121Y108646*
X58108Y108631*
X58096Y108616*
X58084Y108599*
X58075Y108582*
X58066Y108565*
X58059Y108546*
X58052Y108528*
X58048Y108508*
X58044Y108489*
X58042Y108469*
X58041Y108449*
X58042Y10843*
X58044Y10841*
X58048Y108391*
X58052Y108371*
X58059Y108353*
X58066Y108334*
X58075Y108317*
X58084Y1083*
X58096Y108283*
X58108Y108268*
X58121Y108253*
X58135Y108239*
X5815Y108226*
X58166Y108215*
X58183Y108204*
X582Y108195*
X58218Y108187*
X58237Y10818*
X58256Y108175*
X58275Y108171*
X58295Y108168*
X58315Y108167*
X58334*
X58354Y108168*
X58374Y108171*
X58393Y108175*
X58412Y10818*
X5843Y108187*
X58449Y108195*
X58466Y108204*
X58483Y108215*
X58499Y108226*
X58514Y108239*
X58528Y108253*
X58541Y108268*
X58553Y108283*
X58564Y1083*
X58574Y108317*
X58583Y108334*
X5859Y108353*
X58597Y108371*
X58601Y108391*
X58605Y10841*
X58607Y10843*
X58607Y108449*
X53429Y104334D02*
Y105219D01*
Y105894D02*
X53684Y105439D01*
X53429Y105894D02*
Y106719D01*
X2202Y97978D02*
Y99978D01*
Y97978D02*
X2452D01*
Y99978*
X2202D02*
X2452D01*
X2202Y97978D02*
Y99978D01*
Y97978D02*
X2452D01*
Y99978*
X2202D02*
X2452D01*
X2982Y93378D02*
Y95378D01*
Y93378D02*
X3232D01*
Y95378*
X2982D02*
X3232D01*
X2982Y93378D02*
Y95378D01*
Y93378D02*
X3232D01*
Y95378*
X2982D02*
X3232D01*
X118607Y115449D02*
D01*
X118607Y115469*
X118605Y115489*
X118601Y115508*
X118597Y115527*
X11859Y115546*
X118583Y115565*
X118574Y115582*
X118564Y115599*
X118553Y115616*
X118541Y115631*
X118528Y115646*
X118514Y11566*
X118499Y115672*
X118483Y115684*
X118466Y115695*
X118449Y115704*
X118431Y115712*
X118412Y115719*
X118393Y115724*
X118374Y115728*
X118354Y115731*
X118334Y115732*
X118315*
X118295Y115731*
X118275Y115728*
X118256Y115724*
X118237Y115719*
X118218Y115712*
X1182Y115704*
X118183Y115695*
X118166Y115684*
X11815Y115672*
X118135Y11566*
X118121Y115646*
X118108Y115631*
X118096Y115616*
X118084Y115599*
X118075Y115582*
X118066Y115565*
X118059Y115546*
X118052Y115527*
X118048Y115508*
X118044Y115489*
X118042Y115469*
X118041Y115449*
X118042Y11543*
X118044Y11541*
X118048Y115391*
X118052Y115371*
X118059Y115353*
X118066Y115334*
X118075Y115317*
X118084Y1153*
X118096Y115283*
X118108Y115268*
X118121Y115253*
X118135Y115239*
X11815Y115226*
X118166Y115215*
X118183Y115204*
X1182Y115195*
X118218Y115187*
X118237Y11518*
X118256Y115175*
X118275Y115171*
X118295Y115168*
X118315Y115167*
X118334*
X118354Y115168*
X118374Y115171*
X118393Y115175*
X118412Y11518*
X118431Y115187*
X118449Y115195*
X118466Y115204*
X118483Y115215*
X118499Y115226*
X118514Y115239*
X118528Y115253*
X118541Y115268*
X118553Y115283*
X118564Y1153*
X118574Y115317*
X118583Y115334*
X11859Y115353*
X118597Y115371*
X118601Y115391*
X118605Y11541*
X118607Y11543*
X118607Y115449*
Y101449D02*
D01*
X118607Y101469*
X118605Y101489*
X118601Y101508*
X118597Y101527*
X11859Y101546*
X118583Y101565*
X118574Y101582*
X118564Y101599*
X118553Y101616*
X118541Y101631*
X118528Y101646*
X118514Y10166*
X118499Y101672*
X118483Y101684*
X118466Y101695*
X118449Y101704*
X118431Y101712*
X118412Y101719*
X118393Y101724*
X118374Y101728*
X118354Y101731*
X118334Y101732*
X118315*
X118295Y101731*
X118275Y101728*
X118256Y101724*
X118237Y101719*
X118218Y101712*
X1182Y101704*
X118183Y101695*
X118166Y101684*
X11815Y101672*
X118135Y10166*
X118121Y101646*
X118108Y101631*
X118096Y101616*
X118084Y101599*
X118075Y101582*
X118066Y101565*
X118059Y101546*
X118052Y101527*
X118048Y101508*
X118044Y101489*
X118042Y101469*
X118041Y101449*
X118042Y10143*
X118044Y10141*
X118048Y101391*
X118052Y101371*
X118059Y101353*
X118066Y101334*
X118075Y101317*
X118084Y1013*
X118096Y101283*
X118108Y101268*
X118121Y101253*
X118135Y101239*
X11815Y101226*
X118166Y101215*
X118183Y101204*
X1182Y101195*
X118218Y101187*
X118237Y10118*
X118256Y101175*
X118275Y101171*
X118295Y101168*
X118315Y101167*
X118334*
X118354Y101168*
X118374Y101171*
X118393Y101175*
X118412Y10118*
X118431Y101187*
X118449Y101195*
X118466Y101204*
X118483Y101215*
X118499Y101226*
X118514Y101239*
X118528Y101253*
X118541Y101268*
X118553Y101283*
X118564Y1013*
X118574Y101317*
X118583Y101334*
X11859Y101353*
X118597Y101371*
X118601Y101391*
X118605Y10141*
X118607Y10143*
X118607Y101449*
Y108449D02*
D01*
X118607Y108469*
X118605Y108489*
X118601Y108508*
X118597Y108528*
X11859Y108546*
X118583Y108565*
X118574Y108582*
X118564Y108599*
X118553Y108616*
X118541Y108631*
X118528Y108646*
X118514Y10866*
X118499Y108672*
X118483Y108684*
X118466Y108695*
X118449Y108704*
X118431Y108712*
X118412Y108719*
X118393Y108724*
X118374Y108728*
X118354Y108731*
X118334Y108732*
X118315*
X118295Y108731*
X118275Y108728*
X118256Y108724*
X118237Y108719*
X118218Y108712*
X1182Y108704*
X118183Y108695*
X118166Y108684*
X11815Y108672*
X118135Y10866*
X118121Y108646*
X118108Y108631*
X118096Y108616*
X118084Y108599*
X118075Y108582*
X118066Y108565*
X118059Y108546*
X118052Y108528*
X118048Y108508*
X118044Y108489*
X118042Y108469*
X118041Y108449*
X118042Y10843*
X118044Y10841*
X118048Y108391*
X118052Y108371*
X118059Y108353*
X118066Y108334*
X118075Y108317*
X118084Y1083*
X118096Y108283*
X118108Y108268*
X118121Y108253*
X118135Y108239*
X11815Y108226*
X118166Y108215*
X118183Y108204*
X1182Y108195*
X118218Y108187*
X118237Y10818*
X118256Y108175*
X118275Y108171*
X118295Y108168*
X118315Y108167*
X118334*
X118354Y108168*
X118374Y108171*
X118393Y108175*
X118412Y10818*
X118431Y108187*
X118449Y108195*
X118466Y108204*
X118483Y108215*
X118499Y108226*
X118514Y108239*
X118528Y108253*
X118541Y108268*
X118553Y108283*
X118564Y1083*
X118574Y108317*
X118583Y108334*
X11859Y108353*
X118597Y108371*
X118601Y108391*
X118605Y10841*
X118607Y10843*
X118607Y108449*
X113429Y104334D02*
Y105219D01*
Y105894D02*
X113684Y105439D01*
X113429Y105894D02*
Y106719D01*
X8202Y97978D02*
Y99978D01*
Y97978D02*
X8452D01*
Y99978*
X8202D02*
X8452D01*
X8202Y97978D02*
Y99978D01*
Y97978D02*
X8452D01*
Y99978*
X8202D02*
X8452D01*
X8982Y93378D02*
Y95378D01*
Y93378D02*
X9232D01*
Y95378*
X8982D02*
X9232D01*
X8982Y93378D02*
Y95378D01*
Y93378D02*
X9232D01*
Y95378*
X8982D02*
X9232D01*
G54D102*
X26429Y62316D02*
Y63586D01*
X16269Y62316D02*
Y63586D01*
X25794Y64221D02*
X26429Y63586D01*
X23889D02*
X24524Y64221D01*
X23254D02*
X23889Y63586D01*
X21349D02*
X21984Y64221D01*
X20714D02*
X21349Y63586D01*
X18809D02*
X19444Y64221D01*
X18174D02*
X18809Y63586D01*
X16269D02*
X16904Y64221D01*
X25794Y61681D02*
X26429Y62316D01*
X24524Y61681D02*
X25794D01*
X23889Y62316D02*
X24524Y61681D01*
X23254D02*
X23889Y62316D01*
X21984Y61681D02*
X23254D01*
X21349Y62316D02*
X21984Y61681D01*
X20714D02*
X21349Y62316D01*
X19444Y61681D02*
X20714D01*
X18809Y62316D02*
X19444Y61681D01*
X18174D02*
X18809Y62316D01*
X16904Y61681D02*
X18174D01*
X16269Y62316D02*
X16904Y61681D01*
Y64221D02*
X18174D01*
X19444D02*
X20714D01*
X21984D02*
X23254D01*
X24524D02*
X25794D01*
X32184Y59139D02*
X33454D01*
X29644D02*
X30914D01*
X27104D02*
X28374D01*
X24564D02*
X25834D01*
X23929Y54694D02*
X24564Y54059D01*
X25834*
X26469Y54694*
X27104Y54059*
X28374*
X29009Y54694*
X29644Y54059*
X30914*
X31549Y54694*
X32184Y54059*
X33454*
X34089Y54694*
Y58504*
X23929D02*
X24564Y59139D01*
X25834D02*
X26469Y58504D01*
X27104Y59139*
X28374D02*
X29009Y58504D01*
X29644Y59139*
X30914D02*
X31549Y58504D01*
X32184Y59139*
X33454D02*
X34089Y58504D01*
X22024Y54059D02*
X23294D01*
Y59139D02*
X23929Y58504D01*
X21389D02*
X22024Y59139D01*
X23294*
Y54059D02*
X23929Y54694D01*
X20754Y54059D02*
X21389Y54694D01*
X19484Y59139D02*
X20754D01*
X18849Y58504D02*
X19484Y59139D01*
X20754D02*
X21389Y58504D01*
X18849Y54694D02*
X19484Y54059D01*
X20754*
X21389Y54694D02*
X22024Y54059D01*
X16944D02*
X18214D01*
X16309Y54694D02*
X16944Y54059D01*
X16309Y54694D02*
Y58504D01*
X16944Y59139*
X18214*
X18849Y58504*
X18214Y54059D02*
X18849Y54694D01*
X53259Y22477D02*
Y25321D01*
X51939D02*
X53259D01*
X51939Y22477D02*
Y25321D01*
Y22477D02*
X53259D01*
X48934Y36957D02*
Y38329D01*
X49569Y38964*
X55919D02*
X56554Y38329D01*
X54014D02*
X54649Y38964D01*
X53379D02*
X54014Y38329D01*
X51474D02*
X52109Y38964D01*
X50839D02*
X51474Y38329D01*
X55919Y36322D02*
X56554Y36957D01*
X54649Y36322D02*
X55919D01*
X54014Y36957D02*
X54649Y36322D01*
X53379D02*
X54014Y36957D01*
X52109Y36322D02*
X53379D01*
X51474Y36957D02*
X52109Y36322D01*
X50839D02*
X51474Y36957D01*
X49569Y36322D02*
X50839D01*
X48934Y36957D02*
X49569Y36322D01*
Y38964D02*
X50839D01*
X52109D02*
X53379D01*
X54649D02*
X55919D01*
X56554Y36957D02*
Y38329D01*
X05909Y57844D02*
X06544Y58479D01*
X05909Y56574D02*
X06544Y55939D01*
X05909Y55304D02*
X06544Y55939D01*
X05909Y54034D02*
X06544Y53399D01*
X05909Y52764D02*
X06544Y53399D01*
X05909Y51494D02*
X06544Y50859D01*
X05909Y50224D02*
X06544Y50859D01*
X05909Y48954D02*
X06544Y48319D01*
Y58479D02*
X10354D01*
X10989Y57844*
Y56574D02*
Y57844D01*
X10354Y55939D02*
X10989Y56574D01*
X10354Y55939D02*
X10989Y55304D01*
Y54034D02*
Y55304D01*
X10354Y53399D02*
X10989Y54034D01*
X10354Y53399D02*
X10989Y52764D01*
Y51494D02*
Y52764D01*
X10354Y50859D02*
X10989Y51494D01*
X10354Y50859D02*
X10989Y50224D01*
Y48954D02*
Y50224D01*
X10354Y48319D02*
X10989Y48954D01*
X06544Y48319D02*
X10354D01*
X05909Y48954D02*
Y50224D01*
Y51494D02*
Y52764D01*
Y54034D02*
Y55304D01*
Y56574D02*
Y57844D01*
X4598Y20298D02*
X46615Y20933D01*
X4598Y19028D02*
X46615Y18393D01*
X4598Y17758D02*
X46615Y18393D01*
X4598Y16488D02*
X46615Y15853D01*
X4598Y15218D02*
X46615Y15853D01*
X4598Y13948D02*
X46615Y13313D01*
X4598Y12678D02*
X46615Y13313D01*
X4598Y11408D02*
X46615Y10773D01*
X47987Y20933D02*
X48622Y20298D01*
Y19028D02*
Y20298D01*
X47987Y18393D02*
X48622Y19028D01*
X47987Y18393D02*
X48622Y17758D01*
Y16488D02*
Y17758D01*
X47987Y15853D02*
X48622Y16488D01*
X47987Y15853D02*
X48622Y15218D01*
Y13948D02*
Y15218D01*
X47987Y13313D02*
X48622Y13948D01*
X47987Y13313D02*
X48622Y12678D01*
Y11408D02*
Y12678D01*
X47987Y10773D02*
X48622Y11408D01*
X4598D02*
Y12678D01*
Y13948D02*
Y15218D01*
Y16488D02*
Y17758D01*
Y19028D02*
Y20298D01*
X45955Y08868D02*
Y10138D01*
Y08868D02*
X4659Y08233D01*
X45955Y10138D02*
X4659Y10773D01*
X45955Y06328D02*
Y07598D01*
Y06328D02*
X4659Y05693D01*
X45955Y07598D02*
X4659Y08233D01*
X47987Y05693D02*
X48622Y06328D01*
Y07598*
X47987Y08233D02*
X48622Y07598D01*
X47987Y08233D02*
X48622Y08868D01*
Y10138*
X47987Y10773D02*
X48622Y10138D01*
X4659Y05693D02*
X47987D01*
X46615Y20933D02*
X47987D01*
X86429Y62316D02*
Y63586D01*
X76269Y62316D02*
Y63586D01*
X85794Y64221D02*
X86429Y63586D01*
X83889D02*
X84524Y64221D01*
X83254D02*
X83889Y63586D01*
X81349D02*
X81984Y64221D01*
X80714D02*
X81349Y63586D01*
X78809D02*
X79444Y64221D01*
X78174D02*
X78809Y63586D01*
X76269D02*
X76904Y64221D01*
X85794Y61681D02*
X86429Y62316D01*
X84524Y61681D02*
X85794D01*
X83889Y62316D02*
X84524Y61681D01*
X83254D02*
X83889Y62316D01*
X81984Y61681D02*
X83254D01*
X81349Y62316D02*
X81984Y61681D01*
X80714D02*
X81349Y62316D01*
X79444Y61681D02*
X80714D01*
X78809Y62316D02*
X79444Y61681D01*
X78174D02*
X78809Y62316D01*
X76904Y61681D02*
X78174D01*
X76269Y62316D02*
X76904Y61681D01*
Y64221D02*
X78174D01*
X79444D02*
X80714D01*
X81984D02*
X83254D01*
X84524D02*
X85794D01*
X92184Y59139D02*
X93454D01*
X89644D02*
X90914D01*
X87104D02*
X88374D01*
X84564D02*
X85834D01*
X83929Y54694D02*
X84564Y54059D01*
X85834*
X86469Y54694*
X87104Y54059*
X88374*
X89009Y54694*
X89644Y54059*
X90914*
X91549Y54694*
X92184Y54059*
X93454*
X94089Y54694*
Y58504*
X83929D02*
X84564Y59139D01*
X85834D02*
X86469Y58504D01*
X87104Y59139*
X88374D02*
X89009Y58504D01*
X89644Y59139*
X90914D02*
X91549Y58504D01*
X92184Y59139*
X93454D02*
X94089Y58504D01*
X82024Y54059D02*
X83294D01*
Y59139D02*
X83929Y58504D01*
X81389D02*
X82024Y59139D01*
X83294*
Y54059D02*
X83929Y54694D01*
X80754Y54059D02*
X81389Y54694D01*
X79484Y59139D02*
X80754D01*
X78849Y58504D02*
X79484Y59139D01*
X80754D02*
X81389Y58504D01*
X78849Y54694D02*
X79484Y54059D01*
X80754*
X81389Y54694D02*
X82024Y54059D01*
X76944D02*
X78214D01*
X76309Y54694D02*
X76944Y54059D01*
X76309Y54694D02*
Y58504D01*
X76944Y59139*
X78214*
X78849Y58504*
X78214Y54059D02*
X78849Y54694D01*
X113259Y22477D02*
Y25321D01*
X111939D02*
X113259D01*
X111939Y22477D02*
Y25321D01*
Y22477D02*
X113259D01*
X108934Y36957D02*
Y38329D01*
X109569Y38964*
X115919D02*
X116554Y38329D01*
X114014D02*
X114649Y38964D01*
X113379D02*
X114014Y38329D01*
X111474D02*
X112109Y38964D01*
X110839D02*
X111474Y38329D01*
X115919Y36322D02*
X116554Y36957D01*
X114649Y36322D02*
X115919D01*
X114014Y36957D02*
X114649Y36322D01*
X113379D02*
X114014Y36957D01*
X112109Y36322D02*
X113379D01*
X111474Y36957D02*
X112109Y36322D01*
X110839D02*
X111474Y36957D01*
X109569Y36322D02*
X110839D01*
X108934Y36957D02*
X109569Y36322D01*
Y38964D02*
X110839D01*
X112109D02*
X113379D01*
X114649D02*
X115919D01*
X116554Y36957D02*
Y38329D01*
X65909Y57844D02*
X66544Y58479D01*
X65909Y56574D02*
X66544Y55939D01*
X65909Y55304D02*
X66544Y55939D01*
X65909Y54034D02*
X66544Y53399D01*
X65909Y52764D02*
X66544Y53399D01*
X65909Y51494D02*
X66544Y50859D01*
X65909Y50224D02*
X66544Y50859D01*
X65909Y48954D02*
X66544Y48319D01*
Y58479D02*
X70354D01*
X70989Y57844*
Y56574D02*
Y57844D01*
X70354Y55939D02*
X70989Y56574D01*
X70354Y55939D02*
X70989Y55304D01*
Y54034D02*
Y55304D01*
X70354Y53399D02*
X70989Y54034D01*
X70354Y53399D02*
X70989Y52764D01*
Y51494D02*
Y52764D01*
X70354Y50859D02*
X70989Y51494D01*
X70354Y50859D02*
X70989Y50224D01*
Y48954D02*
Y50224D01*
X70354Y48319D02*
X70989Y48954D01*
X66544Y48319D02*
X70354D01*
X65909Y48954D02*
Y50224D01*
Y51494D02*
Y52764D01*
Y54034D02*
Y55304D01*
Y56574D02*
Y57844D01*
X10598Y20298D02*
X106615Y20933D01*
X10598Y19028D02*
X106615Y18393D01*
X10598Y17758D02*
X106615Y18393D01*
X10598Y16488D02*
X106615Y15853D01*
X10598Y15218D02*
X106615Y15853D01*
X10598Y13948D02*
X106615Y13313D01*
X10598Y12678D02*
X106615Y13313D01*
X10598Y11408D02*
X106615Y10773D01*
X107987Y20933D02*
X108622Y20298D01*
Y19028D02*
Y20298D01*
X107987Y18393D02*
X108622Y19028D01*
X107987Y18393D02*
X108622Y17758D01*
Y16488D02*
Y17758D01*
X107987Y15853D02*
X108622Y16488D01*
X107987Y15853D02*
X108622Y15218D01*
Y13948D02*
Y15218D01*
X107987Y13313D02*
X108622Y13948D01*
X107987Y13313D02*
X108622Y12678D01*
Y11408D02*
Y12678D01*
X107987Y10773D02*
X108622Y11408D01*
X10598D02*
Y12678D01*
Y13948D02*
Y15218D01*
Y16488D02*
Y17758D01*
Y19028D02*
Y20298D01*
X105955Y08868D02*
Y10138D01*
Y08868D02*
X10659Y08233D01*
X105955Y10138D02*
X10659Y10773D01*
X105955Y06328D02*
Y07598D01*
Y06328D02*
X10659Y05693D01*
X105955Y07598D02*
X10659Y08233D01*
X107987Y05693D02*
X108622Y06328D01*
Y07598*
X107987Y08233D02*
X108622Y07598D01*
X107987Y08233D02*
X108622Y08868D01*
Y10138*
X107987Y10773D02*
X108622Y10138D01*
X10659Y05693D02*
X107987D01*
X106615Y20933D02*
X107987D01*
X26429Y122316D02*
Y123586D01*
X16269Y122316D02*
Y123586D01*
X25794Y124221D02*
X26429Y123586D01*
X23889D02*
X24524Y124221D01*
X23254D02*
X23889Y123586D01*
X21349D02*
X21984Y124221D01*
X20714D02*
X21349Y123586D01*
X18809D02*
X19444Y124221D01*
X18174D02*
X18809Y123586D01*
X16269D02*
X16904Y124221D01*
X25794Y121681D02*
X26429Y122316D01*
X24524Y121681D02*
X25794D01*
X23889Y122316D02*
X24524Y121681D01*
X23254D02*
X23889Y122316D01*
X21984Y121681D02*
X23254D01*
X21349Y122316D02*
X21984Y121681D01*
X20714D02*
X21349Y122316D01*
X19444Y121681D02*
X20714D01*
X18809Y122316D02*
X19444Y121681D01*
X18174D02*
X18809Y122316D01*
X16904Y121681D02*
X18174D01*
X16269Y122316D02*
X16904Y121681D01*
Y124221D02*
X18174D01*
X19444D02*
X20714D01*
X21984D02*
X23254D01*
X24524D02*
X25794D01*
X32184Y119139D02*
X33454D01*
X29644D02*
X30914D01*
X27104D02*
X28374D01*
X24564D02*
X25834D01*
X23929Y114694D02*
X24564Y114059D01*
X25834*
X26469Y114694*
X27104Y114059*
X28374*
X29009Y114694*
X29644Y114059*
X30914*
X31549Y114694*
X32184Y114059*
X33454*
X34089Y114694*
Y118504*
X23929D02*
X24564Y119139D01*
X25834D02*
X26469Y118504D01*
X27104Y119139*
X28374D02*
X29009Y118504D01*
X29644Y119139*
X30914D02*
X31549Y118504D01*
X32184Y119139*
X33454D02*
X34089Y118504D01*
X22024Y114059D02*
X23294D01*
Y119139D02*
X23929Y118504D01*
X21389D02*
X22024Y119139D01*
X23294*
Y114059D02*
X23929Y114694D01*
X20754Y114059D02*
X21389Y114694D01*
X19484Y119139D02*
X20754D01*
X18849Y118504D02*
X19484Y119139D01*
X20754D02*
X21389Y118504D01*
X18849Y114694D02*
X19484Y114059D01*
X20754*
X21389Y114694D02*
X22024Y114059D01*
X16944D02*
X18214D01*
X16309Y114694D02*
X16944Y114059D01*
X16309Y114694D02*
Y118504D01*
X16944Y119139*
X18214*
X18849Y118504*
X18214Y114059D02*
X18849Y114694D01*
X53259Y82477D02*
Y85321D01*
X51939D02*
X53259D01*
X51939Y82477D02*
Y85321D01*
Y82477D02*
X53259D01*
X48934Y96957D02*
Y98329D01*
X49569Y98964*
X55919D02*
X56554Y98329D01*
X54014D02*
X54649Y98964D01*
X53379D02*
X54014Y98329D01*
X51474D02*
X52109Y98964D01*
X50839D02*
X51474Y98329D01*
X55919Y96322D02*
X56554Y96957D01*
X54649Y96322D02*
X55919D01*
X54014Y96957D02*
X54649Y96322D01*
X53379D02*
X54014Y96957D01*
X52109Y96322D02*
X53379D01*
X51474Y96957D02*
X52109Y96322D01*
X50839D02*
X51474Y96957D01*
X49569Y96322D02*
X50839D01*
X48934Y96957D02*
X49569Y96322D01*
Y98964D02*
X50839D01*
X52109D02*
X53379D01*
X54649D02*
X55919D01*
X56554Y96957D02*
Y98329D01*
X05909Y117844D02*
X06544Y118479D01*
X05909Y116574D02*
X06544Y115939D01*
X05909Y115304D02*
X06544Y115939D01*
X05909Y114034D02*
X06544Y113399D01*
X05909Y112764D02*
X06544Y113399D01*
X05909Y111494D02*
X06544Y110859D01*
X05909Y110224D02*
X06544Y110859D01*
X05909Y108954D02*
X06544Y108319D01*
Y118479D02*
X10354D01*
X10989Y117844*
Y116574D02*
Y117844D01*
X10354Y115939D02*
X10989Y116574D01*
X10354Y115939D02*
X10989Y115304D01*
Y114034D02*
Y115304D01*
X10354Y113399D02*
X10989Y114034D01*
X10354Y113399D02*
X10989Y112764D01*
Y111494D02*
Y112764D01*
X10354Y110859D02*
X10989Y111494D01*
X10354Y110859D02*
X10989Y110224D01*
Y108954D02*
Y110224D01*
X10354Y108319D02*
X10989Y108954D01*
X06544Y108319D02*
X10354D01*
X05909Y108954D02*
Y110224D01*
Y111494D02*
Y112764D01*
Y114034D02*
Y115304D01*
Y116574D02*
Y117844D01*
X4598Y80298D02*
X46615Y80933D01*
X4598Y79028D02*
X46615Y78393D01*
X4598Y77758D02*
X46615Y78393D01*
X4598Y76488D02*
X46615Y75853D01*
X4598Y75218D02*
X46615Y75853D01*
X4598Y73948D02*
X46615Y73313D01*
X4598Y72678D02*
X46615Y73313D01*
X4598Y71408D02*
X46615Y70773D01*
X47987Y80933D02*
X48622Y80298D01*
Y79028D02*
Y80298D01*
X47987Y78393D02*
X48622Y79028D01*
X47987Y78393D02*
X48622Y77758D01*
Y76488D02*
Y77758D01*
X47987Y75853D02*
X48622Y76488D01*
X47987Y75853D02*
X48622Y75218D01*
Y73948D02*
Y75218D01*
X47987Y73313D02*
X48622Y73948D01*
X47987Y73313D02*
X48622Y72678D01*
Y71408D02*
Y72678D01*
X47987Y70773D02*
X48622Y71408D01*
X4598D02*
Y72678D01*
Y73948D02*
Y75218D01*
Y76488D02*
Y77758D01*
Y79028D02*
Y80298D01*
X45955Y68868D02*
Y70138D01*
Y68868D02*
X4659Y68233D01*
X45955Y70138D02*
X4659Y70773D01*
X45955Y66328D02*
Y67598D01*
Y66328D02*
X4659Y65693D01*
X45955Y67598D02*
X4659Y68233D01*
X47987Y65693D02*
X48622Y66328D01*
Y67598*
X47987Y68233D02*
X48622Y67598D01*
X47987Y68233D02*
X48622Y68868D01*
Y70138*
X47987Y70773D02*
X48622Y70138D01*
X4659Y65693D02*
X47987D01*
X46615Y80933D02*
X47987D01*
X86429Y122316D02*
Y123586D01*
X76269Y122316D02*
Y123586D01*
X85794Y124221D02*
X86429Y123586D01*
X83889D02*
X84524Y124221D01*
X83254D02*
X83889Y123586D01*
X81349D02*
X81984Y124221D01*
X80714D02*
X81349Y123586D01*
X78809D02*
X79444Y124221D01*
X78174D02*
X78809Y123586D01*
X76269D02*
X76904Y124221D01*
X85794Y121681D02*
X86429Y122316D01*
X84524Y121681D02*
X85794D01*
X83889Y122316D02*
X84524Y121681D01*
X83254D02*
X83889Y122316D01*
X81984Y121681D02*
X83254D01*
X81349Y122316D02*
X81984Y121681D01*
X80714D02*
X81349Y122316D01*
X79444Y121681D02*
X80714D01*
X78809Y122316D02*
X79444Y121681D01*
X78174D02*
X78809Y122316D01*
X76904Y121681D02*
X78174D01*
X76269Y122316D02*
X76904Y121681D01*
Y124221D02*
X78174D01*
X79444D02*
X80714D01*
X81984D02*
X83254D01*
X84524D02*
X85794D01*
X92184Y119139D02*
X93454D01*
X89644D02*
X90914D01*
X87104D02*
X88374D01*
X84564D02*
X85834D01*
X83929Y114694D02*
X84564Y114059D01*
X85834*
X86469Y114694*
X87104Y114059*
X88374*
X89009Y114694*
X89644Y114059*
X90914*
X91549Y114694*
X92184Y114059*
X93454*
X94089Y114694*
Y118504*
X83929D02*
X84564Y119139D01*
X85834D02*
X86469Y118504D01*
X87104Y119139*
X88374D02*
X89009Y118504D01*
X89644Y119139*
X90914D02*
X91549Y118504D01*
X92184Y119139*
X93454D02*
X94089Y118504D01*
X82024Y114059D02*
X83294D01*
Y119139D02*
X83929Y118504D01*
X81389D02*
X82024Y119139D01*
X83294*
Y114059D02*
X83929Y114694D01*
X80754Y114059D02*
X81389Y114694D01*
X79484Y119139D02*
X80754D01*
X78849Y118504D02*
X79484Y119139D01*
X80754D02*
X81389Y118504D01*
X78849Y114694D02*
X79484Y114059D01*
X80754*
X81389Y114694D02*
X82024Y114059D01*
X76944D02*
X78214D01*
X76309Y114694D02*
X76944Y114059D01*
X76309Y114694D02*
Y118504D01*
X76944Y119139*
X78214*
X78849Y118504*
X78214Y114059D02*
X78849Y114694D01*
X113259Y82477D02*
Y85321D01*
X111939D02*
X113259D01*
X111939Y82477D02*
Y85321D01*
Y82477D02*
X113259D01*
X108934Y96957D02*
Y98329D01*
X109569Y98964*
X115919D02*
X116554Y98329D01*
X114014D02*
X114649Y98964D01*
X113379D02*
X114014Y98329D01*
X111474D02*
X112109Y98964D01*
X110839D02*
X111474Y98329D01*
X115919Y96322D02*
X116554Y96957D01*
X114649Y96322D02*
X115919D01*
X114014Y96957D02*
X114649Y96322D01*
X113379D02*
X114014Y96957D01*
X112109Y96322D02*
X113379D01*
X111474Y96957D02*
X112109Y96322D01*
X110839D02*
X111474Y96957D01*
X109569Y96322D02*
X110839D01*
X108934Y96957D02*
X109569Y96322D01*
Y98964D02*
X110839D01*
X112109D02*
X113379D01*
X114649D02*
X115919D01*
X116554Y96957D02*
Y98329D01*
X65909Y117844D02*
X66544Y118479D01*
X65909Y116574D02*
X66544Y115939D01*
X65909Y115304D02*
X66544Y115939D01*
X65909Y114034D02*
X66544Y113399D01*
X65909Y112764D02*
X66544Y113399D01*
X65909Y111494D02*
X66544Y110859D01*
X65909Y110224D02*
X66544Y110859D01*
X65909Y108954D02*
X66544Y108319D01*
Y118479D02*
X70354D01*
X70989Y117844*
Y116574D02*
Y117844D01*
X70354Y115939D02*
X70989Y116574D01*
X70354Y115939D02*
X70989Y115304D01*
Y114034D02*
Y115304D01*
X70354Y113399D02*
X70989Y114034D01*
X70354Y113399D02*
X70989Y112764D01*
Y111494D02*
Y112764D01*
X70354Y110859D02*
X70989Y111494D01*
X70354Y110859D02*
X70989Y110224D01*
Y108954D02*
Y110224D01*
X70354Y108319D02*
X70989Y108954D01*
X66544Y108319D02*
X70354D01*
X65909Y108954D02*
Y110224D01*
Y111494D02*
Y112764D01*
Y114034D02*
Y115304D01*
Y116574D02*
Y117844D01*
X10598Y80298D02*
X106615Y80933D01*
X10598Y79028D02*
X106615Y78393D01*
X10598Y77758D02*
X106615Y78393D01*
X10598Y76488D02*
X106615Y75853D01*
X10598Y75218D02*
X106615Y75853D01*
X10598Y73948D02*
X106615Y73313D01*
X10598Y72678D02*
X106615Y73313D01*
X10598Y71408D02*
X106615Y70773D01*
X107987Y80933D02*
X108622Y80298D01*
Y79028D02*
Y80298D01*
X107987Y78393D02*
X108622Y79028D01*
X107987Y78393D02*
X108622Y77758D01*
Y76488D02*
Y77758D01*
X107987Y75853D02*
X108622Y76488D01*
X107987Y75853D02*
X108622Y75218D01*
Y73948D02*
Y75218D01*
X107987Y73313D02*
X108622Y73948D01*
X107987Y73313D02*
X108622Y72678D01*
Y71408D02*
Y72678D01*
X107987Y70773D02*
X108622Y71408D01*
X10598D02*
Y72678D01*
Y73948D02*
Y75218D01*
Y76488D02*
Y77758D01*
Y79028D02*
Y80298D01*
X105955Y68868D02*
Y70138D01*
Y68868D02*
X10659Y68233D01*
X105955Y70138D02*
X10659Y70773D01*
X105955Y66328D02*
Y67598D01*
Y66328D02*
X10659Y65693D01*
X105955Y67598D02*
X10659Y68233D01*
X107987Y65693D02*
X108622Y66328D01*
Y67598*
X107987Y68233D02*
X108622Y67598D01*
X107987Y68233D02*
X108622Y68868D01*
Y70138*
X107987Y70773D02*
X108622Y70138D01*
X10659Y65693D02*
X107987D01*
X106615Y80933D02*
X107987D01*
G54D103*
X39424Y54649D02*
X42824D01*
Y57249*
X39424D02*
X42824D01*
X39424Y54649D02*
Y57249D01*
X42949Y49224D02*
X43449D01*
X39449D02*
X39949D01*
X39449D02*
Y49724D01*
Y52724D02*
Y53224D01*
X42949D02*
X43449D01*
X39449D02*
X39949D01*
X43449Y49224D02*
Y49724D01*
Y52724D02*
Y53224D01*
X62924Y33174D02*
X63824D01*
Y34874*
X62924D02*
X63824D01*
X62924Y33174D02*
Y34874D01*
X21145Y41128D02*
Y42028D01*
Y41128D02*
X22845D01*
Y42028*
X21145D02*
X22845D01*
X20795Y38878D02*
X21695D01*
Y40578*
X20795D02*
X21695D01*
X20795Y38878D02*
Y40578D01*
X39624Y32674D02*
Y33574D01*
X37924D02*
X39624D01*
X37924Y32674D02*
Y33574D01*
Y32674D02*
X39624D01*
X30849Y49224D02*
X31749D01*
X30849Y47524D02*
Y49224D01*
Y47524D02*
X31749D01*
Y49224*
X22849Y46749D02*
X23749D01*
X22849Y45049D02*
Y46749D01*
Y45049D02*
X23749D01*
Y46749*
X5017Y18078D02*
Y19778D01*
X4927Y18078D02*
X5017D01*
X4927D02*
Y19778D01*
X5017*
X36224Y56899D02*
X37124D01*
Y58599*
X36224D02*
X37124D01*
X36224Y56899D02*
Y58599D01*
X46074Y48274D02*
Y49174D01*
X44374D02*
X46074D01*
X44374Y48274D02*
Y49174D01*
Y48274D02*
X46074D01*
X12274Y47749D02*
X13174D01*
Y49449*
X12274D02*
X13174D01*
X12274Y47749D02*
Y49449D01*
X21295Y36678D02*
Y37578D01*
Y36678D02*
X22995D01*
Y37578*
X21295D02*
X22995D01*
X4347Y07678D02*
Y08578D01*
X4177D02*
X4347D01*
X4177Y07678D02*
Y08578D01*
Y07678D02*
X4347D01*
X40897Y11274D02*
X41797D01*
Y12974*
X40897D02*
X41797D01*
X40897Y11274D02*
Y12974D01*
X28624Y19349D02*
X29524D01*
Y21049*
X28624D02*
X29524D01*
X28624Y19349D02*
Y21049D01*
X41797Y14655D02*
Y15555D01*
X40097D02*
X41797D01*
X40097Y14655D02*
Y15555D01*
Y14655D02*
X41797D01*
X43499Y22899D02*
Y23799D01*
X41799D02*
X43499D01*
X41799Y22899D02*
Y23799D01*
Y22899D02*
X43499D01*
X39299Y24074D02*
Y24974D01*
X37599D02*
X39299D01*
X37599Y24074D02*
Y24974D01*
Y24074D02*
X39299D01*
X39624Y31224D02*
Y32124D01*
X37924D02*
X39624D01*
X37924Y31224D02*
Y32124D01*
Y31224D02*
X39624D01*
X3272Y35603D02*
Y36503D01*
X3102D02*
X3272D01*
X3102Y35603D02*
Y36503D01*
Y35603D02*
X3272D01*
X3267Y35103D02*
X3357D01*
X3267Y33403D02*
Y35103D01*
Y33403D02*
X3357D01*
Y35103*
X38399Y17674D02*
Y18574D01*
X36699D02*
X38399D01*
X36699Y17674D02*
Y18574D01*
Y17674D02*
X38399D01*
X35099Y19174D02*
X35999D01*
Y20874*
X35099D02*
X35999D01*
X35099Y19174D02*
Y20874D01*
X36724Y22049D02*
Y22949D01*
Y22049D02*
X38424D01*
Y22949*
X36724D02*
X38424D01*
X35149Y30999D02*
X36049D01*
X35149Y29299D02*
Y30999D01*
Y29299D02*
X36049D01*
Y30999*
X36724Y19249D02*
Y20149D01*
Y19249D02*
X38424D01*
Y20149*
X36724D02*
X38424D01*
Y20649D02*
Y21549D01*
X36724D02*
X38424D01*
X36724Y20649D02*
Y21549D01*
Y20649D02*
X38424D01*
X3932Y11253D02*
X4022D01*
Y12953*
X3932D02*
X4022D01*
X3932Y11253D02*
Y12953D01*
X3772Y11253D02*
X3862D01*
Y12953*
X3772D02*
X3862D01*
X3772Y11253D02*
Y12953D01*
X3887Y07678D02*
Y08578D01*
Y07678D02*
X4057D01*
Y08578*
X3887D02*
X4057D01*
X21349Y20524D02*
X22249D01*
Y22224*
X21349D02*
X22249D01*
X21349Y20524D02*
Y22224D01*
X23199Y20499D02*
X24099D01*
Y22199*
X23199D02*
X24099D01*
X23199Y20499D02*
Y22199D01*
X33424Y20324D02*
Y21224D01*
X31724D02*
X33424D01*
X31724Y20324D02*
Y21224D01*
Y20324D02*
X33424D01*
X2997Y32153D02*
Y33053D01*
Y32153D02*
X3167D01*
Y33053*
X2997D02*
X3167D01*
X2097Y34453D02*
X2187D01*
X2097Y32753D02*
Y34453D01*
Y32753D02*
X2187D01*
Y34453*
X40574Y09224D02*
Y10124D01*
X38874D02*
X40574D01*
X38874Y09224D02*
Y10124D01*
Y09224D02*
X40574D01*
X22299Y06274D02*
Y07174D01*
X20599D02*
X22299D01*
X20599Y06274D02*
Y07174D01*
Y06274D02*
X22299D01*
X2417Y32478D02*
Y33378D01*
X2247D02*
X2417D01*
X2247Y32478D02*
Y33378D01*
Y32478D02*
X2417D01*
X51824Y25549D02*
Y26449D01*
X50124D02*
X51824D01*
X50124Y25549D02*
Y26449D01*
Y25549D02*
X51824D01*
X45699Y42949D02*
X46599D01*
Y44649*
X45699D02*
X46599D01*
X45699Y42949D02*
Y44649D01*
X99424Y54649D02*
X102824D01*
Y57249*
X99424D02*
X102824D01*
X99424Y54649D02*
Y57249D01*
X102949Y49224D02*
X103449D01*
X99449D02*
X99949D01*
X99449D02*
Y49724D01*
Y52724D02*
Y53224D01*
X102949D02*
X103449D01*
X99449D02*
X99949D01*
X103449Y49224D02*
Y49724D01*
Y52724D02*
Y53224D01*
X122924Y33174D02*
X123824D01*
Y34874*
X122924D02*
X123824D01*
X122924Y33174D02*
Y34874D01*
X81145Y41128D02*
Y42028D01*
Y41128D02*
X82845D01*
Y42028*
X81145D02*
X82845D01*
X80795Y38878D02*
X81695D01*
Y40578*
X80795D02*
X81695D01*
X80795Y38878D02*
Y40578D01*
X99624Y32674D02*
Y33574D01*
X97924D02*
X99624D01*
X97924Y32674D02*
Y33574D01*
Y32674D02*
X99624D01*
X90849Y49224D02*
X91749D01*
X90849Y47524D02*
Y49224D01*
Y47524D02*
X91749D01*
Y49224*
X82849Y46749D02*
X83749D01*
X82849Y45049D02*
Y46749D01*
Y45049D02*
X83749D01*
Y46749*
X11017Y18078D02*
Y19778D01*
X10927Y18078D02*
X11017D01*
X10927D02*
Y19778D01*
X11017*
X96224Y56899D02*
X97124D01*
Y58599*
X96224D02*
X97124D01*
X96224Y56899D02*
Y58599D01*
X106074Y48274D02*
Y49174D01*
X104374D02*
X106074D01*
X104374Y48274D02*
Y49174D01*
Y48274D02*
X106074D01*
X72274Y47749D02*
X73174D01*
Y49449*
X72274D02*
X73174D01*
X72274Y47749D02*
Y49449D01*
X81295Y36678D02*
Y37578D01*
Y36678D02*
X82995D01*
Y37578*
X81295D02*
X82995D01*
X10347Y07678D02*
Y08578D01*
X10177D02*
X10347D01*
X10177Y07678D02*
Y08578D01*
Y07678D02*
X10347D01*
X100897Y11274D02*
X101797D01*
Y12974*
X100897D02*
X101797D01*
X100897Y11274D02*
Y12974D01*
X88624Y19349D02*
X89524D01*
Y21049*
X88624D02*
X89524D01*
X88624Y19349D02*
Y21049D01*
X101797Y14655D02*
Y15555D01*
X100097D02*
X101797D01*
X100097Y14655D02*
Y15555D01*
Y14655D02*
X101797D01*
X103499Y22899D02*
Y23799D01*
X101799D02*
X103499D01*
X101799Y22899D02*
Y23799D01*
Y22899D02*
X103499D01*
X99299Y24074D02*
Y24974D01*
X97599D02*
X99299D01*
X97599Y24074D02*
Y24974D01*
Y24074D02*
X99299D01*
X99624Y31224D02*
Y32124D01*
X97924D02*
X99624D01*
X97924Y31224D02*
Y32124D01*
Y31224D02*
X99624D01*
X9272Y35603D02*
Y36503D01*
X9102D02*
X9272D01*
X9102Y35603D02*
Y36503D01*
Y35603D02*
X9272D01*
X9267Y35103D02*
X9357D01*
X9267Y33403D02*
Y35103D01*
Y33403D02*
X9357D01*
Y35103*
X98399Y17674D02*
Y18574D01*
X96699D02*
X98399D01*
X96699Y17674D02*
Y18574D01*
Y17674D02*
X98399D01*
X95099Y19174D02*
X95999D01*
Y20874*
X95099D02*
X95999D01*
X95099Y19174D02*
Y20874D01*
X96724Y22049D02*
Y22949D01*
Y22049D02*
X98424D01*
Y22949*
X96724D02*
X98424D01*
X95149Y30999D02*
X96049D01*
X95149Y29299D02*
Y30999D01*
Y29299D02*
X96049D01*
Y30999*
X96724Y19249D02*
Y20149D01*
Y19249D02*
X98424D01*
Y20149*
X96724D02*
X98424D01*
Y20649D02*
Y21549D01*
X96724D02*
X98424D01*
X96724Y20649D02*
Y21549D01*
Y20649D02*
X98424D01*
X9932Y11253D02*
X10022D01*
Y12953*
X9932D02*
X10022D01*
X9932Y11253D02*
Y12953D01*
X9772Y11253D02*
X9862D01*
Y12953*
X9772D02*
X9862D01*
X9772Y11253D02*
Y12953D01*
X9887Y07678D02*
Y08578D01*
Y07678D02*
X10057D01*
Y08578*
X9887D02*
X10057D01*
X81349Y20524D02*
X82249D01*
Y22224*
X81349D02*
X82249D01*
X81349Y20524D02*
Y22224D01*
X83199Y20499D02*
X84099D01*
Y22199*
X83199D02*
X84099D01*
X83199Y20499D02*
Y22199D01*
X93424Y20324D02*
Y21224D01*
X91724D02*
X93424D01*
X91724Y20324D02*
Y21224D01*
Y20324D02*
X93424D01*
X8997Y32153D02*
Y33053D01*
Y32153D02*
X9167D01*
Y33053*
X8997D02*
X9167D01*
X8097Y34453D02*
X8187D01*
X8097Y32753D02*
Y34453D01*
Y32753D02*
X8187D01*
Y34453*
X100574Y09224D02*
Y10124D01*
X98874D02*
X100574D01*
X98874Y09224D02*
Y10124D01*
Y09224D02*
X100574D01*
X82299Y06274D02*
Y07174D01*
X80599D02*
X82299D01*
X80599Y06274D02*
Y07174D01*
Y06274D02*
X82299D01*
X8417Y32478D02*
Y33378D01*
X8247D02*
X8417D01*
X8247Y32478D02*
Y33378D01*
Y32478D02*
X8417D01*
X111824Y25549D02*
Y26449D01*
X110124D02*
X111824D01*
X110124Y25549D02*
Y26449D01*
Y25549D02*
X111824D01*
X105699Y42949D02*
X106599D01*
Y44649*
X105699D02*
X106599D01*
X105699Y42949D02*
Y44649D01*
X39424Y114649D02*
X42824D01*
Y117249*
X39424D02*
X42824D01*
X39424Y114649D02*
Y117249D01*
X42949Y109224D02*
X43449D01*
X39449D02*
X39949D01*
X39449D02*
Y109724D01*
Y112724D02*
Y113224D01*
X42949D02*
X43449D01*
X39449D02*
X39949D01*
X43449Y109224D02*
Y109724D01*
Y112724D02*
Y113224D01*
X62924Y93174D02*
X63824D01*
Y94874*
X62924D02*
X63824D01*
X62924Y93174D02*
Y94874D01*
X21145Y101128D02*
Y102028D01*
Y101128D02*
X22845D01*
Y102028*
X21145D02*
X22845D01*
X20795Y98878D02*
X21695D01*
Y100578*
X20795D02*
X21695D01*
X20795Y98878D02*
Y100578D01*
X39624Y92674D02*
Y93574D01*
X37924D02*
X39624D01*
X37924Y92674D02*
Y93574D01*
Y92674D02*
X39624D01*
X30849Y109224D02*
X31749D01*
X30849Y107524D02*
Y109224D01*
Y107524D02*
X31749D01*
Y109224*
X22849Y106749D02*
X23749D01*
X22849Y105049D02*
Y106749D01*
Y105049D02*
X23749D01*
Y106749*
X5017Y78078D02*
Y79778D01*
X4927Y78078D02*
X5017D01*
X4927D02*
Y79778D01*
X5017*
X36224Y116899D02*
X37124D01*
Y118599*
X36224D02*
X37124D01*
X36224Y116899D02*
Y118599D01*
X46074Y108274D02*
Y109174D01*
X44374D02*
X46074D01*
X44374Y108274D02*
Y109174D01*
Y108274D02*
X46074D01*
X12274Y107749D02*
X13174D01*
Y109449*
X12274D02*
X13174D01*
X12274Y107749D02*
Y109449D01*
X21295Y96678D02*
Y97578D01*
Y96678D02*
X22995D01*
Y97578*
X21295D02*
X22995D01*
X4347Y67678D02*
Y68578D01*
X4177D02*
X4347D01*
X4177Y67678D02*
Y68578D01*
Y67678D02*
X4347D01*
X40897Y71274D02*
X41797D01*
Y72974*
X40897D02*
X41797D01*
X40897Y71274D02*
Y72974D01*
X28624Y79349D02*
X29524D01*
Y81049*
X28624D02*
X29524D01*
X28624Y79349D02*
Y81049D01*
X41797Y74655D02*
Y75555D01*
X40097D02*
X41797D01*
X40097Y74655D02*
Y75555D01*
Y74655D02*
X41797D01*
X43499Y82899D02*
Y83799D01*
X41799D02*
X43499D01*
X41799Y82899D02*
Y83799D01*
Y82899D02*
X43499D01*
X39299Y84074D02*
Y84974D01*
X37599D02*
X39299D01*
X37599Y84074D02*
Y84974D01*
Y84074D02*
X39299D01*
X39624Y91224D02*
Y92124D01*
X37924D02*
X39624D01*
X37924Y91224D02*
Y92124D01*
Y91224D02*
X39624D01*
X3272Y95603D02*
Y96503D01*
X3102D02*
X3272D01*
X3102Y95603D02*
Y96503D01*
Y95603D02*
X3272D01*
X3267Y95103D02*
X3357D01*
X3267Y93403D02*
Y95103D01*
Y93403D02*
X3357D01*
Y95103*
X38399Y77674D02*
Y78574D01*
X36699D02*
X38399D01*
X36699Y77674D02*
Y78574D01*
Y77674D02*
X38399D01*
X35099Y79174D02*
X35999D01*
Y80874*
X35099D02*
X35999D01*
X35099Y79174D02*
Y80874D01*
X36724Y82049D02*
Y82949D01*
Y82049D02*
X38424D01*
Y82949*
X36724D02*
X38424D01*
X35149Y90999D02*
X36049D01*
X35149Y89299D02*
Y90999D01*
Y89299D02*
X36049D01*
Y90999*
X36724Y79249D02*
Y80149D01*
Y79249D02*
X38424D01*
Y80149*
X36724D02*
X38424D01*
Y80649D02*
Y81549D01*
X36724D02*
X38424D01*
X36724Y80649D02*
Y81549D01*
Y80649D02*
X38424D01*
X3932Y71253D02*
X4022D01*
Y72953*
X3932D02*
X4022D01*
X3932Y71253D02*
Y72953D01*
X3772Y71253D02*
X3862D01*
Y72953*
X3772D02*
X3862D01*
X3772Y71253D02*
Y72953D01*
X3887Y67678D02*
Y68578D01*
Y67678D02*
X4057D01*
Y68578*
X3887D02*
X4057D01*
X21349Y80524D02*
X22249D01*
Y82224*
X21349D02*
X22249D01*
X21349Y80524D02*
Y82224D01*
X23199Y80499D02*
X24099D01*
Y82199*
X23199D02*
X24099D01*
X23199Y80499D02*
Y82199D01*
X33424Y80324D02*
Y81224D01*
X31724D02*
X33424D01*
X31724Y80324D02*
Y81224D01*
Y80324D02*
X33424D01*
X2997Y92153D02*
Y93053D01*
Y92153D02*
X3167D01*
Y93053*
X2997D02*
X3167D01*
X2097Y94453D02*
X2187D01*
X2097Y92753D02*
Y94453D01*
Y92753D02*
X2187D01*
Y94453*
X40574Y69224D02*
Y70124D01*
X38874D02*
X40574D01*
X38874Y69224D02*
Y70124D01*
Y69224D02*
X40574D01*
X22299Y66274D02*
Y67174D01*
X20599D02*
X22299D01*
X20599Y66274D02*
Y67174D01*
Y66274D02*
X22299D01*
X2417Y92478D02*
Y93378D01*
X2247D02*
X2417D01*
X2247Y92478D02*
Y93378D01*
Y92478D02*
X2417D01*
X51824Y85549D02*
Y86449D01*
X50124D02*
X51824D01*
X50124Y85549D02*
Y86449D01*
Y85549D02*
X51824D01*
X45699Y102949D02*
X46599D01*
Y104649*
X45699D02*
X46599D01*
X45699Y102949D02*
Y104649D01*
X99424Y114649D02*
X102824D01*
Y117249*
X99424D02*
X102824D01*
X99424Y114649D02*
Y117249D01*
X102949Y109224D02*
X103449D01*
X99449D02*
X99949D01*
X99449D02*
Y109724D01*
Y112724D02*
Y113224D01*
X102949D02*
X103449D01*
X99449D02*
X99949D01*
X103449Y109224D02*
Y109724D01*
Y112724D02*
Y113224D01*
X122924Y93174D02*
X123824D01*
Y94874*
X122924D02*
X123824D01*
X122924Y93174D02*
Y94874D01*
X81145Y101128D02*
Y102028D01*
Y101128D02*
X82845D01*
Y102028*
X81145D02*
X82845D01*
X80795Y98878D02*
X81695D01*
Y100578*
X80795D02*
X81695D01*
X80795Y98878D02*
Y100578D01*
X99624Y92674D02*
Y93574D01*
X97924D02*
X99624D01*
X97924Y92674D02*
Y93574D01*
Y92674D02*
X99624D01*
X90849Y109224D02*
X91749D01*
X90849Y107524D02*
Y109224D01*
Y107524D02*
X91749D01*
Y109224*
X82849Y106749D02*
X83749D01*
X82849Y105049D02*
Y106749D01*
Y105049D02*
X83749D01*
Y106749*
X11017Y78078D02*
Y79778D01*
X10927Y78078D02*
X11017D01*
X10927D02*
Y79778D01*
X11017*
X96224Y116899D02*
X97124D01*
Y118599*
X96224D02*
X97124D01*
X96224Y116899D02*
Y118599D01*
X106074Y108274D02*
Y109174D01*
X104374D02*
X106074D01*
X104374Y108274D02*
Y109174D01*
Y108274D02*
X106074D01*
X72274Y107749D02*
X73174D01*
Y109449*
X72274D02*
X73174D01*
X72274Y107749D02*
Y109449D01*
X81295Y96678D02*
Y97578D01*
Y96678D02*
X82995D01*
Y97578*
X81295D02*
X82995D01*
X10347Y67678D02*
Y68578D01*
X10177D02*
X10347D01*
X10177Y67678D02*
Y68578D01*
Y67678D02*
X10347D01*
X100897Y71274D02*
X101797D01*
Y72974*
X100897D02*
X101797D01*
X100897Y71274D02*
Y72974D01*
X88624Y79349D02*
X89524D01*
Y81049*
X88624D02*
X89524D01*
X88624Y79349D02*
Y81049D01*
X101797Y74655D02*
Y75555D01*
X100097D02*
X101797D01*
X100097Y74655D02*
Y75555D01*
Y74655D02*
X101797D01*
X103499Y82899D02*
Y83799D01*
X101799D02*
X103499D01*
X101799Y82899D02*
Y83799D01*
Y82899D02*
X103499D01*
X99299Y84074D02*
Y84974D01*
X97599D02*
X99299D01*
X97599Y84074D02*
Y84974D01*
Y84074D02*
X99299D01*
X99624Y91224D02*
Y92124D01*
X97924D02*
X99624D01*
X97924Y91224D02*
Y92124D01*
Y91224D02*
X99624D01*
X9272Y95603D02*
Y96503D01*
X9102D02*
X9272D01*
X9102Y95603D02*
Y96503D01*
Y95603D02*
X9272D01*
X9267Y95103D02*
X9357D01*
X9267Y93403D02*
Y95103D01*
Y93403D02*
X9357D01*
Y95103*
X98399Y77674D02*
Y78574D01*
X96699D02*
X98399D01*
X96699Y77674D02*
Y78574D01*
Y77674D02*
X98399D01*
X95099Y79174D02*
X95999D01*
Y80874*
X95099D02*
X95999D01*
X95099Y79174D02*
Y80874D01*
X96724Y82049D02*
Y82949D01*
Y82049D02*
X98424D01*
Y82949*
X96724D02*
X98424D01*
X95149Y90999D02*
X96049D01*
X95149Y89299D02*
Y90999D01*
Y89299D02*
X96049D01*
Y90999*
X96724Y79249D02*
Y80149D01*
Y79249D02*
X98424D01*
Y80149*
X96724D02*
X98424D01*
Y80649D02*
Y81549D01*
X96724D02*
X98424D01*
X96724Y80649D02*
Y81549D01*
Y80649D02*
X98424D01*
X9932Y71253D02*
X10022D01*
Y72953*
X9932D02*
X10022D01*
X9932Y71253D02*
Y72953D01*
X9772Y71253D02*
X9862D01*
Y72953*
X9772D02*
X9862D01*
X9772Y71253D02*
Y72953D01*
X9887Y67678D02*
Y68578D01*
Y67678D02*
X10057D01*
Y68578*
X9887D02*
X10057D01*
X81349Y80524D02*
X82249D01*
Y82224*
X81349D02*
X82249D01*
X81349Y80524D02*
Y82224D01*
X83199Y80499D02*
X84099D01*
Y82199*
X83199D02*
X84099D01*
X83199Y80499D02*
Y82199D01*
X93424Y80324D02*
Y81224D01*
X91724D02*
X93424D01*
X91724Y80324D02*
Y81224D01*
Y80324D02*
X93424D01*
X8997Y92153D02*
Y93053D01*
Y92153D02*
X9167D01*
Y93053*
X8997D02*
X9167D01*
X8097Y94453D02*
X8187D01*
X8097Y92753D02*
Y94453D01*
Y92753D02*
X8187D01*
Y94453*
X100574Y69224D02*
Y70124D01*
X98874D02*
X100574D01*
X98874Y69224D02*
Y70124D01*
Y69224D02*
X100574D01*
X82299Y66274D02*
Y67174D01*
X80599D02*
X82299D01*
X80599Y66274D02*
Y67174D01*
Y66274D02*
X82299D01*
X8417Y92478D02*
Y93378D01*
X8247D02*
X8417D01*
X8247Y92478D02*
Y93378D01*
Y92478D02*
X8417D01*
X111824Y85549D02*
Y86449D01*
X110124D02*
X111824D01*
X110124Y85549D02*
Y86449D01*
Y85549D02*
X111824D01*
X105699Y102949D02*
X106599D01*
Y104649*
X105699D02*
X106599D01*
X105699Y102949D02*
Y104649D01*
G54D104*
X28622Y3673D02*
Y3648D01*
X28672Y3643*
X28772*
X28822Y3648*
Y3673*
X28922Y3668D02*
X28972Y3673D01*
X29072*
X29122Y3668*
Y3663*
X29072Y3658*
X29022*
X29072*
X29122Y3653*
Y3648*
X29072Y3643*
X28972*
X28922Y3648*
X88622Y3673D02*
Y3648D01*
X88672Y3643*
X88772*
X88822Y3648*
Y3673*
X88922Y3668D02*
X88972Y3673D01*
X89072*
X89122Y3668*
Y3663*
X89072Y3658*
X89022*
X89072*
X89122Y3653*
Y3648*
X89072Y3643*
X88972*
X88922Y3648*
X28622Y9673D02*
Y9648D01*
X28672Y9643*
X28772*
X28822Y9648*
Y9673*
X28922Y9668D02*
X28972Y9673D01*
X29072*
X29122Y9668*
Y9663*
X29072Y9658*
X29022*
X29072*
X29122Y9653*
Y9648*
X29072Y9643*
X28972*
X28922Y9648*
X88622Y9673D02*
Y9648D01*
X88672Y9643*
X88772*
X88822Y9648*
Y9673*
X88922Y9668D02*
X88972Y9673D01*
X89072*
X89122Y9668*
Y9663*
X89072Y9658*
X89022*
X89072*
X89122Y9653*
Y9648*
X89072Y9643*
X88972*
X88922Y9648*
G54D105*
X63373Y30602D03*
Y31745D03*
X123373Y30602D03*
Y31745D03*
X63373Y90602D03*
Y91745D03*
X123373Y90602D03*
Y91745D03*
G54D106*
X26724Y07728D03*
Y08998D03*
Y15348D03*
Y16618D03*
Y10268D03*
Y11538D03*
Y12808D03*
Y14078D03*
X86724Y07728D03*
Y08998D03*
Y15348D03*
Y16618D03*
Y10268D03*
Y11538D03*
Y12808D03*
Y14078D03*
X26724Y67728D03*
Y68998D03*
Y75348D03*
Y76618D03*
Y70268D03*
Y71538D03*
Y72808D03*
Y74078D03*
X86724Y67728D03*
Y68998D03*
Y75348D03*
Y76618D03*
Y70268D03*
Y71538D03*
Y72808D03*
Y74078D03*
G54D107*
X35225Y16619D03*
Y15349D03*
Y14079D03*
Y12809D03*
Y11539D03*
Y10269D03*
Y08999D03*
Y07729D03*
X95225Y16619D03*
Y15349D03*
Y14079D03*
Y12809D03*
Y11539D03*
Y10269D03*
Y08999D03*
Y07729D03*
X35225Y76619D03*
Y75349D03*
Y74079D03*
Y72809D03*
Y71539D03*
Y70269D03*
Y68999D03*
Y67729D03*
X95225Y76619D03*
Y75349D03*
Y74079D03*
Y72809D03*
Y71539D03*
Y70269D03*
Y68999D03*
Y67729D03*
G54D108*
X39637Y49412D03*
X99637D03*
X39637Y109412D03*
X99637D03*
G54D109*
X26801Y23075D03*
X86801D03*
X26801Y83075D03*
X86801D03*
G54D110*
X11095Y46503D03*
X71095D03*
X11095Y106503D03*
X71095D03*
G54D111*
X11095Y41453D03*
X71095D03*
X11095Y101453D03*
X71095D03*
G54D112*
X58974Y54074D03*
Y56614D03*
Y49463D03*
Y46923D03*
X58949Y39942D03*
Y42482D03*
X118974Y54074D03*
Y56614D03*
Y49463D03*
Y46923D03*
X118949Y39942D03*
Y42482D03*
X58974Y114074D03*
Y116614D03*
Y109463D03*
Y106923D03*
X58949Y99942D03*
Y102482D03*
X118974Y114074D03*
Y116614D03*
Y109463D03*
Y106923D03*
X118949Y99942D03*
Y102482D03*
G54D113*
X13502Y56999D03*
X14645D03*
X73502D03*
X74645D03*
X13502Y116999D03*
X14645D03*
X73502D03*
X74645D03*
M02*