%FSTAX23Y23*%
%MOMM*%
%SFA1B1*%

%IPPOS*%
%AMD83*
4,1,8,0.939800,0.388620,0.388620,0.939800,-0.388620,0.939800,-0.939800,0.388620,-0.939800,-0.388620,-0.388620,-0.939800,0.388620,-0.939800,0.939800,-0.388620,0.939800,0.388620,0.0*
%
%AMD131*
4,1,8,0.124460,0.452120,-0.124460,0.452120,-0.350520,0.223520,-0.350520,-0.223520,-0.124460,-0.452120,0.124460,-0.452120,0.350520,-0.223520,0.350520,0.223520,0.124460,0.452120,0.0*
1,1,0.454000,0.124460,0.223520*
1,1,0.454000,-0.124460,0.223520*
1,1,0.454000,-0.124460,-0.223520*
1,1,0.454000,0.124460,-0.223520*
%
%AMD147*
4,1,8,-0.452120,0.124460,-0.452120,-0.124460,-0.223520,-0.350520,0.223520,-0.350520,0.452120,-0.124460,0.452120,0.124460,0.223520,0.350520,-0.223520,0.350520,-0.452120,0.124460,0.0*
1,1,0.454000,-0.223520,0.124460*
1,1,0.454000,-0.223520,-0.124460*
1,1,0.454000,0.223520,-0.124460*
1,1,0.454000,0.223520,0.124460*
%
%AMD150*
4,1,8,0.431800,-1.041400,1.041400,-0.431800,1.041400,0.431800,0.431800,1.041400,-0.431800,1.041400,-1.041400,0.431800,-1.041400,-0.431800,-0.431800,-1.041400,0.431800,-1.041400,0.0*
%
%AMD153*
4,1,8,0.762000,-1.041400,0.762000,1.041400,0.381000,1.422400,-0.381000,1.422400,-0.762000,1.041400,-0.762000,-1.041400,-0.381000,-1.422400,0.381000,-1.422400,0.762000,-1.041400,0.0*
%
%AMD154*
4,1,8,1.041400,0.431800,0.431800,1.041400,-0.431800,1.041400,-1.041400,0.431800,-1.041400,-0.431800,-0.431800,-1.041400,0.431800,-1.041400,1.041400,-0.431800,1.041400,0.431800,0.0*
%
G04~CAMADD=83~4~0.0~0.0~739.8~739.8~0.0~216.7~0~0.0~0.0~0.0~0.0~0~0.0~0.0~0.0~0.0~0~0.0~0.0~0.0~315.0~739.8~739.8*
%ADD83D83*%
%ADD90C,1.879996*%
%ADD114R,2.499995X1.224998*%
%ADD115R,1.124998X2.274995*%
%ADD116R,2.174996X1.224998*%
%ADD117R,1.124998X1.999996*%
%ADD118R,3.502993X3.502993*%
%ADD119O,0.452999X1.002998*%
%ADD120O,1.002998X0.452999*%
%ADD121R,1.802996X5.202990*%
%ADD122R,2.402995X3.802992*%
%ADD123R,2.437995X1.421997*%
%ADD124R,1.726997X0.964998*%
%ADD125R,1.102998X1.002998*%
%ADD126R,1.302997X1.602997*%
%ADD127R,0.964998X0.964998*%
%ADD128R,1.202998X1.302997*%
%ADD129R,1.102998X1.002998*%
%ADD130R,2.402995X0.962998*%
G04~CAMADD=131~8~0.0~0.0~276.8~355.5~89.4~0.0~15~0.0~0.0~0.0~0.0~0~0.0~0.0~0.0~0.0~0~0.0~0.0~0.0~0.0~276.8~355.5*
%ADD131D131*%
%ADD132R,1.202998X1.502997*%
%ADD133R,0.852998X2.402995*%
%ADD134R,1.452997X3.952992*%
%ADD135R,1.199998X2.399995*%
%ADD136R,3.502993X1.602997*%
%ADD137R,1.052998X0.552999*%
%ADD138R,0.552999X1.052998*%
%ADD139R,2.902994X2.902994*%
%ADD140R,1.402997X0.432999*%
%ADD141R,0.432999X1.402997*%
%ADD142R,2.362995X1.982996*%
%ADD143R,0.902998X1.402997*%
%ADD144R,0.999998X0.899998*%
%ADD145C,1.999996*%
%ADD146R,0.899998X0.999998*%
G04~CAMADD=147~8~0.0~0.0~276.8~355.5~89.4~0.0~15~0.0~0.0~0.0~0.0~0~0.0~0.0~0.0~0.0~0~0.0~0.0~0.0~90.0~356.0~276.0*
%ADD147D147*%
%ADD148R,0.964998X0.964998*%
%ADD149C,1.726997*%
G04~CAMADD=150~4~0.0~0.0~819.9~819.9~0.0~240.1~0~0.0~0.0~0.0~0.0~0~0.0~0.0~0.0~0.0~0~0.0~0.0~0.0~225.0~819.9~819.9*
%ADD150D150*%
%ADD151R,2.615995X2.615995*%
%ADD152C,2.615995*%
G04~CAMADD=153~4~0.0~0.0~1120.1~600.0~0.0~150.0~0~0.0~0.0~0.0~0.0~0~0.0~0.0~0.0~0.0~0~0.0~0.0~0.0~270.0~600.0~1120.0*
%ADD153D153*%
G04~CAMADD=154~4~0.0~0.0~819.9~819.9~0.0~240.1~0~0.0~0.0~0.0~0.0~0~0.0~0.0~0.0~0.0~0~0.0~0.0~0.0~315.0~819.9~819.9*
%ADD154D154*%
%ADD155C,2.557995*%
%ADD156C,3.452993*%
%ADD157R,2.234996X2.234996*%
%ADD158C,2.234996*%
%ADD159C,2.082996*%
%LNsnarc_panel-1*%
%LPD*%
G54D83*
X10564Y11619D03*
X70564D03*
X10564Y71619D03*
X70564D03*
G54D90*
X17164Y08314D03*
Y10604D03*
Y19744D03*
Y22034D03*
X12344Y18729D03*
X10564Y17739D03*
X12344Y16689D03*
X10564Y15699D03*
X12344Y14649D03*
X10564Y13659D03*
X12344Y12609D03*
X77164Y08314D03*
Y10604D03*
Y19744D03*
Y22034D03*
X72344Y18729D03*
X70564Y17739D03*
X72344Y16689D03*
X70564Y15699D03*
X72344Y14649D03*
X70564Y13659D03*
X72344Y12609D03*
X17164Y68314D03*
Y70604D03*
Y79744D03*
Y82034D03*
X12344Y78729D03*
X10564Y77739D03*
X12344Y76689D03*
X10564Y75699D03*
X12344Y74649D03*
X10564Y73659D03*
X12344Y72609D03*
X77164Y68314D03*
Y70604D03*
Y79744D03*
Y82034D03*
X72344Y78729D03*
X70564Y77739D03*
X72344Y76689D03*
X70564Y75699D03*
X72344Y74649D03*
X70564Y73659D03*
X72344Y72609D03*
G54D114*
X41449Y49337D03*
X101449D03*
X41449Y109337D03*
X101449D03*
G54D115*
X43387Y51161D03*
X103386D03*
X43387Y111161D03*
X103386D03*
G54D116*
X41512Y53061D03*
X101511D03*
X41512Y113061D03*
X101511D03*
G54D117*
X39562Y51224D03*
X99561D03*
X39562Y111224D03*
X99561D03*
G54D118*
X2792Y41253D03*
X8792D03*
X2792Y101253D03*
X8792D03*
G54D119*
X2617Y43753D03*
X2667D03*
X2717D03*
X2767D03*
X2817D03*
X2867D03*
X2917D03*
X2967D03*
Y38753D03*
X2917D03*
X2867D03*
X2817D03*
X2767D03*
X2717D03*
X2667D03*
X2617D03*
X8617Y43753D03*
X8667D03*
X8717D03*
X8767D03*
X8817D03*
X8867D03*
X8917D03*
X8967D03*
Y38753D03*
X8917D03*
X8867D03*
X8817D03*
X8767D03*
X8717D03*
X8667D03*
X8617D03*
X2617Y103753D03*
X2667D03*
X2717D03*
X2767D03*
X2817D03*
X2867D03*
X2917D03*
X2967D03*
Y98753D03*
X2917D03*
X2867D03*
X2817D03*
X2767D03*
X2717D03*
X2667D03*
X2617D03*
X8617Y103753D03*
X8667D03*
X8717D03*
X8767D03*
X8817D03*
X8867D03*
X8917D03*
X8967D03*
Y98753D03*
X8917D03*
X8867D03*
X8817D03*
X8767D03*
X8717D03*
X8667D03*
X8617D03*
G54D120*
X3042Y43003D03*
Y42503D03*
Y42003D03*
Y41503D03*
Y41003D03*
Y40503D03*
Y40003D03*
Y39503D03*
X2542D03*
Y40003D03*
Y40503D03*
Y41003D03*
Y41503D03*
Y42003D03*
Y42503D03*
Y43003D03*
X9042D03*
Y42503D03*
Y42003D03*
Y41503D03*
Y41003D03*
Y40503D03*
Y40003D03*
Y39503D03*
X8542D03*
Y40003D03*
Y40503D03*
Y41003D03*
Y41503D03*
Y42003D03*
Y42503D03*
Y43003D03*
X3042Y103003D03*
Y102503D03*
Y102003D03*
Y101503D03*
Y101003D03*
Y100503D03*
Y100003D03*
Y99503D03*
X2542D03*
Y100003D03*
Y100503D03*
Y101003D03*
Y101503D03*
Y102003D03*
Y102503D03*
Y103003D03*
X9042D03*
Y102503D03*
Y102003D03*
Y101503D03*
Y101003D03*
Y100503D03*
Y100003D03*
Y99503D03*
X8542D03*
Y100003D03*
Y100503D03*
Y101003D03*
Y101503D03*
Y102003D03*
Y102503D03*
Y103003D03*
G54D121*
X50874Y52524D03*
Y61924D03*
X110874Y52524D03*
Y61924D03*
X50874Y112524D03*
Y121924D03*
X110874Y112524D03*
Y121924D03*
G54D122*
X47148Y38999D03*
X107148D03*
X47148Y98999D03*
X107148D03*
G54D123*
X4095Y36688D03*
Y38999D03*
Y4131D03*
X10095Y36688D03*
Y38999D03*
Y4131D03*
X4095Y96688D03*
Y98999D03*
Y10131D03*
X10095Y96688D03*
Y98999D03*
Y10131D03*
G54D124*
X54064Y43544D03*
X48984D03*
X54064Y47354D03*
X48984D03*
X114064Y43544D03*
X108984D03*
X114064Y47354D03*
X108984D03*
X54064Y103544D03*
X48984D03*
X54064Y107354D03*
X48984D03*
X114064Y103544D03*
X108984D03*
X114064Y107354D03*
X108984D03*
G54D125*
X53699Y23899D03*
X51599Y22949D03*
Y24849D03*
X113699Y23899D03*
X111599Y22949D03*
Y24849D03*
X53699Y83899D03*
X51599Y82949D03*
Y84849D03*
X113699Y83899D03*
X111599Y82949D03*
Y84849D03*
G54D126*
X15024Y54299D03*
X13424D03*
X15024Y51299D03*
X13424D03*
X75024Y54299D03*
X73424D03*
X75024Y51299D03*
X73424D03*
X15024Y114299D03*
X13424D03*
X15024Y111299D03*
X13424D03*
X75024Y114299D03*
X73424D03*
X75024Y111299D03*
X73424D03*
G54D127*
X63374Y30412D03*
Y31936D03*
X123374Y30412D03*
Y31936D03*
X63374Y90412D03*
Y91936D03*
X123374Y90412D03*
Y91936D03*
G54D128*
X36499Y34199D03*
Y32499D03*
X34445Y32503D03*
Y34203D03*
X96499Y34199D03*
Y32499D03*
X94445Y32503D03*
Y34203D03*
X36499Y94199D03*
Y92499D03*
X34445Y92503D03*
Y94203D03*
X96499Y94199D03*
Y92499D03*
X94445Y92503D03*
Y94203D03*
G54D129*
X2242Y39578D03*
X2407D03*
Y38328D03*
X2242D03*
X3022Y34978D03*
X3187D03*
Y33728D03*
X3022D03*
X8242Y39578D03*
X8407D03*
Y38328D03*
X8242D03*
X9022Y34978D03*
X9187D03*
Y33728D03*
X9022D03*
X2242Y99578D03*
X2407D03*
Y98328D03*
X2242D03*
X3022Y94978D03*
X3187D03*
Y93728D03*
X3022D03*
X8242Y99578D03*
X8407D03*
Y98328D03*
X8242D03*
X9022Y94978D03*
X9187D03*
Y93728D03*
X9022D03*
G54D130*
X26846Y07729D03*
Y08999D03*
Y10269D03*
Y11539D03*
Y12809D03*
Y14079D03*
Y15349D03*
Y16619D03*
X35102D03*
Y15349D03*
Y14079D03*
Y12809D03*
Y11539D03*
Y10269D03*
Y08999D03*
Y07729D03*
X86847D03*
Y08999D03*
Y10269D03*
Y11539D03*
Y12809D03*
Y14079D03*
Y15349D03*
Y16619D03*
X95102D03*
Y15349D03*
Y14079D03*
Y12809D03*
Y11539D03*
Y10269D03*
Y08999D03*
Y07729D03*
X26846Y67729D03*
Y68999D03*
Y70269D03*
Y71539D03*
Y72809D03*
Y74079D03*
Y75349D03*
Y76619D03*
X35102D03*
Y75349D03*
Y74079D03*
Y72809D03*
Y71539D03*
Y70269D03*
Y68999D03*
Y67729D03*
X86847D03*
Y68999D03*
Y70269D03*
Y71539D03*
Y72809D03*
Y74079D03*
Y75349D03*
Y76619D03*
X95102D03*
Y75349D03*
Y74079D03*
Y72809D03*
Y71539D03*
Y70269D03*
Y68999D03*
Y67729D03*
G54D131*
X26895Y45828D03*
X27695D03*
X28495D03*
X29295D03*
X26895Y47228D03*
X27695D03*
X28495D03*
X29295D03*
X19245Y51478D03*
X18445D03*
X17645D03*
X16845D03*
X19245Y50078D03*
X18445D03*
X17645D03*
X16845D03*
X86895Y45828D03*
X87695D03*
X88495D03*
X89295D03*
X86895Y47228D03*
X87695D03*
X88495D03*
X89295D03*
X79245Y51478D03*
X78445D03*
X77645D03*
X76845D03*
X79245Y50078D03*
X78445D03*
X77645D03*
X76845D03*
X26895Y105828D03*
X27695D03*
X28495D03*
X29295D03*
X26895Y107228D03*
X27695D03*
X28495D03*
X29295D03*
X19245Y111478D03*
X18445D03*
X17645D03*
X16845D03*
X19245Y110078D03*
X18445D03*
X17645D03*
X16845D03*
X86895Y105828D03*
X87695D03*
X88495D03*
X89295D03*
X86895Y107228D03*
X87695D03*
X88495D03*
X89295D03*
X79245Y111478D03*
X78445D03*
X77645D03*
X76845D03*
X79245Y110078D03*
X78445D03*
X77645D03*
X76845D03*
G54D132*
X16775Y33453D03*
X19315D03*
X16775Y39453D03*
X19315D03*
X13615Y39478D03*
X11075D03*
X13615Y33478D03*
X11075D03*
X76775Y33453D03*
X79315D03*
X76775Y39453D03*
X79315D03*
X73615Y39478D03*
X71075D03*
X73615Y33478D03*
X71075D03*
X16775Y93453D03*
X19315D03*
X16775Y99453D03*
X19315D03*
X13615Y99478D03*
X11075D03*
X13615Y93478D03*
X11075D03*
X76775Y93453D03*
X79315D03*
X76775Y99453D03*
X79315D03*
X73615Y99478D03*
X71075D03*
X73615Y93478D03*
X71075D03*
G54D133*
X42624Y17349D03*
Y21049D03*
X40524Y59324D03*
Y63024D03*
X102624Y17349D03*
Y21049D03*
X100524Y59324D03*
Y63024D03*
X42624Y77349D03*
Y81049D03*
X40524Y119324D03*
Y123024D03*
X102624Y77349D03*
Y81049D03*
X100524Y119324D03*
Y123024D03*
G54D134*
X42845Y27578D03*
X40305D03*
X37765D03*
X19985D03*
X17445D03*
X14905D03*
Y45578D03*
X17445D03*
X19985D03*
X37765D03*
X40305D03*
X42845D03*
X102845Y27578D03*
X100305D03*
X97765D03*
X79985D03*
X77445D03*
X74905D03*
Y45578D03*
X77445D03*
X79985D03*
X97765D03*
X100305D03*
X102845D03*
X42845Y87578D03*
X40305D03*
X37765D03*
X19985D03*
X17445D03*
X14905D03*
Y105578D03*
X17445D03*
X19985D03*
X37765D03*
X40305D03*
X42845D03*
X102845Y87578D03*
X100305D03*
X97765D03*
X79985D03*
X77445D03*
X74905D03*
Y105578D03*
X77445D03*
X79985D03*
X97765D03*
X100305D03*
X102845D03*
G54D135*
X39424Y55949D03*
X42824D03*
X99424D03*
X102824D03*
X39424Y115949D03*
X42824D03*
X99424D03*
X102824D03*
G54D136*
X36474Y51349D03*
Y55149D03*
X96474Y51349D03*
Y55149D03*
X36474Y111349D03*
Y115149D03*
X96474Y111349D03*
Y115149D03*
G54D137*
X39524Y50249D03*
Y50899D03*
Y51549D03*
Y52199D03*
X43424Y50249D03*
Y51549D03*
Y50899D03*
Y52199D03*
X99524Y50249D03*
Y50899D03*
Y51549D03*
Y52199D03*
X103424Y50249D03*
Y51549D03*
Y50899D03*
Y52199D03*
X39524Y110249D03*
Y110899D03*
Y111549D03*
Y112199D03*
X43424Y110249D03*
Y111549D03*
Y110899D03*
Y112199D03*
X99524Y110249D03*
Y110899D03*
Y111549D03*
Y112199D03*
X103424Y110249D03*
Y111549D03*
Y110899D03*
Y112199D03*
G54D138*
X40474Y53149D03*
X41124D03*
X41774D03*
X42424D03*
X40474Y49249D03*
X42424D03*
X41774D03*
X41124D03*
X100474Y53149D03*
X101124D03*
X101774D03*
X102424D03*
X100474Y49249D03*
X102424D03*
X101774D03*
X101124D03*
X40474Y113149D03*
X41124D03*
X41774D03*
X42424D03*
X40474Y109249D03*
X42424D03*
X41774D03*
X41124D03*
X100474Y113149D03*
X101124D03*
X101774D03*
X102424D03*
X100474Y109249D03*
X102424D03*
X101774D03*
X101124D03*
G54D139*
X41449Y51224D03*
X101449D03*
X41449Y111224D03*
X101449D03*
G54D140*
X26199Y23649D03*
Y24149D03*
Y24649D03*
Y25149D03*
Y25649D03*
Y26149D03*
Y26649D03*
Y27149D03*
Y27649D03*
Y28149D03*
Y28649D03*
Y29149D03*
X34049D03*
Y28649D03*
Y28149D03*
Y27649D03*
Y27149D03*
Y26649D03*
Y26149D03*
Y25649D03*
Y25149D03*
Y24649D03*
Y24149D03*
Y23649D03*
X86199D03*
Y24149D03*
Y24649D03*
Y25149D03*
Y25649D03*
Y26149D03*
Y26649D03*
Y27149D03*
Y27649D03*
Y28149D03*
Y28649D03*
Y29149D03*
X94049D03*
Y28649D03*
Y28149D03*
Y27649D03*
Y27149D03*
Y26649D03*
Y26149D03*
Y25649D03*
Y25149D03*
Y24649D03*
Y24149D03*
Y23649D03*
X26199Y83649D03*
Y84149D03*
Y84649D03*
Y85149D03*
Y85649D03*
Y86149D03*
Y86649D03*
Y87149D03*
Y87649D03*
Y88149D03*
Y88649D03*
Y89149D03*
X34049D03*
Y88649D03*
Y88149D03*
Y87649D03*
Y87149D03*
Y86649D03*
Y86149D03*
Y85649D03*
Y85149D03*
Y84649D03*
Y84149D03*
Y83649D03*
X86199D03*
Y84149D03*
Y84649D03*
Y85149D03*
Y85649D03*
Y86149D03*
Y86649D03*
Y87149D03*
Y87649D03*
Y88149D03*
Y88649D03*
Y89149D03*
X94049D03*
Y88649D03*
Y88149D03*
Y87649D03*
Y87149D03*
Y86649D03*
Y86149D03*
Y85649D03*
Y85149D03*
Y84649D03*
Y84149D03*
Y83649D03*
G54D141*
X27374Y30324D03*
X27874D03*
X28374D03*
X28874D03*
X29374D03*
X29874D03*
X30374D03*
X30874D03*
X31374D03*
X31874D03*
X32374D03*
X32874D03*
Y22474D03*
X32374D03*
X31874D03*
X31374D03*
X30874D03*
X30374D03*
X29874D03*
X29374D03*
X28874D03*
X28374D03*
X27874D03*
X27374D03*
X87374Y30324D03*
X87874D03*
X88374D03*
X88874D03*
X89374D03*
X89874D03*
X90374D03*
X90874D03*
X91374D03*
X91874D03*
X92374D03*
X92874D03*
Y22474D03*
X92374D03*
X91874D03*
X91374D03*
X90874D03*
X90374D03*
X89874D03*
X89374D03*
X88874D03*
X88374D03*
X87874D03*
X87374D03*
X27374Y90324D03*
X27874D03*
X28374D03*
X28874D03*
X29374D03*
X29874D03*
X30374D03*
X30874D03*
X31374D03*
X31874D03*
X32374D03*
X32874D03*
Y82474D03*
X32374D03*
X31874D03*
X31374D03*
X30874D03*
X30374D03*
X29874D03*
X29374D03*
X28874D03*
X28374D03*
X27874D03*
X27374D03*
X87374Y90324D03*
X87874D03*
X88374D03*
X88874D03*
X89374D03*
X89874D03*
X90374D03*
X90874D03*
X91374D03*
X91874D03*
X92374D03*
X92874D03*
Y82474D03*
X92374D03*
X91874D03*
X91374D03*
X90874D03*
X90374D03*
X89874D03*
X89374D03*
X88874D03*
X88374D03*
X87874D03*
X87374D03*
G54D142*
X11095Y41938D03*
Y46008D03*
X71095Y41938D03*
Y46008D03*
X11095Y101938D03*
Y106008D03*
X71095Y101938D03*
Y106008D03*
G54D143*
X61699Y29524D03*
Y33224D03*
X50274Y11949D03*
Y15649D03*
X121699Y29524D03*
Y33224D03*
X110274Y11949D03*
Y15649D03*
X61699Y89524D03*
Y93224D03*
X50274Y71949D03*
Y75649D03*
X121699Y89524D03*
Y93224D03*
X110274Y71949D03*
Y75649D03*
G54D144*
X63374Y33324D03*
Y34724D03*
X21245Y39028D03*
Y40428D03*
X31299Y49074D03*
Y47674D03*
X23299Y46599D03*
Y45199D03*
X4972Y18228D03*
Y19628D03*
X36674Y57049D03*
Y58449D03*
X12724Y47899D03*
Y49299D03*
X41347Y11424D03*
Y12824D03*
X29074Y19499D03*
Y20899D03*
X3312Y34953D03*
Y33553D03*
X35549Y19324D03*
Y20724D03*
X35599Y30849D03*
Y29449D03*
X3977Y11403D03*
Y12803D03*
X3817Y11403D03*
Y12803D03*
X21799Y20674D03*
Y22074D03*
X23649Y20649D03*
Y22049D03*
X2142Y34303D03*
Y32903D03*
X46149Y43099D03*
Y44499D03*
X123374Y33324D03*
Y34724D03*
X81245Y39028D03*
Y40428D03*
X91299Y49074D03*
Y47674D03*
X83299Y46599D03*
Y45199D03*
X10972Y18228D03*
Y19628D03*
X96674Y57049D03*
Y58449D03*
X72724Y47899D03*
Y49299D03*
X101347Y11424D03*
Y12824D03*
X89074Y19499D03*
Y20899D03*
X9312Y34953D03*
Y33553D03*
X95549Y19324D03*
Y20724D03*
X95599Y30849D03*
Y29449D03*
X9977Y11403D03*
Y12803D03*
X9817Y11403D03*
Y12803D03*
X81799Y20674D03*
Y22074D03*
X83649Y20649D03*
Y22049D03*
X8142Y34303D03*
Y32903D03*
X106149Y43099D03*
Y44499D03*
X63374Y93324D03*
Y94724D03*
X21245Y99028D03*
Y100428D03*
X31299Y109074D03*
Y107674D03*
X23299Y106599D03*
Y105199D03*
X4972Y78228D03*
Y79628D03*
X36674Y117049D03*
Y118449D03*
X12724Y107899D03*
Y109299D03*
X41347Y71424D03*
Y72824D03*
X29074Y79499D03*
Y80899D03*
X3312Y94953D03*
Y93553D03*
X35549Y79324D03*
Y80724D03*
X35599Y90849D03*
Y89449D03*
X3977Y71403D03*
Y72803D03*
X3817Y71403D03*
Y72803D03*
X21799Y80674D03*
Y82074D03*
X23649Y80649D03*
Y82049D03*
X2142Y94303D03*
Y92903D03*
X46149Y103099D03*
Y104499D03*
X123374Y93324D03*
Y94724D03*
X81245Y99028D03*
Y100428D03*
X91299Y109074D03*
Y107674D03*
X83299Y106599D03*
Y105199D03*
X10972Y78228D03*
Y79628D03*
X96674Y117049D03*
Y118449D03*
X72724Y107899D03*
Y109299D03*
X101347Y71424D03*
Y72824D03*
X89074Y79499D03*
Y80899D03*
X9312Y94953D03*
Y93553D03*
X95549Y79324D03*
Y80724D03*
X95599Y90849D03*
Y89449D03*
X9977Y71403D03*
Y72803D03*
X9817Y71403D03*
Y72803D03*
X81799Y80674D03*
Y82074D03*
X83649Y80649D03*
Y82049D03*
X8142Y94303D03*
Y92903D03*
X106149Y103099D03*
Y104499D03*
G54D145*
X12999Y60999D03*
X56999Y09999D03*
X72999Y60999D03*
X116999Y09999D03*
X12999Y120999D03*
X56999Y69999D03*
X72999Y120999D03*
X116999Y69999D03*
G54D146*
X21295Y41578D03*
X22695D03*
X39474Y33124D03*
X38074D03*
X45924Y48724D03*
X44524D03*
X21445Y37128D03*
X22845D03*
X4332Y08128D03*
X4192D03*
X41647Y15105D03*
X40247D03*
X43349Y23349D03*
X41949D03*
X39149Y24524D03*
X37749D03*
X39474Y31674D03*
X38074D03*
X3257Y36053D03*
X3117D03*
X38249Y18124D03*
X36849D03*
X36874Y22499D03*
X38274D03*
X36874Y19699D03*
X38274D03*
Y21099D03*
X36874D03*
X3902Y08128D03*
X4042D03*
X33274Y20774D03*
X31874D03*
X3012Y32603D03*
X3152D03*
X40424Y09674D03*
X39024D03*
X22149Y06724D03*
X20749D03*
X2402Y32928D03*
X2262D03*
X51674Y25999D03*
X50274D03*
X81295Y41578D03*
X82695D03*
X99474Y33124D03*
X98074D03*
X105924Y48724D03*
X104524D03*
X81445Y37128D03*
X82845D03*
X10332Y08128D03*
X10192D03*
X101647Y15105D03*
X100247D03*
X103349Y23349D03*
X101949D03*
X99149Y24524D03*
X97749D03*
X99474Y31674D03*
X98074D03*
X9257Y36053D03*
X9117D03*
X98249Y18124D03*
X96849D03*
X96874Y22499D03*
X98274D03*
X96874Y19699D03*
X98274D03*
Y21099D03*
X96874D03*
X9902Y08128D03*
X10042D03*
X93274Y20774D03*
X91874D03*
X9012Y32603D03*
X9152D03*
X100424Y09674D03*
X99024D03*
X82149Y06724D03*
X80749D03*
X8402Y32928D03*
X8262D03*
X111674Y25999D03*
X110274D03*
X21295Y101578D03*
X22695D03*
X39474Y93124D03*
X38074D03*
X45924Y108724D03*
X44524D03*
X21445Y97128D03*
X22845D03*
X4332Y68128D03*
X4192D03*
X41647Y75105D03*
X40247D03*
X43349Y83349D03*
X41949D03*
X39149Y84524D03*
X37749D03*
X39474Y91674D03*
X38074D03*
X3257Y96053D03*
X3117D03*
X38249Y78124D03*
X36849D03*
X36874Y82499D03*
X38274D03*
X36874Y79699D03*
X38274D03*
Y81099D03*
X36874D03*
X3902Y68128D03*
X4042D03*
X33274Y80774D03*
X31874D03*
X3012Y92603D03*
X3152D03*
X40424Y69674D03*
X39024D03*
X22149Y66724D03*
X20749D03*
X2402Y92928D03*
X2262D03*
X51674Y85999D03*
X50274D03*
X81295Y101578D03*
X82695D03*
X99474Y93124D03*
X98074D03*
X105924Y108724D03*
X104524D03*
X81445Y97128D03*
X82845D03*
X10332Y68128D03*
X10192D03*
X101647Y75105D03*
X100247D03*
X103349Y83349D03*
X101949D03*
X99149Y84524D03*
X97749D03*
X99474Y91674D03*
X98074D03*
X9257Y96053D03*
X9117D03*
X98249Y78124D03*
X96849D03*
X96874Y82499D03*
X98274D03*
X96874Y79699D03*
X98274D03*
Y81099D03*
X96874D03*
X9902Y68128D03*
X10042D03*
X93274Y80774D03*
X91874D03*
X9012Y92603D03*
X9152D03*
X100424Y69674D03*
X99024D03*
X82149Y66724D03*
X80749D03*
X8402Y92928D03*
X8262D03*
X111674Y85999D03*
X110274D03*
G54D147*
X24049Y28374D03*
Y29174D03*
Y29974D03*
Y30774D03*
X22649Y28374D03*
Y29174D03*
Y29974D03*
Y30774D03*
X24074Y24574D03*
Y25374D03*
Y26174D03*
Y26974D03*
X22674Y24574D03*
Y25374D03*
Y26174D03*
Y26974D03*
X84049Y28374D03*
Y29174D03*
Y29974D03*
Y30774D03*
X82649Y28374D03*
Y29174D03*
Y29974D03*
Y30774D03*
X84074Y24574D03*
Y25374D03*
Y26174D03*
Y26974D03*
X82674Y24574D03*
Y25374D03*
Y26174D03*
Y26974D03*
X24049Y88374D03*
Y89174D03*
Y89974D03*
Y90774D03*
X22649Y88374D03*
Y89174D03*
Y89974D03*
Y90774D03*
X24074Y84574D03*
Y85374D03*
Y86174D03*
Y86974D03*
X22674Y84574D03*
Y85374D03*
Y86174D03*
Y86974D03*
X84049Y88374D03*
Y89174D03*
Y89974D03*
Y90774D03*
X82649Y88374D03*
Y89174D03*
Y89974D03*
Y90774D03*
X84074Y84574D03*
Y85374D03*
Y86174D03*
Y86974D03*
X82674Y84574D03*
Y85374D03*
Y86174D03*
Y86974D03*
G54D148*
X13312Y56999D03*
X14836D03*
X73312D03*
X74836D03*
X13312Y116999D03*
X14836D03*
X73312D03*
X74836D03*
G54D149*
X127499Y127499D03*
X02499D03*
Y02499D03*
X127499D03*
G54D150*
X22619Y62951D03*
X20079D03*
X17539D03*
X25159D03*
X32819Y57869D03*
X25199Y55329D03*
Y57869D03*
X27739Y55329D03*
Y57869D03*
X30279Y55329D03*
Y57869D03*
X32819Y55329D03*
X22659Y57869D03*
Y55329D03*
X20119D03*
Y57869D03*
X17579D03*
Y55329D03*
X55284Y37694D03*
X52744D03*
X50204D03*
X82619Y62951D03*
X80079D03*
X77539D03*
X85159D03*
X92819Y57869D03*
X85199Y55329D03*
Y57869D03*
X87739Y55329D03*
Y57869D03*
X90279Y55329D03*
Y57869D03*
X92819Y55329D03*
X82659Y57869D03*
Y55329D03*
X80119D03*
Y57869D03*
X77579D03*
Y55329D03*
X115284Y37694D03*
X112744D03*
X110204D03*
X22619Y122951D03*
X20079D03*
X17539D03*
X25159D03*
X32819Y117869D03*
X25199Y115329D03*
Y117869D03*
X27739Y115329D03*
Y117869D03*
X30279Y115329D03*
Y117869D03*
X32819Y115329D03*
X22659Y117869D03*
Y115329D03*
X20119D03*
Y117869D03*
X17579D03*
Y115329D03*
X55284Y97694D03*
X52744D03*
X50204D03*
X82619Y122951D03*
X80079D03*
X77539D03*
X85159D03*
X92819Y117869D03*
X85199Y115329D03*
Y117869D03*
X87739Y115329D03*
Y117869D03*
X90279Y115329D03*
Y117869D03*
X92819Y115329D03*
X82659Y117869D03*
Y115329D03*
X80119D03*
Y117869D03*
X77579D03*
Y115329D03*
X115284Y97694D03*
X112744D03*
X110204D03*
G54D151*
X61249Y16499D03*
X121249D03*
X61249Y76499D03*
X121249D03*
G54D152*
X61249Y19999D03*
Y23499D03*
X121249Y19999D03*
Y23499D03*
X61249Y79999D03*
Y83499D03*
X121249Y79999D03*
Y83499D03*
G54D153*
X59325Y28688D03*
X56785D03*
X49165D03*
Y33768D03*
X56785D03*
X59325D03*
X119325Y28688D03*
X116785D03*
X109165D03*
Y33768D03*
X116785D03*
X119325D03*
X59325Y88688D03*
X56785D03*
X49165D03*
Y93768D03*
X56785D03*
X59325D03*
X119325Y88688D03*
X116785D03*
X109165D03*
Y93768D03*
X116785D03*
X119325D03*
G54D154*
X09719Y57209D03*
X07179Y54669D03*
X09719D03*
X07179Y52129D03*
X09719D03*
X07179Y49589D03*
X09719D03*
X07179Y57209D03*
X4725Y19663D03*
Y06963D03*
Y17123D03*
Y09503D03*
Y14583D03*
Y12043D03*
X69719Y57209D03*
X67179Y54669D03*
X69719D03*
X67179Y52129D03*
X69719D03*
X67179Y49589D03*
X69719D03*
X67179Y57209D03*
X10725Y19663D03*
Y06963D03*
Y17123D03*
Y09503D03*
Y14583D03*
Y12043D03*
X09719Y117209D03*
X07179Y114669D03*
X09719D03*
X07179Y112129D03*
X09719D03*
X07179Y109589D03*
X09719D03*
X07179Y117209D03*
X4725Y79663D03*
Y66963D03*
Y77123D03*
Y69503D03*
Y74583D03*
Y72043D03*
X69719Y117209D03*
X67179Y114669D03*
X69719D03*
X67179Y112129D03*
X69719D03*
X67179Y109589D03*
X69719D03*
X67179Y117209D03*
X10725Y79663D03*
Y66963D03*
Y77123D03*
Y69503D03*
Y74583D03*
Y72043D03*
G54D155*
X11454Y07044D03*
Y23304D03*
X71454Y07044D03*
Y23304D03*
X11454Y67044D03*
Y83304D03*
X71454Y67044D03*
Y83304D03*
G54D156*
X08024Y21524D03*
Y08824D03*
X68024Y21524D03*
Y08824D03*
X08024Y81524D03*
Y68824D03*
X68024Y81524D03*
Y68824D03*
G54D157*
X61324Y53449D03*
Y39449D03*
Y46449D03*
X121324Y53449D03*
Y39449D03*
Y46449D03*
X61324Y113449D03*
Y99449D03*
Y106449D03*
X121324Y113449D03*
Y99449D03*
Y106449D03*
G54D158*
X61324Y56949D03*
Y42949D03*
Y49949D03*
X121324Y56949D03*
Y42949D03*
Y49949D03*
X61324Y116949D03*
Y102949D03*
Y109949D03*
X121324Y116949D03*
Y102949D03*
Y109949D03*
G54D159*
X58974Y56614D03*
Y54074D03*
Y46924D03*
Y49464D03*
X58949Y42489D03*
Y39949D03*
X118974Y56614D03*
Y54074D03*
Y46924D03*
Y49464D03*
X118949Y42489D03*
Y39949D03*
X58974Y116614D03*
Y114074D03*
Y106924D03*
Y109464D03*
X58949Y102489D03*
Y99949D03*
X118974Y116614D03*
Y114074D03*
Y106924D03*
Y109464D03*
X118949Y102489D03*
Y99949D03*
M02*