G04 Layer_Color=16711935*
%FSAX44Y44*%
%MOMM*%
G71*
G01*
G75*
%ADD63C,1.8796*%
%ADD64P,2.0345X8X22.5*%
%ADD65C,3.4532*%
%ADD66C,1.7032*%
%ADD67R,1.7032X1.7032*%
%ADD68C,1.7272*%
D63*
X00298130Y00371450D02*
D03*
X00310830Y00346050D02*
D03*
X00323530Y00371450D02*
D03*
X00336230Y00346050D02*
D03*
X00348930Y00371450D02*
D03*
X00361630Y00346050D02*
D03*
X00374330Y00371450D02*
D03*
X00324780Y01025500D02*
D03*
X00337480Y01050900D02*
D03*
X00350180Y01025500D02*
D03*
X00362880Y01050900D02*
D03*
X00375580Y01025500D02*
D03*
X00388280Y01050900D02*
D03*
X00400980Y01025500D02*
D03*
D64*
X00387030Y00346050D02*
D03*
X00312080Y01050900D02*
D03*
D65*
X00285410Y00282550D02*
D03*
X00399730D02*
D03*
X00299380Y01114400D02*
D03*
X00413700D02*
D03*
D66*
X00499600Y00445400D02*
D03*
X00525000D02*
D03*
Y00369200D02*
D03*
Y00394600D02*
D03*
Y00420000D02*
D03*
X00499600Y00343800D02*
D03*
Y00369200D02*
D03*
Y00394600D02*
D03*
Y00420000D02*
D03*
Y00630000D02*
D03*
Y00604600D02*
D03*
Y00579200D02*
D03*
Y00553800D02*
D03*
X00525000Y00630000D02*
D03*
Y00604600D02*
D03*
Y00579200D02*
D03*
Y00655400D02*
D03*
X00499600D02*
D03*
Y00865400D02*
D03*
X00525000D02*
D03*
Y00789200D02*
D03*
Y00814600D02*
D03*
Y00840000D02*
D03*
X00499600Y00763800D02*
D03*
Y00789200D02*
D03*
Y00814600D02*
D03*
Y00840000D02*
D03*
Y01050000D02*
D03*
Y01024600D02*
D03*
Y00999200D02*
D03*
Y00973800D02*
D03*
X00525000Y01050000D02*
D03*
Y01024600D02*
D03*
Y00999200D02*
D03*
Y01075400D02*
D03*
X00499600D02*
D03*
X00200400Y00318400D02*
D03*
X00175000D02*
D03*
Y00394600D02*
D03*
Y00369200D02*
D03*
Y00343800D02*
D03*
X00200400Y00420000D02*
D03*
Y00394600D02*
D03*
Y00369200D02*
D03*
Y00343800D02*
D03*
Y00553800D02*
D03*
Y00579200D02*
D03*
Y00604600D02*
D03*
Y00630000D02*
D03*
X00175000Y00553800D02*
D03*
Y00579200D02*
D03*
Y00604600D02*
D03*
Y00528400D02*
D03*
X00200400D02*
D03*
Y00738400D02*
D03*
X00175000D02*
D03*
Y00814600D02*
D03*
Y00789200D02*
D03*
Y00763800D02*
D03*
X00200400Y00840000D02*
D03*
Y00814600D02*
D03*
Y00789200D02*
D03*
Y00763800D02*
D03*
Y00973800D02*
D03*
Y00999200D02*
D03*
Y01024600D02*
D03*
Y01050000D02*
D03*
X00175000Y00973800D02*
D03*
Y00999200D02*
D03*
Y01024600D02*
D03*
Y00948400D02*
D03*
X00200400D02*
D03*
X00366700Y00602590D02*
D03*
Y00577190D02*
D03*
X00341300Y00602590D02*
D03*
Y00577190D02*
D03*
X00392100D02*
D03*
D67*
X00525000Y00343800D02*
D03*
Y00553800D02*
D03*
Y00763800D02*
D03*
Y00973800D02*
D03*
X00175000Y00420000D02*
D03*
Y00630000D02*
D03*
Y00840000D02*
D03*
Y01050000D02*
D03*
X00392100Y00602590D02*
D03*
D68*
X00560000Y01160000D02*
D03*
X00140000D02*
D03*
X00560000Y00240000D02*
D03*
X00140000D02*
D03*
M02*
