G04 Layer_Color=65535*
%FSAX44Y44*%
%MOMM*%
G71*
G01*
G75*
%ADD36C,0.2500*%
%ADD37C,0.2000*%
%ADD38C,0.6000*%
%ADD39C,0.5000*%
%ADD40C,0.2032*%
%ADD41C,0.1270*%
%ADD42C,0.2540*%
D36*
X00402510Y00947800D02*
G03*
X00402510Y00947800I-00001250J00000000D01*
G01*
X00368986Y00801980D02*
G03*
X00368986Y00801980I-00001250J00000000D01*
G01*
X00265080Y00588854D02*
G03*
X00265080Y00588854I-00001250J00000000D01*
G01*
X00465740Y00591394D02*
G03*
X00465740Y00591394I-00001250J00000000D01*
G01*
X00435260Y00387726D02*
G03*
X00435260Y00387726I-00001250J00000000D01*
G01*
X00235636Y00426060D02*
G03*
X00235636Y00426060I-00001250J00000000D01*
G01*
X00240840Y00451460D02*
G03*
X00240840Y00451460I-00001250J00000000D01*
G01*
X00361490D02*
G03*
X00361490Y00451460I-00001250J00000000D01*
G01*
X00301630Y00708087D02*
G03*
X00301630Y00708087I-00001250J00000000D01*
G01*
X00339210Y00963480D02*
G03*
X00339210Y00963480I-00001250J00000000D01*
G01*
D37*
X00428010Y00950050D02*
G03*
X00440010Y00950050I00006000J00000000D01*
G01*
X00416010D02*
X00428010D01*
X00440010D02*
X00452010D01*
X00416010Y00885050D02*
X00452010D01*
X00416010D02*
Y00950050D01*
X00452010Y00885050D02*
Y00950050D01*
X00456944Y00317211D02*
Y00325210D01*
X00441944Y00317211D02*
Y00325210D01*
X00375082Y00769468D02*
Y00797408D01*
X00231318Y00581508D02*
X00259258D01*
X00431978Y00584048D02*
X00459918D01*
X00438582Y00395072D02*
X00466522D01*
X00241732Y00393548D02*
Y00421488D01*
X00253480Y00607790D02*
X00261480D01*
X00253480Y00622790D02*
X00261480D01*
X00341300Y00467960D02*
Y00483960D01*
X00242690Y00467960D02*
Y00483960D01*
X00341300D01*
X00242690Y00467960D02*
X00341300D01*
X00461950D02*
Y00483960D01*
X00363340Y00467960D02*
Y00483960D01*
X00461950D01*
X00363340Y00467960D02*
X00461950D01*
X00253480Y00633190D02*
X00261480D01*
X00253480Y00648190D02*
X00261480D01*
X00376670Y00752330D02*
X00384670D01*
X00376670Y00737330D02*
X00384670D01*
X00312880Y00642337D02*
Y00701337D01*
X00371880Y00642337D02*
Y00701337D01*
X00312880D02*
X00371880D01*
X00312880Y00642337D02*
X00371880D01*
X00251250Y00809410D02*
Y00817410D01*
X00266250Y00809410D02*
Y00817410D01*
X00274390Y00758800D02*
X00324390D01*
Y00781660D01*
X00274390Y00758800D02*
Y00781660D01*
X00324390D01*
X00294120Y00819880D02*
X00302120D01*
X00294120Y00834880D02*
X00302120D01*
X00338570Y00819880D02*
X00346570D01*
X00338570Y00834880D02*
X00346570D01*
X00328600Y00564490D02*
Y00615290D01*
X00404800Y00564490D02*
Y00615290D01*
X00328600Y00564490D02*
X00404800D01*
X00328600Y00615290D02*
X00404800D01*
X00328600D02*
X00377283D01*
X00266250Y00759880D02*
Y00767880D01*
X00251250Y00759880D02*
Y00767880D01*
X00435160Y00632880D02*
Y00640880D01*
X00420160Y00632880D02*
Y00640880D01*
X00258870Y00684950D02*
Y00692950D01*
X00273870Y00684950D02*
Y00692950D01*
X00443020Y00632880D02*
Y00640880D01*
X00458020Y00632880D02*
Y00640880D01*
X00424930Y00807180D02*
X00432930D01*
X00424930Y00822180D02*
X00432930D01*
X00450640Y01077380D02*
Y01085380D01*
X00465640Y01077380D02*
Y01085380D01*
X00235460Y00948980D02*
X00340460D01*
X00235460Y00908980D02*
X00340460D01*
Y00948980D01*
X00235460Y00908980D02*
Y00948980D01*
X00516370Y00908780D02*
X00524370D01*
X00516370Y00923780D02*
X00524370D01*
D38*
X00325880Y00691337D02*
G03*
X00325880Y00691337I-00003000J00000000D01*
G01*
X00333460Y00938980D02*
G03*
X00333460Y00938980I-00003000J00000000D01*
G01*
D39*
X00272180Y00746640D02*
G03*
X00272180Y00746640I-00002000J00000000D01*
G01*
D40*
X00424570Y00202540D02*
Y00252550D01*
X00261270Y00202540D02*
Y00252550D01*
Y00202540D02*
X00424570D01*
X00261270Y00252550D02*
Y00384150D01*
X00424570Y00252550D02*
Y00384150D01*
X00261270D02*
X00424570D01*
X00274540Y01012800D02*
X00437840D01*
X00274540D02*
Y01144400D01*
X00437840Y01012800D02*
Y01144400D01*
X00274540Y01194410D02*
X00437840D01*
Y01144400D02*
Y01194410D01*
X00274540Y01144400D02*
Y01194410D01*
X00473380Y00733400D02*
Y00766420D01*
X00404800D02*
X00473380D01*
X00404800Y00733400D02*
Y00766420D01*
Y00733400D02*
X00473380D01*
D41*
X00448743Y00322677D02*
X00448063Y00323357D01*
X00446704D01*
X00446024Y00322677D01*
Y00319958D01*
X00446704Y00319278D01*
X00448063D01*
X00448743Y00319958D01*
X00450103Y00323357D02*
X00452822D01*
Y00322677D01*
X00450103Y00319958D01*
Y00319278D01*
X00254000Y00613156D02*
Y00617235D01*
X00256039D01*
X00256719Y00616555D01*
Y00615195D01*
X00256039Y00614516D01*
X00254000D01*
X00255360D02*
X00256719Y00613156D01*
X00260798D02*
X00258079D01*
X00260798Y00615875D01*
Y00616555D01*
X00260118Y00617235D01*
X00258759D01*
X00258079Y00616555D01*
X00286766Y00478043D02*
Y00474644D01*
X00287446Y00473964D01*
X00288805D01*
X00289485Y00474644D01*
Y00478043D01*
X00293564D02*
X00292204Y00477363D01*
X00290845Y00476003D01*
Y00474644D01*
X00291525Y00473964D01*
X00292884D01*
X00293564Y00474644D01*
Y00475324D01*
X00292884Y00476003D01*
X00290845D01*
X00407416Y00478043D02*
Y00474644D01*
X00408096Y00473964D01*
X00409455D01*
X00410135Y00474644D01*
Y00478043D01*
X00414214D02*
X00411495D01*
Y00476003D01*
X00412854Y00476683D01*
X00413534D01*
X00414214Y00476003D01*
Y00474644D01*
X00413534Y00473964D01*
X00412174D01*
X00411495Y00474644D01*
X00427660Y00393040D02*
Y00397119D01*
X00429699D01*
X00430379Y00396439D01*
Y00395079D01*
X00429699Y00394400D01*
X00427660D01*
X00429020D02*
X00430379Y00393040D01*
X00431739Y00393720D02*
X00432419Y00393040D01*
X00433778D01*
X00434458Y00393720D01*
Y00396439D01*
X00433778Y00397119D01*
X00432419D01*
X00431739Y00396439D01*
Y00395759D01*
X00432419Y00395079D01*
X00434458D01*
X00239700Y00426060D02*
Y00430139D01*
X00241739D01*
X00242419Y00429459D01*
Y00428099D01*
X00241739Y00427420D01*
X00239700D01*
X00241060D02*
X00242419Y00426060D01*
X00243779Y00430139D02*
X00246498D01*
Y00429459D01*
X00243779Y00426740D01*
Y00426060D01*
X00262560Y00579730D02*
Y00583809D01*
X00264599D01*
X00265279Y00583129D01*
Y00581769D01*
X00264599Y00581090D01*
X00262560D01*
X00263920D02*
X00265279Y00579730D01*
X00269358Y00583809D02*
X00267998Y00583129D01*
X00266639Y00581769D01*
Y00580410D01*
X00267318Y00579730D01*
X00268678D01*
X00269358Y00580410D01*
Y00581090D01*
X00268678Y00581769D01*
X00266639D01*
X00463220Y00582270D02*
Y00586349D01*
X00465259D01*
X00465939Y00585669D01*
Y00584309D01*
X00465259Y00583630D01*
X00463220D01*
X00464580D02*
X00465939Y00582270D01*
X00469338D02*
Y00586349D01*
X00467299Y00584309D01*
X00470018D01*
X00285496Y00930925D02*
Y00927526D01*
X00286176Y00926846D01*
X00287535D01*
X00288215Y00927526D01*
Y00930925D01*
X00291614Y00926846D02*
Y00930925D01*
X00289575Y00928885D01*
X00292294D01*
X00254000Y00638556D02*
Y00642635D01*
X00256039D01*
X00256719Y00641955D01*
Y00640595D01*
X00256039Y00639916D01*
X00254000D01*
X00255360D02*
X00256719Y00638556D01*
X00258079Y00641955D02*
X00258759Y00642635D01*
X00260118D01*
X00260798Y00641955D01*
Y00641275D01*
X00260118Y00640595D01*
X00259438D01*
X00260118D01*
X00260798Y00639916D01*
Y00639236D01*
X00260118Y00638556D01*
X00258759D01*
X00258079Y00639236D01*
X00374320Y00803250D02*
Y00807329D01*
X00376359D01*
X00377039Y00806649D01*
Y00805289D01*
X00376359Y00804610D01*
X00374320D01*
X00375680D02*
X00377039Y00803250D01*
X00378399D02*
X00379758D01*
X00379078D01*
Y00807329D01*
X00378399Y00806649D01*
X00355525Y01105677D02*
X00354166D01*
X00354845D01*
Y01102278D01*
X00354166Y01101598D01*
X00353486D01*
X00352806Y01102278D01*
X00359604Y01101598D02*
X00356885D01*
X00359604Y01104317D01*
Y01104997D01*
X00358924Y01105677D01*
X00357565D01*
X00356885Y01104997D01*
X00378714Y00749300D02*
X00382793D01*
Y00747261D01*
X00382113Y00746581D01*
X00380753D01*
X00380074Y00747261D01*
Y00749300D01*
Y00747940D02*
X00378714Y00746581D01*
Y00745221D02*
Y00743862D01*
Y00744541D01*
X00382793D01*
X00382113Y00745221D01*
X00378714Y00741822D02*
Y00740463D01*
Y00741143D01*
X00382793D01*
X00382113Y00741822D01*
X00339598Y00673877D02*
Y00670478D01*
X00340278Y00669798D01*
X00341637D01*
X00342317Y00670478D01*
Y00673877D01*
X00343677Y00669798D02*
X00345036D01*
X00344356D01*
Y00673877D01*
X00343677Y00673197D01*
X00260858Y00808228D02*
X00256779D01*
Y00810267D01*
X00257459Y00810947D01*
X00258819D01*
X00259498Y00810267D01*
Y00808228D01*
Y00809588D02*
X00260858Y00810947D01*
Y00812307D02*
Y00813666D01*
Y00812987D01*
X00256779D01*
X00257459Y00812307D01*
X00260858Y00818425D02*
Y00815706D01*
X00258139Y00818425D01*
X00257459D01*
X00256779Y00817745D01*
Y00816385D01*
X00257459Y00815706D01*
X00292354Y00772175D02*
Y00768776D01*
X00293034Y00768096D01*
X00294393D01*
X00295073Y00768776D01*
Y00772175D01*
X00299152Y00768096D02*
X00296433D01*
X00299152Y00770815D01*
Y00771495D01*
X00298472Y00772175D01*
X00297113D01*
X00296433Y00771495D01*
X00293116Y00825246D02*
Y00829325D01*
X00295155D01*
X00295835Y00828645D01*
Y00827285D01*
X00295155Y00826606D01*
X00293116D01*
X00294476D02*
X00295835Y00825246D01*
X00297195D02*
X00298554D01*
X00297875D01*
Y00829325D01*
X00297195Y00828645D01*
X00300594D02*
X00301273Y00829325D01*
X00302633D01*
X00303313Y00828645D01*
Y00825926D01*
X00302633Y00825246D01*
X00301273D01*
X00300594Y00825926D01*
Y00828645D01*
X00345948Y00829310D02*
Y00825231D01*
X00343909D01*
X00343229Y00825911D01*
Y00827271D01*
X00343909Y00827950D01*
X00345948D01*
X00344588D02*
X00343229Y00829310D01*
X00341869Y00825911D02*
X00341189Y00825231D01*
X00339830D01*
X00339150Y00825911D01*
Y00826591D01*
X00339830Y00827271D01*
X00339150Y00827950D01*
Y00828630D01*
X00339830Y00829310D01*
X00341189D01*
X00341869Y00828630D01*
Y00827950D01*
X00341189Y00827271D01*
X00341869Y00826591D01*
Y00825911D01*
X00341189Y00827271D02*
X00339830D01*
X00364729Y00584708D02*
Y00586068D01*
Y00585388D01*
X00368808D01*
Y00584708D01*
Y00586068D01*
X00365409Y00590826D02*
X00364729Y00590146D01*
Y00588787D01*
X00365409Y00588107D01*
X00366089D01*
X00366769Y00588787D01*
Y00590146D01*
X00367448Y00590826D01*
X00368128D01*
X00368808Y00590146D01*
Y00588787D01*
X00368128Y00588107D01*
X00368808Y00592186D02*
X00364729D01*
Y00594225D01*
X00365409Y00594905D01*
X00366769D01*
X00367448Y00594225D01*
Y00592186D01*
X00259409Y00762411D02*
X00260089Y00761731D01*
X00261448D01*
X00262128Y00762411D01*
Y00765130D01*
X00261448Y00765810D01*
X00260089D01*
X00259409Y00765130D01*
X00258049Y00762411D02*
X00257369Y00761731D01*
X00256010D01*
X00255330Y00762411D01*
Y00763091D01*
X00256010Y00763771D01*
X00256690D01*
X00256010D01*
X00255330Y00764450D01*
Y00765130D01*
X00256010Y00765810D01*
X00257369D01*
X00258049Y00765130D01*
X00429039Y00637456D02*
X00429719Y00638135D01*
Y00639495D01*
X00429039Y00640175D01*
X00426320D01*
X00425640Y00639495D01*
Y00638135D01*
X00426320Y00637456D01*
X00425640Y00633377D02*
Y00636096D01*
X00428359Y00633377D01*
X00429039D01*
X00429719Y00634057D01*
Y00635416D01*
X00429039Y00636096D01*
X00266267Y00687481D02*
X00266947Y00686801D01*
X00268306D01*
X00268986Y00687481D01*
Y00690200D01*
X00268306Y00690880D01*
X00266947D01*
X00266267Y00690200D01*
X00264907Y00690880D02*
X00263548D01*
X00264228D01*
Y00686801D01*
X00264907Y00687481D01*
X00451963Y00637615D02*
X00452643Y00638295D01*
Y00639654D01*
X00451963Y00640334D01*
X00449244D01*
X00448564Y00639654D01*
Y00638295D01*
X00449244Y00637615D01*
X00448564Y00634216D02*
X00452643D01*
X00450603Y00636255D01*
Y00633536D01*
X00428169Y00815945D02*
X00427489Y00816625D01*
X00426130D01*
X00425450Y00815945D01*
Y00813226D01*
X00426130Y00812546D01*
X00427489D01*
X00428169Y00813226D01*
X00432248Y00816625D02*
X00429529D01*
Y00814585D01*
X00430888Y00815265D01*
X00431568D01*
X00432248Y00814585D01*
Y00813226D01*
X00431568Y00812546D01*
X00430209D01*
X00429529Y00813226D01*
X00457379Y01082645D02*
X00456699Y01083325D01*
X00455340D01*
X00454660Y01082645D01*
Y01079926D01*
X00455340Y01079246D01*
X00456699D01*
X00457379Y01079926D01*
X00461458Y01083325D02*
X00460098Y01082645D01*
X00458739Y01081285D01*
Y01079926D01*
X00459418Y01079246D01*
X00460778D01*
X00461458Y01079926D01*
Y01080606D01*
X00460778Y01081285D01*
X00458739D01*
X00142927Y01015761D02*
X00140208D01*
Y01011682D01*
X00142927D01*
X00140208Y01013721D02*
X00141568D01*
X00144287Y01011682D02*
X00145646D01*
X00144966D01*
Y01015761D01*
X00144287Y01015081D01*
X00435610Y00752109D02*
Y00748710D01*
X00436290Y00748030D01*
X00437649D01*
X00438329Y00748710D01*
Y00752109D01*
X00439689Y00751429D02*
X00440368Y00752109D01*
X00441728D01*
X00442408Y00751429D01*
Y00750749D01*
X00441728Y00750069D01*
X00441048D01*
X00441728D01*
X00442408Y00749390D01*
Y00748710D01*
X00441728Y00748030D01*
X00440368D01*
X00439689Y00748710D01*
X00342825Y00295417D02*
X00341466D01*
X00342145D01*
Y00292018D01*
X00341466Y00291338D01*
X00340786D01*
X00340106Y00292018D01*
X00344185Y00291338D02*
X00345544D01*
X00344865D01*
Y00295417D01*
X00344185Y00294737D01*
X00142165Y00805957D02*
X00139446D01*
Y00801878D01*
X00142165D01*
X00139446Y00803917D02*
X00140806D01*
X00146244Y00801878D02*
X00143525D01*
X00146244Y00804597D01*
Y00805277D01*
X00145564Y00805957D01*
X00144205D01*
X00143525Y00805277D01*
X00142165Y00595899D02*
X00139446D01*
Y00591820D01*
X00142165D01*
X00139446Y00593859D02*
X00140806D01*
X00143525Y00595219D02*
X00144205Y00595899D01*
X00145564D01*
X00146244Y00595219D01*
Y00594539D01*
X00145564Y00593859D01*
X00144884D01*
X00145564D01*
X00146244Y00593180D01*
Y00592500D01*
X00145564Y00591820D01*
X00144205D01*
X00143525Y00592500D01*
X00142165Y00385841D02*
X00139446D01*
Y00381762D01*
X00142165D01*
X00139446Y00383801D02*
X00140806D01*
X00145564Y00381762D02*
Y00385841D01*
X00143525Y00383801D01*
X00146244D01*
X00556439Y01011951D02*
X00553720D01*
Y01007872D01*
X00556439D01*
X00553720Y01009911D02*
X00555080D01*
X00560518Y01011951D02*
X00557799D01*
Y01009911D01*
X00559158Y01010591D01*
X00559838D01*
X00560518Y01009911D01*
Y01008552D01*
X00559838Y01007872D01*
X00558479D01*
X00557799Y01008552D01*
X00556439Y00802147D02*
X00553720D01*
Y00798068D01*
X00556439D01*
X00553720Y00800107D02*
X00555080D01*
X00560518Y00802147D02*
X00559158Y00801467D01*
X00557799Y00800107D01*
Y00798748D01*
X00558479Y00798068D01*
X00559838D01*
X00560518Y00798748D01*
Y00799428D01*
X00559838Y00800107D01*
X00557799D01*
X00556439Y00592089D02*
X00553720D01*
Y00588010D01*
X00556439D01*
X00553720Y00590049D02*
X00555080D01*
X00557799Y00592089D02*
X00560518D01*
Y00591409D01*
X00557799Y00588690D01*
Y00588010D01*
X00556439Y00382031D02*
X00553720D01*
Y00377952D01*
X00556439D01*
X00553720Y00379991D02*
X00555080D01*
X00557799Y00381351D02*
X00558479Y00382031D01*
X00559838D01*
X00560518Y00381351D01*
Y00380671D01*
X00559838Y00379991D01*
X00560518Y00379312D01*
Y00378632D01*
X00559838Y00377952D01*
X00558479D01*
X00557799Y00378632D01*
Y00379312D01*
X00558479Y00379991D01*
X00557799Y00380671D01*
Y00381351D01*
X00558479Y00379991D02*
X00559838D01*
X00430530Y00919495D02*
Y00916096D01*
X00431210Y00915416D01*
X00432569D01*
X00433249Y00916096D01*
Y00919495D01*
X00434609D02*
X00437328D01*
Y00918815D01*
X00434609Y00916096D01*
Y00915416D01*
D42*
X00508940Y00948025D02*
Y00932790D01*
X00516558D01*
X00519097Y00935329D01*
Y00945486D01*
X00516558Y00948025D01*
X00508940D01*
X00526714Y00932790D02*
X00531793D01*
X00534332Y00935329D01*
Y00940407D01*
X00531793Y00942947D01*
X00526714D01*
X00524175Y00940407D01*
Y00935329D01*
X00526714Y00932790D01*
X00541949D02*
X00547028D01*
X00549567Y00935329D01*
Y00940407D01*
X00547028Y00942947D01*
X00541949D01*
X00539410Y00940407D01*
Y00935329D01*
X00541949Y00932790D01*
X00554645Y00942947D02*
Y00932790D01*
Y00937868D01*
X00557184Y00940407D01*
X00559724Y00942947D01*
X00562263D01*
X00595272Y00948025D02*
X00585115D01*
Y00940407D01*
X00590194Y00942947D01*
X00592733D01*
X00595272Y00940407D01*
Y00935329D01*
X00592733Y00932790D01*
X00587655D01*
X00585115Y00935329D01*
X00507670Y00734665D02*
Y00719430D01*
X00515288D01*
X00517827Y00721969D01*
Y00732126D01*
X00515288Y00734665D01*
X00507670D01*
X00525444Y00719430D02*
X00530523D01*
X00533062Y00721969D01*
Y00727048D01*
X00530523Y00729587D01*
X00525444D01*
X00522905Y00727048D01*
Y00721969D01*
X00525444Y00719430D01*
X00540679D02*
X00545758D01*
X00548297Y00721969D01*
Y00727048D01*
X00545758Y00729587D01*
X00540679D01*
X00538140Y00727048D01*
Y00721969D01*
X00540679Y00719430D01*
X00553375Y00729587D02*
Y00719430D01*
Y00724508D01*
X00555914Y00727048D01*
X00558454Y00729587D01*
X00560993D01*
X00594002Y00734665D02*
X00588924Y00732126D01*
X00583845Y00727048D01*
Y00721969D01*
X00586385Y00719430D01*
X00591463D01*
X00594002Y00721969D01*
Y00724508D01*
X00591463Y00727048D01*
X00583845D01*
X00507670Y00525115D02*
Y00509880D01*
X00515288D01*
X00517827Y00512419D01*
Y00522576D01*
X00515288Y00525115D01*
X00507670D01*
X00525444Y00509880D02*
X00530523D01*
X00533062Y00512419D01*
Y00517497D01*
X00530523Y00520037D01*
X00525444D01*
X00522905Y00517497D01*
Y00512419D01*
X00525444Y00509880D01*
X00540679D02*
X00545758D01*
X00548297Y00512419D01*
Y00517497D01*
X00545758Y00520037D01*
X00540679D01*
X00538140Y00517497D01*
Y00512419D01*
X00540679Y00509880D01*
X00553375Y00520037D02*
Y00509880D01*
Y00514958D01*
X00555914Y00517497D01*
X00558454Y00520037D01*
X00560993D01*
X00583845Y00525115D02*
X00594002D01*
Y00522576D01*
X00583845Y00512419D01*
Y00509880D01*
X00507670Y00315565D02*
Y00300330D01*
X00515288D01*
X00517827Y00302869D01*
Y00313026D01*
X00515288Y00315565D01*
X00507670D01*
X00525444Y00300330D02*
X00530523D01*
X00533062Y00302869D01*
Y00307948D01*
X00530523Y00310487D01*
X00525444D01*
X00522905Y00307948D01*
Y00302869D01*
X00525444Y00300330D01*
X00540679D02*
X00545758D01*
X00548297Y00302869D01*
Y00307948D01*
X00545758Y00310487D01*
X00540679D01*
X00538140Y00307948D01*
Y00302869D01*
X00540679Y00300330D01*
X00553375Y00310487D02*
Y00300330D01*
Y00305408D01*
X00555914Y00307948D01*
X00558454Y00310487D01*
X00560993D01*
X00583845Y00313026D02*
X00586385Y00315565D01*
X00591463D01*
X00594002Y00313026D01*
Y00310487D01*
X00591463Y00307948D01*
X00594002Y00305408D01*
Y00302869D01*
X00591463Y00300330D01*
X00586385D01*
X00583845Y00302869D01*
Y00305408D01*
X00586385Y00307948D01*
X00583845Y00310487D01*
Y00313026D01*
X00586385Y00307948D02*
X00591463D01*
X00116510Y00457805D02*
Y00442570D01*
X00124128D01*
X00126667Y00445109D01*
Y00455266D01*
X00124128Y00457805D01*
X00116510D01*
X00134284Y00442570D02*
X00139363D01*
X00141902Y00445109D01*
Y00450187D01*
X00139363Y00452727D01*
X00134284D01*
X00131745Y00450187D01*
Y00445109D01*
X00134284Y00442570D01*
X00149519D02*
X00154598D01*
X00157137Y00445109D01*
Y00450187D01*
X00154598Y00452727D01*
X00149519D01*
X00146980Y00450187D01*
Y00445109D01*
X00149519Y00442570D01*
X00162215Y00452727D02*
Y00442570D01*
Y00447648D01*
X00164754Y00450187D01*
X00167294Y00452727D01*
X00169833D01*
X00200303Y00442570D02*
Y00457805D01*
X00192685Y00450187D01*
X00202842D01*
X00119050Y00671165D02*
Y00655930D01*
X00126667D01*
X00129207Y00658469D01*
Y00668626D01*
X00126667Y00671165D01*
X00119050D01*
X00136824Y00655930D02*
X00141903D01*
X00144442Y00658469D01*
Y00663548D01*
X00141903Y00666087D01*
X00136824D01*
X00134285Y00663548D01*
Y00658469D01*
X00136824Y00655930D01*
X00152059D02*
X00157138D01*
X00159677Y00658469D01*
Y00663548D01*
X00157138Y00666087D01*
X00152059D01*
X00149520Y00663548D01*
Y00658469D01*
X00152059Y00655930D01*
X00164755Y00666087D02*
Y00655930D01*
Y00661008D01*
X00167294Y00663548D01*
X00169834Y00666087D01*
X00172373D01*
X00195225Y00668626D02*
X00197765Y00671165D01*
X00202843D01*
X00205382Y00668626D01*
Y00666087D01*
X00202843Y00663548D01*
X00200304D01*
X00202843D01*
X00205382Y00661008D01*
Y00658469D01*
X00202843Y00655930D01*
X00197765D01*
X00195225Y00658469D01*
X00117780Y00883255D02*
Y00868020D01*
X00125398D01*
X00127937Y00870559D01*
Y00880716D01*
X00125398Y00883255D01*
X00117780D01*
X00135554Y00868020D02*
X00140633D01*
X00143172Y00870559D01*
Y00875638D01*
X00140633Y00878177D01*
X00135554D01*
X00133015Y00875638D01*
Y00870559D01*
X00135554Y00868020D01*
X00150789D02*
X00155868D01*
X00158407Y00870559D01*
Y00875638D01*
X00155868Y00878177D01*
X00150789D01*
X00148250Y00875638D01*
Y00870559D01*
X00150789Y00868020D01*
X00163485Y00878177D02*
Y00868020D01*
Y00873098D01*
X00166024Y00875638D01*
X00168564Y00878177D01*
X00171103D01*
X00204112Y00868020D02*
X00193955D01*
X00204112Y00878177D01*
Y00880716D01*
X00201573Y00883255D01*
X00196495D01*
X00193955Y00880716D01*
X00124130Y01091535D02*
Y01076300D01*
X00131748D01*
X00134287Y01078839D01*
Y01088996D01*
X00131748Y01091535D01*
X00124130D01*
X00141904Y01076300D02*
X00146983D01*
X00149522Y01078839D01*
Y01083917D01*
X00146983Y01086457D01*
X00141904D01*
X00139365Y01083917D01*
Y01078839D01*
X00141904Y01076300D01*
X00157139D02*
X00162218D01*
X00164757Y01078839D01*
Y01083917D01*
X00162218Y01086457D01*
X00157139D01*
X00154600Y01083917D01*
Y01078839D01*
X00157139Y01076300D01*
X00169835Y01086457D02*
Y01076300D01*
Y01081378D01*
X00172374Y01083917D01*
X00174914Y01086457D01*
X00177453D01*
X00200305Y01076300D02*
X00205384D01*
X00202845D01*
Y01091535D01*
X00200305Y01088996D01*
M02*
