M48
;Layer_Color=9474304
;FILE_FORMAT=4:4
METRIC
;TYPE=PLATED
T1F00S00C0.3000
T2F00S00C0.9000
T3F00S00C1.0000
;TYPE=NON_PLATED
T4F00S00C3.2500
T5F00S00C4.0000
%
T01
X00153340Y00269850
X00173660Y00258420
X00195250Y00249530
X00201600Y00241910
X00211760Y00231750
X00221920Y00240640
X00230810Y00231750
X00258750
X00285420Y00233020
Y00258420
X00261290
X00240970
X00215570
X00213030Y00329540
X00218110Y00370180
X00229540Y00382880
X00247320Y00385420
X00262560Y00360020
X00277800Y00375260
X00312090Y00386690
X00361620Y00385420
X00352730Y00330810
X00319710Y00329540
X00291770
X00267640
X00247320Y00344780
X00253670Y00296520
X00308280Y00299060
X00326060Y00287630
X00338760Y00300330
X00376860Y00297790
X00367970Y00266040
X00350190Y00248260
X00328600Y00241910
X00320980Y00249530
X00319710Y00259690
X00318440Y00233020
X00135560Y00316840
Y00357480
X00133020Y00396850
X00414960Y00393040
X00402260Y00373990
X00413690Y00348590
X00439090Y00347320
X00406070Y00328270
X00431470Y00296520
X00447980Y00280010
X00461950Y00268580
X00491160Y00267310
X00527990Y00260960
X00538150Y00300330
X00506400Y00297790
X00492430Y00311760
X00469570Y00304140
X00473380Y00385420
X00568630Y00362560
X00567360Y00332080
Y00408280
X00566090Y00462890
Y00516230
Y00558140
X00568630Y00615290
X00566090Y00664820
Y00716890
X00491160Y00718160
X00469570Y00720700
X00473380Y00700380
X00468300Y00685140
Y00664820
X00456870Y00662280
Y00673710
X00445440Y00635610
Y00612750
Y00597510
X00456870Y00606400
X00468300Y00556870
Y00544170
X00477190Y00527660
X00484810Y00534010
X00505130Y00511150
Y00475590
X00474650Y00473050
X00468300Y00451460
X00458140Y00433680
X00432740
X00428930Y00401930
X00397180Y00413360
Y00422250
X00473380Y00401930
X00444170Y00479400
X00440360Y00530200
X00431470Y00527660
X00422580Y00524700
X00421310Y00542900
X00420040Y00554330
X00407340
X00398450Y00553060
X00434010Y00544170
X00445440Y00537820
X00404800Y00622910
X00398450Y00633070
X00399720Y00658470
X00398450Y00676250
Y00683870
X00402260Y00709270
X00400990Y00729590
X00460680Y00765150
X00487350Y00692760
X00494970Y00685140
X00568630Y00791820
X00394640Y00780390
X00350190Y00779120
X00353620Y00787630
X00352730Y00767690
X00334950Y00782930
X00318440Y00785470
X00299390Y00758800
X00290500Y00728320
Y00700380
X00282533Y00691837
X00280340Y00683870
X00285420Y00667360
X00286690Y00648310
X00324790Y00644500
X00343840
X00354000Y00649580
X00364160Y00647040
X00340030Y00659740
X00346380Y00677520
Y00687680
X00355270Y00682600
X00326060Y00677520
X00314630Y00688950
X00320980Y00696570
X00337490Y00727050
X00394640Y00716890
X00338380Y00616940
X00320840Y00608800
X00320980Y00598780
X00307010Y00606400
X00305740Y00620370
X00287960Y00606400
X00285420Y00596240
X00279070Y00586080
X00273990Y00573380
X00287960
Y00547980
X00275260Y00545440
X00276530Y00525120
X00262560
X00248590Y00523850
X00240970Y00517500
X00237160Y00495910
X00228270Y00504800
X00200330Y00492100
X00207950Y00479400
X00235890Y00469240
X00238430Y00446380
X00232080Y00428600
X00273990Y00431140
X00268910Y00408280
X00299390Y00405740
X00312090Y00434950
X00328600Y00431140
X00346380Y00440030
Y00452730
X00359080Y00457810
X00362890Y00471780
X00337490
X00315900
X00265100
X00253670Y00540360
X00249520Y00558140
X00241480Y00563980
X00233350Y00555600
X00224460Y00579730
X00221920Y00588620
X00225730Y00616560
Y00630530
X00240970Y00676250
X00249860Y00685140
X00159690Y00694030
X00158420Y00709270
X00135560Y00705460
Y00677520
Y00622910
Y00588620
Y00550520
Y00514960
Y00475590
X00159690Y00494640
Y00446380
X00135560Y00427330
X00207950Y00567030
X00260020Y00565760
X00308280Y00521310
X00320980Y00522580
X00331140Y00517500
X00366700Y00518770
X00373050Y00526390
Y00535280
X00371780Y00544170
X00385750Y00564490
X00359080Y00497180
X00381940Y00434950
X00371780Y00404890
X00134290Y00741020
Y00789280
Y00823570
X00136830Y00873100
X00146990Y00864210
X00159690Y00884530
X00134290Y00892150
X00135560Y00923900
X00159690Y00918820
X00192710
X00197790Y00927710
X00187630Y00934060
X00218110Y00899770
X00224460Y00890880
X00232080Y00884530
X00239700Y00880720
X00252400Y00885800
X00293040Y00869940
X00286690Y00862940
X00303200Y00876940
X00326060Y00856590
X00336220Y00848970
X00320980Y00841350
X00318440Y00812140
X00361620Y00813410
X00388290
X00394640Y00878180
X00380670Y00927710
X00384480Y00937870
X00375590Y00936600
X00367970Y00950570
X00348920Y00942950
X00340030Y00940410
X00328600
X00334950Y00934060
X00338760Y00912470
X00346380Y00955650
X00354000Y00977240
X00384480Y00968350
X00319710Y01003910
X00309550Y01017880
X00287960Y01038200
X00298120Y01064870
X00282880Y01078840
X00266370Y01095350
X00244780Y01093990
X00240970Y01102970
X00233350Y01114400
X00238430Y01086460
X00262560Y01062330
X00266370Y01119480
X00172390Y01115670
X00153340Y01102970
X00159690Y01095350
X00133020Y01115670
Y01058520
X00134290Y01011530
Y00962000
X00235890Y00954380
X00237160Y00969620
X00251130Y00984860
X00260020Y00978510
X00268910Y00982320
X00279070Y00979780
X00289230Y00984860
X00263830Y00813410
X00402260Y00801980
X00397180Y00835000
X00444170Y00843890
X00453060Y00846430
X00472110Y00838810
X00479730Y00833730
X00463220Y00865480
Y00874370
X00465760Y00883260
X00483540Y00892150
X00500050Y00888340
X00507670Y00892150
X00506400Y00901040
X00494970Y00906120
X00483540Y00917550
X00475920Y00954380
X00460680Y00964540
X00436550Y00967080
X00418770Y00977240
X00423850Y01015340
X00463220Y01014070
X00432740Y00936600
X00431470Y00923900
X00426390Y00915010
X00506400Y00941680
X00544440Y00931520
X00554660Y00922630
X00539420Y00899770
X00567360Y00864210
T02
X00175000Y00318400
X00200400
Y00343800
X00175000
Y00369200
Y00394600
X00200400
Y00369200
X00499600
X00525000
Y00343800
X00499600
Y00394600
X00525000
Y00420000
Y00445400
X00499600
Y00420000
Y00553800
Y00579200
Y00604600
Y00630000
X00525000
Y00604600
Y00579200
Y00553800
Y00655400
X00499600
Y00763800
X00525000
Y00789200
X00499600
X00392100Y00602590
X00366700
Y00577190
X00341300
Y00602590
X00392100Y00577190
X00200400Y00579200
Y00553800
X00175000
Y00579200
Y00604600
X00200400
Y00630000
X00175000
Y00528400
X00200400
Y00420000
X00175000
Y00738400
X00200400
Y00763800
X00175000
Y00789200
X00200400
Y00814600
X00175000
Y00840000
X00200400
Y00948400
Y00973800
Y00999200
Y01024600
Y01050000
X00175000
Y01024600
Y00999200
Y00973800
Y00948400
X00499600Y00973800
Y00999200
Y01024600
Y01050000
X00525000
Y01024600
Y00999200
Y00973800
Y01075400
X00499600
Y00865400
X00525000
Y00840000
Y00814600
X00499600
Y00840000
T03
X00310830Y00346050
X00336230
X00361630
X00387030
X00374330Y00371450
X00348930
X00323530
X00298130
X00324780Y01025500
X00350180
X00375580
X00362880Y01050900
X00337480
X00312080
X00388280
X00400980Y01025500
T04
X00285410Y00282550
X00399730
X00299380Y01114400
X00413700
T05
X00140000Y00240000
X00560000
X00140000Y01160000
X00560000
M30
