G04 Layer_Color=2752767*
%FSAX44Y44*%
%MOMM*%
G71*
G01*
G75*
%ADD70C,0.0508*%
%ADD71C,0.0677*%
D70*
X00296098Y00369418D02*
Y00373482D01*
X00300162D01*
Y00369418D01*
X00296098D01*
X00308798Y00344018D02*
Y00348082D01*
X00312862D01*
Y00344018D01*
X00308798D01*
X00321498Y00369418D02*
Y00373482D01*
X00325562D01*
Y00369418D01*
X00321498D01*
X00334198Y00344018D02*
Y00348082D01*
X00338262D01*
Y00344018D01*
X00334198D01*
X00346898Y00369418D02*
Y00373482D01*
X00350962D01*
Y00369418D01*
X00346898D01*
X00359598Y00344018D02*
Y00348082D01*
X00363662D01*
Y00344018D01*
X00359598D01*
X00372298Y00369418D02*
Y00373482D01*
X00376362D01*
Y00369418D01*
X00372298D01*
X00384998Y00344018D02*
Y00348082D01*
X00389062D01*
Y00344018D01*
X00384998D01*
X00310048Y01048868D02*
Y01052932D01*
X00314112D01*
Y01048868D01*
X00310048D01*
X00322748Y01023468D02*
Y01027532D01*
X00326812D01*
Y01023468D01*
X00322748D01*
X00335448Y01048868D02*
Y01052932D01*
X00339512D01*
Y01048868D01*
X00335448D01*
X00348148Y01023468D02*
Y01027532D01*
X00352212D01*
Y01023468D01*
X00348148D01*
X00360848Y01048868D02*
Y01052932D01*
X00364912D01*
Y01048868D01*
X00360848D01*
X00373548Y01023468D02*
Y01027532D01*
X00377612D01*
Y01023468D01*
X00373548D01*
X00386248Y01048868D02*
Y01052932D01*
X00390312D01*
Y01048868D01*
X00386248D01*
X00398948Y01023468D02*
Y01027532D01*
X00403012D01*
Y01023468D01*
X00398948D01*
X00499600Y00443368D02*
X00497568Y00447432D01*
X00501632D01*
X00499600Y00443368D01*
X00525000D02*
X00522968Y00447432D01*
X00527032D01*
X00525000Y00443368D01*
Y00341768D02*
X00522968Y00345832D01*
X00527032D01*
X00525000Y00341768D01*
Y00367168D02*
X00522968Y00371232D01*
X00527032D01*
X00525000Y00367168D01*
Y00392568D02*
X00522968Y00396632D01*
X00527032D01*
X00525000Y00392568D01*
Y00417968D02*
X00522968Y00422032D01*
X00527032D01*
X00525000Y00417968D01*
X00499600Y00341768D02*
X00497568Y00345832D01*
X00501632D01*
X00499600Y00341768D01*
Y00367168D02*
X00497568Y00371232D01*
X00501632D01*
X00499600Y00367168D01*
Y00392568D02*
X00497568Y00396632D01*
X00501632D01*
X00499600Y00392568D01*
Y00417968D02*
X00497568Y00422032D01*
X00501632D01*
X00499600Y00417968D01*
Y00627968D02*
X00497568Y00632032D01*
X00501632D01*
X00499600Y00627968D01*
Y00602568D02*
X00497568Y00606632D01*
X00501632D01*
X00499600Y00602568D01*
Y00577168D02*
X00497568Y00581232D01*
X00501632D01*
X00499600Y00577168D01*
Y00551768D02*
X00497568Y00555832D01*
X00501632D01*
X00499600Y00551768D01*
X00525000Y00627968D02*
X00522968Y00632032D01*
X00527032D01*
X00525000Y00627968D01*
Y00602568D02*
X00522968Y00606632D01*
X00527032D01*
X00525000Y00602568D01*
Y00577168D02*
X00522968Y00581232D01*
X00527032D01*
X00525000Y00577168D01*
Y00551768D02*
X00522968Y00555832D01*
X00527032D01*
X00525000Y00551768D01*
Y00653368D02*
X00522968Y00657432D01*
X00527032D01*
X00525000Y00653368D01*
X00499600D02*
X00497568Y00657432D01*
X00501632D01*
X00499600Y00653368D01*
Y00863368D02*
X00497568Y00867432D01*
X00501632D01*
X00499600Y00863368D01*
X00525000D02*
X00522968Y00867432D01*
X00527032D01*
X00525000Y00863368D01*
Y00761768D02*
X00522968Y00765832D01*
X00527032D01*
X00525000Y00761768D01*
Y00787168D02*
X00522968Y00791232D01*
X00527032D01*
X00525000Y00787168D01*
Y00812568D02*
X00522968Y00816632D01*
X00527032D01*
X00525000Y00812568D01*
Y00837968D02*
X00522968Y00842032D01*
X00527032D01*
X00525000Y00837968D01*
X00499600Y00761768D02*
X00497568Y00765832D01*
X00501632D01*
X00499600Y00761768D01*
Y00787168D02*
X00497568Y00791232D01*
X00501632D01*
X00499600Y00787168D01*
Y00812568D02*
X00497568Y00816632D01*
X00501632D01*
X00499600Y00812568D01*
Y00837968D02*
X00497568Y00842032D01*
X00501632D01*
X00499600Y00837968D01*
Y01047968D02*
X00497568Y01052032D01*
X00501632D01*
X00499600Y01047968D01*
Y01022568D02*
X00497568Y01026632D01*
X00501632D01*
X00499600Y01022568D01*
Y00997168D02*
X00497568Y01001232D01*
X00501632D01*
X00499600Y00997168D01*
Y00971768D02*
X00497568Y00975832D01*
X00501632D01*
X00499600Y00971768D01*
X00525000Y01047968D02*
X00522968Y01052032D01*
X00527032D01*
X00525000Y01047968D01*
Y01022568D02*
X00522968Y01026632D01*
X00527032D01*
X00525000Y01022568D01*
Y00997168D02*
X00522968Y01001232D01*
X00527032D01*
X00525000Y00997168D01*
Y00971768D02*
X00522968Y00975832D01*
X00527032D01*
X00525000Y00971768D01*
Y01073368D02*
X00522968Y01077432D01*
X00527032D01*
X00525000Y01073368D01*
X00499600D02*
X00497568Y01077432D01*
X00501632D01*
X00499600Y01073368D01*
X00200400Y00316368D02*
X00198368Y00320432D01*
X00202432D01*
X00200400Y00316368D01*
X00175000D02*
X00172968Y00320432D01*
X00177032D01*
X00175000Y00316368D01*
Y00417968D02*
X00172968Y00422032D01*
X00177032D01*
X00175000Y00417968D01*
Y00392568D02*
X00172968Y00396632D01*
X00177032D01*
X00175000Y00392568D01*
Y00367168D02*
X00172968Y00371232D01*
X00177032D01*
X00175000Y00367168D01*
Y00341768D02*
X00172968Y00345832D01*
X00177032D01*
X00175000Y00341768D01*
X00200400Y00417968D02*
X00198368Y00422032D01*
X00202432D01*
X00200400Y00417968D01*
Y00392568D02*
X00198368Y00396632D01*
X00202432D01*
X00200400Y00392568D01*
Y00367168D02*
X00198368Y00371232D01*
X00202432D01*
X00200400Y00367168D01*
Y00341768D02*
X00198368Y00345832D01*
X00202432D01*
X00200400Y00341768D01*
Y00551768D02*
X00198368Y00555832D01*
X00202432D01*
X00200400Y00551768D01*
Y00577168D02*
X00198368Y00581232D01*
X00202432D01*
X00200400Y00577168D01*
Y00602568D02*
X00198368Y00606632D01*
X00202432D01*
X00200400Y00602568D01*
Y00627968D02*
X00198368Y00632032D01*
X00202432D01*
X00200400Y00627968D01*
X00175000Y00551768D02*
X00172968Y00555832D01*
X00177032D01*
X00175000Y00551768D01*
Y00577168D02*
X00172968Y00581232D01*
X00177032D01*
X00175000Y00577168D01*
Y00602568D02*
X00172968Y00606632D01*
X00177032D01*
X00175000Y00602568D01*
Y00627968D02*
X00172968Y00632032D01*
X00177032D01*
X00175000Y00627968D01*
Y00526368D02*
X00172968Y00530432D01*
X00177032D01*
X00175000Y00526368D01*
X00200400D02*
X00198368Y00530432D01*
X00202432D01*
X00200400Y00526368D01*
Y00736368D02*
X00198368Y00740432D01*
X00202432D01*
X00200400Y00736368D01*
X00175000D02*
X00172968Y00740432D01*
X00177032D01*
X00175000Y00736368D01*
Y00837968D02*
X00172968Y00842032D01*
X00177032D01*
X00175000Y00837968D01*
Y00812568D02*
X00172968Y00816632D01*
X00177032D01*
X00175000Y00812568D01*
Y00787168D02*
X00172968Y00791232D01*
X00177032D01*
X00175000Y00787168D01*
Y00761768D02*
X00172968Y00765832D01*
X00177032D01*
X00175000Y00761768D01*
X00200400Y00837968D02*
X00198368Y00842032D01*
X00202432D01*
X00200400Y00837968D01*
Y00812568D02*
X00198368Y00816632D01*
X00202432D01*
X00200400Y00812568D01*
Y00787168D02*
X00198368Y00791232D01*
X00202432D01*
X00200400Y00787168D01*
Y00761768D02*
X00198368Y00765832D01*
X00202432D01*
X00200400Y00761768D01*
Y00971768D02*
X00198368Y00975832D01*
X00202432D01*
X00200400Y00971768D01*
Y00997168D02*
X00198368Y01001232D01*
X00202432D01*
X00200400Y00997168D01*
Y01022568D02*
X00198368Y01026632D01*
X00202432D01*
X00200400Y01022568D01*
Y01047968D02*
X00198368Y01052032D01*
X00202432D01*
X00200400Y01047968D01*
X00175000Y00971768D02*
X00172968Y00975832D01*
X00177032D01*
X00175000Y00971768D01*
Y00997168D02*
X00172968Y01001232D01*
X00177032D01*
X00175000Y00997168D01*
Y01022568D02*
X00172968Y01026632D01*
X00177032D01*
X00175000Y01022568D01*
Y01047968D02*
X00172968Y01052032D01*
X00177032D01*
X00175000Y01047968D01*
Y00946368D02*
X00172968Y00950432D01*
X00177032D01*
X00175000Y00946368D01*
X00200400D02*
X00198368Y00950432D01*
X00202432D01*
X00200400Y00946368D01*
X00392100Y00600558D02*
X00390068Y00604622D01*
X00394132D01*
X00392100Y00600558D01*
X00366700D02*
X00364668Y00604622D01*
X00368732D01*
X00366700Y00600558D01*
Y00575158D02*
X00364668Y00579222D01*
X00368732D01*
X00366700Y00575158D01*
X00341300Y00600558D02*
X00339268Y00604622D01*
X00343332D01*
X00341300Y00600558D01*
Y00575158D02*
X00339268Y00579222D01*
X00343332D01*
X00341300Y00575158D01*
X00392100D02*
X00390068Y00579222D01*
X00394132D01*
X00392100Y00575158D01*
X00560000Y01157968D02*
X00561016Y01158984D01*
X00562032D01*
X00561016Y01160000D01*
X00562032Y01161016D01*
X00561016D01*
X00560000Y01162032D01*
X00558984Y01161016D01*
X00557968D01*
X00558984Y01160000D01*
X00557968Y01158984D01*
X00558984D01*
X00560000Y01157968D01*
X00140000D02*
X00141016Y01158984D01*
X00142032D01*
X00141016Y01160000D01*
X00142032Y01161016D01*
X00141016D01*
X00140000Y01162032D01*
X00138984Y01161016D01*
X00137968D01*
X00138984Y01160000D01*
X00137968Y01158984D01*
X00138984D01*
X00140000Y01157968D01*
X00560000Y00237968D02*
X00561016Y00238984D01*
X00562032D01*
X00561016Y00240000D01*
X00562032Y00241016D01*
X00561016D01*
X00560000Y00242032D01*
X00558984Y00241016D01*
X00557968D01*
X00558984Y00240000D01*
X00557968Y00238984D01*
X00558984D01*
X00560000Y00237968D01*
X00140000D02*
X00141016Y00238984D01*
X00142032D01*
X00141016Y00240000D01*
X00142032Y00241016D01*
X00141016D01*
X00140000Y00242032D01*
X00138984Y00241016D01*
X00137968D01*
X00138984Y00240000D01*
X00137968Y00238984D01*
X00138984D01*
X00140000Y00237968D01*
X00151308Y01100938D02*
X00152324Y01102970D01*
X00151308Y01105002D01*
X00153340Y01103986D01*
X00155372Y01105002D01*
X00154356Y01102970D01*
X00155372Y01100938D01*
X00153340Y01101954D01*
X00151308Y01100938D01*
X00157658Y01093318D02*
X00158674Y01095350D01*
X00157658Y01097382D01*
X00159690Y01096366D01*
X00161722Y01097382D01*
X00160706Y01095350D01*
X00161722Y01093318D01*
X00159690Y01094334D01*
X00157658Y01093318D01*
X00238938Y01100938D02*
X00239954Y01102970D01*
X00238938Y01105002D01*
X00240970Y01103986D01*
X00243002Y01105002D01*
X00241986Y01102970D01*
X00243002Y01100938D01*
X00240970Y01101954D01*
X00238938Y01100938D01*
X00242748Y01091958D02*
X00243764Y01093990D01*
X00242748Y01096022D01*
X00244780Y01095006D01*
X00246812Y01096022D01*
X00245796Y01093990D01*
X00246812Y01091958D01*
X00244780Y01092974D01*
X00242748Y01091958D01*
X00461188Y00863448D02*
X00462204Y00865480D01*
X00461188Y00867512D01*
X00463220Y00866496D01*
X00465252Y00867512D01*
X00464236Y00865480D01*
X00465252Y00863448D01*
X00463220Y00864464D01*
X00461188Y00863448D01*
X00451028Y00844398D02*
X00452044Y00846430D01*
X00451028Y00848462D01*
X00453060Y00847446D01*
X00455092Y00848462D01*
X00454076Y00846430D01*
X00455092Y00844398D01*
X00453060Y00845414D01*
X00451028Y00844398D01*
X00442138Y00841858D02*
X00443154Y00843890D01*
X00442138Y00845922D01*
X00444170Y00844906D01*
X00446202Y00845922D01*
X00445186Y00843890D01*
X00446202Y00841858D01*
X00444170Y00842874D01*
X00442138Y00841858D01*
X00477698Y00831698D02*
X00478714Y00833730D01*
X00477698Y00835762D01*
X00479730Y00834746D01*
X00481762Y00835762D01*
X00480746Y00833730D01*
X00481762Y00831698D01*
X00479730Y00832714D01*
X00477698Y00831698D01*
X00470078Y00836778D02*
X00471094Y00838810D01*
X00470078Y00840842D01*
X00472110Y00839826D01*
X00474142Y00840842D01*
X00473126Y00838810D01*
X00474142Y00836778D01*
X00472110Y00837794D01*
X00470078Y00836778D01*
X00481508Y00915518D02*
X00482524Y00917550D01*
X00481508Y00919582D01*
X00483540Y00918566D01*
X00485572Y00919582D01*
X00484556Y00917550D01*
X00485572Y00915518D01*
X00483540Y00916534D01*
X00481508Y00915518D01*
X00492938Y00904088D02*
X00493954Y00906120D01*
X00492938Y00908152D01*
X00494970Y00907136D01*
X00497002Y00908152D01*
X00495986Y00906120D01*
X00497002Y00904088D01*
X00494970Y00905104D01*
X00492938Y00904088D01*
X00498018Y00886308D02*
X00499034Y00888340D01*
X00498018Y00890372D01*
X00500050Y00889356D01*
X00502082Y00890372D01*
X00501066Y00888340D01*
X00502082Y00886308D01*
X00500050Y00887324D01*
X00498018Y00886308D01*
X00481508Y00890118D02*
X00482524Y00892150D01*
X00481508Y00894182D01*
X00483540Y00893166D01*
X00485572Y00894182D01*
X00484556Y00892150D01*
X00485572Y00890118D01*
X00483540Y00891134D01*
X00481508Y00890118D01*
X00463728Y00881228D02*
X00464744Y00883260D01*
X00463728Y00885292D01*
X00465760Y00884276D01*
X00467792Y00885292D01*
X00466776Y00883260D01*
X00467792Y00881228D01*
X00465760Y00882244D01*
X00463728Y00881228D01*
X00461188Y00872338D02*
X00462204Y00874370D01*
X00461188Y00876402D01*
X00463220Y00875386D01*
X00465252Y00876402D01*
X00464236Y00874370D01*
X00465252Y00872338D01*
X00463220Y00873354D01*
X00461188Y00872338D01*
X00429438Y00921868D02*
X00430454Y00923900D01*
X00429438Y00925932D01*
X00431470Y00924916D01*
X00433502Y00925932D01*
X00432486Y00923900D01*
X00433502Y00921868D01*
X00431470Y00922884D01*
X00429438Y00921868D01*
X00233858Y00952348D02*
X00234874Y00954380D01*
X00233858Y00956412D01*
X00235890Y00955396D01*
X00237922Y00956412D01*
X00236906Y00954380D01*
X00237922Y00952348D01*
X00235890Y00953364D01*
X00233858Y00952348D01*
X00235128Y00967588D02*
X00236144Y00969620D01*
X00235128Y00971652D01*
X00237160Y00970636D01*
X00239192Y00971652D01*
X00238176Y00969620D01*
X00239192Y00967588D01*
X00237160Y00968604D01*
X00235128Y00967588D01*
X00326568Y00938378D02*
X00327584Y00940410D01*
X00326568Y00942442D01*
X00328600Y00941426D01*
X00330632Y00942442D01*
X00329616Y00940410D01*
X00330632Y00938378D01*
X00328600Y00939394D01*
X00326568Y00938378D01*
X00332918Y00932028D02*
X00333934Y00934060D01*
X00332918Y00936092D01*
X00334950Y00935076D01*
X00336982Y00936092D01*
X00335966Y00934060D01*
X00336982Y00932028D01*
X00334950Y00933044D01*
X00332918Y00932028D01*
X00337998Y00938378D02*
X00339014Y00940410D01*
X00337998Y00942442D01*
X00340030Y00941426D01*
X00342062Y00942442D01*
X00341046Y00940410D01*
X00342062Y00938378D01*
X00340030Y00939394D01*
X00337998Y00938378D01*
X00346888Y00940918D02*
X00347904Y00942950D01*
X00346888Y00944982D01*
X00348920Y00943966D01*
X00350952Y00944982D01*
X00349936Y00942950D01*
X00350952Y00940918D01*
X00348920Y00941934D01*
X00346888Y00940918D01*
X00344348Y00953618D02*
X00345364Y00955650D01*
X00344348Y00957682D01*
X00346380Y00956666D01*
X00348412Y00957682D01*
X00347396Y00955650D01*
X00348412Y00953618D01*
X00346380Y00954634D01*
X00344348Y00953618D01*
X00466268Y00542138D02*
X00467284Y00544170D01*
X00466268Y00546202D01*
X00468300Y00545186D01*
X00470332Y00546202D01*
X00469316Y00544170D01*
X00470332Y00542138D01*
X00468300Y00543154D01*
X00466268Y00542138D01*
X00475158Y00525628D02*
X00476174Y00527660D01*
X00475158Y00529692D01*
X00477190Y00528676D01*
X00479222Y00529692D01*
X00478206Y00527660D01*
X00479222Y00525628D01*
X00477190Y00526644D01*
X00475158Y00525628D01*
X00542408Y00929488D02*
X00543424Y00931520D01*
X00542408Y00933552D01*
X00544440Y00932536D01*
X00546472Y00933552D01*
X00545456Y00931520D01*
X00546472Y00929488D01*
X00544440Y00930504D01*
X00542408Y00929488D01*
X00552628Y00920598D02*
X00553644Y00922630D01*
X00552628Y00924662D01*
X00554660Y00923646D01*
X00556692Y00924662D01*
X00555676Y00922630D01*
X00556692Y00920598D01*
X00554660Y00921614D01*
X00552628Y00920598D01*
X00537388Y00897738D02*
X00538404Y00899770D01*
X00537388Y00901802D01*
X00539420Y00900786D01*
X00541452Y00901802D01*
X00540436Y00899770D01*
X00541452Y00897738D01*
X00539420Y00898754D01*
X00537388Y00897738D01*
X00504368Y00939648D02*
X00505384Y00941680D01*
X00504368Y00943712D01*
X00506400Y00942696D01*
X00508432Y00943712D01*
X00507416Y00941680D01*
X00508432Y00939648D01*
X00506400Y00940664D01*
X00504368Y00939648D01*
X00434518Y00965048D02*
X00435534Y00967080D01*
X00434518Y00969112D01*
X00436550Y00968096D01*
X00438582Y00969112D01*
X00437566Y00967080D01*
X00438582Y00965048D01*
X00436550Y00966064D01*
X00434518Y00965048D01*
X00505638Y00890118D02*
X00506654Y00892150D01*
X00505638Y00894182D01*
X00507670Y00893166D01*
X00509702Y00894182D01*
X00508686Y00892150D01*
X00509702Y00890118D01*
X00507670Y00891134D01*
X00505638Y00890118D01*
X00504368Y00899008D02*
X00505384Y00901040D01*
X00504368Y00903072D01*
X00506400Y00902056D01*
X00508432Y00903072D01*
X00507416Y00901040D01*
X00508432Y00899008D01*
X00506400Y00900024D01*
X00504368Y00899008D01*
X00326568Y00239878D02*
X00327584Y00241910D01*
X00326568Y00243942D01*
X00328600Y00242926D01*
X00330632Y00243942D01*
X00329616Y00241910D01*
X00330632Y00239878D01*
X00328600Y00240894D01*
X00326568Y00239878D01*
X00219888Y00238608D02*
X00220904Y00240640D01*
X00219888Y00242672D01*
X00221920Y00241656D01*
X00223952Y00242672D01*
X00222936Y00240640D01*
X00223952Y00238608D01*
X00221920Y00239624D01*
X00219888Y00238608D01*
X00318948Y00247498D02*
X00319964Y00249530D01*
X00318948Y00251562D01*
X00320980Y00250546D01*
X00323012Y00251562D01*
X00321996Y00249530D01*
X00323012Y00247498D01*
X00320980Y00248514D01*
X00318948Y00247498D01*
X00193218D02*
X00194234Y00249530D01*
X00193218Y00251562D01*
X00195250Y00250546D01*
X00197282Y00251562D01*
X00196266Y00249530D01*
X00197282Y00247498D01*
X00195250Y00248514D01*
X00193218Y00247498D01*
X00438328Y00528168D02*
X00439344Y00530200D01*
X00438328Y00532232D01*
X00440360Y00531216D01*
X00442392Y00532232D01*
X00441376Y00530200D01*
X00442392Y00528168D01*
X00440360Y00529184D01*
X00438328Y00528168D01*
X00429438Y00525628D02*
X00430454Y00527660D01*
X00429438Y00529692D01*
X00431470Y00528676D01*
X00433502Y00529692D01*
X00432486Y00527660D01*
X00433502Y00525628D01*
X00431470Y00526644D01*
X00429438Y00525628D01*
X00420548Y00522668D02*
X00421564Y00524700D01*
X00420548Y00526732D01*
X00422580Y00525716D01*
X00424612Y00526732D01*
X00423596Y00524700D01*
X00424612Y00522668D01*
X00422580Y00523684D01*
X00420548Y00522668D01*
X00431978Y00542138D02*
X00432994Y00544170D01*
X00431978Y00546202D01*
X00434010Y00545186D01*
X00436042Y00546202D01*
X00435026Y00544170D01*
X00436042Y00542138D01*
X00434010Y00543154D01*
X00431978Y00542138D01*
X00418008Y00552298D02*
X00419024Y00554330D01*
X00418008Y00556362D01*
X00420040Y00555346D01*
X00422072Y00556362D01*
X00421056Y00554330D01*
X00422072Y00552298D01*
X00420040Y00553314D01*
X00418008Y00552298D01*
X00442138Y00477368D02*
X00443154Y00479400D01*
X00442138Y00481432D01*
X00444170Y00480416D01*
X00446202Y00481432D01*
X00445186Y00479400D01*
X00446202Y00477368D01*
X00444170Y00478384D01*
X00442138Y00477368D01*
X00247828Y00683108D02*
X00248844Y00685140D01*
X00247828Y00687172D01*
X00249860Y00686156D01*
X00251892Y00687172D01*
X00250876Y00685140D01*
X00251892Y00683108D01*
X00249860Y00684124D01*
X00247828Y00683108D01*
X00238938Y00674218D02*
X00239954Y00676250D01*
X00238938Y00678282D01*
X00240970Y00677266D01*
X00243002Y00678282D01*
X00241986Y00676250D01*
X00243002Y00674218D01*
X00240970Y00675234D01*
X00238938Y00674218D01*
X00297358Y00756768D02*
X00298374Y00758800D01*
X00297358Y00760832D01*
X00299390Y00759816D01*
X00301422Y00760832D01*
X00300406Y00758800D01*
X00301422Y00756768D01*
X00299390Y00757784D01*
X00297358Y00756768D01*
X00318948Y00694538D02*
X00319964Y00696570D01*
X00318948Y00698602D01*
X00320980Y00697586D01*
X00323012Y00698602D01*
X00321996Y00696570D01*
X00323012Y00694538D01*
X00320980Y00695554D01*
X00318948Y00694538D01*
X00304978Y00604368D02*
X00305994Y00606400D01*
X00304978Y00608432D01*
X00307010Y00607416D01*
X00309042Y00608432D01*
X00308026Y00606400D01*
X00309042Y00604368D01*
X00307010Y00605384D01*
X00304978Y00604368D01*
X00318808Y00606768D02*
X00319824Y00608800D01*
X00318808Y00610832D01*
X00320840Y00609816D01*
X00322872Y00610832D01*
X00321856Y00608800D01*
X00322872Y00606768D01*
X00320840Y00607784D01*
X00318808Y00606768D01*
X00336348Y00614908D02*
X00337364Y00616940D01*
X00336348Y00618972D01*
X00338380Y00617956D01*
X00340412Y00618972D01*
X00339396Y00616940D01*
X00340412Y00614908D01*
X00338380Y00615924D01*
X00336348Y00614908D01*
X00329108Y00515468D02*
X00330124Y00517500D01*
X00329108Y00519532D01*
X00331140Y00518516D01*
X00333172Y00519532D01*
X00332156Y00517500D01*
X00333172Y00515468D01*
X00331140Y00516484D01*
X00329108Y00515468D01*
X00357048Y00495148D02*
X00358064Y00497180D01*
X00357048Y00499212D01*
X00359080Y00498196D01*
X00361112Y00499212D01*
X00360096Y00497180D01*
X00361112Y00495148D01*
X00359080Y00496164D01*
X00357048Y00495148D01*
X00313868Y00469748D02*
X00314884Y00471780D01*
X00313868Y00473812D01*
X00315900Y00472796D01*
X00317932Y00473812D01*
X00316916Y00471780D01*
X00317932Y00469748D01*
X00315900Y00470764D01*
X00313868Y00469748D01*
X00318948Y00520548D02*
X00319964Y00522580D01*
X00318948Y00524612D01*
X00320980Y00523596D01*
X00323012Y00524612D01*
X00321996Y00522580D01*
X00323012Y00520548D01*
X00320980Y00521564D01*
X00318948Y00520548D01*
X00306248Y00519278D02*
X00307264Y00521310D01*
X00306248Y00523342D01*
X00308280Y00522326D01*
X00310312Y00523342D01*
X00309296Y00521310D01*
X00310312Y00519278D01*
X00308280Y00520294D01*
X00306248Y00519278D01*
X00344348Y00437998D02*
X00345364Y00440030D01*
X00344348Y00442062D01*
X00346380Y00441046D01*
X00348412Y00442062D01*
X00347396Y00440030D01*
X00348412Y00437998D01*
X00346380Y00439014D01*
X00344348Y00437998D01*
X00247488Y00556108D02*
X00248504Y00558140D01*
X00247488Y00560172D01*
X00249520Y00559156D01*
X00251552Y00560172D01*
X00250536Y00558140D01*
X00251552Y00556108D01*
X00249520Y00557124D01*
X00247488Y00556108D01*
X00310058Y00432918D02*
X00311074Y00434950D01*
X00310058Y00436982D01*
X00312090Y00435966D01*
X00314122Y00436982D01*
X00313106Y00434950D01*
X00314122Y00432918D01*
X00312090Y00433934D01*
X00310058Y00432918D01*
X00326568Y00429108D02*
X00327584Y00431140D01*
X00326568Y00433172D01*
X00328600Y00432156D01*
X00330632Y00433172D01*
X00329616Y00431140D01*
X00330632Y00429108D01*
X00328600Y00430124D01*
X00326568Y00429108D01*
X00257988Y00563728D02*
X00259004Y00565760D01*
X00257988Y00567792D01*
X00260020Y00566776D01*
X00262052Y00567792D01*
X00261036Y00565760D01*
X00262052Y00563728D01*
X00260020Y00564744D01*
X00257988Y00563728D01*
X00239448Y00561948D02*
X00240464Y00563980D01*
X00239448Y00566012D01*
X00241480Y00564996D01*
X00243512Y00566012D01*
X00242496Y00563980D01*
X00243512Y00561948D01*
X00241480Y00562964D01*
X00239448Y00561948D01*
X00379908Y00432918D02*
X00380924Y00434950D01*
X00379908Y00436982D01*
X00381940Y00435966D01*
X00383972Y00436982D01*
X00382956Y00434950D01*
X00383972Y00432918D01*
X00381940Y00433934D01*
X00379908Y00432918D01*
X00369748Y00402858D02*
X00370764Y00404890D01*
X00369748Y00406922D01*
X00371780Y00405906D01*
X00373812Y00406922D01*
X00372796Y00404890D01*
X00373812Y00402858D01*
X00371780Y00403874D01*
X00369748Y00402858D01*
X00297358Y00403708D02*
X00298374Y00405740D01*
X00297358Y00407772D01*
X00299390Y00406756D01*
X00301422Y00407772D01*
X00300406Y00405740D01*
X00301422Y00403708D01*
X00299390Y00404724D01*
X00297358Y00403708D01*
X00231318Y00553568D02*
X00232334Y00555600D01*
X00231318Y00557632D01*
X00233350Y00556616D01*
X00235382Y00557632D01*
X00234366Y00555600D01*
X00235382Y00553568D01*
X00233350Y00554584D01*
X00231318Y00553568D01*
X00260528Y00523088D02*
X00261544Y00525120D01*
X00260528Y00527152D01*
X00262560Y00526136D01*
X00264592Y00527152D01*
X00263576Y00525120D01*
X00264592Y00523088D01*
X00262560Y00524104D01*
X00260528Y00523088D01*
X00246558Y00521818D02*
X00247574Y00523850D01*
X00246558Y00525882D01*
X00248590Y00524866D01*
X00250622Y00525882D01*
X00249606Y00523850D01*
X00250622Y00521818D01*
X00248590Y00522834D01*
X00246558Y00521818D01*
X00456108Y00431648D02*
X00457124Y00433680D01*
X00456108Y00435712D01*
X00458140Y00434696D01*
X00460172Y00435712D01*
X00459156Y00433680D01*
X00460172Y00431648D01*
X00458140Y00432664D01*
X00456108Y00431648D01*
X00472618Y00471018D02*
X00473634Y00473050D01*
X00472618Y00475082D01*
X00474650Y00474066D01*
X00476682Y00475082D01*
X00475666Y00473050D01*
X00476682Y00471018D01*
X00474650Y00472034D01*
X00472618Y00471018D01*
X00335458Y00469748D02*
X00336474Y00471780D01*
X00335458Y00473812D01*
X00337490Y00472796D01*
X00339522Y00473812D01*
X00338506Y00471780D01*
X00339522Y00469748D01*
X00337490Y00470764D01*
X00335458Y00469748D01*
X00271958Y00429108D02*
X00272974Y00431140D01*
X00271958Y00433172D01*
X00273990Y00432156D01*
X00276022Y00433172D01*
X00275006Y00431140D01*
X00276022Y00429108D01*
X00273990Y00430124D01*
X00271958Y00429108D01*
X00426898Y00399898D02*
X00427914Y00401930D01*
X00426898Y00403962D01*
X00428930Y00402946D01*
X00430962Y00403962D01*
X00429946Y00401930D01*
X00430962Y00399898D01*
X00428930Y00400914D01*
X00426898Y00399898D01*
X00395148Y00420218D02*
X00396164Y00422250D01*
X00395148Y00424282D01*
X00397180Y00423266D01*
X00399212Y00424282D01*
X00398196Y00422250D01*
X00399212Y00420218D01*
X00397180Y00421234D01*
X00395148Y00420218D01*
Y00411328D02*
X00396164Y00413360D01*
X00395148Y00415392D01*
X00397180Y00414376D01*
X00399212Y00415392D01*
X00398196Y00413360D01*
X00399212Y00411328D01*
X00397180Y00412344D01*
X00395148Y00411328D01*
X00266878Y00406248D02*
X00267894Y00408280D01*
X00266878Y00410312D01*
X00268910Y00409296D01*
X00270942Y00410312D01*
X00269926Y00408280D01*
X00270942Y00406248D01*
X00268910Y00407264D01*
X00266878Y00406248D01*
X00360858Y00469748D02*
X00361874Y00471780D01*
X00360858Y00473812D01*
X00362890Y00472796D01*
X00364922Y00473812D01*
X00363906Y00471780D01*
X00364922Y00469748D01*
X00362890Y00470764D01*
X00360858Y00469748D01*
X00430708Y00431648D02*
X00431724Y00433680D01*
X00430708Y00435712D01*
X00432740Y00434696D01*
X00434772Y00435712D01*
X00433756Y00433680D01*
X00434772Y00431648D01*
X00432740Y00432664D01*
X00430708Y00431648D01*
X00288468Y00726288D02*
X00289484Y00728320D01*
X00288468Y00730352D01*
X00290500Y00729336D01*
X00292532Y00730352D01*
X00291516Y00728320D01*
X00292532Y00726288D01*
X00290500Y00727304D01*
X00288468Y00726288D01*
X00280501Y00689805D02*
X00281517Y00691837D01*
X00280501Y00693869D01*
X00282533Y00692853D01*
X00284565Y00693869D01*
X00283549Y00691837D01*
X00284565Y00689805D01*
X00282533Y00690821D01*
X00280501Y00689805D01*
X00351588Y00785598D02*
X00352604Y00787630D01*
X00351588Y00789662D01*
X00353620Y00788646D01*
X00355652Y00789662D01*
X00354636Y00787630D01*
X00355652Y00785598D01*
X00353620Y00786614D01*
X00351588Y00785598D01*
X00264338Y01117448D02*
X00265354Y01119480D01*
X00264338Y01121512D01*
X00266370Y01120496D01*
X00268402Y01121512D01*
X00267386Y01119480D01*
X00268402Y01117448D01*
X00266370Y01118464D01*
X00264338Y01117448D01*
Y01093318D02*
X00265354Y01095350D01*
X00264338Y01097382D01*
X00266370Y01096366D01*
X00268402Y01097382D01*
X00267386Y01095350D01*
X00268402Y01093318D01*
X00266370Y01094334D01*
X00264338Y01093318D01*
X00280848Y01076808D02*
X00281864Y01078840D01*
X00280848Y01080872D01*
X00282880Y01079856D01*
X00284912Y01080872D01*
X00283896Y01078840D01*
X00284912Y01076808D01*
X00282880Y01077824D01*
X00280848Y01076808D01*
X00296088Y01062838D02*
X00297104Y01064870D01*
X00296088Y01066902D01*
X00298120Y01065886D01*
X00300152Y01066902D01*
X00299136Y01064870D01*
X00300152Y01062838D01*
X00298120Y01063854D01*
X00296088Y01062838D01*
X00231318Y01112368D02*
X00232334Y01114400D01*
X00231318Y01116432D01*
X00233350Y01115416D01*
X00235382Y01116432D01*
X00234366Y01114400D01*
X00235382Y01112368D01*
X00233350Y01113384D01*
X00231318Y01112368D01*
X00307518Y01015848D02*
X00308534Y01017880D01*
X00307518Y01019912D01*
X00309550Y01018896D01*
X00311582Y01019912D01*
X00310566Y01017880D01*
X00311582Y01015848D01*
X00309550Y01016864D01*
X00307518Y01015848D01*
X00285928Y01036168D02*
X00286944Y01038200D01*
X00285928Y01040232D01*
X00287960Y01039216D01*
X00289992Y01040232D01*
X00288976Y01038200D01*
X00289992Y01036168D01*
X00287960Y01037184D01*
X00285928Y01036168D01*
X00260528Y01060298D02*
X00261544Y01062330D01*
X00260528Y01064362D01*
X00262560Y01063346D01*
X00264592Y01064362D01*
X00263576Y01062330D01*
X00264592Y01060298D01*
X00262560Y01061314D01*
X00260528Y01060298D01*
X00236398Y01084428D02*
X00237414Y01086460D01*
X00236398Y01088492D01*
X00238430Y01087476D01*
X00240462Y01088492D01*
X00239446Y01086460D01*
X00240462Y01084428D01*
X00238430Y01085444D01*
X00236398Y01084428D01*
X00170358Y01113638D02*
X00171374Y01115670D01*
X00170358Y01117702D01*
X00172390Y01116686D01*
X00174422Y01117702D01*
X00173406Y01115670D01*
X00174422Y01113638D01*
X00172390Y01114654D01*
X00170358Y01113638D01*
X00130988D02*
X00132004Y01115670D01*
X00130988Y01117702D01*
X00133020Y01116686D01*
X00135052Y01117702D01*
X00134036Y01115670D01*
X00135052Y01113638D01*
X00133020Y01114654D01*
X00130988Y01113638D01*
Y01056488D02*
X00132004Y01058520D01*
X00130988Y01060552D01*
X00133020Y01059536D01*
X00135052Y01060552D01*
X00134036Y01058520D01*
X00135052Y01056488D01*
X00133020Y01057504D01*
X00130988Y01056488D01*
X00132258Y01009498D02*
X00133274Y01011530D01*
X00132258Y01013562D01*
X00134290Y01012546D01*
X00136322Y01013562D01*
X00135306Y01011530D01*
X00136322Y01009498D01*
X00134290Y01010514D01*
X00132258Y01009498D01*
Y00959968D02*
X00133274Y00962000D01*
X00132258Y00964032D01*
X00134290Y00963016D01*
X00136322Y00964032D01*
X00135306Y00962000D01*
X00136322Y00959968D01*
X00134290Y00960984D01*
X00132258Y00959968D01*
X00157658Y00916788D02*
X00158674Y00918820D01*
X00157658Y00920852D01*
X00159690Y00919836D01*
X00161722Y00920852D01*
X00160706Y00918820D01*
X00161722Y00916788D01*
X00159690Y00917804D01*
X00157658Y00916788D01*
X00185598Y00932028D02*
X00186614Y00934060D01*
X00185598Y00936092D01*
X00187630Y00935076D01*
X00189662Y00936092D01*
X00188646Y00934060D01*
X00189662Y00932028D01*
X00187630Y00933044D01*
X00185598Y00932028D01*
X00133528Y00921868D02*
X00134544Y00923900D01*
X00133528Y00925932D01*
X00135560Y00924916D01*
X00137592Y00925932D01*
X00136576Y00923900D01*
X00137592Y00921868D01*
X00135560Y00922884D01*
X00133528Y00921868D01*
X00157658Y00882498D02*
X00158674Y00884530D01*
X00157658Y00886562D01*
X00159690Y00885546D01*
X00161722Y00886562D01*
X00160706Y00884530D01*
X00161722Y00882498D01*
X00159690Y00883514D01*
X00157658Y00882498D01*
X00132258Y00890118D02*
X00133274Y00892150D01*
X00132258Y00894182D01*
X00134290Y00893166D01*
X00136322Y00894182D01*
X00135306Y00892150D01*
X00136322Y00890118D01*
X00134290Y00891134D01*
X00132258Y00890118D01*
Y00821538D02*
X00133274Y00823570D01*
X00132258Y00825602D01*
X00134290Y00824586D01*
X00136322Y00825602D01*
X00135306Y00823570D01*
X00136322Y00821538D01*
X00134290Y00822554D01*
X00132258Y00821538D01*
Y00787248D02*
X00133274Y00789280D01*
X00132258Y00791312D01*
X00134290Y00790296D01*
X00136322Y00791312D01*
X00135306Y00789280D01*
X00136322Y00787248D01*
X00134290Y00788264D01*
X00132258Y00787248D01*
Y00738988D02*
X00133274Y00741020D01*
X00132258Y00743052D01*
X00134290Y00742036D01*
X00136322Y00743052D01*
X00135306Y00741020D01*
X00136322Y00738988D01*
X00134290Y00740004D01*
X00132258Y00738988D01*
X00156388Y00707238D02*
X00157404Y00709270D01*
X00156388Y00711302D01*
X00158420Y00710286D01*
X00160452Y00711302D01*
X00159436Y00709270D01*
X00160452Y00707238D01*
X00158420Y00708254D01*
X00156388Y00707238D01*
X00133528Y00703428D02*
X00134544Y00705460D01*
X00133528Y00707492D01*
X00135560Y00706476D01*
X00137592Y00707492D01*
X00136576Y00705460D01*
X00137592Y00703428D01*
X00135560Y00704444D01*
X00133528Y00703428D01*
X00157658Y00691998D02*
X00158674Y00694030D01*
X00157658Y00696062D01*
X00159690Y00695046D01*
X00161722Y00696062D01*
X00160706Y00694030D01*
X00161722Y00691998D01*
X00159690Y00693014D01*
X00157658Y00691998D01*
X00133528Y00675488D02*
X00134544Y00677520D01*
X00133528Y00679552D01*
X00135560Y00678536D01*
X00137592Y00679552D01*
X00136576Y00677520D01*
X00137592Y00675488D01*
X00135560Y00676504D01*
X00133528Y00675488D01*
Y00620878D02*
X00134544Y00622910D01*
X00133528Y00624942D01*
X00135560Y00623926D01*
X00137592Y00624942D01*
X00136576Y00622910D01*
X00137592Y00620878D01*
X00135560Y00621894D01*
X00133528Y00620878D01*
Y00586588D02*
X00134544Y00588620D01*
X00133528Y00590652D01*
X00135560Y00589636D01*
X00137592Y00590652D01*
X00136576Y00588620D01*
X00137592Y00586588D01*
X00135560Y00587604D01*
X00133528Y00586588D01*
Y00548488D02*
X00134544Y00550520D01*
X00133528Y00552552D01*
X00135560Y00551536D01*
X00137592Y00552552D01*
X00136576Y00550520D01*
X00137592Y00548488D01*
X00135560Y00549504D01*
X00133528Y00548488D01*
Y00512928D02*
X00134544Y00514960D01*
X00133528Y00516992D01*
X00135560Y00515976D01*
X00137592Y00516992D01*
X00136576Y00514960D01*
X00137592Y00512928D01*
X00135560Y00513944D01*
X00133528Y00512928D01*
Y00473558D02*
X00134544Y00475590D01*
X00133528Y00477622D01*
X00135560Y00476606D01*
X00137592Y00477622D01*
X00136576Y00475590D01*
X00137592Y00473558D01*
X00135560Y00474574D01*
X00133528Y00473558D01*
Y00425298D02*
X00134544Y00427330D01*
X00133528Y00429362D01*
X00135560Y00428346D01*
X00137592Y00429362D01*
X00136576Y00427330D01*
X00137592Y00425298D01*
X00135560Y00426314D01*
X00133528Y00425298D01*
X00157658Y00492608D02*
X00158674Y00494640D01*
X00157658Y00496672D01*
X00159690Y00495656D01*
X00161722Y00496672D01*
X00160706Y00494640D01*
X00161722Y00492608D01*
X00159690Y00493624D01*
X00157658Y00492608D01*
X00130988Y00394818D02*
X00132004Y00396850D01*
X00130988Y00398882D01*
X00133020Y00397866D01*
X00135052Y00398882D01*
X00134036Y00396850D01*
X00135052Y00394818D01*
X00133020Y00395834D01*
X00130988Y00394818D01*
X00157658Y00444348D02*
X00158674Y00446380D01*
X00157658Y00448412D01*
X00159690Y00447396D01*
X00161722Y00448412D01*
X00160706Y00446380D01*
X00161722Y00444348D01*
X00159690Y00445364D01*
X00157658Y00444348D01*
X00133528Y00355448D02*
X00134544Y00357480D01*
X00133528Y00359512D01*
X00135560Y00358496D01*
X00137592Y00359512D01*
X00136576Y00357480D01*
X00137592Y00355448D01*
X00135560Y00356464D01*
X00133528Y00355448D01*
Y00314808D02*
X00134544Y00316840D01*
X00133528Y00318872D01*
X00135560Y00317856D01*
X00137592Y00318872D01*
X00136576Y00316840D01*
X00137592Y00314808D01*
X00135560Y00315824D01*
X00133528Y00314808D01*
X00151308Y00267818D02*
X00152324Y00269850D01*
X00151308Y00271882D01*
X00153340Y00270866D01*
X00155372Y00271882D01*
X00154356Y00269850D01*
X00155372Y00267818D01*
X00153340Y00268834D01*
X00151308Y00267818D01*
X00199568Y00239878D02*
X00200584Y00241910D01*
X00199568Y00243942D01*
X00201600Y00242926D01*
X00203632Y00243942D01*
X00202616Y00241910D01*
X00203632Y00239878D01*
X00201600Y00240894D01*
X00199568Y00239878D01*
X00213538Y00256388D02*
X00214554Y00258420D01*
X00213538Y00260452D01*
X00215570Y00259436D01*
X00217602Y00260452D01*
X00216586Y00258420D01*
X00217602Y00256388D01*
X00215570Y00257404D01*
X00213538Y00256388D01*
X00238938D02*
X00239954Y00258420D01*
X00238938Y00260452D01*
X00240970Y00259436D01*
X00243002Y00260452D01*
X00241986Y00258420D01*
X00243002Y00256388D01*
X00240970Y00257404D01*
X00238938Y00256388D01*
X00251638Y00294488D02*
X00252654Y00296520D01*
X00251638Y00298552D01*
X00253670Y00297536D01*
X00255702Y00298552D01*
X00254686Y00296520D01*
X00255702Y00294488D01*
X00253670Y00295504D01*
X00251638Y00294488D01*
X00283388Y00256388D02*
X00284404Y00258420D01*
X00283388Y00260452D01*
X00285420Y00259436D01*
X00287452Y00260452D01*
X00286436Y00258420D01*
X00287452Y00256388D01*
X00285420Y00257404D01*
X00283388Y00256388D01*
X00171628D02*
X00172644Y00258420D01*
X00171628Y00260452D01*
X00173660Y00259436D01*
X00175692Y00260452D01*
X00174676Y00258420D01*
X00175692Y00256388D01*
X00173660Y00257404D01*
X00171628Y00256388D01*
X00228778Y00229718D02*
X00229794Y00231750D01*
X00228778Y00233782D01*
X00230810Y00232766D01*
X00232842Y00233782D01*
X00231826Y00231750D01*
X00232842Y00229718D01*
X00230810Y00230734D01*
X00228778Y00229718D01*
X00209728D02*
X00210744Y00231750D01*
X00209728Y00233782D01*
X00211760Y00232766D01*
X00213792Y00233782D01*
X00212776Y00231750D01*
X00213792Y00229718D01*
X00211760Y00230734D01*
X00209728Y00229718D01*
X00259258Y00256388D02*
X00260274Y00258420D01*
X00259258Y00260452D01*
X00261290Y00259436D01*
X00263322Y00260452D01*
X00262306Y00258420D01*
X00263322Y00256388D01*
X00261290Y00257404D01*
X00259258Y00256388D01*
X00256718Y00229718D02*
X00257734Y00231750D01*
X00256718Y00233782D01*
X00258750Y00232766D01*
X00260782Y00233782D01*
X00259766Y00231750D01*
X00260782Y00229718D01*
X00258750Y00230734D01*
X00256718Y00229718D01*
X00283388Y00230988D02*
X00284404Y00233020D01*
X00283388Y00235052D01*
X00285420Y00234036D01*
X00287452Y00235052D01*
X00286436Y00233020D01*
X00287452Y00230988D01*
X00285420Y00232004D01*
X00283388Y00230988D01*
X00317678Y00257658D02*
X00318694Y00259690D01*
X00317678Y00261722D01*
X00319710Y00260706D01*
X00321742Y00261722D01*
X00320726Y00259690D01*
X00321742Y00257658D01*
X00319710Y00258674D01*
X00317678Y00257658D01*
X00324028Y00285598D02*
X00325044Y00287630D01*
X00324028Y00289662D01*
X00326060Y00288646D01*
X00328092Y00289662D01*
X00327076Y00287630D01*
X00328092Y00285598D01*
X00326060Y00286614D01*
X00324028Y00285598D01*
X00336728Y00298298D02*
X00337744Y00300330D01*
X00336728Y00302362D01*
X00338760Y00301346D01*
X00340792Y00302362D01*
X00339776Y00300330D01*
X00340792Y00298298D01*
X00338760Y00299314D01*
X00336728Y00298298D01*
X00306248Y00297028D02*
X00307264Y00299060D01*
X00306248Y00301092D01*
X00308280Y00300076D01*
X00310312Y00301092D01*
X00309296Y00299060D01*
X00310312Y00297028D01*
X00308280Y00298044D01*
X00306248Y00297028D01*
X00374828Y00295758D02*
X00375844Y00297790D01*
X00374828Y00299822D01*
X00376860Y00298806D01*
X00378892Y00299822D01*
X00377876Y00297790D01*
X00378892Y00295758D01*
X00376860Y00296774D01*
X00374828Y00295758D01*
X00210998Y00327508D02*
X00212014Y00329540D01*
X00210998Y00331572D01*
X00213030Y00330556D01*
X00215062Y00331572D01*
X00214046Y00329540D01*
X00215062Y00327508D01*
X00213030Y00328524D01*
X00210998Y00327508D01*
X00260528Y00357988D02*
X00261544Y00360020D01*
X00260528Y00362052D01*
X00262560Y00361036D01*
X00264592Y00362052D01*
X00263576Y00360020D01*
X00264592Y00357988D01*
X00262560Y00359004D01*
X00260528Y00357988D01*
X00275768Y00373228D02*
X00276784Y00375260D01*
X00275768Y00377292D01*
X00277800Y00376276D01*
X00279832Y00377292D01*
X00278816Y00375260D01*
X00279832Y00373228D01*
X00277800Y00374244D01*
X00275768Y00373228D01*
X00289738Y00327508D02*
X00290754Y00329540D01*
X00289738Y00331572D01*
X00291770Y00330556D01*
X00293802Y00331572D01*
X00292786Y00329540D01*
X00293802Y00327508D01*
X00291770Y00328524D01*
X00289738Y00327508D01*
X00265608D02*
X00266624Y00329540D01*
X00265608Y00331572D01*
X00267640Y00330556D01*
X00269672Y00331572D01*
X00268656Y00329540D01*
X00269672Y00327508D01*
X00267640Y00328524D01*
X00265608Y00327508D01*
X00245288Y00383388D02*
X00246304Y00385420D01*
X00245288Y00387452D01*
X00247320Y00386436D01*
X00249352Y00387452D01*
X00248336Y00385420D01*
X00249352Y00383388D01*
X00247320Y00384404D01*
X00245288Y00383388D01*
X00227508Y00380848D02*
X00228524Y00382880D01*
X00227508Y00384912D01*
X00229540Y00383896D01*
X00231572Y00384912D01*
X00230556Y00382880D01*
X00231572Y00380848D01*
X00229540Y00381864D01*
X00227508Y00380848D01*
X00230048Y00426568D02*
X00231064Y00428600D01*
X00230048Y00430632D01*
X00232080Y00429616D01*
X00234112Y00430632D01*
X00233096Y00428600D01*
X00234112Y00426568D01*
X00232080Y00427584D01*
X00230048Y00426568D01*
X00357048Y00455778D02*
X00358064Y00457810D01*
X00357048Y00459842D01*
X00359080Y00458826D01*
X00361112Y00459842D01*
X00360096Y00457810D01*
X00361112Y00455778D01*
X00359080Y00456794D01*
X00357048Y00455778D01*
X00245288Y00342748D02*
X00246304Y00344780D01*
X00245288Y00346812D01*
X00247320Y00345796D01*
X00249352Y00346812D01*
X00248336Y00344780D01*
X00249352Y00342748D01*
X00247320Y00343764D01*
X00245288Y00342748D01*
X00317678Y00327508D02*
X00318694Y00329540D01*
X00317678Y00331572D01*
X00319710Y00330556D01*
X00321742Y00331572D01*
X00320726Y00329540D01*
X00321742Y00327508D01*
X00319710Y00328524D01*
X00317678Y00327508D01*
X00316408Y00230988D02*
X00317424Y00233020D01*
X00316408Y00235052D01*
X00318440Y00234036D01*
X00320472Y00235052D01*
X00319456Y00233020D01*
X00320472Y00230988D01*
X00318440Y00232004D01*
X00316408Y00230988D01*
X00348158Y00246228D02*
X00349174Y00248260D01*
X00348158Y00250292D01*
X00350190Y00249276D01*
X00352222Y00250292D01*
X00351206Y00248260D01*
X00352222Y00246228D01*
X00350190Y00247244D01*
X00348158Y00246228D01*
X00365938Y00264008D02*
X00366954Y00266040D01*
X00365938Y00268072D01*
X00367970Y00267056D01*
X00370002Y00268072D01*
X00368986Y00266040D01*
X00370002Y00264008D01*
X00367970Y00265024D01*
X00365938Y00264008D01*
X00310058Y00384658D02*
X00311074Y00386690D01*
X00310058Y00388722D01*
X00312090Y00387706D01*
X00314122Y00388722D01*
X00313106Y00386690D01*
X00314122Y00384658D01*
X00312090Y00385674D01*
X00310058Y00384658D01*
X00359588Y00383388D02*
X00360604Y00385420D01*
X00359588Y00387452D01*
X00361620Y00386436D01*
X00363652Y00387452D01*
X00362636Y00385420D01*
X00363652Y00383388D01*
X00361620Y00384404D01*
X00359588Y00383388D01*
X00400228Y00371958D02*
X00401244Y00373990D01*
X00400228Y00376022D01*
X00402260Y00375006D01*
X00404292Y00376022D01*
X00403276Y00373990D01*
X00404292Y00371958D01*
X00402260Y00372974D01*
X00400228Y00371958D01*
X00411658Y00346558D02*
X00412674Y00348590D01*
X00411658Y00350622D01*
X00413690Y00349606D01*
X00415722Y00350622D01*
X00414706Y00348590D01*
X00415722Y00346558D01*
X00413690Y00347574D01*
X00411658Y00346558D01*
X00404038Y00326238D02*
X00405054Y00328270D01*
X00404038Y00330302D01*
X00406070Y00329286D01*
X00408102Y00330302D01*
X00407086Y00328270D01*
X00408102Y00326238D01*
X00406070Y00327254D01*
X00404038Y00326238D01*
X00350698Y00328778D02*
X00351714Y00330810D01*
X00350698Y00332842D01*
X00352730Y00331826D01*
X00354762Y00332842D01*
X00353746Y00330810D01*
X00354762Y00328778D01*
X00352730Y00329794D01*
X00350698Y00328778D01*
X00437058Y00345288D02*
X00438074Y00347320D01*
X00437058Y00349352D01*
X00439090Y00348336D01*
X00441122Y00349352D01*
X00440106Y00347320D01*
X00441122Y00345288D01*
X00439090Y00346304D01*
X00437058Y00345288D01*
X00467538Y00302108D02*
X00468554Y00304140D01*
X00467538Y00306172D01*
X00469570Y00305156D01*
X00471602Y00306172D01*
X00470586Y00304140D01*
X00471602Y00302108D01*
X00469570Y00303124D01*
X00467538Y00302108D01*
X00504368Y00295758D02*
X00505384Y00297790D01*
X00504368Y00299822D01*
X00506400Y00298806D01*
X00508432Y00299822D01*
X00507416Y00297790D01*
X00508432Y00295758D01*
X00506400Y00296774D01*
X00504368Y00295758D01*
X00490398Y00309728D02*
X00491414Y00311760D01*
X00490398Y00313792D01*
X00492430Y00312776D01*
X00494462Y00313792D01*
X00493446Y00311760D01*
X00494462Y00309728D01*
X00492430Y00310744D01*
X00490398Y00309728D01*
X00429438Y00294488D02*
X00430454Y00296520D01*
X00429438Y00298552D01*
X00431470Y00297536D01*
X00433502Y00298552D01*
X00432486Y00296520D01*
X00433502Y00294488D01*
X00431470Y00295504D01*
X00429438Y00294488D01*
X00445948Y00277978D02*
X00446964Y00280010D01*
X00445948Y00282042D01*
X00447980Y00281026D01*
X00450012Y00282042D01*
X00448996Y00280010D01*
X00450012Y00277978D01*
X00447980Y00278994D01*
X00445948Y00277978D01*
X00459918Y00266548D02*
X00460934Y00268580D01*
X00459918Y00270612D01*
X00461950Y00269596D01*
X00463982Y00270612D01*
X00462966Y00268580D01*
X00463982Y00266548D01*
X00461950Y00267564D01*
X00459918Y00266548D01*
X00489128Y00265278D02*
X00490144Y00267310D01*
X00489128Y00269342D01*
X00491160Y00268326D01*
X00493192Y00269342D01*
X00492176Y00267310D01*
X00493192Y00265278D01*
X00491160Y00266294D01*
X00489128Y00265278D01*
X00525958Y00258928D02*
X00526974Y00260960D01*
X00525958Y00262992D01*
X00527990Y00261976D01*
X00530022Y00262992D01*
X00529006Y00260960D01*
X00530022Y00258928D01*
X00527990Y00259944D01*
X00525958Y00258928D01*
X00536118Y00298298D02*
X00537134Y00300330D01*
X00536118Y00302362D01*
X00538150Y00301346D01*
X00540182Y00302362D01*
X00539166Y00300330D01*
X00540182Y00298298D01*
X00538150Y00299314D01*
X00536118Y00298298D01*
X00565328Y00330048D02*
X00566344Y00332080D01*
X00565328Y00334112D01*
X00567360Y00333096D01*
X00569392Y00334112D01*
X00568376Y00332080D01*
X00569392Y00330048D01*
X00567360Y00331064D01*
X00565328Y00330048D01*
X00566598Y00360528D02*
X00567614Y00362560D01*
X00566598Y00364592D01*
X00568630Y00363576D01*
X00570662Y00364592D01*
X00569646Y00362560D01*
X00570662Y00360528D01*
X00568630Y00361544D01*
X00566598Y00360528D01*
X00565328Y00406248D02*
X00566344Y00408280D01*
X00565328Y00410312D01*
X00567360Y00409296D01*
X00569392Y00410312D01*
X00568376Y00408280D01*
X00569392Y00406248D01*
X00567360Y00407264D01*
X00565328Y00406248D01*
X00564058Y00460858D02*
X00565074Y00462890D01*
X00564058Y00464922D01*
X00566090Y00463906D01*
X00568122Y00464922D01*
X00567106Y00462890D01*
X00568122Y00460858D01*
X00566090Y00461874D01*
X00564058Y00460858D01*
X00503098Y00473558D02*
X00504114Y00475590D01*
X00503098Y00477622D01*
X00505130Y00476606D01*
X00507162Y00477622D01*
X00506146Y00475590D01*
X00507162Y00473558D01*
X00505130Y00474574D01*
X00503098Y00473558D01*
Y00509118D02*
X00504114Y00511150D01*
X00503098Y00513182D01*
X00505130Y00512166D01*
X00507162Y00513182D01*
X00506146Y00511150D01*
X00507162Y00509118D01*
X00505130Y00510134D01*
X00503098Y00509118D01*
X00443408Y00535788D02*
X00444424Y00537820D01*
X00443408Y00539852D01*
X00445440Y00538836D01*
X00447472Y00539852D01*
X00446456Y00537820D01*
X00447472Y00535788D01*
X00445440Y00536804D01*
X00443408Y00535788D01*
X00344348Y00450698D02*
X00345364Y00452730D01*
X00344348Y00454762D01*
X00346380Y00453746D01*
X00348412Y00454762D01*
X00347396Y00452730D01*
X00348412Y00450698D01*
X00346380Y00451714D01*
X00344348Y00450698D01*
X00263068Y00469748D02*
X00264084Y00471780D01*
X00263068Y00473812D01*
X00265100Y00472796D01*
X00267132Y00473812D01*
X00266116Y00471780D01*
X00267132Y00469748D01*
X00265100Y00470764D01*
X00263068Y00469748D01*
X00236398Y00444348D02*
X00237414Y00446380D01*
X00236398Y00448412D01*
X00238430Y00447396D01*
X00240462Y00448412D01*
X00239446Y00446380D01*
X00240462Y00444348D01*
X00238430Y00445364D01*
X00236398Y00444348D01*
X00233858Y00467208D02*
X00234874Y00469240D01*
X00233858Y00471272D01*
X00235890Y00470256D01*
X00237922Y00471272D01*
X00236906Y00469240D01*
X00237922Y00467208D01*
X00235890Y00468224D01*
X00233858Y00467208D01*
X00235128Y00493878D02*
X00236144Y00495910D01*
X00235128Y00497942D01*
X00237160Y00496926D01*
X00239192Y00497942D01*
X00238176Y00495910D01*
X00239192Y00493878D01*
X00237160Y00494894D01*
X00235128Y00493878D01*
X00238938Y00515468D02*
X00239954Y00517500D01*
X00238938Y00519532D01*
X00240970Y00518516D01*
X00243002Y00519532D01*
X00241986Y00517500D01*
X00243002Y00515468D01*
X00240970Y00516484D01*
X00238938Y00515468D01*
X00216078Y00368148D02*
X00217094Y00370180D01*
X00216078Y00372212D01*
X00218110Y00371196D01*
X00220142Y00372212D01*
X00219126Y00370180D01*
X00220142Y00368148D01*
X00218110Y00369164D01*
X00216078Y00368148D01*
X00471348Y00383388D02*
X00472364Y00385420D01*
X00471348Y00387452D01*
X00473380Y00386436D01*
X00475412Y00387452D01*
X00474396Y00385420D01*
X00475412Y00383388D01*
X00473380Y00384404D01*
X00471348Y00383388D01*
X00412928Y00391008D02*
X00413944Y00393040D01*
X00412928Y00395072D01*
X00414960Y00394056D01*
X00416992Y00395072D01*
X00415976Y00393040D01*
X00416992Y00391008D01*
X00414960Y00392024D01*
X00412928Y00391008D01*
X00466268Y00449428D02*
X00467284Y00451460D01*
X00466268Y00453492D01*
X00468300Y00452476D01*
X00470332Y00453492D01*
X00469316Y00451460D01*
X00470332Y00449428D01*
X00468300Y00450444D01*
X00466268Y00449428D01*
X00443408Y00633578D02*
X00444424Y00635610D01*
X00443408Y00637642D01*
X00445440Y00636626D01*
X00447472Y00637642D01*
X00446456Y00635610D01*
X00447472Y00633578D01*
X00445440Y00634594D01*
X00443408Y00633578D01*
Y00595478D02*
X00444424Y00597510D01*
X00443408Y00599542D01*
X00445440Y00598526D01*
X00447472Y00599542D01*
X00446456Y00597510D01*
X00447472Y00595478D01*
X00445440Y00596494D01*
X00443408Y00595478D01*
X00466268Y00662788D02*
X00467284Y00664820D01*
X00466268Y00666852D01*
X00468300Y00665836D01*
X00470332Y00666852D01*
X00469316Y00664820D01*
X00470332Y00662788D01*
X00468300Y00663804D01*
X00466268Y00662788D01*
Y00683108D02*
X00467284Y00685140D01*
X00466268Y00687172D01*
X00468300Y00686156D01*
X00470332Y00687172D01*
X00469316Y00685140D01*
X00470332Y00683108D01*
X00468300Y00684124D01*
X00466268Y00683108D01*
X00396418Y00681838D02*
X00397434Y00683870D01*
X00396418Y00685902D01*
X00398450Y00684886D01*
X00400482Y00685902D01*
X00399466Y00683870D01*
X00400482Y00681838D01*
X00398450Y00682854D01*
X00396418Y00681838D01*
X00344348Y00685648D02*
X00345364Y00687680D01*
X00344348Y00689712D01*
X00346380Y00688696D01*
X00348412Y00689712D01*
X00347396Y00687680D01*
X00348412Y00685648D01*
X00346380Y00686664D01*
X00344348Y00685648D01*
Y00675488D02*
X00345364Y00677520D01*
X00344348Y00679552D01*
X00346380Y00678536D01*
X00348412Y00679552D01*
X00347396Y00677520D01*
X00348412Y00675488D01*
X00346380Y00676504D01*
X00344348Y00675488D01*
X00353238Y00680568D02*
X00354254Y00682600D01*
X00353238Y00684632D01*
X00355270Y00683616D01*
X00357302Y00684632D01*
X00356286Y00682600D01*
X00357302Y00680568D01*
X00355270Y00681584D01*
X00353238Y00680568D01*
X00324028Y00675488D02*
X00325044Y00677520D01*
X00324028Y00679552D01*
X00326060Y00678536D01*
X00328092Y00679552D01*
X00327076Y00677520D01*
X00328092Y00675488D01*
X00326060Y00676504D01*
X00324028Y00675488D01*
X00312598Y00686918D02*
X00313614Y00688950D01*
X00312598Y00690982D01*
X00314630Y00689966D01*
X00316662Y00690982D01*
X00315646Y00688950D01*
X00316662Y00686918D01*
X00314630Y00687934D01*
X00312598Y00686918D01*
X00278308Y00681838D02*
X00279324Y00683870D01*
X00278308Y00685902D01*
X00280340Y00684886D01*
X00282372Y00685902D01*
X00281356Y00683870D01*
X00282372Y00681838D01*
X00280340Y00682854D01*
X00278308Y00681838D01*
X00283388Y00665328D02*
X00284404Y00667360D01*
X00283388Y00669392D01*
X00285420Y00668376D01*
X00287452Y00669392D01*
X00286436Y00667360D01*
X00287452Y00665328D01*
X00285420Y00666344D01*
X00283388Y00665328D01*
X00284658Y00646278D02*
X00285674Y00648310D01*
X00284658Y00650342D01*
X00286690Y00649326D01*
X00288722Y00650342D01*
X00287706Y00648310D01*
X00288722Y00646278D01*
X00286690Y00647294D01*
X00284658Y00646278D01*
X00303708Y00618338D02*
X00304724Y00620370D01*
X00303708Y00622402D01*
X00305740Y00621386D01*
X00307772Y00622402D01*
X00306756Y00620370D01*
X00307772Y00618338D01*
X00305740Y00619354D01*
X00303708Y00618338D01*
X00322758Y00642468D02*
X00323774Y00644500D01*
X00322758Y00646532D01*
X00324790Y00645516D01*
X00326822Y00646532D01*
X00325806Y00644500D01*
X00326822Y00642468D01*
X00324790Y00643484D01*
X00322758Y00642468D01*
X00337998Y00657708D02*
X00339014Y00659740D01*
X00337998Y00661772D01*
X00340030Y00660756D01*
X00342062Y00661772D01*
X00341046Y00659740D01*
X00342062Y00657708D01*
X00340030Y00658724D01*
X00337998Y00657708D01*
X00277038Y00584048D02*
X00278054Y00586080D01*
X00277038Y00588112D01*
X00279070Y00587096D01*
X00281102Y00588112D01*
X00280086Y00586080D01*
X00281102Y00584048D01*
X00279070Y00585064D01*
X00277038Y00584048D01*
X00271958Y00571348D02*
X00272974Y00573380D01*
X00271958Y00575412D01*
X00273990Y00574396D01*
X00276022Y00575412D01*
X00275006Y00573380D01*
X00276022Y00571348D01*
X00273990Y00572364D01*
X00271958Y00571348D01*
X00285928D02*
X00286944Y00573380D01*
X00285928Y00575412D01*
X00287960Y00574396D01*
X00289992Y00575412D01*
X00288976Y00573380D01*
X00289992Y00571348D01*
X00287960Y00572364D01*
X00285928Y00571348D01*
X00283388Y00594208D02*
X00284404Y00596240D01*
X00283388Y00598272D01*
X00285420Y00597256D01*
X00287452Y00598272D01*
X00286436Y00596240D01*
X00287452Y00594208D01*
X00285420Y00595224D01*
X00283388Y00594208D01*
X00405308Y00552298D02*
X00406324Y00554330D01*
X00405308Y00556362D01*
X00407340Y00555346D01*
X00409372Y00556362D01*
X00408356Y00554330D01*
X00409372Y00552298D01*
X00407340Y00553314D01*
X00405308Y00552298D01*
X00419278Y00540868D02*
X00420294Y00542900D01*
X00419278Y00544932D01*
X00421310Y00543916D01*
X00423342Y00544932D01*
X00422326Y00542900D01*
X00423342Y00540868D01*
X00421310Y00541884D01*
X00419278Y00540868D01*
X00371018Y00524358D02*
X00372034Y00526390D01*
X00371018Y00528422D01*
X00373050Y00527406D01*
X00375082Y00528422D01*
X00374066Y00526390D01*
X00375082Y00524358D01*
X00373050Y00525374D01*
X00371018Y00524358D01*
X00396418Y00551028D02*
X00397434Y00553060D01*
X00396418Y00555092D01*
X00398450Y00554076D01*
X00400482Y00555092D01*
X00399466Y00553060D01*
X00400482Y00551028D01*
X00398450Y00552044D01*
X00396418Y00551028D01*
X00383718Y00562458D02*
X00384734Y00564490D01*
X00383718Y00566522D01*
X00385750Y00565506D01*
X00387782Y00566522D01*
X00386766Y00564490D01*
X00387782Y00562458D01*
X00385750Y00563474D01*
X00383718Y00562458D01*
X00369748Y00542138D02*
X00370764Y00544170D01*
X00369748Y00546202D01*
X00371780Y00545186D01*
X00373812Y00546202D01*
X00372796Y00544170D01*
X00373812Y00542138D01*
X00371780Y00543154D01*
X00369748Y00542138D01*
X00371018Y00533248D02*
X00372034Y00535280D01*
X00371018Y00537312D01*
X00373050Y00536296D01*
X00375082Y00537312D01*
X00374066Y00535280D01*
X00375082Y00533248D01*
X00373050Y00534264D01*
X00371018Y00533248D01*
X00364668Y00516738D02*
X00365684Y00518770D01*
X00364668Y00520802D01*
X00366700Y00519786D01*
X00368732Y00520802D01*
X00367716Y00518770D01*
X00368732Y00516738D01*
X00366700Y00517754D01*
X00364668Y00516738D01*
X00285928Y00545948D02*
X00286944Y00547980D01*
X00285928Y00550012D01*
X00287960Y00548996D01*
X00289992Y00550012D01*
X00288976Y00547980D01*
X00289992Y00545948D01*
X00287960Y00546964D01*
X00285928Y00545948D01*
X00274498Y00523088D02*
X00275514Y00525120D01*
X00274498Y00527152D01*
X00276530Y00526136D01*
X00278562Y00527152D01*
X00277546Y00525120D01*
X00278562Y00523088D01*
X00276530Y00524104D01*
X00274498Y00523088D01*
X00273228Y00543408D02*
X00274244Y00545440D01*
X00273228Y00547472D01*
X00275260Y00546456D01*
X00277292Y00547472D01*
X00276276Y00545440D01*
X00277292Y00543408D01*
X00275260Y00544424D01*
X00273228Y00543408D01*
X00251638Y00538328D02*
X00252654Y00540360D01*
X00251638Y00542392D01*
X00253670Y00541376D01*
X00255702Y00542392D01*
X00254686Y00540360D01*
X00255702Y00538328D01*
X00253670Y00539344D01*
X00251638Y00538328D01*
X00564058Y00514198D02*
X00565074Y00516230D01*
X00564058Y00518262D01*
X00566090Y00517246D01*
X00568122Y00518262D01*
X00567106Y00516230D01*
X00568122Y00514198D01*
X00566090Y00515214D01*
X00564058Y00514198D01*
Y00556108D02*
X00565074Y00558140D01*
X00564058Y00560172D01*
X00566090Y00559156D01*
X00568122Y00560172D01*
X00567106Y00558140D01*
X00568122Y00556108D01*
X00566090Y00557124D01*
X00564058Y00556108D01*
X00566598Y00613258D02*
X00567614Y00615290D01*
X00566598Y00617322D01*
X00568630Y00616306D01*
X00570662Y00617322D01*
X00569646Y00615290D01*
X00570662Y00613258D01*
X00568630Y00614274D01*
X00566598Y00613258D01*
X00564058Y00662788D02*
X00565074Y00664820D01*
X00564058Y00666852D01*
X00566090Y00665836D01*
X00568122Y00666852D01*
X00567106Y00664820D01*
X00568122Y00662788D01*
X00566090Y00663804D01*
X00564058Y00662788D01*
Y00714858D02*
X00565074Y00716890D01*
X00564058Y00718922D01*
X00566090Y00717906D01*
X00568122Y00718922D01*
X00567106Y00716890D01*
X00568122Y00714858D01*
X00566090Y00715874D01*
X00564058Y00714858D01*
X00492938Y00683108D02*
X00493954Y00685140D01*
X00492938Y00687172D01*
X00494970Y00686156D01*
X00497002Y00687172D01*
X00495986Y00685140D01*
X00497002Y00683108D01*
X00494970Y00684124D01*
X00492938Y00683108D01*
X00489128Y00716128D02*
X00490144Y00718160D01*
X00489128Y00720192D01*
X00491160Y00719176D01*
X00493192Y00720192D01*
X00492176Y00718160D01*
X00493192Y00716128D01*
X00491160Y00717144D01*
X00489128Y00716128D01*
X00467538Y00718668D02*
X00468554Y00720700D01*
X00467538Y00722732D01*
X00469570Y00721716D01*
X00471602Y00722732D01*
X00470586Y00720700D01*
X00471602Y00718668D01*
X00469570Y00719684D01*
X00467538Y00718668D01*
X00400228Y00707238D02*
X00401244Y00709270D01*
X00400228Y00711302D01*
X00402260Y00710286D01*
X00404292Y00711302D01*
X00403276Y00709270D01*
X00404292Y00707238D01*
X00402260Y00708254D01*
X00400228Y00707238D01*
Y00799948D02*
X00401244Y00801980D01*
X00400228Y00804012D01*
X00402260Y00802996D01*
X00404292Y00804012D01*
X00403276Y00801980D01*
X00404292Y00799948D01*
X00402260Y00800964D01*
X00400228Y00799948D01*
X00316408Y00783438D02*
X00317424Y00785470D01*
X00316408Y00787502D01*
X00318440Y00786486D01*
X00320472Y00787502D01*
X00319456Y00785470D01*
X00320472Y00783438D01*
X00318440Y00784454D01*
X00316408Y00783438D01*
Y00810108D02*
X00317424Y00812140D01*
X00316408Y00814172D01*
X00318440Y00813156D01*
X00320472Y00814172D01*
X00319456Y00812140D01*
X00320472Y00810108D01*
X00318440Y00811124D01*
X00316408Y00810108D01*
X00318948Y00839318D02*
X00319964Y00841350D01*
X00318948Y00843382D01*
X00320980Y00842366D01*
X00323012Y00843382D01*
X00321996Y00841350D01*
X00323012Y00839318D01*
X00320980Y00840334D01*
X00318948Y00839318D01*
X00324028Y00854558D02*
X00325044Y00856590D01*
X00324028Y00858622D01*
X00326060Y00857606D01*
X00328092Y00858622D01*
X00327076Y00856590D01*
X00328092Y00854558D01*
X00326060Y00855574D01*
X00324028Y00854558D01*
X00365938Y00948538D02*
X00366954Y00950570D01*
X00365938Y00952602D01*
X00367970Y00951586D01*
X00370002Y00952602D01*
X00368986Y00950570D01*
X00370002Y00948538D01*
X00367970Y00949554D01*
X00365938Y00948538D01*
X00382448Y00966318D02*
X00383464Y00968350D01*
X00382448Y00970382D01*
X00384480Y00969366D01*
X00386512Y00970382D01*
X00385496Y00968350D01*
X00386512Y00966318D01*
X00384480Y00967334D01*
X00382448Y00966318D01*
X00287198Y00982828D02*
X00288214Y00984860D01*
X00287198Y00986892D01*
X00289230Y00985876D01*
X00291262Y00986892D01*
X00290246Y00984860D01*
X00291262Y00982828D01*
X00289230Y00983844D01*
X00287198Y00982828D01*
X00317678Y01001878D02*
X00318694Y01003910D01*
X00317678Y01005942D01*
X00319710Y01004926D01*
X00321742Y01005942D01*
X00320726Y01003910D01*
X00321742Y01001878D01*
X00319710Y01002894D01*
X00317678Y01001878D01*
X00351968Y00975208D02*
X00352984Y00977240D01*
X00351968Y00979272D01*
X00354000Y00978256D01*
X00356032Y00979272D01*
X00355016Y00977240D01*
X00356032Y00975208D01*
X00354000Y00976224D01*
X00351968Y00975208D01*
X00266878Y00980288D02*
X00267894Y00982320D01*
X00266878Y00984352D01*
X00268910Y00983336D01*
X00270942Y00984352D01*
X00269926Y00982320D01*
X00270942Y00980288D01*
X00268910Y00981304D01*
X00266878Y00980288D01*
X00473888Y00952348D02*
X00474904Y00954380D01*
X00473888Y00956412D01*
X00475920Y00955396D01*
X00477952Y00956412D01*
X00476936Y00954380D01*
X00477952Y00952348D01*
X00475920Y00953364D01*
X00473888Y00952348D01*
X00416738Y00975208D02*
X00417754Y00977240D01*
X00416738Y00979272D01*
X00418770Y00978256D01*
X00420802Y00979272D01*
X00419786Y00977240D01*
X00420802Y00975208D01*
X00418770Y00976224D01*
X00416738Y00975208D01*
X00458648Y00962508D02*
X00459664Y00964540D01*
X00458648Y00966572D01*
X00460680Y00965556D01*
X00462712Y00966572D01*
X00461696Y00964540D01*
X00462712Y00962508D01*
X00460680Y00963524D01*
X00458648Y00962508D01*
X00424358Y00912978D02*
X00425374Y00915010D01*
X00424358Y00917042D01*
X00426390Y00916026D01*
X00428422Y00917042D01*
X00427406Y00915010D01*
X00428422Y00912978D01*
X00426390Y00913994D01*
X00424358Y00912978D01*
X00566598Y00789788D02*
X00567614Y00791820D01*
X00566598Y00793852D01*
X00568630Y00792836D01*
X00570662Y00793852D01*
X00569646Y00791820D01*
X00570662Y00789788D01*
X00568630Y00790804D01*
X00566598Y00789788D01*
X00565328Y00862178D02*
X00566344Y00864210D01*
X00565328Y00866242D01*
X00567360Y00865226D01*
X00569392Y00866242D01*
X00568376Y00864210D01*
X00569392Y00862178D01*
X00567360Y00863194D01*
X00565328Y00862178D01*
X00461188Y01012038D02*
X00462204Y01014070D01*
X00461188Y01016102D01*
X00463220Y01015086D01*
X00465252Y01016102D01*
X00464236Y01014070D01*
X00465252Y01012038D01*
X00463220Y01013054D01*
X00461188Y01012038D01*
X00421818Y01013308D02*
X00422834Y01015340D01*
X00421818Y01017372D01*
X00423850Y01016356D01*
X00425882Y01017372D01*
X00424866Y01015340D01*
X00425882Y01013308D01*
X00423850Y01014324D01*
X00421818Y01013308D01*
X00458648Y00763118D02*
X00459664Y00765150D01*
X00458648Y00767182D01*
X00460680Y00766166D01*
X00462712Y00767182D01*
X00461696Y00765150D01*
X00462712Y00763118D01*
X00460680Y00764134D01*
X00458648Y00763118D01*
X00454838Y00671678D02*
X00455854Y00673710D01*
X00454838Y00675742D01*
X00456870Y00674726D01*
X00458902Y00675742D01*
X00457886Y00673710D01*
X00458902Y00671678D01*
X00456870Y00672694D01*
X00454838Y00671678D01*
Y00660248D02*
X00455854Y00662280D01*
X00454838Y00664312D01*
X00456870Y00663296D01*
X00458902Y00664312D01*
X00457886Y00662280D01*
X00458902Y00660248D01*
X00456870Y00661264D01*
X00454838Y00660248D01*
X00362128Y00645008D02*
X00363144Y00647040D01*
X00362128Y00649072D01*
X00364160Y00648056D01*
X00366192Y00649072D01*
X00365176Y00647040D01*
X00366192Y00645008D01*
X00364160Y00646024D01*
X00362128Y00645008D01*
X00397688Y00656438D02*
X00398704Y00658470D01*
X00397688Y00660502D01*
X00399720Y00659486D01*
X00401752Y00660502D01*
X00400736Y00658470D01*
X00401752Y00656438D01*
X00399720Y00657454D01*
X00397688Y00656438D01*
X00396418Y00631038D02*
X00397434Y00633070D01*
X00396418Y00635102D01*
X00398450Y00634086D01*
X00400482Y00635102D01*
X00399466Y00633070D01*
X00400482Y00631038D01*
X00398450Y00632054D01*
X00396418Y00631038D01*
X00402768Y00620878D02*
X00403784Y00622910D01*
X00402768Y00624942D01*
X00404800Y00623926D01*
X00406832Y00624942D01*
X00405816Y00622910D01*
X00406832Y00620878D01*
X00404800Y00621894D01*
X00402768Y00620878D01*
X00226238Y00502768D02*
X00227254Y00504800D01*
X00226238Y00506832D01*
X00228270Y00505816D01*
X00230302Y00506832D01*
X00229286Y00504800D01*
X00230302Y00502768D01*
X00228270Y00503784D01*
X00226238Y00502768D01*
X00134798Y00871068D02*
X00135814Y00873100D01*
X00134798Y00875132D01*
X00136830Y00874116D01*
X00138862Y00875132D01*
X00137846Y00873100D01*
X00138862Y00871068D01*
X00136830Y00872084D01*
X00134798Y00871068D01*
X00144958Y00862178D02*
X00145974Y00864210D01*
X00144958Y00866242D01*
X00146990Y00865226D01*
X00149022Y00866242D01*
X00148006Y00864210D01*
X00149022Y00862178D01*
X00146990Y00863194D01*
X00144958Y00862178D01*
X00222428Y00888848D02*
X00223444Y00890880D01*
X00222428Y00892912D01*
X00224460Y00891896D01*
X00226492Y00892912D01*
X00225476Y00890880D01*
X00226492Y00888848D01*
X00224460Y00889864D01*
X00222428Y00888848D01*
X00230048Y00882498D02*
X00231064Y00884530D01*
X00230048Y00886562D01*
X00232080Y00885546D01*
X00234112Y00886562D01*
X00233096Y00884530D01*
X00234112Y00882498D01*
X00232080Y00883514D01*
X00230048Y00882498D01*
X00250368Y00883768D02*
X00251384Y00885800D01*
X00250368Y00887832D01*
X00252400Y00886816D01*
X00254432Y00887832D01*
X00253416Y00885800D01*
X00254432Y00883768D01*
X00252400Y00884784D01*
X00250368Y00883768D01*
X00249098Y00982828D02*
X00250114Y00984860D01*
X00249098Y00986892D01*
X00251130Y00985876D01*
X00253162Y00986892D01*
X00252146Y00984860D01*
X00253162Y00982828D01*
X00251130Y00983844D01*
X00249098Y00982828D01*
X00257988Y00976478D02*
X00259004Y00978510D01*
X00257988Y00980542D01*
X00260020Y00979526D01*
X00262052Y00980542D01*
X00261036Y00978510D01*
X00262052Y00976478D01*
X00260020Y00977494D01*
X00257988Y00976478D01*
X00277038Y00977748D02*
X00278054Y00979780D01*
X00277038Y00981812D01*
X00279070Y00980796D01*
X00281102Y00981812D01*
X00280086Y00979780D01*
X00281102Y00977748D01*
X00279070Y00978764D01*
X00277038Y00977748D01*
X00471348Y00399898D02*
X00472364Y00401930D01*
X00471348Y00403962D01*
X00473380Y00402946D01*
X00475412Y00403962D01*
X00474396Y00401930D01*
X00475412Y00399898D01*
X00473380Y00400914D01*
X00471348Y00399898D01*
X00482778Y00531978D02*
X00483794Y00534010D01*
X00482778Y00536042D01*
X00484810Y00535026D01*
X00486842Y00536042D01*
X00485826Y00534010D01*
X00486842Y00531978D01*
X00484810Y00532994D01*
X00482778Y00531978D01*
X00466268Y00554838D02*
X00467284Y00556870D01*
X00466268Y00558902D01*
X00468300Y00557886D01*
X00470332Y00558902D01*
X00469316Y00556870D01*
X00470332Y00554838D01*
X00468300Y00555854D01*
X00466268Y00554838D01*
X00205918Y00477368D02*
X00206934Y00479400D01*
X00205918Y00481432D01*
X00207950Y00480416D01*
X00209982Y00481432D01*
X00208966Y00479400D01*
X00209982Y00477368D01*
X00207950Y00478384D01*
X00205918Y00477368D01*
X00198298Y00490068D02*
X00199314Y00492100D01*
X00198298Y00494132D01*
X00200330Y00493116D01*
X00202362Y00494132D01*
X00201346Y00492100D01*
X00202362Y00490068D01*
X00200330Y00491084D01*
X00198298Y00490068D01*
X00285928Y00604368D02*
X00286944Y00606400D01*
X00285928Y00608432D01*
X00287960Y00607416D01*
X00289992Y00608432D01*
X00288976Y00606400D01*
X00289992Y00604368D01*
X00287960Y00605384D01*
X00285928Y00604368D01*
X00223698Y00614528D02*
X00224714Y00616560D01*
X00223698Y00618592D01*
X00225730Y00617576D01*
X00227762Y00618592D01*
X00226746Y00616560D01*
X00227762Y00614528D01*
X00225730Y00615544D01*
X00223698Y00614528D01*
X00222428Y00577698D02*
X00223444Y00579730D01*
X00222428Y00581762D01*
X00224460Y00580746D01*
X00226492Y00581762D01*
X00225476Y00579730D01*
X00226492Y00577698D01*
X00224460Y00578714D01*
X00222428Y00577698D01*
X00219888Y00586588D02*
X00220904Y00588620D01*
X00219888Y00590652D01*
X00221920Y00589636D01*
X00223952Y00590652D01*
X00222936Y00588620D01*
X00223952Y00586588D01*
X00221920Y00587604D01*
X00219888Y00586588D01*
X00223698Y00628498D02*
X00224714Y00630530D01*
X00223698Y00632562D01*
X00225730Y00631546D01*
X00227762Y00632562D01*
X00226746Y00630530D01*
X00227762Y00628498D01*
X00225730Y00629514D01*
X00223698Y00628498D01*
X00205918Y00564998D02*
X00206934Y00567030D01*
X00205918Y00569062D01*
X00207950Y00568046D01*
X00209982Y00569062D01*
X00208966Y00567030D01*
X00209982Y00564998D01*
X00207950Y00566014D01*
X00205918Y00564998D01*
X00485318Y00690728D02*
X00486334Y00692760D01*
X00485318Y00694792D01*
X00487350Y00693776D01*
X00489382Y00694792D01*
X00488366Y00692760D01*
X00489382Y00690728D01*
X00487350Y00691744D01*
X00485318Y00690728D01*
X00454838Y00604368D02*
X00455854Y00606400D01*
X00454838Y00608432D01*
X00456870Y00607416D01*
X00458902Y00608432D01*
X00457886Y00606400D01*
X00458902Y00604368D01*
X00456870Y00605384D01*
X00454838Y00604368D01*
X00443408Y00610718D02*
X00444424Y00612750D01*
X00443408Y00614782D01*
X00445440Y00613766D01*
X00447472Y00614782D01*
X00446456Y00612750D01*
X00447472Y00610718D01*
X00445440Y00611734D01*
X00443408Y00610718D01*
X00396418Y00674218D02*
X00397434Y00676250D01*
X00396418Y00678282D01*
X00398450Y00677266D01*
X00400482Y00678282D01*
X00399466Y00676250D01*
X00400482Y00674218D01*
X00398450Y00675234D01*
X00396418Y00674218D01*
X00351968Y00647548D02*
X00352984Y00649580D01*
X00351968Y00651612D01*
X00354000Y00650596D01*
X00356032Y00651612D01*
X00355016Y00649580D01*
X00356032Y00647548D01*
X00354000Y00648564D01*
X00351968Y00647548D01*
X00341808Y00642468D02*
X00342824Y00644500D01*
X00341808Y00646532D01*
X00343840Y00645516D01*
X00345872Y00646532D01*
X00344856Y00644500D01*
X00345872Y00642468D01*
X00343840Y00643484D01*
X00341808Y00642468D01*
X00335458Y00725018D02*
X00336474Y00727050D01*
X00335458Y00729082D01*
X00337490Y00728066D01*
X00339522Y00729082D01*
X00338506Y00727050D01*
X00339522Y00725018D01*
X00337490Y00726034D01*
X00335458Y00725018D01*
X00348158Y00777088D02*
X00349174Y00779120D01*
X00348158Y00781152D01*
X00350190Y00780136D01*
X00352222Y00781152D01*
X00351206Y00779120D01*
X00352222Y00777088D01*
X00350190Y00778104D01*
X00348158Y00777088D01*
X00392608Y00778358D02*
X00393624Y00780390D01*
X00392608Y00782422D01*
X00394640Y00781406D01*
X00396672Y00782422D01*
X00395656Y00780390D01*
X00396672Y00778358D01*
X00394640Y00779374D01*
X00392608Y00778358D01*
Y00714858D02*
X00393624Y00716890D01*
X00392608Y00718922D01*
X00394640Y00717906D01*
X00396672Y00718922D01*
X00395656Y00716890D01*
X00396672Y00714858D01*
X00394640Y00715874D01*
X00392608Y00714858D01*
X00336728Y00910438D02*
X00337744Y00912470D01*
X00336728Y00914502D01*
X00338760Y00913486D01*
X00340792Y00914502D01*
X00339776Y00912470D01*
X00340792Y00910438D01*
X00338760Y00911454D01*
X00336728Y00910438D01*
X00471348Y00698348D02*
X00472364Y00700380D01*
X00471348Y00702412D01*
X00473380Y00701396D01*
X00475412Y00702412D01*
X00474396Y00700380D01*
X00475412Y00698348D01*
X00473380Y00699364D01*
X00471348Y00698348D01*
X00430708Y00934568D02*
X00431724Y00936600D01*
X00430708Y00938632D01*
X00432740Y00937616D01*
X00434772Y00938632D01*
X00433756Y00936600D01*
X00434772Y00934568D01*
X00432740Y00935584D01*
X00430708Y00934568D01*
X00398958Y00727558D02*
X00399974Y00729590D01*
X00398958Y00731622D01*
X00400990Y00730606D01*
X00403022Y00731622D01*
X00402006Y00729590D01*
X00403022Y00727558D01*
X00400990Y00728574D01*
X00398958Y00727558D01*
X00359588Y00811378D02*
X00360604Y00813410D01*
X00359588Y00815442D01*
X00361620Y00814426D01*
X00363652Y00815442D01*
X00362636Y00813410D01*
X00363652Y00811378D01*
X00361620Y00812394D01*
X00359588Y00811378D01*
X00334188Y00846938D02*
X00335204Y00848970D01*
X00334188Y00851002D01*
X00336220Y00849986D01*
X00338252Y00851002D01*
X00337236Y00848970D01*
X00338252Y00846938D01*
X00336220Y00847954D01*
X00334188Y00846938D01*
X00332918Y00780898D02*
X00333934Y00782930D01*
X00332918Y00784962D01*
X00334950Y00783946D01*
X00336982Y00784962D01*
X00335966Y00782930D01*
X00336982Y00780898D01*
X00334950Y00781914D01*
X00332918Y00780898D01*
X00350698Y00765658D02*
X00351714Y00767690D01*
X00350698Y00769722D01*
X00352730Y00768706D01*
X00354762Y00769722D01*
X00353746Y00767690D01*
X00354762Y00765658D01*
X00352730Y00766674D01*
X00350698Y00765658D01*
X00284658Y00860908D02*
X00285674Y00862940D01*
X00284658Y00864972D01*
X00286690Y00863956D01*
X00288722Y00864972D01*
X00287706Y00862940D01*
X00288722Y00860908D01*
X00286690Y00861924D01*
X00284658Y00860908D01*
X00291008Y00867908D02*
X00292024Y00869940D01*
X00291008Y00871972D01*
X00293040Y00870956D01*
X00295072Y00871972D01*
X00294056Y00869940D01*
X00295072Y00867908D01*
X00293040Y00868924D01*
X00291008Y00867908D01*
X00301168Y00874908D02*
X00302184Y00876940D01*
X00301168Y00878972D01*
X00303200Y00877956D01*
X00305232Y00878972D01*
X00304216Y00876940D01*
X00305232Y00874908D01*
X00303200Y00875924D01*
X00301168Y00874908D01*
X00392608Y00876148D02*
X00393624Y00878180D01*
X00392608Y00880212D01*
X00394640Y00879196D01*
X00396672Y00880212D01*
X00395656Y00878180D01*
X00396672Y00876148D01*
X00394640Y00877164D01*
X00392608Y00876148D01*
X00386258Y00811378D02*
X00387274Y00813410D01*
X00386258Y00815442D01*
X00388290Y00814426D01*
X00390322Y00815442D01*
X00389306Y00813410D01*
X00390322Y00811378D01*
X00388290Y00812394D01*
X00386258Y00811378D01*
X00395148Y00832968D02*
X00396164Y00835000D01*
X00395148Y00837032D01*
X00397180Y00836016D01*
X00399212Y00837032D01*
X00398196Y00835000D01*
X00399212Y00832968D01*
X00397180Y00833984D01*
X00395148Y00832968D01*
X00288468Y00698348D02*
X00289484Y00700380D01*
X00288468Y00702412D01*
X00290500Y00701396D01*
X00292532Y00702412D01*
X00291516Y00700380D01*
X00292532Y00698348D01*
X00290500Y00699364D01*
X00288468Y00698348D01*
X00237668Y00878688D02*
X00238684Y00880720D01*
X00237668Y00882752D01*
X00239700Y00881736D01*
X00241732Y00882752D01*
X00240716Y00880720D01*
X00241732Y00878688D01*
X00239700Y00879704D01*
X00237668Y00878688D01*
X00190678Y00916788D02*
X00191694Y00918820D01*
X00190678Y00920852D01*
X00192710Y00919836D01*
X00194742Y00920852D01*
X00193726Y00918820D01*
X00194742Y00916788D01*
X00192710Y00917804D01*
X00190678Y00916788D01*
X00195758Y00925678D02*
X00196774Y00927710D01*
X00195758Y00929742D01*
X00197790Y00928726D01*
X00199822Y00929742D01*
X00198806Y00927710D01*
X00199822Y00925678D01*
X00197790Y00926694D01*
X00195758Y00925678D01*
X00216078Y00897738D02*
X00217094Y00899770D01*
X00216078Y00901802D01*
X00218110Y00900786D01*
X00220142Y00901802D01*
X00219126Y00899770D01*
X00220142Y00897738D01*
X00218110Y00898754D01*
X00216078Y00897738D01*
X00261798Y00811378D02*
X00262814Y00813410D01*
X00261798Y00815442D01*
X00263830Y00814426D01*
X00265862Y00815442D01*
X00264846Y00813410D01*
X00265862Y00811378D01*
X00263830Y00812394D01*
X00261798Y00811378D01*
X00382448Y00935838D02*
X00383464Y00937870D01*
X00382448Y00939902D01*
X00384480Y00938886D01*
X00386512Y00939902D01*
X00385496Y00937870D01*
X00386512Y00935838D01*
X00384480Y00936854D01*
X00382448Y00935838D01*
X00378638Y00925678D02*
X00379654Y00927710D01*
X00378638Y00929742D01*
X00380670Y00928726D01*
X00382702Y00929742D01*
X00381686Y00927710D01*
X00382702Y00925678D01*
X00380670Y00926694D01*
X00378638Y00925678D01*
X00373558Y00934568D02*
X00374574Y00936600D01*
X00373558Y00938632D01*
X00375590Y00937616D01*
X00377622Y00938632D01*
X00376606Y00936600D01*
X00377622Y00934568D01*
X00375590Y00935584D01*
X00373558Y00934568D01*
X00318948Y00596748D02*
X00319964Y00598780D01*
X00318948Y00600812D01*
X00320980Y00599796D01*
X00323012Y00600812D01*
X00321996Y00598780D01*
X00323012Y00596748D01*
X00320980Y00597764D01*
X00318948Y00596748D01*
D71*
X00287442Y00282550D02*
G03*
X00287442Y00282550I-00002032J00000000D01*
G01*
X00401762D02*
G03*
X00401762Y00282550I-00002032J00000000D01*
G01*
X00301412Y01114400D02*
G03*
X00301412Y01114400I-00002032J00000000D01*
G01*
X00415732D02*
G03*
X00415732Y01114400I-00002032J00000000D01*
G01*
M02*
