G04 Layer_Physical_Order=2*
G04 Layer_Color=16776960*
%FSAX44Y44*%
%MOMM*%
G71*
G01*
G75*
%ADD23C,0.3810*%
%ADD24C,0.4000*%
%ADD25C,0.5080*%
%ADD26C,1.5000*%
%ADD27C,1.0000*%
%ADD29C,1.6764*%
%ADD30P,1.8145X8X22.5*%
%ADD31C,3.2500*%
%ADD32C,1.5000*%
%ADD33R,1.5000X1.5000*%
%ADD34C,1.5240*%
%ADD35C,0.6000*%
G36*
X00574174Y01196357D02*
X00578246Y01195379D01*
X00582115Y01193777D01*
X00585685Y01191589D01*
X00588869Y01188869D01*
X00591589Y01185685D01*
X00593777Y01182115D01*
X00595379Y01178246D01*
X00596357Y01174174D01*
X00596680Y01170070D01*
X00596666Y01170000D01*
Y00230000D01*
X00596680Y00229930D01*
X00596357Y00225826D01*
X00595379Y00221754D01*
X00593777Y00217885D01*
X00591589Y00214315D01*
X00588869Y00211131D01*
X00585685Y00208411D01*
X00582115Y00206223D01*
X00578246Y00204621D01*
X00574174Y00203643D01*
X00570070Y00203320D01*
X00570000Y00203334D01*
X00130000D01*
X00129930Y00203320D01*
X00125826Y00203643D01*
X00121754Y00204621D01*
X00117885Y00206223D01*
X00114315Y00208411D01*
X00111131Y00211131D01*
X00108411Y00214315D01*
X00106223Y00217885D01*
X00104621Y00221754D01*
X00103643Y00225826D01*
X00103320Y00229930D01*
X00103334Y00230000D01*
Y01170000D01*
X00103320Y01170070D01*
X00103643Y01174174D01*
X00104621Y01178246D01*
X00106223Y01182115D01*
X00108411Y01185685D01*
X00111131Y01188869D01*
X00114315Y01191589D01*
X00117885Y01193777D01*
X00121754Y01195379D01*
X00125826Y01196357D01*
X00129930Y01196680D01*
X00130000Y01196666D01*
X00570000D01*
X00570070Y01196680D01*
X00574174Y01196357D01*
D02*
G37*
%LPC*%
G36*
X00525000Y00563382D02*
X00524377Y00563300D01*
X00515500D01*
Y00554423D01*
X00515418Y00553800D01*
Y00445400D01*
X00515745Y00442920D01*
X00516702Y00440609D01*
X00518224Y00438624D01*
X00520209Y00437102D01*
X00522520Y00436144D01*
X00525000Y00435818D01*
X00527480Y00436144D01*
X00529791Y00437102D01*
X00531775Y00438624D01*
X00533298Y00440609D01*
X00534255Y00442920D01*
X00534582Y00445400D01*
Y00553800D01*
X00534500Y00554423D01*
Y00563300D01*
X00525623D01*
X00525000Y00563382D01*
D02*
G37*
G36*
X00530000Y00428796D02*
Y00425000D01*
X00533796D01*
X00533770Y00425063D01*
X00532161Y00427161D01*
X00530063Y00428770D01*
X00530000Y00428796D01*
D02*
G37*
G36*
X00520000Y00428796D02*
X00519937Y00428770D01*
X00517839Y00427161D01*
X00516230Y00425063D01*
X00516204Y00425000D01*
X00520000D01*
Y00428796D01*
D02*
G37*
G36*
X00499600Y00563382D02*
X00497120Y00563055D01*
X00494809Y00562098D01*
X00492825Y00560575D01*
X00491302Y00558591D01*
X00490345Y00556280D01*
X00490018Y00553800D01*
X00490345Y00551320D01*
X00491302Y00549009D01*
X00492825Y00547025D01*
X00494809Y00545502D01*
X00497120Y00544545D01*
X00499600Y00544218D01*
X00502080Y00544545D01*
X00504391Y00545502D01*
X00506375Y00547025D01*
X00507898Y00549009D01*
X00508855Y00551320D01*
X00509182Y00553800D01*
X00508855Y00556280D01*
X00507898Y00558591D01*
X00506375Y00560575D01*
X00504391Y00562098D01*
X00502080Y00563055D01*
X00499600Y00563382D01*
D02*
G37*
G36*
X00392100Y00586772D02*
X00389620Y00586446D01*
X00387309Y00585488D01*
X00385325Y00583965D01*
X00383802Y00581981D01*
X00382845Y00579670D01*
X00382518Y00577190D01*
X00382845Y00574710D01*
X00383802Y00572399D01*
X00385325Y00570415D01*
X00387309Y00568892D01*
X00389620Y00567935D01*
X00392100Y00567608D01*
X00394580Y00567935D01*
X00396891Y00568892D01*
X00398876Y00570415D01*
X00400398Y00572399D01*
X00401356Y00574710D01*
X00401682Y00577190D01*
X00401356Y00579670D01*
X00400398Y00581981D01*
X00398876Y00583965D01*
X00396891Y00585488D01*
X00394580Y00586446D01*
X00392100Y00586772D01*
D02*
G37*
G36*
X00170000Y00562596D02*
X00169937Y00562570D01*
X00167839Y00560961D01*
X00166230Y00558863D01*
X00166204Y00558800D01*
X00170000D01*
Y00562596D01*
D02*
G37*
G36*
Y00548800D02*
X00166204D01*
X00166230Y00548737D01*
X00167839Y00546639D01*
X00169937Y00545030D01*
X00170000Y00545004D01*
Y00548800D01*
D02*
G37*
G36*
X00525000Y00404182D02*
X00522520Y00403856D01*
X00520209Y00402898D01*
X00518224Y00401375D01*
X00516702Y00399391D01*
X00515745Y00397080D01*
X00515418Y00394600D01*
X00515745Y00392120D01*
X00516702Y00389809D01*
X00518224Y00387825D01*
X00520209Y00386302D01*
X00522520Y00385345D01*
X00525000Y00385018D01*
X00527480Y00385345D01*
X00529791Y00386302D01*
X00531775Y00387825D01*
X00533298Y00389809D01*
X00534255Y00392120D01*
X00534582Y00394600D01*
X00534255Y00397080D01*
X00533298Y00399391D01*
X00531775Y00401375D01*
X00529791Y00402898D01*
X00527480Y00403856D01*
X00525000Y00404182D01*
D02*
G37*
G36*
X00303130Y00381201D02*
Y00376450D01*
X00307881D01*
X00307670Y00376958D01*
X00305920Y00379240D01*
X00303638Y00380990D01*
X00303130Y00381201D01*
D02*
G37*
G36*
X00293130D02*
X00292622Y00380990D01*
X00290340Y00379240D01*
X00288590Y00376958D01*
X00288379Y00376450D01*
X00293130D01*
Y00381201D01*
D02*
G37*
G36*
X00170000Y00389600D02*
X00166204D01*
X00166230Y00389537D01*
X00167839Y00387439D01*
X00169937Y00385830D01*
X00170000Y00385804D01*
Y00389600D01*
D02*
G37*
G36*
X00533796Y00415000D02*
X00530000D01*
Y00411204D01*
X00530063Y00411230D01*
X00532161Y00412839D01*
X00533770Y00414937D01*
X00533796Y00415000D01*
D02*
G37*
G36*
X00520000D02*
X00516204D01*
X00516230Y00414937D01*
X00517839Y00412839D01*
X00519937Y00411230D01*
X00520000Y00411204D01*
Y00415000D01*
D02*
G37*
G36*
X00170000Y00403396D02*
X00169937Y00403370D01*
X00167839Y00401761D01*
X00166230Y00399663D01*
X00166204Y00399600D01*
X00170000D01*
Y00403396D01*
D02*
G37*
G36*
X00337490Y00732148D02*
X00335539Y00731760D01*
X00333885Y00730655D01*
X00332780Y00729001D01*
X00332392Y00727050D01*
X00332780Y00725099D01*
X00332861Y00724978D01*
Y00673087D01*
X00284687Y00624913D01*
X00283683Y00623411D01*
X00283331Y00621640D01*
X00283331Y00621640D01*
Y00608472D01*
X00283250Y00608351D01*
X00282862Y00606400D01*
X00283250Y00604449D01*
X00284355Y00602795D01*
X00286009Y00601690D01*
X00287960Y00601302D01*
X00289911Y00601690D01*
X00291565Y00602795D01*
X00292670Y00604449D01*
X00293058Y00606400D01*
X00292670Y00608351D01*
X00292589Y00608472D01*
Y00619723D01*
X00340763Y00667897D01*
X00340763Y00667897D01*
X00341767Y00669399D01*
X00342119Y00671170D01*
Y00724978D01*
X00342200Y00725099D01*
X00342588Y00727050D01*
X00342200Y00729001D01*
X00341095Y00730655D01*
X00339441Y00731760D01*
X00337490Y00732148D01*
D02*
G37*
G36*
X00170000Y00599600D02*
X00166204D01*
X00166230Y00599537D01*
X00167839Y00597439D01*
X00169937Y00595830D01*
X00170000Y00595804D01*
Y00599600D01*
D02*
G37*
G36*
X00525000Y00614182D02*
X00522520Y00613856D01*
X00520209Y00612898D01*
X00518224Y00611376D01*
X00516702Y00609391D01*
X00515745Y00607080D01*
X00515418Y00604600D01*
X00515745Y00602120D01*
X00516702Y00599809D01*
X00518224Y00597825D01*
X00520209Y00596302D01*
X00522520Y00595345D01*
X00525000Y00595018D01*
X00527480Y00595345D01*
X00529791Y00596302D01*
X00531775Y00597825D01*
X00533298Y00599809D01*
X00534255Y00602120D01*
X00534582Y00604600D01*
X00534255Y00607080D01*
X00533298Y00609391D01*
X00531775Y00611376D01*
X00529791Y00612898D01*
X00527480Y00613856D01*
X00525000Y00614182D01*
D02*
G37*
G36*
X00170000Y00613396D02*
X00169937Y00613370D01*
X00167839Y00611761D01*
X00166230Y00609663D01*
X00166204Y00609600D01*
X00170000D01*
Y00613396D01*
D02*
G37*
G36*
X00530000Y00638796D02*
Y00635000D01*
X00533796D01*
X00533770Y00635063D01*
X00532161Y00637161D01*
X00530063Y00638770D01*
X00530000Y00638796D01*
D02*
G37*
G36*
X00533796Y00625000D02*
X00530000D01*
Y00621204D01*
X00530063Y00621230D01*
X00532161Y00622839D01*
X00533770Y00624937D01*
X00533796Y00625000D01*
D02*
G37*
G36*
X00338380Y00622038D02*
X00336429Y00621650D01*
X00334775Y00620545D01*
X00333670Y00618891D01*
X00333642Y00618748D01*
X00327107Y00612213D01*
X00326618Y00611481D01*
X00326601Y00611465D01*
X00325036Y00611558D01*
X00324987Y00611594D01*
X00324445Y00612405D01*
X00322791Y00613510D01*
X00320840Y00613898D01*
X00318889Y00613510D01*
X00317236Y00612405D01*
X00316130Y00610751D01*
X00316102Y00610608D01*
X00316091Y00610598D01*
X00316085Y00610597D01*
X00314584Y00609593D01*
X00312941Y00607951D01*
X00311936Y00608256D01*
X00311650Y00608456D01*
X00310615Y00610005D01*
X00308961Y00611110D01*
X00307010Y00611498D01*
X00305059Y00611110D01*
X00303405Y00610005D01*
X00302300Y00608351D01*
X00302272Y00608208D01*
X00293577Y00599513D01*
X00292573Y00598011D01*
X00292221Y00596240D01*
X00292221Y00596240D01*
Y00465430D01*
X00292221Y00465430D01*
X00292573Y00463659D01*
X00293577Y00462157D01*
X00307461Y00448273D01*
Y00437022D01*
X00307380Y00436901D01*
X00306992Y00434950D01*
X00307380Y00432999D01*
X00308485Y00431345D01*
X00310139Y00430240D01*
X00312090Y00429852D01*
X00314041Y00430240D01*
X00315695Y00431345D01*
X00316800Y00432999D01*
X00317188Y00434950D01*
X00316800Y00436901D01*
X00316719Y00437022D01*
Y00450190D01*
X00316719Y00450190D01*
X00316367Y00451961D01*
X00315363Y00453463D01*
X00315363Y00453463D01*
X00301479Y00467347D01*
Y00520047D01*
X00302656Y00520778D01*
X00302749Y00520765D01*
X00303520Y00519612D01*
X00303570Y00519359D01*
X00304675Y00517705D01*
X00306329Y00516600D01*
X00308280Y00516212D01*
X00310231Y00516600D01*
X00311885Y00517705D01*
X00312990Y00519359D01*
X00313378Y00521310D01*
X00313246Y00521971D01*
X00314417Y00522597D01*
X00316242Y00520772D01*
X00316270Y00520629D01*
X00317375Y00518975D01*
X00319029Y00517870D01*
X00320980Y00517482D01*
X00322931Y00517870D01*
X00323900Y00518518D01*
X00325309Y00517947D01*
X00325473Y00517119D01*
X00326391Y00515745D01*
X00326430Y00515549D01*
X00327535Y00513895D01*
X00329189Y00512790D01*
X00331140Y00512402D01*
X00333091Y00512790D01*
X00334745Y00513895D01*
X00335850Y00515549D01*
X00336238Y00517500D01*
X00335850Y00519451D01*
X00334745Y00521105D01*
X00334379Y00521349D01*
Y00525240D01*
X00334379Y00525240D01*
X00334027Y00527011D01*
X00333023Y00528513D01*
X00326759Y00534777D01*
Y00579083D01*
X00332533Y00584857D01*
X00332533Y00584857D01*
X00333537Y00586359D01*
X00333889Y00588130D01*
Y00594701D01*
X00335159Y00595328D01*
X00336509Y00594292D01*
X00338820Y00593335D01*
X00341300Y00593008D01*
X00343780Y00593335D01*
X00346091Y00594292D01*
X00348075Y00595815D01*
X00349598Y00597799D01*
X00350555Y00600110D01*
X00350882Y00602590D01*
X00350555Y00605070D01*
X00349598Y00607381D01*
X00348075Y00609366D01*
X00346091Y00610888D01*
X00343780Y00611846D01*
X00342327Y00612037D01*
X00341985Y00613335D01*
X00343090Y00614989D01*
X00343478Y00616940D01*
X00343090Y00618891D01*
X00341985Y00620545D01*
X00340331Y00621650D01*
X00338380Y00622038D01*
D02*
G37*
G36*
X00520000Y00574200D02*
X00516204D01*
X00516230Y00574137D01*
X00517839Y00572039D01*
X00519937Y00570430D01*
X00520000Y00570404D01*
Y00574200D01*
D02*
G37*
G36*
X00499600Y00588782D02*
X00497120Y00588456D01*
X00494809Y00587498D01*
X00492825Y00585975D01*
X00491302Y00583991D01*
X00490345Y00581680D01*
X00490018Y00579200D01*
X00490345Y00576720D01*
X00491302Y00574409D01*
X00492825Y00572425D01*
X00494809Y00570902D01*
X00497120Y00569945D01*
X00499600Y00569618D01*
X00502080Y00569945D01*
X00504391Y00570902D01*
X00506375Y00572425D01*
X00507898Y00574409D01*
X00508855Y00576720D01*
X00509182Y00579200D01*
X00508855Y00581680D01*
X00507898Y00583991D01*
X00506375Y00585975D01*
X00504391Y00587498D01*
X00502080Y00588456D01*
X00499600Y00588782D01*
D02*
G37*
G36*
X00336300Y00572190D02*
X00332504D01*
X00332530Y00572127D01*
X00334139Y00570029D01*
X00336237Y00568420D01*
X00336300Y00568394D01*
Y00572190D01*
D02*
G37*
G36*
X00533796Y00574200D02*
X00530000D01*
Y00570404D01*
X00530063Y00570430D01*
X00532161Y00572039D01*
X00533770Y00574137D01*
X00533796Y00574200D01*
D02*
G37*
G36*
X00530000Y00587996D02*
Y00584200D01*
X00533796D01*
X00533770Y00584263D01*
X00532161Y00586361D01*
X00530063Y00587970D01*
X00530000Y00587996D01*
D02*
G37*
G36*
X00520000Y00587996D02*
X00519937Y00587970D01*
X00517839Y00586361D01*
X00516230Y00584263D01*
X00516204Y00584200D01*
X00520000D01*
Y00587996D01*
D02*
G37*
G36*
X00336300Y00585986D02*
X00336237Y00585960D01*
X00334139Y00584351D01*
X00332530Y00582253D01*
X00332504Y00582190D01*
X00336300D01*
Y00585986D01*
D02*
G37*
G36*
X00170000Y00338800D02*
X00166204D01*
X00166230Y00338737D01*
X00167839Y00336639D01*
X00169937Y00335030D01*
X00170000Y00335004D01*
Y00338800D01*
D02*
G37*
G36*
X00534500Y00353300D02*
X00515500D01*
Y00334300D01*
X00534500D01*
Y00353300D01*
D02*
G37*
G36*
X00200400Y00353382D02*
X00197920Y00353055D01*
X00195609Y00352098D01*
X00193625Y00350575D01*
X00192102Y00348591D01*
X00191145Y00346280D01*
X00190818Y00343800D01*
X00191145Y00341320D01*
X00192102Y00339009D01*
X00193625Y00337024D01*
X00195609Y00335502D01*
X00197920Y00334544D01*
X00200400Y00334218D01*
X00202880Y00334544D01*
X00205191Y00335502D01*
X00207176Y00337024D01*
X00208698Y00339009D01*
X00209655Y00341320D01*
X00209982Y00343800D01*
X00209655Y00346280D01*
X00208698Y00348591D01*
X00207176Y00350575D01*
X00205191Y00352098D01*
X00202880Y00353055D01*
X00200400Y00353382D01*
D02*
G37*
G36*
X00183796Y00338800D02*
X00180000D01*
Y00335004D01*
X00180063Y00335030D01*
X00182161Y00336639D01*
X00183770Y00338737D01*
X00183796Y00338800D01*
D02*
G37*
G36*
X00320581Y00341050D02*
X00315830D01*
Y00336299D01*
X00316338Y00336510D01*
X00318620Y00338260D01*
X00320370Y00340542D01*
X00320581Y00341050D01*
D02*
G37*
G36*
X00305830D02*
X00301079D01*
X00301290Y00340542D01*
X00303040Y00338260D01*
X00305322Y00336510D01*
X00305830Y00336299D01*
Y00341050D01*
D02*
G37*
G36*
X00348930Y00381922D02*
X00346220Y00381565D01*
X00343694Y00380519D01*
X00341525Y00378855D01*
X00339861Y00376686D01*
X00338815Y00374160D01*
X00338458Y00371450D01*
X00338815Y00368740D01*
X00339348Y00367453D01*
Y00363315D01*
X00331263Y00355230D01*
X00330994Y00355119D01*
X00328825Y00353455D01*
X00327161Y00351286D01*
X00326115Y00348760D01*
X00325758Y00346050D01*
X00326115Y00343340D01*
X00327161Y00340814D01*
X00328825Y00338646D01*
X00330994Y00336981D01*
X00333520Y00335935D01*
X00336230Y00335578D01*
X00338940Y00335935D01*
X00341466Y00336981D01*
X00343634Y00338646D01*
X00345299Y00340814D01*
X00346253Y00343118D01*
X00350061Y00346926D01*
X00351200Y00346364D01*
X00351158Y00346050D01*
X00351515Y00343340D01*
X00352561Y00340814D01*
X00354226Y00338646D01*
X00356394Y00336981D01*
X00358920Y00335935D01*
X00361630Y00335578D01*
X00364340Y00335935D01*
X00366866Y00336981D01*
X00369035Y00338646D01*
X00370699Y00340814D01*
X00371745Y00343340D01*
X00372102Y00346050D01*
X00371745Y00348760D01*
X00370699Y00351286D01*
X00369035Y00353455D01*
X00366866Y00355119D01*
X00364340Y00356165D01*
X00361630Y00356522D01*
X00359290Y00356213D01*
X00358901Y00356443D01*
X00358497Y00356840D01*
X00358237Y00357257D01*
X00358512Y00359346D01*
Y00367453D01*
X00359045Y00368740D01*
X00359402Y00371450D01*
X00359045Y00374160D01*
X00357999Y00376686D01*
X00356334Y00378855D01*
X00354166Y00380519D01*
X00351640Y00381565D01*
X00348930Y00381922D01*
D02*
G37*
G36*
X00153340Y01108068D02*
X00151389Y01107680D01*
X00149735Y01106575D01*
X00148630Y01104921D01*
X00148242Y01102970D01*
X00148575Y01101296D01*
X00141635Y01094355D01*
X00140772Y01093064D01*
X00140469Y01091540D01*
Y00888719D01*
X00134015Y00882265D01*
X00133152Y00880974D01*
X00132849Y00879450D01*
Y00876141D01*
X00132120Y00875051D01*
X00131732Y00873100D01*
X00132120Y00871149D01*
X00132849Y00870059D01*
Y00860400D01*
X00133152Y00858876D01*
X00134015Y00857585D01*
X00140469Y00851131D01*
Y00300330D01*
X00140772Y00298806D01*
X00141635Y00297515D01*
X00190284Y00248865D01*
X00190540Y00247579D01*
X00191645Y00245925D01*
X00193299Y00244820D01*
X00195250Y00244432D01*
X00197201Y00244820D01*
X00198855Y00245925D01*
X00199960Y00247579D01*
X00200181Y00248692D01*
X00201559Y00249110D01*
X00212845Y00237825D01*
X00214137Y00236962D01*
X00215660Y00236658D01*
X00218879D01*
X00219969Y00235930D01*
X00221920Y00235542D01*
X00223871Y00235930D01*
X00225525Y00237035D01*
X00226630Y00238689D01*
X00227018Y00240640D01*
X00226630Y00242591D01*
X00225525Y00244245D01*
X00223871Y00245350D01*
X00221920Y00245738D01*
X00219969Y00245350D01*
X00218879Y00244622D01*
X00217309D01*
X00154782Y00307149D01*
Y00859130D01*
X00154478Y00860654D01*
X00153615Y00861945D01*
X00151966Y00863595D01*
X00152088Y00864210D01*
X00151700Y00866161D01*
X00150971Y00867251D01*
Y00867641D01*
X00153615Y00870285D01*
X00154478Y00871576D01*
X00154782Y00873100D01*
Y01084811D01*
X00160355Y01090384D01*
X00161641Y01090640D01*
X00163295Y01091745D01*
X00164400Y01093399D01*
X00164788Y01095350D01*
X00164400Y01097301D01*
X00163295Y01098955D01*
X00161641Y01100060D01*
X00159690Y01100448D01*
X00159110Y01100332D01*
X00158829Y01100514D01*
X00158132Y01101433D01*
X00158438Y01102970D01*
X00158050Y01104921D01*
X00156945Y01106575D01*
X00155291Y01107680D01*
X00153340Y01108068D01*
D02*
G37*
G36*
X00560000Y00262106D02*
X00555687Y00261682D01*
X00551540Y00260424D01*
X00547718Y00258381D01*
X00544368Y00255632D01*
X00541619Y00252282D01*
X00539576Y00248460D01*
X00538318Y00244313D01*
X00537894Y00240000D01*
X00538318Y00235687D01*
X00539576Y00231540D01*
X00541619Y00227718D01*
X00544368Y00224368D01*
X00547718Y00221619D01*
X00551540Y00219576D01*
X00555687Y00218318D01*
X00560000Y00217894D01*
X00564313Y00218318D01*
X00568460Y00219576D01*
X00572282Y00221619D01*
X00575632Y00224368D01*
X00578381Y00227718D01*
X00580424Y00231540D01*
X00581682Y00235687D01*
X00582106Y00240000D01*
X00581682Y00244313D01*
X00580424Y00248460D01*
X00578381Y00252282D01*
X00575632Y00255632D01*
X00572282Y00258381D01*
X00568460Y00260424D01*
X00564313Y00261682D01*
X00560000Y00262106D01*
D02*
G37*
G36*
X00140000D02*
X00135687Y00261682D01*
X00131540Y00260424D01*
X00127718Y00258381D01*
X00124368Y00255632D01*
X00121619Y00252282D01*
X00119576Y00248460D01*
X00118318Y00244313D01*
X00117894Y00240000D01*
X00118318Y00235687D01*
X00119576Y00231540D01*
X00121619Y00227718D01*
X00124368Y00224368D01*
X00127718Y00221619D01*
X00131540Y00219576D01*
X00135687Y00218318D01*
X00140000Y00217894D01*
X00144313Y00218318D01*
X00148460Y00219576D01*
X00152282Y00221619D01*
X00155632Y00224368D01*
X00158381Y00227718D01*
X00160424Y00231540D01*
X00161682Y00235687D01*
X00162106Y00240000D01*
X00161682Y00244313D01*
X00160424Y00248460D01*
X00158381Y00252282D01*
X00155632Y00255632D01*
X00152282Y00258381D01*
X00148460Y00260424D01*
X00144313Y00261682D01*
X00140000Y00262106D01*
D02*
G37*
G36*
X00285410Y00300888D02*
X00281832Y00300536D01*
X00278392Y00299492D01*
X00275222Y00297798D01*
X00272443Y00295517D01*
X00270162Y00292738D01*
X00268468Y00289568D01*
X00267424Y00286128D01*
X00267072Y00282550D01*
X00267424Y00278972D01*
X00268468Y00275532D01*
X00270162Y00272362D01*
X00272443Y00269583D01*
X00275222Y00267302D01*
X00278392Y00265608D01*
X00281832Y00264564D01*
X00285410Y00264212D01*
X00288988Y00264564D01*
X00292428Y00265608D01*
X00295598Y00267302D01*
X00298377Y00269583D01*
X00300658Y00272362D01*
X00302352Y00275532D01*
X00303396Y00278972D01*
X00303748Y00282550D01*
X00303396Y00286128D01*
X00302352Y00289568D01*
X00300658Y00292738D01*
X00298377Y00295517D01*
X00295598Y00297798D01*
X00292428Y00299492D01*
X00288988Y00300536D01*
X00285410Y00300888D01*
D02*
G37*
G36*
X00200400Y00327982D02*
X00197920Y00327655D01*
X00195609Y00326698D01*
X00193625Y00325175D01*
X00192102Y00323191D01*
X00191145Y00320880D01*
X00190818Y00318400D01*
X00191145Y00315920D01*
X00192102Y00313609D01*
X00193625Y00311625D01*
X00195609Y00310102D01*
X00197920Y00309144D01*
X00200400Y00308818D01*
X00202880Y00309144D01*
X00205191Y00310102D01*
X00207176Y00311625D01*
X00208698Y00313609D01*
X00209655Y00315920D01*
X00209982Y00318400D01*
X00209655Y00320880D01*
X00208698Y00323191D01*
X00207176Y00325175D01*
X00205191Y00326698D01*
X00202880Y00327655D01*
X00200400Y00327982D01*
D02*
G37*
G36*
X00175000D02*
X00172520Y00327655D01*
X00170209Y00326698D01*
X00168225Y00325175D01*
X00166702Y00323191D01*
X00165745Y00320880D01*
X00165418Y00318400D01*
X00165745Y00315920D01*
X00166702Y00313609D01*
X00168225Y00311625D01*
X00170209Y00310102D01*
X00172520Y00309144D01*
X00175000Y00308818D01*
X00177480Y00309144D01*
X00179791Y00310102D01*
X00181775Y00311625D01*
X00183298Y00313609D01*
X00184256Y00315920D01*
X00184582Y00318400D01*
X00184256Y00320880D01*
X00183298Y00323191D01*
X00181775Y00325175D01*
X00179791Y00326698D01*
X00177480Y00327655D01*
X00175000Y00327982D01*
D02*
G37*
G36*
X00399730Y00300888D02*
X00396152Y00300536D01*
X00392712Y00299492D01*
X00389542Y00297798D01*
X00386763Y00295517D01*
X00384482Y00292738D01*
X00382788Y00289568D01*
X00381744Y00286128D01*
X00381392Y00282550D01*
X00381744Y00278972D01*
X00382788Y00275532D01*
X00384482Y00272362D01*
X00386763Y00269583D01*
X00389542Y00267302D01*
X00392712Y00265608D01*
X00396152Y00264564D01*
X00399730Y00264212D01*
X00403308Y00264564D01*
X00406748Y00265608D01*
X00409918Y00267302D01*
X00412697Y00269583D01*
X00414978Y00272362D01*
X00416672Y00275532D01*
X00417716Y00278972D01*
X00418068Y00282550D01*
X00417716Y00286128D01*
X00416672Y00289568D01*
X00414978Y00292738D01*
X00412697Y00295517D01*
X00409918Y00297798D01*
X00406748Y00299492D01*
X00403308Y00300536D01*
X00399730Y00300888D01*
D02*
G37*
G36*
X00323530Y00381922D02*
X00320820Y00381565D01*
X00318294Y00380519D01*
X00316126Y00378855D01*
X00314461Y00376686D01*
X00313415Y00374160D01*
X00313058Y00371450D01*
X00313415Y00368740D01*
X00314461Y00366214D01*
X00316126Y00364046D01*
X00318294Y00362381D01*
X00320820Y00361335D01*
X00323530Y00360979D01*
X00326240Y00361335D01*
X00328766Y00362381D01*
X00330934Y00364046D01*
X00332599Y00366214D01*
X00333645Y00368740D01*
X00334002Y00371450D01*
X00333645Y00374160D01*
X00332599Y00376686D01*
X00330934Y00378855D01*
X00328766Y00380519D01*
X00326240Y00381565D01*
X00323530Y00381922D01*
D02*
G37*
G36*
X00533796Y00364200D02*
X00530000D01*
Y00360404D01*
X00530063Y00360430D01*
X00532161Y00362039D01*
X00533770Y00364137D01*
X00533796Y00364200D01*
D02*
G37*
G36*
X00520000D02*
X00516204D01*
X00516230Y00364137D01*
X00517839Y00362039D01*
X00519937Y00360430D01*
X00520000Y00360404D01*
Y00364200D01*
D02*
G37*
G36*
X00293130Y00366450D02*
X00288379D01*
X00288590Y00365942D01*
X00290340Y00363660D01*
X00292622Y00361910D01*
X00293130Y00361699D01*
Y00366450D01*
D02*
G37*
G36*
X00530000Y00377996D02*
Y00374200D01*
X00533796D01*
X00533770Y00374263D01*
X00532161Y00376361D01*
X00530063Y00377970D01*
X00530000Y00377996D01*
D02*
G37*
G36*
X00520000Y00377996D02*
X00519937Y00377970D01*
X00517839Y00376361D01*
X00516230Y00374263D01*
X00516204Y00374200D01*
X00520000D01*
Y00377996D01*
D02*
G37*
G36*
X00307881Y00366450D02*
X00303130D01*
Y00361699D01*
X00303638Y00361910D01*
X00305920Y00363660D01*
X00307670Y00365942D01*
X00307881Y00366450D01*
D02*
G37*
G36*
X00180000Y00352596D02*
Y00348800D01*
X00183796D01*
X00183770Y00348863D01*
X00182161Y00350961D01*
X00180063Y00352570D01*
X00180000Y00352596D01*
D02*
G37*
G36*
X00170000D02*
X00169937Y00352570D01*
X00167839Y00350961D01*
X00166230Y00348863D01*
X00166204Y00348800D01*
X00170000D01*
Y00352596D01*
D02*
G37*
G36*
X00374330Y00381922D02*
X00371620Y00381565D01*
X00369094Y00380519D01*
X00366926Y00378855D01*
X00365261Y00376686D01*
X00364215Y00374160D01*
X00363858Y00371450D01*
X00364215Y00368740D01*
X00365261Y00366214D01*
X00366926Y00364046D01*
X00369094Y00362381D01*
X00371620Y00361335D01*
X00374330Y00360979D01*
X00377040Y00361335D01*
X00379566Y00362381D01*
X00381735Y00364046D01*
X00383399Y00366214D01*
X00383882Y00367382D01*
X00386728D01*
X00399548Y00354561D01*
Y00341349D01*
X00398416Y00340217D01*
X00397412Y00341009D01*
Y00351241D01*
X00392221Y00356432D01*
X00381839D01*
X00376648Y00351241D01*
Y00340859D01*
X00381839Y00335668D01*
X00382014Y00335245D01*
X00349915Y00303145D01*
X00349915Y00303145D01*
X00344040Y00297271D01*
X00344040Y00297271D01*
X00343177Y00295979D01*
X00342874Y00294455D01*
X00343177Y00292932D01*
X00343516Y00292424D01*
X00342601Y00291509D01*
X00342093Y00291848D01*
X00340569Y00292151D01*
X00339046Y00291848D01*
X00337754Y00290985D01*
X00331468Y00284699D01*
X00331468Y00284698D01*
X00328325Y00281555D01*
X00327462Y00280264D01*
X00327159Y00278740D01*
Y00255079D01*
X00325591Y00253512D01*
X00324021D01*
X00322931Y00254240D01*
X00320980Y00254628D01*
X00319029Y00254240D01*
X00317375Y00253135D01*
X00316270Y00251481D01*
X00315882Y00249530D01*
X00316270Y00247579D01*
X00317375Y00245925D01*
X00319029Y00244820D01*
X00320980Y00244432D01*
X00322931Y00244820D01*
X00323062Y00244908D01*
X00323978Y00243992D01*
X00323890Y00243861D01*
X00323502Y00241910D01*
X00323890Y00239959D01*
X00324995Y00238305D01*
X00326649Y00237200D01*
X00328600Y00236812D01*
X00330551Y00237200D01*
X00332205Y00238305D01*
X00333310Y00239959D01*
X00333566Y00241245D01*
X00370785Y00278465D01*
X00371648Y00279756D01*
X00371951Y00281280D01*
Y00302491D01*
X00406345Y00336885D01*
X00407208Y00338176D01*
X00407511Y00339700D01*
Y00356210D01*
X00407208Y00357734D01*
X00406345Y00359025D01*
X00391192Y00374178D01*
X00389901Y00375042D01*
X00388377Y00375345D01*
X00383954D01*
X00383399Y00376686D01*
X00381735Y00378855D01*
X00379566Y00380519D01*
X00377040Y00381565D01*
X00374330Y00381922D01*
D02*
G37*
G36*
X00305830Y00355801D02*
X00305322Y00355590D01*
X00303040Y00353840D01*
X00301290Y00351558D01*
X00301079Y00351050D01*
X00305830D01*
Y00355801D01*
D02*
G37*
G36*
X00544440Y00936618D02*
X00542489Y00936230D01*
X00540835Y00935125D01*
X00539730Y00933471D01*
X00539342Y00931520D01*
X00539730Y00929569D01*
X00540835Y00927915D01*
X00541991Y00927143D01*
Y00916460D01*
X00541991Y00916460D01*
X00542343Y00914688D01*
X00543347Y00913187D01*
X00544831Y00911702D01*
Y00326257D01*
X00542583Y00324009D01*
X00514667D01*
X00504415Y00334261D01*
X00504410Y00334501D01*
X00504517Y00335598D01*
X00506375Y00337024D01*
X00507898Y00339009D01*
X00508855Y00341320D01*
X00509182Y00343800D01*
X00508855Y00346280D01*
X00507898Y00348591D01*
X00506375Y00350575D01*
X00504391Y00352098D01*
X00502080Y00353055D01*
X00499600Y00353382D01*
X00497120Y00353055D01*
X00494809Y00352098D01*
X00492825Y00350575D01*
X00491302Y00348591D01*
X00490709Y00347160D01*
X00489439Y00347412D01*
Y00352493D01*
X00496958Y00360012D01*
X00497120Y00359944D01*
X00499600Y00359618D01*
X00502080Y00359944D01*
X00504391Y00360902D01*
X00506375Y00362425D01*
X00507898Y00364409D01*
X00508855Y00366720D01*
X00509182Y00369200D01*
X00508855Y00371680D01*
X00507898Y00373991D01*
X00506375Y00375975D01*
X00504391Y00377498D01*
X00502080Y00378456D01*
X00499600Y00378782D01*
X00497120Y00378456D01*
X00494809Y00377498D01*
X00492825Y00375975D01*
X00491302Y00373991D01*
X00490345Y00371680D01*
X00490018Y00369200D01*
X00490345Y00366720D01*
X00490412Y00366558D01*
X00481537Y00357683D01*
X00480533Y00356181D01*
X00480181Y00354410D01*
X00480181Y00354410D01*
Y00334620D01*
X00480181Y00334620D01*
X00480533Y00332849D01*
X00481537Y00331347D01*
X00504357Y00308527D01*
X00504357Y00308527D01*
X00505859Y00307523D01*
X00507630Y00307171D01*
X00507630Y00307171D01*
X00547640D01*
X00547640Y00307171D01*
X00549411Y00307523D01*
X00550913Y00308527D01*
X00560313Y00317927D01*
X00560313Y00317927D01*
X00561317Y00319429D01*
X00561669Y00321200D01*
X00561669Y00321200D01*
Y00916759D01*
X00561669Y00916759D01*
X00561317Y00918531D01*
X00560313Y00920033D01*
X00560313Y00920033D01*
X00559419Y00920927D01*
X00559758Y00922630D01*
X00559370Y00924581D01*
X00558265Y00926235D01*
X00556611Y00927340D01*
X00554660Y00927728D01*
X00552709Y00927340D01*
X00552369Y00927113D01*
X00551249Y00927711D01*
Y00929340D01*
X00551249Y00929340D01*
X00550897Y00931112D01*
X00549893Y00932613D01*
X00549893Y00932614D01*
X00549179Y00933328D01*
X00549150Y00933471D01*
X00548045Y00935125D01*
X00546391Y00936230D01*
X00544440Y00936618D01*
D02*
G37*
G36*
X00175000Y00378782D02*
X00172520Y00378456D01*
X00170209Y00377498D01*
X00168225Y00375975D01*
X00166702Y00373991D01*
X00165745Y00371680D01*
X00165418Y00369200D01*
X00165745Y00366720D01*
X00166702Y00364409D01*
X00168225Y00362425D01*
X00170209Y00360902D01*
X00172520Y00359944D01*
X00175000Y00359618D01*
X00177480Y00359944D01*
X00179791Y00360902D01*
X00181775Y00362425D01*
X00183298Y00364409D01*
X00184256Y00366720D01*
X00184582Y00369200D01*
X00184256Y00371680D01*
X00183298Y00373991D01*
X00181775Y00375975D01*
X00179791Y00377498D01*
X00177480Y00378456D01*
X00175000Y00378782D01*
D02*
G37*
G36*
X00315830Y00355801D02*
Y00351050D01*
X00320581D01*
X00320370Y00351558D01*
X00318620Y00353840D01*
X00316338Y00355590D01*
X00315830Y00355801D01*
D02*
G37*
G36*
X00170000Y00758800D02*
X00166204D01*
X00166230Y00758737D01*
X00167839Y00756639D01*
X00169937Y00755030D01*
X00170000Y00755004D01*
Y00758800D01*
D02*
G37*
G36*
X00405980Y01035251D02*
Y01030500D01*
X00410731D01*
X00410520Y01031008D01*
X00408770Y01033290D01*
X00406488Y01035040D01*
X00405980Y01035251D01*
D02*
G37*
G36*
X00395980D02*
X00395472Y01035040D01*
X00393190Y01033290D01*
X00391440Y01031008D01*
X00391229Y01030500D01*
X00395980D01*
Y01035251D01*
D02*
G37*
G36*
X00180000Y01033396D02*
Y01029600D01*
X00183796D01*
X00183770Y01029663D01*
X00182161Y01031761D01*
X00180063Y01033370D01*
X00180000Y01033396D01*
D02*
G37*
G36*
X00200400Y01059582D02*
X00197920Y01059255D01*
X00195609Y01058298D01*
X00193625Y01056775D01*
X00192102Y01054791D01*
X00191145Y01052480D01*
X00190818Y01050000D01*
X00191145Y01047520D01*
X00192102Y01045209D01*
X00193625Y01043224D01*
X00195609Y01041702D01*
X00197920Y01040744D01*
X00200400Y01040418D01*
X00202880Y01040744D01*
X00205191Y01041702D01*
X00207176Y01043224D01*
X00208698Y01045209D01*
X00209655Y01047520D01*
X00209982Y01050000D01*
X00209655Y01052480D01*
X00208698Y01054791D01*
X00207176Y01056775D01*
X00205191Y01058298D01*
X00202880Y01059255D01*
X00200400Y01059582D01*
D02*
G37*
G36*
X00240970Y01108068D02*
X00239019Y01107680D01*
X00237365Y01106575D01*
X00236260Y01104921D01*
X00235872Y01102970D01*
X00236260Y01101019D01*
X00237365Y01099365D01*
X00239019Y01098260D01*
X00239967Y01098072D01*
X00240551Y01096661D01*
X00240070Y01095941D01*
X00239682Y01093990D01*
X00240070Y01092039D01*
X00241175Y01090385D01*
X00242829Y01089280D01*
X00244115Y01089024D01*
X00310455Y01022685D01*
X00311746Y01021822D01*
X00313270Y01021518D01*
X00315192D01*
X00315711Y01020264D01*
X00317376Y01018095D01*
X00319544Y01016431D01*
X00322070Y01015385D01*
X00324780Y01015028D01*
X00327490Y01015385D01*
X00330016Y01016431D01*
X00332184Y01018095D01*
X00333849Y01020264D01*
X00334895Y01022790D01*
X00335252Y01025500D01*
X00334895Y01028210D01*
X00333849Y01030736D01*
X00332184Y01032905D01*
X00330016Y01034569D01*
X00327490Y01035615D01*
X00324780Y01035972D01*
X00322070Y01035615D01*
X00319544Y01034569D01*
X00317376Y01032905D01*
X00315711Y01030736D01*
X00315638Y01030558D01*
X00314140Y01030261D01*
X00298752Y01045648D01*
X00299278Y01046918D01*
X00301698D01*
Y01045709D01*
X00306889Y01040518D01*
X00317271D01*
X00322462Y01045709D01*
Y01056091D01*
X00317271Y01061282D01*
X00306889D01*
X00301698Y01056091D01*
Y01054882D01*
X00300048D01*
X00249144Y01105785D01*
X00247852Y01106648D01*
X00246329Y01106952D01*
X00244011D01*
X00242921Y01107680D01*
X00240970Y01108068D01*
D02*
G37*
G36*
X00184500Y01059500D02*
X00165500D01*
Y01040500D01*
X00184500D01*
Y01059500D01*
D02*
G37*
G36*
X00337480Y01061372D02*
X00334770Y01061015D01*
X00332244Y01059969D01*
X00330075Y01058305D01*
X00328411Y01056136D01*
X00327365Y01053610D01*
X00327008Y01050900D01*
X00327365Y01048190D01*
X00328411Y01045664D01*
X00330075Y01043495D01*
X00332244Y01041831D01*
X00334770Y01040785D01*
X00337480Y01040428D01*
X00340190Y01040785D01*
X00342716Y01041831D01*
X00344884Y01043495D01*
X00346549Y01045664D01*
X00347595Y01048190D01*
X00347952Y01050900D01*
X00347595Y01053610D01*
X00346549Y01056136D01*
X00344884Y01058305D01*
X00342716Y01059969D01*
X00340190Y01061015D01*
X00337480Y01061372D01*
D02*
G37*
G36*
X00395980Y01020500D02*
X00391229D01*
X00391440Y01019992D01*
X00393190Y01017710D01*
X00395472Y01015960D01*
X00395980Y01015749D01*
Y01020500D01*
D02*
G37*
G36*
X00375580Y01035972D02*
X00372870Y01035615D01*
X00370344Y01034569D01*
X00368176Y01032905D01*
X00366511Y01030736D01*
X00365465Y01028210D01*
X00365108Y01025500D01*
X00365465Y01022790D01*
X00366511Y01020264D01*
X00368176Y01018095D01*
X00370344Y01016431D01*
X00372870Y01015385D01*
X00375580Y01015028D01*
X00378290Y01015385D01*
X00380816Y01016431D01*
X00382985Y01018095D01*
X00384649Y01020264D01*
X00385695Y01022790D01*
X00386052Y01025500D01*
X00385695Y01028210D01*
X00384649Y01030736D01*
X00382985Y01032905D01*
X00380816Y01034569D01*
X00378290Y01035615D01*
X00375580Y01035972D01*
D02*
G37*
G36*
X00350180D02*
X00347470Y01035615D01*
X00344944Y01034569D01*
X00342775Y01032905D01*
X00341111Y01030736D01*
X00340065Y01028210D01*
X00339708Y01025500D01*
X00340065Y01022790D01*
X00341111Y01020264D01*
X00342775Y01018095D01*
X00344944Y01016431D01*
X00347470Y01015385D01*
X00350180Y01015028D01*
X00352890Y01015385D01*
X00355416Y01016431D01*
X00357584Y01018095D01*
X00359249Y01020264D01*
X00360295Y01022790D01*
X00360652Y01025500D01*
X00360295Y01028210D01*
X00359249Y01030736D01*
X00357584Y01032905D01*
X00355416Y01034569D01*
X00352890Y01035615D01*
X00350180Y01035972D01*
D02*
G37*
G36*
X00410731Y01020500D02*
X00405980D01*
Y01015749D01*
X00406488Y01015960D01*
X00408770Y01017710D01*
X00410520Y01019992D01*
X00410731Y01020500D01*
D02*
G37*
G36*
X00170000Y01033396D02*
X00169937Y01033370D01*
X00167839Y01031761D01*
X00166230Y01029663D01*
X00166204Y01029600D01*
X00170000D01*
Y01033396D01*
D02*
G37*
G36*
X00183796Y01019600D02*
X00180000D01*
Y01015804D01*
X00180063Y01015830D01*
X00182161Y01017439D01*
X00183770Y01019537D01*
X00183796Y01019600D01*
D02*
G37*
G36*
X00170000D02*
X00166204D01*
X00166230Y01019537D01*
X00167839Y01017439D01*
X00169937Y01015830D01*
X00170000Y01015804D01*
Y01019600D01*
D02*
G37*
G36*
X00512750Y01112552D02*
X00465760D01*
X00463280Y01112225D01*
X00460969Y01111268D01*
X00458985Y01109745D01*
X00437661Y01088422D01*
X00378130D01*
X00375650Y01088095D01*
X00373339Y01087138D01*
X00371354Y01085615D01*
X00356105Y01070365D01*
X00354582Y01068381D01*
X00353624Y01066070D01*
X00353298Y01063590D01*
Y01054897D01*
X00352765Y01053610D01*
X00352408Y01050900D01*
X00352765Y01048190D01*
X00353811Y01045664D01*
X00355476Y01043495D01*
X00357644Y01041831D01*
X00360170Y01040785D01*
X00362880Y01040428D01*
X00365590Y01040785D01*
X00368116Y01041831D01*
X00370285Y01043495D01*
X00371949Y01045664D01*
X00372995Y01048190D01*
X00373352Y01050900D01*
X00372995Y01053610D01*
X00372462Y01054897D01*
Y01059621D01*
X00382099Y01069258D01*
X00441630D01*
X00444110Y01069585D01*
X00446421Y01070542D01*
X00448405Y01072065D01*
X00469729Y01093388D01*
X00508781D01*
X00515418Y01086751D01*
Y01075400D01*
X00515745Y01072920D01*
X00516702Y01070609D01*
X00518224Y01068625D01*
X00520209Y01067102D01*
X00522520Y01066145D01*
X00525000Y01065818D01*
X00527480Y01066145D01*
X00529791Y01067102D01*
X00531775Y01068625D01*
X00533298Y01070609D01*
X00534255Y01072920D01*
X00534582Y01075400D01*
Y01090720D01*
X00534255Y01093200D01*
X00533298Y01095511D01*
X00531775Y01097495D01*
X00519525Y01109745D01*
X00517541Y01111268D01*
X00515230Y01112225D01*
X00512750Y01112552D01*
D02*
G37*
G36*
X00499600Y01084982D02*
X00497120Y01084656D01*
X00494809Y01083698D01*
X00492825Y01082176D01*
X00491302Y01080191D01*
X00491235Y01080029D01*
X00472000D01*
X00470229Y01079677D01*
X00468727Y01078673D01*
X00468727Y01078673D01*
X00441437Y01051383D01*
X00440433Y01049881D01*
X00440081Y01048110D01*
X00440081Y01048110D01*
Y00905890D01*
X00410537Y00876346D01*
X00409533Y00874844D01*
X00409181Y00873073D01*
X00409181Y00873073D01*
Y00569067D01*
X00404067Y00563953D01*
X00403063Y00562451D01*
X00402711Y00560680D01*
X00402711Y00560680D01*
Y00556402D01*
X00402630Y00556281D01*
X00402242Y00554330D01*
X00402630Y00552379D01*
X00403735Y00550725D01*
X00404717Y00550069D01*
X00404332Y00548799D01*
X00373852D01*
X00373731Y00548880D01*
X00371780Y00549268D01*
X00369829Y00548880D01*
X00368175Y00547775D01*
X00367070Y00546121D01*
X00366682Y00544170D01*
X00367070Y00542219D01*
X00368175Y00540565D01*
X00368925Y00540064D01*
X00369445Y00538885D01*
X00369178Y00538484D01*
X00368340Y00537231D01*
X00367952Y00535280D01*
X00368340Y00533329D01*
X00369445Y00531675D01*
X00369752Y00531470D01*
Y00530200D01*
X00369445Y00529995D01*
X00368340Y00528341D01*
X00367952Y00526390D01*
X00368258Y00524853D01*
X00367561Y00523934D01*
X00367280Y00523753D01*
X00366700Y00523868D01*
X00364749Y00523480D01*
X00363095Y00522375D01*
X00361990Y00520721D01*
X00361602Y00518770D01*
X00361990Y00516819D01*
X00363095Y00515165D01*
X00364749Y00514060D01*
X00364892Y00514032D01*
X00366387Y00512537D01*
X00366387Y00512537D01*
X00367888Y00511533D01*
X00369660Y00511181D01*
X00425060D01*
X00425060Y00511181D01*
X00425327Y00511234D01*
X00426040Y00510081D01*
X00425535Y00509429D01*
X00381940D01*
X00381940Y00509429D01*
X00380169Y00509077D01*
X00378667Y00508073D01*
X00372403Y00501809D01*
X00361152D01*
X00361031Y00501890D01*
X00359080Y00502278D01*
X00357129Y00501890D01*
X00355475Y00500785D01*
X00354370Y00499131D01*
X00353982Y00497180D01*
X00354370Y00495229D01*
X00355475Y00493575D01*
X00357129Y00492470D01*
X00359080Y00492082D01*
X00361031Y00492470D01*
X00361152Y00492551D01*
X00374320D01*
X00374320Y00492551D01*
X00376091Y00492903D01*
X00377593Y00493907D01*
X00383857Y00500171D01*
X00427660D01*
X00427660Y00500171D01*
X00429431Y00500523D01*
X00430933Y00501527D01*
X00443633Y00514227D01*
X00443633Y00514227D01*
X00444637Y00515729D01*
X00444989Y00517500D01*
X00444989Y00517500D01*
Y00528128D01*
X00445070Y00528249D01*
X00445458Y00530200D01*
X00445070Y00532151D01*
X00443965Y00533805D01*
X00442311Y00534910D01*
X00440360Y00535298D01*
Y00541457D01*
X00440360Y00541457D01*
X00440360D01*
X00440360Y00546709D01*
X00440360Y00546710D01*
X00440211Y00546885D01*
X00439926Y00547480D01*
X00439872Y00547613D01*
X00439798Y00547801D01*
X00439747Y00547963D01*
X00439873Y00548601D01*
X00440099Y00549735D01*
Y00558302D01*
X00440179Y00558705D01*
X00440179Y00558705D01*
Y00708729D01*
X00441449Y00709255D01*
X00461217Y00689487D01*
X00461217Y00689487D01*
X00462719Y00688483D01*
X00464490Y00688131D01*
X00464490Y00688131D01*
X00485278D01*
X00485399Y00688050D01*
X00487350Y00687662D01*
X00489301Y00688050D01*
X00490955Y00689155D01*
X00492060Y00690809D01*
X00492448Y00692760D01*
X00492060Y00694711D01*
X00490955Y00696365D01*
X00489301Y00697470D01*
X00487350Y00697858D01*
X00485399Y00697470D01*
X00485278Y00697389D01*
X00478806D01*
X00478136Y00698659D01*
X00478478Y00700380D01*
X00478090Y00702331D01*
X00476985Y00703985D01*
X00475331Y00705090D01*
X00473380Y00705478D01*
X00471429Y00705090D01*
X00471308Y00705009D01*
X00468947D01*
X00455879Y00718077D01*
Y00838834D01*
X00455987Y00838995D01*
X00456339Y00840767D01*
Y00842607D01*
X00456665Y00842825D01*
X00457770Y00844479D01*
X00458158Y00846430D01*
X00457770Y00848381D01*
X00456665Y00850035D01*
X00455011Y00851140D01*
X00453060Y00851528D01*
X00451109Y00851140D01*
X00449455Y00850035D01*
X00448350Y00848381D01*
X00447790Y00848158D01*
X00446780Y00848159D01*
X00446121Y00848600D01*
X00444170Y00848988D01*
X00442219Y00848600D01*
X00441449Y00848085D01*
X00440179Y00848764D01*
Y00861293D01*
X00448627Y00869741D01*
X00461148D01*
X00461269Y00869660D01*
X00463220Y00869272D01*
X00465171Y00869660D01*
X00466825Y00870765D01*
X00467930Y00872419D01*
X00468318Y00874370D01*
X00467930Y00876321D01*
X00467353Y00877184D01*
X00467711Y00878550D01*
X00469365Y00879655D01*
X00470470Y00881309D01*
X00470858Y00883260D01*
X00470470Y00885211D01*
X00469365Y00886865D01*
X00467711Y00887970D01*
X00465760Y00888358D01*
X00463809Y00887970D01*
X00463688Y00887889D01*
X00446845D01*
X00446359Y00889062D01*
X00455063Y00897767D01*
X00455063Y00897767D01*
X00456067Y00899269D01*
X00456419Y00901040D01*
X00456419Y00901040D01*
Y01027873D01*
X00473917Y01045371D01*
X00491235D01*
X00491302Y01045209D01*
X00492825Y01043225D01*
X00494809Y01041702D01*
X00497120Y01040745D01*
X00499600Y01040418D01*
X00502080Y01040745D01*
X00504391Y01041702D01*
X00506375Y01043225D01*
X00507898Y01045209D01*
X00508855Y01047520D01*
X00509182Y01050000D01*
X00508855Y01052480D01*
X00507898Y01054791D01*
X00506375Y01056776D01*
X00504391Y01058298D01*
X00502080Y01059256D01*
X00499600Y01059582D01*
X00497120Y01059256D01*
X00494809Y01058298D01*
X00492825Y01056776D01*
X00491302Y01054791D01*
X00491235Y01054629D01*
X00472000D01*
X00470229Y01054277D01*
X00468727Y01053273D01*
X00468727Y01053273D01*
X00450512Y01035059D01*
X00449339Y01035545D01*
Y01046193D01*
X00473917Y01070771D01*
X00491235D01*
X00491302Y01070609D01*
X00492825Y01068625D01*
X00494809Y01067102D01*
X00497120Y01066145D01*
X00499600Y01065818D01*
X00502080Y01066145D01*
X00504391Y01067102D01*
X00506375Y01068625D01*
X00507898Y01070609D01*
X00508855Y01072920D01*
X00509182Y01075400D01*
X00508855Y01077880D01*
X00507898Y01080191D01*
X00506375Y01082176D01*
X00504391Y01083698D01*
X00502080Y01084656D01*
X00499600Y01084982D01*
D02*
G37*
G36*
X00393280Y01060651D02*
Y01055900D01*
X00398031D01*
X00397820Y01056408D01*
X00396070Y01058690D01*
X00393788Y01060440D01*
X00393280Y01060651D01*
D02*
G37*
G36*
X00299380Y01132738D02*
X00295802Y01132386D01*
X00292362Y01131342D01*
X00289192Y01129648D01*
X00286413Y01127367D01*
X00284132Y01124588D01*
X00282438Y01121418D01*
X00281394Y01117978D01*
X00281042Y01114400D01*
X00281394Y01110822D01*
X00282438Y01107382D01*
X00284132Y01104212D01*
X00286413Y01101433D01*
X00289192Y01099152D01*
X00292362Y01097458D01*
X00295802Y01096414D01*
X00299380Y01096062D01*
X00302958Y01096414D01*
X00306398Y01097458D01*
X00309568Y01099152D01*
X00312347Y01101433D01*
X00314628Y01104212D01*
X00316322Y01107382D01*
X00317366Y01110822D01*
X00317718Y01114400D01*
X00317366Y01117978D01*
X00316322Y01121418D01*
X00314628Y01124588D01*
X00312347Y01127367D01*
X00309568Y01129648D01*
X00306398Y01131342D01*
X00302958Y01132386D01*
X00299380Y01132738D01*
D02*
G37*
G36*
X00560000Y01182106D02*
X00555687Y01181682D01*
X00551540Y01180424D01*
X00547718Y01178381D01*
X00544368Y01175632D01*
X00541619Y01172282D01*
X00539576Y01168460D01*
X00538318Y01164313D01*
X00537894Y01160000D01*
X00538318Y01155687D01*
X00539576Y01151540D01*
X00541619Y01147718D01*
X00544368Y01144368D01*
X00547718Y01141619D01*
X00551540Y01139576D01*
X00555687Y01138318D01*
X00560000Y01137894D01*
X00564313Y01138318D01*
X00568460Y01139576D01*
X00572282Y01141619D01*
X00575632Y01144368D01*
X00578381Y01147718D01*
X00580424Y01151540D01*
X00581682Y01155687D01*
X00582106Y01160000D01*
X00581682Y01164313D01*
X00580424Y01168460D01*
X00578381Y01172282D01*
X00575632Y01175632D01*
X00572282Y01178381D01*
X00568460Y01180424D01*
X00564313Y01181682D01*
X00560000Y01182106D01*
D02*
G37*
G36*
X00140000D02*
X00135687Y01181682D01*
X00131540Y01180424D01*
X00127718Y01178381D01*
X00124368Y01175632D01*
X00121619Y01172282D01*
X00119576Y01168460D01*
X00118318Y01164313D01*
X00117894Y01160000D01*
X00118318Y01155687D01*
X00119576Y01151540D01*
X00121619Y01147718D01*
X00124368Y01144368D01*
X00127718Y01141619D01*
X00131540Y01139576D01*
X00135687Y01138318D01*
X00140000Y01137894D01*
X00144313Y01138318D01*
X00148460Y01139576D01*
X00152282Y01141619D01*
X00155632Y01144368D01*
X00158381Y01147718D01*
X00160424Y01151540D01*
X00161682Y01155687D01*
X00162106Y01160000D01*
X00161682Y01164313D01*
X00160424Y01168460D01*
X00158381Y01172282D01*
X00155632Y01175632D01*
X00152282Y01178381D01*
X00148460Y01180424D01*
X00144313Y01181682D01*
X00140000Y01182106D01*
D02*
G37*
G36*
X00413700Y01132738D02*
X00410122Y01132386D01*
X00406682Y01131342D01*
X00403512Y01129648D01*
X00400733Y01127367D01*
X00398452Y01124588D01*
X00396758Y01121418D01*
X00395714Y01117978D01*
X00395362Y01114400D01*
X00395714Y01110822D01*
X00396758Y01107382D01*
X00398452Y01104212D01*
X00400733Y01101433D01*
X00403512Y01099152D01*
X00406682Y01097458D01*
X00410122Y01096414D01*
X00413700Y01096062D01*
X00417278Y01096414D01*
X00420718Y01097458D01*
X00423888Y01099152D01*
X00426667Y01101433D01*
X00428948Y01104212D01*
X00430642Y01107382D01*
X00431686Y01110822D01*
X00432038Y01114400D01*
X00431686Y01117978D01*
X00430642Y01121418D01*
X00428948Y01124588D01*
X00426667Y01127367D01*
X00423888Y01129648D01*
X00420718Y01131342D01*
X00417278Y01132386D01*
X00413700Y01132738D01*
D02*
G37*
G36*
X00520000Y01045000D02*
X00516204D01*
X00516230Y01044937D01*
X00517839Y01042839D01*
X00519937Y01041230D01*
X00520000Y01041204D01*
Y01045000D01*
D02*
G37*
G36*
X00398031Y01045900D02*
X00393280D01*
Y01041149D01*
X00393788Y01041360D01*
X00396070Y01043110D01*
X00397820Y01045392D01*
X00398031Y01045900D01*
D02*
G37*
G36*
X00383280D02*
X00378529D01*
X00378740Y01045392D01*
X00380490Y01043110D01*
X00382772Y01041360D01*
X00383280Y01041149D01*
Y01045900D01*
D02*
G37*
G36*
X00533796Y01045000D02*
X00530000D01*
Y01041204D01*
X00530063Y01041230D01*
X00532161Y01042839D01*
X00533770Y01044937D01*
X00533796Y01045000D01*
D02*
G37*
G36*
X00383280Y01060651D02*
X00382772Y01060440D01*
X00380490Y01058690D01*
X00378740Y01056408D01*
X00378529Y01055900D01*
X00383280D01*
Y01060651D01*
D02*
G37*
G36*
X00530000Y01058796D02*
Y01055000D01*
X00533796D01*
X00533770Y01055063D01*
X00532161Y01057161D01*
X00530063Y01058770D01*
X00530000Y01058796D01*
D02*
G37*
G36*
X00520000Y01058796D02*
X00519937Y01058770D01*
X00517839Y01057161D01*
X00516230Y01055063D01*
X00516204Y01055000D01*
X00520000D01*
Y01058796D01*
D02*
G37*
G36*
X00180000Y00823396D02*
Y00819600D01*
X00183796D01*
X00183770Y00819663D01*
X00182161Y00821761D01*
X00180063Y00823370D01*
X00180000Y00823396D01*
D02*
G37*
G36*
X00170000D02*
X00169937Y00823370D01*
X00167839Y00821761D01*
X00166230Y00819663D01*
X00166204Y00819600D01*
X00170000D01*
Y00823396D01*
D02*
G37*
G36*
X00183796Y00809600D02*
X00180000D01*
Y00805804D01*
X00180063Y00805830D01*
X00182161Y00807439D01*
X00183770Y00809537D01*
X00183796Y00809600D01*
D02*
G37*
G36*
X00533796Y00835000D02*
X00530000D01*
Y00831204D01*
X00530063Y00831230D01*
X00532161Y00832839D01*
X00533770Y00834937D01*
X00533796Y00835000D01*
D02*
G37*
G36*
X00499600Y00983382D02*
X00497120Y00983055D01*
X00494809Y00982098D01*
X00492825Y00980575D01*
X00491302Y00978591D01*
X00490345Y00976280D01*
X00490018Y00973800D01*
X00490345Y00971320D01*
X00491302Y00969009D01*
X00492825Y00967025D01*
X00494809Y00965502D01*
X00497120Y00964545D01*
X00499600Y00964218D01*
X00502080Y00964545D01*
X00504391Y00965502D01*
X00506375Y00967025D01*
X00507898Y00969009D01*
X00508855Y00971320D01*
X00509182Y00973800D01*
X00508855Y00976280D01*
X00507898Y00978591D01*
X00506375Y00980575D01*
X00504391Y00982098D01*
X00502080Y00983055D01*
X00499600Y00983382D01*
D02*
G37*
G36*
X00525000D02*
X00524377Y00983300D01*
X00515500D01*
Y00974423D01*
X00515418Y00973800D01*
Y00881178D01*
X00514245Y00880692D01*
X00504788Y00890148D01*
X00504760Y00890291D01*
X00503655Y00891945D01*
X00502001Y00893050D01*
X00500050Y00893438D01*
X00498099Y00893050D01*
X00496979Y00892301D01*
X00495709Y00892955D01*
Y00900313D01*
X00496778Y00901382D01*
X00496921Y00901410D01*
X00498575Y00902515D01*
X00499680Y00904169D01*
X00500068Y00906120D01*
X00499680Y00908071D01*
X00498575Y00909725D01*
X00496921Y00910830D01*
X00494970Y00911218D01*
X00493019Y00910830D01*
X00491365Y00909725D01*
X00490260Y00908071D01*
X00490232Y00907928D01*
X00487807Y00905503D01*
X00486803Y00904001D01*
X00486451Y00902230D01*
X00486451Y00902230D01*
Y00897629D01*
X00485181Y00896921D01*
X00483540Y00897248D01*
X00481589Y00896860D01*
X00479935Y00895755D01*
X00478830Y00894101D01*
X00478802Y00893958D01*
X00477187Y00892343D01*
X00476183Y00890841D01*
X00475831Y00889070D01*
X00475831Y00889070D01*
Y00860507D01*
X00461297Y00845973D01*
X00460293Y00844471D01*
X00459941Y00842700D01*
X00459941Y00842700D01*
Y00772878D01*
X00459941Y00772877D01*
X00460293Y00771106D01*
X00461297Y00769604D01*
X00501041Y00729860D01*
Y00683787D01*
X00465200Y00647947D01*
X00464502Y00648082D01*
X00463930Y00648418D01*
Y00662280D01*
Y00673710D01*
X00463690Y00675537D01*
X00462985Y00677240D01*
X00461862Y00678702D01*
X00460400Y00679825D01*
X00458697Y00680530D01*
X00456870Y00680770D01*
X00455043Y00680530D01*
X00453340Y00679825D01*
X00451878Y00678702D01*
X00450756Y00677240D01*
X00450050Y00675537D01*
X00449810Y00673710D01*
Y00662280D01*
Y00498834D01*
X00438178Y00487203D01*
X00437056Y00485741D01*
X00436351Y00484038D01*
X00436110Y00482211D01*
Y00480399D01*
X00436351Y00478572D01*
X00437056Y00476869D01*
X00438178Y00475407D01*
X00439641Y00474285D01*
X00441343Y00473579D01*
X00442107Y00473479D01*
X00442562Y00472138D01*
X00418893Y00448469D01*
X00376860D01*
X00376860Y00448469D01*
X00375089Y00448117D01*
X00373587Y00447113D01*
X00373587Y00447113D01*
X00368927Y00442453D01*
X00367923Y00440951D01*
X00367571Y00439180D01*
X00367571Y00439180D01*
Y00407590D01*
X00367070Y00406841D01*
X00366682Y00404890D01*
X00367070Y00402939D01*
X00368175Y00401285D01*
X00369829Y00400180D01*
X00371780Y00399792D01*
X00372113Y00399858D01*
X00372200Y00399841D01*
X00373971Y00400193D01*
X00375473Y00401197D01*
X00376477Y00402699D01*
X00376829Y00404470D01*
X00376829Y00404470D01*
Y00404643D01*
X00376878Y00404890D01*
X00376829Y00405137D01*
Y00408012D01*
X00378099Y00408397D01*
X00378667Y00407547D01*
X00387557Y00398657D01*
X00387557Y00398657D01*
X00389059Y00397653D01*
X00390830Y00397301D01*
X00390830Y00397301D01*
X00426858D01*
X00426979Y00397220D01*
X00428930Y00396832D01*
X00430881Y00397220D01*
X00432535Y00398325D01*
X00433640Y00399979D01*
X00434028Y00401930D01*
X00433640Y00403881D01*
X00432535Y00405535D01*
X00430881Y00406640D01*
X00428930Y00407028D01*
X00426979Y00406640D01*
X00426858Y00406559D01*
X00392747D01*
X00386569Y00412737D01*
Y00430321D01*
X00421175D01*
X00421661Y00429148D01*
X00419393Y00426879D01*
X00399252D01*
X00399131Y00426960D01*
X00397180Y00427348D01*
X00395229Y00426960D01*
X00393575Y00425855D01*
X00392470Y00424201D01*
X00392082Y00422250D01*
X00392470Y00420299D01*
X00393575Y00418645D01*
X00393882Y00418440D01*
Y00417170D01*
X00393575Y00416965D01*
X00392470Y00415311D01*
X00392082Y00413360D01*
X00392470Y00411409D01*
X00393575Y00409755D01*
X00395229Y00408650D01*
X00397180Y00408262D01*
X00399131Y00408650D01*
X00399252Y00408731D01*
X00462573D01*
X00468463Y00402840D01*
X00468282Y00401930D01*
X00468670Y00399979D01*
X00469775Y00398325D01*
X00471429Y00397220D01*
X00473380Y00396832D01*
X00475331Y00397220D01*
X00476985Y00398325D01*
X00478090Y00399979D01*
X00478478Y00401930D01*
X00478090Y00403881D01*
X00478009Y00404002D01*
Y00404470D01*
X00478009Y00404470D01*
X00477657Y00406241D01*
X00476653Y00407743D01*
X00476653Y00407743D01*
X00467763Y00416633D01*
X00466261Y00417637D01*
X00464490Y00417989D01*
X00464490Y00417989D01*
X00425264D01*
X00424865Y00419259D01*
X00434548Y00428942D01*
X00434691Y00428970D01*
X00436345Y00430075D01*
X00437450Y00431729D01*
X00437838Y00433680D01*
X00437450Y00435631D01*
X00436345Y00437285D01*
X00434691Y00438390D01*
X00434290Y00438470D01*
X00433921Y00439685D01*
X00478911Y00484675D01*
X00479859Y00484419D01*
X00480181Y00484193D01*
Y00399390D01*
X00480181Y00399390D01*
X00480533Y00397619D01*
X00481537Y00396117D01*
X00486327Y00391327D01*
X00486327Y00391327D01*
X00487829Y00390323D01*
X00489600Y00389971D01*
X00489600Y00389971D01*
X00491235D01*
X00491302Y00389809D01*
X00492825Y00387825D01*
X00494809Y00386302D01*
X00497120Y00385345D01*
X00499600Y00385018D01*
X00502080Y00385345D01*
X00504391Y00386302D01*
X00506375Y00387825D01*
X00507898Y00389809D01*
X00508855Y00392120D01*
X00509182Y00394600D01*
X00508855Y00397080D01*
X00507898Y00399391D01*
X00506375Y00401375D01*
X00504391Y00402898D01*
X00502080Y00403856D01*
X00499600Y00404182D01*
X00497120Y00403856D01*
X00494809Y00402898D01*
X00492825Y00401375D01*
X00491911Y00400185D01*
X00490644Y00400102D01*
X00489439Y00401307D01*
Y00416388D01*
X00490709Y00416640D01*
X00491302Y00415209D01*
X00492825Y00413224D01*
X00494809Y00411702D01*
X00497120Y00410745D01*
X00499600Y00410418D01*
X00502080Y00410745D01*
X00504391Y00411702D01*
X00506375Y00413224D01*
X00507898Y00415209D01*
X00508855Y00417520D01*
X00509182Y00420000D01*
X00508855Y00422480D01*
X00507898Y00424791D01*
X00506375Y00426775D01*
X00504391Y00428298D01*
X00502080Y00429255D01*
X00499600Y00429582D01*
X00497120Y00429255D01*
X00494809Y00428298D01*
X00492825Y00426775D01*
X00491302Y00424791D01*
X00490709Y00423360D01*
X00489439Y00423612D01*
Y00441788D01*
X00490709Y00442040D01*
X00491302Y00440609D01*
X00492825Y00438624D01*
X00494809Y00437102D01*
X00497120Y00436144D01*
X00499600Y00435818D01*
X00502080Y00436144D01*
X00504391Y00437102D01*
X00506375Y00438624D01*
X00507898Y00440609D01*
X00508855Y00442920D01*
X00509182Y00445400D01*
X00508855Y00447880D01*
X00507898Y00450191D01*
X00506375Y00452175D01*
X00504391Y00453698D01*
X00502080Y00454655D01*
X00499600Y00454982D01*
X00497120Y00454655D01*
X00494809Y00453698D01*
X00492825Y00452175D01*
X00491302Y00450191D01*
X00490709Y00448760D01*
X00489439Y00449012D01*
Y00531938D01*
X00489520Y00532059D01*
X00489908Y00534010D01*
X00489520Y00535961D01*
X00488415Y00537615D01*
X00486761Y00538720D01*
X00485428Y00538985D01*
X00484986Y00540339D01*
X00487193Y00542547D01*
X00487193Y00542547D01*
X00488197Y00544049D01*
X00488549Y00545820D01*
X00488549Y00545820D01*
Y00612403D01*
X00496958Y00620812D01*
X00497120Y00620745D01*
X00499600Y00620418D01*
X00502080Y00620745D01*
X00504391Y00621702D01*
X00506375Y00623225D01*
X00506851Y00623844D01*
X00508121Y00623413D01*
Y00619667D01*
X00502242Y00613788D01*
X00502080Y00613856D01*
X00499600Y00614182D01*
X00497120Y00613856D01*
X00494809Y00612898D01*
X00492825Y00611376D01*
X00491302Y00609391D01*
X00490345Y00607080D01*
X00490018Y00604600D01*
X00490345Y00602120D01*
X00491302Y00599809D01*
X00492825Y00597825D01*
X00494809Y00596302D01*
X00497120Y00595345D01*
X00499600Y00595018D01*
X00502080Y00595345D01*
X00504391Y00596302D01*
X00506375Y00597825D01*
X00507898Y00599809D01*
X00508855Y00602120D01*
X00509182Y00604600D01*
X00508855Y00607080D01*
X00508788Y00607242D01*
X00516023Y00614477D01*
X00516023Y00614477D01*
X00517027Y00615979D01*
X00517379Y00617750D01*
Y00621592D01*
X00518649Y00622218D01*
X00519937Y00621230D01*
X00520000Y00621204D01*
Y00630000D01*
Y00638796D01*
X00519937Y00638770D01*
X00518649Y00637782D01*
X00517379Y00638408D01*
Y00647742D01*
X00518649Y00648299D01*
X00520209Y00647102D01*
X00522520Y00646145D01*
X00525000Y00645818D01*
X00527480Y00646145D01*
X00529791Y00647102D01*
X00531775Y00648625D01*
X00533298Y00650609D01*
X00534255Y00652920D01*
X00534582Y00655400D01*
Y00763800D01*
X00534500Y00764423D01*
Y00773300D01*
X00525623D01*
X00525000Y00773382D01*
X00524377Y00773300D01*
X00517379D01*
Y00780792D01*
X00518649Y00781418D01*
X00519937Y00780430D01*
X00520000Y00780404D01*
Y00789200D01*
Y00797996D01*
X00519937Y00797970D01*
X00518649Y00796982D01*
X00517379Y00797608D01*
Y00806943D01*
X00518649Y00807499D01*
X00520209Y00806302D01*
X00522520Y00805344D01*
X00525000Y00805018D01*
X00527480Y00805344D01*
X00529791Y00806302D01*
X00531775Y00807824D01*
X00533298Y00809809D01*
X00534255Y00812120D01*
X00534582Y00814600D01*
X00534255Y00817080D01*
X00533298Y00819391D01*
X00531775Y00821375D01*
X00529791Y00822898D01*
X00527480Y00823856D01*
X00525000Y00824182D01*
X00522520Y00823856D01*
X00520209Y00822898D01*
X00518649Y00821701D01*
X00517379Y00822258D01*
Y00831592D01*
X00518649Y00832218D01*
X00519937Y00831230D01*
X00520000Y00831204D01*
Y00840000D01*
Y00848796D01*
X00519937Y00848770D01*
X00518649Y00847782D01*
X00517379Y00848408D01*
Y00857742D01*
X00518649Y00858299D01*
X00520209Y00857102D01*
X00522520Y00856144D01*
X00525000Y00855818D01*
X00527480Y00856144D01*
X00529791Y00857102D01*
X00531775Y00858624D01*
X00533298Y00860609D01*
X00534255Y00862920D01*
X00534582Y00865400D01*
Y00973800D01*
X00534500Y00974423D01*
Y00983300D01*
X00525623D01*
X00525000Y00983382D01*
D02*
G37*
G36*
X00530000Y00848796D02*
Y00845000D01*
X00533796D01*
X00533770Y00845063D01*
X00532161Y00847161D01*
X00530063Y00848770D01*
X00530000Y00848796D01*
D02*
G37*
G36*
X00180000Y00772596D02*
Y00768800D01*
X00183796D01*
X00183770Y00768863D01*
X00182161Y00770961D01*
X00180063Y00772570D01*
X00180000Y00772596D01*
D02*
G37*
G36*
X00170000D02*
X00169937Y00772570D01*
X00167839Y00770961D01*
X00166230Y00768863D01*
X00166204Y00768800D01*
X00170000D01*
Y00772596D01*
D02*
G37*
G36*
X00183796Y00758800D02*
X00180000D01*
Y00755004D01*
X00180063Y00755030D01*
X00182161Y00756639D01*
X00183770Y00758737D01*
X00183796Y00758800D01*
D02*
G37*
G36*
X00175000Y00798782D02*
X00172520Y00798455D01*
X00170209Y00797498D01*
X00168225Y00795975D01*
X00166702Y00793991D01*
X00165745Y00791680D01*
X00165418Y00789200D01*
X00165745Y00786720D01*
X00166702Y00784409D01*
X00168225Y00782424D01*
X00170209Y00780902D01*
X00172520Y00779945D01*
X00175000Y00779618D01*
X00177480Y00779945D01*
X00179791Y00780902D01*
X00181775Y00782424D01*
X00183298Y00784409D01*
X00184256Y00786720D01*
X00184582Y00789200D01*
X00184256Y00791680D01*
X00183298Y00793991D01*
X00181775Y00795975D01*
X00179791Y00797498D01*
X00177480Y00798455D01*
X00175000Y00798782D01*
D02*
G37*
G36*
X00170000Y00809600D02*
X00166204D01*
X00166230Y00809537D01*
X00167839Y00807439D01*
X00169937Y00805830D01*
X00170000Y00805804D01*
Y00809600D01*
D02*
G37*
G36*
X00530000Y00797996D02*
Y00794200D01*
X00533796D01*
X00533770Y00794263D01*
X00532161Y00796361D01*
X00530063Y00797970D01*
X00530000Y00797996D01*
D02*
G37*
G36*
X00533796Y00784200D02*
X00530000D01*
Y00780404D01*
X00530063Y00780430D01*
X00532161Y00782039D01*
X00533770Y00784137D01*
X00533796Y00784200D01*
D02*
G37*
G36*
X00520000Y01007996D02*
X00519937Y01007970D01*
X00517839Y01006361D01*
X00516230Y01004263D01*
X00516204Y01004200D01*
X00520000D01*
Y01007996D01*
D02*
G37*
G36*
X00296686Y01018368D02*
X00296686Y01018368D01*
X00233975D01*
X00232414Y01018058D01*
X00231091Y01017174D01*
X00231091Y01017174D01*
X00217195Y01003278D01*
X00208993D01*
X00208698Y01003991D01*
X00207176Y01005975D01*
X00205191Y01007498D01*
X00202880Y01008455D01*
X00200400Y01008782D01*
X00197920Y01008455D01*
X00195609Y01007498D01*
X00193625Y01005975D01*
X00192102Y01003991D01*
X00191145Y01001680D01*
X00190818Y00999200D01*
X00191145Y00996720D01*
X00192102Y00994409D01*
X00193625Y00992424D01*
X00195609Y00990902D01*
X00197920Y00989945D01*
X00200400Y00989618D01*
X00202880Y00989945D01*
X00205191Y00990902D01*
X00207176Y00992424D01*
X00208698Y00994409D01*
X00208993Y00995122D01*
X00215865D01*
X00216351Y00993948D01*
X00209511Y00987109D01*
X00208627Y00985786D01*
X00208317Y00984225D01*
X00208317Y00984225D01*
Y00980963D01*
X00208179Y00980916D01*
X00207047Y00980674D01*
X00205191Y00982098D01*
X00202880Y00983055D01*
X00200400Y00983382D01*
X00197920Y00983055D01*
X00195609Y00982098D01*
X00193625Y00980575D01*
X00192102Y00978591D01*
X00191145Y00976280D01*
X00190818Y00973800D01*
X00191145Y00971320D01*
X00192102Y00969009D01*
X00193625Y00967025D01*
X00195609Y00965502D01*
X00197920Y00964545D01*
X00200400Y00964218D01*
X00202880Y00964545D01*
X00205191Y00965502D01*
X00207047Y00966926D01*
X00208179Y00966684D01*
X00208317Y00966637D01*
Y00955563D01*
X00208179Y00955516D01*
X00207047Y00955274D01*
X00205191Y00956698D01*
X00202880Y00957655D01*
X00200400Y00957982D01*
X00197920Y00957655D01*
X00195609Y00956698D01*
X00193625Y00955175D01*
X00192102Y00953191D01*
X00191145Y00950880D01*
X00190818Y00948400D01*
X00191145Y00945920D01*
X00192102Y00943609D01*
X00193625Y00941625D01*
X00195609Y00940102D01*
X00197920Y00939145D01*
X00200400Y00938818D01*
X00202880Y00939145D01*
X00205191Y00940102D01*
X00207047Y00941526D01*
X00208179Y00941284D01*
X00208317Y00941237D01*
Y00930034D01*
X00203648Y00925366D01*
X00202563Y00926077D01*
X00202888Y00927710D01*
X00202500Y00929661D01*
X00201395Y00931315D01*
X00199741Y00932420D01*
X00197790Y00932808D01*
X00195839Y00932420D01*
X00194894Y00931788D01*
X00191701D01*
X00191700Y00931788D01*
X00190140Y00931478D01*
X00188817Y00930594D01*
X00184965Y00926742D01*
X00183792Y00927228D01*
Y00944801D01*
X00184256Y00945920D01*
X00184582Y00948400D01*
X00184256Y00950880D01*
X00183298Y00953191D01*
X00181775Y00955175D01*
X00179791Y00956698D01*
X00177480Y00957655D01*
X00175000Y00957982D01*
X00172520Y00957655D01*
X00170209Y00956698D01*
X00168225Y00955175D01*
X00167435Y00954385D01*
X00165912Y00952401D01*
X00164955Y00950090D01*
X00164628Y00947610D01*
Y00840790D01*
X00164955Y00838310D01*
X00165500Y00836993D01*
Y00830500D01*
X00174377D01*
X00175000Y00830418D01*
X00175623Y00830500D01*
X00182422D01*
Y00828500D01*
X00182422Y00828500D01*
X00182732Y00826939D01*
X00183616Y00825616D01*
X00191440Y00817793D01*
X00191145Y00817080D01*
X00190818Y00814600D01*
X00191145Y00812120D01*
X00192102Y00809809D01*
X00193625Y00807824D01*
X00195609Y00806302D01*
X00197920Y00805344D01*
X00200400Y00805018D01*
X00202880Y00805344D01*
X00205191Y00806302D01*
X00206941Y00807645D01*
X00208211Y00807272D01*
Y00801130D01*
X00204758Y00797677D01*
X00202880Y00798455D01*
X00200400Y00798782D01*
X00197920Y00798455D01*
X00195609Y00797498D01*
X00193625Y00795975D01*
X00192102Y00793991D01*
X00191145Y00791680D01*
X00190818Y00789200D01*
X00191145Y00786720D01*
X00192102Y00784409D01*
X00193625Y00782424D01*
X00195609Y00780902D01*
X00197920Y00779945D01*
X00200400Y00779618D01*
X00202880Y00779945D01*
X00205191Y00780902D01*
X00207021Y00782306D01*
X00208291Y00782010D01*
Y00770990D01*
X00207021Y00770694D01*
X00205191Y00772098D01*
X00202880Y00773055D01*
X00200400Y00773382D01*
X00197920Y00773055D01*
X00195609Y00772098D01*
X00193625Y00770575D01*
X00192102Y00768591D01*
X00191145Y00766280D01*
X00190818Y00763800D01*
X00191145Y00761320D01*
X00192102Y00759009D01*
X00193625Y00757025D01*
X00195609Y00755502D01*
X00197920Y00754545D01*
X00200400Y00754218D01*
X00202880Y00754545D01*
X00205191Y00755502D01*
X00207021Y00756906D01*
X00208291Y00756610D01*
Y00745590D01*
X00207021Y00745294D01*
X00205191Y00746698D01*
X00202880Y00747655D01*
X00200400Y00747982D01*
X00197920Y00747655D01*
X00195609Y00746698D01*
X00193625Y00745175D01*
X00192102Y00743191D01*
X00191145Y00740880D01*
X00190818Y00738400D01*
X00191145Y00735920D01*
X00192102Y00733609D01*
X00193625Y00731625D01*
X00195609Y00730102D01*
X00197920Y00729145D01*
X00200400Y00728818D01*
X00202880Y00729145D01*
X00205191Y00730102D01*
X00207021Y00731506D01*
X00208291Y00731210D01*
Y00710930D01*
X00194757Y00697396D01*
X00193753Y00695894D01*
X00193401Y00694123D01*
X00193401Y00694122D01*
Y00654277D01*
X00185755Y00646632D01*
X00184582Y00647118D01*
Y00738400D01*
X00184256Y00740880D01*
X00183298Y00743191D01*
X00181775Y00745175D01*
X00179791Y00746698D01*
X00177480Y00747655D01*
X00175000Y00747982D01*
X00172520Y00747655D01*
X00170209Y00746698D01*
X00168225Y00745175D01*
X00166702Y00743191D01*
X00165745Y00740880D01*
X00165418Y00738400D01*
Y00630000D01*
X00165500Y00629377D01*
Y00620500D01*
X00174377D01*
X00175000Y00620418D01*
X00175623Y00620500D01*
X00183001D01*
Y00612652D01*
X00181731Y00612090D01*
X00180063Y00613370D01*
X00180000Y00613396D01*
Y00604600D01*
Y00595804D01*
X00180063Y00595830D01*
X00181731Y00597110D01*
X00183001Y00596548D01*
Y00586354D01*
X00182188Y00586078D01*
X00181731Y00586009D01*
X00179791Y00587498D01*
X00177480Y00588455D01*
X00175000Y00588782D01*
X00172520Y00588455D01*
X00170209Y00587498D01*
X00168225Y00585975D01*
X00166702Y00583991D01*
X00165745Y00581680D01*
X00165418Y00579200D01*
X00165745Y00576720D01*
X00166702Y00574409D01*
X00168225Y00572425D01*
X00170209Y00570902D01*
X00172520Y00569944D01*
X00175000Y00569618D01*
X00177480Y00569944D01*
X00179791Y00570902D01*
X00181731Y00572390D01*
X00182188Y00572322D01*
X00183001Y00572046D01*
Y00561852D01*
X00181731Y00561290D01*
X00180063Y00562570D01*
X00180000Y00562596D01*
Y00553800D01*
Y00545004D01*
X00180063Y00545030D01*
X00181731Y00546310D01*
X00183001Y00545748D01*
Y00535554D01*
X00182188Y00535278D01*
X00181731Y00535210D01*
X00179791Y00536698D01*
X00177480Y00537655D01*
X00175000Y00537982D01*
X00172520Y00537655D01*
X00170209Y00536698D01*
X00168225Y00535175D01*
X00166702Y00533191D01*
X00165745Y00530880D01*
X00165418Y00528400D01*
Y00420000D01*
X00165500Y00419377D01*
Y00410500D01*
X00174377D01*
X00175000Y00410418D01*
X00175623Y00410500D01*
X00183001D01*
Y00402652D01*
X00181731Y00402090D01*
X00180063Y00403370D01*
X00180000Y00403396D01*
Y00394600D01*
Y00385804D01*
X00180063Y00385830D01*
X00181731Y00387110D01*
X00183001Y00386548D01*
Y00381970D01*
X00183001Y00381970D01*
X00183353Y00380199D01*
X00184357Y00378697D01*
X00191212Y00371842D01*
X00191145Y00371680D01*
X00190818Y00369200D01*
X00191145Y00366720D01*
X00192102Y00364409D01*
X00193625Y00362425D01*
X00195609Y00360902D01*
X00197920Y00359944D01*
X00200400Y00359618D01*
X00202880Y00359944D01*
X00205191Y00360902D01*
X00207176Y00362425D01*
X00208698Y00364409D01*
X00209655Y00366720D01*
X00209982Y00369200D01*
X00209655Y00371680D01*
X00208698Y00373991D01*
X00207176Y00375975D01*
X00205191Y00377498D01*
X00202880Y00378456D01*
X00200400Y00378782D01*
X00197920Y00378456D01*
X00197758Y00378388D01*
X00192259Y00383887D01*
Y00387629D01*
X00193462Y00388037D01*
X00193625Y00387825D01*
X00195609Y00386302D01*
X00197920Y00385345D01*
X00200400Y00385018D01*
X00202880Y00385345D01*
X00205191Y00386302D01*
X00207176Y00387825D01*
X00208698Y00389809D01*
X00208813Y00390085D01*
X00210011Y00390323D01*
X00211513Y00391327D01*
X00218843Y00398657D01*
X00219847Y00400159D01*
X00220199Y00401930D01*
X00220199Y00401930D01*
Y00427330D01*
X00220199Y00427330D01*
X00219847Y00429101D01*
X00218843Y00430603D01*
X00218843Y00430603D01*
X00212609Y00436837D01*
Y00477373D01*
X00212660Y00477449D01*
X00213048Y00479400D01*
X00212660Y00481351D01*
X00211555Y00483005D01*
X00209901Y00484110D01*
X00207950Y00484498D01*
X00206299Y00484170D01*
X00205029Y00484873D01*
Y00490133D01*
X00205040Y00490149D01*
X00205428Y00492100D01*
X00205040Y00494051D01*
X00203935Y00495705D01*
X00202281Y00496810D01*
X00200330Y00497198D01*
X00198379Y00496810D01*
X00196725Y00495705D01*
X00195620Y00494051D01*
X00195232Y00492100D01*
X00195620Y00490149D01*
X00195771Y00489923D01*
Y00428365D01*
X00195609Y00428298D01*
X00193625Y00426775D01*
X00193462Y00426563D01*
X00192259Y00426971D01*
Y00521429D01*
X00193462Y00521837D01*
X00193625Y00521624D01*
X00195609Y00520102D01*
X00197920Y00519145D01*
X00200400Y00518818D01*
X00202880Y00519145D01*
X00203367Y00519346D01*
X00214751Y00507963D01*
Y00499720D01*
X00214751Y00499720D01*
X00215103Y00497949D01*
X00216107Y00496447D01*
X00264904Y00447650D01*
X00258017Y00440763D01*
X00257013Y00439261D01*
X00256661Y00437490D01*
X00256661Y00437490D01*
Y00415900D01*
X00256661Y00415900D01*
X00257013Y00414129D01*
X00258017Y00412627D01*
X00264172Y00406472D01*
X00264200Y00406329D01*
X00265305Y00404675D01*
X00266959Y00403570D01*
X00268910Y00403182D01*
X00270861Y00403570D01*
X00272515Y00404675D01*
X00273620Y00406329D01*
X00274008Y00408280D01*
X00273620Y00410231D01*
X00272515Y00411885D01*
X00270861Y00412990D01*
X00270718Y00413018D01*
X00265919Y00417817D01*
Y00435573D01*
X00271450Y00441104D01*
X00275277Y00437277D01*
X00274651Y00436106D01*
X00273990Y00436238D01*
X00272039Y00435850D01*
X00270385Y00434745D01*
X00269280Y00433091D01*
X00268892Y00431140D01*
X00269280Y00429189D01*
X00270385Y00427535D01*
X00272039Y00426430D01*
X00272182Y00426402D01*
X00294652Y00403932D01*
X00294680Y00403789D01*
X00295785Y00402135D01*
X00297439Y00401030D01*
X00299390Y00400642D01*
X00301341Y00401030D01*
X00302995Y00402135D01*
X00304100Y00403789D01*
X00304488Y00405740D01*
X00304100Y00407691D01*
X00302995Y00409345D01*
X00301341Y00410450D01*
X00301198Y00410478D01*
X00300058Y00411619D01*
X00300683Y00412789D01*
X00301930Y00412541D01*
X00322250D01*
X00322250Y00412541D01*
X00324021Y00412893D01*
X00325523Y00413897D01*
X00331873Y00420247D01*
X00331873Y00420247D01*
X00332877Y00421749D01*
X00333229Y00423520D01*
Y00429068D01*
X00333310Y00429189D01*
X00333698Y00431140D01*
X00333310Y00433091D01*
X00332205Y00434745D01*
X00330551Y00435850D01*
X00328600Y00436238D01*
X00326649Y00435850D01*
X00324995Y00434745D01*
X00323890Y00433091D01*
X00323502Y00431140D01*
X00323890Y00429189D01*
X00323971Y00429068D01*
Y00425437D01*
X00320333Y00421799D01*
X00303847D01*
X00274723Y00450923D01*
X00274723Y00450923D01*
X00226983Y00498663D01*
X00227609Y00499834D01*
X00228270Y00499702D01*
X00230221Y00500090D01*
X00231875Y00501195D01*
X00232980Y00502849D01*
X00233368Y00504800D01*
X00232980Y00506751D01*
X00232899Y00506872D01*
Y00525930D01*
X00232547Y00527701D01*
X00231543Y00529203D01*
X00231543Y00529203D01*
X00209588Y00551158D01*
X00209655Y00551320D01*
X00209982Y00553800D01*
X00209655Y00556280D01*
X00208698Y00558591D01*
X00207176Y00560575D01*
X00205191Y00562098D01*
X00202880Y00563055D01*
X00200400Y00563382D01*
X00197920Y00563055D01*
X00195609Y00562098D01*
X00193625Y00560575D01*
X00193462Y00560363D01*
X00192259Y00560771D01*
Y00572229D01*
X00193462Y00572637D01*
X00193625Y00572425D01*
X00195609Y00570902D01*
X00197920Y00569944D01*
X00200400Y00569618D01*
X00202880Y00569944D01*
X00205191Y00570902D01*
X00207176Y00572425D01*
X00208698Y00574409D01*
X00209655Y00576720D01*
X00209982Y00579200D01*
X00209655Y00581680D01*
X00209588Y00581842D01*
X00212043Y00584296D01*
X00217267Y00586583D01*
X00218315Y00585015D01*
X00219969Y00583910D01*
X00220327Y00582544D01*
X00219750Y00581681D01*
X00219362Y00579730D01*
X00219750Y00577779D01*
X00220855Y00576125D01*
X00222509Y00575020D01*
X00224460Y00574632D01*
X00226411Y00575020D01*
X00227451Y00575715D01*
X00228721Y00575036D01*
Y00557672D01*
X00228640Y00557551D01*
X00228252Y00555600D01*
X00228640Y00553649D01*
X00229745Y00551995D01*
X00231399Y00550890D01*
X00233350Y00550502D01*
X00235301Y00550890D01*
X00235731Y00551177D01*
X00236851Y00550579D01*
Y00530960D01*
X00236851Y00530960D01*
X00237203Y00529189D01*
X00238207Y00527687D01*
X00243852Y00522042D01*
X00243880Y00521899D01*
X00244985Y00520245D01*
X00246639Y00519140D01*
X00248590Y00518752D01*
X00250541Y00519140D01*
X00252195Y00520245D01*
X00253300Y00521899D01*
X00253688Y00523850D01*
X00253300Y00525801D01*
X00252195Y00527455D01*
X00250541Y00528560D01*
X00250398Y00528588D01*
X00246109Y00532877D01*
Y00553059D01*
X00247229Y00553657D01*
X00247569Y00553430D01*
X00249520Y00553042D01*
X00251471Y00553430D01*
X00253125Y00554535D01*
X00254230Y00556189D01*
X00254618Y00558140D01*
X00254230Y00560091D01*
X00254149Y00560212D01*
Y00563435D01*
X00254783Y00563639D01*
X00255419Y00563646D01*
X00256415Y00562155D01*
X00258069Y00561050D01*
X00260020Y00560662D01*
X00260851Y00559980D01*
Y00529957D01*
X00260752Y00529858D01*
X00260609Y00529830D01*
X00258955Y00528725D01*
X00257850Y00527071D01*
X00257462Y00525120D01*
X00257850Y00523169D01*
X00258955Y00521515D01*
X00260609Y00520410D01*
X00262560Y00520022D01*
X00264511Y00520410D01*
X00266165Y00521515D01*
X00267270Y00523169D01*
X00267298Y00523312D01*
X00268753Y00524767D01*
X00269757Y00526269D01*
X00270109Y00528040D01*
X00270109Y00528040D01*
Y00587973D01*
X00279103Y00596967D01*
X00279103Y00596967D01*
X00280107Y00598469D01*
X00280459Y00600240D01*
X00280459Y00600240D01*
Y00673140D01*
X00280459Y00673140D01*
X00280107Y00674911D01*
X00279103Y00676413D01*
X00279103Y00676413D01*
X00270109Y00685407D01*
Y00695919D01*
X00271379Y00696445D01*
X00277794Y00690029D01*
X00277823Y00689886D01*
X00278928Y00688232D01*
X00280582Y00687127D01*
X00282533Y00686739D01*
X00284484Y00687127D01*
X00286138Y00688232D01*
X00287243Y00689886D01*
X00287631Y00691837D01*
X00287243Y00693788D01*
X00286138Y00695442D01*
X00284484Y00696547D01*
X00284341Y00696575D01*
X00278199Y00702717D01*
Y00704466D01*
X00279469Y00704865D01*
X00285762Y00698572D01*
X00285790Y00698429D01*
X00286895Y00696775D01*
X00288549Y00695670D01*
X00290500Y00695282D01*
X00292451Y00695670D01*
X00294105Y00696775D01*
X00295210Y00698429D01*
X00295598Y00700380D01*
X00295210Y00702331D01*
X00294105Y00703985D01*
X00292451Y00705090D01*
X00292308Y00705118D01*
X00287089Y00710337D01*
Y00723239D01*
X00288209Y00723837D01*
X00288549Y00723610D01*
X00290500Y00723222D01*
X00292451Y00723610D01*
X00293491Y00724305D01*
X00294761Y00723626D01*
Y00718160D01*
X00294761Y00718160D01*
X00295113Y00716389D01*
X00296117Y00714887D01*
X00316242Y00694762D01*
X00316270Y00694619D01*
X00317375Y00692965D01*
X00319029Y00691860D01*
X00320980Y00691472D01*
X00322931Y00691860D01*
X00324585Y00692965D01*
X00325690Y00694619D01*
X00326078Y00696570D01*
X00325690Y00698521D01*
X00324585Y00700175D01*
X00322931Y00701280D01*
X00322788Y00701308D01*
X00304019Y00720077D01*
Y00756728D01*
X00304100Y00756849D01*
X00304488Y00758800D01*
X00304100Y00760751D01*
X00302995Y00762405D01*
X00302048Y00763037D01*
X00301825Y00764610D01*
X00302503Y00765288D01*
X00302503Y00765289D01*
X00303507Y00766790D01*
X00303859Y00768562D01*
X00303859Y00768562D01*
Y00781273D01*
X00306473Y00783887D01*
X00306473Y00783887D01*
X00307477Y00785389D01*
X00307829Y00787160D01*
X00307829Y00787160D01*
Y00874868D01*
X00307910Y00874989D01*
X00308298Y00876940D01*
X00307910Y00878891D01*
X00306805Y00880545D01*
X00305151Y00881650D01*
X00303200Y00882038D01*
X00301249Y00881650D01*
X00299595Y00880545D01*
X00298490Y00878891D01*
X00298102Y00876940D01*
X00298490Y00874989D01*
X00298571Y00874868D01*
Y00872948D01*
X00297301Y00872563D01*
X00296645Y00873545D01*
X00294991Y00874650D01*
X00293040Y00875038D01*
X00291089Y00874650D01*
X00289435Y00873545D01*
X00288330Y00871891D01*
X00287942Y00869940D01*
X00288119Y00869048D01*
X00287039Y00867969D01*
X00286690Y00868038D01*
X00285049Y00867711D01*
X00283779Y00868419D01*
Y00908309D01*
X00284431Y00908731D01*
X00285017Y00908867D01*
X00339694Y00854190D01*
X00338885Y00853203D01*
X00338171Y00853680D01*
X00336220Y00854068D01*
X00334269Y00853680D01*
X00332615Y00852575D01*
X00331510Y00850921D01*
X00331122Y00848970D01*
X00331510Y00847019D01*
X00331591Y00846898D01*
Y00829101D01*
X00330647Y00828157D01*
X00329643Y00826655D01*
X00329291Y00824884D01*
X00329291Y00824883D01*
Y00783960D01*
X00329291Y00783960D01*
X00329643Y00782189D01*
X00330150Y00781430D01*
X00330240Y00780979D01*
X00331345Y00779325D01*
X00332999Y00778220D01*
X00334950Y00777832D01*
X00336901Y00778220D01*
X00338555Y00779325D01*
X00339660Y00780979D01*
X00339750Y00781430D01*
X00340965Y00781799D01*
X00345452Y00777312D01*
X00345480Y00777169D01*
X00346585Y00775515D01*
X00348239Y00774410D01*
X00350190Y00774022D01*
X00352141Y00774410D01*
X00353795Y00775515D01*
X00354900Y00777169D01*
X00355288Y00779120D01*
X00354900Y00781071D01*
X00355480Y00781899D01*
X00356542Y00781137D01*
Y00691625D01*
X00356542Y00691625D01*
X00356852Y00690064D01*
X00357736Y00688741D01*
X00361132Y00685345D01*
Y00673505D01*
X00340956Y00653329D01*
X00340072Y00652006D01*
X00339762Y00650445D01*
X00339762Y00650445D01*
Y00647396D01*
X00339130Y00646451D01*
X00338742Y00644500D01*
X00339130Y00642549D01*
X00340235Y00640895D01*
X00341889Y00639790D01*
X00343840Y00639402D01*
X00345791Y00639790D01*
X00347445Y00640895D01*
X00348550Y00642549D01*
X00348938Y00644500D01*
X00348550Y00646451D01*
X00348330Y00646780D01*
X00348330Y00646780D01*
X00349782Y00646892D01*
X00350395Y00645975D01*
X00352049Y00644870D01*
X00354000Y00644482D01*
X00355951Y00644870D01*
X00357605Y00645975D01*
X00357893Y00646407D01*
X00359241Y00646139D01*
X00359450Y00645089D01*
X00360555Y00643435D01*
X00362209Y00642330D01*
X00363324Y00642108D01*
X00368972Y00636461D01*
Y00612836D01*
X00368017Y00611999D01*
X00366700Y00612172D01*
X00364220Y00611846D01*
X00361909Y00610888D01*
X00359925Y00609366D01*
X00358402Y00607381D01*
X00357444Y00605070D01*
X00357118Y00602590D01*
X00357444Y00600110D01*
X00358402Y00597799D01*
X00359075Y00596922D01*
X00351116Y00588964D01*
X00350232Y00587641D01*
X00349922Y00586080D01*
X00349922Y00586080D01*
Y00584422D01*
X00348719Y00584014D01*
X00348461Y00584351D01*
X00346363Y00585960D01*
X00346300Y00585986D01*
Y00577190D01*
Y00568394D01*
X00346363Y00568420D01*
X00348461Y00570029D01*
X00348789Y00570457D01*
X00349992Y00570049D01*
Y00561729D01*
X00343496Y00555234D01*
X00342612Y00553910D01*
X00342302Y00552350D01*
X00342302Y00552350D01*
Y00515939D01*
X00313016Y00486654D01*
X00312132Y00485330D01*
X00311822Y00483770D01*
X00311822Y00483770D01*
Y00474676D01*
X00311190Y00473731D01*
X00310802Y00471780D01*
X00311190Y00469829D01*
X00312295Y00468175D01*
X00313949Y00467070D01*
X00315900Y00466682D01*
X00317851Y00467070D01*
X00319505Y00468175D01*
X00320610Y00469829D01*
X00320998Y00471780D01*
X00320610Y00473731D01*
X00319978Y00474676D01*
Y00482080D01*
X00337281Y00499383D01*
X00338551Y00498857D01*
Y00480610D01*
X00338551Y00480610D01*
X00338862Y00479049D01*
X00339746Y00477726D01*
X00348576Y00468896D01*
X00348576Y00468896D01*
X00349899Y00468012D01*
X00351460Y00467702D01*
X00351460Y00467702D01*
X00359994D01*
X00360939Y00467070D01*
X00362890Y00466682D01*
X00364841Y00467070D01*
X00366495Y00468175D01*
X00367600Y00469829D01*
X00367988Y00471780D01*
X00367600Y00473731D01*
X00366495Y00475385D01*
X00364841Y00476490D01*
X00362890Y00476878D01*
X00360939Y00476490D01*
X00359994Y00475858D01*
X00353149D01*
X00346708Y00482300D01*
Y00498090D01*
X00356884Y00508266D01*
X00357768Y00509589D01*
X00358078Y00511150D01*
X00358078Y00511150D01*
Y00547561D01*
X00373394Y00562876D01*
X00373394Y00562876D01*
X00374278Y00564199D01*
X00374588Y00565760D01*
X00374588Y00565760D01*
Y00571865D01*
X00374998Y00572399D01*
X00375956Y00574710D01*
X00376282Y00577190D01*
X00376281Y00577194D01*
X00382284Y00583196D01*
X00382284Y00583196D01*
X00383168Y00584519D01*
X00383478Y00586080D01*
X00383478Y00586080D01*
Y00593090D01*
X00401600D01*
Y00612090D01*
X00394368D01*
Y00696100D01*
X00394058Y00697661D01*
X00393174Y00698984D01*
X00393174Y00698984D01*
X00390908Y00701250D01*
Y00711842D01*
X00392178Y00712521D01*
X00392689Y00712180D01*
X00394640Y00711792D01*
X00396591Y00712180D01*
X00398245Y00713285D01*
X00399350Y00714939D01*
X00399738Y00716890D01*
X00399350Y00718841D01*
X00398245Y00720495D01*
X00398079Y00720606D01*
Y00776674D01*
X00398245Y00776785D01*
X00399350Y00778439D01*
X00399738Y00780390D01*
X00399350Y00782341D01*
X00398245Y00783995D01*
X00397959Y00784186D01*
Y00801796D01*
X00401723Y00805560D01*
X00401723Y00805560D01*
X00402727Y00807062D01*
X00403079Y00808833D01*
X00403079Y00808833D01*
Y00835000D01*
X00402727Y00836771D01*
X00401723Y00838273D01*
X00400221Y00839277D01*
X00399592Y00839402D01*
X00399269Y00839618D01*
Y00876108D01*
X00399350Y00876229D01*
X00399738Y00878180D01*
X00399350Y00880131D01*
X00398245Y00881785D01*
X00396591Y00882890D01*
X00394640Y00883278D01*
X00392988Y00882949D01*
X00391718Y00883652D01*
Y00905455D01*
X00411165Y00924902D01*
X00424701D01*
X00426538Y00923064D01*
X00426760Y00921949D01*
X00427865Y00920295D01*
X00429519Y00919190D01*
X00431470Y00918802D01*
X00433421Y00919190D01*
X00435075Y00920295D01*
X00436180Y00921949D01*
X00436568Y00923900D01*
X00436180Y00925851D01*
X00435075Y00927505D01*
X00433421Y00928610D01*
X00432306Y00928832D01*
X00430396Y00930742D01*
X00431107Y00931827D01*
X00432740Y00931502D01*
X00434691Y00931890D01*
X00436345Y00932995D01*
X00437450Y00934649D01*
X00437838Y00936600D01*
X00437450Y00938551D01*
X00436345Y00940205D01*
X00434691Y00941310D01*
X00432740Y00941698D01*
X00430789Y00941310D01*
X00429844Y00940678D01*
X00408610D01*
X00408610Y00940678D01*
X00407049Y00940368D01*
X00405726Y00939484D01*
X00392922Y00926679D01*
X00391748Y00927165D01*
Y00934680D01*
X00391748Y00934680D01*
X00391438Y00936241D01*
X00390554Y00937564D01*
X00389412Y00938706D01*
X00389190Y00939821D01*
X00388085Y00941475D01*
X00386431Y00942580D01*
X00384480Y00942968D01*
X00382529Y00942580D01*
X00380875Y00941475D01*
X00380374Y00940725D01*
X00379195Y00940205D01*
X00378794Y00940472D01*
X00377541Y00941310D01*
X00375590Y00941698D01*
X00373639Y00941310D01*
X00371985Y00940205D01*
X00370880Y00938551D01*
X00370492Y00936600D01*
X00370880Y00934649D01*
X00371305Y00934013D01*
X00358736Y00921443D01*
X00357852Y00920120D01*
X00357542Y00918559D01*
X00357542Y00918559D01*
Y00861243D01*
X00356272Y00860717D01*
X00310321Y00906668D01*
X00310807Y00907841D01*
X00336688D01*
X00336809Y00907760D01*
X00338760Y00907372D01*
X00340711Y00907760D01*
X00342365Y00908865D01*
X00343470Y00910519D01*
X00343858Y00912470D01*
X00343470Y00914421D01*
X00342365Y00916075D01*
X00340711Y00917180D01*
X00338760Y00917568D01*
X00336809Y00917180D01*
X00336688Y00917099D01*
X00309903D01*
X00283699Y00943303D01*
Y00977708D01*
X00283780Y00977829D01*
X00284168Y00979780D01*
X00283780Y00981731D01*
X00282675Y00983385D01*
X00281021Y00984490D01*
X00279070Y00984878D01*
X00277119Y00984490D01*
X00275465Y00983385D01*
X00274360Y00981731D01*
X00273972Y00979780D01*
X00274360Y00977829D01*
X00274441Y00977708D01*
Y00944207D01*
X00273268Y00943721D01*
X00264649Y00952340D01*
Y00976438D01*
X00264730Y00976559D01*
X00265118Y00978510D01*
X00264730Y00980461D01*
X00263625Y00982115D01*
X00261971Y00983220D01*
X00260020Y00983608D01*
X00258069Y00983220D01*
X00257609Y00982913D01*
X00256489Y00983511D01*
Y00984130D01*
X00256137Y00985901D01*
X00255972Y00986148D01*
X00255840Y00986811D01*
X00254735Y00988465D01*
X00253081Y00989570D01*
X00251130Y00989958D01*
X00249179Y00989570D01*
X00247525Y00988465D01*
X00246420Y00986811D01*
X00246032Y00984860D01*
X00246420Y00982909D01*
X00247231Y00981695D01*
Y00967755D01*
X00246058Y00967269D01*
X00241898Y00971428D01*
X00241870Y00971571D01*
X00240765Y00973225D01*
X00239111Y00974330D01*
X00237160Y00974718D01*
X00235209Y00974330D01*
X00233555Y00973225D01*
X00232450Y00971571D01*
X00232062Y00969620D01*
X00232450Y00967669D01*
X00233555Y00966015D01*
X00235209Y00964910D01*
X00235352Y00964882D01*
X00239996Y00960238D01*
X00239883Y00959007D01*
X00238794Y00958453D01*
X00237841Y00959090D01*
X00235890Y00959478D01*
X00233939Y00959090D01*
X00232285Y00957985D01*
X00231180Y00956331D01*
X00230792Y00954380D01*
X00231180Y00952429D01*
X00232285Y00950775D01*
X00232531Y00950611D01*
Y00940557D01*
X00232531Y00940557D01*
X00232883Y00938786D01*
X00233887Y00937284D01*
X00267441Y00903730D01*
Y00856884D01*
X00267441Y00856884D01*
X00267793Y00855113D01*
X00267901Y00854952D01*
Y00805103D01*
X00267637Y00804838D01*
X00266633Y00803337D01*
X00266281Y00801565D01*
X00266281Y00801565D01*
Y00782951D01*
X00262012Y00778682D01*
X00260839Y00779168D01*
Y00868020D01*
X00260839Y00868020D01*
X00260487Y00869791D01*
X00259483Y00871293D01*
X00259483Y00871293D01*
X00246783Y00883993D01*
X00245281Y00884997D01*
X00243510Y00885349D01*
X00243510Y00885349D01*
X00241772D01*
X00241651Y00885430D01*
X00239700Y00885818D01*
X00238073Y00885494D01*
X00236839Y00886233D01*
X00236790Y00886481D01*
X00235685Y00888135D01*
X00234031Y00889240D01*
X00232080Y00889628D01*
X00230543Y00889322D01*
X00229624Y00890019D01*
X00229443Y00890300D01*
X00229558Y00890880D01*
X00229170Y00892831D01*
X00228065Y00894485D01*
X00226411Y00895590D01*
X00224460Y00895978D01*
X00222911Y00895670D01*
X00222083Y00896716D01*
X00222820Y00897819D01*
X00223208Y00899770D01*
X00222820Y00901721D01*
X00221715Y00903375D01*
X00220061Y00904480D01*
X00218110Y00904868D01*
X00216159Y00904480D01*
X00215488Y00904032D01*
X00214218Y00904711D01*
Y00907025D01*
X00227279Y00920086D01*
X00228163Y00921409D01*
X00228473Y00922970D01*
X00228473Y00922970D01*
Y00977565D01*
X00243120Y00992212D01*
X00287541D01*
X00305472Y00974281D01*
Y00949561D01*
X00305472Y00949560D01*
X00305782Y00948000D01*
X00306666Y00946677D01*
X00322817Y00930526D01*
X00322817Y00930526D01*
X00324140Y00929642D01*
X00325700Y00929332D01*
X00333092D01*
X00334950Y00928962D01*
X00336901Y00929350D01*
X00338555Y00930455D01*
X00339660Y00932109D01*
X00340048Y00934060D01*
X00339837Y00935119D01*
X00340030Y00935312D01*
X00341981Y00935700D01*
X00343635Y00936805D01*
X00344740Y00938459D01*
X00346106Y00938817D01*
X00346969Y00938240D01*
X00348920Y00937852D01*
X00350871Y00938240D01*
X00352525Y00939345D01*
X00353630Y00940999D01*
X00354018Y00942950D01*
X00353630Y00944901D01*
X00352525Y00946555D01*
X00350871Y00947660D01*
X00349756Y00947882D01*
X00331628Y00966009D01*
Y00983426D01*
X00331318Y00984986D01*
X00330434Y00986310D01*
X00330434Y00986310D01*
X00299570Y01017174D01*
X00298246Y01018058D01*
X00297988Y01018109D01*
X00296686Y01018368D01*
D02*
G37*
G36*
X00533796Y00994200D02*
X00530000D01*
Y00990404D01*
X00530063Y00990430D01*
X00532161Y00992039D01*
X00533770Y00994137D01*
X00533796Y00994200D01*
D02*
G37*
G36*
X00530000Y01007996D02*
Y01004200D01*
X00533796D01*
X00533770Y01004263D01*
X00532161Y01006361D01*
X00530063Y01007970D01*
X00530000Y01007996D01*
D02*
G37*
G36*
X00525000Y01034182D02*
X00522520Y01033856D01*
X00520209Y01032898D01*
X00518224Y01031376D01*
X00516702Y01029391D01*
X00515745Y01027080D01*
X00515418Y01024600D01*
X00515745Y01022120D01*
X00516702Y01019809D01*
X00518224Y01017825D01*
X00520209Y01016302D01*
X00522520Y01015345D01*
X00525000Y01015018D01*
X00527480Y01015345D01*
X00529791Y01016302D01*
X00531775Y01017825D01*
X00533298Y01019809D01*
X00534255Y01022120D01*
X00534582Y01024600D01*
X00534255Y01027080D01*
X00533298Y01029391D01*
X00531775Y01031376D01*
X00529791Y01032898D01*
X00527480Y01033856D01*
X00525000Y01034182D01*
D02*
G37*
G36*
X00499600D02*
X00497120Y01033856D01*
X00494809Y01032898D01*
X00492825Y01031376D01*
X00491302Y01029391D01*
X00490345Y01027080D01*
X00490018Y01024600D01*
X00490345Y01022120D01*
X00490640Y01021407D01*
X00480656Y01011424D01*
X00479772Y01010101D01*
X00479462Y01008540D01*
X00479462Y01008540D01*
Y00920446D01*
X00478830Y00919501D01*
X00478442Y00917550D01*
X00478830Y00915599D01*
X00479935Y00913945D01*
X00481589Y00912840D01*
X00483540Y00912452D01*
X00485491Y00912840D01*
X00487145Y00913945D01*
X00488250Y00915599D01*
X00488638Y00917550D01*
X00488250Y00919501D01*
X00487618Y00920446D01*
Y01006851D01*
X00496407Y01015640D01*
X00497120Y01015345D01*
X00499600Y01015018D01*
X00502080Y01015345D01*
X00504391Y01016302D01*
X00506375Y01017825D01*
X00507898Y01019809D01*
X00508855Y01022120D01*
X00509182Y01024600D01*
X00508855Y01027080D01*
X00507898Y01029391D01*
X00506375Y01031376D01*
X00504391Y01032898D01*
X00502080Y01033856D01*
X00499600Y01034182D01*
D02*
G37*
G36*
X00200400Y01034182D02*
X00197920Y01033855D01*
X00195609Y01032898D01*
X00193625Y01031375D01*
X00192102Y01029391D01*
X00191145Y01027080D01*
X00190818Y01024600D01*
X00191145Y01022120D01*
X00192102Y01019809D01*
X00193625Y01017824D01*
X00195609Y01016302D01*
X00197920Y01015344D01*
X00200400Y01015018D01*
X00202880Y01015344D01*
X00205191Y01016302D01*
X00207176Y01017824D01*
X00208698Y01019809D01*
X00209655Y01022120D01*
X00209982Y01024600D01*
X00209655Y01027080D01*
X00208698Y01029391D01*
X00207176Y01031375D01*
X00205191Y01032898D01*
X00202880Y01033855D01*
X00200400Y01034182D01*
D02*
G37*
G36*
X00170000Y00982596D02*
X00169937Y00982570D01*
X00167839Y00980961D01*
X00166230Y00978863D01*
X00166204Y00978800D01*
X00170000D01*
Y00982596D01*
D02*
G37*
G36*
X00183796Y00968800D02*
X00180000D01*
Y00965004D01*
X00180063Y00965030D01*
X00182161Y00966639D01*
X00183770Y00968737D01*
X00183796Y00968800D01*
D02*
G37*
G36*
X00170000D02*
X00166204D01*
X00166230Y00968737D01*
X00167839Y00966639D01*
X00169937Y00965030D01*
X00170000Y00965004D01*
Y00968800D01*
D02*
G37*
G36*
X00180000Y00982596D02*
Y00978800D01*
X00183796D01*
X00183770Y00978863D01*
X00182161Y00980961D01*
X00180063Y00982570D01*
X00180000Y00982596D01*
D02*
G37*
G36*
X00520000Y00994200D02*
X00516204D01*
X00516230Y00994137D01*
X00517839Y00992039D01*
X00519937Y00990430D01*
X00520000Y00990404D01*
Y00994200D01*
D02*
G37*
G36*
X00499600Y01008782D02*
X00497120Y01008456D01*
X00494809Y01007498D01*
X00492825Y01005975D01*
X00491302Y01003991D01*
X00490345Y01001680D01*
X00490018Y00999200D01*
X00490345Y00996720D01*
X00491302Y00994409D01*
X00492825Y00992425D01*
X00494809Y00990902D01*
X00497120Y00989945D01*
X00499600Y00989618D01*
X00502080Y00989945D01*
X00504391Y00990902D01*
X00506375Y00992425D01*
X00507898Y00994409D01*
X00508855Y00996720D01*
X00509182Y00999200D01*
X00508855Y01001680D01*
X00507898Y01003991D01*
X00506375Y01005975D01*
X00504391Y01007498D01*
X00502080Y01008456D01*
X00499600Y01008782D01*
D02*
G37*
G36*
X00175000Y01008782D02*
X00172520Y01008455D01*
X00170209Y01007498D01*
X00168225Y01005975D01*
X00166702Y01003991D01*
X00165745Y01001680D01*
X00165418Y00999200D01*
X00165745Y00996720D01*
X00166702Y00994409D01*
X00168225Y00992424D01*
X00170209Y00990902D01*
X00172520Y00989945D01*
X00175000Y00989618D01*
X00177480Y00989945D01*
X00179791Y00990902D01*
X00181775Y00992424D01*
X00183298Y00994409D01*
X00184256Y00996720D01*
X00184582Y00999200D01*
X00184256Y01001680D01*
X00183298Y01003991D01*
X00181775Y01005975D01*
X00179791Y01007498D01*
X00177480Y01008455D01*
X00175000Y01008782D01*
D02*
G37*
%LPD*%
D23*
X00153340Y01100430D02*
Y01102970D01*
X00144450Y01091540D02*
X00153340Y01100430D01*
X00150800Y01086460D02*
X00159690Y01095350D01*
X00298398Y01050900D02*
X00312080D01*
X00240970Y01102970D02*
X00246329D01*
X00298398Y01050900D01*
X00144450Y00887070D02*
Y01091540D01*
X00150800Y00873100D02*
Y01086460D01*
X00387030Y00334630D02*
Y00346050D01*
X00352730Y00300330D02*
X00387030Y00334630D01*
X00346855Y00294455D02*
X00352730Y00300330D01*
X00346855Y00294455D02*
X00359511Y00281800D01*
X00353224Y00275514D02*
X00359511Y00281800D01*
X00340569Y00288169D02*
X00353224Y00275514D01*
X00334283Y00281883D02*
X00340569Y00288169D01*
X00331140Y00278740D02*
X00334283Y00281883D01*
X00331140Y00253430D02*
Y00278740D01*
X00327240Y00249530D02*
X00331140Y00253430D01*
X00320980Y00249530D02*
X00327240D01*
X00367970Y00281280D02*
Y00304140D01*
X00328600Y00241910D02*
X00367970Y00281280D01*
X00388377Y00371363D02*
X00403530Y00356210D01*
Y00339700D02*
Y00356210D01*
X00367970Y00304140D02*
X00403530Y00339700D01*
X00313270Y01025500D02*
X00324780D01*
X00244780Y01093990D02*
X00313270Y01025500D01*
X00374243Y00371363D02*
X00374330Y00371450D01*
X00215660Y00240640D02*
X00221920D01*
X00144450Y00300330D02*
X00195250Y00249530D01*
X00150800Y00305500D02*
X00215660Y00240640D01*
X00136830Y00860400D02*
Y00873100D01*
Y00879450D01*
X00144450Y00887070D01*
Y00300330D02*
Y00852780D01*
X00136830Y00860400D02*
X00144450Y00852780D01*
X00146990Y00869290D02*
X00150800Y00873100D01*
Y00305500D02*
Y00859130D01*
X00146990Y00862940D02*
X00150800Y00859130D01*
X00146990Y00862940D02*
Y00864210D01*
Y00869290D01*
X00374243Y00371363D02*
X00388377D01*
D24*
X00346380Y00552350D02*
X00354070Y00560040D01*
X00354000Y00582023D02*
Y00586080D01*
Y00582023D02*
X00354070Y00581953D01*
Y00560040D02*
Y00581953D01*
X00383210Y00624180D02*
Y00694695D01*
X00483540Y00917550D02*
Y01008540D01*
X00409475Y00928980D02*
X00426390D01*
X00431470Y00923900D01*
X00309550Y00949560D02*
Y00975970D01*
Y00949560D02*
X00325700Y00933410D01*
X00334300D01*
X00334950Y00934060D01*
X00315550Y00953460D02*
X00328600Y00940410D01*
X00315550Y00953460D02*
Y00978455D01*
X00321550Y00958890D02*
X00340030Y00940410D01*
X00327550Y00964320D02*
X00348920Y00942950D01*
X00321550Y00958890D02*
Y00980940D01*
X00327550Y00964320D02*
Y00983426D01*
X00296686Y01014290D02*
X00327550Y00983426D01*
X00233975Y01014290D02*
X00296686D01*
X00218885Y00999200D02*
X00233975Y01014290D01*
X00294200Y01008290D02*
X00321550Y00980940D01*
X00236460Y01008290D02*
X00294200D01*
X00212395Y00984225D02*
X00236460Y01008290D01*
X00238945Y01002290D02*
X00291715D01*
X00218395Y00981740D02*
X00238945Y01002290D01*
X00291715D02*
X00315550Y00978455D01*
X00289230Y00996290D02*
X00309550Y00975970D01*
X00241430Y00996290D02*
X00289230D01*
X00224395Y00979255D02*
X00241430Y00996290D01*
X00200400Y00999200D02*
X00218885D01*
X00224395Y00922970D02*
Y00979255D01*
X00210140Y00908715D02*
X00224395Y00922970D01*
X00218395Y00925455D02*
Y00981740D01*
X00204140Y00911200D02*
X00218395Y00925455D01*
X00212395Y00928345D02*
Y00984225D01*
X00354000Y00549250D02*
X00370510Y00565760D01*
Y00577190D01*
X00351460Y00471780D02*
X00362890D01*
X00342630Y00480610D02*
X00351460Y00471780D01*
X00342630Y00480610D02*
Y00499780D01*
X00354000Y00511150D01*
Y00549250D01*
X00315900Y00483770D02*
X00346380Y00514250D01*
Y00552350D01*
X00315900Y00471780D02*
Y00483770D01*
X00364160Y00647040D02*
X00373050Y00638150D01*
X00390290Y00608210D02*
X00395910Y00602590D01*
X00373050Y00638150D02*
Y00638343D01*
X00354000Y00649580D02*
Y00652120D01*
X00343840Y00644500D02*
Y00650445D01*
X00390290Y00608210D02*
Y00696100D01*
X00373050Y00638343D02*
X00377210Y00642503D01*
Y00692210D01*
X00354000Y00652120D02*
X00371210Y00669330D01*
Y00689520D01*
X00365210Y00671815D02*
Y00687035D01*
X00343840Y00650445D02*
X00365210Y00671815D01*
X00386830Y00699560D02*
X00390290Y00696100D01*
X00386830Y00699560D02*
Y00744830D01*
X00386790Y00744870D02*
X00386830Y00744830D01*
X00380670Y00697235D02*
X00383210Y00694695D01*
X00374320Y00695100D02*
X00377210Y00692210D01*
X00360620Y00691625D02*
Y00790529D01*
Y00691625D02*
X00365210Y00687035D01*
X00366620Y00694110D02*
X00371210Y00689520D01*
X00366620Y00694110D02*
Y00793015D01*
X00380670Y00697235D02*
Y00796900D01*
X00386670Y00795750D02*
Y00799385D01*
Y00795750D02*
X00386790Y00795630D01*
Y00744870D02*
Y00795630D01*
X00374320Y00695100D02*
Y00793800D01*
X00483540Y01008540D02*
X00499600Y01024600D01*
X00380620Y00805435D02*
X00386670Y00799385D01*
X00374620Y00802950D02*
X00380670Y00796900D01*
X00368620Y00799500D02*
X00374320Y00793800D01*
X00354620Y00816310D02*
X00361620Y00823309D01*
Y00798015D02*
Y00813410D01*
Y00798015D02*
X00366620Y00793015D01*
X00354620Y00796529D02*
X00360620Y00790529D01*
X00354620Y00796529D02*
Y00816310D01*
X00387640Y00814060D02*
X00388290Y00813410D01*
X00186500Y00828500D02*
X00200400Y00814600D01*
X00186500Y00828500D02*
Y00854567D01*
X00198140Y00859897D02*
X00212840Y00845197D01*
X00192140Y00857412D02*
X00192500Y00857052D01*
Y00847900D02*
Y00857052D01*
Y00847900D02*
X00200400Y00840000D01*
X00208662Y00857860D02*
X00209426D01*
X00219920Y00840080D02*
Y00847366D01*
X00209426Y00857860D02*
X00219920Y00847366D01*
X00204140Y00862383D02*
X00208662Y00857860D01*
X00210140Y00868370D02*
X00227000Y00851510D01*
X00185710Y00855357D02*
Y00921720D01*
X00192140Y00918250D02*
X00192710Y00918820D01*
X00192140Y00857412D02*
Y00918250D01*
X00185710Y00855357D02*
X00186500Y00854567D01*
X00191700Y00927710D02*
X00197790D01*
X00185710Y00921720D02*
X00191700Y00927710D01*
X00198140Y00859897D02*
Y00914090D01*
X00212395Y00928345D01*
X00204140Y00862383D02*
Y00911200D01*
X00210140Y00868370D02*
Y00908715D01*
X00408610Y00936600D02*
X00432740D01*
X00387670Y00924145D02*
Y00934680D01*
X00384480Y00937870D02*
X00387670Y00934680D01*
X00387640Y00814060D02*
Y00907145D01*
X00409475Y00928980D01*
X00380620Y00805435D02*
Y00908610D01*
X00408610Y00936600D01*
X00374620Y00802950D02*
Y00911200D01*
X00374725D01*
X00387670Y00924145D01*
X00368620Y00799500D02*
Y00915660D01*
X00380670Y00927710D01*
X00375590Y00932530D02*
Y00936600D01*
X00361620Y00823309D02*
Y00918559D01*
X00375590Y00932530D01*
X00354000Y00586080D02*
X00373050Y00605130D01*
Y00638150D01*
X00370510Y00577190D02*
X00379400Y00586080D01*
Y00620370D01*
X00383210Y00624180D01*
D25*
X00451710Y00840767D02*
Y00845080D01*
X00453060Y00846430D01*
X00444170Y00713080D02*
Y00843890D01*
X00435550Y00558705D02*
Y00863210D01*
X00428470Y00561637D02*
Y00866143D01*
X00421390Y00564570D02*
Y00870640D01*
X00413810Y00567710D02*
Y00873073D01*
X00444170Y00713080D02*
X00464490Y00692760D01*
X00435550Y00863210D02*
X00446710Y00874370D01*
X00428470Y00866143D02*
X00428970Y00866643D01*
X00421390Y00870640D02*
X00451790Y00901040D01*
X00413810Y00873073D02*
X00444710Y00903973D01*
X00464570Y00772877D02*
Y00842700D01*
Y00772877D02*
X00505670Y00731777D01*
X00464570Y00842700D02*
X00480460Y00858590D01*
X00451250Y00840307D02*
X00451710Y00840767D01*
X00451250Y00716160D02*
Y00840307D01*
Y00716160D02*
X00467030Y00700380D01*
X00479730Y00833730D02*
X00480460Y00833000D01*
Y00792360D02*
Y00833000D01*
X00472190Y00775270D02*
X00483660Y00763800D01*
X00472190Y00775270D02*
Y00838730D01*
X00472110Y00838810D02*
X00472190Y00838730D01*
X00487540Y00820840D02*
Y00879450D01*
X00512750Y00617750D02*
Y00875640D01*
X00435470Y00558625D02*
X00435550Y00558705D01*
X00435470Y00549735D02*
Y00558625D01*
X00434660Y00548925D02*
X00435470Y00549735D01*
X00434660Y00548274D02*
Y00548925D01*
X00428390Y00561557D02*
X00428470Y00561637D01*
X00428390Y00552667D02*
Y00561557D01*
X00427580Y00551857D02*
X00428390Y00552667D01*
X00427580Y00551207D02*
Y00551857D01*
X00434010Y00547624D02*
X00434660Y00548274D01*
X00434010Y00544170D02*
Y00547624D01*
X00426930Y00550557D02*
X00427580Y00551207D01*
X00426930Y00549230D02*
Y00550557D01*
X00428970Y00866643D02*
Y00867350D01*
X00421310Y00543610D02*
X00426930Y00549230D01*
X00491080Y00882990D02*
Y00902230D01*
X00494970Y00906120D01*
X00500050Y00888340D02*
X00512750Y00875640D01*
X00487540Y00879450D02*
X00491080Y00882990D01*
X00480460Y00858590D02*
Y00889070D01*
X00483540Y00892150D01*
X00428970Y00867350D02*
X00444880Y00883260D01*
X00465760D01*
X00446710Y00874370D02*
X00463220D01*
X00505670Y00681870D02*
Y00731777D01*
X00493780Y00814600D02*
X00499600D01*
X00487540Y00820840D02*
X00493780Y00814600D01*
X00480460Y00792360D02*
X00483620Y00789200D01*
X00237160Y00940557D02*
Y00953110D01*
X00235890Y00954380D02*
X00237160Y00953110D01*
Y00940557D02*
X00272070Y00905647D01*
X00244780Y00942950D02*
X00279150Y00908580D01*
X00244780Y00942950D02*
Y00962000D01*
X00251860Y00948570D02*
Y00984130D01*
Y00948570D02*
X00346540Y00853890D01*
X00251130Y00984860D02*
X00251860Y00984130D01*
X00237160Y00969620D02*
X00244780Y00962000D01*
X00279070Y00941385D02*
X00307985Y00912470D01*
X00279070Y00941385D02*
Y00979780D01*
X00272070Y00856884D02*
Y00905647D01*
X00472000Y01050000D02*
X00499600D01*
X00472000Y01075400D02*
X00499600D01*
X00476340Y00552210D02*
Y00632140D01*
X00468300Y00544170D02*
X00476340Y00552210D01*
X00483920Y00545820D02*
Y00614320D01*
X00468300Y00530200D02*
X00483920Y00545820D01*
X00476340Y00632140D02*
X00499600Y00655400D01*
X00483920Y00614320D02*
X00499600Y00630000D01*
X00468300Y00491330D02*
Y00530200D01*
X00475880Y00488190D02*
Y00526350D01*
X00477190Y00527660D01*
X00219380Y00499720D02*
Y00509880D01*
X00200860Y00528400D02*
X00219380Y00509880D01*
X00200400Y00528400D02*
X00200860D01*
X00544500Y00319380D02*
X00549460Y00324340D01*
X00512750Y00319380D02*
X00544500D01*
X00499600Y00332530D02*
X00512750Y00319380D01*
X00499600Y00332530D02*
Y00343800D01*
Y00369200D02*
X00501030D01*
X00483660Y00763800D02*
X00499600D01*
X00483620Y00789200D02*
X00499600D01*
X00381940Y00504800D02*
X00427660D01*
X00440360Y00517500D02*
Y00530200D01*
X00427660Y00504800D02*
X00440360Y00517500D01*
X00430620Y00526810D02*
X00431470Y00527660D01*
X00425060Y00515810D02*
X00430620Y00521370D01*
Y00526810D01*
X00271450Y00447650D02*
X00301930Y00417170D01*
X00261290Y00415900D02*
Y00437490D01*
X00271450Y00447650D01*
X00262560Y00525120D02*
X00265480Y00528040D01*
X00273570Y00700800D02*
X00282533Y00691837D01*
X00299390Y00718160D02*
X00320980Y00696570D01*
X00296850Y00465430D02*
Y00596240D01*
X00307010Y00606400D01*
X00306970Y00522620D02*
Y00594930D01*
X00314550Y00529010D02*
Y00591080D01*
X00330380Y00608940D02*
X00338380Y00616940D01*
X00322130Y00532860D02*
Y00581000D01*
X00314550Y00529010D02*
X00320980Y00522580D01*
X00329750Y00518890D02*
Y00525240D01*
Y00518890D02*
X00331140Y00517500D01*
X00322130Y00532860D02*
X00329750Y00525240D01*
X00374320Y00497180D02*
X00381940Y00504800D01*
X00359080Y00497180D02*
X00374320D01*
X00306970Y00522620D02*
X00308280Y00521310D01*
X00420810Y00443840D02*
X00468300Y00491330D01*
X00424700Y00437010D02*
X00475880Y00488190D01*
X00322250Y00417170D02*
X00328600Y00423520D01*
X00301930Y00417170D02*
X00322250D01*
X00328600Y00423520D02*
Y00431140D01*
X00423290Y00434950D02*
X00424700Y00436360D01*
X00376860Y00443840D02*
X00420810D01*
X00424700Y00436360D02*
Y00437010D01*
X00381940Y00434950D02*
X00423290D01*
X00241480Y00530960D02*
X00248590Y00523850D01*
X00390830Y00401930D02*
X00428930D01*
X00381940Y00410820D02*
X00390830Y00401930D01*
X00381940Y00410820D02*
Y00434950D01*
X00296850Y00465430D02*
X00312090Y00450190D01*
Y00434950D02*
Y00450190D01*
X00371780Y00404890D02*
X00372200Y00404470D01*
Y00439180D01*
X00376860Y00443840D01*
X00273990Y00431140D02*
X00299390Y00405740D01*
X00397180Y00422250D02*
X00421310D01*
X00261290Y00415900D02*
X00268910Y00408280D01*
X00421310Y00422250D02*
X00432740Y00433680D01*
X00299390Y00718160D02*
Y00758800D01*
X00290500Y00728320D02*
X00291350Y00729170D01*
X00241480Y00530960D02*
Y00563980D01*
X00249520Y00558140D02*
Y00566630D01*
X00241480Y00563980D02*
Y00572620D01*
X00233350Y00555600D02*
Y00575880D01*
X00369660Y00515810D02*
X00425060D01*
X00407340Y00554330D02*
Y00560680D01*
X00421310Y00542900D02*
Y00543610D01*
X00373050Y00535280D02*
X00373470Y00534860D01*
X00373050Y00526390D02*
X00374740Y00524700D01*
X00422580D01*
X00366700Y00518770D02*
X00369660Y00515810D01*
X00424700Y00534860D02*
X00434010Y00544170D01*
X00373470Y00534860D02*
X00424700D01*
X00371780Y00544170D02*
X00409880D01*
X00421310Y00564490D02*
X00421390Y00564570D01*
X00407340Y00560680D02*
X00413730Y00567070D01*
Y00567630D01*
X00413810Y00567710D01*
X00409880Y00544170D02*
X00420040Y00554330D01*
X00421310Y00555600D02*
Y00564490D01*
X00393370Y00577190D02*
X00395910D01*
X00200400Y00394600D02*
X00208240D01*
X00215570Y00401930D01*
X00207980Y00434920D02*
X00215570Y00427330D01*
Y00401930D02*
Y00427330D01*
X00219380Y00499720D02*
X00271450Y00447650D01*
X00484810Y00354410D02*
X00499600Y00369200D01*
X00484810Y00334620D02*
Y00354410D01*
Y00334620D02*
X00507630Y00311800D01*
X00547640D01*
X00557040Y00321200D01*
Y00916759D01*
X00544440Y00931520D02*
X00546620Y00929340D01*
Y00916460D02*
Y00929340D01*
Y00916460D02*
X00549460Y00913620D01*
Y00324340D02*
Y00913620D01*
X00554660Y00919139D02*
Y00922630D01*
Y00919139D02*
X00557040Y00916759D01*
X00231338Y00883788D02*
X00232080Y00884530D01*
X00223920Y00890340D02*
X00224460Y00890880D01*
X00260020Y00950423D02*
Y00978510D01*
X00473380Y00401930D02*
Y00404470D01*
X00464490Y00413360D02*
X00473380Y00404470D01*
X00397180Y00413360D02*
X00464490D01*
X00489600Y00394600D02*
X00499600D01*
X00484810Y00399390D02*
X00489600Y00394600D01*
X00484810Y00399390D02*
Y00534010D01*
X00468300Y00556870D02*
Y00644500D01*
X00187630Y00381970D02*
X00200400Y00369200D01*
X00207980Y00434920D02*
Y00479370D01*
X00207950Y00479400D02*
X00207980Y00479370D01*
X00200400Y00420000D02*
Y00492030D01*
X00200330Y00492100D02*
X00200400Y00492030D01*
X00287960Y00606400D02*
Y00621640D01*
X00337490Y00671170D01*
X00258400Y00680557D02*
Y00680830D01*
X00257900Y00681330D02*
X00258400Y00680830D01*
X00250820Y00678125D02*
Y00684180D01*
X00249860Y00685140D02*
X00250820Y00684180D01*
X00265480Y00528040D02*
Y00589890D01*
X00249520Y00566630D02*
X00257130Y00574240D01*
X00241480Y00572620D02*
X00250050Y00581190D01*
X00233350Y00575880D02*
X00242970Y00585500D01*
X00224460Y00579730D02*
X00235890Y00591160D01*
X00257130Y00574240D02*
Y00591553D01*
X00250050Y00581190D02*
Y00594485D01*
X00242970Y00585500D02*
Y00597890D01*
X00235890Y00591160D02*
Y00600823D01*
X00228810Y00594970D02*
Y00603755D01*
X00222460Y00588620D02*
X00228810Y00594970D01*
X00221920Y00588620D02*
X00222460D01*
X00265480Y00683490D02*
X00275830Y00673140D01*
X00265480Y00589890D02*
X00275830Y00600240D01*
X00258400Y00680557D02*
X00268750Y00670207D01*
X00257130Y00591553D02*
X00268750Y00603173D01*
X00250820Y00678125D02*
X00261670Y00667275D01*
X00250050Y00594485D02*
X00261670Y00606105D01*
X00240970Y00676250D02*
X00254590Y00662630D01*
X00242970Y00597890D02*
X00254590Y00609510D01*
X00235890Y00600823D02*
X00247510Y00612443D01*
X00228810Y00603755D02*
X00240430Y00615375D01*
X00225730Y00616560D02*
X00233350Y00624180D01*
X00275830Y00600240D02*
Y00673140D01*
X00268750Y00603173D02*
Y00670207D01*
X00261670Y00606105D02*
Y00667275D01*
X00254590Y00609510D02*
Y00662630D01*
X00247510Y00612443D02*
Y00657860D01*
X00240430Y00615375D02*
Y00654927D01*
X00200400Y00553800D02*
X00228270Y00525930D01*
Y00504800D02*
Y00525930D01*
X00499600Y00604600D02*
X00512750Y00617750D01*
X00468300Y00644500D02*
X00505670Y00681870D01*
X00337490Y00671170D02*
Y00727050D01*
X00307985Y00912470D02*
X00338760D01*
X00464490Y00692760D02*
X00487350D01*
X00467030Y00700380D02*
X00473380D01*
X00451790Y00901040D02*
Y01029790D01*
X00472000Y01050000D01*
X00444710Y00903973D02*
Y01048110D01*
X00472000Y01075400D01*
X00393370Y00780390D02*
X00394640D01*
X00393330Y00780430D02*
X00393370Y00780390D01*
Y00718160D02*
X00394640Y00716890D01*
X00393370Y00718160D02*
X00393450Y00718240D01*
Y00779200D01*
X00394640Y00780390D01*
X00393330Y00803713D02*
X00398450Y00808833D01*
X00393330Y00780430D02*
Y00803713D01*
X00336220Y00827184D02*
Y00848970D01*
X00348080Y00819018D02*
X00353620Y00824558D01*
X00341000Y00821951D02*
X00346540Y00827491D01*
X00348080Y00793170D02*
X00353620Y00787630D01*
X00348080Y00793170D02*
Y00819018D01*
X00341000Y00788310D02*
Y00821951D01*
Y00788310D02*
X00350190Y00779120D01*
X00333920Y00783960D02*
X00334950Y00782930D01*
X00333920Y00783960D02*
Y00824884D01*
X00336220Y00827184D01*
X00293040Y00869940D02*
X00294230Y00868750D01*
X00260020Y00950423D02*
X00353620Y00856823D01*
Y00824558D02*
Y00856823D01*
X00346540Y00827491D02*
Y00853890D01*
X00397180Y00835000D02*
X00398450D01*
X00394640Y00837540D02*
X00397180Y00835000D01*
X00394640Y00837540D02*
Y00878180D01*
X00398450Y00808833D02*
Y00835000D01*
X00225730Y00630530D02*
Y00649433D01*
X00233350Y00624180D02*
Y00651825D01*
X00212190Y00662973D02*
X00225730Y00649433D01*
X00219270Y00665905D02*
X00233350Y00651825D01*
X00226350Y00669007D02*
X00240430Y00654927D01*
X00233430Y00671940D02*
X00247510Y00657860D01*
X00205110Y00691190D02*
X00220000Y00706080D01*
X00212190Y00662973D02*
Y00688257D01*
X00227080Y00703147D01*
X00219270Y00665905D02*
Y00685325D01*
X00226350Y00669007D02*
Y00682392D01*
X00233430Y00671940D02*
Y00679460D01*
X00250320Y00696350D01*
X00226350Y00682392D02*
X00242240Y00698282D01*
X00219270Y00685325D02*
X00234660Y00700715D01*
X00198030Y00694123D02*
X00212920Y00709013D01*
X00198030Y00652360D02*
Y00694123D01*
X00187630Y00641960D02*
X00198030Y00652360D01*
X00187630Y00381970D02*
Y00641960D01*
X00205110Y00653690D02*
Y00691190D01*
X00200400Y00579200D02*
X00214300Y00593100D01*
Y00644500D01*
X00205110Y00653690D02*
X00214300Y00644500D01*
X00282460Y00708420D02*
X00290500Y00700380D01*
X00200400Y00948400D02*
X00201484Y00949484D01*
X00239700Y00880720D02*
X00243510D01*
X00294230Y00793430D02*
Y00868750D01*
X00286690Y00797320D02*
Y00862940D01*
X00303200Y00787160D02*
Y00876940D01*
X00285070Y00795700D02*
X00286690Y00797320D01*
X00292150Y00791350D02*
X00294230Y00793430D01*
X00299230Y00768562D02*
Y00783190D01*
X00303200Y00787160D01*
X00296267Y00766340D02*
X00297008D01*
X00299230Y00768562D01*
X00292150Y00772236D02*
Y00791350D01*
X00285070Y00775168D02*
Y00795700D01*
X00242240Y00698282D02*
Y00772389D01*
X00250320Y00696350D02*
Y00770456D01*
X00257900Y00681330D02*
Y00768024D01*
X00265480Y00683490D02*
Y00765591D01*
X00277990Y00778101D01*
X00273570Y00700800D02*
Y00763668D01*
X00285070Y00775168D01*
X00282460Y00708420D02*
Y00762546D01*
X00292150Y00772236D01*
X00291350Y00729170D02*
Y00761423D01*
X00296267Y00766340D01*
X00234660Y00700715D02*
Y00774821D01*
X00227080Y00703147D02*
Y00777254D01*
X00220000Y00706080D02*
Y00786090D01*
X00212920Y00709013D02*
Y00789280D01*
X00200400Y00789200D02*
X00202827D01*
X00223920Y00874763D02*
Y00890340D01*
X00231338Y00877358D02*
Y00883788D01*
Y00877358D02*
X00239331Y00869364D01*
X00244854D01*
X00202827Y00789200D02*
X00212840Y00799213D01*
Y00845197D01*
X00212920Y00789280D02*
X00219663Y00796023D01*
X00219920D01*
X00220000Y00786090D02*
X00227000Y00793090D01*
Y00851510D01*
X00250320Y00770456D02*
X00256210Y00776346D01*
Y00868020D01*
X00243510Y00880720D02*
X00256210Y00868020D01*
X00249130Y00779279D02*
Y00865087D01*
X00244854Y00869364D02*
X00249130Y00865087D01*
X00242240Y00772389D02*
X00249130Y00779279D01*
X00234660Y00774821D02*
X00242050Y00782211D01*
X00227080Y00777254D02*
X00234970Y00785144D01*
Y00853700D01*
X00216840Y00871830D02*
X00234970Y00853700D01*
X00242050Y00782211D02*
Y00856633D01*
X00223920Y00874763D02*
X00242050Y00856633D01*
X00277990Y00778101D02*
Y00798633D01*
X00279610Y00800253D01*
Y00859357D01*
X00279150Y00859817D02*
X00279610Y00859357D01*
X00279150Y00859817D02*
Y00908580D01*
X00257900Y00768024D02*
X00270910Y00781034D01*
Y00801565D01*
X00272530Y00803185D01*
Y00856424D01*
X00272070Y00856884D02*
X00272530Y00856424D01*
X00219920Y00796023D02*
Y00840080D01*
X00216840Y00898500D02*
X00218110Y00899770D01*
X00216840Y00871830D02*
Y00898500D01*
X00329260Y00607577D02*
X00330380Y00608697D01*
Y00608940D01*
X00314550Y00591080D02*
X00320980Y00597510D01*
Y00598780D01*
X00306970Y00594930D02*
X00313440Y00601400D01*
Y00601903D01*
X00317857Y00606320D01*
X00318360D01*
X00320840Y00608800D01*
X00322130Y00581000D02*
X00329260Y00588130D01*
Y00607577D01*
D26*
X00441630Y01078840D02*
X00465760Y01102970D01*
X00378130Y01078840D02*
X00441630D01*
X00362880Y01063590D02*
X00378130Y01078840D01*
X00465760Y01102970D02*
X00512750D01*
X00525000Y01090720D01*
Y01075400D02*
Y01090720D01*
Y00865400D02*
Y00973800D01*
Y00655400D02*
Y00763800D01*
Y00445400D02*
Y00553800D01*
X00362880Y01050900D02*
Y01063590D01*
X00336230Y00346050D02*
Y00346646D01*
X00348930Y00359346D01*
Y00371450D01*
X00175000Y00420000D02*
Y00528400D01*
Y00630000D02*
Y00738400D01*
X00174210Y00840790D02*
Y00947610D01*
Y00840790D02*
X00175000Y00840000D01*
X00174210Y00947610D02*
X00175000Y00948400D01*
D27*
X00443171Y00480399D02*
Y00482211D01*
X00456870Y00662280D02*
Y00673710D01*
Y00495910D02*
Y00662280D01*
X00443171Y00482211D02*
X00456870Y00495910D01*
D29*
X00298130Y00371450D02*
D03*
X00310830Y00346050D02*
D03*
X00323530Y00371450D02*
D03*
X00336230Y00346050D02*
D03*
X00348930Y00371450D02*
D03*
X00361630Y00346050D02*
D03*
X00374330Y00371450D02*
D03*
X00324780Y01025500D02*
D03*
X00337480Y01050900D02*
D03*
X00350180Y01025500D02*
D03*
X00362880Y01050900D02*
D03*
X00375580Y01025500D02*
D03*
X00388280Y01050900D02*
D03*
X00400980Y01025500D02*
D03*
D30*
X00387030Y00346050D02*
D03*
X00312080Y01050900D02*
D03*
D31*
X00285410Y00282550D02*
D03*
X00399730D02*
D03*
X00299380Y01114400D02*
D03*
X00413700D02*
D03*
D32*
X00499600Y00445400D02*
D03*
X00525000D02*
D03*
Y00369200D02*
D03*
Y00394600D02*
D03*
Y00420000D02*
D03*
X00499600Y00343800D02*
D03*
Y00369200D02*
D03*
Y00394600D02*
D03*
Y00420000D02*
D03*
Y00630000D02*
D03*
Y00604600D02*
D03*
Y00579200D02*
D03*
Y00553800D02*
D03*
X00525000Y00630000D02*
D03*
Y00604600D02*
D03*
Y00579200D02*
D03*
Y00655400D02*
D03*
X00499600D02*
D03*
Y00865400D02*
D03*
X00525000D02*
D03*
Y00789200D02*
D03*
Y00814600D02*
D03*
Y00840000D02*
D03*
X00499600Y00763800D02*
D03*
Y00789200D02*
D03*
Y00814600D02*
D03*
Y00840000D02*
D03*
Y01050000D02*
D03*
Y01024600D02*
D03*
Y00999200D02*
D03*
Y00973800D02*
D03*
X00525000Y01050000D02*
D03*
Y01024600D02*
D03*
Y00999200D02*
D03*
Y01075400D02*
D03*
X00499600D02*
D03*
X00200400Y00318400D02*
D03*
X00175000D02*
D03*
Y00394600D02*
D03*
Y00369200D02*
D03*
Y00343800D02*
D03*
X00200400Y00420000D02*
D03*
Y00394600D02*
D03*
Y00369200D02*
D03*
Y00343800D02*
D03*
Y00553800D02*
D03*
Y00579200D02*
D03*
Y00604600D02*
D03*
Y00630000D02*
D03*
X00175000Y00553800D02*
D03*
Y00579200D02*
D03*
Y00604600D02*
D03*
Y00528400D02*
D03*
X00200400D02*
D03*
Y00738400D02*
D03*
X00175000D02*
D03*
Y00814600D02*
D03*
Y00789200D02*
D03*
Y00763800D02*
D03*
X00200400Y00840000D02*
D03*
Y00814600D02*
D03*
Y00789200D02*
D03*
Y00763800D02*
D03*
Y00973800D02*
D03*
Y00999200D02*
D03*
Y01024600D02*
D03*
Y01050000D02*
D03*
X00175000Y00973800D02*
D03*
Y00999200D02*
D03*
Y01024600D02*
D03*
Y00948400D02*
D03*
X00200400D02*
D03*
X00366700Y00602590D02*
D03*
Y00577190D02*
D03*
X00341300Y00602590D02*
D03*
Y00577190D02*
D03*
X00392100D02*
D03*
D33*
X00525000Y00343800D02*
D03*
Y00553800D02*
D03*
Y00763800D02*
D03*
Y00973800D02*
D03*
X00175000Y00420000D02*
D03*
Y00630000D02*
D03*
Y00840000D02*
D03*
Y01050000D02*
D03*
X00392100Y00602590D02*
D03*
D34*
X00560000Y01160000D02*
D03*
X00140000D02*
D03*
X00560000Y00240000D02*
D03*
X00140000D02*
D03*
D35*
X00153340Y01102970D02*
D03*
X00159690Y01095350D02*
D03*
X00240970Y01102970D02*
D03*
X00244780Y01093990D02*
D03*
X00463220Y00865480D02*
D03*
X00453060Y00846430D02*
D03*
X00444170Y00843890D02*
D03*
X00479730Y00833730D02*
D03*
X00472110Y00838810D02*
D03*
X00483540Y00917550D02*
D03*
X00494970Y00906120D02*
D03*
X00500050Y00888340D02*
D03*
X00483540Y00892150D02*
D03*
X00465760Y00883260D02*
D03*
X00463220Y00874370D02*
D03*
X00431470Y00923900D02*
D03*
X00235890Y00954380D02*
D03*
X00237160Y00969620D02*
D03*
X00328600Y00940410D02*
D03*
X00334950Y00934060D02*
D03*
X00340030Y00940410D02*
D03*
X00348920Y00942950D02*
D03*
X00346380Y00955650D02*
D03*
X00468300Y00544170D02*
D03*
X00477190Y00527660D02*
D03*
X00544440Y00931520D02*
D03*
X00554660Y00922630D02*
D03*
X00539420Y00899770D02*
D03*
X00506400Y00941680D02*
D03*
X00436550Y00967080D02*
D03*
X00507670Y00892150D02*
D03*
X00506400Y00901040D02*
D03*
X00328600Y00241910D02*
D03*
X00221920Y00240640D02*
D03*
X00320980Y00249530D02*
D03*
X00195250D02*
D03*
X00440360Y00530200D02*
D03*
X00431470Y00527660D02*
D03*
X00422580Y00524700D02*
D03*
X00434010Y00544170D02*
D03*
X00420040Y00554330D02*
D03*
X00444170Y00479400D02*
D03*
X00249860Y00685140D02*
D03*
X00240970Y00676250D02*
D03*
X00299390Y00758800D02*
D03*
X00320980Y00696570D02*
D03*
X00307010Y00606400D02*
D03*
X00320840Y00608800D02*
D03*
X00338380Y00616940D02*
D03*
X00331140Y00517500D02*
D03*
X00359080Y00497180D02*
D03*
X00315900Y00471780D02*
D03*
X00320980Y00522580D02*
D03*
X00308280Y00521310D02*
D03*
X00346380Y00440030D02*
D03*
X00249520Y00558140D02*
D03*
X00312090Y00434950D02*
D03*
X00328600Y00431140D02*
D03*
X00260020Y00565760D02*
D03*
X00241480Y00563980D02*
D03*
X00381940Y00434950D02*
D03*
X00371780Y00404890D02*
D03*
X00299390Y00405740D02*
D03*
X00233350Y00555600D02*
D03*
X00262560Y00525120D02*
D03*
X00248590Y00523850D02*
D03*
X00458140Y00433680D02*
D03*
X00474650Y00473050D02*
D03*
X00337490Y00471780D02*
D03*
X00273990Y00431140D02*
D03*
X00428930Y00401930D02*
D03*
X00397180Y00422250D02*
D03*
Y00413360D02*
D03*
X00268910Y00408280D02*
D03*
X00362890Y00471780D02*
D03*
X00432740Y00433680D02*
D03*
X00290500Y00728320D02*
D03*
X00282533Y00691837D02*
D03*
X00353620Y00787630D02*
D03*
X00266370Y01119480D02*
D03*
Y01095350D02*
D03*
X00282880Y01078840D02*
D03*
X00298120Y01064870D02*
D03*
X00233350Y01114400D02*
D03*
X00309550Y01017880D02*
D03*
X00287960Y01038200D02*
D03*
X00262560Y01062330D02*
D03*
X00238430Y01086460D02*
D03*
X00172390Y01115670D02*
D03*
X00133020D02*
D03*
Y01058520D02*
D03*
X00134290Y01011530D02*
D03*
Y00962000D02*
D03*
X00159690Y00918820D02*
D03*
X00187630Y00934060D02*
D03*
X00135560Y00923900D02*
D03*
X00159690Y00884530D02*
D03*
X00134290Y00892150D02*
D03*
Y00823570D02*
D03*
Y00789280D02*
D03*
Y00741020D02*
D03*
X00158420Y00709270D02*
D03*
X00135560Y00705460D02*
D03*
X00159690Y00694030D02*
D03*
X00135560Y00677520D02*
D03*
Y00622910D02*
D03*
Y00588620D02*
D03*
Y00550520D02*
D03*
Y00514960D02*
D03*
Y00475590D02*
D03*
Y00427330D02*
D03*
X00159690Y00494640D02*
D03*
X00133020Y00396850D02*
D03*
X00159690Y00446380D02*
D03*
X00135560Y00357480D02*
D03*
Y00316840D02*
D03*
X00153340Y00269850D02*
D03*
X00201600Y00241910D02*
D03*
X00215570Y00258420D02*
D03*
X00240970D02*
D03*
X00253670Y00296520D02*
D03*
X00285420Y00258420D02*
D03*
X00173660D02*
D03*
X00230810Y00231750D02*
D03*
X00211760D02*
D03*
X00261290Y00258420D02*
D03*
X00258750Y00231750D02*
D03*
X00285420Y00233020D02*
D03*
X00319710Y00259690D02*
D03*
X00326060Y00287630D02*
D03*
X00338760Y00300330D02*
D03*
X00308280Y00299060D02*
D03*
X00376860Y00297790D02*
D03*
X00213030Y00329540D02*
D03*
X00262560Y00360020D02*
D03*
X00277800Y00375260D02*
D03*
X00291770Y00329540D02*
D03*
X00267640D02*
D03*
X00247320Y00385420D02*
D03*
X00229540Y00382880D02*
D03*
X00232080Y00428600D02*
D03*
X00359080Y00457810D02*
D03*
X00247320Y00344780D02*
D03*
X00319710Y00329540D02*
D03*
X00318440Y00233020D02*
D03*
X00350190Y00248260D02*
D03*
X00367970Y00266040D02*
D03*
X00312090Y00386690D02*
D03*
X00361620Y00385420D02*
D03*
X00402260Y00373990D02*
D03*
X00413690Y00348590D02*
D03*
X00406070Y00328270D02*
D03*
X00352730Y00330810D02*
D03*
X00439090Y00347320D02*
D03*
X00469570Y00304140D02*
D03*
X00506400Y00297790D02*
D03*
X00492430Y00311760D02*
D03*
X00431470Y00296520D02*
D03*
X00447980Y00280010D02*
D03*
X00461950Y00268580D02*
D03*
X00491160Y00267310D02*
D03*
X00527990Y00260960D02*
D03*
X00538150Y00300330D02*
D03*
X00567360Y00332080D02*
D03*
X00568630Y00362560D02*
D03*
X00567360Y00408280D02*
D03*
X00566090Y00462890D02*
D03*
X00505130Y00475590D02*
D03*
Y00511150D02*
D03*
X00445440Y00537820D02*
D03*
X00346380Y00452730D02*
D03*
X00265100Y00471780D02*
D03*
X00238430Y00446380D02*
D03*
X00235890Y00469240D02*
D03*
X00237160Y00495910D02*
D03*
X00240970Y00517500D02*
D03*
X00218110Y00370180D02*
D03*
X00473380Y00385420D02*
D03*
X00414960Y00393040D02*
D03*
X00468300Y00451460D02*
D03*
X00445440Y00635610D02*
D03*
Y00597510D02*
D03*
X00468300Y00664820D02*
D03*
Y00685140D02*
D03*
X00398450Y00683870D02*
D03*
X00346380Y00687680D02*
D03*
Y00677520D02*
D03*
X00355270Y00682600D02*
D03*
X00326060Y00677520D02*
D03*
X00314630Y00688950D02*
D03*
X00280340Y00683870D02*
D03*
X00285420Y00667360D02*
D03*
X00286690Y00648310D02*
D03*
X00305740Y00620370D02*
D03*
X00324790Y00644500D02*
D03*
X00340030Y00659740D02*
D03*
X00279070Y00586080D02*
D03*
X00273990Y00573380D02*
D03*
X00287960D02*
D03*
X00285420Y00596240D02*
D03*
X00407340Y00554330D02*
D03*
X00421310Y00542900D02*
D03*
X00373050Y00526390D02*
D03*
X00398450Y00553060D02*
D03*
X00385750Y00564490D02*
D03*
X00371780Y00544170D02*
D03*
X00373050Y00535280D02*
D03*
X00366700Y00518770D02*
D03*
X00287960Y00547980D02*
D03*
X00276530Y00525120D02*
D03*
X00275260Y00545440D02*
D03*
X00253670Y00540360D02*
D03*
X00566090Y00516230D02*
D03*
Y00558140D02*
D03*
X00568630Y00615290D02*
D03*
X00566090Y00664820D02*
D03*
Y00716890D02*
D03*
X00494970Y00685140D02*
D03*
X00491160Y00718160D02*
D03*
X00469570Y00720700D02*
D03*
X00402260Y00709270D02*
D03*
Y00801980D02*
D03*
X00318440Y00785470D02*
D03*
Y00812140D02*
D03*
X00320980Y00841350D02*
D03*
X00326060Y00856590D02*
D03*
X00367970Y00950570D02*
D03*
X00384480Y00968350D02*
D03*
X00289230Y00984860D02*
D03*
X00319710Y01003910D02*
D03*
X00354000Y00977240D02*
D03*
X00268910Y00982320D02*
D03*
X00475920Y00954380D02*
D03*
X00418770Y00977240D02*
D03*
X00460680Y00964540D02*
D03*
X00426390Y00915010D02*
D03*
X00568630Y00791820D02*
D03*
X00567360Y00864210D02*
D03*
X00463220Y01014070D02*
D03*
X00423850Y01015340D02*
D03*
X00460680Y00765150D02*
D03*
X00456870Y00673710D02*
D03*
Y00662280D02*
D03*
X00364160Y00647040D02*
D03*
X00399720Y00658470D02*
D03*
X00398450Y00633070D02*
D03*
X00404800Y00622910D02*
D03*
X00228270Y00504800D02*
D03*
X00136830Y00873100D02*
D03*
X00146990Y00864210D02*
D03*
X00224460Y00890880D02*
D03*
X00232080Y00884530D02*
D03*
X00252400Y00885800D02*
D03*
X00251130Y00984860D02*
D03*
X00260020Y00978510D02*
D03*
X00279070Y00979780D02*
D03*
X00473380Y00401930D02*
D03*
X00484810Y00534010D02*
D03*
X00468300Y00556870D02*
D03*
X00207950Y00479400D02*
D03*
X00200330Y00492100D02*
D03*
X00287960Y00606400D02*
D03*
X00225730Y00616560D02*
D03*
X00224460Y00579730D02*
D03*
X00221920Y00588620D02*
D03*
X00225730Y00630530D02*
D03*
X00207950Y00567030D02*
D03*
X00487350Y00692760D02*
D03*
X00456870Y00606400D02*
D03*
X00445440Y00612750D02*
D03*
X00398450Y00676250D02*
D03*
X00354000Y00649580D02*
D03*
X00343840Y00644500D02*
D03*
X00337490Y00727050D02*
D03*
X00350190Y00779120D02*
D03*
X00394640Y00780390D02*
D03*
Y00716890D02*
D03*
X00338760Y00912470D02*
D03*
X00473380Y00700380D02*
D03*
X00432740Y00936600D02*
D03*
X00400990Y00729590D02*
D03*
X00361620Y00813410D02*
D03*
X00336220Y00848970D02*
D03*
X00334950Y00782930D02*
D03*
X00352730Y00767690D02*
D03*
X00286690Y00862940D02*
D03*
X00293040Y00869940D02*
D03*
X00303200Y00876940D02*
D03*
X00394640Y00878180D02*
D03*
X00388290Y00813410D02*
D03*
X00397180Y00835000D02*
D03*
X00290500Y00700380D02*
D03*
X00239700Y00880720D02*
D03*
X00192710Y00918820D02*
D03*
X00197790Y00927710D02*
D03*
X00218110Y00899770D02*
D03*
X00263830Y00813410D02*
D03*
X00384480Y00937870D02*
D03*
X00380670Y00927710D02*
D03*
X00375590Y00936600D02*
D03*
X00320980Y00598780D02*
D03*
M02*
