M48
;Layer_Color=9474304
;FILE_FORMAT=4:4
METRIC
;TYPE=PLATED
T1F00S00C0.3000
T2F00S00C0.5000
T3F00S00C0.7112
T4F00S00C0.7620
T5F00S00C0.8500
T6F00S00C0.9000
T7F00S00C1.0000
T8F00S00C1.1000
T9F00S00C1.2000
T10F00S00C3.4500
;TYPE=NON_PLATED
T11F00S00C4.0000
T12F00S00C5.0000
%
T01
X00851890Y00296240
X00889990Y00294970
X00912850Y00273380
X00919200Y00344500
X00910310Y00349580
X01001750Y00329260
X01015720Y00341960
X01036040Y00362280
X01053820Y00392760
X01062710Y00334340
X01136370Y00382600
X01156690Y00385140
X01351890Y00296240
X01389990Y00294970
X01412850Y00273380
X01419200Y00344500
X01410310Y00349580
X01501750Y00329260
X01515720Y00341960
X01536040Y00362280
X01553820Y00392760
X01562710Y00334340
X01636370Y00382600
X01656690Y00385140
X01600810Y00400380
X01597000Y00409270
X01588110Y00430860
X01605890Y00472770
X01613510Y00482912
X01618590Y00590880
X01626210Y00598500
X01635100Y00606120
X01645260Y00613740
X01561440Y00514680
X01537310Y00508330
X01524610Y00476580
X01538580Y00457530
X01555090Y00428320
X01567790Y00432130
X01522129Y00406730
X01464920Y00467690
X01412850Y00773380
X01145260Y00613740
X01135100Y00606120
X01126210Y00598500
X01118590Y00590880
X01113510Y00482912
X01105890Y00472770
X01088110Y00430860
X01067790Y00432130
X01055090Y00428320
X01038580Y00457530
X01024610Y00476580
X01037310Y00508330
X01061440Y00514680
X01097000Y00409270
X01100810Y00400380
X01022129Y00406730
X00964920Y00467690
X00912850Y00773380
X00889990Y00794970
X00851890Y00796240
X00910310Y00849580
X00919200Y00844500
X01001750Y00829260
X01015720Y00841960
X01036040Y00862280
X01053820Y00892760
X01055090Y00928320
X01067790Y00932130
X01088110Y00930860
X01097000Y00909270
X01100810Y00900380
X01136370Y00882600
X01156690Y00885140
X01105890Y00972770
X01113510Y00982912
X01061440Y01014680
X01037310Y01008330
X01024610Y00976580
X01038580Y00957530
X01022129Y00906730
X01062710Y00834340
X00964920Y00967690
X01118590Y01090880
X01126210Y01098500
X01135100Y01106120
X01145260Y01113740
X01464920Y00967690
X01524610Y00976580
X01538580Y00957530
X01555090Y00928320
X01567790Y00932130
X01553820Y00892760
X01522129Y00906730
X01536040Y00862280
X01515720Y00841960
X01501750Y00829260
X01562710Y00834340
X01419200Y00844500
X01410310Y00849580
X01389990Y00794970
X01351890Y00796240
X01537310Y01008330
X01561440Y01014680
X01613510Y00982912
X01605890Y00972770
X01588110Y00930860
X01597000Y00909270
X01600810Y00900380
X01636370Y00882600
X01656690Y00885140
X01645260Y01113740
X01635100Y01106120
X01626210Y01098500
X01618590Y01090880
T02
X01080490Y00387680
X01580490
X01080490Y00887680
X01580490
T03
X00471410Y00406730
X00461250Y00498170
X00551420Y00561430
X00590790Y00462610
X00706360Y00597230
X00752080Y00651840
X00590790Y00962610
X00551420Y01061430
X00461250Y00998170
X00471410Y00906730
X00706360Y01097230
X00752080Y01151840
T04
X01001035Y00284040
X01157870
X01216380Y00327720
Y00376520
X01501035Y00284040
X01657870
X01716380Y00327720
Y00376520
X01657870Y00666445
Y00784040
X01501035
X01499765Y00666445
X01157870
Y00784040
X01001035
X00999765Y00666445
Y01166445
X01157870
X01499765
X01216380Y00876520
Y00827720
X01716380
Y00876520
X01657870Y01166445
T05
X01259560Y00369900
Y00395300
X01759560
Y00369900
Y00471500
X01259560
Y00869900
Y00895300
Y00971500
X01759560
Y00895300
Y00869900
T06
X00826490Y00371170
Y00396570
X00851890
Y00371170
X00877290
Y00396570
X01326490
Y00371170
X01351890
X01377290
Y00396570
X01351890
X00877290Y00871170
X00851890
X00826490
Y00896570
X00851890
X00877290
X01326490
Y00871170
X01351890
X01377290
Y00896570
X01351890
T07
X00533670Y00359760
X00554070
X00574470
X00564270Y00380060
X00543870
X00584670
X01368420Y00480430
Y00500830
Y00521230
X01388720Y00511030
Y00490630
Y00470230
X00888720
Y00490630
Y00511030
X00868420Y00521230
Y00500830
Y00480430
X00669510Y00490430
Y00510830
X00649210Y00521030
Y00500630
Y00480230
X00669510Y00470030
X00557770Y00470230
Y00490630
Y00511030
X00537470Y00521230
Y00500830
Y00480430
X00533870Y00622630
X00554270
X00574670
X00584870Y00642930
X00564470
X00544070
X00554070Y00859760
X00574470
X00564270Y00880060
X00543870
X00533670Y00859760
X00584670Y00880060
X00557770Y00970230
Y00990630
Y01011030
X00537470Y01021230
Y01000830
Y00980430
X00649210Y00980230
Y01000630
Y01021030
X00669510Y01010830
Y00990430
Y00970030
X00574670Y01122630
X00554270
X00533870
X00544070Y01142930
X00564470
X00584870
X00868420Y01021230
Y01000830
Y00980430
X00888720Y00990630
Y01011030
Y00970230
X01368420Y00980430
Y01000830
Y01021230
X01388720Y01011030
Y00990630
Y00970230
T08
X01724000Y00509600
Y00535000
X01749400
Y00509600
X01741780Y00619220
Y00644220
X01435710Y00695020
Y00720420
X01410310
X01384910
X01359510
Y00695020
X01384910
X01410310
X01241780Y00644220
Y00619220
X01249400Y00535000
X01224000
Y00509600
X01249400
X00935710Y00695020
Y00720420
X00910310
X00884910
X00859510
Y00695020
X00884910
X00910310
X00707230Y00701380
X00682230
X00657230
Y00734380
X00682230
X00707230
X01224000Y01009600
Y01035000
X01249400
Y01009600
X01241780Y01119220
Y01144220
X01741780
Y01119220
X01749400Y01035000
X01724000
Y01009600
X01749400
X01435710Y01195020
Y01220420
X01410310
X01384910
X01359510
Y01195020
X01384910
X01410310
X00935710
Y01220420
X00910310
X00884910
X00859510
Y01195020
X00884910
X00910310
X00707230Y01201380
X00682230
X00657230
Y01234380
X00682230
X00707230
T09
X00945870Y00329030
X01445870
X01699260Y00618260
Y00722860
X01435940Y00653110
Y00620090
Y00587070
X01331340
Y00620090
Y00653110
X01199260Y00618260
Y00722860
X01445870Y00433630
X00945870
X00935940Y00587070
Y00620090
Y00653110
X00831340
Y00620090
Y00587070
X00945870Y00829030
Y00933630
X00935940Y01087070
Y01120090
Y01153110
X00831340
Y01120090
Y01087070
X01199260Y01118260
X01331340Y01120090
Y01153110
Y01087070
X01435940
Y01120090
Y01153110
X01445870Y00933630
Y00829030
X01699260Y01118260
Y01222860
X01199260
T10
X00511670Y00329260
X00606870
X01337920Y00448030
Y00543230
X00837920
Y00448030
X00700010
Y00543230
X00506970
Y00448030
X00511670Y00673430
X00606870
Y00829260
X00511670
X00506970Y00948030
Y01043230
X00511670Y01173430
X00606870
X00700010Y01043230
Y00948030
X00837920
Y01043230
X01337920
Y00948030
T11
X00459270Y00281460
X00749270
X00809270
X01249270
X01309270
X01749270
Y00721460
Y00781460
X01309270
Y00721460
X01249270
Y00781460
X00809270
Y00721460
X00749270
Y00781460
X00459270
Y00721460
X01749270Y01221460
X01309270
X01249270
X00809270
X00749270
X00459270
T12
X01491035Y00436040
X00991035
Y00936040
X01491035
M30
