%FSAX44Y44*%
%MOMM*%
G71*
G01*
G75*
G04 Layer_Color=8388736*
%ADD10R,1.1000X1.7000*%
%ADD11R,1.7000X1.1000*%
%ADD12C,0.5080*%
%ADD13C,1.5000*%
%ADD14C,1.0000*%
%ADD15R,6.5000X6.0000*%
%ADD16R,3.0000X1.4000*%
%ADD17O,1.6500X0.5500*%
%ADD18O,0.5500X1.6500*%
%ADD19R,1.1000X1.4000*%
%ADD20O,0.6000X1.9000*%
%ADD21C,1.4000*%
%ADD22C,1.5240*%
%ADD23C,1.5000*%
%ADD24C,1.8500*%
%ADD25C,1.2700*%
%ADD26C,3.4500*%
%ADD27C,3.0000*%
%ADD28R,3.0000X3.0000*%
%ADD29C,2.0000*%
%ADD30R,2.0000X2.0000*%
%ADD31C,2.0000*%
%ADD32R,2.0000X2.0000*%
%ADD33R,2.0000X2.0000*%
%ADD34R,1.5000X1.5000*%
%ADD35R,2.0000X2.0000*%
%ADD36C,1.4000*%
%ADD37C,0.5000*%
%ADD38C,0.8000*%
%ADD39O,1.3000X0.5800*%
%ADD40R,1.3000X0.5800*%
%ADD41R,6.0000X6.5000*%
%ADD42R,1.4000X3.0000*%
%ADD43R,0.9960X2.2191*%
%ADD44C,0.2500*%
%ADD45C,0.2540*%
%ADD46C,0.2000*%
%ADD47C,0.6000*%
%ADD48C,0.5000*%
%ADD49R,2.8000X0.8000*%
%ADD50R,0.8000X2.8000*%
%ADD51R,1.3032X1.9032*%
%ADD52R,1.9032X1.3032*%
%ADD53R,6.7032X6.2032*%
%ADD54R,3.2032X1.6032*%
%ADD55O,1.8532X0.7532*%
%ADD56O,0.7532X1.8532*%
%ADD57R,1.3032X1.6032*%
%ADD58O,0.8032X2.1032*%
%ADD59C,1.7272*%
%ADD60C,1.7032*%
%ADD61C,2.0532*%
%ADD62C,3.2032*%
%ADD63R,3.2032X3.2032*%
%ADD64C,2.2032*%
%ADD65R,2.2032X2.2032*%
%ADD66C,2.2032*%
%ADD67R,2.2032X2.2032*%
%ADD68R,2.2032X2.2032*%
%ADD69R,1.7032X1.7032*%
%ADD70R,2.2032X2.2032*%
%ADD71C,1.6032*%
%ADD72C,3.6532*%
D51*
X00724610Y00597230D02*
D03*
X00751610D02*
D03*
Y00628980D02*
D03*
X00724610D02*
D03*
Y01097230D02*
D03*
X00751610D02*
D03*
Y01128980D02*
D03*
X00724610D02*
D03*
X01582560Y00490550D02*
D03*
X01555560D02*
D03*
X01655890Y00468170D02*
D03*
X01682890D02*
D03*
X01655890Y00416100D02*
D03*
X01682890D02*
D03*
X01302830Y00317830D02*
D03*
X01329830D02*
D03*
X01627010Y00490550D02*
D03*
X01600010D02*
D03*
X01655890Y00442770D02*
D03*
X01682890D02*
D03*
X01582560Y00990550D02*
D03*
X01555560D02*
D03*
X01655890Y00968170D02*
D03*
X01682890D02*
D03*
X01655890Y00916100D02*
D03*
X01682890D02*
D03*
X01302830Y00817830D02*
D03*
X01329830D02*
D03*
X01627010Y00990550D02*
D03*
X01600010D02*
D03*
X01655890Y00942770D02*
D03*
X01682890D02*
D03*
X01082560Y00490550D02*
D03*
X01055560D02*
D03*
X01155890Y00468170D02*
D03*
X01182890D02*
D03*
X01155890Y00416100D02*
D03*
X01182890D02*
D03*
X00802830Y00317830D02*
D03*
X00829830D02*
D03*
X01127010Y00490550D02*
D03*
X01100010D02*
D03*
X01155890Y00442770D02*
D03*
X01182890D02*
D03*
X01082560Y00990550D02*
D03*
X01055560D02*
D03*
X01155890Y00968170D02*
D03*
X01182890D02*
D03*
X01155890Y00916100D02*
D03*
X01182890D02*
D03*
X00802830Y00817830D02*
D03*
X00829830D02*
D03*
X01127010Y00990550D02*
D03*
X01100010D02*
D03*
X01155890Y00942770D02*
D03*
X01182890D02*
D03*
D52*
X00471410Y00389750D02*
D03*
Y00362750D02*
D03*
X00687310Y00625970D02*
D03*
Y00598970D02*
D03*
X00471410Y00889750D02*
D03*
Y00862750D02*
D03*
X00687310Y01125970D02*
D03*
Y01098970D02*
D03*
X01758290Y00324650D02*
D03*
Y00351650D02*
D03*
X01416660Y00314820D02*
D03*
Y00287820D02*
D03*
X01561440Y00535470D02*
D03*
Y00562470D02*
D03*
X01440790Y00267500D02*
D03*
Y00294500D02*
D03*
X01297280Y00396100D02*
D03*
Y00369100D02*
D03*
X01467460Y00304660D02*
D03*
Y00277660D02*
D03*
X01758290Y00824650D02*
D03*
Y00851650D02*
D03*
X01416660Y00814820D02*
D03*
Y00787820D02*
D03*
X01561440Y01035470D02*
D03*
Y01062470D02*
D03*
X01440790Y00767500D02*
D03*
Y00794500D02*
D03*
X01297280Y00896100D02*
D03*
Y00869100D02*
D03*
X01467460Y00804660D02*
D03*
Y00777660D02*
D03*
X01258290Y00324650D02*
D03*
Y00351650D02*
D03*
X00916660Y00314820D02*
D03*
Y00287820D02*
D03*
X01061440Y00535470D02*
D03*
Y00562470D02*
D03*
X00940790Y00267500D02*
D03*
Y00294500D02*
D03*
X00797280Y00396100D02*
D03*
Y00369100D02*
D03*
X00967460Y00304660D02*
D03*
Y00277660D02*
D03*
X01258290Y00824650D02*
D03*
Y00851650D02*
D03*
X00916660Y00814820D02*
D03*
Y00787820D02*
D03*
X01061440Y01035470D02*
D03*
Y01062470D02*
D03*
X00940790Y00767500D02*
D03*
Y00794500D02*
D03*
X00797280Y00896100D02*
D03*
Y00869100D02*
D03*
X00967460Y00804660D02*
D03*
Y00777660D02*
D03*
D53*
X01660000Y00539930D02*
D03*
Y01039930D02*
D03*
X01160000Y00539930D02*
D03*
Y01039930D02*
D03*
D54*
X01597500Y00517230D02*
D03*
X01597500Y00562930D02*
D03*
X01597500Y01017230D02*
D03*
X01597500Y01062930D02*
D03*
X01097500Y00517230D02*
D03*
X01097500Y00562930D02*
D03*
X01097500Y01017230D02*
D03*
X01097500Y01062930D02*
D03*
D55*
X01535950Y00382540D02*
D03*
Y00390540D02*
D03*
Y00398540D02*
D03*
Y00406540D02*
D03*
Y00414540D02*
D03*
Y00422540D02*
D03*
Y00430540D02*
D03*
Y00438540D02*
D03*
X01619950D02*
D03*
Y00430540D02*
D03*
Y00422540D02*
D03*
Y00414540D02*
D03*
Y00406540D02*
D03*
Y00398540D02*
D03*
Y00390540D02*
D03*
Y00382540D02*
D03*
X01535950Y00882540D02*
D03*
Y00890540D02*
D03*
Y00898540D02*
D03*
Y00906540D02*
D03*
Y00914540D02*
D03*
Y00922540D02*
D03*
Y00930540D02*
D03*
Y00938540D02*
D03*
X01619950D02*
D03*
Y00930540D02*
D03*
Y00922540D02*
D03*
Y00914540D02*
D03*
Y00906540D02*
D03*
Y00898540D02*
D03*
Y00890540D02*
D03*
Y00882540D02*
D03*
X01035950Y00382540D02*
D03*
Y00390540D02*
D03*
Y00398540D02*
D03*
Y00406540D02*
D03*
Y00414540D02*
D03*
Y00422540D02*
D03*
Y00430540D02*
D03*
Y00438540D02*
D03*
X01119950D02*
D03*
Y00430540D02*
D03*
Y00422540D02*
D03*
Y00414540D02*
D03*
Y00406540D02*
D03*
Y00398540D02*
D03*
Y00390540D02*
D03*
Y00382540D02*
D03*
X01035950Y00882540D02*
D03*
Y00890540D02*
D03*
Y00898540D02*
D03*
Y00906540D02*
D03*
Y00914540D02*
D03*
Y00922540D02*
D03*
Y00930540D02*
D03*
Y00938540D02*
D03*
X01119950D02*
D03*
Y00930540D02*
D03*
Y00922540D02*
D03*
Y00914540D02*
D03*
Y00906540D02*
D03*
Y00898540D02*
D03*
Y00890540D02*
D03*
Y00882540D02*
D03*
D56*
X01549950Y00452540D02*
D03*
X01557950D02*
D03*
X01565950D02*
D03*
X01573950D02*
D03*
X01581950D02*
D03*
X01589950D02*
D03*
X01597950D02*
D03*
X01605950D02*
D03*
Y00368540D02*
D03*
X01597950D02*
D03*
X01589950D02*
D03*
X01581950D02*
D03*
X01573950D02*
D03*
X01565950D02*
D03*
X01557950D02*
D03*
X01549950D02*
D03*
Y00952540D02*
D03*
X01557950D02*
D03*
X01565950D02*
D03*
X01573950D02*
D03*
X01581950D02*
D03*
X01589950D02*
D03*
X01597950D02*
D03*
X01605950D02*
D03*
Y00868540D02*
D03*
X01597950D02*
D03*
X01589950D02*
D03*
X01581950D02*
D03*
X01573950D02*
D03*
X01565950D02*
D03*
X01557950D02*
D03*
X01549950D02*
D03*
X01049950Y00452540D02*
D03*
X01057950D02*
D03*
X01065950D02*
D03*
X01073950D02*
D03*
X01081950D02*
D03*
X01089950D02*
D03*
X01097950D02*
D03*
X01105950D02*
D03*
Y00368540D02*
D03*
X01097950D02*
D03*
X01089950D02*
D03*
X01081950D02*
D03*
X01073950D02*
D03*
X01065950D02*
D03*
X01057950D02*
D03*
X01049950D02*
D03*
Y00952540D02*
D03*
X01057950D02*
D03*
X01065950D02*
D03*
X01073950D02*
D03*
X01081950D02*
D03*
X01089950D02*
D03*
X01097950D02*
D03*
X01105950D02*
D03*
Y00868540D02*
D03*
X01097950D02*
D03*
X01089950D02*
D03*
X01081950D02*
D03*
X01073950D02*
D03*
X01065950D02*
D03*
X01057950D02*
D03*
X01049950D02*
D03*
D57*
X01733650Y00457530D02*
D03*
X01717650D02*
D03*
X01733650Y00427530D02*
D03*
X01717650D02*
D03*
X01733650Y00957530D02*
D03*
X01717650D02*
D03*
X01733650Y00927530D02*
D03*
X01717650D02*
D03*
X01233650Y00457530D02*
D03*
X01217650D02*
D03*
X01233650Y00427530D02*
D03*
X01217650D02*
D03*
X01233650Y00957530D02*
D03*
X01217650D02*
D03*
X01233650Y00927530D02*
D03*
X01217650D02*
D03*
D58*
X01351890Y00275280D02*
D03*
X01364590D02*
D03*
X01377290D02*
D03*
X01389990D02*
D03*
X01351890Y00327360D02*
D03*
X01364590D02*
D03*
X01377290D02*
D03*
X01389990D02*
D03*
X01351890Y00775280D02*
D03*
X01364590D02*
D03*
X01377290D02*
D03*
X01389990D02*
D03*
X01351890Y00827360D02*
D03*
X01364590D02*
D03*
X01377290D02*
D03*
X01389990D02*
D03*
X00851890Y00275280D02*
D03*
X00864590D02*
D03*
X00877290D02*
D03*
X00889990D02*
D03*
X00851890Y00327360D02*
D03*
X00864590D02*
D03*
X00877290D02*
D03*
X00889990D02*
D03*
X00851890Y00775280D02*
D03*
X00864590D02*
D03*
X00877290D02*
D03*
X00889990D02*
D03*
X00851890Y00827360D02*
D03*
X00864590D02*
D03*
X00877290D02*
D03*
X00889990D02*
D03*
D59*
X00459270Y00721460D02*
D03*
Y00281460D02*
D03*
X00749270D02*
D03*
Y00721460D02*
D03*
X00459270Y01221460D02*
D03*
Y00781460D02*
D03*
X00749270D02*
D03*
Y01221460D02*
D03*
X01716380Y00376520D02*
D03*
Y00327720D02*
D03*
X01309270Y00721460D02*
D03*
Y00281460D02*
D03*
X01749270D02*
D03*
Y00721460D02*
D03*
X01716380Y00876520D02*
D03*
Y00827720D02*
D03*
X01309270Y01221460D02*
D03*
Y00781460D02*
D03*
X01749270D02*
D03*
Y01221460D02*
D03*
X01216380Y00376520D02*
D03*
Y00327720D02*
D03*
X00809270Y00721460D02*
D03*
Y00281460D02*
D03*
X01249270D02*
D03*
Y00721460D02*
D03*
X01216380Y00876520D02*
D03*
Y00827720D02*
D03*
X00809270Y01221460D02*
D03*
Y00781460D02*
D03*
X01249270D02*
D03*
Y01221460D02*
D03*
D60*
X00669510Y00510830D02*
D03*
Y00490430D02*
D03*
Y00470030D02*
D03*
X00649210Y00521030D02*
D03*
Y00500630D02*
D03*
Y00480230D02*
D03*
X00543870Y00380060D02*
D03*
X00564270D02*
D03*
X00584670D02*
D03*
X00533670Y00359760D02*
D03*
X00554070D02*
D03*
X00574470D02*
D03*
X00557770Y00511030D02*
D03*
Y00490630D02*
D03*
Y00470230D02*
D03*
X00537470Y00521230D02*
D03*
Y00500830D02*
D03*
Y00480430D02*
D03*
X00574670Y00622630D02*
D03*
X00554270D02*
D03*
X00533870D02*
D03*
X00584870Y00642930D02*
D03*
X00564470D02*
D03*
X00544070D02*
D03*
X00669510Y01010830D02*
D03*
Y00990430D02*
D03*
Y00970030D02*
D03*
X00649210Y01021030D02*
D03*
Y01000630D02*
D03*
Y00980230D02*
D03*
X00543870Y00880060D02*
D03*
X00564270D02*
D03*
X00584670D02*
D03*
X00533670Y00859760D02*
D03*
X00554070D02*
D03*
X00574470D02*
D03*
X00557770Y01011030D02*
D03*
Y00990630D02*
D03*
Y00970230D02*
D03*
X00537470Y01021230D02*
D03*
Y01000830D02*
D03*
Y00980430D02*
D03*
X00574670Y01122630D02*
D03*
X00554270D02*
D03*
X00533870D02*
D03*
X00584870Y01142930D02*
D03*
X00564470D02*
D03*
X00544070D02*
D03*
X01377290Y00371170D02*
D03*
X01326490D02*
D03*
Y00396570D02*
D03*
X01351890Y00371170D02*
D03*
Y00396570D02*
D03*
X01388720Y00511030D02*
D03*
Y00490630D02*
D03*
Y00470230D02*
D03*
X01368420Y00521230D02*
D03*
Y00500830D02*
D03*
Y00480430D02*
D03*
X01377290Y00871170D02*
D03*
X01326490D02*
D03*
Y00896570D02*
D03*
X01351890Y00871170D02*
D03*
Y00896570D02*
D03*
X01388720Y01011030D02*
D03*
Y00990630D02*
D03*
Y00970230D02*
D03*
X01368420Y01021230D02*
D03*
Y01000830D02*
D03*
Y00980430D02*
D03*
X00877290Y00371170D02*
D03*
X00826490D02*
D03*
Y00396570D02*
D03*
X00851890Y00371170D02*
D03*
Y00396570D02*
D03*
X00888720Y00511030D02*
D03*
Y00490630D02*
D03*
Y00470230D02*
D03*
X00868420Y00521230D02*
D03*
Y00500830D02*
D03*
Y00480430D02*
D03*
X00877290Y00871170D02*
D03*
X00826490D02*
D03*
Y00896570D02*
D03*
X00851890Y00871170D02*
D03*
Y00896570D02*
D03*
X00888720Y01011030D02*
D03*
Y00990630D02*
D03*
Y00970230D02*
D03*
X00868420Y01021230D02*
D03*
Y01000830D02*
D03*
Y00980430D02*
D03*
D61*
X00657230Y00701380D02*
D03*
X00682230D02*
D03*
X00707230D02*
D03*
X00657230Y00734380D02*
D03*
X00682230D02*
D03*
X00707230D02*
D03*
X00657230Y01201380D02*
D03*
X00682230D02*
D03*
X00707230D02*
D03*
X00657230Y01234380D02*
D03*
X00682230D02*
D03*
X00707230D02*
D03*
D62*
X01491035Y00436040D02*
D03*
Y00936040D02*
D03*
X00991035Y00436040D02*
D03*
Y00936040D02*
D03*
D63*
X01657870Y00284040D02*
D03*
Y00666445D02*
D03*
X01499765D02*
D03*
X01501035Y00284040D02*
D03*
X01657870Y00784040D02*
D03*
Y01166445D02*
D03*
X01499765D02*
D03*
X01501035Y00784040D02*
D03*
X01157870Y00284040D02*
D03*
Y00666445D02*
D03*
X00999765D02*
D03*
X01001035Y00284040D02*
D03*
X01157870Y00784040D02*
D03*
Y01166445D02*
D03*
X00999765D02*
D03*
X01001035Y00784040D02*
D03*
D64*
X01724000Y00535000D02*
D03*
X01749400D02*
D03*
Y00509600D02*
D03*
X01435710Y00720420D02*
D03*
X01410310D02*
D03*
X01384910D02*
D03*
X01359510D02*
D03*
Y00695020D02*
D03*
X01384910D02*
D03*
X01410310D02*
D03*
X01741780Y00619220D02*
D03*
X01724000Y01035000D02*
D03*
X01749400D02*
D03*
Y01009600D02*
D03*
X01435710Y01220420D02*
D03*
X01410310D02*
D03*
X01384910D02*
D03*
X01359510D02*
D03*
Y01195020D02*
D03*
X01384910D02*
D03*
X01410310D02*
D03*
X01741780Y01119220D02*
D03*
X01224000Y00535000D02*
D03*
X01249400D02*
D03*
Y00509600D02*
D03*
X00935710Y00720420D02*
D03*
X00910310D02*
D03*
X00884910D02*
D03*
X00859510D02*
D03*
Y00695020D02*
D03*
X00884910D02*
D03*
X00910310D02*
D03*
X01241780Y00619220D02*
D03*
X01224000Y01035000D02*
D03*
X01249400D02*
D03*
Y01009600D02*
D03*
X00935710Y01220420D02*
D03*
X00910310D02*
D03*
X00884910D02*
D03*
X00859510D02*
D03*
Y01195020D02*
D03*
X00884910D02*
D03*
X00910310D02*
D03*
X01241780Y01119220D02*
D03*
D65*
X01724000Y00509600D02*
D03*
X01741780Y00644220D02*
D03*
X01724000Y01009600D02*
D03*
X01741780Y01144220D02*
D03*
X01224000Y00509600D02*
D03*
X01241780Y00644220D02*
D03*
X01224000Y01009600D02*
D03*
X01241780Y01144220D02*
D03*
D66*
X01445870Y00433630D02*
D03*
X01331340Y00620090D02*
D03*
Y00653110D02*
D03*
X01699260Y00618260D02*
D03*
X01331340Y00587070D02*
D03*
X01445870Y00933630D02*
D03*
X01331340Y01120090D02*
D03*
Y01153110D02*
D03*
X01699260Y01118260D02*
D03*
X01331340Y01087070D02*
D03*
X00945870Y00433630D02*
D03*
X00831340Y00620090D02*
D03*
Y00653110D02*
D03*
X01199260Y00618260D02*
D03*
X00831340Y00587070D02*
D03*
X00945870Y00933630D02*
D03*
X00831340Y01120090D02*
D03*
Y01153110D02*
D03*
X01199260Y01118260D02*
D03*
X00831340Y01087070D02*
D03*
D67*
X01445870Y00329030D02*
D03*
X01699260Y00722860D02*
D03*
X01445870Y00829030D02*
D03*
X01699260Y01222860D02*
D03*
X00945870Y00329030D02*
D03*
X01199260Y00722860D02*
D03*
X00945870Y00829030D02*
D03*
X01199260Y01222860D02*
D03*
D68*
X01435710Y00695020D02*
D03*
Y01195020D02*
D03*
X00935710Y00695020D02*
D03*
Y01195020D02*
D03*
D69*
X01377290Y00396570D02*
D03*
Y00896570D02*
D03*
X00877290Y00396570D02*
D03*
Y00896570D02*
D03*
D70*
X01435940Y00620090D02*
D03*
Y00653110D02*
D03*
Y00587070D02*
D03*
Y01120090D02*
D03*
Y01153110D02*
D03*
Y01087070D02*
D03*
X00935940Y00620090D02*
D03*
Y00653110D02*
D03*
Y00587070D02*
D03*
Y01120090D02*
D03*
Y01153110D02*
D03*
Y01087070D02*
D03*
D71*
X01759560Y00369900D02*
D03*
Y00471500D02*
D03*
Y00395300D02*
D03*
Y00869900D02*
D03*
Y00971500D02*
D03*
Y00895300D02*
D03*
X01259560Y00369900D02*
D03*
Y00471500D02*
D03*
Y00395300D02*
D03*
Y00869900D02*
D03*
Y00971500D02*
D03*
Y00895300D02*
D03*
D72*
X01337920Y00543230D02*
D03*
Y00448030D02*
D03*
Y01043230D02*
D03*
Y00948030D02*
D03*
X00837920Y00543230D02*
D03*
Y00448030D02*
D03*
Y01043230D02*
D03*
Y00948030D02*
D03*
M02*
