%FSAX44Y44*%
%MOMM*%
G71*
G01*
G75*
G04 Layer_Color=16711935*
%ADD10R,1.1000X1.7000*%
%ADD11R,1.7000X1.1000*%
%ADD12C,0.5080*%
%ADD13C,1.5000*%
%ADD14C,1.0000*%
%ADD15R,6.5000X6.0000*%
%ADD16R,3.0000X1.4000*%
%ADD17O,1.6500X0.5500*%
%ADD18O,0.5500X1.6500*%
%ADD19R,1.1000X1.4000*%
%ADD20O,0.6000X1.9000*%
%ADD21C,1.4000*%
%ADD22C,1.5240*%
%ADD23C,1.5000*%
%ADD24C,1.8500*%
%ADD25C,1.2700*%
%ADD26C,3.4500*%
%ADD27C,3.0000*%
%ADD28R,3.0000X3.0000*%
%ADD29C,2.0000*%
%ADD30R,2.0000X2.0000*%
%ADD31C,2.0000*%
%ADD32R,2.0000X2.0000*%
%ADD33R,2.0000X2.0000*%
%ADD34R,1.5000X1.5000*%
%ADD35R,2.0000X2.0000*%
%ADD36C,1.4000*%
%ADD37C,0.5000*%
%ADD38C,0.8000*%
%ADD39O,1.3000X0.5800*%
%ADD40R,1.3000X0.5800*%
%ADD41R,6.0000X6.5000*%
%ADD42R,1.4000X3.0000*%
%ADD43R,0.9960X2.2191*%
%ADD44C,0.2500*%
%ADD45C,0.2540*%
%ADD46C,0.2000*%
%ADD47C,0.6000*%
%ADD48C,0.5000*%
%ADD49R,2.8000X0.8000*%
%ADD50R,0.8000X2.8000*%
%ADD51R,1.3032X1.9032*%
%ADD52R,1.9032X1.3032*%
%ADD53R,6.7032X6.2032*%
%ADD54R,3.2032X1.6032*%
%ADD55O,1.8532X0.7532*%
%ADD56O,0.7532X1.8532*%
%ADD57R,1.3032X1.6032*%
%ADD58O,0.8032X2.1032*%
%ADD59C,1.7272*%
%ADD60C,1.7032*%
%ADD61C,2.0532*%
%ADD62C,3.2032*%
%ADD63R,3.2032X3.2032*%
%ADD64C,2.2032*%
%ADD65R,2.2032X2.2032*%
%ADD66C,2.2032*%
%ADD67R,2.2032X2.2032*%
%ADD68R,2.2032X2.2032*%
%ADD69R,1.7032X1.7032*%
%ADD70R,2.2032X2.2032*%
%ADD71C,1.6032*%
%ADD72C,3.6532*%
%ADD73O,1.5032X0.7832*%
%ADD74R,1.5032X0.7832*%
%ADD75R,6.2032X6.7032*%
%ADD76R,1.6032X3.2032*%
%ADD77C,0.0254*%
D45*
X00779270Y00751460D02*
X00429270D01*
Y00251460D02*
Y00751460D01*
X00779270Y00251460D02*
X00429270D01*
X00779270D02*
Y00751460D01*
Y01251460D02*
X00429270D01*
Y00751460D02*
Y01251460D01*
X00779270Y00751460D02*
X00429270D01*
X00779270D02*
Y01251460D01*
X01779270Y00251460D02*
Y00751460D01*
X01279270D01*
Y00251460D02*
Y00751460D01*
X01779270Y00251460D02*
X01279270D01*
X01779270Y00751460D02*
Y01251460D01*
X01279270D01*
Y00751460D02*
Y01251460D01*
X01779270Y00751460D02*
X01279270D01*
Y00251460D02*
Y00751460D01*
X00779270D01*
Y00251460D02*
Y00751460D01*
X01279270Y00251460D02*
X00779270D01*
X01279270Y00751460D02*
Y01251460D01*
X00779270D01*
Y00751460D02*
Y01251460D01*
X01279270Y00751460D02*
X00779270D01*
M02*
