%FSAX44Y44*%
%MOMM*%
G71*
G01*
G75*
G04 Layer_Physical_Order=2*
G04 Layer_Color=16711680*
%ADD10O,1.6500X0.5500*%
%ADD11O,0.5500X1.6500*%
%ADD12R,1.1000X1.7000*%
%ADD13R,1.7000X1.1000*%
%ADD14R,1.4000X1.1000*%
%ADD15R,1.4000X3.0000*%
%ADD16R,6.0000X6.5000*%
%ADD17O,1.9000X0.6000*%
%ADD18C,1.5000*%
%ADD19C,1.4000*%
%ADD20C,0.5080*%
%ADD21C,1.4000*%
%ADD22C,1.5240*%
%ADD23R,2.0000X2.0000*%
%ADD24C,2.0000*%
%ADD25R,2.0000X2.0000*%
%ADD26R,2.0000X2.0000*%
%ADD27C,2.0000*%
%ADD28C,1.5000*%
%ADD29R,1.5000X1.5000*%
%ADD30R,2.0000X2.0000*%
%ADD31R,3.0000X3.0000*%
%ADD32C,3.0000*%
%ADD33C,0.5000*%
%ADD34C,0.8000*%
%ADD35C,3.4500*%
%ADD36R,3.0000X1.4000*%
%ADD37R,6.5000X6.0000*%
%ADD38R,0.5800X1.3000*%
%ADD39O,0.5800X1.3000*%
%ADD40C,1.0000*%
%ADD41R,2.2191X0.9960*%
G36*
X00596156Y00203844D02*
X00103844D01*
Y00696156D01*
X00596156D01*
Y00203844D01*
D02*
G37*
%LPC*%
G36*
X00167720Y00329810D02*
X00161680D01*
Y00326770D01*
X00167720D01*
Y00329810D01*
D02*
G37*
G36*
X00532525Y00338940D02*
X00519985D01*
Y00326400D01*
X00532525D01*
Y00338940D01*
D02*
G37*
G36*
X00191850Y00342850D02*
X00185810D01*
Y00326770D01*
X00191850D01*
Y00334810D01*
Y00342850D01*
D02*
G37*
G36*
X00183760D02*
X00177720D01*
Y00334810D01*
Y00326770D01*
X00183760D01*
Y00342850D01*
D02*
G37*
G36*
X00127580Y00338940D02*
X00115040D01*
Y00326400D01*
X00127580D01*
Y00338940D01*
D02*
G37*
G36*
X00341710Y00322200D02*
X00335670D01*
Y00319160D01*
X00341710D01*
Y00322200D01*
D02*
G37*
G36*
X00509985Y00338940D02*
X00497445D01*
Y00326400D01*
X00509985D01*
Y00338940D01*
D02*
G37*
G36*
X00150120D02*
X00137580D01*
Y00326400D01*
X00150120D01*
Y00338940D01*
D02*
G37*
G36*
X00167720Y00342850D02*
X00161680D01*
Y00339810D01*
X00167720D01*
Y00342850D01*
D02*
G37*
G36*
X00343560Y00427300D02*
X00339020D01*
Y00414760D01*
X00343560D01*
Y00427300D01*
D02*
G37*
G36*
X00513340Y00417900D02*
X00500800D01*
Y00413360D01*
X00513340D01*
Y00417900D01*
D02*
G37*
G36*
X00419760Y00427300D02*
X00415220D01*
Y00414760D01*
X00419760D01*
Y00427300D01*
D02*
G37*
G36*
X00405220D02*
X00400680D01*
Y00414760D01*
X00405220D01*
Y00427300D01*
D02*
G37*
G36*
X00465420Y00449800D02*
X00446420D01*
Y00414800D01*
X00450781D01*
Y00409780D01*
X00447460D01*
Y00387780D01*
X00463460D01*
Y00409780D01*
X00461059D01*
Y00414800D01*
X00465420D01*
Y00449800D01*
D02*
G37*
G36*
X00513300Y00386700D02*
X00478300D01*
Y00379789D01*
X00463460D01*
Y00385650D01*
X00447460D01*
Y00363650D01*
X00463460D01*
Y00369511D01*
X00478300D01*
Y00367700D01*
X00513300D01*
Y00386700D01*
D02*
G37*
G36*
X00490800Y00417900D02*
X00478260D01*
Y00413360D01*
X00490800D01*
Y00417900D01*
D02*
G37*
G36*
X00389220Y00449800D02*
X00370220D01*
Y00414800D01*
X00374581D01*
Y00411390D01*
X00368730D01*
Y00395390D01*
X00390730D01*
Y00411390D01*
X00384859D01*
Y00414800D01*
X00389220D01*
Y00449800D01*
D02*
G37*
G36*
X00467130Y00288198D02*
X00463867Y00287768D01*
X00460826Y00286509D01*
X00458215Y00284505D01*
X00456211Y00281894D01*
X00454952Y00278853D01*
X00454522Y00275590D01*
X00454952Y00272327D01*
X00456211Y00269286D01*
X00458215Y00266675D01*
X00460826Y00264671D01*
X00463867Y00263412D01*
X00467130Y00262982D01*
X00470393Y00263412D01*
X00473434Y00264671D01*
X00476045Y00266675D01*
X00478049Y00269286D01*
X00479308Y00272327D01*
X00479738Y00275590D01*
X00479308Y00278853D01*
X00478049Y00281894D01*
X00476045Y00284505D01*
X00473434Y00286509D01*
X00470393Y00287768D01*
X00467130Y00288198D01*
D02*
G37*
G36*
X00183720Y00315810D02*
X00161720D01*
Y00299810D01*
X00167581D01*
Y00296750D01*
X00162650D01*
Y00274750D01*
X00165511D01*
Y00268500D01*
X00165511Y00268500D01*
X00165511D01*
X00165902Y00266534D01*
X00166466Y00265690D01*
X00166401Y00265532D01*
X00166053Y00262890D01*
X00166401Y00260248D01*
X00167420Y00257786D01*
X00169042Y00255672D01*
X00171156Y00254050D01*
X00173618Y00253030D01*
X00176260Y00252683D01*
X00178902Y00253030D01*
X00181364Y00254050D01*
X00183478Y00255672D01*
X00185100Y00257786D01*
X00186119Y00260248D01*
X00186467Y00262890D01*
X00186119Y00265532D01*
X00185100Y00267994D01*
X00183478Y00270108D01*
X00181364Y00271730D01*
X00178902Y00272750D01*
X00176260Y00273097D01*
X00175789Y00273511D01*
Y00274750D01*
X00178650D01*
Y00296750D01*
X00177859D01*
Y00299810D01*
X00183720D01*
Y00315810D01*
D02*
G37*
G36*
X00440238Y00273270D02*
X00439970D01*
Y00272361D01*
X00440094Y00272547D01*
X00440238Y00273270D01*
D02*
G37*
G36*
X00584230Y00288090D02*
X00559230D01*
Y00263090D01*
X00584230D01*
Y00288090D01*
D02*
G37*
G36*
X00570000Y00252609D02*
X00565589Y00252174D01*
X00561348Y00250888D01*
X00557439Y00248799D01*
X00554013Y00245987D01*
X00551201Y00242561D01*
X00549112Y00238652D01*
X00547826Y00234411D01*
X00547391Y00230000D01*
X00547826Y00225589D01*
X00549112Y00221348D01*
X00551201Y00217439D01*
X00554013Y00214013D01*
X00557439Y00211201D01*
X00561348Y00209112D01*
X00565589Y00207826D01*
X00570000Y00207391D01*
X00574411Y00207826D01*
X00578652Y00209112D01*
X00582561Y00211201D01*
X00585987Y00214013D01*
X00588799Y00217439D01*
X00590888Y00221348D01*
X00592174Y00225589D01*
X00592609Y00230000D01*
X00592174Y00234411D01*
X00590888Y00238652D01*
X00588799Y00242561D01*
X00585987Y00245987D01*
X00582561Y00248799D01*
X00578652Y00250888D01*
X00574411Y00252174D01*
X00570000Y00252609D01*
D02*
G37*
G36*
X00130000D02*
X00125589Y00252174D01*
X00121348Y00250888D01*
X00117439Y00248799D01*
X00114013Y00245987D01*
X00111201Y00242561D01*
X00109112Y00238652D01*
X00107826Y00234411D01*
X00107391Y00230000D01*
X00107826Y00225589D01*
X00109112Y00221348D01*
X00111201Y00217439D01*
X00114013Y00214013D01*
X00117439Y00211201D01*
X00121348Y00209112D01*
X00125589Y00207826D01*
X00130000Y00207391D01*
X00134411Y00207826D01*
X00138652Y00209112D01*
X00142561Y00211201D01*
X00145987Y00214013D01*
X00148799Y00217439D01*
X00150888Y00221348D01*
X00152174Y00225589D01*
X00152609Y00230000D01*
X00152174Y00234411D01*
X00150888Y00238652D01*
X00148799Y00242561D01*
X00145987Y00245987D01*
X00142561Y00248799D01*
X00138652Y00250888D01*
X00134411Y00252174D01*
X00130000Y00252609D01*
D02*
G37*
G36*
X00400050Y00297239D02*
X00363220D01*
X00361254Y00296848D01*
X00359586Y00295734D01*
X00337996Y00274144D01*
X00336882Y00272477D01*
X00336491Y00270510D01*
Y00236220D01*
X00336491Y00236220D01*
X00336491D01*
X00336882Y00234254D01*
X00337996Y00232586D01*
X00344346Y00226236D01*
X00344346D01*
X00344346Y00226236D01*
X00344346Y00226236D01*
Y00226236D01*
X00346013Y00225122D01*
X00346627Y00225000D01*
X00347221Y00223566D01*
X00349225Y00220955D01*
X00351836Y00218951D01*
X00354877Y00217692D01*
X00358140Y00217262D01*
X00361403Y00217692D01*
X00364444Y00218951D01*
X00367055Y00220955D01*
X00369059Y00223566D01*
X00370205Y00226333D01*
X00370318D01*
Y00226333D01*
D01*
D01*
X00370318D01*
X00371362D01*
D01*
D01*
Y00226333D01*
X00371475D01*
X00372621Y00223566D01*
X00374625Y00220955D01*
X00377236Y00218951D01*
X00380277Y00217692D01*
X00383540Y00217262D01*
X00386803Y00217692D01*
X00389844Y00218951D01*
X00392455Y00220955D01*
X00394459Y00223566D01*
X00394941Y00224731D01*
X00400050D01*
X00402016Y00225122D01*
X00403684Y00226236D01*
X00428284Y00250836D01*
X00429398Y00252504D01*
X00429789Y00254470D01*
X00429789Y00254470D01*
X00429789Y00254470D01*
Y00254470D01*
Y00270445D01*
X00429970Y00270500D01*
Y00272432D01*
X00430057Y00272563D01*
X00430476Y00274670D01*
Y00278270D01*
Y00281870D01*
X00430057Y00283977D01*
X00429970Y00284107D01*
Y00285093D01*
X00429311D01*
X00428863Y00285763D01*
X00427077Y00286957D01*
X00424970Y00287376D01*
X00422863Y00286957D01*
X00421077Y00285763D01*
X00420605Y00285057D01*
X00419335D01*
X00418863Y00285763D01*
X00417077Y00286957D01*
X00414970Y00287376D01*
X00412863Y00286957D01*
X00411077Y00285763D01*
X00411004Y00285654D01*
X00409789Y00286023D01*
Y00287500D01*
X00409398Y00289466D01*
X00408284Y00291134D01*
X00403684Y00295734D01*
X00402016Y00296848D01*
X00400050Y00297239D01*
D02*
G37*
G36*
X00320040Y00229292D02*
X00317560Y00228965D01*
X00315249Y00228008D01*
X00313265Y00226485D01*
X00311742Y00224501D01*
X00310784Y00222190D01*
X00310458Y00219710D01*
X00310784Y00217230D01*
X00311742Y00214919D01*
X00313265Y00212934D01*
X00315249Y00211412D01*
X00317560Y00210455D01*
X00320040Y00210128D01*
X00322520Y00210455D01*
X00324831Y00211412D01*
X00326815Y00212934D01*
X00328338Y00214919D01*
X00329296Y00217230D01*
X00329622Y00219710D01*
X00329296Y00222190D01*
X00328338Y00224501D01*
X00326815Y00226485D01*
X00324831Y00228008D01*
X00322520Y00228965D01*
X00320040Y00229292D01*
D02*
G37*
G36*
X00439970Y00284179D02*
Y00283270D01*
X00440238D01*
X00440094Y00283993D01*
X00439970Y00284179D01*
D02*
G37*
G36*
X00357750Y00322200D02*
X00351710D01*
Y00314160D01*
Y00306120D01*
X00357750D01*
Y00322200D01*
D02*
G37*
G36*
X00341710Y00309160D02*
X00335670D01*
Y00306120D01*
X00341710D01*
Y00309160D01*
D02*
G37*
G36*
X00384420D02*
X00378380D01*
Y00306120D01*
X00384420D01*
Y00309160D01*
D02*
G37*
G36*
X00368380Y00322200D02*
X00362340D01*
Y00306120D01*
X00368380D01*
Y00314160D01*
Y00322200D01*
D02*
G37*
G36*
X00150120Y00316400D02*
X00137580D01*
Y00303860D01*
X00150120D01*
Y00316400D01*
D02*
G37*
G36*
X00127580D02*
X00115040D01*
Y00303860D01*
X00127580D01*
Y00316400D01*
D02*
G37*
G36*
X00532525D02*
X00519985D01*
Y00303860D01*
X00532525D01*
Y00316400D01*
D02*
G37*
G36*
X00509985D02*
X00497445D01*
Y00303860D01*
X00509985D01*
Y00316400D01*
D02*
G37*
G36*
X00490800Y00432440D02*
X00478260D01*
Y00427900D01*
X00490800D01*
Y00432440D01*
D02*
G37*
G36*
X00468630Y00660538D02*
X00465367Y00660108D01*
X00462326Y00658849D01*
X00459715Y00656845D01*
X00457711Y00654234D01*
X00456452Y00651193D01*
X00456022Y00647930D01*
X00456452Y00644667D01*
X00457711Y00641626D01*
X00459715Y00639015D01*
X00462326Y00637011D01*
X00465367Y00635752D01*
X00468630Y00635322D01*
X00471893Y00635752D01*
X00474934Y00637011D01*
X00477545Y00639015D01*
X00479549Y00641626D01*
X00480808Y00644667D01*
X00481238Y00647930D01*
X00480808Y00651193D01*
X00479549Y00654234D01*
X00477545Y00656845D01*
X00474934Y00658849D01*
X00471893Y00660108D01*
X00468630Y00660538D01*
D02*
G37*
G36*
X00435610D02*
X00432347Y00660108D01*
X00429306Y00658849D01*
X00426695Y00656845D01*
X00424691Y00654234D01*
X00423432Y00651193D01*
X00423002Y00647930D01*
X00423432Y00644667D01*
X00424691Y00641626D01*
X00426695Y00639015D01*
X00429306Y00637011D01*
X00432347Y00635752D01*
X00435610Y00635322D01*
X00438873Y00635752D01*
X00441914Y00637011D01*
X00444525Y00639015D01*
X00446529Y00641626D01*
X00447788Y00644667D01*
X00448218Y00647930D01*
X00447788Y00651193D01*
X00446529Y00654234D01*
X00444525Y00656845D01*
X00441914Y00658849D01*
X00438873Y00660108D01*
X00435610Y00660538D01*
D02*
G37*
G36*
X00214710Y00647780D02*
X00210914D01*
X00210940Y00647717D01*
X00212549Y00645619D01*
X00214647Y00644010D01*
X00214710Y00643984D01*
Y00647780D01*
D02*
G37*
G36*
X00501650Y00660538D02*
X00498387Y00660108D01*
X00495346Y00658849D01*
X00492735Y00656845D01*
X00490731Y00654234D01*
X00489472Y00651193D01*
X00489042Y00647930D01*
X00489472Y00644667D01*
X00490731Y00641626D01*
X00492735Y00639015D01*
X00495346Y00637011D01*
X00498387Y00635752D01*
X00501650Y00635322D01*
X00504913Y00635752D01*
X00507954Y00637011D01*
X00510565Y00639015D01*
X00512569Y00641626D01*
X00513828Y00644667D01*
X00514258Y00647930D01*
X00513828Y00651193D01*
X00512569Y00654234D01*
X00510565Y00656845D01*
X00507954Y00658849D01*
X00504913Y00660108D01*
X00501650Y00660538D01*
D02*
G37*
G36*
X00245110Y00662866D02*
X00242500Y00662523D01*
X00240067Y00661515D01*
X00237978Y00659912D01*
X00236375Y00657823D01*
X00235367Y00655390D01*
X00235024Y00652780D01*
X00235367Y00650170D01*
X00236375Y00647737D01*
X00237978Y00645648D01*
X00240067Y00644045D01*
X00242500Y00643037D01*
X00245110Y00642694D01*
X00247721Y00643037D01*
X00250153Y00644045D01*
X00251005Y00644698D01*
X00260131Y00635572D01*
Y00618069D01*
X00258958Y00617584D01*
X00253950Y00622591D01*
X00254853Y00624770D01*
X00255196Y00627380D01*
X00254853Y00629991D01*
X00253845Y00632423D01*
X00252242Y00634512D01*
X00250153Y00636115D01*
X00247721Y00637123D01*
X00245110Y00637466D01*
X00242500Y00637123D01*
X00240067Y00636115D01*
X00237978Y00634512D01*
X00236375Y00632423D01*
X00235367Y00629991D01*
X00235024Y00627380D01*
X00235367Y00624770D01*
X00236375Y00622337D01*
X00237978Y00620248D01*
X00240067Y00618645D01*
X00242500Y00617637D01*
X00244653Y00617354D01*
X00248854Y00613153D01*
X00248368Y00611980D01*
X00237709D01*
Y00614520D01*
X00237318Y00616487D01*
X00236204Y00618154D01*
X00229468Y00624889D01*
X00229796Y00627380D01*
X00229453Y00629991D01*
X00228445Y00632423D01*
X00226842Y00634512D01*
X00224753Y00636115D01*
X00222320Y00637123D01*
X00219710Y00637466D01*
X00217099Y00637123D01*
X00214667Y00636115D01*
X00212578Y00634512D01*
X00210975Y00632423D01*
X00209967Y00629991D01*
X00209624Y00627380D01*
X00209967Y00624770D01*
X00210975Y00622337D01*
X00212578Y00620248D01*
X00214667Y00618645D01*
X00217099Y00617637D01*
X00219710Y00617294D01*
X00222201Y00617622D01*
X00227431Y00612392D01*
Y00610096D01*
X00226292Y00609534D01*
X00224753Y00610715D01*
X00222320Y00611723D01*
X00219710Y00612066D01*
X00217099Y00611723D01*
X00214667Y00610715D01*
X00212578Y00609112D01*
X00210975Y00607023D01*
X00209967Y00604590D01*
X00209624Y00601980D01*
X00209967Y00599370D01*
X00210975Y00596937D01*
X00212578Y00594848D01*
X00214571Y00593318D01*
Y00574898D01*
X00203456Y00563784D01*
X00202342Y00562117D01*
X00201951Y00560150D01*
Y00543229D01*
X00195991Y00537269D01*
X00190070D01*
Y00545900D01*
X00165070D01*
Y00520900D01*
X00190070D01*
Y00526991D01*
X00198120D01*
X00200086Y00527382D01*
X00201754Y00528496D01*
X00208358Y00535101D01*
X00209531Y00534615D01*
Y00473765D01*
X00208358Y00473279D01*
X00127059Y00554579D01*
Y00566420D01*
X00126668Y00568386D01*
X00125554Y00570054D01*
X00123886Y00571168D01*
X00121920Y00571559D01*
X00119953Y00571168D01*
X00118286Y00570054D01*
X00117172Y00568386D01*
X00116781Y00566420D01*
Y00552450D01*
X00117172Y00550484D01*
X00118286Y00548816D01*
X00201951Y00465151D01*
Y00446960D01*
X00201951Y00446960D01*
X00201951D01*
X00202342Y00444994D01*
X00203456Y00443326D01*
X00207186Y00439596D01*
X00208853Y00438483D01*
X00210820Y00438091D01*
X00212787Y00438483D01*
X00214454Y00439596D01*
X00215567Y00441264D01*
X00215959Y00443230D01*
X00215567Y00445196D01*
X00214454Y00446864D01*
X00212229Y00449089D01*
Y00457119D01*
X00213402Y00457605D01*
X00239677Y00431330D01*
X00239410Y00430450D01*
X00240556D01*
X00241300Y00429706D01*
Y00420450D01*
X00240602D01*
X00241300Y00420311D01*
X00243267Y00420702D01*
X00243971Y00421173D01*
X00245091Y00420575D01*
Y00381802D01*
X00244172Y00380426D01*
X00243781Y00378460D01*
X00244172Y00376493D01*
X00245286Y00374826D01*
X00246954Y00373712D01*
X00248920Y00373321D01*
X00250886Y00373712D01*
X00252554Y00374826D01*
X00253864Y00376136D01*
X00254978Y00377803D01*
X00255252Y00377917D01*
X00255844Y00377522D01*
X00257810Y00377131D01*
X00259776Y00377522D01*
X00261444Y00378636D01*
X00262411Y00378732D01*
X00271397Y00369746D01*
X00273064Y00368632D01*
X00275030Y00368241D01*
X00321310D01*
X00323276Y00368632D01*
X00324944Y00369746D01*
X00326058Y00371413D01*
X00326449Y00373380D01*
X00326134Y00374960D01*
X00327254Y00375559D01*
X00330885Y00371928D01*
X00330531Y00370760D01*
X00331452D01*
Y00360760D01*
X00327714D01*
X00327708Y00360739D01*
X00250190D01*
X00248223Y00360348D01*
X00246556Y00359234D01*
X00235361Y00348039D01*
X00231140D01*
X00229174Y00347648D01*
X00227506Y00346534D01*
X00226392Y00344866D01*
X00226073Y00343259D01*
X00226073D01*
X00226073Y00343259D01*
X00224809Y00343383D01*
Y00380102D01*
X00237039Y00392332D01*
X00237917Y00392447D01*
X00239498Y00393102D01*
X00240856Y00394144D01*
X00241898Y00395502D01*
X00242553Y00397083D01*
X00242776Y00398780D01*
X00242553Y00400477D01*
X00241898Y00402058D01*
X00240856Y00403416D01*
X00239498Y00404458D01*
X00237917Y00405113D01*
X00236220Y00405336D01*
X00234523Y00405113D01*
X00232942Y00404458D01*
X00232240Y00403919D01*
X00215488D01*
X00182939Y00436469D01*
Y00477520D01*
X00182548Y00479487D01*
X00181434Y00481154D01*
X00179767Y00482268D01*
X00177800Y00482659D01*
X00175833Y00482268D01*
X00174166Y00481154D01*
X00173052Y00479487D01*
X00172661Y00477520D01*
Y00434340D01*
X00172661Y00434340D01*
X00172661D01*
X00173052Y00432374D01*
X00174166Y00430706D01*
X00182173Y00422700D01*
X00181804Y00421485D01*
X00180914Y00421308D01*
X00179246Y00420194D01*
X00178132Y00418526D01*
X00177741Y00416560D01*
X00178132Y00414594D01*
X00179246Y00412926D01*
X00206951Y00385221D01*
Y00342850D01*
X00201850D01*
Y00334810D01*
Y00326770D01*
X00206951D01*
Y00315810D01*
X00185850D01*
Y00299810D01*
X00191711D01*
Y00296750D01*
X00189650D01*
Y00274750D01*
X00205650D01*
Y00280611D01*
X00215042D01*
X00219921Y00275732D01*
Y00271703D01*
X00217842Y00270108D01*
X00216220Y00267994D01*
X00215201Y00265532D01*
X00214853Y00262890D01*
X00215201Y00260248D01*
X00216220Y00257786D01*
X00217842Y00255672D01*
X00219956Y00254050D01*
X00222418Y00253030D01*
X00225060Y00252683D01*
X00227702Y00253030D01*
X00230164Y00254050D01*
X00232278Y00255672D01*
X00233900Y00257786D01*
X00234919Y00260248D01*
X00235267Y00262890D01*
X00234919Y00265532D01*
X00233900Y00267994D01*
X00232278Y00270108D01*
X00230199Y00271703D01*
Y00277860D01*
X00229808Y00279827D01*
X00228694Y00281494D01*
X00220804Y00289384D01*
X00219137Y00290498D01*
X00217170Y00290889D01*
X00205650D01*
Y00296750D01*
X00201989D01*
Y00299810D01*
X00207850D01*
Y00309003D01*
X00209023Y00309489D01*
X00237431Y00281082D01*
Y00245968D01*
X00220485Y00229023D01*
X00218440Y00229292D01*
X00215960Y00228965D01*
X00213649Y00228008D01*
X00211665Y00226485D01*
X00210142Y00224501D01*
X00209184Y00222190D01*
X00208858Y00219710D01*
X00209184Y00217230D01*
X00210142Y00214919D01*
X00211665Y00212934D01*
X00213649Y00211412D01*
X00215960Y00210455D01*
X00218440Y00210128D01*
X00220920Y00210455D01*
X00223231Y00211412D01*
X00225215Y00212934D01*
X00226738Y00214919D01*
X00227696Y00217230D01*
X00228022Y00219710D01*
X00227753Y00221755D01*
X00243878Y00237881D01*
X00245051Y00237395D01*
Y00230096D01*
X00244096Y00229258D01*
X00243840Y00229292D01*
X00241360Y00228965D01*
X00239049Y00228008D01*
X00237064Y00226485D01*
X00235542Y00224501D01*
X00234585Y00222190D01*
X00234258Y00219710D01*
X00234585Y00217230D01*
X00235542Y00214919D01*
X00237064Y00212934D01*
X00239049Y00211412D01*
X00241360Y00210455D01*
X00243840Y00210128D01*
X00246320Y00210455D01*
X00248631Y00211412D01*
X00250615Y00212934D01*
X00252138Y00214919D01*
X00253095Y00217230D01*
X00253422Y00219710D01*
X00253153Y00221755D01*
X00253824Y00222426D01*
X00254938Y00224093D01*
X00255329Y00226060D01*
Y00286310D01*
X00254938Y00288276D01*
X00253824Y00289943D01*
X00224809Y00318958D01*
Y00342417D01*
X00225037Y00342439D01*
X00226073Y00342541D01*
X00226392Y00340933D01*
X00227506Y00339266D01*
X00229174Y00338152D01*
X00231140Y00337761D01*
X00237490D01*
X00239457Y00338152D01*
X00241124Y00339266D01*
X00252318Y00350461D01*
X00391160D01*
X00393126Y00350852D01*
X00394794Y00351966D01*
X00412338Y00369511D01*
X00420460D01*
Y00365819D01*
X00412750D01*
X00410784Y00365428D01*
X00410230Y00365058D01*
X00409116Y00364314D01*
X00401016Y00356214D01*
X00399902Y00354547D01*
X00399511Y00352580D01*
Y00340470D01*
X00389570D01*
Y00331765D01*
X00389511Y00331470D01*
Y00330259D01*
X00388209D01*
X00385904Y00332564D01*
X00384380Y00333582D01*
Y00349160D01*
X00362380D01*
Y00348725D01*
X00357710D01*
Y00349160D01*
X00335710D01*
Y00333160D01*
X00357710D01*
Y00333595D01*
X00362380D01*
Y00333160D01*
X00368241D01*
Y00330200D01*
X00368241Y00330200D01*
X00368241D01*
X00368632Y00328233D01*
X00369746Y00326566D01*
X00371016Y00325296D01*
X00372683Y00324182D01*
X00374650Y00323791D01*
X00379590D01*
X00380295Y00322735D01*
X00380073Y00322200D01*
X00378380D01*
Y00319160D01*
X00384420D01*
Y00319310D01*
X00385402Y00320116D01*
X00386080Y00319981D01*
X00389511D01*
Y00309880D01*
X00389902Y00307913D01*
X00391016Y00306246D01*
X00392683Y00305132D01*
X00394650Y00304741D01*
X00460151D01*
X00487621Y00277271D01*
Y00249990D01*
X00480260D01*
Y00243231D01*
X00479014Y00242983D01*
X00478679Y00243794D01*
X00476675Y00246405D01*
X00474064Y00248409D01*
X00471023Y00249668D01*
X00467760Y00250098D01*
X00464497Y00249668D01*
X00461456Y00248409D01*
X00458845Y00246405D01*
X00456841Y00243794D01*
X00455582Y00240753D01*
X00455152Y00237490D01*
X00455582Y00234227D01*
X00456841Y00231186D01*
X00458845Y00228575D01*
X00461456Y00226571D01*
X00464497Y00225312D01*
X00467760Y00224882D01*
X00471023Y00225312D01*
X00474064Y00226571D01*
X00476675Y00228575D01*
X00478679Y00231186D01*
X00479014Y00231996D01*
X00480260Y00231749D01*
Y00224990D01*
X00505260D01*
Y00249990D01*
X00497899D01*
Y00279400D01*
X00497508Y00281367D01*
X00496394Y00283034D01*
X00465914Y00313514D01*
X00464246Y00314628D01*
X00462280Y00315019D01*
X00399789D01*
Y00322470D01*
X00400370D01*
Y00323102D01*
X00401490Y00323701D01*
X00402863Y00322783D01*
X00404970Y00322364D01*
X00407077Y00322783D01*
X00408863Y00323977D01*
X00409335Y00324683D01*
X00410605D01*
X00411077Y00323977D01*
X00412863Y00322783D01*
X00414970Y00322364D01*
X00417077Y00322783D01*
X00418863Y00323977D01*
X00419335Y00324683D01*
X00420605D01*
X00421077Y00323977D01*
X00422863Y00322783D01*
X00424970Y00322364D01*
X00427077Y00322783D01*
X00428711Y00323875D01*
X00429831Y00323277D01*
Y00321950D01*
X00430223Y00319984D01*
X00431336Y00318316D01*
X00433004Y00317202D01*
X00434970Y00316811D01*
X00450220D01*
X00452187Y00317202D01*
X00453854Y00318316D01*
X00465914Y00330376D01*
X00467028Y00332043D01*
X00467419Y00334010D01*
X00467028Y00335976D01*
X00465914Y00337644D01*
X00464246Y00338758D01*
X00462280Y00339149D01*
X00460313Y00338758D01*
X00458646Y00337644D01*
X00448092Y00327089D01*
X00441117D01*
X00440476Y00327870D01*
Y00335070D01*
X00440057Y00337177D01*
X00439566Y00337911D01*
X00440165Y00339031D01*
X00454660D01*
X00456627Y00339422D01*
X00458294Y00340536D01*
X00459408Y00342203D01*
X00459799Y00344170D01*
X00459408Y00346137D01*
X00458294Y00347804D01*
X00456627Y00348918D01*
X00454660Y00349309D01*
X00451942D01*
X00451343Y00350429D01*
X00451788Y00351093D01*
X00452179Y00353060D01*
X00451788Y00355027D01*
X00450674Y00356694D01*
X00449007Y00357808D01*
X00447040Y00358199D01*
X00445066D01*
X00444260Y00359180D01*
X00444559Y00360680D01*
X00444168Y00362646D01*
X00443054Y00364314D01*
X00441386Y00365428D01*
X00439420Y00365819D01*
X00436460D01*
Y00385650D01*
X00420460D01*
Y00379789D01*
X00410210D01*
X00409105Y00379569D01*
X00408123Y00380375D01*
Y00385616D01*
X00416148Y00393641D01*
X00420460D01*
Y00387780D01*
X00436460D01*
Y00409780D01*
X00420460D01*
Y00403919D01*
X00414020D01*
X00412053Y00403528D01*
X00410386Y00402414D01*
X00399351Y00391378D01*
X00398237Y00389711D01*
X00397845Y00387744D01*
Y00380588D01*
X00391903Y00374646D01*
X00390730Y00375132D01*
Y00384390D01*
X00368730D01*
Y00381529D01*
X00346539D01*
X00333060Y00395008D01*
X00333546Y00396181D01*
X00346710D01*
X00348676Y00396572D01*
X00350344Y00397686D01*
X00366854Y00414196D01*
X00367968Y00415863D01*
X00368359Y00417830D01*
X00367968Y00419796D01*
X00366854Y00421464D01*
X00365187Y00422578D01*
X00363220Y00422969D01*
X00361254Y00422578D01*
X00359586Y00421464D01*
X00344581Y00406459D01*
X00332328D01*
X00325201Y00413587D01*
X00325687Y00414760D01*
X00329020D01*
Y00432300D01*
X00334020D01*
Y00437300D01*
X00343560D01*
Y00449840D01*
X00329546D01*
X00328754Y00451026D01*
X00329868Y00452693D01*
X00330259Y00454660D01*
X00329868Y00456627D01*
X00328754Y00458294D01*
X00328318Y00458585D01*
X00328687Y00459800D01*
X00389220D01*
Y00529800D01*
X00370463D01*
X00369977Y00530973D01*
X00398950Y00559946D01*
X00400124Y00559460D01*
Y00517510D01*
X00400124Y00517510D01*
X00400124D01*
X00400420Y00515260D01*
Y00459800D01*
X00465420D01*
Y00529800D01*
X00465420D01*
Y00529932D01*
X00466318Y00530830D01*
X00481130D01*
Y00555830D01*
X00456130D01*
Y00530830D01*
X00456130D01*
Y00530698D01*
X00455232Y00529800D01*
X00448110D01*
Y00530830D01*
X00448110D01*
Y00555830D01*
X00423110D01*
Y00530830D01*
X00423110D01*
Y00530698D01*
X00422212Y00529800D01*
X00420296D01*
Y00555892D01*
X00448678Y00584274D01*
X00536171D01*
X00537256Y00583441D01*
X00540023Y00582295D01*
Y00582182D01*
X00540023D01*
D01*
D01*
Y00582182D01*
Y00581138D01*
D01*
D01*
X00540023D01*
Y00581025D01*
X00537256Y00579879D01*
X00536171Y00579046D01*
X00530860D01*
X00528250Y00578703D01*
X00525817Y00577695D01*
X00523728Y00576092D01*
X00516388Y00568752D01*
X00514785Y00566663D01*
X00513777Y00564230D01*
X00513434Y00561620D01*
Y00555830D01*
X00489150D01*
Y00530830D01*
X00513434D01*
Y00529401D01*
X00513777Y00526791D01*
X00514785Y00524358D01*
X00516388Y00522269D01*
X00525089Y00513568D01*
X00527178Y00511965D01*
X00529611Y00510957D01*
X00532221Y00510614D01*
X00545732D01*
X00548214Y00508132D01*
Y00432700D01*
X00523300D01*
Y00367700D01*
X00593300D01*
Y00432700D01*
X00568386D01*
Y00512310D01*
X00568043Y00514921D01*
X00567035Y00517353D01*
X00565432Y00519442D01*
X00557042Y00527832D01*
X00554953Y00529435D01*
X00554037Y00529814D01*
X00554285Y00531060D01*
X00556060D01*
Y00538680D01*
X00557306Y00538928D01*
X00558006Y00537236D01*
X00560016Y00534616D01*
X00562636Y00532606D01*
X00563960Y00532058D01*
Y00543560D01*
X00568960D01*
Y00548560D01*
X00580462D01*
X00579914Y00549884D01*
X00577904Y00552504D01*
X00575284Y00554514D01*
X00572549Y00555647D01*
Y00555777D01*
X00572549D01*
D01*
D01*
Y00555777D01*
X00572549Y00556770D01*
Y00556782D01*
D01*
Y00556785D01*
X00572549D01*
Y00556917D01*
X00575264Y00558041D01*
X00577875Y00560045D01*
X00579879Y00562656D01*
X00581138Y00565697D01*
X00581568Y00568960D01*
X00581138Y00572223D01*
X00579879Y00575264D01*
X00577875Y00577875D01*
X00575264Y00579879D01*
X00572497Y00581025D01*
Y00581138D01*
X00572497D01*
D01*
D01*
Y00581138D01*
Y00582182D01*
D01*
D01*
X00572497D01*
Y00582295D01*
X00575264Y00583441D01*
X00577875Y00585445D01*
X00579879Y00588056D01*
X00581138Y00591097D01*
X00581568Y00594360D01*
X00581138Y00597623D01*
X00579879Y00600664D01*
X00577875Y00603275D01*
X00575264Y00605279D01*
X00572497Y00606425D01*
Y00606538D01*
X00572497D01*
D01*
D01*
Y00606538D01*
Y00607582D01*
D01*
D01*
X00572497D01*
Y00607695D01*
X00575264Y00608841D01*
X00577875Y00610845D01*
X00579879Y00613456D01*
X00581138Y00616497D01*
X00581568Y00619760D01*
X00581138Y00623023D01*
X00579879Y00626064D01*
X00577875Y00628675D01*
X00575264Y00630679D01*
X00572223Y00631938D01*
X00568960Y00632368D01*
X00565697Y00631938D01*
X00562656Y00630679D01*
X00560045Y00628675D01*
X00558041Y00626064D01*
X00556895Y00623297D01*
X00556782D01*
Y00623297D01*
X00555738D01*
X00555738D01*
D01*
D01*
Y00623297D01*
X00555625D01*
X00554479Y00626064D01*
X00552475Y00628675D01*
X00549864Y00630679D01*
X00546823Y00631938D01*
X00543560Y00632368D01*
X00540297Y00631938D01*
X00537256Y00630679D01*
X00536171Y00629846D01*
X00444500D01*
X00441889Y00629503D01*
X00439457Y00628495D01*
X00437368Y00626892D01*
X00363033Y00552557D01*
X00361860Y00553043D01*
Y00553044D01*
X00361860Y00553044D01*
D01*
Y00574880D01*
X00358999D01*
Y00579963D01*
X00359570Y00580464D01*
X00362180Y00580807D01*
X00364613Y00581815D01*
X00366702Y00583418D01*
X00376902Y00593618D01*
X00378505Y00595707D01*
X00379513Y00598139D01*
X00379856Y00600750D01*
X00379856Y00600750D01*
X00379856Y00600750D01*
Y00600750D01*
Y00610850D01*
X00379513Y00613461D01*
X00378505Y00615893D01*
X00376902Y00617982D01*
X00374813Y00619585D01*
X00372380Y00620593D01*
X00369770Y00620936D01*
X00367160Y00620593D01*
X00364727Y00619585D01*
X00362638Y00617982D01*
X00361035Y00615893D01*
X00360227Y00613941D01*
X00360226D01*
X00360027Y00613461D01*
X00359683Y00610850D01*
Y00606259D01*
X00359684Y00606259D01*
Y00604928D01*
X00352438Y00597682D01*
X00350835Y00595593D01*
X00350027Y00593642D01*
X00348757D01*
X00347940Y00595613D01*
X00346331Y00597711D01*
X00344233Y00599320D01*
X00341791Y00600332D01*
X00339170Y00600677D01*
X00336549Y00600332D01*
X00334107Y00599320D01*
X00332009Y00597711D01*
X00330400Y00595613D01*
X00329583Y00593642D01*
X00328313D01*
X00327505Y00595593D01*
X00325902Y00597682D01*
X00323813Y00599285D01*
X00321381Y00600293D01*
X00318770Y00600636D01*
X00316159Y00600293D01*
X00313727Y00599285D01*
X00311638Y00597682D01*
X00310035Y00595593D01*
X00309027Y00593161D01*
X00308684Y00590550D01*
X00308990Y00588224D01*
X00308153Y00587269D01*
X00304370D01*
Y00590130D01*
X00282370D01*
Y00574130D01*
X00304370D01*
Y00576991D01*
X00310350D01*
X00312316Y00577382D01*
X00313984Y00578496D01*
X00316279Y00580792D01*
X00318770Y00580464D01*
X00320766Y00580727D01*
X00321721Y00579889D01*
Y00574880D01*
X00318860D01*
Y00552880D01*
X00334860D01*
Y00574880D01*
X00331999D01*
Y00581962D01*
X00333138Y00582524D01*
X00334107Y00581780D01*
X00334170Y00581754D01*
Y00590550D01*
X00344170D01*
Y00581754D01*
X00344233Y00581780D01*
X00346331Y00583389D01*
X00347519Y00584938D01*
X00348721Y00584529D01*
Y00574880D01*
X00345860D01*
Y00552880D01*
X00361697D01*
X00362039Y00552054D01*
X00362183Y00551707D01*
X00349588Y00539112D01*
X00347985Y00537023D01*
X00346977Y00534590D01*
X00346634Y00531980D01*
Y00529800D01*
X00324220D01*
Y00464323D01*
X00324220D01*
X00324220Y00464323D01*
X00324220Y00459800D01*
Y00459800D01*
Y00459620D01*
X00323153Y00459408D01*
X00322489Y00458963D01*
X00321369Y00459562D01*
Y00514350D01*
X00320978Y00516316D01*
X00319864Y00517984D01*
X00318197Y00519098D01*
X00316230Y00519489D01*
X00314263Y00519098D01*
X00312596Y00517984D01*
X00311482Y00516316D01*
X00311091Y00514350D01*
Y00499347D01*
X00309846Y00499099D01*
X00309158Y00500758D01*
X00306897Y00504449D01*
X00304086Y00507741D01*
X00300794Y00510552D01*
X00297103Y00512813D01*
X00293104Y00514470D01*
X00288895Y00515480D01*
X00284580Y00515820D01*
X00280265Y00515480D01*
X00276056Y00514470D01*
X00272057Y00512813D01*
X00268366Y00510552D01*
X00265074Y00507741D01*
X00262263Y00504449D01*
X00260002Y00500758D01*
X00258345Y00496759D01*
X00257335Y00492550D01*
X00256995Y00488235D01*
X00257335Y00483920D01*
X00258345Y00479711D01*
X00260002Y00475712D01*
X00262263Y00472021D01*
X00265074Y00468729D01*
X00268366Y00465918D01*
X00272057Y00463657D01*
X00276056Y00462000D01*
X00280265Y00460990D01*
X00284580Y00460650D01*
X00288895Y00460990D01*
X00293104Y00462000D01*
X00297103Y00463657D01*
X00300794Y00465918D01*
X00304086Y00468729D01*
X00306897Y00472021D01*
X00309158Y00475712D01*
X00309846Y00477371D01*
X00311091Y00477123D01*
Y00444434D01*
X00311091Y00444434D01*
Y00436946D01*
X00311091Y00436946D01*
Y00417267D01*
X00310110Y00416462D01*
X00309320Y00416619D01*
X00280670D01*
X00278703Y00416228D01*
X00277036Y00415114D01*
X00275922Y00413447D01*
X00275531Y00411480D01*
X00275922Y00409514D01*
X00277036Y00407846D01*
X00278703Y00406732D01*
X00280670Y00406341D01*
X00307192D01*
X00316061Y00397472D01*
X00315575Y00396299D01*
X00279400D01*
X00277433Y00395908D01*
X00275766Y00394794D01*
X00274652Y00393126D01*
X00274261Y00391160D01*
X00274652Y00389193D01*
X00275766Y00387526D01*
X00277433Y00386412D01*
X00279400Y00386021D01*
X00316792D01*
X00323489Y00379324D01*
X00322890Y00378204D01*
X00321310Y00378519D01*
X00277159D01*
X00270529Y00385149D01*
Y00423697D01*
X00270529Y00423697D01*
Y00424663D01*
X00270529Y00424663D01*
Y00434380D01*
X00270138Y00436347D01*
X00269024Y00438014D01*
X00256026Y00451011D01*
X00256395Y00452226D01*
X00257236Y00452394D01*
X00258904Y00453508D01*
X00260018Y00455175D01*
X00260409Y00457141D01*
X00260018Y00459108D01*
X00258904Y00460775D01*
X00257236Y00461889D01*
X00256415Y00462052D01*
X00242589Y00475878D01*
Y00544792D01*
X00268904Y00571107D01*
X00270018Y00572774D01*
X00270409Y00574741D01*
Y00637700D01*
X00270018Y00639666D01*
X00268904Y00641334D01*
X00254853Y00655384D01*
X00254853Y00655390D01*
X00253845Y00657823D01*
X00252242Y00659912D01*
X00250153Y00661515D01*
X00247721Y00662523D01*
X00245110Y00662866D01*
D02*
G37*
G36*
X00354370Y00619646D02*
Y00615850D01*
X00358166D01*
X00358140Y00615913D01*
X00356531Y00618011D01*
X00354433Y00619620D01*
X00354370Y00619646D01*
D02*
G37*
G36*
X00391770Y00661196D02*
X00387898Y00660814D01*
X00384175Y00659685D01*
X00380744Y00657851D01*
X00377737Y00655383D01*
X00375269Y00652376D01*
X00373435Y00648945D01*
X00372306Y00645222D01*
X00371925Y00641350D01*
X00372306Y00637478D01*
X00373435Y00633755D01*
X00375269Y00630324D01*
X00377737Y00627317D01*
X00380744Y00624849D01*
X00384175Y00623015D01*
X00387898Y00621886D01*
X00391770Y00621504D01*
X00395642Y00621886D01*
X00399365Y00623015D01*
X00402796Y00624849D01*
X00405803Y00627317D01*
X00408271Y00630324D01*
X00410105Y00633755D01*
X00411234Y00637478D01*
X00411616Y00641350D01*
X00411234Y00645222D01*
X00410105Y00648945D01*
X00408271Y00652376D01*
X00405803Y00655383D01*
X00402796Y00657851D01*
X00399365Y00659685D01*
X00395642Y00660814D01*
X00391770Y00661196D01*
D02*
G37*
G36*
X00296570D02*
X00292698Y00660814D01*
X00288975Y00659685D01*
X00285544Y00657851D01*
X00282537Y00655383D01*
X00280069Y00652376D01*
X00278235Y00648945D01*
X00277106Y00645222D01*
X00276724Y00641350D01*
X00277106Y00637478D01*
X00278235Y00633755D01*
X00280069Y00630324D01*
X00282537Y00627317D01*
X00285544Y00624849D01*
X00288975Y00623015D01*
X00292698Y00621886D01*
X00296570Y00621504D01*
X00300442Y00621886D01*
X00304165Y00623015D01*
X00307596Y00624849D01*
X00310603Y00627317D01*
X00313071Y00630324D01*
X00314905Y00633755D01*
X00316034Y00637478D01*
X00316416Y00641350D01*
X00316034Y00645222D01*
X00314905Y00648945D01*
X00313071Y00652376D01*
X00310603Y00655383D01*
X00307596Y00657851D01*
X00304165Y00659685D01*
X00300442Y00660814D01*
X00296570Y00661196D01*
D02*
G37*
G36*
X00228506Y00647780D02*
X00224710D01*
Y00643984D01*
X00224773Y00644010D01*
X00226871Y00645619D01*
X00228480Y00647717D01*
X00228506Y00647780D01*
D02*
G37*
G36*
X00362830Y00670170D02*
X00356790D01*
Y00667130D01*
X00362830D01*
Y00670170D01*
D02*
G37*
G36*
X00346790D02*
X00340750D01*
Y00667130D01*
X00346790D01*
Y00670170D01*
D02*
G37*
G36*
X00362830Y00683210D02*
X00356790D01*
Y00680170D01*
X00362830D01*
Y00683210D01*
D02*
G37*
G36*
X00346790D02*
X00340750D01*
Y00680170D01*
X00346790D01*
Y00683210D01*
D02*
G37*
G36*
X00570000Y00692609D02*
X00565589Y00692174D01*
X00561348Y00690888D01*
X00557439Y00688799D01*
X00554013Y00685987D01*
X00551201Y00682561D01*
X00549112Y00678652D01*
X00547826Y00674411D01*
X00547391Y00670000D01*
X00547826Y00665589D01*
X00549112Y00661348D01*
X00551201Y00657439D01*
X00554013Y00654013D01*
X00557439Y00651201D01*
X00561348Y00649112D01*
X00565589Y00647826D01*
X00570000Y00647391D01*
X00574411Y00647826D01*
X00578652Y00649112D01*
X00582561Y00651201D01*
X00585987Y00654013D01*
X00588799Y00657439D01*
X00590888Y00661348D01*
X00592174Y00665589D01*
X00592609Y00670000D01*
X00592174Y00674411D01*
X00590888Y00678652D01*
X00588799Y00682561D01*
X00585987Y00685987D01*
X00582561Y00688799D01*
X00578652Y00690888D01*
X00574411Y00692174D01*
X00570000Y00692609D01*
D02*
G37*
G36*
X00130000D02*
X00125589Y00692174D01*
X00121348Y00690888D01*
X00117439Y00688799D01*
X00114013Y00685987D01*
X00111201Y00682561D01*
X00109112Y00678652D01*
X00107826Y00674411D01*
X00107391Y00670000D01*
X00107826Y00665589D01*
X00109112Y00661348D01*
X00111201Y00657439D01*
X00114013Y00654013D01*
X00117439Y00651201D01*
X00121348Y00649112D01*
X00125589Y00647826D01*
X00130000Y00647391D01*
X00134411Y00647826D01*
X00138652Y00649112D01*
X00142561Y00651201D01*
X00145987Y00654013D01*
X00148799Y00657439D01*
X00150888Y00661348D01*
X00152174Y00665589D01*
X00152609Y00670000D01*
X00152174Y00674411D01*
X00150888Y00678652D01*
X00148799Y00682561D01*
X00145987Y00685987D01*
X00142561Y00688799D01*
X00138652Y00690888D01*
X00134411Y00692174D01*
X00130000Y00692609D01*
D02*
G37*
G36*
X00224710Y00661576D02*
Y00657780D01*
X00228506D01*
X00228480Y00657843D01*
X00226871Y00659941D01*
X00224773Y00661550D01*
X00224710Y00661576D01*
D02*
G37*
G36*
X00214710D02*
X00214647Y00661550D01*
X00212549Y00659941D01*
X00210940Y00657843D01*
X00210914Y00657780D01*
X00214710D01*
Y00661576D01*
D02*
G37*
G36*
X00344370Y00619646D02*
X00344307Y00619620D01*
X00342209Y00618011D01*
X00340600Y00615913D01*
X00340574Y00615850D01*
X00344370D01*
Y00619646D01*
D02*
G37*
G36*
X00277170Y00528400D02*
X00270668D01*
X00271216Y00527076D01*
X00273226Y00524456D01*
X00275846Y00522446D01*
X00277170Y00521898D01*
Y00528400D01*
D02*
G37*
G36*
X00532485Y00497005D02*
X00497485D01*
Y00462005D01*
X00532485D01*
Y00497005D01*
D02*
G37*
G36*
X00580462Y00538560D02*
X00573960D01*
Y00532058D01*
X00575284Y00532606D01*
X00577904Y00534616D01*
X00579914Y00537236D01*
X00580462Y00538560D01*
D02*
G37*
G36*
X00293672Y00528400D02*
X00287170D01*
Y00521898D01*
X00288494Y00522446D01*
X00291114Y00524456D01*
X00293124Y00527076D01*
X00293672Y00528400D01*
D02*
G37*
G36*
X00405220Y00449840D02*
X00400680D01*
Y00437300D01*
X00405220D01*
Y00449840D01*
D02*
G37*
G36*
X00513340Y00432440D02*
X00500800D01*
Y00427900D01*
X00513340D01*
Y00432440D01*
D02*
G37*
G36*
X00150080Y00495735D02*
X00115080D01*
Y00460735D01*
X00150080D01*
Y00495735D01*
D02*
G37*
G36*
X00419760Y00449840D02*
X00415220D01*
Y00437300D01*
X00419760D01*
Y00449840D01*
D02*
G37*
G36*
X00277170Y00544902D02*
X00275846Y00544354D01*
X00273226Y00542344D01*
X00271216Y00539724D01*
X00270668Y00538400D01*
X00277170D01*
Y00544902D01*
D02*
G37*
G36*
X00157400Y00568996D02*
Y00565070D01*
X00161326D01*
X00161275Y00565194D01*
X00159646Y00567316D01*
X00157524Y00568945D01*
X00157400Y00568996D01*
D02*
G37*
G36*
X00147400D02*
X00147276Y00568945D01*
X00145154Y00567316D01*
X00143525Y00565194D01*
X00143474Y00565070D01*
X00147400D01*
Y00568996D01*
D02*
G37*
G36*
X00362790Y00656170D02*
X00340790D01*
Y00644437D01*
X00325296Y00628944D01*
X00324182Y00627276D01*
X00323791Y00625310D01*
Y00619481D01*
X00321838Y00617982D01*
X00320235Y00615893D01*
X00319562Y00614269D01*
X00304370D01*
Y00617130D01*
X00282370D01*
Y00601130D01*
X00304370D01*
Y00603991D01*
X00321628D01*
X00321838Y00603718D01*
X00323927Y00602115D01*
X00326359Y00601107D01*
X00328970Y00600764D01*
X00331581Y00601107D01*
X00334013Y00602115D01*
X00336102Y00603718D01*
X00337705Y00605807D01*
X00338513Y00607758D01*
X00338514D01*
X00338713Y00608239D01*
X00339057Y00610850D01*
X00338713Y00613461D01*
X00338514Y00613942D01*
X00338513D01*
X00337705Y00615893D01*
X00336102Y00617982D01*
X00334069Y00619542D01*
Y00623181D01*
X00351057Y00640170D01*
X00362790D01*
Y00656170D01*
D02*
G37*
G36*
X00358166Y00605850D02*
X00340574D01*
X00340600Y00605787D01*
X00342209Y00603689D01*
X00344307Y00602080D01*
X00346749Y00601068D01*
X00349370Y00600723D01*
X00351991Y00601068D01*
X00354433Y00602080D01*
X00356531Y00603689D01*
X00358140Y00605787D01*
X00358166Y00605850D01*
D02*
G37*
G36*
X00147400Y00555070D02*
X00143474D01*
X00143525Y00554946D01*
X00145154Y00552824D01*
X00147276Y00551195D01*
X00147400Y00551144D01*
Y00555070D01*
D02*
G37*
G36*
X00287170Y00544902D02*
Y00538400D01*
X00293672D01*
X00293124Y00539724D01*
X00291114Y00542344D01*
X00288494Y00544354D01*
X00287170Y00544902D01*
D02*
G37*
G36*
X00144780Y00632519D02*
X00142814Y00632128D01*
X00141146Y00631014D01*
X00140032Y00629347D01*
X00139641Y00627380D01*
Y00622300D01*
X00140032Y00620334D01*
X00141146Y00618666D01*
X00164221Y00595592D01*
X00163735Y00594419D01*
X00143510D01*
X00141544Y00594028D01*
X00139876Y00592914D01*
X00138762Y00591246D01*
X00138371Y00589280D01*
X00138762Y00587313D01*
X00139876Y00585646D01*
X00141544Y00584532D01*
X00143510Y00584141D01*
X00162285D01*
X00163154Y00583214D01*
X00163116Y00582646D01*
X00162962Y00582528D01*
X00161340Y00580414D01*
X00160320Y00577952D01*
X00159973Y00575310D01*
X00160320Y00572668D01*
X00161340Y00570206D01*
X00162962Y00568092D01*
X00165076Y00566470D01*
X00167538Y00565451D01*
X00170180Y00565103D01*
X00172822Y00565451D01*
X00175284Y00566470D01*
X00177398Y00568092D01*
X00177516Y00568246D01*
X00178783Y00568330D01*
X00188114Y00558998D01*
X00188292Y00558103D01*
X00189406Y00556436D01*
X00191073Y00555322D01*
X00193040Y00554931D01*
X00195007Y00555322D01*
X00196674Y00556436D01*
X00197788Y00558103D01*
X00198179Y00560070D01*
Y00561340D01*
X00197788Y00563307D01*
X00197782Y00563315D01*
X00198120Y00563821D01*
X00200086Y00564212D01*
X00201754Y00565326D01*
X00202868Y00566993D01*
X00203259Y00568960D01*
X00202868Y00570927D01*
X00201754Y00572594D01*
X00193671Y00580677D01*
X00193754Y00581944D01*
X00193908Y00582062D01*
X00195530Y00584176D01*
X00196549Y00586638D01*
X00196897Y00589280D01*
X00196549Y00591922D01*
X00195530Y00594384D01*
X00193908Y00596498D01*
X00191794Y00598120D01*
X00189332Y00599140D01*
X00186690Y00599487D01*
X00184048Y00599140D01*
X00181586Y00598120D01*
X00179472Y00596498D01*
X00179354Y00596343D01*
X00178087Y00596260D01*
X00149919Y00624428D01*
Y00627380D01*
X00149528Y00629347D01*
X00148414Y00631014D01*
X00146747Y00632128D01*
X00144780Y00632519D01*
D02*
G37*
G36*
X00161326Y00555070D02*
X00157400D01*
Y00551144D01*
X00157524Y00551195D01*
X00159646Y00552824D01*
X00161275Y00554946D01*
X00161326Y00555070D01*
D02*
G37*
%LPD*%
D12*
X00170650Y00285750D02*
D03*
X00197650D02*
D03*
X00455460Y00374650D02*
D03*
X00428460D02*
D03*
X00353860Y00563880D02*
D03*
X00326860D02*
D03*
X00428460Y00398780D02*
D03*
X00455460D02*
D03*
D13*
X00196850Y00334810D02*
D03*
Y00307810D02*
D03*
X00172720Y00334810D02*
D03*
Y00307810D02*
D03*
X00293370Y00582130D02*
D03*
Y00609130D02*
D03*
X00351790Y00675170D02*
D03*
Y00648170D02*
D03*
X00379730Y00403390D02*
D03*
Y00376390D02*
D03*
X00346710Y00314160D02*
D03*
Y00341160D02*
D03*
X00373380Y00314160D02*
D03*
Y00341160D02*
D03*
D15*
X00455920Y00432300D02*
D03*
X00410220Y00432300D02*
D03*
X00379720Y00432300D02*
D03*
X00334020Y00432300D02*
D03*
D16*
X00432920Y00494800D02*
D03*
X00356720D02*
D03*
D18*
X00359570Y00590550D02*
X00369770Y00600750D01*
Y00610850D01*
X00558300Y00400200D02*
Y00512310D01*
X00523520Y00529401D02*
X00532221Y00520700D01*
X00549910D01*
X00558300Y00512310D01*
X00444500Y00619760D02*
X00543560D01*
X00356720Y00531980D02*
X00444500Y00619760D01*
X00356720Y00494800D02*
Y00531980D01*
X00410210Y00517510D02*
X00432920Y00494800D01*
X00410210Y00517510D02*
Y00560070D01*
X00444500Y00594360D01*
X00543560D01*
X00523520Y00529401D02*
Y00561620D01*
X00530860Y00568960D01*
X00543560D01*
D20*
X00170650Y00268500D02*
Y00285750D01*
Y00268500D02*
X00176260Y00262890D01*
X00225060D02*
Y00277860D01*
X00217170Y00285750D02*
X00225060Y00277860D01*
X00197650Y00285750D02*
X00217170D01*
X00170650D02*
X00172720Y00287820D01*
Y00307810D01*
X00196850Y00286550D02*
X00197650Y00285750D01*
X00196850Y00286550D02*
Y00307810D01*
X00219670Y00316830D02*
X00250190Y00286310D01*
Y00226060D02*
Y00286310D01*
X00243840Y00219710D02*
X00250190Y00226060D01*
X00212090Y00313690D02*
X00242570Y00283210D01*
Y00243840D02*
Y00283210D01*
X00218440Y00219710D02*
X00242570Y00243840D01*
X00219670Y00316830D02*
Y00382230D01*
X00212090Y00313690D02*
Y00387350D01*
X00219670Y00382230D02*
X00236220Y00398780D01*
X00182880Y00416560D02*
X00212090Y00387350D01*
X00353860Y00584840D02*
X00359570Y00590550D01*
X00353860Y00563880D02*
Y00584840D01*
X00265390Y00383020D02*
Y00434380D01*
Y00383020D02*
X00275030Y00373380D01*
X00257810Y00382270D02*
Y00431184D01*
X00250230Y00379770D02*
Y00428044D01*
X00248920Y00378460D02*
X00250230Y00379770D01*
X00144780Y00622300D02*
Y00627380D01*
X00165100Y00589280D02*
X00193040Y00561340D01*
Y00560070D02*
Y00561340D01*
X00144780Y00622300D02*
X00198120Y00568960D01*
X00219710Y00572770D02*
Y00601980D01*
X00207090Y00560150D02*
X00219710Y00572770D01*
X00207090Y00541100D02*
Y00560150D01*
X00198120Y00532130D02*
X00207090Y00541100D01*
X00177570Y00532130D02*
X00198120D01*
X00207090Y00446960D02*
X00210820Y00443230D01*
X00207090Y00446960D02*
Y00467280D01*
X00121920Y00552450D02*
X00207090Y00467280D01*
X00213360Y00398780D02*
X00236220D01*
X00250190Y00355600D02*
X00391160D01*
X00237490Y00342900D02*
X00250190Y00355600D01*
X00231140Y00342900D02*
X00237490D01*
X00265270Y00574741D02*
Y00637700D01*
X00257690Y00577881D02*
Y00611584D01*
X00245110Y00576020D02*
Y00601980D01*
X00222250Y00553160D02*
X00245110Y00576020D01*
X00229870Y00550061D02*
X00257690Y00577881D01*
X00237450Y00546921D02*
X00265270Y00574741D01*
X00232765Y00574395D02*
Y00592002D01*
X00214670Y00556300D02*
X00232765Y00574395D01*
X00250190Y00652780D02*
X00265270Y00637700D01*
X00232570Y00592197D02*
X00232765Y00592002D01*
X00232570Y00592197D02*
Y00614520D01*
X00219710Y00627380D02*
X00232570Y00614520D01*
X00275030Y00373380D02*
X00321310D01*
X00410210Y00374650D02*
X00428460D01*
X00391160Y00355600D02*
X00410210Y00374650D01*
X00414020Y00398780D02*
X00428460D01*
X00402984Y00387744D02*
X00414020Y00398780D01*
X00402984Y00378460D02*
Y00387744D01*
X00390334Y00365810D02*
X00402984Y00378460D01*
X00177800Y00434340D02*
X00213360Y00398780D01*
X00493250Y00374650D02*
X00495800Y00377200D01*
X00455460Y00374650D02*
X00493250D01*
X00455460Y00398780D02*
X00455920Y00399240D01*
Y00432300D01*
X00379720Y00403400D02*
X00379730Y00403390D01*
X00379720Y00403400D02*
Y00432300D01*
X00177800Y00434340D02*
Y00477520D01*
X00245110Y00624164D02*
Y00627380D01*
Y00624164D02*
X00257690Y00611584D01*
X00298450Y00582130D02*
X00310350D01*
X00318770Y00590550D01*
X00326860Y00563880D02*
Y00582460D01*
X00318770Y00590550D02*
X00326860Y00582460D01*
X00245110Y00652780D02*
X00250190D01*
X00328930Y00625310D02*
X00351790Y00648170D01*
X00328930Y00610890D02*
X00328970Y00610850D01*
X00328930Y00610890D02*
Y00625310D01*
X00298450Y00609130D02*
X00328970D01*
X00121920Y00552450D02*
Y00566420D01*
X00424650Y00254470D02*
Y00278270D01*
X00400050Y00229870D02*
X00424650Y00254470D01*
X00383540Y00229870D02*
X00400050D01*
X00414650Y00263520D02*
Y00278270D01*
X00406400Y00255270D02*
X00414650Y00263520D01*
X00383540Y00255270D02*
X00406400D01*
X00394650Y00273370D02*
Y00278270D01*
X00347980Y00229870D02*
X00358140D01*
X00341630Y00236220D02*
X00347980Y00229870D01*
X00341630Y00236220D02*
Y00270510D01*
X00358140Y00255270D02*
Y00269240D01*
X00362270Y00273370D01*
X00394650D01*
X00492760Y00232410D02*
Y00279400D01*
X00373380Y00330200D02*
X00374650Y00328930D01*
X00373380Y00330200D02*
Y00341160D01*
X00394650Y00325120D02*
Y00331470D01*
X00374650Y00328930D02*
X00382270D01*
X00386080Y00325120D01*
X00394650D01*
X00350611Y00365810D02*
X00390334D01*
X00347611Y00368810D02*
X00350611Y00365810D01*
X00346710Y00401320D02*
X00363220Y00417830D01*
X00330200Y00401320D02*
X00346710D01*
X00280670Y00411480D02*
X00309320D01*
X00279400Y00391160D02*
X00318921D01*
X00341271Y00368810D01*
X00309320Y00411480D02*
X00344410Y00376390D01*
X00379730D01*
X00341271Y00368810D02*
X00347611D01*
X00404650Y00331470D02*
Y00352580D01*
X00412750Y00360680D01*
X00439420D01*
X00414650Y00331470D02*
Y00349920D01*
X00417790Y00353060D01*
X00447040D01*
X00404650Y00278270D02*
Y00287500D01*
X00341630Y00270510D02*
X00363220Y00292100D01*
X00400050D01*
X00404650Y00287500D01*
X00424970Y00331470D02*
Y00342420D01*
X00426720Y00344170D01*
X00454660D01*
X00394650Y00309880D02*
Y00325120D01*
Y00309880D02*
X00462280D01*
X00492760Y00279400D01*
X00434970Y00321950D02*
Y00331470D01*
Y00321950D02*
X00450220D01*
X00462280Y00334010D01*
X00214670Y00463604D02*
Y00556300D01*
X00222250Y00466744D02*
Y00553160D01*
X00229870Y00469900D02*
Y00550061D01*
X00214670Y00463604D02*
X00250230Y00428044D01*
X00222250Y00466744D02*
X00257810Y00431184D01*
X00229870Y00469900D02*
X00265390Y00434380D01*
X00237450Y00473750D02*
Y00546921D01*
Y00473750D02*
X00254059Y00457141D01*
X00255270D01*
X00316230Y00415290D02*
Y00514350D01*
Y00415290D02*
X00330200Y00401320D01*
X00143510Y00589280D02*
X00165100D01*
D21*
X00243840Y00219710D02*
D03*
X00320040D02*
D03*
X00218440D02*
D03*
D22*
X00152400Y00560070D02*
D03*
X00186690Y00589280D02*
D03*
X00170180Y00575310D02*
D03*
X00570000Y00230000D02*
D03*
X00130000D02*
D03*
Y00670000D02*
D03*
X00570000D02*
D03*
X00176260Y00262890D02*
D03*
X00225060D02*
D03*
D23*
X00435610Y00543330D02*
D03*
X00501650D02*
D03*
X00468630D02*
D03*
D24*
X00435610Y00647930D02*
D03*
X00467130Y00275590D02*
D03*
X00501650Y00647930D02*
D03*
X00468630D02*
D03*
X00282170Y00533400D02*
D03*
D25*
X00571730Y00275590D02*
D03*
X00177570Y00533400D02*
D03*
D26*
X00492760Y00237490D02*
D03*
X00358140Y00255270D02*
D03*
D27*
X00467760Y00237490D02*
D03*
X00543560Y00568960D02*
D03*
Y00594360D02*
D03*
Y00619760D02*
D03*
X00568960D02*
D03*
Y00594360D02*
D03*
Y00568960D02*
D03*
Y00543560D02*
D03*
X00358140Y00229870D02*
D03*
X00383540D02*
D03*
Y00255270D02*
D03*
D28*
X00328970Y00610850D02*
D03*
X00349370D02*
D03*
X00369770D02*
D03*
X00318770Y00590550D02*
D03*
X00339170D02*
D03*
X00359570D02*
D03*
X00245110Y00627380D02*
D03*
X00219710D02*
D03*
X00245110Y00652780D02*
D03*
X00219710D02*
D03*
Y00601980D02*
D03*
D29*
X00245110D02*
D03*
D30*
X00543560Y00543560D02*
D03*
D31*
X00132580Y00478235D02*
D03*
X00514985Y00479505D02*
D03*
Y00321400D02*
D03*
X00132580D02*
D03*
D32*
X00284580Y00488235D02*
D03*
D33*
X00241300Y00425450D02*
D03*
X00276860Y00424180D02*
D03*
X00331452Y00365760D02*
D03*
X00356870Y00441960D02*
D03*
X00233680Y00322580D02*
D03*
X00190500Y00463550D02*
D03*
X00257810Y00382270D02*
D03*
X00248920Y00378460D02*
D03*
X00279400Y00391160D02*
D03*
X00198120Y00568960D02*
D03*
X00193040Y00560070D02*
D03*
X00144780Y00627380D02*
D03*
X00210820Y00443230D02*
D03*
X00182880Y00416560D02*
D03*
X00280670Y00411480D02*
D03*
X00306070Y00440690D02*
D03*
X00321310Y00373380D02*
D03*
X00231140Y00342900D02*
D03*
X00177800Y00477520D02*
D03*
X00121920Y00566420D02*
D03*
X00363220Y00417830D02*
D03*
X00439420Y00360680D02*
D03*
X00462280Y00334010D02*
D03*
X00454660Y00344170D02*
D03*
X00447040Y00353060D02*
D03*
X00255270Y00457141D02*
D03*
X00316230Y00514350D02*
D03*
X00143510Y00589280D02*
D03*
X00325120Y00454660D02*
D03*
D34*
X00236220Y00398780D02*
D03*
D35*
X00296570Y00641350D02*
D03*
X00391770D02*
D03*
D36*
X00495800Y00377200D02*
D03*
X00495800Y00422900D02*
D03*
D37*
X00558300Y00400200D02*
D03*
D38*
X00394970Y00331470D02*
D03*
D39*
X00404970D02*
D03*
X00414970D02*
D03*
X00424970D02*
D03*
X00434970D02*
D03*
X00394970Y00278270D02*
D03*
X00404970D02*
D03*
X00414970D02*
D03*
X00424970D02*
D03*
X00434970D02*
D03*
D40*
X00346710Y00341160D02*
X00373380D01*
D41*
X00332464Y00454820D02*
D03*
M02*
