%FSAX44Y44*%
%MOMM*%
G71*
G01*
G75*
%ADD10R,1.1000X1.7000*%
%ADD11R,1.7000X1.1000*%
%ADD12R,6.0000X6.5000*%
%ADD13R,1.4000X3.0000*%
%ADD14O,0.5500X1.6500*%
%ADD15O,1.6500X0.5500*%
%ADD16R,1.4000X1.1000*%
%ADD17O,1.9000X0.6000*%
%ADD18C,1.5000*%
%ADD19C,0.5080*%
%ADD20C,1.4000*%
%ADD21C,1.5240*%
%ADD22C,3.0000*%
%ADD23R,3.0000X3.0000*%
%ADD24C,2.0000*%
%ADD25R,2.0000X2.0000*%
%ADD26C,2.0000*%
%ADD27R,2.0000X2.0000*%
%ADD28R,2.0000X2.0000*%
%ADD29C,1.5000*%
%ADD30R,1.5000X1.5000*%
%ADD31R,2.0000X2.0000*%
%ADD32C,1.4000*%
%ADD33C,0.5000*%
%ADD34C,0.8000*%
%ADD35C,3.4500*%
%ADD36O,0.5800X1.3000*%
%ADD37R,0.5800X1.3000*%
%ADD38R,6.5000X6.0000*%
%ADD39R,3.0000X1.4000*%
%ADD40C,1.0000*%
%ADD41R,2.2191X0.9960*%
%ADD42C,0.2540*%
%ADD43C,0.2500*%
%ADD44C,0.6000*%
%ADD45C,0.2000*%
%ADD46C,0.5000*%
%ADD47R,0.8000X2.8000*%
%ADD48R,2.8000X0.8000*%
%ADD49R,1.3032X1.9032*%
%ADD50R,1.9032X1.3032*%
%ADD51R,6.2032X6.7032*%
%ADD52R,1.6032X3.2032*%
%ADD53O,0.7532X1.8532*%
%ADD54O,1.8532X0.7532*%
%ADD55R,1.6032X1.3032*%
%ADD56O,2.1032X0.8032*%
%ADD57C,1.7272*%
%ADD58C,3.2032*%
%ADD59R,3.2032X3.2032*%
%ADD60C,2.2032*%
%ADD61R,2.2032X2.2032*%
%ADD62C,2.2032*%
%ADD63R,2.2032X2.2032*%
%ADD64R,2.2032X2.2032*%
%ADD65C,1.7032*%
%ADD66R,1.7032X1.7032*%
%ADD67R,2.2032X2.2032*%
%ADD68C,1.6032*%
%ADD69C,3.6532*%
%ADD70O,0.7832X1.5032*%
%ADD71R,0.7832X1.5032*%
%ADD72R,6.7032X6.2032*%
%ADD73R,3.2032X1.6032*%
%ADD74C,0.0254*%
%ADD75C,0.1270*%
%ADD76C,0.1693*%
%ADD77C,0.1016*%
D75*
X00221250Y00262890D02*
X00228870D01*
X00225060Y00259080D02*
Y00266700D01*
X00172450Y00262890D02*
X00180070D01*
X00176260Y00259080D02*
Y00266700D01*
X00259580Y00488235D02*
X00309580D01*
X00284580Y00463235D02*
Y00513235D01*
X00128770Y00321400D02*
X00136390D01*
X00132580Y00317590D02*
Y00325210D01*
X00511175Y00321400D02*
X00518795D01*
X00514985Y00317590D02*
Y00325210D01*
X00511175Y00479505D02*
X00518795D01*
X00514985Y00475695D02*
Y00483315D01*
X00128770Y00478235D02*
X00136390D01*
X00132580Y00474425D02*
Y00482045D01*
X00378040Y00255270D02*
X00389040D01*
X00383540Y00249770D02*
Y00260770D01*
X00352640Y00255270D02*
X00363640D01*
X00358140Y00249770D02*
Y00260770D01*
X00378040Y00229870D02*
X00389040D01*
X00383540Y00224370D02*
Y00235370D01*
X00352640Y00229870D02*
X00363640D01*
X00358140Y00224370D02*
Y00235370D01*
X00276170Y00533400D02*
X00288170D01*
X00282170Y00527400D02*
Y00539400D01*
X00171570Y00533400D02*
X00183570D01*
X00177570Y00527400D02*
Y00539400D01*
X00563460Y00543560D02*
X00574460D01*
X00568960Y00538060D02*
Y00549060D01*
X00563460Y00568960D02*
X00574460D01*
X00568960Y00563460D02*
Y00574460D01*
X00563460Y00594360D02*
X00574460D01*
X00568960Y00588860D02*
Y00599860D01*
X00563460Y00619760D02*
X00574460D01*
X00568960Y00614260D02*
Y00625260D01*
X00538060Y00619760D02*
X00549060D01*
X00543560Y00614260D02*
Y00625260D01*
X00538060Y00594360D02*
X00549060D01*
X00543560Y00588860D02*
Y00599860D01*
X00538060Y00543560D02*
X00549060D01*
X00543560Y00538060D02*
Y00549060D01*
X00538060Y00568960D02*
X00549060D01*
X00543560Y00563460D02*
Y00574460D01*
X00215210Y00601980D02*
X00224210D01*
X00219710Y00597480D02*
Y00606480D01*
X00215210Y00652780D02*
X00224210D01*
X00219710Y00648280D02*
Y00657280D01*
X00240610Y00652780D02*
X00249610D01*
X00245110Y00648280D02*
Y00657280D01*
X00215210Y00627380D02*
X00224210D01*
X00219710Y00622880D02*
Y00631880D01*
X00240610Y00627380D02*
X00249610D01*
X00245110Y00622880D02*
Y00631880D01*
X00240610Y00601980D02*
X00249610D01*
X00245110Y00597480D02*
Y00606480D01*
X00462630Y00647930D02*
X00474630D01*
X00468630Y00641930D02*
Y00653930D01*
X00462630Y00543330D02*
X00474630D01*
X00468630Y00537330D02*
Y00549330D01*
X00462260Y00237490D02*
X00473260D01*
X00467760Y00231990D02*
Y00242990D01*
X00487260Y00237490D02*
X00498260D01*
X00492760Y00231990D02*
Y00242990D01*
X00495650Y00543330D02*
X00507650D01*
X00501650Y00537330D02*
Y00549330D01*
X00495650Y00647930D02*
X00507650D01*
X00501650Y00641930D02*
Y00653930D01*
X00565400Y00280010D02*
X00577400D01*
X00571400Y00274010D02*
Y00286010D01*
X00460800Y00280010D02*
X00472800D01*
X00466800Y00274010D02*
Y00286010D01*
X00429610Y00647930D02*
X00441610D01*
X00435610Y00641930D02*
Y00653930D01*
X00429610Y00543330D02*
X00441610D01*
X00435610Y00537330D02*
Y00549330D01*
X00550000Y00670000D02*
X00590000D01*
X00570000Y00650000D02*
Y00690000D01*
X00110000Y00670000D02*
X00150000D01*
X00130000Y00650000D02*
Y00690000D01*
X00110000Y00230000D02*
X00150000D01*
X00130000Y00210000D02*
Y00250000D01*
X00550000Y00230000D02*
X00590000D01*
X00570000Y00210000D02*
Y00250000D01*
X00214190Y00219710D02*
X00222690D01*
X00218440Y00215460D02*
Y00223960D01*
X00315790Y00219710D02*
X00324290D01*
X00320040Y00215460D02*
Y00223960D01*
X00239590Y00219710D02*
X00248090D01*
X00243840Y00215460D02*
Y00223960D01*
X00354570Y00590550D02*
X00364570D01*
X00359570Y00585550D02*
Y00595550D01*
X00334170Y00590550D02*
X00344170D01*
X00339170Y00585550D02*
Y00595550D01*
X00313770Y00590550D02*
X00323770D01*
X00318770Y00585550D02*
Y00595550D01*
X00364770Y00610850D02*
X00374770D01*
X00369770Y00605850D02*
Y00615850D01*
X00344370Y00610850D02*
X00354370D01*
X00349370Y00605850D02*
Y00615850D01*
X00323970Y00610850D02*
X00333970D01*
X00328970Y00605850D02*
Y00615850D01*
X00323620Y00454660D02*
X00326620D01*
X00325120Y00453160D02*
Y00456160D01*
X00142010Y00589280D02*
X00145010D01*
X00143510Y00587780D02*
Y00590780D01*
X00314730Y00514350D02*
X00317730D01*
X00316230Y00512850D02*
Y00515850D01*
X00253770Y00457141D02*
X00256770D01*
X00255270Y00455641D02*
Y00458641D01*
X00445540Y00353060D02*
X00448540D01*
X00447040Y00351560D02*
Y00354560D01*
X00453160Y00344170D02*
X00456160D01*
X00454660Y00342670D02*
Y00345670D01*
X00460780Y00334010D02*
X00463780D01*
X00462280Y00332510D02*
Y00335510D01*
X00437920Y00360680D02*
X00440920D01*
X00439420Y00359180D02*
Y00362180D01*
X00361720Y00417830D02*
X00364720D01*
X00363220Y00416330D02*
Y00419330D01*
X00120420Y00566420D02*
X00123420D01*
X00121920Y00564920D02*
Y00567920D01*
X00176300Y00477520D02*
X00179300D01*
X00177800Y00476020D02*
Y00479020D01*
X00229640Y00342900D02*
X00232640D01*
X00231140Y00341400D02*
Y00344400D01*
X00233720Y00398780D02*
X00238720D01*
X00236220Y00396280D02*
Y00401280D01*
X00319810Y00373380D02*
X00322810D01*
X00321310Y00371880D02*
Y00374880D01*
X00304570Y00440690D02*
X00307570D01*
X00306070Y00439190D02*
Y00442190D01*
X00279170Y00411480D02*
X00282170D01*
X00280670Y00409980D02*
Y00412980D01*
X00181380Y00416560D02*
X00184380D01*
X00182880Y00415060D02*
Y00418060D01*
X00209320Y00443230D02*
X00212320D01*
X00210820Y00441730D02*
Y00444730D01*
X00143280Y00627380D02*
X00146280D01*
X00144780Y00625880D02*
Y00628880D01*
X00191540Y00560070D02*
X00194540D01*
X00193040Y00558570D02*
Y00561570D01*
X00196620Y00568960D02*
X00199620D01*
X00198120Y00567460D02*
Y00570460D01*
X00277900Y00391160D02*
X00280900D01*
X00279400Y00389660D02*
Y00392660D01*
X00247420Y00378460D02*
X00250420D01*
X00248920Y00376960D02*
Y00379960D01*
X00256310Y00382270D02*
X00259310D01*
X00257810Y00380770D02*
Y00383770D01*
X00189000Y00463550D02*
X00192000D01*
X00190500Y00462050D02*
Y00465050D01*
X00232180Y00322580D02*
X00235180D01*
X00233680Y00321080D02*
Y00324080D01*
X00355370Y00441960D02*
X00358370D01*
X00356870Y00440460D02*
Y00443460D01*
X00329952Y00365760D02*
X00332952D01*
X00331452Y00364260D02*
Y00367260D01*
X00275360Y00424180D02*
X00278360D01*
X00276860Y00422680D02*
Y00425680D01*
X00239800Y00425450D02*
X00242800D01*
X00241300Y00423950D02*
Y00426950D01*
X00374520Y00641350D02*
X00409020D01*
X00391770Y00624100D02*
Y00658600D01*
X00279320Y00641350D02*
X00313820D01*
X00296570Y00624100D02*
Y00658600D01*
M02*
