%FSAX44Y44*%
%MOMM*%
G71*
G01*
G75*
G04 Layer_Color=16711935*
%ADD10R,1.1000X1.7000*%
%ADD11R,1.7000X1.1000*%
%ADD12R,6.0000X6.5000*%
%ADD13R,1.4000X3.0000*%
%ADD14O,0.5500X1.6500*%
%ADD15O,1.6500X0.5500*%
%ADD16R,1.4000X1.1000*%
%ADD17O,1.9000X0.6000*%
%ADD18C,1.5000*%
%ADD19C,0.5080*%
%ADD20C,1.4000*%
%ADD21C,1.5240*%
%ADD22C,3.0000*%
%ADD23R,3.0000X3.0000*%
%ADD24C,2.0000*%
%ADD25R,2.0000X2.0000*%
%ADD26C,2.0000*%
%ADD27R,2.0000X2.0000*%
%ADD28R,2.0000X2.0000*%
%ADD29C,1.5000*%
%ADD30R,1.5000X1.5000*%
%ADD31R,2.0000X2.0000*%
%ADD32C,1.4000*%
%ADD33C,0.5000*%
%ADD34C,0.8000*%
%ADD35C,3.4500*%
%ADD36O,0.5800X1.3000*%
%ADD37R,0.5800X1.3000*%
%ADD38R,6.5000X6.0000*%
%ADD39R,3.0000X1.4000*%
%ADD40C,1.0000*%
%ADD41R,2.2191X0.9960*%
%ADD42C,0.2540*%
%ADD43C,0.2500*%
%ADD44C,0.6000*%
%ADD45C,0.2000*%
%ADD46C,0.5000*%
%ADD47R,0.8000X2.8000*%
%ADD48R,2.8000X0.8000*%
%ADD49R,1.3032X1.9032*%
%ADD50R,1.9032X1.3032*%
%ADD51R,6.2032X6.7032*%
%ADD52R,1.6032X3.2032*%
%ADD53O,0.7532X1.8532*%
%ADD54O,1.8532X0.7532*%
%ADD55R,1.6032X1.3032*%
%ADD56O,2.1032X0.8032*%
%ADD57C,1.7272*%
%ADD58C,3.2032*%
%ADD59R,3.2032X3.2032*%
%ADD60C,2.2032*%
%ADD61R,2.2032X2.2032*%
%ADD62C,2.2032*%
%ADD63R,2.2032X2.2032*%
%ADD64R,2.2032X2.2032*%
%ADD65C,1.7032*%
%ADD66R,1.7032X1.7032*%
%ADD67R,2.2032X2.2032*%
%ADD68C,1.6032*%
%ADD69C,3.6532*%
%ADD70O,0.7832X1.5032*%
%ADD71R,0.7832X1.5032*%
%ADD72R,6.7032X6.2032*%
%ADD73R,3.2032X1.6032*%
D49*
X00455460Y00398780D02*
D03*
X00428460D02*
D03*
X00326860Y00563880D02*
D03*
X00353860D02*
D03*
X00428460Y00374650D02*
D03*
X00455460D02*
D03*
X00197650Y00285750D02*
D03*
X00170650D02*
D03*
D50*
X00373380Y00341160D02*
D03*
Y00314160D02*
D03*
X00346710Y00341160D02*
D03*
Y00314160D02*
D03*
X00379730Y00376390D02*
D03*
Y00403390D02*
D03*
X00351790Y00648170D02*
D03*
Y00675170D02*
D03*
X00293370Y00609130D02*
D03*
Y00582130D02*
D03*
X00172720Y00307810D02*
D03*
Y00334810D02*
D03*
X00196850Y00307810D02*
D03*
Y00334810D02*
D03*
D51*
X00356720Y00494800D02*
D03*
X00432920D02*
D03*
D52*
X00334020Y00432300D02*
D03*
X00379720Y00432300D02*
D03*
X00410220Y00432300D02*
D03*
X00455920Y00432300D02*
D03*
D57*
X00170180Y00575310D02*
D03*
X00186690Y00589280D02*
D03*
X00152400Y00560070D02*
D03*
X00225060Y00262890D02*
D03*
X00176260D02*
D03*
X00570000Y00670000D02*
D03*
X00130000D02*
D03*
Y00230000D02*
D03*
X00570000D02*
D03*
D58*
X00284580Y00488235D02*
D03*
D59*
X00132580Y00321400D02*
D03*
X00514985D02*
D03*
Y00479505D02*
D03*
X00132580Y00478235D02*
D03*
D60*
X00383540Y00255270D02*
D03*
Y00229870D02*
D03*
X00358140D02*
D03*
X00568960Y00543560D02*
D03*
Y00568960D02*
D03*
Y00594360D02*
D03*
Y00619760D02*
D03*
X00543560D02*
D03*
Y00594360D02*
D03*
Y00568960D02*
D03*
X00467760Y00237490D02*
D03*
D61*
X00358140Y00255270D02*
D03*
X00492760Y00237490D02*
D03*
D62*
X00282170Y00533400D02*
D03*
X00468630Y00647930D02*
D03*
X00501650D02*
D03*
X00466800Y00280010D02*
D03*
X00435610Y00647930D02*
D03*
D63*
X00177570Y00533400D02*
D03*
X00571400Y00280010D02*
D03*
D64*
X00543560Y00543560D02*
D03*
D65*
X00219710Y00601980D02*
D03*
Y00652780D02*
D03*
X00245110D02*
D03*
X00219710Y00627380D02*
D03*
X00245110D02*
D03*
X00359570Y00590550D02*
D03*
X00339170D02*
D03*
X00318770D02*
D03*
X00369770Y00610850D02*
D03*
X00349370D02*
D03*
X00328970D02*
D03*
D66*
X00245110Y00601980D02*
D03*
D67*
X00468630Y00543330D02*
D03*
X00501650D02*
D03*
X00435610D02*
D03*
D68*
X00218440Y00219710D02*
D03*
X00320040D02*
D03*
X00243840D02*
D03*
D69*
X00391770Y00641350D02*
D03*
X00296570D02*
D03*
D70*
X00434970Y00278270D02*
D03*
X00424970D02*
D03*
X00414970D02*
D03*
X00404970D02*
D03*
X00394970D02*
D03*
X00434970Y00331470D02*
D03*
X00424970D02*
D03*
X00414970D02*
D03*
X00404970D02*
D03*
D71*
X00394970D02*
D03*
D72*
X00558300Y00400200D02*
D03*
D73*
X00495800Y00422900D02*
D03*
X00495800Y00377200D02*
D03*
M02*
