%FSAX44Y44*%
%MOMM*%
G71*
G01*
G75*
G04 Layer_Color=8388736*
%ADD10O,1.6500X0.5500*%
%ADD11O,0.5500X1.6500*%
%ADD12R,1.1000X1.7000*%
%ADD13R,1.7000X1.1000*%
%ADD14R,1.4000X1.1000*%
%ADD15R,1.4000X3.0000*%
%ADD16R,6.0000X6.5000*%
%ADD17O,1.9000X0.6000*%
%ADD18C,1.5000*%
%ADD19C,1.4000*%
%ADD20C,0.5080*%
%ADD21C,1.4000*%
%ADD22C,1.5240*%
%ADD23R,2.0000X2.0000*%
%ADD24C,2.0000*%
%ADD25R,2.0000X2.0000*%
%ADD26R,2.0000X2.0000*%
%ADD27C,2.0000*%
%ADD28C,1.5000*%
%ADD29R,1.5000X1.5000*%
%ADD30R,2.0000X2.0000*%
%ADD31R,3.0000X3.0000*%
%ADD32C,3.0000*%
%ADD33C,0.5000*%
%ADD34C,0.8000*%
%ADD35C,3.4500*%
%ADD36R,3.0000X1.4000*%
%ADD37R,6.5000X6.0000*%
%ADD38R,0.5800X1.3000*%
%ADD39O,0.5800X1.3000*%
%ADD40C,1.0000*%
%ADD41R,2.2191X0.9960*%
%ADD42C,0.2500*%
%ADD43C,0.6000*%
%ADD44C,0.2000*%
%ADD45C,0.2540*%
%ADD46R,2.8000X0.8000*%
%ADD47R,0.8000X2.8000*%
%ADD48O,1.8532X0.7532*%
%ADD49O,0.7532X1.8532*%
%ADD50R,1.3032X1.9032*%
%ADD51R,1.9032X1.3032*%
%ADD52R,1.6032X1.3032*%
%ADD53R,1.6032X3.2032*%
%ADD54R,6.2032X6.7032*%
%ADD55O,2.1032X0.8032*%
%ADD56C,1.6032*%
%ADD57C,1.7272*%
%ADD58R,2.2032X2.2032*%
%ADD59C,2.2032*%
%ADD60R,2.2032X2.2032*%
%ADD61R,2.2032X2.2032*%
%ADD62C,2.2032*%
%ADD63C,1.7032*%
%ADD64R,1.7032X1.7032*%
%ADD65R,2.2032X2.2032*%
%ADD66R,3.2032X3.2032*%
%ADD67C,3.2032*%
D48*
X00217080Y00429320D02*
D03*
Y00421320D02*
D03*
Y00413320D02*
D03*
Y00405320D02*
D03*
Y00397320D02*
D03*
Y00389320D02*
D03*
Y00381320D02*
D03*
Y00373320D02*
D03*
X00301080D02*
D03*
Y00381320D02*
D03*
Y00389320D02*
D03*
Y00397320D02*
D03*
Y00405320D02*
D03*
Y00413320D02*
D03*
Y00421320D02*
D03*
Y00429320D02*
D03*
D49*
X00231080Y00359320D02*
D03*
X00239080D02*
D03*
X00247080D02*
D03*
X00255080D02*
D03*
X00263080D02*
D03*
X00271080D02*
D03*
X00279080D02*
D03*
X00287080D02*
D03*
Y00443320D02*
D03*
X00279080D02*
D03*
X00271080D02*
D03*
X00263080D02*
D03*
X00255080D02*
D03*
X00247080D02*
D03*
X00239080D02*
D03*
X00231080D02*
D03*
D50*
X00126200Y00511810D02*
D03*
X00153200D02*
D03*
X00217640Y00681990D02*
D03*
X00244640D02*
D03*
X00143040Y00538480D02*
D03*
X00116040D02*
D03*
X00411010Y00417830D02*
D03*
X00384010D02*
D03*
X00136360Y00562610D02*
D03*
X00163360D02*
D03*
X00200190Y00220980D02*
D03*
X00173190D02*
D03*
D51*
X00291310Y00296380D02*
D03*
Y00323380D02*
D03*
X00339090Y00379260D02*
D03*
Y00352260D02*
D03*
X00166370Y00649440D02*
D03*
Y00676440D02*
D03*
X00264640Y00296380D02*
D03*
Y00323380D02*
D03*
X00316710Y00296380D02*
D03*
Y00323380D02*
D03*
X00339090Y00423710D02*
D03*
Y00396710D02*
D03*
D52*
X00276070Y00261620D02*
D03*
Y00245620D02*
D03*
X00306070Y00261620D02*
D03*
Y00245620D02*
D03*
D53*
X00411470Y00381770D02*
D03*
X00365770Y00381770D02*
D03*
D54*
X00388470Y00319270D02*
D03*
D55*
X00126360Y00627380D02*
D03*
Y00614680D02*
D03*
Y00601980D02*
D03*
Y00589280D02*
D03*
X00173360Y00627380D02*
D03*
Y00614680D02*
D03*
Y00601980D02*
D03*
Y00589280D02*
D03*
D56*
X00243840Y00219710D02*
D03*
X00320040D02*
D03*
X00218440D02*
D03*
D57*
X00570000Y00230000D02*
D03*
X00130000D02*
D03*
Y00670000D02*
D03*
X00570000D02*
D03*
X00176260Y00262890D02*
D03*
X00225060D02*
D03*
D58*
X00435610Y00543330D02*
D03*
X00501650D02*
D03*
X00468630D02*
D03*
D59*
X00435610Y00647930D02*
D03*
X00467130Y00275590D02*
D03*
X00501650Y00647930D02*
D03*
X00468630D02*
D03*
X00282170Y00533400D02*
D03*
D60*
X00571730Y00275590D02*
D03*
X00177570Y00533400D02*
D03*
D61*
X00492760Y00237490D02*
D03*
X00358140Y00255270D02*
D03*
D62*
X00467760Y00237490D02*
D03*
X00543560Y00568960D02*
D03*
Y00594360D02*
D03*
Y00619760D02*
D03*
X00568960D02*
D03*
Y00594360D02*
D03*
Y00568960D02*
D03*
Y00543560D02*
D03*
X00358140Y00229870D02*
D03*
X00383540D02*
D03*
Y00255270D02*
D03*
D63*
X00328970Y00610850D02*
D03*
X00349370D02*
D03*
X00369770D02*
D03*
X00318770Y00590550D02*
D03*
X00339170D02*
D03*
X00359570D02*
D03*
X00245110Y00627380D02*
D03*
X00219710D02*
D03*
X00245110Y00652780D02*
D03*
X00219710D02*
D03*
Y00601980D02*
D03*
D64*
X00245110D02*
D03*
D65*
X00543560Y00543560D02*
D03*
D66*
X00132580Y00478235D02*
D03*
X00514985Y00479505D02*
D03*
Y00321400D02*
D03*
X00132580D02*
D03*
D67*
X00284580Y00488235D02*
D03*
M02*
