%FSAX44Y44*%
%MOMM*%
G71*
G01*
G75*
G04 Layer_Physical_Order=1*
G04 Layer_Color=255*
%ADD10R,1.1000X1.7000*%
%ADD11R,1.7000X1.1000*%
%ADD12O,1.9000X0.6000*%
%ADD13R,6.0000X6.5000*%
%ADD14R,1.4000X3.0000*%
%ADD15R,1.4000X1.1000*%
%ADD16O,0.5500X1.6500*%
%ADD17O,1.6500X0.5500*%
%ADD18C,0.5080*%
%ADD19C,1.5000*%
%ADD20C,1.5240*%
%ADD21C,3.0000*%
%ADD22R,3.0000X3.0000*%
%ADD23C,2.0000*%
%ADD24R,2.0000X2.0000*%
%ADD25C,2.0000*%
%ADD26R,2.0000X2.0000*%
%ADD27R,2.0000X2.0000*%
%ADD28C,1.5000*%
%ADD29R,1.5000X1.5000*%
%ADD30R,2.0000X2.0000*%
%ADD31C,1.4000*%
%ADD32C,0.5000*%
%ADD33C,3.4500*%
%ADD34C,0.8000*%
G36*
X00573960Y00532058D02*
X00575284Y00532606D01*
X00577775Y00534517D01*
X00578914Y00533956D01*
Y00495388D01*
X00573117Y00489591D01*
X00532485D01*
Y00497005D01*
X00515546D01*
Y00533244D01*
X00531060D01*
Y00531060D01*
X00556060D01*
Y00538680D01*
X00557306Y00538928D01*
X00558006Y00537236D01*
X00560016Y00534616D01*
X00562636Y00532606D01*
X00563960Y00532058D01*
Y00543560D01*
X00573960D01*
Y00532058D01*
D02*
G37*
G36*
X00600000Y00554637D02*
X00598743Y00554471D01*
X00597735Y00556904D01*
X00596132Y00558993D01*
X00579891Y00575234D01*
X00579879Y00575264D01*
X00579046Y00576349D01*
Y00586971D01*
X00579879Y00588056D01*
X00581138Y00591097D01*
X00581568Y00594360D01*
X00581138Y00597623D01*
X00579879Y00600664D01*
X00579046Y00601749D01*
Y00612371D01*
X00579879Y00613456D01*
X00581138Y00616497D01*
X00581568Y00619760D01*
X00581138Y00623023D01*
X00579879Y00626064D01*
X00577875Y00628675D01*
X00575264Y00630679D01*
X00572223Y00631938D01*
X00568960Y00632368D01*
X00565697Y00631938D01*
X00562656Y00630679D01*
X00560045Y00628675D01*
X00558041Y00626064D01*
X00556895Y00623297D01*
X00555625D01*
X00554479Y00626064D01*
X00552475Y00628675D01*
X00549864Y00630679D01*
X00546823Y00631938D01*
X00543560Y00632368D01*
X00540297Y00631938D01*
X00537256Y00630679D01*
X00536171Y00629846D01*
X00518528D01*
X00511736Y00636638D01*
Y00640541D01*
X00512569Y00641626D01*
X00513828Y00644667D01*
X00514258Y00647930D01*
X00513828Y00651193D01*
X00512569Y00654234D01*
X00510565Y00656845D01*
X00507954Y00658849D01*
X00504913Y00660108D01*
X00501650Y00660538D01*
X00498387Y00660108D01*
X00495346Y00658849D01*
X00492735Y00656845D01*
X00490731Y00654234D01*
X00489472Y00651193D01*
X00489042Y00647930D01*
X00489472Y00644667D01*
X00490731Y00641626D01*
X00491564Y00640541D01*
Y00632460D01*
X00491564Y00632460D01*
X00491564D01*
X00491907Y00629850D01*
X00492915Y00627417D01*
X00494518Y00625328D01*
X00507218Y00612628D01*
X00509307Y00611025D01*
X00511740Y00610017D01*
X00514350Y00609674D01*
X00536171D01*
X00537256Y00608841D01*
X00540023Y00607695D01*
Y00606425D01*
X00537256Y00605279D01*
X00536171Y00604446D01*
X00503288D01*
X00478716Y00629018D01*
Y00640541D01*
X00479549Y00641626D01*
X00480808Y00644667D01*
X00481238Y00647930D01*
X00480808Y00651193D01*
X00479549Y00654234D01*
X00477545Y00656845D01*
X00474934Y00658849D01*
X00471893Y00660108D01*
X00468630Y00660538D01*
X00465367Y00660108D01*
X00462326Y00658849D01*
X00459715Y00656845D01*
X00457711Y00654234D01*
X00456452Y00651193D01*
X00456022Y00647930D01*
X00456452Y00644667D01*
X00457711Y00641626D01*
X00458544Y00640541D01*
Y00624840D01*
X00458544Y00624840D01*
X00458544D01*
X00458887Y00622229D01*
X00459895Y00619797D01*
X00461498Y00617708D01*
X00491978Y00587228D01*
X00494067Y00585625D01*
X00496499Y00584617D01*
X00499110Y00584274D01*
X00536171D01*
X00537256Y00583441D01*
X00540023Y00582295D01*
Y00581025D01*
X00537256Y00579879D01*
X00536171Y00579046D01*
X00489318D01*
X00445696Y00622668D01*
Y00640541D01*
X00446529Y00641626D01*
X00447788Y00644667D01*
X00448218Y00647930D01*
X00447788Y00651193D01*
X00446529Y00654234D01*
X00444525Y00656845D01*
X00441914Y00658849D01*
X00438873Y00660108D01*
X00435610Y00660538D01*
X00432347Y00660108D01*
X00429306Y00658849D01*
X00426695Y00656845D01*
X00424691Y00654234D01*
X00423432Y00651193D01*
X00423002Y00647930D01*
X00423432Y00644667D01*
X00424691Y00641626D01*
X00425524Y00640541D01*
Y00618490D01*
X00425524Y00618490D01*
X00425524D01*
X00425867Y00615880D01*
X00426875Y00613447D01*
X00428478Y00611358D01*
X00478008Y00561828D01*
X00478008D01*
X00478008Y00561828D01*
X00478008Y00561828D01*
Y00561828D01*
X00480097Y00560225D01*
X00481522Y00559635D01*
X00482529Y00559217D01*
X00485140Y00558874D01*
X00536171D01*
X00537256Y00558041D01*
X00539032Y00557306D01*
X00538784Y00556060D01*
X00531060D01*
Y00553416D01*
X00514150D01*
Y00555830D01*
X00489150D01*
Y00553416D01*
X00481130D01*
Y00555830D01*
X00456130D01*
Y00553416D01*
X00448110D01*
Y00555830D01*
X00423110D01*
Y00553416D01*
X00389218D01*
X00369656Y00572978D01*
Y00586372D01*
X00376902Y00593618D01*
X00378505Y00595707D01*
X00379513Y00598139D01*
X00379856Y00600750D01*
X00379856Y00600750D01*
X00379856Y00600750D01*
Y00600750D01*
Y00610850D01*
X00379513Y00613461D01*
X00378505Y00615893D01*
X00376902Y00617982D01*
X00374813Y00619585D01*
X00372380Y00620593D01*
X00369770Y00620936D01*
X00367160Y00620593D01*
X00364727Y00619585D01*
X00362638Y00617982D01*
X00361035Y00615893D01*
X00360227Y00613941D01*
X00360226D01*
X00360027Y00613461D01*
X00359683Y00610850D01*
Y00606259D01*
X00359684Y00606259D01*
Y00604928D01*
X00352438Y00597682D01*
X00350835Y00595593D01*
X00350027Y00593642D01*
X00350026D01*
X00349827Y00593161D01*
X00349483Y00590550D01*
Y00585959D01*
X00349484Y00585959D01*
Y00568800D01*
X00349484Y00568800D01*
X00349484D01*
X00349827Y00566189D01*
X00350835Y00563757D01*
X00352438Y00561668D01*
X00377908Y00536198D01*
X00379997Y00534595D01*
X00382430Y00533587D01*
X00385040Y00533244D01*
X00423110D01*
Y00530830D01*
X00448110D01*
Y00533244D01*
X00456130D01*
Y00530830D01*
X00481130D01*
Y00533244D01*
X00489150D01*
Y00530830D01*
X00495374D01*
Y00489030D01*
X00495717Y00486419D01*
X00496725Y00483987D01*
X00497485Y00482996D01*
Y00462005D01*
X00532485D01*
Y00469419D01*
X00561644D01*
Y00288090D01*
X00559230D01*
Y00284406D01*
X00534670D01*
X00532060Y00284063D01*
X00529627Y00283055D01*
X00527538Y00281452D01*
X00496076Y00249990D01*
X00480260D01*
Y00243231D01*
X00479014Y00242983D01*
X00478679Y00243794D01*
X00477216Y00245700D01*
Y00268201D01*
X00478049Y00269286D01*
X00479308Y00272327D01*
X00479738Y00275590D01*
X00479308Y00278853D01*
X00478049Y00281894D01*
X00477088Y00283146D01*
X00476873Y00284781D01*
X00475865Y00287213D01*
X00474262Y00289302D01*
X00437162Y00326402D01*
X00435073Y00328005D01*
X00432641Y00329012D01*
X00430030Y00329356D01*
X00420970D01*
Y00354270D01*
X00355970D01*
Y00284270D01*
X00420970D01*
Y00309184D01*
X00425852D01*
X00455312Y00279724D01*
X00454952Y00278853D01*
X00454522Y00275590D01*
X00454952Y00272327D01*
X00456211Y00269286D01*
X00457044Y00268201D01*
Y00244058D01*
X00456841Y00243794D01*
X00455582Y00240753D01*
X00455152Y00237490D01*
X00455582Y00234227D01*
X00456841Y00231186D01*
X00458845Y00228575D01*
X00461456Y00226571D01*
X00464497Y00225312D01*
X00467760Y00224882D01*
X00471023Y00225312D01*
X00474064Y00226571D01*
X00476675Y00228575D01*
X00478679Y00231186D01*
X00479014Y00231996D01*
X00480260Y00231749D01*
Y00224990D01*
X00494341D01*
X00495300Y00224864D01*
X00496259Y00224990D01*
X00505260D01*
Y00230646D01*
X00538848Y00264234D01*
X00559230D01*
Y00263090D01*
X00584230D01*
Y00288090D01*
X00581816D01*
Y00469762D01*
X00584427Y00472373D01*
X00584427Y00472373D01*
X00584427Y00472373D01*
X00596132Y00484078D01*
X00597735Y00486167D01*
X00598325Y00487592D01*
X00598743Y00488599D01*
X00600000Y00488434D01*
Y00200000D01*
X00100000D01*
Y00700000D01*
X00600000D01*
Y00554637D01*
D02*
G37*
%LPC*%
G36*
X00375310Y00399310D02*
X00370770D01*
Y00386770D01*
X00375310D01*
Y00399310D01*
D02*
G37*
G36*
X00360770D02*
X00356230D01*
Y00386770D01*
X00360770D01*
Y00399310D01*
D02*
G37*
G36*
X00350130Y00418710D02*
X00344090D01*
Y00415670D01*
X00350130D01*
Y00418710D01*
D02*
G37*
G36*
X00392010Y00428830D02*
X00376010D01*
Y00422969D01*
X00363220D01*
X00361254Y00422578D01*
X00359586Y00421464D01*
X00358472Y00419796D01*
X00358081Y00417830D01*
X00358472Y00415863D01*
X00359586Y00414196D01*
X00361254Y00413082D01*
X00363220Y00412691D01*
X00376010D01*
Y00406830D01*
X00392010D01*
Y00428830D01*
D02*
G37*
G36*
X00375310Y00376770D02*
X00370770D01*
Y00364230D01*
X00375310D01*
Y00376770D01*
D02*
G37*
G36*
X00360770D02*
X00356230D01*
Y00364230D01*
X00360770D01*
Y00376770D01*
D02*
G37*
G36*
X00419010Y00428830D02*
X00403010D01*
Y00406830D01*
X00405871D01*
Y00399270D01*
X00401970D01*
Y00364270D01*
X00420970D01*
Y00399270D01*
X00416149D01*
Y00406830D01*
X00419010D01*
Y00428830D01*
D02*
G37*
G36*
X00334400Y00360760D02*
X00328504D01*
X00328364Y00360300D01*
X00328050D01*
Y00357260D01*
X00350130D01*
Y00360300D01*
X00334540D01*
X00334400Y00360760D01*
D02*
G37*
G36*
X00124080Y00533480D02*
X00121040D01*
Y00527440D01*
X00124080D01*
Y00533480D01*
D02*
G37*
G36*
X00111040D02*
X00108000D01*
Y00527440D01*
X00111040D01*
Y00533480D01*
D02*
G37*
G36*
X00287170Y00544902D02*
Y00538400D01*
X00293672D01*
X00293124Y00539724D01*
X00291114Y00542344D01*
X00288494Y00544354D01*
X00287170Y00544902D01*
D02*
G37*
G36*
X00277170D02*
X00275846Y00544354D01*
X00273226Y00542344D01*
X00271216Y00539724D01*
X00270668Y00538400D01*
X00277170D01*
Y00544902D01*
D02*
G37*
G36*
X00151040Y00549480D02*
X00135040D01*
Y00527480D01*
X00147492D01*
X00148298Y00526498D01*
X00148061Y00525310D01*
Y00522810D01*
X00145200D01*
Y00500810D01*
X00161200D01*
Y00522810D01*
X00159627D01*
X00159141Y00523983D01*
X00160644Y00525486D01*
X00161649Y00526991D01*
X00165070D01*
Y00520900D01*
X00172431D01*
Y00477750D01*
X00172822Y00475784D01*
X00173936Y00474116D01*
X00174166Y00473886D01*
X00175833Y00472772D01*
X00177800Y00472381D01*
X00179767Y00472772D01*
X00181434Y00473886D01*
X00182548Y00475554D01*
X00182939Y00477520D01*
X00182709Y00478676D01*
Y00520900D01*
X00190070D01*
Y00545900D01*
X00165070D01*
Y00537269D01*
X00162149D01*
Y00538480D01*
X00161758Y00540447D01*
X00160644Y00542114D01*
X00158976Y00543228D01*
X00157010Y00543619D01*
X00151040D01*
Y00549480D01*
D02*
G37*
G36*
X00134200Y00522810D02*
X00118200D01*
Y00500810D01*
X00121061D01*
Y00495735D01*
X00115080D01*
Y00460735D01*
X00150080D01*
Y00495735D01*
X00131339D01*
Y00500810D01*
X00134200D01*
Y00522810D01*
D02*
G37*
G36*
X00293672Y00528400D02*
X00287170D01*
Y00521898D01*
X00288494Y00522446D01*
X00291114Y00524456D01*
X00293124Y00527076D01*
X00293672Y00528400D01*
D02*
G37*
G36*
X00277170D02*
X00270668D01*
X00271216Y00527076D01*
X00273226Y00524456D01*
X00275846Y00522446D01*
X00277170Y00521898D01*
Y00528400D01*
D02*
G37*
G36*
X00350130Y00347260D02*
X00344090D01*
Y00344220D01*
X00350130D01*
Y00347260D01*
D02*
G37*
G36*
X00181230Y00232020D02*
X00178190D01*
Y00225980D01*
X00181230D01*
Y00232020D01*
D02*
G37*
G36*
X00168190D02*
X00165150D01*
Y00225980D01*
X00168190D01*
Y00232020D01*
D02*
G37*
G36*
X00327710Y00304380D02*
X00305710D01*
Y00288380D01*
X00311571D01*
Y00284480D01*
X00311571Y00284480D01*
X00311571D01*
X00311962Y00282514D01*
X00313076Y00280846D01*
X00317921Y00276001D01*
Y00268829D01*
X00316743Y00267651D01*
X00315570Y00268137D01*
Y00269620D01*
X00297347D01*
X00297347Y00269620D01*
Y00269620D01*
X00296570Y00269620D01*
X00296449Y00269741D01*
Y00288380D01*
X00302310D01*
Y00304380D01*
X00280310D01*
Y00288380D01*
X00286171D01*
Y00270221D01*
X00285570Y00269620D01*
X00285273Y00269620D01*
X00285273Y00269620D01*
Y00269620D01*
X00266570D01*
Y00267347D01*
X00265397Y00266861D01*
X00263429Y00268829D01*
Y00277271D01*
X00268274Y00282116D01*
X00269388Y00283783D01*
X00269779Y00285750D01*
Y00288380D01*
X00275640D01*
Y00304380D01*
X00253640D01*
Y00288380D01*
X00258343D01*
X00258829Y00287207D01*
X00254656Y00283034D01*
X00253542Y00281367D01*
X00253151Y00279400D01*
Y00266700D01*
X00253151Y00266700D01*
X00253151D01*
X00253542Y00264734D01*
X00254656Y00263066D01*
X00259736Y00257986D01*
X00261404Y00256872D01*
X00263370Y00256481D01*
X00266570D01*
Y00254518D01*
X00266570Y00254518D01*
X00266570D01*
X00266570Y00253620D01*
Y00253620D01*
D01*
X00266570Y00252722D01*
X00266570Y00252722D01*
X00266570D01*
Y00237620D01*
X00270931D01*
Y00224849D01*
X00251871D01*
X00250615Y00226485D01*
X00248631Y00228008D01*
X00246320Y00228965D01*
X00243840Y00229292D01*
X00241360Y00228965D01*
X00239049Y00228008D01*
X00237064Y00226485D01*
X00235542Y00224501D01*
X00234585Y00222190D01*
X00234258Y00219710D01*
X00234585Y00217230D01*
X00235542Y00214919D01*
X00237064Y00212934D01*
X00239049Y00211412D01*
X00241360Y00210455D01*
X00243840Y00210128D01*
X00246320Y00210455D01*
X00248631Y00211412D01*
X00250615Y00212934D01*
X00251871Y00214571D01*
X00312009D01*
X00313265Y00212934D01*
X00315249Y00211412D01*
X00317560Y00210455D01*
X00320040Y00210128D01*
X00322520Y00210455D01*
X00324831Y00211412D01*
X00326815Y00212934D01*
X00328338Y00214919D01*
X00329296Y00217230D01*
X00329622Y00219710D01*
X00329296Y00222190D01*
X00328338Y00224501D01*
X00326815Y00226485D01*
X00324831Y00228008D01*
X00322520Y00228965D01*
X00320040Y00229292D01*
X00317560Y00228965D01*
X00315249Y00228008D01*
X00313265Y00226485D01*
X00312009Y00224849D01*
X00281209D01*
Y00237620D01*
X00285570D01*
Y00244981D01*
X00286785Y00245350D01*
X00287676Y00244016D01*
X00289706Y00241986D01*
X00289706Y00241986D01*
X00289706D01*
X00289706Y00241986D01*
X00289706D01*
X00289706Y00241986D01*
Y00241986D01*
Y00241986D01*
D01*
D01*
X00289706D01*
Y00241986D01*
X00291374Y00240872D01*
X00293340Y00240481D01*
X00296570D01*
Y00237620D01*
X00315570D01*
Y00252722D01*
X00315570Y00252722D01*
X00315570D01*
X00315570Y00253620D01*
Y00253620D01*
D01*
X00315570Y00254518D01*
X00315570Y00254518D01*
X00315570D01*
Y00256481D01*
X00317980D01*
X00319946Y00256872D01*
X00321614Y00257986D01*
X00326694Y00263066D01*
X00327808Y00264734D01*
X00328199Y00266700D01*
Y00278130D01*
X00327808Y00280096D01*
X00326694Y00281764D01*
X00321849Y00286609D01*
Y00288380D01*
X00327710D01*
Y00304380D01*
D02*
G37*
G36*
X00383540Y00267878D02*
X00380277Y00267448D01*
X00377236Y00266189D01*
X00374625Y00264185D01*
X00372621Y00261574D01*
X00371886Y00259798D01*
X00370640Y00260046D01*
Y00267770D01*
X00345640D01*
Y00242770D01*
X00353364D01*
X00353612Y00241524D01*
X00351836Y00240789D01*
X00349225Y00238785D01*
X00347221Y00236174D01*
X00345962Y00233133D01*
X00345532Y00229870D01*
X00345962Y00226607D01*
X00347221Y00223566D01*
X00349225Y00220955D01*
X00351836Y00218951D01*
X00354877Y00217692D01*
X00358140Y00217262D01*
X00361403Y00217692D01*
X00364444Y00218951D01*
X00367055Y00220955D01*
X00369059Y00223566D01*
X00370205Y00226333D01*
X00370318D01*
Y00226333D01*
D01*
D01*
X00370318D01*
X00371362D01*
D01*
D01*
Y00226333D01*
X00371475D01*
X00372621Y00223566D01*
X00374625Y00220955D01*
X00377236Y00218951D01*
X00380277Y00217692D01*
X00383540Y00217262D01*
X00386803Y00217692D01*
X00389844Y00218951D01*
X00392455Y00220955D01*
X00394459Y00223566D01*
X00395718Y00226607D01*
X00396148Y00229870D01*
X00395718Y00233133D01*
X00394459Y00236174D01*
X00392455Y00238785D01*
X00389844Y00240789D01*
X00387077Y00241935D01*
Y00242048D01*
X00387077D01*
D01*
D01*
Y00242048D01*
Y00243092D01*
D01*
D01*
X00387077D01*
Y00243205D01*
X00389844Y00244351D01*
X00392455Y00246355D01*
X00394459Y00248966D01*
X00395718Y00252007D01*
X00396148Y00255270D01*
X00395718Y00258533D01*
X00394459Y00261574D01*
X00392455Y00264185D01*
X00389844Y00266189D01*
X00386803Y00267448D01*
X00383540Y00267878D01*
D02*
G37*
G36*
X00208190Y00231980D02*
X00192190D01*
Y00209980D01*
X00208190D01*
Y00214571D01*
X00210409D01*
X00211665Y00212934D01*
X00213649Y00211412D01*
X00215960Y00210455D01*
X00218440Y00210128D01*
X00220920Y00210455D01*
X00223231Y00211412D01*
X00225215Y00212934D01*
X00226738Y00214919D01*
X00227696Y00217230D01*
X00228022Y00219710D01*
X00227696Y00222190D01*
X00226738Y00224501D01*
X00225215Y00226485D01*
X00223231Y00228008D01*
X00220920Y00228965D01*
X00218440Y00229292D01*
X00215960Y00228965D01*
X00213649Y00228008D01*
X00211665Y00226485D01*
X00210409Y00224849D01*
X00208190D01*
Y00231980D01*
D02*
G37*
G36*
X00570000Y00252609D02*
X00565589Y00252174D01*
X00561348Y00250888D01*
X00557439Y00248799D01*
X00554013Y00245987D01*
X00551201Y00242561D01*
X00549112Y00238652D01*
X00547826Y00234411D01*
X00547391Y00230000D01*
X00547826Y00225589D01*
X00549112Y00221348D01*
X00551201Y00217439D01*
X00554013Y00214013D01*
X00557439Y00211201D01*
X00561348Y00209112D01*
X00565589Y00207826D01*
X00570000Y00207391D01*
X00574411Y00207826D01*
X00578652Y00209112D01*
X00582561Y00211201D01*
X00585987Y00214013D01*
X00588799Y00217439D01*
X00590888Y00221348D01*
X00592174Y00225589D01*
X00592609Y00230000D01*
X00592174Y00234411D01*
X00590888Y00238652D01*
X00588799Y00242561D01*
X00585987Y00245987D01*
X00582561Y00248799D01*
X00578652Y00250888D01*
X00574411Y00252174D01*
X00570000Y00252609D01*
D02*
G37*
G36*
X00130000D02*
X00125589Y00252174D01*
X00121348Y00250888D01*
X00117439Y00248799D01*
X00114013Y00245987D01*
X00111201Y00242561D01*
X00109112Y00238652D01*
X00107826Y00234411D01*
X00107391Y00230000D01*
X00107826Y00225589D01*
X00109112Y00221348D01*
X00111201Y00217439D01*
X00114013Y00214013D01*
X00117439Y00211201D01*
X00121348Y00209112D01*
X00125589Y00207826D01*
X00130000Y00207391D01*
X00134411Y00207826D01*
X00138652Y00209112D01*
X00142561Y00211201D01*
X00145987Y00214013D01*
X00148799Y00217439D01*
X00150888Y00221348D01*
X00152174Y00225589D01*
X00152609Y00230000D01*
X00152174Y00234411D01*
X00150888Y00238652D01*
X00148799Y00242561D01*
X00145987Y00245987D01*
X00142561Y00248799D01*
X00138652Y00250888D01*
X00134411Y00252174D01*
X00130000Y00252609D01*
D02*
G37*
G36*
X00181230Y00215980D02*
X00178190D01*
Y00209940D01*
X00181230D01*
Y00215980D01*
D02*
G37*
G36*
X00168190D02*
X00165150D01*
Y00209940D01*
X00168190D01*
Y00215980D01*
D02*
G37*
G36*
X00509985Y00338940D02*
X00497445D01*
Y00326400D01*
X00509985D01*
Y00338940D01*
D02*
G37*
G36*
X00150120D02*
X00137580D01*
Y00326400D01*
X00150120D01*
Y00338940D01*
D02*
G37*
G36*
X00334090Y00347260D02*
X00328050D01*
Y00344220D01*
X00334090D01*
Y00347260D01*
D02*
G37*
G36*
X00532525Y00338940D02*
X00519985D01*
Y00326400D01*
X00532525D01*
Y00338940D01*
D02*
G37*
G36*
X00127580D02*
X00115040D01*
Y00326400D01*
X00127580D01*
Y00338940D01*
D02*
G37*
G36*
X00150120Y00316400D02*
X00137580D01*
Y00303860D01*
X00150120D01*
Y00316400D01*
D02*
G37*
G36*
X00127580D02*
X00115040D01*
Y00303860D01*
X00127580D01*
Y00316400D01*
D02*
G37*
G36*
X00532525D02*
X00519985D01*
Y00303860D01*
X00532525D01*
Y00316400D01*
D02*
G37*
G36*
X00509985D02*
X00497445D01*
Y00303860D01*
X00509985D01*
Y00316400D01*
D02*
G37*
G36*
X00252640Y00692990D02*
X00236640D01*
Y00670990D01*
X00239501D01*
Y00661081D01*
X00237978Y00659912D01*
X00236375Y00657823D01*
X00235367Y00655390D01*
X00235024Y00652780D01*
X00235367Y00650170D01*
X00236375Y00647737D01*
X00237978Y00645648D01*
X00240067Y00644045D01*
X00242500Y00643037D01*
X00245110Y00642694D01*
X00247721Y00643037D01*
X00250153Y00644045D01*
X00252242Y00645648D01*
X00253845Y00647737D01*
X00254853Y00650170D01*
X00255196Y00652780D01*
X00254853Y00655390D01*
X00253845Y00657823D01*
X00252242Y00659912D01*
X00250153Y00661515D01*
X00249779Y00661670D01*
Y00670990D01*
X00252640D01*
Y00692990D01*
D02*
G37*
G36*
X00132860Y00632988D02*
X00119860D01*
X00117714Y00632561D01*
X00115895Y00631345D01*
X00114679Y00629526D01*
X00114252Y00627380D01*
X00114679Y00625234D01*
X00115895Y00623415D01*
X00117714Y00622199D01*
X00119860Y00621772D01*
X00132860D01*
X00135006Y00622199D01*
X00135069Y00622241D01*
X00144780D01*
X00146747Y00622632D01*
X00148414Y00623746D01*
X00149528Y00625414D01*
X00149919Y00627380D01*
X00149528Y00629347D01*
X00148414Y00631014D01*
X00146747Y00632128D01*
X00144780Y00632519D01*
X00135069D01*
X00135006Y00632561D01*
X00132860Y00632988D01*
D02*
G37*
G36*
X00228506Y00647780D02*
X00224710D01*
Y00643984D01*
X00224773Y00644010D01*
X00226871Y00645619D01*
X00228480Y00647717D01*
X00228506Y00647780D01*
D02*
G37*
G36*
X00214710D02*
X00210914D01*
X00210940Y00647717D01*
X00212549Y00645619D01*
X00214647Y00644010D01*
X00214710Y00643984D01*
Y00647780D01*
D02*
G37*
G36*
X00391770Y00661196D02*
X00387898Y00660814D01*
X00384175Y00659685D01*
X00380744Y00657851D01*
X00377737Y00655383D01*
X00375269Y00652376D01*
X00373435Y00648945D01*
X00372306Y00645222D01*
X00371925Y00641350D01*
X00372306Y00637478D01*
X00373435Y00633755D01*
X00375269Y00630324D01*
X00377737Y00627317D01*
X00380744Y00624849D01*
X00384175Y00623015D01*
X00387898Y00621886D01*
X00391770Y00621504D01*
X00395642Y00621886D01*
X00399365Y00623015D01*
X00402796Y00624849D01*
X00405803Y00627317D01*
X00408271Y00630324D01*
X00410105Y00633755D01*
X00411234Y00637478D01*
X00411616Y00641350D01*
X00411234Y00645222D01*
X00410105Y00648945D01*
X00408271Y00652376D01*
X00405803Y00655383D01*
X00402796Y00657851D01*
X00399365Y00659685D01*
X00395642Y00660814D01*
X00391770Y00661196D01*
D02*
G37*
G36*
X00219710Y00637466D02*
X00217099Y00637123D01*
X00214667Y00636115D01*
X00212578Y00634512D01*
X00210975Y00632423D01*
X00209967Y00629991D01*
X00209624Y00627380D01*
X00209967Y00624770D01*
X00210975Y00622337D01*
X00212578Y00620248D01*
X00214667Y00618645D01*
X00217099Y00617637D01*
X00219710Y00617294D01*
X00222320Y00617637D01*
X00224753Y00618645D01*
X00226842Y00620248D01*
X00228445Y00622337D01*
X00229453Y00624770D01*
X00229796Y00627380D01*
X00229453Y00629991D01*
X00228445Y00632423D01*
X00226842Y00634512D01*
X00224753Y00636115D01*
X00222320Y00637123D01*
X00219710Y00637466D01*
D02*
G37*
G36*
X00354370Y00619646D02*
Y00615850D01*
X00358166D01*
X00358140Y00615913D01*
X00356531Y00618011D01*
X00354433Y00619620D01*
X00354370Y00619646D01*
D02*
G37*
G36*
X00296570Y00661196D02*
X00292698Y00660814D01*
X00288975Y00659685D01*
X00285544Y00657851D01*
X00282537Y00655383D01*
X00280069Y00652376D01*
X00278235Y00648945D01*
X00277106Y00645222D01*
X00276724Y00641350D01*
X00277106Y00637478D01*
X00278235Y00633755D01*
X00280069Y00630324D01*
X00282537Y00627317D01*
X00285544Y00624849D01*
X00288975Y00623015D01*
X00292698Y00621886D01*
X00296570Y00621504D01*
X00300442Y00621886D01*
X00304165Y00623015D01*
X00307596Y00624849D01*
X00310603Y00627317D01*
X00313071Y00630324D01*
X00314905Y00633755D01*
X00316034Y00637478D01*
X00316416Y00641350D01*
X00316034Y00645222D01*
X00314905Y00648945D01*
X00313071Y00652376D01*
X00310603Y00655383D01*
X00307596Y00657851D01*
X00304165Y00659685D01*
X00300442Y00660814D01*
X00296570Y00661196D01*
D02*
G37*
G36*
X00245110Y00637466D02*
X00242500Y00637123D01*
X00240067Y00636115D01*
X00237978Y00634512D01*
X00236375Y00632423D01*
X00235367Y00629991D01*
X00235024Y00627380D01*
X00235367Y00624770D01*
X00236375Y00622337D01*
X00237978Y00620248D01*
X00240067Y00618645D01*
X00242500Y00617637D01*
X00245110Y00617294D01*
X00247721Y00617637D01*
X00250153Y00618645D01*
X00252242Y00620248D01*
X00253845Y00622337D01*
X00254853Y00624770D01*
X00255196Y00627380D01*
X00254853Y00629991D01*
X00253845Y00632423D01*
X00252242Y00634512D01*
X00250153Y00636115D01*
X00247721Y00637123D01*
X00245110Y00637466D01*
D02*
G37*
G36*
X00225640Y00692990D02*
X00209640D01*
Y00687129D01*
X00203495D01*
X00201529Y00686738D01*
X00199861Y00685624D01*
X00186271Y00672034D01*
X00185158Y00670367D01*
X00184766Y00668400D01*
Y00660664D01*
X00178682Y00654579D01*
X00177370D01*
Y00657440D01*
X00155370D01*
Y00641440D01*
X00156151D01*
Y00627380D01*
X00156542Y00625414D01*
X00157656Y00623746D01*
X00159324Y00622632D01*
X00161290Y00622241D01*
X00164651D01*
X00164714Y00622199D01*
X00166860Y00621772D01*
X00179860D01*
X00182006Y00622199D01*
X00182069Y00622241D01*
X00192181D01*
X00209952Y00604471D01*
X00209624Y00601980D01*
X00209967Y00599370D01*
X00210975Y00596937D01*
X00211049Y00596840D01*
X00210094Y00596003D01*
X00187784Y00618314D01*
X00186117Y00619428D01*
X00184150Y00619819D01*
X00182069D01*
X00182006Y00619861D01*
X00179860Y00620288D01*
X00166860D01*
X00164714Y00619861D01*
X00162895Y00618645D01*
X00161679Y00616826D01*
X00161252Y00614680D01*
X00161679Y00612534D01*
X00162895Y00610715D01*
X00164714Y00609499D01*
X00166860Y00609072D01*
X00179860D01*
X00182006Y00609499D01*
X00182041Y00609522D01*
X00183271Y00608292D01*
X00182785Y00607119D01*
X00182006Y00607161D01*
D01*
X00179860Y00607588D01*
X00166860D01*
X00164714Y00607161D01*
X00162895Y00605945D01*
X00161679Y00604126D01*
X00161252Y00601980D01*
X00161679Y00599834D01*
X00162895Y00598015D01*
X00164714Y00596799D01*
X00166860Y00596372D01*
X00179860D01*
X00182006Y00596799D01*
X00182069Y00596841D01*
X00182142D01*
X00211117Y00567866D01*
X00211116D01*
X00211117Y00567866D01*
X00211117Y00567866D01*
Y00567866D01*
X00212784Y00566752D01*
X00214750Y00566361D01*
X00279400D01*
X00281367Y00566752D01*
X00283034Y00567866D01*
X00300578Y00585411D01*
X00310108D01*
X00311638Y00583418D01*
X00313727Y00581815D01*
X00316159Y00580807D01*
X00318770Y00580464D01*
X00321381Y00580807D01*
X00323813Y00581815D01*
X00325902Y00583418D01*
X00327505Y00585507D01*
X00328313Y00587458D01*
X00328314D01*
X00328513Y00587939D01*
X00328857Y00590550D01*
X00328513Y00593161D01*
X00328314Y00593642D01*
X00328313D01*
X00327505Y00595593D01*
X00325902Y00597682D01*
X00323813Y00599285D01*
X00321381Y00600293D01*
X00318770Y00600636D01*
X00316159Y00600293D01*
X00313727Y00599285D01*
X00311638Y00597682D01*
X00310108Y00595689D01*
X00301085D01*
X00300599Y00596862D01*
X00309449Y00605711D01*
X00320308D01*
X00321838Y00603718D01*
X00323927Y00602115D01*
X00326359Y00601107D01*
X00328970Y00600764D01*
X00331581Y00601107D01*
X00334013Y00602115D01*
X00336102Y00603718D01*
X00337705Y00605807D01*
X00338513Y00607758D01*
X00338514D01*
X00338713Y00608239D01*
X00339057Y00610850D01*
X00338713Y00613461D01*
X00338514Y00613942D01*
X00338513D01*
X00337705Y00615893D01*
X00336102Y00617982D01*
X00334013Y00619585D01*
X00331581Y00620593D01*
X00328970Y00620936D01*
X00326359Y00620593D01*
X00323927Y00619585D01*
X00321838Y00617982D01*
X00320308Y00615989D01*
X00307320D01*
X00305354Y00615598D01*
X00303686Y00614484D01*
X00273461Y00584259D01*
X00221838D01*
X00213733Y00592364D01*
X00214570Y00593319D01*
X00214667Y00593245D01*
X00217099Y00592237D01*
X00219710Y00591894D01*
X00222320Y00592237D01*
X00224753Y00593245D01*
X00226842Y00594848D01*
X00228445Y00596937D01*
X00229453Y00599370D01*
X00229796Y00601980D01*
X00229453Y00604590D01*
X00228445Y00607023D01*
X00226842Y00609112D01*
X00224753Y00610715D01*
X00222320Y00611723D01*
X00219710Y00612066D01*
X00217219Y00611738D01*
X00197944Y00631014D01*
X00196276Y00632128D01*
X00194310Y00632519D01*
X00182069D01*
X00182006Y00632561D01*
X00179860Y00632988D01*
X00166860D01*
X00166429Y00633342D01*
Y00641440D01*
X00177370D01*
Y00644301D01*
X00180810D01*
X00182777Y00644692D01*
X00184444Y00645806D01*
X00193539Y00654901D01*
X00194653Y00656569D01*
X00195044Y00658535D01*
X00195044Y00658535D01*
X00195044Y00658535D01*
Y00658535D01*
Y00666272D01*
X00205624Y00676851D01*
X00209640D01*
Y00670990D01*
X00225640D01*
Y00692990D01*
D02*
G37*
G36*
X00177410Y00671440D02*
X00171370D01*
Y00668400D01*
X00177410D01*
Y00671440D01*
D02*
G37*
G36*
Y00684480D02*
X00171370D01*
Y00681440D01*
X00177410D01*
Y00684480D01*
D02*
G37*
G36*
X00161370D02*
X00155330D01*
Y00681440D01*
X00161370D01*
Y00684480D01*
D02*
G37*
G36*
Y00671440D02*
X00155330D01*
Y00668400D01*
X00161370D01*
Y00671440D01*
D02*
G37*
G36*
X00570000Y00692609D02*
X00565589Y00692174D01*
X00561348Y00690888D01*
X00557439Y00688799D01*
X00554013Y00685987D01*
X00551201Y00682561D01*
X00549112Y00678652D01*
X00547826Y00674411D01*
X00547391Y00670000D01*
X00547826Y00665589D01*
X00549112Y00661348D01*
X00551201Y00657439D01*
X00554013Y00654013D01*
X00557439Y00651201D01*
X00561348Y00649112D01*
X00565589Y00647826D01*
X00570000Y00647391D01*
X00574411Y00647826D01*
X00578652Y00649112D01*
X00582561Y00651201D01*
X00585987Y00654013D01*
X00588799Y00657439D01*
X00590888Y00661348D01*
X00592174Y00665589D01*
X00592609Y00670000D01*
X00592174Y00674411D01*
X00590888Y00678652D01*
X00588799Y00682561D01*
X00585987Y00685987D01*
X00582561Y00688799D01*
X00578652Y00690888D01*
X00574411Y00692174D01*
X00570000Y00692609D01*
D02*
G37*
G36*
X00130000D02*
X00125589Y00692174D01*
X00121348Y00690888D01*
X00117439Y00688799D01*
X00114013Y00685987D01*
X00111201Y00682561D01*
X00109112Y00678652D01*
X00107826Y00674411D01*
X00107391Y00670000D01*
X00107826Y00665589D01*
X00109112Y00661348D01*
X00111201Y00657439D01*
X00114013Y00654013D01*
X00117439Y00651201D01*
X00121348Y00649112D01*
X00125589Y00647826D01*
X00130000Y00647391D01*
X00134411Y00647826D01*
X00138652Y00649112D01*
X00142561Y00651201D01*
X00145987Y00654013D01*
X00148799Y00657439D01*
X00150888Y00661348D01*
X00152174Y00665589D01*
X00152609Y00670000D01*
X00152174Y00674411D01*
X00150888Y00678652D01*
X00148799Y00682561D01*
X00145987Y00685987D01*
X00142561Y00688799D01*
X00138652Y00690888D01*
X00134411Y00692174D01*
X00130000Y00692609D01*
D02*
G37*
G36*
X00224710Y00661576D02*
Y00657780D01*
X00228506D01*
X00228480Y00657843D01*
X00226871Y00659941D01*
X00224773Y00661550D01*
X00224710Y00661576D01*
D02*
G37*
G36*
X00214710D02*
X00214647Y00661550D01*
X00212549Y00659941D01*
X00210940Y00657843D01*
X00210914Y00657780D01*
X00214710D01*
Y00661576D01*
D02*
G37*
G36*
X00344370Y00619646D02*
X00344307Y00619620D01*
X00342209Y00618011D01*
X00340600Y00615913D01*
X00340574Y00615850D01*
X00344370D01*
Y00619646D01*
D02*
G37*
G36*
X00171400Y00573650D02*
X00168360D01*
Y00567610D01*
X00171400D01*
Y00573650D01*
D02*
G37*
G36*
X00158360D02*
X00155320D01*
Y00567610D01*
X00158360D01*
Y00573650D01*
D02*
G37*
G36*
X00347966Y00585550D02*
X00344170D01*
Y00581754D01*
X00344233Y00581780D01*
X00346331Y00583389D01*
X00347940Y00585487D01*
X00347966Y00585550D01*
D02*
G37*
G36*
X00334170D02*
X00330374D01*
X00330400Y00585487D01*
X00332009Y00583389D01*
X00334107Y00581780D01*
X00334170Y00581754D01*
Y00585550D01*
D02*
G37*
G36*
X00158360Y00557610D02*
X00155320D01*
Y00551570D01*
X00158360D01*
Y00557610D01*
D02*
G37*
G36*
X00124080Y00549520D02*
X00121040D01*
Y00543480D01*
X00124080D01*
Y00549520D01*
D02*
G37*
G36*
X00198120Y00574099D02*
X00196154Y00573708D01*
X00194486Y00572594D01*
X00193372Y00570927D01*
X00192981Y00568960D01*
X00193372Y00566993D01*
X00193877Y00566239D01*
X00193171Y00565183D01*
X00193040Y00565209D01*
X00191073Y00564818D01*
X00189406Y00563704D01*
X00188292Y00562037D01*
X00187901Y00560070D01*
X00188292Y00558103D01*
X00189406Y00556436D01*
X00226321Y00519521D01*
Y00471001D01*
X00226402Y00470595D01*
X00225504Y00469697D01*
X00224790Y00469839D01*
X00208160D01*
X00206194Y00469448D01*
X00204526Y00468334D01*
X00179246Y00443054D01*
X00178132Y00441386D01*
X00177741Y00439420D01*
Y00416560D01*
X00178132Y00414594D01*
X00179246Y00412926D01*
X00180914Y00411812D01*
X00182880Y00411421D01*
X00184846Y00411812D01*
X00186514Y00412926D01*
X00187628Y00414594D01*
X00188019Y00416560D01*
Y00437291D01*
X00210289Y00459561D01*
X00222661D01*
X00225941Y00456282D01*
Y00449896D01*
X00225727Y00448820D01*
Y00437820D01*
X00226135Y00435772D01*
X00226264Y00435579D01*
X00225665Y00434459D01*
X00223656D01*
X00222580Y00434673D01*
X00211580D01*
X00209532Y00434265D01*
X00207795Y00433105D01*
X00206635Y00431368D01*
X00206227Y00429320D01*
X00206601Y00427440D01*
X00206329Y00427109D01*
X00205061Y00427047D01*
X00203259Y00428848D01*
Y00433499D01*
X00207851Y00438091D01*
X00210820D01*
X00212787Y00438482D01*
X00214454Y00439596D01*
X00215568Y00441264D01*
X00215959Y00443230D01*
X00215568Y00445196D01*
X00214454Y00446864D01*
X00212787Y00447978D01*
X00210820Y00448369D01*
X00205722D01*
X00203755Y00447978D01*
X00202088Y00446864D01*
X00194486Y00439262D01*
X00193372Y00437594D01*
X00192981Y00435628D01*
Y00426720D01*
X00193372Y00424753D01*
X00194486Y00423086D01*
X00199886Y00417686D01*
X00201553Y00416572D01*
X00203520Y00416181D01*
X00205755D01*
X00206560Y00415200D01*
X00206186Y00413320D01*
X00206597Y00411256D01*
X00207766Y00409506D01*
X00207795Y00409487D01*
Y00409105D01*
X00206635Y00407369D01*
X00206227Y00405320D01*
X00206635Y00403272D01*
X00207795Y00401535D01*
Y00401534D01*
X00209531Y00400374D01*
X00211580Y00399967D01*
X00217080D01*
Y00394673D01*
X00211580D01*
X00209531Y00394266D01*
X00207795Y00393106D01*
Y00393105D01*
X00206635Y00391368D01*
X00206227Y00389320D01*
X00206601Y00387440D01*
X00205795Y00386459D01*
X00197170D01*
X00195203Y00386068D01*
X00193536Y00384954D01*
X00172626Y00364044D01*
X00171512Y00362377D01*
X00171121Y00360410D01*
Y00271703D01*
X00169042Y00270108D01*
X00167420Y00267994D01*
X00166401Y00265532D01*
X00166053Y00262890D01*
X00166401Y00260248D01*
X00167420Y00257786D01*
X00169042Y00255672D01*
X00171156Y00254050D01*
X00173618Y00253030D01*
X00176260Y00252683D01*
X00178902Y00253030D01*
X00181364Y00254050D01*
X00183478Y00255672D01*
X00185100Y00257786D01*
X00186119Y00260248D01*
X00186467Y00262890D01*
X00186119Y00265532D01*
X00185100Y00267994D01*
X00183478Y00270108D01*
X00181399Y00271703D01*
Y00297625D01*
X00182572Y00298111D01*
X00215195Y00265488D01*
X00214853Y00262890D01*
X00215201Y00260248D01*
X00216220Y00257786D01*
X00217842Y00255672D01*
X00219956Y00254050D01*
X00222418Y00253030D01*
X00225060Y00252683D01*
X00227702Y00253030D01*
X00230164Y00254050D01*
X00232278Y00255672D01*
X00233900Y00257786D01*
X00234919Y00260248D01*
X00235267Y00262890D01*
X00234919Y00265532D01*
X00233900Y00267994D01*
X00232278Y00270108D01*
X00230164Y00271730D01*
X00227702Y00272750D01*
X00225060Y00273097D01*
X00222462Y00272755D01*
X00188979Y00306238D01*
Y00355142D01*
X00202018Y00368181D01*
X00210504D01*
X00211580Y00367967D01*
X00222580D01*
X00224629Y00368375D01*
X00226365Y00369535D01*
X00227525Y00371272D01*
X00227933Y00373320D01*
X00227525Y00375368D01*
X00226365Y00377105D01*
Y00377535D01*
X00227525Y00379272D01*
X00227933Y00381320D01*
X00227525Y00383368D01*
X00227961Y00384420D01*
X00228727Y00384572D01*
X00230394Y00385686D01*
X00237039Y00392332D01*
X00237917Y00392447D01*
X00239498Y00393102D01*
X00240096Y00393561D01*
X00244375D01*
X00244861Y00392388D01*
X00235446Y00382973D01*
X00234332Y00381306D01*
X00233941Y00379340D01*
Y00370605D01*
X00232960Y00369799D01*
X00231080Y00370173D01*
X00229032Y00369765D01*
X00227295Y00368605D01*
X00226135Y00366869D01*
X00225727Y00364820D01*
Y00353820D01*
X00225941Y00352744D01*
Y00342960D01*
X00226332Y00340993D01*
X00227446Y00339326D01*
X00229114Y00338212D01*
X00229174Y00338200D01*
X00229189Y00338190D01*
X00231140Y00337802D01*
X00233091Y00338190D01*
X00234745Y00339295D01*
X00235850Y00340949D01*
X00236238Y00342900D01*
X00236219Y00342997D01*
Y00348035D01*
X00237201Y00348841D01*
X00239080Y00348467D01*
X00241128Y00348875D01*
X00242865Y00350035D01*
X00243295D01*
X00245032Y00348875D01*
X00247080Y00348467D01*
X00249128Y00348875D01*
X00250865Y00350035D01*
X00251295D01*
X00253032Y00348875D01*
X00255080Y00348467D01*
X00256960Y00348841D01*
X00257941Y00348035D01*
Y00331380D01*
X00253640D01*
Y00315380D01*
X00275640D01*
Y00331380D01*
X00268219D01*
Y00339515D01*
X00269392Y00340001D01*
X00275167Y00334226D01*
X00276834Y00333112D01*
X00278800Y00332721D01*
X00286171D01*
Y00331380D01*
X00280310D01*
Y00315380D01*
X00302310D01*
Y00331380D01*
X00296449D01*
Y00336070D01*
X00296058Y00338036D01*
X00295293Y00339181D01*
X00295891Y00340301D01*
X00305212D01*
X00311571Y00333941D01*
Y00331380D01*
X00305710D01*
Y00315380D01*
X00327710D01*
Y00331380D01*
X00321849D01*
Y00336070D01*
X00321458Y00338036D01*
X00320344Y00339704D01*
X00310974Y00349074D01*
X00309307Y00350188D01*
X00307340Y00350579D01*
X00292575D01*
X00291977Y00351699D01*
X00292025Y00351772D01*
X00292433Y00353820D01*
Y00364820D01*
X00292219Y00365896D01*
Y00367905D01*
X00293339Y00368503D01*
X00293532Y00368375D01*
X00295580Y00367967D01*
X00306580D01*
X00307656Y00368181D01*
X00321250D01*
X00323217Y00368572D01*
X00324884Y00369686D01*
X00324944Y00369746D01*
X00326058Y00371413D01*
X00326449Y00373380D01*
X00326058Y00375346D01*
X00324944Y00377014D01*
X00323276Y00378128D01*
X00321310Y00378519D01*
X00321008Y00378459D01*
X00312365D01*
X00311559Y00379440D01*
X00311933Y00381320D01*
X00311525Y00383368D01*
X00310365Y00385105D01*
Y00385535D01*
X00311525Y00387272D01*
X00311933Y00389320D01*
X00311559Y00391199D01*
X00312365Y00392181D01*
X00328090D01*
Y00388710D01*
X00333951D01*
Y00387260D01*
X00328090D01*
Y00371260D01*
X00328424D01*
X00328424Y00371259D01*
X00334480D01*
X00334480Y00371260D01*
X00350090D01*
Y00387260D01*
X00344229D01*
Y00388710D01*
X00350090D01*
Y00404710D01*
X00328090D01*
Y00402459D01*
X00312405D01*
X00311600Y00403441D01*
X00311974Y00405320D01*
X00311563Y00407384D01*
X00310394Y00409134D01*
X00310365Y00409153D01*
Y00409535D01*
X00311525Y00411272D01*
X00311933Y00413320D01*
X00311559Y00415200D01*
X00312365Y00416181D01*
X00315572D01*
X00317539Y00416572D01*
X00319206Y00417686D01*
X00326877Y00425357D01*
X00328050Y00424871D01*
Y00415670D01*
X00334090D01*
Y00423710D01*
X00339090D01*
Y00428710D01*
X00350130D01*
Y00431750D01*
X00334929D01*
X00334443Y00432923D01*
X00351041Y00449521D01*
X00408082D01*
X00434281Y00423321D01*
Y00360680D01*
X00434672Y00358713D01*
X00435786Y00357046D01*
X00437453Y00355932D01*
X00439420Y00355541D01*
X00440880Y00355832D01*
X00441861Y00355026D01*
Y00353100D01*
X00442252Y00351133D01*
X00443366Y00349466D01*
X00443406Y00349426D01*
X00445074Y00348312D01*
X00447040Y00347921D01*
X00448499Y00348212D01*
X00449481Y00347406D01*
Y00344210D01*
X00449481Y00344210D01*
X00449481D01*
X00449872Y00342243D01*
X00450986Y00340576D01*
X00451026Y00340536D01*
X00452693Y00339422D01*
X00454660Y00339031D01*
X00456119Y00339322D01*
X00457101Y00338516D01*
Y00334050D01*
X00457492Y00332084D01*
X00458606Y00330416D01*
X00458646Y00330376D01*
X00460313Y00329263D01*
X00462280Y00328871D01*
X00464246Y00329263D01*
X00465914Y00330376D01*
X00467028Y00332043D01*
X00467419Y00334010D01*
X00467379Y00334211D01*
Y00374570D01*
X00467299Y00374972D01*
Y00434869D01*
X00466908Y00436836D01*
X00465794Y00438503D01*
X00423263Y00481034D01*
X00421596Y00482147D01*
X00419629Y00482539D01*
X00320630D01*
X00318664Y00482147D01*
X00316997Y00481034D01*
X00308996Y00473033D01*
X00307999Y00473819D01*
X00309158Y00475712D01*
X00310815Y00479711D01*
X00311825Y00483920D01*
X00312165Y00488235D01*
X00311825Y00492550D01*
X00310815Y00496759D01*
X00309158Y00500758D01*
X00306897Y00504449D01*
X00304086Y00507741D01*
X00300794Y00510552D01*
X00297103Y00512813D01*
X00293104Y00514470D01*
X00288895Y00515480D01*
X00284580Y00515820D01*
X00280265Y00515480D01*
X00276056Y00514470D01*
X00272057Y00512813D01*
X00268366Y00510552D01*
X00265074Y00507741D01*
X00262263Y00504449D01*
X00260002Y00500758D01*
X00258345Y00496759D01*
X00257335Y00492550D01*
X00256995Y00488235D01*
X00257335Y00483920D01*
X00258345Y00479711D01*
X00260002Y00475712D01*
X00262263Y00472021D01*
X00265074Y00468729D01*
X00268366Y00465918D01*
X00272057Y00463657D01*
X00276056Y00462000D01*
X00278874Y00461324D01*
X00279219Y00460101D01*
X00275446Y00456329D01*
X00274332Y00454661D01*
X00274246Y00454228D01*
X00273128Y00453765D01*
X00271080Y00454173D01*
X00269200Y00453799D01*
X00268219Y00454605D01*
Y00460820D01*
X00267828Y00462786D01*
X00266714Y00464454D01*
X00252789Y00478378D01*
Y00542701D01*
X00259939Y00549851D01*
X00302672D01*
X00311091Y00541432D01*
Y00514350D01*
X00311482Y00512383D01*
X00312596Y00510716D01*
X00314263Y00509602D01*
X00316230Y00509211D01*
X00318197Y00509602D01*
X00319864Y00510716D01*
X00320978Y00512383D01*
X00321369Y00514350D01*
Y00543560D01*
X00320978Y00545527D01*
X00319864Y00547194D01*
X00308434Y00558624D01*
X00306766Y00559738D01*
X00304800Y00560129D01*
X00257810D01*
X00255844Y00559738D01*
X00254176Y00558624D01*
X00244016Y00548464D01*
X00242902Y00546796D01*
X00242511Y00544830D01*
Y00533495D01*
X00241338Y00533009D01*
X00201754Y00572594D01*
X00200086Y00573708D01*
X00198120Y00574099D01*
D02*
G37*
G36*
X00171400Y00557610D02*
X00168360D01*
Y00551570D01*
X00171400D01*
Y00557610D01*
D02*
G37*
G36*
X00111040Y00549520D02*
X00108000D01*
Y00543480D01*
X00111040D01*
Y00549520D01*
D02*
G37*
G36*
X00339170Y00600677D02*
X00336549Y00600332D01*
X00334107Y00599320D01*
X00332009Y00597711D01*
X00330400Y00595613D01*
X00330374Y00595550D01*
X00347966D01*
X00347940Y00595613D01*
X00346331Y00597711D01*
X00344233Y00599320D01*
X00341791Y00600332D01*
X00339170Y00600677D01*
D02*
G37*
G36*
X00179860Y00594929D02*
X00178360D01*
Y00594280D01*
X00182349D01*
X00182022Y00594499D01*
X00179860Y00594929D01*
D02*
G37*
G36*
X00132860Y00620288D02*
X00119860D01*
X00117714Y00619861D01*
X00115895Y00618645D01*
X00114679Y00616826D01*
X00114252Y00614680D01*
X00114679Y00612534D01*
X00115895Y00610715D01*
X00117714Y00609499D01*
X00119860Y00609072D01*
X00132860D01*
X00135006Y00609499D01*
X00135069Y00609541D01*
X00143921D01*
X00145171Y00608292D01*
X00144685Y00607119D01*
X00135069D01*
X00135006Y00607161D01*
X00132860Y00607588D01*
X00119860D01*
X00117714Y00607161D01*
X00115895Y00605945D01*
X00114679Y00604126D01*
X00114252Y00601980D01*
X00114679Y00599834D01*
X00115895Y00598015D01*
X00117714Y00596799D01*
X00119860Y00596372D01*
X00132860D01*
X00135006Y00596799D01*
X00135069Y00596841D01*
X00145951D01*
Y00594934D01*
X00144970Y00594128D01*
X00143510Y00594419D01*
X00135069D01*
X00135006Y00594461D01*
X00132860Y00594888D01*
X00119860D01*
X00117714Y00594461D01*
X00115895Y00593245D01*
X00114679Y00591426D01*
X00114252Y00589280D01*
X00114679Y00587134D01*
X00115895Y00585315D01*
X00117714Y00584099D01*
X00119860Y00583672D01*
X00132860D01*
X00135006Y00584099D01*
X00135069Y00584141D01*
X00140875D01*
X00141361Y00582968D01*
X00132726Y00574334D01*
X00132243Y00573610D01*
X00128360D01*
Y00571559D01*
X00121920D01*
X00119953Y00571168D01*
X00118286Y00570054D01*
X00117172Y00568386D01*
X00116781Y00566420D01*
X00117172Y00564454D01*
X00118286Y00562786D01*
X00119953Y00561672D01*
X00121920Y00561281D01*
X00128360D01*
Y00551610D01*
X00144360D01*
Y00571433D01*
X00154724Y00581796D01*
X00155838Y00583464D01*
X00156229Y00585430D01*
X00156229Y00585430D01*
X00156229Y00585430D01*
Y00585430D01*
Y00609640D01*
X00155838Y00611606D01*
X00154724Y00613274D01*
X00149684Y00618314D01*
X00148017Y00619428D01*
X00146050Y00619819D01*
X00135069D01*
X00135006Y00619861D01*
X00132860Y00620288D01*
D02*
G37*
G36*
X00358166Y00605850D02*
X00340574D01*
X00340600Y00605787D01*
X00342209Y00603689D01*
X00344307Y00602080D01*
X00346749Y00601068D01*
X00349370Y00600723D01*
X00351991Y00601068D01*
X00354433Y00602080D01*
X00356531Y00603689D01*
X00358140Y00605787D01*
X00358166Y00605850D01*
D02*
G37*
G36*
X00182349Y00584280D02*
X00178360D01*
Y00583632D01*
X00179860D01*
X00182022Y00584061D01*
X00182349Y00584280D01*
D02*
G37*
G36*
X00168360D02*
X00164371D01*
X00164698Y00584061D01*
X00166860Y00583632D01*
X00168360D01*
Y00584280D01*
D02*
G37*
G36*
Y00594929D02*
X00166860D01*
X00164698Y00594499D01*
X00164371Y00594280D01*
X00168360D01*
Y00594929D01*
D02*
G37*
G36*
X00255110Y00611980D02*
X00235110D01*
Y00591980D01*
X00255110D01*
Y00611980D01*
D02*
G37*
%LPD*%
G36*
X00339773Y00463508D02*
X00331322Y00455056D01*
X00330120Y00455421D01*
Y00454660D01*
X00325120D01*
Y00449660D01*
X00324359D01*
X00324724Y00448458D01*
X00310724Y00434459D01*
X00307656D01*
X00307309Y00434528D01*
Y00434756D01*
X00304012Y00434712D01*
X00304008Y00434673D01*
X00295580D01*
X00293532Y00434265D01*
X00291795Y00433105D01*
X00290635Y00431368D01*
X00290227Y00429320D01*
X00290635Y00427272D01*
X00291795Y00425535D01*
Y00425105D01*
X00290635Y00423368D01*
X00290227Y00421320D01*
X00290635Y00419272D01*
X00291795Y00417535D01*
Y00417105D01*
X00290635Y00415368D01*
X00290227Y00413320D01*
X00290635Y00411272D01*
X00291795Y00409535D01*
Y00409153D01*
X00291766Y00409134D01*
X00290597Y00407384D01*
X00290186Y00405320D01*
X00290560Y00403441D01*
X00289755Y00402459D01*
X00285970D01*
X00284490Y00403448D01*
X00282523Y00403839D01*
X00240305D01*
X00239498Y00404458D01*
X00237917Y00405113D01*
X00237039Y00405228D01*
X00233314Y00408954D01*
X00231646Y00410068D01*
X00229680Y00410459D01*
X00228405D01*
X00227600Y00411441D01*
X00227974Y00413320D01*
X00227563Y00415384D01*
X00226394Y00417134D01*
X00226365Y00417153D01*
Y00417535D01*
X00227472Y00419192D01*
X00228736Y00419317D01*
X00240206Y00407846D01*
X00240206D01*
X00240206Y00407846D01*
X00240206Y00407846D01*
Y00407846D01*
X00241873Y00406732D01*
X00243840Y00406341D01*
X00280670D01*
X00282637Y00406732D01*
X00284304Y00407846D01*
X00285418Y00409514D01*
X00285809Y00411480D01*
X00285418Y00413447D01*
X00284304Y00415114D01*
X00282637Y00416228D01*
X00280670Y00416619D01*
X00245968D01*
X00243146Y00419441D01*
X00243245Y00420450D01*
X00242138D01*
X00241300Y00421288D01*
Y00425450D01*
X00237138D01*
X00236300Y00426288D01*
Y00427395D01*
X00235291Y00427296D01*
X00231232Y00431355D01*
X00231600Y00432571D01*
X00233128Y00432875D01*
X00234865Y00434035D01*
X00235295D01*
X00237032Y00432875D01*
X00239080Y00432467D01*
X00241128Y00432875D01*
X00242865Y00434035D01*
X00243295D01*
X00245032Y00432875D01*
X00247080Y00432467D01*
X00249128Y00432875D01*
X00250865Y00434035D01*
X00251295D01*
X00253032Y00432875D01*
X00255080Y00432467D01*
X00257128Y00432875D01*
X00258865Y00434035D01*
X00259295D01*
X00261032Y00432875D01*
X00263080Y00432467D01*
X00265128Y00432875D01*
X00266865Y00434035D01*
X00267295D01*
X00269032Y00432875D01*
X00271080Y00432467D01*
X00273128Y00432875D01*
X00274865Y00434035D01*
X00275295D01*
X00277032Y00432875D01*
X00279080Y00432467D01*
X00281128Y00432875D01*
X00282865Y00434035D01*
X00283295D01*
X00285032Y00432875D01*
X00287080Y00432467D01*
X00289128Y00432875D01*
X00290865Y00434035D01*
X00292025Y00435772D01*
X00292433Y00437820D01*
Y00438181D01*
X00297270D01*
X00299237Y00438573D01*
X00300904Y00439686D01*
D01*
X00301070Y00439304D01*
Y00439852D01*
X00301908Y00440690D01*
X00306070D01*
Y00444852D01*
X00306908Y00445690D01*
X00308015D01*
X00307916Y00446699D01*
X00325899Y00464681D01*
X00339287D01*
X00339773Y00463508D01*
D02*
G37*
D10*
X00173190Y00220980D02*
D03*
X00200190D02*
D03*
X00163360Y00562610D02*
D03*
X00136360D02*
D03*
X00384010Y00417830D02*
D03*
X00411010D02*
D03*
X00116040Y00538480D02*
D03*
X00143040D02*
D03*
X00244640Y00681990D02*
D03*
X00217640D02*
D03*
X00153200Y00511810D02*
D03*
X00126200D02*
D03*
D11*
X00339090Y00396710D02*
D03*
Y00423710D02*
D03*
X00316710Y00323380D02*
D03*
Y00296380D02*
D03*
X00264640Y00323380D02*
D03*
Y00296380D02*
D03*
X00166370Y00676440D02*
D03*
Y00649440D02*
D03*
X00339090Y00352260D02*
D03*
Y00379260D02*
D03*
X00291310Y00323380D02*
D03*
Y00296380D02*
D03*
D12*
X00173360Y00589280D02*
D03*
Y00601980D02*
D03*
Y00614680D02*
D03*
Y00627380D02*
D03*
X00126360Y00589280D02*
D03*
Y00601980D02*
D03*
Y00614680D02*
D03*
Y00627380D02*
D03*
D13*
X00388470Y00319270D02*
D03*
D14*
X00365770Y00381770D02*
D03*
X00411470Y00381770D02*
D03*
D15*
X00306070Y00245620D02*
D03*
Y00261620D02*
D03*
X00276070Y00245620D02*
D03*
Y00261620D02*
D03*
D16*
X00231080Y00443320D02*
D03*
X00239080D02*
D03*
X00247080D02*
D03*
X00255080D02*
D03*
X00263080D02*
D03*
X00271080D02*
D03*
X00279080D02*
D03*
X00287080D02*
D03*
Y00359320D02*
D03*
X00279080D02*
D03*
X00271080D02*
D03*
X00263080D02*
D03*
X00255080D02*
D03*
X00247080D02*
D03*
X00239080D02*
D03*
X00231080D02*
D03*
D17*
X00301080Y00429320D02*
D03*
Y00421320D02*
D03*
Y00413320D02*
D03*
Y00405320D02*
D03*
Y00397320D02*
D03*
Y00389320D02*
D03*
Y00381320D02*
D03*
Y00373320D02*
D03*
X00217080D02*
D03*
Y00381320D02*
D03*
Y00389320D02*
D03*
Y00397320D02*
D03*
Y00405320D02*
D03*
Y00413320D02*
D03*
Y00421320D02*
D03*
Y00429320D02*
D03*
D18*
X00157010Y00529120D02*
Y00538480D01*
X00153200Y00525310D02*
X00157010Y00529120D01*
X00153200Y00511810D02*
Y00525310D01*
X00145580Y00538480D02*
X00157010D01*
X00143040Y00541020D02*
X00145580Y00538480D01*
X00157480Y00532130D02*
X00177570D01*
X00126200Y00482210D02*
X00130175Y00478235D01*
X00126200Y00482210D02*
Y00511810D01*
X00197170Y00381320D02*
X00217080D01*
X00320630Y00477400D02*
X00419629D01*
X00300430Y00457200D02*
X00320630Y00477400D01*
X00283585Y00457200D02*
X00300430D01*
X00323770Y00469820D02*
X00416489D01*
X00297270Y00443320D02*
X00323770Y00469820D01*
X00287080Y00443320D02*
X00297270D01*
X00146050Y00614680D02*
X00151090Y00609640D01*
Y00585430D02*
Y00609640D01*
X00136360Y00570700D02*
X00151090Y00585430D01*
X00126360Y00589280D02*
X00143510D01*
X00316230Y00514350D02*
Y00543560D01*
X00304800Y00554990D02*
X00316230Y00543560D01*
X00257810Y00554990D02*
X00304800D01*
X00247650Y00544830D02*
X00257810Y00554990D01*
X00247650Y00476250D02*
Y00544830D01*
Y00476250D02*
X00263080Y00460820D01*
X00240030Y00473150D02*
Y00527050D01*
X00231460Y00471001D02*
Y00521650D01*
X00240030Y00473150D02*
X00246870Y00466310D01*
X00231460Y00471001D02*
X00239080Y00463381D01*
X00198120Y00568960D02*
X00240030Y00527050D01*
X00239080Y00443320D02*
Y00463381D01*
X00246870Y00443530D02*
Y00466310D01*
X00193040Y00560070D02*
X00231460Y00521650D01*
X00263080Y00443320D02*
Y00460820D01*
X00231080Y00443320D02*
Y00458410D01*
X00224790Y00464700D02*
X00231080Y00458410D01*
X00462240Y00334050D02*
X00462280Y00334010D01*
X00462240Y00334050D02*
Y00374570D01*
X00462160Y00374650D02*
X00462240Y00374570D01*
X00454620Y00344210D02*
X00454660Y00344170D01*
X00454620Y00344210D02*
Y00356200D01*
X00454580Y00356240D02*
X00454620Y00356200D01*
X00447000Y00353100D02*
X00447040Y00353060D01*
X00462160Y00374650D02*
Y00434869D01*
X00419629Y00477400D02*
X00462160Y00434869D01*
X00454580Y00356240D02*
Y00431729D01*
X00416489Y00469820D02*
X00454580Y00431729D01*
X00447000Y00353100D02*
Y00428590D01*
X00413350Y00462240D02*
X00447000Y00428590D01*
X00345773Y00462240D02*
X00413350D01*
X00439420Y00360680D02*
Y00425450D01*
X00410210Y00454660D02*
X00439420Y00425450D01*
X00279080Y00452695D02*
X00283585Y00457200D01*
X00312853Y00429320D02*
X00345773Y00462240D01*
X00348912Y00454660D02*
X00410210D01*
X00315572Y00421320D02*
X00348912Y00454660D01*
X00363220Y00417830D02*
X00384010D01*
X00279080Y00443320D02*
Y00452695D01*
X00301080Y00429320D02*
X00312853D01*
X00301080Y00421320D02*
X00315572D01*
X00246870Y00443530D02*
X00247080Y00443320D01*
X00301080Y00397320D02*
X00338480D01*
X00339090Y00396710D01*
Y00379260D02*
Y00396710D01*
X00307320Y00610850D02*
X00328970D01*
X00203495Y00681990D02*
X00217640D01*
X00189905Y00668400D02*
X00203495Y00681990D01*
X00189905Y00658535D02*
Y00668400D01*
X00180810Y00649440D02*
X00189905Y00658535D01*
X00166370Y00649440D02*
X00180810D01*
X00244640Y00653250D02*
X00245110Y00652780D01*
X00244640Y00653250D02*
Y00681990D01*
X00164300Y00649440D02*
X00166370D01*
X00194310Y00627380D02*
X00219710Y00601980D01*
X00161290Y00646430D02*
X00164300Y00649440D01*
X00161290Y00627380D02*
Y00646430D01*
Y00627380D02*
X00173360D01*
X00194310D01*
X00219710Y00579120D02*
X00275590D01*
X00184150Y00614680D02*
X00219710Y00579120D01*
X00173360Y00614680D02*
X00184150D01*
X00275590Y00579120D02*
X00307320Y00610850D01*
X00214750Y00571500D02*
X00279400D01*
X00184270Y00601980D02*
X00214750Y00571500D01*
X00173360Y00601980D02*
X00184270D01*
X00279400Y00571500D02*
X00298450Y00590550D01*
X00318770D01*
X00263370Y00261620D02*
X00276070D01*
X00258290Y00266700D02*
X00263370Y00261620D01*
X00258290Y00266700D02*
Y00279400D01*
X00264640Y00285750D01*
X00293340Y00245620D02*
X00306070D01*
X00291310Y00247650D02*
X00293340Y00245620D01*
X00291310Y00247650D02*
Y00296380D01*
X00264640Y00285750D02*
Y00296380D01*
X00316710Y00284480D02*
Y00296380D01*
Y00284480D02*
X00323060Y00278130D01*
Y00266700D02*
Y00278130D01*
X00317980Y00261620D02*
X00323060Y00266700D01*
X00306070Y00261620D02*
X00317980D01*
X00316710Y00323380D02*
X00317980Y00324650D01*
X00177570Y00477750D02*
Y00532130D01*
Y00477750D02*
X00177800Y00477520D01*
X00216700Y00221450D02*
X00218440Y00219710D01*
X00411010Y00382230D02*
Y00417830D01*
Y00382230D02*
X00411470Y00381770D01*
X00231080Y00342960D02*
Y00359320D01*
X00217080Y00405320D02*
X00229680D01*
X00236220Y00398780D01*
X00217080Y00389320D02*
X00226760D01*
X00236220Y00398780D01*
X00301080Y00373320D02*
X00321250D01*
X00321310Y00373380D01*
X00287080Y00359320D02*
Y00373320D01*
X00289800Y00381320D02*
X00301080D01*
X00236220Y00398780D02*
X00236300Y00398700D01*
X00278130Y00382270D02*
X00287080Y00373320D01*
X00278870Y00359530D02*
X00279080Y00359320D01*
X00278870Y00359530D02*
Y00368047D01*
X00272227Y00374690D02*
X00278870Y00368047D01*
X00255270Y00446050D02*
Y00457141D01*
X00255080Y00443320D02*
X00255270Y00443510D01*
X00301080Y00405320D02*
X00313500D01*
X00313690Y00405130D01*
X00288480Y00405320D02*
X00301080D01*
X00288290Y00405130D02*
X00288480Y00405320D01*
X00217080Y00413320D02*
X00229450D01*
X00229870Y00412900D01*
X00208160Y00464700D02*
X00224790D01*
X00182880Y00416560D02*
Y00439420D01*
X00208160Y00464700D01*
X00203520Y00421320D02*
X00217080D01*
X00198120Y00426720D02*
X00203520Y00421320D01*
X00198120Y00426720D02*
Y00435628D01*
X00205722Y00443230D01*
X00210820D01*
X00136360Y00562610D02*
Y00570700D01*
X00126360Y00601980D02*
X00149860D01*
X00126360Y00614680D02*
X00146050D01*
X00126360Y00627380D02*
X00144780D01*
X00121920Y00566420D02*
X00132550D01*
X00136360Y00562610D01*
X00278033Y00389850D02*
X00279303Y00391120D01*
X00286940Y00384180D02*
X00289800Y00381320D01*
X00236300Y00398700D02*
X00282523D01*
X00286940Y00384180D02*
Y00394283D01*
X00285057Y00397320D02*
X00301080D01*
X00284480Y00396743D02*
X00285057Y00397320D01*
X00282523Y00398700D02*
X00284480Y00396743D01*
X00286940Y00394283D01*
X00239080Y00379340D02*
X00249590Y00389850D01*
X00239080Y00359320D02*
Y00379340D01*
X00249590Y00389850D02*
X00278033D01*
X00248920Y00378460D02*
X00252690Y00374690D01*
X00272227D01*
X00257810Y00382270D02*
X00278130D01*
X00203620Y00413320D02*
X00217080D01*
X00203200Y00413740D02*
X00203620Y00413320D01*
X00217080Y00429320D02*
X00226000D01*
X00243840Y00411480D01*
X00280670D01*
X00176260Y00262890D02*
Y00360410D01*
X00197170Y00381320D01*
X00183840Y00357270D02*
X00199890Y00373320D01*
X00183840Y00304110D02*
Y00357270D01*
Y00304110D02*
X00225060Y00262890D01*
X00199890Y00373320D02*
X00217080D01*
X00201460Y00219710D02*
X00218440D01*
X00200190Y00220980D02*
X00201460Y00219710D01*
X00276070Y00220500D02*
Y00245620D01*
Y00220500D02*
X00276860Y00219710D01*
X00243840D02*
X00276860D01*
X00320040D01*
X00279080Y00348300D02*
Y00359320D01*
Y00348300D02*
X00281940Y00345440D01*
X00307340D01*
X00316710Y00336070D01*
Y00323380D02*
Y00336070D01*
X00271080Y00345580D02*
Y00359320D01*
Y00345580D02*
X00278800Y00337860D01*
X00289520D01*
X00291310Y00336070D01*
Y00323380D02*
Y00336070D01*
X00263080Y00324940D02*
Y00359320D01*
Y00324940D02*
X00264640Y00323380D01*
D19*
X00571730Y00473940D02*
X00577295Y00479505D01*
X00571730Y00274320D02*
Y00473940D01*
X00495300Y00234950D02*
X00534670Y00274320D01*
X00571730D01*
X00589000Y00491210D02*
Y00551861D01*
X00577295Y00479505D02*
X00589000Y00491210D01*
X00514985Y00479505D02*
X00577295D01*
X00501650Y00543330D02*
X00505460D01*
X00468630D02*
X00501650D01*
X00435610D02*
X00468630D01*
X00385040D02*
X00435610D01*
X00359570Y00568800D02*
X00385040Y00543330D01*
X00359570Y00568800D02*
Y00590550D01*
X00369770Y00600750D01*
Y00610850D01*
X00505460Y00489030D02*
Y00543330D01*
X00568960Y00568960D02*
Y00594360D01*
Y00619760D01*
X00505460Y00489030D02*
X00514985Y00479505D01*
X00505460Y00543330D02*
X00543330D01*
X00485140Y00568960D02*
X00543560D01*
X00499110Y00594360D02*
X00543560D01*
X00514350Y00619760D02*
X00543560D01*
X00388470Y00319270D02*
X00430030D01*
X00467130Y00282170D01*
X00568960Y00568960D02*
X00571901D01*
X00589000Y00551861D01*
X00501650Y00632460D02*
Y00647930D01*
Y00632460D02*
X00514350Y00619760D01*
X00468630Y00624840D02*
Y00647930D01*
Y00624840D02*
X00499110Y00594360D01*
X00435610Y00618490D02*
Y00647930D01*
Y00618490D02*
X00485140Y00568960D01*
X00467130Y00238120D02*
Y00282170D01*
Y00238120D02*
X00467760Y00237490D01*
D20*
X00225060Y00262890D02*
D03*
X00176260D02*
D03*
X00570000Y00670000D02*
D03*
X00130000D02*
D03*
Y00230000D02*
D03*
X00570000D02*
D03*
D21*
X00284580Y00488235D02*
D03*
D22*
X00132580Y00321400D02*
D03*
X00514985D02*
D03*
Y00479505D02*
D03*
X00132580Y00478235D02*
D03*
D23*
X00383540Y00255270D02*
D03*
Y00229870D02*
D03*
X00358140D02*
D03*
X00568960Y00543560D02*
D03*
Y00568960D02*
D03*
Y00594360D02*
D03*
Y00619760D02*
D03*
X00543560D02*
D03*
Y00594360D02*
D03*
Y00568960D02*
D03*
X00467760Y00237490D02*
D03*
D24*
X00358140Y00255270D02*
D03*
X00492760Y00237490D02*
D03*
D25*
X00282170Y00533400D02*
D03*
X00468630Y00647930D02*
D03*
X00501650D02*
D03*
X00467130Y00275590D02*
D03*
X00435610Y00647930D02*
D03*
D26*
X00177570Y00533400D02*
D03*
X00571730Y00275590D02*
D03*
D27*
X00543560Y00543560D02*
D03*
D28*
X00219710Y00601980D02*
D03*
Y00652780D02*
D03*
X00245110D02*
D03*
X00219710Y00627380D02*
D03*
X00245110D02*
D03*
X00359570Y00590550D02*
D03*
X00339170D02*
D03*
X00318770D02*
D03*
X00369770Y00610850D02*
D03*
X00349370D02*
D03*
X00328970D02*
D03*
D29*
X00245110Y00601980D02*
D03*
D30*
X00468630Y00543330D02*
D03*
X00501650D02*
D03*
X00435610D02*
D03*
D31*
X00218440Y00219710D02*
D03*
X00320040D02*
D03*
X00243840D02*
D03*
D32*
X00325120Y00454660D02*
D03*
X00143510Y00589280D02*
D03*
X00316230Y00514350D02*
D03*
X00255270Y00457141D02*
D03*
X00447040Y00353060D02*
D03*
X00454660Y00344170D02*
D03*
X00462280Y00334010D02*
D03*
X00439420Y00360680D02*
D03*
X00363220Y00417830D02*
D03*
X00121920Y00566420D02*
D03*
X00177800Y00477520D02*
D03*
X00231140Y00342900D02*
D03*
X00321310Y00373380D02*
D03*
X00306070Y00440690D02*
D03*
X00280670Y00411480D02*
D03*
X00182880Y00416560D02*
D03*
X00210820Y00443230D02*
D03*
X00144780Y00627380D02*
D03*
X00193040Y00560070D02*
D03*
X00198120Y00568960D02*
D03*
X00279400Y00391160D02*
D03*
X00248920Y00378460D02*
D03*
X00257810Y00382270D02*
D03*
X00190500Y00463550D02*
D03*
X00233680Y00322580D02*
D03*
X00356870Y00441960D02*
D03*
X00331452Y00365760D02*
D03*
X00276860Y00424180D02*
D03*
X00241300Y00425450D02*
D03*
D33*
X00391770Y00641350D02*
D03*
X00296570D02*
D03*
D34*
X00236220Y00398780D02*
D03*
M02*
