%FSAX44Y44*%
%MOMM*%
G71*
G01*
G75*
G04 Layer_Color=65535*
%ADD10R,1.1000X1.7000*%
%ADD11R,1.7000X1.1000*%
%ADD12O,1.9000X0.6000*%
%ADD13R,6.0000X6.5000*%
%ADD14R,1.4000X3.0000*%
%ADD15R,1.4000X1.1000*%
%ADD16O,0.5500X1.6500*%
%ADD17O,1.6500X0.5500*%
%ADD18C,0.5080*%
%ADD19C,1.5000*%
%ADD20C,1.5240*%
%ADD21C,3.0000*%
%ADD22R,3.0000X3.0000*%
%ADD23C,2.0000*%
%ADD24R,2.0000X2.0000*%
%ADD25C,2.0000*%
%ADD26R,2.0000X2.0000*%
%ADD27R,2.0000X2.0000*%
%ADD28C,1.5000*%
%ADD29R,1.5000X1.5000*%
%ADD30R,2.0000X2.0000*%
%ADD31C,1.4000*%
%ADD32C,0.5000*%
%ADD33C,3.4500*%
%ADD34C,0.8000*%
%ADD35O,0.5800X1.3000*%
%ADD36R,0.5800X1.3000*%
%ADD37R,6.5000X6.0000*%
%ADD38R,3.0000X1.4000*%
%ADD39C,1.0000*%
%ADD40R,2.2191X0.9960*%
%ADD41C,0.2540*%
%ADD42C,0.2500*%
%ADD43C,0.2000*%
%ADD44C,0.6000*%
%ADD45R,0.8000X2.8000*%
%ADD46R,2.8000X0.8000*%
D41*
X00236220Y00237490D02*
G03*
X00257824Y00262705I-00001905J00023495D01*
G01*
X00257810Y00262890D02*
G03*
X00236220Y00288290I-00023495J00001905D01*
G01*
X00143510Y00262890D02*
G03*
X00165100Y00237490I00023495J-00001905D01*
G01*
Y00288290D02*
G03*
X00143496Y00263075I00001905J-00023495D01*
G01*
X00165100Y00237490D02*
X00236220D01*
X00165100Y00288290D02*
X00236220D01*
X00541945Y00357875D02*
Y00445785D01*
X00163195Y00507035D02*
X00474755D01*
X00162785Y00297035D02*
X00484915D01*
X00101945Y00357875D02*
Y00445785D01*
X00339090Y00210820D02*
Y00274320D01*
Y00210820D02*
X00402590D01*
Y00274320D01*
X00339090D02*
X00402590D01*
X00524510Y00524510D02*
Y00640080D01*
X00588010D01*
Y00524510D02*
Y00640080D01*
X00524510Y00524510D02*
X00588010D01*
X00273050Y00552450D02*
X00415290D01*
X00273050D02*
Y00717550D01*
X00415290D01*
Y00552450D02*
Y00717550D01*
X00511810Y00218440D02*
Y00256540D01*
X00448310D02*
X00511810D01*
X00448310Y00218440D02*
Y00256540D01*
Y00218440D02*
X00511810D01*
X00194310Y00261457D02*
Y00259791D01*
X00197642Y00256458D01*
X00200975Y00259791D01*
Y00261457D01*
X00197642Y00256458D02*
Y00251460D01*
X00204307D02*
X00207639D01*
X00205973D01*
Y00261457D01*
X00204307Y00259791D01*
X00415605Y00223357D02*
X00412272D01*
X00413938D01*
Y00215026D01*
X00412272Y00213360D01*
X00410606D01*
X00408940Y00215026D01*
X00425601Y00213360D02*
X00418937D01*
X00425601Y00220025D01*
Y00221691D01*
X00423935Y00223357D01*
X00420603D01*
X00418937Y00221691D01*
X00324561Y00422595D02*
X00326227Y00424262D01*
Y00427594D01*
X00324561Y00429260D01*
X00317896D01*
X00316230Y00427594D01*
Y00424262D01*
X00317896Y00422595D01*
X00316230Y00414265D02*
X00326227D01*
X00321228Y00419263D01*
Y00412599D01*
X00104140Y00525780D02*
X00114137D01*
Y00520782D01*
X00112471Y00519115D01*
X00109138D01*
X00107472Y00520782D01*
Y00525780D01*
Y00522448D02*
X00104140Y00519115D01*
Y00515783D02*
Y00512451D01*
Y00514117D01*
X00114137D01*
X00112471Y00515783D01*
X00104140Y00502454D02*
X00114137D01*
X00109138Y00507453D01*
Y00500788D01*
X00222250Y00538317D02*
Y00528320D01*
X00227248D01*
X00228915Y00529986D01*
Y00536651D01*
X00227248Y00538317D01*
X00222250D01*
X00238911D02*
X00235579Y00536651D01*
X00232247Y00533318D01*
Y00529986D01*
X00233913Y00528320D01*
X00237245D01*
X00238911Y00529986D01*
Y00531652D01*
X00237245Y00533318D01*
X00232247D01*
X00535937Y00664205D02*
X00530858D01*
X00533397D01*
Y00651509D01*
X00530858Y00648970D01*
X00528319D01*
X00525780Y00651509D01*
X00541015Y00648970D02*
X00546093D01*
X00543554D01*
Y00664205D01*
X00541015Y00661666D01*
X00265744Y00222961D02*
X00264078Y00224627D01*
X00260746D01*
X00259080Y00222961D01*
Y00221294D01*
X00260746Y00219628D01*
X00264078D01*
X00265744Y00217962D01*
Y00216296D01*
X00264078Y00214630D01*
X00260746D01*
X00259080Y00216296D01*
X00269077Y00224627D02*
Y00214630D01*
X00272409Y00217962D01*
X00275741Y00214630D01*
Y00224627D01*
X00279074Y00214630D02*
X00282406D01*
X00280740D01*
Y00224627D01*
X00279074Y00222961D01*
X00177800Y00574040D02*
X00187797D01*
Y00569042D01*
X00186131Y00567375D01*
X00182798D01*
X00181132Y00569042D01*
Y00574040D01*
Y00570708D02*
X00177800Y00567375D01*
Y00564043D02*
Y00560711D01*
Y00562377D01*
X00187797D01*
X00186131Y00564043D01*
X00177800Y00555713D02*
Y00552380D01*
Y00554046D01*
X00187797D01*
X00186131Y00555713D01*
X00152400Y00228600D02*
X00162397D01*
Y00223602D01*
X00160731Y00221936D01*
X00157398D01*
X00155732Y00223602D01*
Y00228600D01*
Y00225268D02*
X00152400Y00221936D01*
X00162397Y00218603D02*
Y00211939D01*
X00160731D01*
X00154066Y00218603D01*
X00152400D01*
X00194310Y00690880D02*
X00204307D01*
Y00685882D01*
X00202641Y00684215D01*
X00199308D01*
X00197642Y00685882D01*
Y00690880D01*
Y00687548D02*
X00194310Y00684215D01*
X00204307Y00674219D02*
Y00680883D01*
X00199308D01*
X00200975Y00677551D01*
Y00675885D01*
X00199308Y00674219D01*
X00195976D01*
X00194310Y00675885D01*
Y00679217D01*
X00195976Y00680883D01*
X00473547Y00608330D02*
X00463550D01*
Y00603332D01*
X00465216Y00601665D01*
X00471881D01*
X00473547Y00603332D01*
Y00608330D01*
X00463550Y00593335D02*
X00473547D01*
X00468548Y00598333D01*
Y00591669D01*
X00439257Y00607060D02*
X00429260D01*
Y00602062D01*
X00430926Y00600396D01*
X00437591D01*
X00439257Y00602062D01*
Y00607060D01*
X00437591Y00597063D02*
X00439257Y00595397D01*
Y00592065D01*
X00437591Y00590399D01*
X00435924D01*
X00434258Y00592065D01*
Y00593731D01*
Y00592065D01*
X00432592Y00590399D01*
X00430926D01*
X00429260Y00592065D01*
Y00595397D01*
X00430926Y00597063D01*
X00281940Y00334010D02*
Y00344007D01*
X00286938D01*
X00288605Y00342341D01*
Y00339008D01*
X00286938Y00337342D01*
X00281940D01*
X00285272D02*
X00288605Y00334010D01*
X00291937Y00342341D02*
X00293603Y00344007D01*
X00296935D01*
X00298601Y00342341D01*
Y00340675D01*
X00296935Y00339008D01*
X00295269D01*
X00296935D01*
X00298601Y00337342D01*
Y00335676D01*
X00296935Y00334010D01*
X00293603D01*
X00291937Y00335676D01*
X00274320Y00726440D02*
Y00736437D01*
X00279318D01*
X00280984Y00734771D01*
Y00731438D01*
X00279318Y00729772D01*
X00274320D01*
X00290981Y00736437D02*
X00284317D01*
Y00731438D01*
X00287649Y00733104D01*
X00289315D01*
X00290981Y00731438D01*
Y00728106D01*
X00289315Y00726440D01*
X00285983D01*
X00284317Y00728106D01*
X00160731Y00538166D02*
X00162397Y00539832D01*
Y00543164D01*
X00160731Y00544830D01*
X00154066D01*
X00152400Y00543164D01*
Y00539832D01*
X00154066Y00538166D01*
X00152400Y00534833D02*
Y00531501D01*
Y00533167D01*
X00162397D01*
X00160731Y00534833D01*
X00324561Y00389576D02*
X00326227Y00391242D01*
Y00394574D01*
X00324561Y00396240D01*
X00317896D01*
X00316230Y00394574D01*
Y00391242D01*
X00317896Y00389576D01*
X00316230Y00379579D02*
Y00386243D01*
X00322895Y00379579D01*
X00324561D01*
X00326227Y00381245D01*
Y00384577D01*
X00324561Y00386243D01*
X00164144Y00695401D02*
X00162478Y00697067D01*
X00159146D01*
X00157480Y00695401D01*
Y00688736D01*
X00159146Y00687070D01*
X00162478D01*
X00164144Y00688736D01*
X00167477Y00695401D02*
X00169143Y00697067D01*
X00172475D01*
X00174141Y00695401D01*
Y00693735D01*
X00172475Y00692068D01*
X00170809D01*
X00172475D01*
X00174141Y00690402D01*
Y00688736D01*
X00172475Y00687070D01*
X00169143D01*
X00167477Y00688736D01*
X00299720Y00281777D02*
Y00271780D01*
X00304718D01*
X00306385Y00273446D01*
Y00280111D01*
X00304718Y00281777D01*
X00299720D01*
X00316381Y00271780D02*
X00309717D01*
X00316381Y00278444D01*
Y00280111D01*
X00314715Y00281777D01*
X00311383D01*
X00309717Y00280111D01*
X00228600Y00582767D02*
X00231932D01*
X00230266D01*
Y00572770D01*
X00228600D01*
X00231932D01*
X00243595Y00581101D02*
X00241929Y00582767D01*
X00238597D01*
X00236931Y00581101D01*
Y00579435D01*
X00238597Y00577768D01*
X00241929D01*
X00243595Y00576102D01*
Y00574436D01*
X00241929Y00572770D01*
X00238597D01*
X00236931Y00574436D01*
X00246927Y00572770D02*
Y00582767D01*
X00251926D01*
X00253592Y00581101D01*
Y00577768D01*
X00251926Y00576102D01*
X00246927D01*
X00385206Y00381955D02*
X00391871D01*
X00393537Y00383622D01*
Y00386954D01*
X00391871Y00388620D01*
X00385206D01*
X00383540Y00386954D01*
Y00383622D01*
X00386872Y00385288D02*
X00383540Y00381955D01*
Y00383622D02*
X00385206Y00381955D01*
X00383540Y00378623D02*
Y00375291D01*
Y00376957D01*
X00393537D01*
X00391871Y00378623D01*
X00254000Y00334010D02*
Y00344007D01*
X00258998D01*
X00260665Y00342341D01*
Y00339008D01*
X00258998Y00337342D01*
X00254000D01*
X00257332D02*
X00260665Y00334010D01*
X00270661D02*
X00263997D01*
X00270661Y00340675D01*
Y00342341D01*
X00268995Y00344007D01*
X00265663D01*
X00263997Y00342341D01*
X00308610Y00334010D02*
Y00344007D01*
X00313608D01*
X00315275Y00342341D01*
Y00339008D01*
X00313608Y00337342D01*
X00308610D01*
X00311942D02*
X00315275Y00334010D01*
X00323605D02*
Y00344007D01*
X00318607Y00339008D01*
X00325271D01*
X00391160Y00434340D02*
Y00444337D01*
X00396158D01*
X00397825Y00442671D01*
Y00439338D01*
X00396158Y00437672D01*
X00391160D01*
X00394492D02*
X00397825Y00434340D01*
X00401157D02*
X00404489D01*
X00402823D01*
Y00444337D01*
X00401157Y00442671D01*
X00189230Y00441797D02*
Y00433466D01*
X00190896Y00431800D01*
X00194228D01*
X00195895Y00433466D01*
Y00441797D01*
X00199227Y00431800D02*
X00202559D01*
X00200893D01*
Y00441797D01*
X00199227Y00440131D01*
X00133350Y00650077D02*
Y00641746D01*
X00135016Y00640080D01*
X00138348D01*
X00140014Y00641746D01*
Y00650077D01*
X00150011Y00640080D02*
X00143347D01*
X00150011Y00646745D01*
Y00648411D01*
X00148345Y00650077D01*
X00145013D01*
X00143347Y00648411D01*
X00509270Y00279237D02*
Y00269240D01*
X00514268D01*
X00515934Y00270906D01*
Y00277571D01*
X00514268Y00279237D01*
X00509270D01*
X00519267Y00269240D02*
X00522599D01*
X00520933D01*
Y00279237D01*
X00519267Y00277571D01*
X00462280Y00213197D02*
Y00203200D01*
X00467278D01*
X00468945Y00204866D01*
Y00211531D01*
X00467278Y00213197D01*
X00462280D01*
X00477275D02*
X00473943D01*
X00472277Y00211531D01*
Y00204866D01*
X00473943Y00203200D01*
X00477275D01*
X00478941Y00204866D01*
Y00211531D01*
X00477275Y00213197D01*
X00487272D02*
X00483940D01*
X00482274Y00211531D01*
Y00204866D01*
X00483940Y00203200D01*
X00487272D01*
X00488938Y00204866D01*
Y00211531D01*
X00487272Y00213197D01*
X00492270Y00203200D02*
Y00213197D01*
X00497269D01*
X00498935Y00211531D01*
Y00208198D01*
X00497269Y00206532D01*
X00492270D01*
X00495603D02*
X00498935Y00203200D01*
X00506567Y00608330D02*
X00496570D01*
Y00603332D01*
X00498236Y00601665D01*
X00504901D01*
X00506567Y00603332D01*
Y00608330D01*
Y00591669D02*
Y00598333D01*
X00501568D01*
X00503234Y00595001D01*
Y00593335D01*
X00501568Y00591669D01*
X00498236D01*
X00496570Y00593335D01*
Y00596667D01*
X00498236Y00598333D01*
X00140965Y00414022D02*
Y00419101D01*
X00138426Y00421640D01*
X00128269D01*
X00125730Y00419101D01*
Y00414022D01*
X00128269Y00411483D01*
X00138426D01*
X00140965Y00414022D01*
Y00406405D02*
X00128269D01*
X00125730Y00403866D01*
Y00398787D01*
X00128269Y00396248D01*
X00140965D01*
Y00391170D02*
Y00381013D01*
Y00386091D01*
X00125730D01*
X00521965Y00414020D02*
Y00408942D01*
Y00411481D01*
X00506730D01*
Y00414020D01*
Y00408942D01*
Y00401324D02*
X00521965D01*
X00506730Y00391167D01*
X00521965D01*
D42*
X00127610Y00635880D02*
G03*
X00127610Y00635880I-00001250J00000000D01*
G01*
X00412710Y00358740D02*
G03*
X00412710Y00358740I-00001250J00000000D01*
G01*
X00218330Y00437570D02*
G03*
X00218330Y00437570I-00001250J00000000D01*
G01*
D43*
X00287070Y00269620D02*
G03*
X00295070Y00269620I00004000J00000000D01*
G01*
X00182690Y00228480D02*
X00190690D01*
X00182690Y00213480D02*
X00190690D01*
X00331590Y00406210D02*
Y00414210D01*
X00346590Y00406210D02*
Y00414210D01*
X00256370Y00519400D02*
Y00547400D01*
X00203370Y00519400D02*
X00256370D01*
X00203370Y00547400D02*
X00256370D01*
X00139860Y00583330D02*
X00159860D01*
X00139860Y00633330D02*
X00159860D01*
Y00583330D02*
Y00633330D01*
X00139860Y00583330D02*
Y00633330D01*
X00424170Y00287790D02*
Y00396290D01*
X00354320Y00287240D02*
Y00395740D01*
X00257810Y00616797D02*
Y00665480D01*
Y00589280D02*
Y00665480D01*
X00207010Y00589280D02*
Y00665480D01*
Y00589280D02*
X00257810D01*
X00207010Y00665480D02*
X00257810D01*
X00291420Y00237620D02*
Y00269620D01*
X00290720Y00237620D02*
X00291420D01*
X00290720D02*
Y00269620D01*
X00295070D01*
X00287070D02*
X00291420D01*
X00454630Y00622130D02*
X00482630D01*
Y00569130D02*
Y00622130D01*
X00454630Y00569130D02*
Y00622130D01*
X00145860Y00555110D02*
X00153860D01*
X00145860Y00570110D02*
X00153860D01*
X00487650Y00569130D02*
Y00622130D01*
X00515650Y00569130D02*
Y00622130D01*
X00487650D02*
X00515650D01*
X00492930Y00261590D02*
X00545930D01*
X00492930Y00289590D02*
X00545930D01*
X00492930Y00261590D02*
Y00289590D01*
X00393510Y00425330D02*
X00401510D01*
X00393510Y00410330D02*
X00401510D01*
X00324210Y00305880D02*
Y00313880D01*
X00309210Y00305880D02*
Y00313880D01*
X00272140Y00305880D02*
Y00313880D01*
X00257140Y00305880D02*
Y00313880D01*
X00173870Y00658940D02*
Y00666940D01*
X00158870Y00658940D02*
Y00666940D01*
X00331590Y00361760D02*
Y00369760D01*
X00346590Y00361760D02*
Y00369760D01*
X00125540Y00545980D02*
X00133540D01*
X00125540Y00530980D02*
X00133540D01*
X00298810Y00305880D02*
Y00313880D01*
X00283810Y00305880D02*
Y00313880D01*
X00421610Y00622130D02*
X00449610D01*
Y00569130D02*
Y00622130D01*
X00421610Y00569130D02*
Y00622130D01*
X00227140Y00674490D02*
X00235140D01*
X00227140Y00689490D02*
X00235140D01*
X00135700Y00504310D02*
X00143700D01*
X00135700Y00519310D02*
X00143700D01*
X00238760Y00229870D02*
X00299720D01*
Y00209550D02*
Y00229870D01*
X00238760Y00209550D02*
X00299720D01*
X00228600Y00219710D02*
X00232410D01*
X00299720D02*
X00309880D01*
X00229580Y00371820D02*
X00288580D01*
X00229580Y00430820D02*
X00288580D01*
Y00371820D02*
Y00430820D01*
X00229580Y00371820D02*
Y00430820D01*
D44*
X00242580Y00420820D02*
G03*
X00242580Y00420820I-00003000J00000000D01*
G01*
D45*
X00206370Y00533405D02*
D03*
X00542901Y00275488D02*
D03*
D46*
X00468579Y00572158D02*
D03*
X00501622Y00572156D02*
D03*
X00435514Y00572154D02*
D03*
M02*
