M48
;Layer_Color=9474304
;FILE_FORMAT=4:4
METRIC
;TYPE=PLATED
T1F00S00C0.3000
T2F00S00C0.5000
T3F00S00C0.7620
T4F00S00C0.8500
T5F00S00C0.9000
T6F00S00C1.0000
T7F00S00C1.1000
T8F00S00C1.2000
T9F00S00C3.4500
;TYPE=NON_PLATED
T10F00S00C4.0000
T11F00S00C5.0000
%
T01
X00233680Y00322580
X00231140Y00342900
X00248920Y00378460
X00257810Y00382270
X00279400Y00391160
X00321310Y00373380
X00331452Y00365760
X00439420Y00360680
X00447040Y00353060
X00454660Y00344170
X00462280Y00334010
X00363220Y00417830
X00356870Y00441960
X00325120Y00454660
X00306070Y00440690
X00276860Y00424180
X00280670Y00411480
X00241300Y00425450
X00255270Y00457141
X00210820Y00443230
X00190500Y00463550
X00177800Y00477520
X00182880Y00416560
X00193040Y00560070
X00198120Y00568960
X00143510Y00589280
X00144780Y00627380
X00121920Y00566420
X00316230Y00514350
T02
X00236220Y00398780
T03
X00176260Y00262890
X00225060
X00132580Y00321400
X00514985
Y00479505
X00132580Y00478235
T04
X00218440Y00219710
X00243840
X00320040
T05
X00219710Y00601980
Y00627380
Y00652780
X00245110
Y00627380
Y00601980
T06
X00318770Y00590550
X00339170
X00359570
X00369770Y00610850
X00349370
X00328970
T07
X00358140Y00229870
Y00255270
X00383540
Y00229870
X00467760Y00237490
X00492760
X00543560Y00543560
X00568960
Y00568960
Y00594360
Y00619760
X00543560
Y00594360
Y00568960
T08
X00466800Y00280010
X00571400
X00501650Y00543330
X00468630
X00435610
Y00647930
X00468630
X00501650
X00282170Y00533400
X00177570
T09
X00296570Y00641350
X00391770
T10
X00130000Y00230000
X00570000
Y00670000
X00130000
T11
X00284580Y00488235
M30
